<?xml version="1.0" encoding="UTF-8"?>
<svg id="_图层_1" data-name="图层_1" xmlns="http://www.w3.org/2000/svg" viewBox="0 0 141.73 141.73">
  <defs>
    <style>
      .cls-1 {
        fill: #9d2324;
      }

      .cls-2 {
        fill: #cc261c;
      }

      .cls-3 {
        fill: #681218;
      }
    </style>
  </defs>
  <polygon class="cls-3" points="14.18 78.93 52.7 76.17 18.76 94.41 54.92 80.99 27.59 108 58.46 85.02 39.89 118.55 63.01 87.93 54.71 125.26 68.16 89.43 70.88 127.56 73.56 89.42 86.97 125.27 78.74 87.92 101.84 118.56 83.25 85.05 114.15 107.99 86.8 80.99 122.95 94.44 89.04 76.14 127.56 78.93 89.8 70.89 127.55 62.8 89.03 65.56 122.97 47.33 86.81 60.74 114.14 33.73 83.27 56.71 101.84 23.18 78.72 53.81 87.02 16.47 73.57 52.31 70.85 14.17 68.17 52.31 54.76 16.46 62.99 53.81 39.9 23.17 58.48 56.69 27.59 33.74 54.93 60.74 18.78 47.29 52.69 65.59 14.17 62.8 51.93 70.84 14.18 78.93"/>
  <polygon class="cls-1" points="52.93 73.44 22.24 70.87 52.93 68.29 24.2 57.31 54.37 63.42 29.97 44.83 57.16 59.12 39.02 34.49 61.08 55.76 50.66 27.08 65.75 53.64 63.96 23.21 70.87 52.93 77.77 23.21 75.98 53.64 91.08 27.08 80.66 55.76 102.71 34.49 84.57 59.12 111.77 44.83 87.37 63.42 117.53 57.31 88.81 68.29 119.49 70.87 88.81 73.44 117.53 84.42 87.37 78.31 111.77 96.9 84.57 82.61 102.71 107.24 80.66 85.97 91.08 114.65 75.98 88.09 77.77 118.52 70.87 88.81 63.96 118.52 65.75 88.09 50.66 114.65 61.08 85.97 39.02 107.24 57.16 82.61 29.97 96.9 54.37 78.31 24.2 84.42 52.93 73.44"/>
  <g>
    <polygon class="cls-2" points="70.87 76.36 65.08 110.82 69.29 76.15 53.99 107.43 67.88 75.51 44.11 101.42 66.66 74.46 36.6 92.68 65.8 73.14 31.94 82.17 65.37 71.68 29.92 70.87 65.37 70.06 31.94 59.56 65.8 68.59 36.59 49.05 66.66 67.27 44.11 40.31 67.88 66.23 53.99 34.3 69.29 65.58 65.08 30.92 70.87 65.37 76.65 30.91 72.44 65.58 87.74 34.3 73.85 66.23 97.62 40.31 75.07 67.27 105.14 49.05 75.93 68.59 109.79 59.56 76.36 70.06 111.82 70.87 76.36 71.68 109.79 82.17 75.93 73.14 105.14 92.68 75.07 74.46 97.62 101.42 73.85 75.5 87.74 107.43 72.44 76.15 76.65 110.82 70.87 76.36"/>
    <path class="cls-2" d="M75.5,38.84l-3.11,25.65-.26,2.14.95-1.94,11.23-22.96-10.2,23.43-.87,1.99,1.47-1.6,17.65-19.25-16.75,20.02-1.4,1.67,1.87-1.13,22.22-13.47-21.58,14.44-1.81,1.21,2.11-.56,24.8-6.62-24.48,7.69-2.09.66,2.19.05,26.45.6-26.45.6-2.19.05,2.09.66,24.48,7.69-24.8-6.61-2.11-.56,1.81,1.21,21.58,14.44-22.22-13.47-1.87-1.13,1.4,1.67,16.75,20.02-17.65-19.25-1.47-1.6.87,1.99,10.2,23.43-11.23-22.96-.95-1.94.26,2.14,3.11,25.65-4.28-25.49-.36-2.14-.36,2.14-4.28,25.49,3.11-25.65.26-2.14-.95,1.94-11.23,22.96,10.2-23.43.87-1.99-1.47,1.6-17.65,19.25,16.75-20.02,1.4-1.67-1.87,1.13-22.22,13.47,21.58-14.44,1.81-1.21-2.11.56-24.8,6.62,24.48-7.69,2.09-.66-2.19-.05-26.45-.6,26.45-.6,2.19-.05-2.09-.66-24.48-7.69,24.8,6.61,2.11.56-1.81-1.21-21.58-14.44,22.22,13.47,1.87,1.13-1.4-1.67-16.75-20.02,17.65,19.25,1.47,1.6-.87-1.99-10.2-23.43,11.23,22.96.95,1.94-.26-2.14-3.11-25.65,4.28,25.49.36,2.14.36-2.14,4.28-25.49M77.79,22.99l-6.93,41.28-6.93-41.28,5.04,41.55-18.42-37.66,16.72,38.43-28.41-30.98,26.96,32.23-36.05-21.85,35.02,23.43-40.82-10.89,40.29,12.65-42.26.97,42.26.97-40.29,12.65,40.82-10.89-35.02,23.44,36.05-21.85-26.96,32.23,28.41-30.98-16.72,38.43,18.42-37.66-5.04,41.55,6.93-41.28,6.93,41.28-5.04-41.55,18.42,37.66-16.72-38.43,28.41,30.98-26.96-32.23,36.05,21.85-35.02-23.43,40.82,10.89-40.29-12.65,42.26-.97-42.26-.97,40.29-12.65-40.82,10.89,35.02-23.43-36.05,21.85,26.96-32.23-28.41,30.98,16.72-38.43-18.42,37.66,5.04-41.55h0Z"/>
  </g>
</svg>