<?xml version="1.0" encoding="UTF-8"?>
<svg id="_图层_1" data-name="图层_1" xmlns="http://www.w3.org/2000/svg" viewBox="0 0 141.73 141.73">
  <defs>
    <style>
      .cls-1 {
        fill: #c7e3c9;
      }

      .cls-2 {
        fill: #349394;
      }

      .cls-3 {
        fill: #80c489;
      }
    </style>
  </defs>
  <g>
    <g id="_x3C_径向重复_x3E_">
      <ellipse class="cls-1" cx="70.87" cy="111.28" rx="5.27" ry="10.01"/>
    </g>
    <g id="_x3C_径向重复_x3E_-2" data-name="_x3C_径向重复_x3E_">
      <ellipse class="cls-1" cx="59.48" cy="109.65" rx="10.01" ry="5.27" transform="translate(-62.48 135.82) rotate(-73.64)"/>
    </g>
    <g id="_x3C_径向重复_x3E_-3" data-name="_x3C_径向重复_x3E_">
      <ellipse class="cls-1" cx="49.01" cy="104.87" rx="10.01" ry="5.27" transform="translate(-65.7 89.41) rotate(-57.27)"/>
    </g>
    <g id="_x3C_径向重复_x3E_-4" data-name="_x3C_径向重复_x3E_">
      <ellipse class="cls-1" cx="40.32" cy="97.33" rx="10.01" ry="5.27" transform="translate(-53.89 50.18) rotate(-40.91)"/>
    </g>
    <g id="_x3C_径向重复_x3E_-5" data-name="_x3C_径向重复_x3E_">
      <ellipse class="cls-1" cx="34.1" cy="87.66" rx="10.01" ry="5.27" transform="translate(-33.33 22.09) rotate(-24.55)"/>
    </g>
    <g id="_x3C_径向重复_x3E_-6" data-name="_x3C_径向重复_x3E_">
      <ellipse class="cls-1" cx="30.86" cy="76.62" rx="10.01" ry="5.27" transform="translate(-10.59 5.17) rotate(-8.18)"/>
    </g>
    <g id="_x3C_径向重复_x3E_-7" data-name="_x3C_径向重复_x3E_">
      <ellipse class="cls-1" cx="30.86" cy="65.11" rx="5.27" ry="10.01" transform="translate(-37.98 86.39) rotate(-81.82)"/>
    </g>
    <g id="_x3C_径向重复_x3E_-8" data-name="_x3C_径向重复_x3E_">
      <ellipse class="cls-1" cx="34.1" cy="54.08" rx="5.27" ry="10.01" transform="translate(-29.26 62.63) rotate(-65.45)"/>
    </g>
    <g id="_x3C_径向重复_x3E_-9" data-name="_x3C_径向重复_x3E_">
      <ellipse class="cls-1" cx="40.32" cy="44.4" rx="5.27" ry="10.01" transform="translate(-19.64 45.8) rotate(-49.09)"/>
    </g>
    <g id="_x3C_径向重复_x3E_-10" data-name="_x3C_径向重复_x3E_">
      <ellipse class="cls-1" cx="49.01" cy="36.86" rx="5.27" ry="10.01" transform="translate(-12.15 32.35) rotate(-32.73)"/>
    </g>
    <g id="_x3C_径向重复_x3E_-11" data-name="_x3C_径向重复_x3E_">
      <ellipse class="cls-1" cx="59.48" cy="32.09" rx="5.27" ry="10.01" transform="translate(-6.63 18.06) rotate(-16.36)"/>
    </g>
    <g id="_x3C_径向重复_x3E_-12" data-name="_x3C_径向重复_x3E_">
      <ellipse class="cls-1" cx="70.87" cy="30.45" rx="5.27" ry="10.01"/>
    </g>
    <g id="_x3C_径向重复_x3E_-13" data-name="_x3C_径向重复_x3E_">
      <ellipse class="cls-1" cx="82.25" cy="32.09" rx="10.01" ry="5.27" transform="translate(28.29 101.97) rotate(-73.64)"/>
    </g>
    <g id="_x3C_径向重复_x3E_-14" data-name="_x3C_径向重复_x3E_">
      <ellipse class="cls-1" cx="92.72" cy="36.86" rx="10.01" ry="5.27" transform="translate(11.58 94.93) rotate(-57.27)"/>
    </g>
    <g id="_x3C_径向重复_x3E_-15" data-name="_x3C_径向重复_x3E_">
      <ellipse class="cls-1" cx="101.41" cy="44.4" rx="10.01" ry="5.27" transform="translate(-4.31 77.25) rotate(-40.91)"/>
    </g>
    <g id="_x3C_径向重复_x3E_-16" data-name="_x3C_径向重复_x3E_">
      <ellipse class="cls-1" cx="107.63" cy="54.08" rx="10.01" ry="5.27" transform="translate(-12.74 49.6) rotate(-24.55)"/>
    </g>
    <g id="_x3C_径向重复_x3E_-17" data-name="_x3C_径向重复_x3E_">
      <ellipse class="cls-1" cx="110.87" cy="65.11" rx="10.01" ry="5.27" transform="translate(-8.14 16.44) rotate(-8.18)"/>
    </g>
    <g id="_x3C_径向重复_x3E_-18" data-name="_x3C_径向重复_x3E_">
      <ellipse class="cls-1" cx="110.87" cy="76.62" rx="5.27" ry="10.01" transform="translate(19.25 175.46) rotate(-81.82)"/>
    </g>
    <g id="_x3C_径向重复_x3E_-19" data-name="_x3C_径向重复_x3E_">
      <ellipse class="cls-1" cx="107.63" cy="87.66" rx="5.27" ry="10.01" transform="translate(-16.82 149.15) rotate(-65.45)"/>
    </g>
    <g id="_x3C_径向重复_x3E_-20" data-name="_x3C_径向重复_x3E_">
      <ellipse class="cls-1" cx="101.41" cy="97.33" rx="5.27" ry="10.01" transform="translate(-38.56 110.24) rotate(-49.09)"/>
    </g>
    <g id="_x3C_径向重复_x3E_-21" data-name="_x3C_径向重复_x3E_">
      <ellipse class="cls-1" cx="92.72" cy="104.87" rx="5.27" ry="10.01" transform="translate(-41.98 66.77) rotate(-32.73)"/>
    </g>
    <g id="_x3C_径向重复_x3E_-22" data-name="_x3C_径向重复_x3E_">
      <ellipse class="cls-1" cx="82.25" cy="109.65" rx="5.27" ry="10.01" transform="translate(-27.56 27.61) rotate(-16.36)"/>
    </g>
  </g>
  <g>
    <g id="_x3C_径向重复_x3E_-23" data-name="_x3C_径向重复_x3E_">
      <path class="cls-3" d="M70.48,110.05c-.65-.8-1.76-4.9.39-31.3,2.15,26.4,1.04,30.49.39,31.3-.24.3-.54.3-.78,0Z"/>
    </g>
    <g id="_x3C_径向重复_x3E_-24" data-name="_x3C_径向重复_x3E_">
      <path class="cls-3" d="M59.45,108.35c-.4-.96-.31-5.2,9.19-29.92-5.37,25.94-7.59,29.55-8.44,30.14-.31.22-.6.13-.75-.22Z"/>
    </g>
    <g id="_x3C_径向重复_x3E_-25" data-name="_x3C_径向重复_x3E_">
      <path class="cls-3" d="M49.36,103.61c-.11-1.03,1.17-5.07,17.25-26.12-12.46,23.37-15.61,26.22-16.59,26.54-.36.12-.61-.04-.65-.42Z"/>
    </g>
    <g id="_x3C_径向重复_x3E_-26" data-name="_x3C_径向重复_x3E_">
      <path class="cls-3" d="M41,96.23c.18-1.02,2.55-4.54,23.91-20.2-18.54,18.91-22.36,20.76-23.4,20.79-.38.01-.58-.21-.51-.59Z"/>
    </g>
    <g id="_x3C_径向重复_x3E_-27" data-name="_x3C_径向重复_x3E_">
      <path class="cls-3" d="M35.07,86.79c.46-.93,3.72-3.64,28.63-12.65-23.12,12.92-27.3,13.62-28.31,13.36-.37-.1-.49-.37-.32-.71Z"/>
    </g>
    <g id="_x3C_径向重复_x3E_-28" data-name="_x3C_径向重复_x3E_">
      <path class="cls-3" d="M32.03,76.06c.7-.76,4.6-2.44,31.04-4.07-25.83,5.89-30.03,5.37-30.92,4.84-.33-.2-.37-.49-.11-.77Z"/>
    </g>
    <g id="_x3C_径向重复_x3E_-29" data-name="_x3C_径向重复_x3E_">
      <path class="cls-3" d="M32.14,64.91c.89-.53,5.1-1.05,30.92,4.84-26.44-1.63-30.33-3.31-31.04-4.07-.26-.28-.22-.57.11-.77Z"/>
    </g>
    <g id="_x3C_径向重复_x3E_-30" data-name="_x3C_径向重复_x3E_">
      <path class="cls-3" d="M35.39,54.24c1-.26,5.19.43,28.31,13.36-24.91-9.01-28.17-11.72-28.63-12.65-.17-.34-.05-.61.32-.71Z"/>
    </g>
    <g id="_x3C_径向重复_x3E_-31" data-name="_x3C_径向重复_x3E_">
      <path class="cls-3" d="M41.51,44.92c1.04.03,4.85,1.88,23.4,20.79-21.36-15.66-23.73-19.18-23.91-20.2-.07-.37.13-.6.51-.59Z"/>
    </g>
    <g id="_x3C_径向重复_x3E_-32" data-name="_x3C_径向重复_x3E_">
      <path class="cls-3" d="M50.01,37.7c.99.32,4.13,3.17,16.59,26.54-16.08-21.05-17.36-25.09-17.25-26.12.04-.38.29-.54.65-.42Z"/>
    </g>
    <g id="_x3C_径向重复_x3E_-33" data-name="_x3C_径向重复_x3E_">
      <path class="cls-3" d="M60.2,33.16c.85.59,3.07,4.2,8.44,30.14-9.5-24.73-9.59-28.96-9.19-29.92.15-.35.43-.44.75-.22Z"/>
    </g>
    <g id="_x3C_径向重复_x3E_-34" data-name="_x3C_径向重复_x3E_">
      <path class="cls-3" d="M71.26,31.69c.65.8,1.76,4.9-.39,31.3-2.15-26.4-1.04-30.49-.39-31.3.24-.3.54-.3.78,0Z"/>
    </g>
    <g id="_x3C_径向重复_x3E_-35" data-name="_x3C_径向重复_x3E_">
      <path class="cls-3" d="M82.28,33.38c.4.96.31,5.2-9.19,29.92,5.37-25.94,7.59-29.55,8.44-30.14.31-.22.6-.13.75.22Z"/>
    </g>
    <g id="_x3C_径向重复_x3E_-36" data-name="_x3C_径向重复_x3E_">
      <path class="cls-3" d="M92.37,38.12c.11,1.03-1.17,5.07-17.25,26.12,12.46-23.37,15.61-26.22,16.59-26.54.36-.12.61.04.65.42Z"/>
    </g>
    <g id="_x3C_径向重复_x3E_-37" data-name="_x3C_径向重复_x3E_">
      <path class="cls-3" d="M100.73,45.5c-.18,1.02-2.55,4.54-23.91,20.2,18.54-18.91,22.36-20.76,23.4-20.79.38-.01.58.21.51.59Z"/>
    </g>
    <g id="_x3C_径向重复_x3E_-38" data-name="_x3C_径向重复_x3E_">
      <path class="cls-3" d="M106.67,54.94c-.46.93-3.72,3.64-28.63,12.65,23.12-12.92,27.3-13.62,28.31-13.36.37.1.49.37.32.71Z"/>
    </g>
    <g id="_x3C_径向重复_x3E_-39" data-name="_x3C_径向重复_x3E_">
      <path class="cls-3" d="M109.7,65.68c-.7.76-4.6,2.44-31.04,4.07,25.83-5.89,30.03-5.37,30.92-4.84.33.2.37.49.11.77Z"/>
    </g>
    <g id="_x3C_径向重复_x3E_-40" data-name="_x3C_径向重复_x3E_">
      <path class="cls-3" d="M109.59,76.83c-.89.53-5.1,1.05-30.92-4.84,26.44,1.63,30.33,3.31,31.04,4.07.26.28.22.57-.11.77Z"/>
    </g>
    <g id="_x3C_径向重复_x3E_-41" data-name="_x3C_径向重复_x3E_">
      <path class="cls-3" d="M106.34,87.5c-1,.26-5.19-.43-28.31-13.36,24.91,9.01,28.17,11.72,28.63,12.65.17.34.05.61-.32.71Z"/>
    </g>
    <g id="_x3C_径向重复_x3E_-42" data-name="_x3C_径向重复_x3E_">
      <path class="cls-3" d="M100.22,96.82c-1.04-.03-4.85-1.88-23.4-20.79,21.36,15.66,23.73,19.18,23.91,20.2.07.37-.13.6-.51.59Z"/>
    </g>
    <g id="_x3C_径向重复_x3E_-43" data-name="_x3C_径向重复_x3E_">
      <path class="cls-3" d="M91.72,104.04c-.99-.32-4.13-3.17-16.59-26.54,16.08,21.05,17.36,25.09,17.25,26.12-.04.38-.29.54-.65.42Z"/>
    </g>
    <g id="_x3C_径向重复_x3E_-44" data-name="_x3C_径向重复_x3E_">
      <path class="cls-3" d="M81.53,108.57c-.85-.59-3.07-4.2-8.44-30.14,9.5,24.73,9.59,28.96,9.19,29.92-.15.35-.43.44-.75.22Z"/>
    </g>
  </g>
  <g>
    <g id="_x3C_径向重复_x3E_-45" data-name="_x3C_径向重复_x3E_">
      <path class="cls-2" d="M14.49,70.31c1.16-.94,7.05-2.54,45.04.56-37.99,3.1-43.88,1.5-45.04.56-.43-.35-.43-.78,0-1.12Z"/>
    </g>
    <g id="_x3C_径向重复_x3E_-46" data-name="_x3C_径向重复_x3E_">
      <path class="cls-2" d="M16.93,54.28c1.37-.57,7.47-.43,43.06,13.35-37.31-7.84-42.52-11.05-43.37-12.28-.31-.45-.19-.86.31-1.08Z"/>
    </g>
    <g id="_x3C_径向重复_x3E_-47" data-name="_x3C_径向重复_x3E_">
      <path class="cls-2" d="M23.74,39.61c1.48-.16,7.29,1.71,37.59,25.07-33.62-18.14-37.72-22.7-38.19-24.12-.17-.52.06-.88.6-.94Z"/>
    </g>
    <g id="_x3C_径向重复_x3E_-48" data-name="_x3C_径向重复_x3E_">
      <path class="cls-2" d="M34.37,27.46c1.46.27,6.51,3.72,29.07,34.75-27.19-26.97-29.86-32.51-29.91-34.02-.02-.55.3-.83.84-.73Z"/>
    </g>
    <g id="_x3C_径向重复_x3E_-49" data-name="_x3C_径向重复_x3E_">
      <path class="cls-2" d="M47.95,18.83c1.33.67,5.21,5.42,18.2,41.62-18.57-33.62-19.58-39.69-19.21-41.15.13-.53.52-.71,1.01-.47Z"/>
    </g>
    <g id="_x3C_径向重复_x3E_-50" data-name="_x3C_径向重复_x3E_">
      <path class="cls-2" d="M63.39,14.42c1.09,1.02,3.49,6.69,5.86,45.11-8.44-37.54-7.72-43.66-6.96-44.95.28-.47.7-.54,1.1-.16Z"/>
    </g>
    <g id="_x3C_径向重复_x3E_-51" data-name="_x3C_径向重复_x3E_">
      <path class="cls-2" d="M79.44,14.58c.76,1.29,1.48,7.41-6.96,44.95,2.37-38.43,4.77-44.09,5.86-45.11.4-.38.82-.31,1.1.16Z"/>
    </g>
    <g id="_x3C_径向重复_x3E_-52" data-name="_x3C_径向重复_x3E_">
      <path class="cls-2" d="M94.79,19.3c.37,1.46-.64,7.53-19.21,41.15,12.99-36.19,16.87-40.94,18.2-41.62.49-.25.87-.07,1.01.47Z"/>
    </g>
    <g id="_x3C_径向重复_x3E_-53" data-name="_x3C_径向重复_x3E_">
      <path class="cls-2" d="M108.2,28.19c-.05,1.5-2.72,7.04-29.91,34.02,22.56-31.03,27.61-34.48,29.07-34.75.54-.1.86.18.84.73Z"/>
    </g>
    <g id="_x3C_径向重复_x3E_-54" data-name="_x3C_径向重复_x3E_">
      <path class="cls-2" d="M118.59,40.55c-.47,1.42-4.57,5.98-38.19,24.12,30.3-23.35,36.11-25.23,37.59-25.07.54.06.77.42.6.94Z"/>
    </g>
    <g id="_x3C_径向重复_x3E_-55" data-name="_x3C_径向重复_x3E_">
      <path class="cls-2" d="M125.11,55.36c-.85,1.23-6.05,4.44-43.37,12.28,35.59-13.78,41.68-13.93,43.06-13.35.5.21.62.62.31,1.08Z"/>
    </g>
    <g id="_x3C_径向重复_x3E_-56" data-name="_x3C_径向重复_x3E_">
      <path class="cls-2" d="M127.24,71.43c-1.16.94-7.05,2.54-45.04-.56,37.99-3.1,43.88-1.5,45.04-.56.43.35.43.78,0,1.12Z"/>
    </g>
    <g id="_x3C_径向重复_x3E_-57" data-name="_x3C_径向重复_x3E_">
      <path class="cls-2" d="M124.8,87.45c-1.37.57-7.47.43-43.06-13.35,37.31,7.84,42.52,11.05,43.37,12.28.31.45.19.86-.31,1.08Z"/>
    </g>
    <g id="_x3C_径向重复_x3E_-58" data-name="_x3C_径向重复_x3E_">
      <path class="cls-2" d="M117.99,102.13c-1.48.16-7.29-1.71-37.59-25.07,33.62,18.14,37.72,22.7,38.19,24.12.17.52-.06.88-.6.94Z"/>
    </g>
    <g id="_x3C_径向重复_x3E_-59" data-name="_x3C_径向重复_x3E_">
      <path class="cls-2" d="M107.36,114.27c-1.46-.27-6.51-3.72-29.07-34.75,27.19,26.97,29.86,32.51,29.91,34.02.02.55-.3.83-.84.73Z"/>
    </g>
    <g id="_x3C_径向重复_x3E_-60" data-name="_x3C_径向重复_x3E_">
      <path class="cls-2" d="M93.78,122.9c-1.33-.67-5.21-5.42-18.2-41.62,18.57,33.62,19.58,39.69,19.21,41.15-.13.53-.52.71-1.01.47Z"/>
    </g>
    <g id="_x3C_径向重复_x3E_-61" data-name="_x3C_径向重复_x3E_">
      <path class="cls-2" d="M78.34,127.31c-1.09-1.02-3.49-6.69-5.86-45.11,8.44,37.54,7.72,43.66,6.96,44.95-.28.47-.7.54-1.1.16Z"/>
    </g>
    <g id="_x3C_径向重复_x3E_-62" data-name="_x3C_径向重复_x3E_">
      <path class="cls-2" d="M62.29,127.16c-.76-1.29-1.48-7.41,6.96-44.95-2.37,38.43-4.77,44.09-5.86,45.11-.4.38-.82.31-1.1-.16Z"/>
    </g>
    <g id="_x3C_径向重复_x3E_-63" data-name="_x3C_径向重复_x3E_">
      <path class="cls-2" d="M46.94,122.44c-.37-1.46.64-7.53,19.21-41.15-12.99,36.19-16.87,40.94-18.2,41.62-.49.25-.87.07-1.01-.47Z"/>
    </g>
    <g id="_x3C_径向重复_x3E_-64" data-name="_x3C_径向重复_x3E_">
      <path class="cls-2" d="M33.53,113.54c.05-1.5,2.72-7.04,29.91-34.02-22.56,31.03-27.61,34.48-29.07,34.75-.54.1-.86-.18-.84-.73Z"/>
    </g>
    <g id="_x3C_径向重复_x3E_-65" data-name="_x3C_径向重复_x3E_">
      <path class="cls-2" d="M23.14,101.18c.47-1.42,4.57-5.98,38.19-24.12-30.3,23.35-36.11,25.23-37.59,25.07-.54-.06-.77-.42-.6-.94Z"/>
    </g>
    <g id="_x3C_径向重复_x3E_-66" data-name="_x3C_径向重复_x3E_">
      <path class="cls-2" d="M16.62,86.37c.85-1.23,6.05-4.44,43.37-12.28-35.59,13.78-41.68,13.93-43.06,13.35-.5-.21-.62-.62-.31-1.08Z"/>
    </g>
  </g>
</svg>