<?xml version="1.0" encoding="UTF-8"?>
<svg id="_图层_1" data-name="图层_1" xmlns="http://www.w3.org/2000/svg" viewBox="0 0 185.39 130.66">
  <defs>
    <style>
      .cls-1 {
        fill: #f08126;
      }

      .cls-2 {
        fill: #cebada;
      }

      .cls-3 {
        fill: #ea572a;
      }

      .cls-4 {
        fill: #5f3791;
      }
    </style>
  </defs>
  <path class="cls-4" d="M149.39,65.33c0,1.92-34.61,1.34-34.87,3.19-.27,1.9,33.11,11.14,32.58,12.94-.53,1.83-33.57-8.6-34.34-6.88s28.63,20.15,27.62,21.73-29.79-17.83-31.02-16.4,21.88,27.46,20.46,28.7-23.64-25.55-25.22-24.53c-1.57,1.02,13.37,32.56,11.66,33.35s-15.53-31.26-17.34-30.72,3.7,35.05,1.83,35.32-6.15-34.42-8.05-34.42-6.22,34.68-8.05,34.42,3.61-34.79,1.83-35.32-15.65,31.5-17.34,30.72,13.23-32.33,11.66-33.35-23.81,25.76-25.22,24.53c-1.42-1.24,21.69-27.27,20.46-28.7s-30,17.99-31.02,16.4,28.4-20,27.62-21.73c-.77-1.71-33.81,8.71-34.34,6.88s32.85-11.04,32.58-12.94c-.26-1.85-34.87-1.27-34.87-3.19s34.61-1.34,34.87-3.19-33.11-11.14-32.58-12.94c.53-1.83,33.57,8.6,34.34,6.88.78-1.73-28.63-20.15-27.62-21.73s29.79,17.83,31.02,16.4-21.88-27.46-20.46-28.7c1.41-1.24,23.64,25.55,25.22,24.53,1.57-1.02-13.37-32.56-11.66-33.35s15.53,31.26,17.34,30.72-3.7-35.05-1.83-35.32,6.15,34.42,8.05,34.42,6.22-34.68,8.05-34.42-3.61,34.79-1.83,35.32,15.65-31.5,17.34-30.72c1.71.79-13.23,32.33-11.66,33.35,1.58,1.03,23.81-25.76,25.22-24.53,1.42,1.24-21.69,27.27-20.46,28.7s30-17.99,31.02-16.4-28.4,20-27.62,21.73c.77,1.71,33.81-8.71,34.34-6.88s-32.85,11.04-32.58,12.94c.26,1.85,34.87,1.27,34.87,3.19Z"/>
  <path class="cls-2" d="M114.43,65.33c0,.91-6.03,1.39-6.15,2.27s5.53,3.06,5.28,3.92c-.25.87-6.17-.4-6.54.42-.37.82,4.44,4.51,3.96,5.27s-5.8-2.14-6.39-1.46,3.01,5.59,2.34,6.18-4.97-3.7-5.73-3.21,1.34,6.22.52,6.6-3.73-4.97-4.59-4.72-.45,6.35-1.35,6.47-2.18-5.84-3.09-5.84-2.22,5.96-3.09,5.84-.5-6.22-1.35-6.47-3.79,5.09-4.6,4.71,1.27-6.11.52-6.6c-.75-.49-5.05,3.8-5.73,3.21s2.92-5.5,2.34-6.18-5.9,2.22-6.39,1.46c-.48-.75,4.34-4.44,3.96-5.27-.37-.81-6.28.45-6.54-.42s5.41-3.02,5.28-3.92-6.15-1.35-6.15-2.27,6.03-1.39,6.15-2.27-5.53-3.06-5.28-3.92,6.17.4,6.54-.42-4.44-4.51-3.96-5.27,5.8,2.14,6.39,1.46-3.01-5.59-2.34-6.18,4.97,3.7,5.73,3.21-1.34-6.22-.52-6.6,3.73,4.97,4.59,4.72.45-6.35,1.35-6.47,2.18,5.84,3.09,5.84,2.22-5.96,3.09-5.84.5,6.22,1.35,6.47,3.79-5.09,4.6-4.71-1.27,6.11-.52,6.6,5.05-3.8,5.73-3.21-2.92,5.5-2.34,6.18,5.9-2.22,6.39-1.46-4.34,4.44-3.96,5.27,6.28-.45,6.54.42-5.41,3.02-5.28,3.92,6.15,1.35,6.15,2.27Z"/>
  <g>
    <g id="_x3C_径向重复_x3E_">
      <path class="cls-1" d="M92.69,74c-.49,0-.87-.42-.81-.9.12-.95.24-1.9.37-2.85.14-1.05.27-2.1.41-3.14,0-.03.03-.05.06-.05.03,0,.06.02.06.05l.72,5.98c.06.48-.32.9-.81.9Z"/>
    </g>
    <g id="_x3C_径向重复_x3E_-2" data-name="_x3C_径向重复_x3E_">
      <path class="cls-1" d="M90.27,73.65c-.47-.14-.72-.65-.52-1.09.38-.88.76-1.75,1.15-2.63.42-.97.84-1.93,1.27-2.9.01-.03.04-.04.08-.03.03,0,.05.03.04.07l-.98,5.95c-.08.47-.56.77-1.03.63Z"/>
    </g>
    <g id="_x3C_径向重复_x3E_-3" data-name="_x3C_径向重复_x3E_">
      <path class="cls-1" d="M88.05,72.62c-.41-.27-.51-.82-.2-1.19.61-.73,1.22-1.46,1.83-2.19.67-.81,1.35-1.61,2.02-2.42.02-.02.06-.03.08-.01.02.02.04.05.02.08l-2.6,5.43c-.21.43-.75.58-1.17.32Z"/>
    </g>
    <g id="_x3C_径向重复_x3E_-4" data-name="_x3C_径向重复_x3E_">
      <path class="cls-1" d="M86.2,71.01c-.32-.37-.26-.94.14-1.2.79-.53,1.58-1.06,2.37-1.58.87-.58,1.74-1.17,2.62-1.75.03-.02.06-.01.08.01.02.02.02.06,0,.08l-4,4.47c-.32.36-.89.34-1.21-.03Z"/>
    </g>
    <g id="_x3C_径向重复_x3E_-5" data-name="_x3C_径向重复_x3E_">
      <path class="cls-1" d="M84.88,68.93c-.21-.45.02-.97.47-1.11.91-.28,1.81-.56,2.72-.84,1-.31,2-.62,3-.93.03,0,.06,0,.07.03.01.03,0,.06-.02.08l-5.09,3.15c-.41.25-.95.08-1.15-.37Z"/>
    </g>
    <g id="_x3C_径向重复_x3E_-6" data-name="_x3C_径向重复_x3E_">
      <path class="cls-1" d="M84.2,66.56c-.07-.49.29-.93.76-.93.95-.01,1.89-.03,2.84-.04,1.05-.01,2.09-.03,3.14-.04.03,0,.06.02.06.05,0,.03,0,.06-.04.07l-5.76,1.57c-.46.13-.93-.2-1-.68Z"/>
    </g>
    <g id="_x3C_径向重复_x3E_-7" data-name="_x3C_径向重复_x3E_">
      <path class="cls-1" d="M84.2,64.09c.07-.49.53-.81.99-.68.91.26,1.82.51,2.74.77,1.01.28,2.01.57,3.02.85.03,0,.05.04.04.07,0,.03-.03.06-.06.05l-5.96-.13c-.48-.01-.84-.45-.77-.94Z"/>
    </g>
    <g id="_x3C_径向重复_x3E_-8" data-name="_x3C_径向重复_x3E_">
      <path class="cls-1" d="M84.89,61.72c.2-.45.74-.62,1.14-.37.8.51,1.61,1.01,2.41,1.52.89.56,1.77,1.12,2.66,1.68.03.02.04.05.02.08-.01.03-.04.05-.07.03l-5.69-1.82c-.45-.15-.68-.67-.48-1.12Z"/>
    </g>
    <g id="_x3C_径向重复_x3E_-9" data-name="_x3C_径向重复_x3E_">
      <path class="cls-1" d="M86.21,59.65c.32-.38.88-.39,1.2-.03.63.71,1.26,1.43,1.89,2.14.7.79,1.39,1.58,2.09,2.37.02.02.02.06,0,.08-.02.02-.05.03-.08.01l-4.95-3.37c-.4-.27-.46-.84-.14-1.21Z"/>
    </g>
    <g id="_x3C_径向重复_x3E_-10" data-name="_x3C_径向重复_x3E_">
      <path class="cls-1" d="M88.06,58.03c.41-.27.95-.12,1.16.31.4.86.81,1.73,1.21,2.59.45.96.89,1.91,1.34,2.87.01.03,0,.06-.02.08-.02.02-.06.02-.08-.01l-3.81-4.64c-.3-.37-.21-.93.2-1.2Z"/>
    </g>
    <g id="_x3C_径向重复_x3E_-11" data-name="_x3C_径向重复_x3E_">
      <path class="cls-1" d="M90.28,57.01c.47-.14.95.15,1.02.63.15.95.29,1.89.44,2.84.16,1.04.32,2.09.49,3.13,0,.03-.01.06-.04.07-.03,0-.06,0-.07-.03l-2.36-5.53c-.19-.44.06-.96.53-1.1Z"/>
    </g>
    <g id="_x3C_径向重复_x3E_-12" data-name="_x3C_径向重复_x3E_">
      <path class="cls-1" d="M92.7,56.66c.49,0,.87.42.81.9-.12.95-.24,1.9-.37,2.85-.14,1.05-.27,2.1-.41,3.14,0,.03-.03.05-.06.05-.03,0-.06-.02-.06-.05l-.72-5.98c-.06-.48.32-.9.81-.9Z"/>
    </g>
    <g id="_x3C_径向重复_x3E_-13" data-name="_x3C_径向重复_x3E_">
      <path class="cls-1" d="M95.12,57.01c.47.14.72.65.52,1.09-.38.88-.76,1.75-1.15,2.63-.42.97-.84,1.93-1.27,2.9-.01.03-.04.04-.08.03-.03,0-.05-.03-.04-.07l.98-5.95c.08-.47.56-.77,1.03-.63Z"/>
    </g>
    <g id="_x3C_径向重复_x3E_-14" data-name="_x3C_径向重复_x3E_">
      <path class="cls-1" d="M97.34,58.03c.41.27.51.82.2,1.19-.61.73-1.22,1.46-1.83,2.19-.67.81-1.35,1.61-2.02,2.42-.02.02-.06.03-.08.01-.02-.02-.04-.05-.02-.08l2.6-5.43c.21-.43.75-.58,1.17-.32Z"/>
    </g>
    <g id="_x3C_径向重复_x3E_-15" data-name="_x3C_径向重复_x3E_">
      <path class="cls-1" d="M99.19,59.65c.32.37.26.94-.14,1.2-.79.53-1.58,1.06-2.37,1.58-.87.58-1.74,1.17-2.62,1.75-.03.02-.06.01-.08-.01-.02-.02-.02-.06,0-.08l4-4.47c.32-.36.89-.34,1.21.03Z"/>
    </g>
    <g id="_x3C_径向重复_x3E_-16" data-name="_x3C_径向重复_x3E_">
      <path class="cls-1" d="M100.51,61.73c.21.45-.02.97-.47,1.11-.91.28-1.81.56-2.72.84-1,.31-2,.62-3,.93-.03,0-.06,0-.07-.03-.01-.03,0-.06.02-.08l5.09-3.15c.41-.25.95-.08,1.15.37Z"/>
    </g>
    <g id="_x3C_径向重复_x3E_-17" data-name="_x3C_径向重复_x3E_">
      <path class="cls-1" d="M101.2,64.1c.07.49-.29.93-.76.93-.95.01-1.89.03-2.84.04-1.05.01-2.09.03-3.14.04-.03,0-.06-.02-.06-.05,0-.03,0-.06.04-.07l5.76-1.57c.46-.13.93.2,1,.68Z"/>
    </g>
    <g id="_x3C_径向重复_x3E_-18" data-name="_x3C_径向重复_x3E_">
      <path class="cls-1" d="M101.2,66.57c-.07.49-.53.81-.99.68-.91-.26-1.82-.51-2.74-.77-1.01-.28-2.01-.57-3.02-.85-.03,0-.05-.04-.04-.07,0-.03.03-.06.06-.05l5.96.13c.48.01.84.45.77.94Z"/>
    </g>
    <g id="_x3C_径向重复_x3E_-19" data-name="_x3C_径向重复_x3E_">
      <path class="cls-1" d="M100.51,68.94c-.2.45-.74.62-1.14.37-.8-.51-1.61-1.01-2.41-1.52-.89-.56-1.77-1.12-2.66-1.68-.03-.02-.04-.05-.02-.08.01-.03.04-.05.07-.03l5.69,1.82c.45.15.68.67.48,1.12Z"/>
    </g>
    <g id="_x3C_径向重复_x3E_-20" data-name="_x3C_径向重复_x3E_">
      <path class="cls-1" d="M99.18,71.01c-.32.38-.88.39-1.2.03-.63-.71-1.26-1.43-1.89-2.14-.7-.79-1.39-1.58-2.09-2.37-.02-.02-.02-.06,0-.08.02-.02.05-.03.08-.01l4.95,3.37c.4.27.46.84.14,1.21Z"/>
    </g>
    <g id="_x3C_径向重复_x3E_-21" data-name="_x3C_径向重复_x3E_">
      <path class="cls-1" d="M97.34,72.63c-.41.27-.95.12-1.16-.31-.4-.86-.81-1.73-1.21-2.59-.45-.96-.89-1.91-1.34-2.87-.01-.03,0-.06.02-.08.02-.02.06-.02.08.01l3.81,4.64c.3.37.21.93-.2,1.2Z"/>
    </g>
    <g id="_x3C_径向重复_x3E_-22" data-name="_x3C_径向重复_x3E_">
      <path class="cls-1" d="M95.11,73.65c-.47.14-.95-.15-1.02-.63-.15-.95-.29-1.89-.44-2.84-.16-1.04-.32-2.09-.49-3.13,0-.03.01-.06.04-.07.03,0,.06,0,.07.03l2.36,5.53c.19.44-.06.96-.53,1.1Z"/>
    </g>
  </g>
  <g>
    <g id="_x3C_径向重复_x3E_-23" data-name="_x3C_径向重复_x3E_">
      <polygon class="cls-3" points="91.31 116.78 92.7 75.62 94.09 116.78 91.31 116.78"/>
    </g>
    <g id="_x3C_径向重复_x3E_-24" data-name="_x3C_径向重复_x3E_">
      <polygon class="cls-3" points="77.01 114.3 89.83 75.2 79.68 115.09 77.01 114.3"/>
    </g>
    <g id="_x3C_径向重复_x3E_-25" data-name="_x3C_径向重复_x3E_">
      <polygon class="cls-3" points="63.99 107.85 87.19 73.99 66.33 109.37 63.99 107.85"/>
    </g>
    <g id="_x3C_径向重复_x3E_-26" data-name="_x3C_径向重复_x3E_">
      <polygon class="cls-3" points="53.29 97.96 85 72.07 55.11 100.08 53.29 97.96"/>
    </g>
    <g id="_x3C_径向重复_x3E_-27" data-name="_x3C_径向重复_x3E_">
      <polygon class="cls-3" points="45.79 85.42 83.43 69.6 46.94 87.98 45.79 85.42"/>
    </g>
    <g id="_x3C_径向重复_x3E_-28" data-name="_x3C_径向重复_x3E_">
      <polygon class="cls-3" points="42.08 71.26 82.61 66.79 42.48 74.04 42.08 71.26"/>
    </g>
    <g id="_x3C_径向重复_x3E_-29" data-name="_x3C_径向重复_x3E_">
      <polygon class="cls-3" points="42.48 56.62 82.61 63.87 42.08 59.4 42.48 56.62"/>
    </g>
    <g id="_x3C_径向重复_x3E_-30" data-name="_x3C_径向重复_x3E_">
      <polygon class="cls-3" points="46.94 42.68 83.43 61.05 45.79 45.23 46.94 42.68"/>
    </g>
    <g id="_x3C_径向重复_x3E_-31" data-name="_x3C_径向重复_x3E_">
      <polygon class="cls-3" points="55.11 30.58 85 58.59 53.29 32.7 55.11 30.58"/>
    </g>
    <g id="_x3C_径向重复_x3E_-32" data-name="_x3C_径向重复_x3E_">
      <polygon class="cls-3" points="66.33 21.29 87.19 56.67 63.99 22.81 66.33 21.29"/>
    </g>
    <g id="_x3C_径向重复_x3E_-33" data-name="_x3C_径向重复_x3E_">
      <polygon class="cls-3" points="79.68 15.57 89.83 55.46 77.01 16.36 79.68 15.57"/>
    </g>
    <g id="_x3C_径向重复_x3E_-34" data-name="_x3C_径向重复_x3E_">
      <polygon class="cls-3" points="94.09 13.88 92.7 55.04 91.31 13.88 94.09 13.88"/>
    </g>
    <g id="_x3C_径向重复_x3E_-35" data-name="_x3C_径向重复_x3E_">
      <polygon class="cls-3" points="108.38 16.36 95.57 55.46 105.71 15.57 108.38 16.36"/>
    </g>
    <g id="_x3C_径向重复_x3E_-36" data-name="_x3C_径向重复_x3E_">
      <polygon class="cls-3" points="121.4 22.81 98.2 56.67 119.06 21.29 121.4 22.81"/>
    </g>
    <g id="_x3C_径向重复_x3E_-37" data-name="_x3C_径向重复_x3E_">
      <polygon class="cls-3" points="132.1 32.7 100.4 58.59 130.28 30.58 132.1 32.7"/>
    </g>
    <g id="_x3C_径向重复_x3E_-38" data-name="_x3C_径向重复_x3E_">
      <polygon class="cls-3" points="139.61 45.23 101.96 61.05 138.45 42.68 139.61 45.23"/>
    </g>
    <g id="_x3C_径向重复_x3E_-39" data-name="_x3C_径向重复_x3E_">
      <polygon class="cls-3" points="143.31 59.4 102.78 63.86 142.92 56.62 143.31 59.4"/>
    </g>
    <g id="_x3C_径向重复_x3E_-40" data-name="_x3C_径向重复_x3E_">
      <polygon class="cls-3" points="142.91 74.04 102.78 66.79 143.31 71.26 142.91 74.04"/>
    </g>
    <g id="_x3C_径向重复_x3E_-41" data-name="_x3C_径向重复_x3E_">
      <polygon class="cls-3" points="138.45 87.98 101.96 69.6 139.61 85.42 138.45 87.98"/>
    </g>
    <g id="_x3C_径向重复_x3E_-42" data-name="_x3C_径向重复_x3E_">
      <polygon class="cls-3" points="130.28 100.08 100.4 72.07 132.1 97.96 130.28 100.08"/>
    </g>
    <g id="_x3C_径向重复_x3E_-43" data-name="_x3C_径向重复_x3E_">
      <polygon class="cls-3" points="119.06 109.37 98.2 73.99 121.4 107.85 119.06 109.37"/>
    </g>
    <g id="_x3C_径向重复_x3E_-44" data-name="_x3C_径向重复_x3E_">
      <polygon class="cls-3" points="105.71 115.09 95.57 75.2 108.38 114.3 105.71 115.09"/>
    </g>
  </g>
</svg>