<?xml version="1.0" encoding="UTF-8"?>
<svg id="_图层_1" data-name="图层_1" xmlns="http://www.w3.org/2000/svg" viewBox="0 0 141.73 141.73">
  <defs>
    <style>
      .cls-1 {
        fill: #f8ca78;
      }

      .cls-2 {
        fill: #e9562a;
      }

      .cls-3 {
        fill: #ef8026;
      }
    </style>
  </defs>
  <g>
    <g id="_x3C_径向重复_x3E_">
      <path class="cls-3" d="M70.82,82.86c-.65,0-1.15-.57-1.08-1.22.16-1.28.31-2.56.47-3.84.17-1.41.35-2.83.52-4.24,0-.04.04-.07.08-.07.04,0,.08.02.08.07l.99,8.09c.08.65-.42,1.22-1.08,1.22Z"/>
    </g>
    <g id="_x3C_径向重复_x3E_-2" data-name="_x3C_径向重复_x3E_">
      <path class="cls-3" d="M66.5,82.06c-.61-.24-.87-.95-.56-1.52.61-1.14,1.22-2.28,1.83-3.41.67-1.26,1.35-2.51,2.02-3.77.02-.04.06-.05.1-.04.04.01.06.05.05.1l-2,7.9c-.16.63-.83.98-1.44.74Z"/>
    </g>
    <g id="_x3C_径向重复_x3E_-3" data-name="_x3C_径向重复_x3E_">
      <path class="cls-3" d="M62.77,79.74c-.48-.44-.47-1.2.02-1.62.98-.84,1.96-1.68,2.94-2.52,1.08-.93,2.16-1.86,3.24-2.79.03-.03.08-.03.11,0,.03.03.04.07.01.11l-4.72,6.65c-.38.53-1.13.61-1.61.17Z"/>
    </g>
    <g id="_x3C_径向重复_x3E_-4" data-name="_x3C_径向重复_x3E_">
      <path class="cls-3" d="M60.12,76.24c-.29-.58,0-1.29.61-1.5,1.22-.43,2.43-.86,3.65-1.29,1.34-.48,2.69-.95,4.03-1.43.04-.01.08,0,.1.04.02.03.01.08-.03.11l-6.8,4.49c-.54.36-1.28.16-1.57-.42Z"/>
    </g>
    <g id="_x3C_径向重复_x3E_-5" data-name="_x3C_径向重复_x3E_">
      <path class="cls-3" d="M58.92,72.02c-.06-.65.46-1.2,1.11-1.18,1.29.04,2.58.08,3.87.12,1.42.04,2.85.08,4.27.13.04,0,.08.03.08.08,0,.04-.02.08-.07.09l-7.96,1.73c-.64.14-1.25-.31-1.31-.96Z"/>
    </g>
    <g id="_x3C_径向重复_x3E_-6" data-name="_x3C_径向重复_x3E_">
      <path class="cls-3" d="M59.33,67.64c.18-.63.86-.95,1.46-.7,1.19.5,2.38,1,3.57,1.51,1.31.55,2.63,1.11,3.94,1.66.04.02.06.06.05.1-.01.04-.04.07-.09.06l-8.05-1.26c-.64-.1-1.05-.74-.87-1.37Z"/>
    </g>
    <g id="_x3C_径向重复_x3E_-7" data-name="_x3C_径向重复_x3E_">
      <path class="cls-3" d="M61.28,63.71c.39-.52,1.15-.58,1.62-.13.93.9,1.86,1.79,2.78,2.69,1.02.99,2.05,1.98,3.07,2.97.03.03.03.08,0,.11-.02.03-.07.05-.11.02l-7.05-4.08c-.56-.33-.71-1.07-.32-1.59Z"/>
    </g>
    <g id="_x3C_径向重复_x3E_-8" data-name="_x3C_径向重复_x3E_">
      <path class="cls-3" d="M64.53,60.75c.55-.34,1.28-.12,1.55.47.54,1.17,1.08,2.34,1.62,3.52.6,1.29,1.19,2.59,1.79,3.88.02.04,0,.08-.03.11-.03.02-.08.02-.11-.02l-5.1-6.35c-.41-.51-.28-1.26.27-1.6Z"/>
    </g>
    <g id="_x3C_径向重复_x3E_-9" data-name="_x3C_径向重复_x3E_">
      <path class="cls-3" d="M68.62,59.16c.64-.12,1.24.35,1.28,1,.08,1.29.16,2.58.24,3.86.09,1.42.18,2.85.27,4.27,0,.04-.03.08-.07.09-.04,0-.08,0-.09-.06l-2.46-7.77c-.2-.62.19-1.27.83-1.39Z"/>
    </g>
    <g id="_x3C_径向重复_x3E_-10" data-name="_x3C_径向重复_x3E_">
      <path class="cls-3" d="M73.02,59.16c.64.12,1.03.77.83,1.39-.39,1.23-.78,2.46-1.17,3.69-.43,1.36-.86,2.72-1.29,4.08-.01.04-.05.06-.09.06-.04,0-.07-.04-.07-.09l.51-8.13c.04-.65.64-1.12,1.28-1Z"/>
    </g>
    <g id="_x3C_径向重复_x3E_-11" data-name="_x3C_径向重复_x3E_">
      <path class="cls-3" d="M77.11,60.75c.55.34.68,1.09.27,1.6-.81,1.01-1.62,2.01-2.42,3.02-.89,1.11-1.78,2.22-2.68,3.33-.03.03-.07.04-.11.02-.03-.02-.05-.06-.03-.11l3.41-7.4c.27-.59,1-.81,1.55-.47Z"/>
    </g>
    <g id="_x3C_径向重复_x3E_-12" data-name="_x3C_径向重复_x3E_">
      <path class="cls-3" d="M80.36,63.71c.39.52.24,1.26-.32,1.59-1.12.65-2.23,1.29-3.35,1.94-1.23.71-2.47,1.43-3.7,2.14-.04.02-.08.01-.11-.02-.02-.03-.03-.08,0-.11l5.86-5.67c.47-.45,1.23-.39,1.62.13Z"/>
    </g>
    <g id="_x3C_径向重复_x3E_-13" data-name="_x3C_径向重复_x3E_">
      <path class="cls-3" d="M82.31,67.64c.18.63-.23,1.27-.87,1.37-1.28.2-2.55.4-3.83.6-1.41.22-2.82.44-4.22.66-.04,0-.08-.02-.09-.06-.01-.04,0-.08.05-.1l7.51-3.17c.6-.25,1.29.08,1.46.7Z"/>
    </g>
    <g id="_x3C_径向重复_x3E_-14" data-name="_x3C_径向重复_x3E_">
      <path class="cls-3" d="M82.72,72.01c-.06.65-.67,1.1-1.31.96-1.26-.27-2.52-.55-3.78-.82-1.39-.3-2.79-.61-4.18-.91-.04,0-.07-.05-.07-.09,0-.04.03-.07.08-.08l8.14-.24c.65-.02,1.17.53,1.11,1.18Z"/>
    </g>
    <g id="_x3C_径向重复_x3E_-15" data-name="_x3C_径向重复_x3E_">
      <path class="cls-3" d="M81.52,76.24c-.29.58-1.02.78-1.57.42-1.08-.71-2.15-1.42-3.23-2.14-1.19-.79-2.38-1.57-3.57-2.36-.03-.02-.05-.07-.03-.11.02-.03.06-.06.1-.04l7.68,2.72c.61.22.9.92.61,1.5Z"/>
    </g>
    <g id="_x3C_径向重复_x3E_-16" data-name="_x3C_径向重复_x3E_">
      <path class="cls-3" d="M78.87,79.74c-.48.44-1.24.36-1.61-.17-.75-1.05-1.49-2.11-2.24-3.16-.82-1.16-1.65-2.33-2.47-3.49-.02-.03-.02-.08.01-.11.03-.03.07-.03.11,0l6.18,5.31c.49.42.5,1.18.02,1.62Z"/>
    </g>
    <g id="_x3C_径向重复_x3E_-17" data-name="_x3C_径向重复_x3E_">
      <path class="cls-3" d="M75.14,82.06c-.61.24-1.28-.11-1.44-.74-.32-1.25-.63-2.5-.95-3.75-.35-1.38-.7-2.76-1.05-4.15-.01-.04.01-.08.05-.1.04-.01.08,0,.1.04l3.85,7.18c.31.57.04,1.29-.56,1.52Z"/>
    </g>
  </g>
  <g>
    <g id="_x3C_径向重复_x3E_-18" data-name="_x3C_径向重复_x3E_">
      <g id="_x3C_径向重复_x3E_-19" data-name="_x3C_径向重复_x3E_">
        <path class="cls-1" d="M35.05,107.13c-.82-.81.17-3.09,2.12-4.87,3.87-3.52,7.73-7.03,11.6-10.55,4.27-3.88,8.54-7.76,12.81-11.65.13-.11.26-.16.31-.11.05.05.03.17-.1.32l-21.89,24.68c-1.75,1.97-4.02,2.99-4.84,2.18Z"/>
      </g>
    </g>
    <g id="_x3C_径向重复_x3E_-20" data-name="_x3C_径向重复_x3E_">
      <g id="_x3C_径向重复_x3E_-21" data-name="_x3C_径向重复_x3E_">
        <path class="cls-1" d="M24.38,91.76c-.47-1.06,1.27-2.83,3.73-3.77,4.87-1.88,9.75-3.76,14.62-5.64,5.38-2.08,10.77-4.16,16.15-6.23.16-.06.3-.06.33.01.03.06-.03.17-.21.26l-29.33,15.1c-2.34,1.21-4.83,1.34-5.3.28Z"/>
      </g>
    </g>
    <g id="_x3C_径向重复_x3E_-22" data-name="_x3C_径向重复_x3E_">
      <g id="_x3C_径向重复_x3E_-23" data-name="_x3C_径向重复_x3E_">
        <path class="cls-1" d="M19.99,73.57c-.06-1.16,2.21-2.17,4.84-2.17,5.23,0,10.45.01,15.68.02,5.77,0,11.54.01,17.31.02.17,0,.3.06.31.13,0,.07-.09.14-.29.16l-32.8,3.49c-2.62.28-4.98-.5-5.04-1.65Z"/>
      </g>
    </g>
    <g id="_x3C_径向重复_x3E_-24" data-name="_x3C_径向重复_x3E_">
      <g id="_x3C_径向重复_x3E_-25" data-name="_x3C_径向重复_x3E_">
        <path class="cls-1" d="M22.46,55.03c.36-1.1,2.85-1.23,5.3-.27,4.87,1.89,9.74,3.79,14.61,5.68,5.38,2.09,10.76,4.18,16.13,6.27.16.06.26.16.24.23-.02.06-.14.1-.33.05l-31.85-8.6c-2.54-.69-4.47-2.26-4.11-3.36Z"/>
      </g>
    </g>
    <g id="_x3C_径向重复_x3E_-26" data-name="_x3C_径向重复_x3E_">
      <g id="_x3C_径向重复_x3E_-27" data-name="_x3C_径向重复_x3E_">
        <path class="cls-1" d="M31.46,38.63c.73-.9,3.1-.12,5.04,1.66,3.86,3.53,7.71,7.05,11.57,10.57,4.26,3.89,8.52,7.79,12.78,11.68.13.11.18.25.14.3-.04.05-.16.04-.32-.08l-26.59-19.52c-2.12-1.56-3.35-3.72-2.61-4.62Z"/>
      </g>
    </g>
    <g id="_x3C_径向重复_x3E_-28" data-name="_x3C_径向重复_x3E_">
      <g id="_x3C_径向重复_x3E_-29" data-name="_x3C_径向重复_x3E_">
        <path class="cls-1" d="M45.78,26.6c1.01-.57,2.93,1.01,4.1,3.37,2.32,4.68,4.65,9.36,6.97,14.04,2.57,5.17,5.13,10.34,7.7,15.51.08.15.08.3.02.33-.06.03-.17-.02-.27-.19l-17.74-27.81c-1.42-2.22-1.78-4.68-.77-5.25Z"/>
      </g>
    </g>
    <g id="_x3C_径向重复_x3E_-30" data-name="_x3C_径向重复_x3E_">
      <g id="_x3C_径向重复_x3E_-31" data-name="_x3C_径向重复_x3E_">
        <path class="cls-1" d="M63.48,20.54c1.15-.17,2.37,2,2.61,4.62.48,5.2.95,10.41,1.43,15.61.53,5.75,1.05,11.49,1.58,17.24.02.17-.03.31-.1.32-.07,0-.15-.08-.19-.27l-6.5-32.34c-.52-2.58.03-5.01,1.18-5.17Z"/>
      </g>
    </g>
    <g id="_x3C_径向重复_x3E_-32" data-name="_x3C_径向重复_x3E_">
      <g id="_x3C_径向重复_x3E_-33" data-name="_x3C_径向重复_x3E_">
        <path class="cls-1" d="M82.17,21.29c1.13.26,1.49,2.72.76,5.25-1.44,5.02-2.87,10.05-4.31,15.07-1.59,5.55-3.17,11.1-4.76,16.65-.05.16-.14.27-.21.26-.07-.02-.11-.13-.08-.32l5.62-32.5c.45-2.6,1.84-4.66,2.97-4.4Z"/>
      </g>
    </g>
    <g id="_x3C_径向重复_x3E_-34" data-name="_x3C_径向重复_x3E_">
      <g id="_x3C_径向重复_x3E_-35" data-name="_x3C_径向重复_x3E_">
        <path class="cls-1" d="M99.33,28.74c.96.65.4,3.07-1.19,5.17-3.15,4.17-6.31,8.33-9.46,12.5-3.48,4.6-6.97,9.2-10.45,13.8-.1.14-.23.21-.29.16-.06-.04-.06-.16.04-.33l16.98-28.28c1.36-2.26,3.4-3.68,4.36-3.03Z"/>
      </g>
    </g>
    <g id="_x3C_径向重复_x3E_-36" data-name="_x3C_径向重复_x3E_">
      <g id="_x3C_径向重复_x3E_-37" data-name="_x3C_径向重复_x3E_">
        <path class="cls-1" d="M112.64,41.89c.66.95-.73,3.01-2.97,4.4-4.45,2.74-8.89,5.49-13.34,8.23-4.91,3.03-9.82,6.06-14.73,9.09-.14.09-.29.11-.33.05-.04-.06,0-.17.16-.29l26.05-20.23c2.08-1.62,4.5-2.2,5.16-1.25Z"/>
      </g>
    </g>
    <g id="_x3C_径向重复_x3E_-38" data-name="_x3C_径向重复_x3E_">
      <g id="_x3C_径向重复_x3E_-39" data-name="_x3C_径向重复_x3E_">
        <path class="cls-1" d="M120.3,58.95c.27,1.13-1.77,2.54-4.36,3.02-5.14.95-10.27,1.91-15.41,2.86-5.67,1.05-11.35,2.11-17.02,3.16-.17.03-.31,0-.32-.07-.02-.07.06-.16.26-.21l31.6-9.46c2.52-.76,4.99-.43,5.26.7Z"/>
      </g>
    </g>
    <g id="_x3C_径向重复_x3E_-40" data-name="_x3C_径向重复_x3E_">
      <g id="_x3C_径向重复_x3E_-41" data-name="_x3C_径向重复_x3E_">
        <path class="cls-1" d="M121.27,77.64c-.15,1.15-2.57,1.73-5.16,1.24-5.13-.97-10.27-1.93-15.4-2.9-5.67-1.07-11.34-2.14-17.01-3.2-.17-.03-.29-.11-.28-.19,0-.07.12-.12.32-.11l32.88,2.6c2.63.21,4.81,1.4,4.65,2.55Z"/>
      </g>
    </g>
    <g id="_x3C_径向重复_x3E_-42" data-name="_x3C_径向重复_x3E_">
      <g id="_x3C_径向重复_x3E_-43" data-name="_x3C_径向重复_x3E_">
        <path class="cls-1" d="M115.44,95.41c-.56,1.02-3.02.69-5.26-.7-4.44-2.76-8.88-5.51-13.32-8.27-4.9-3.04-9.8-6.09-14.71-9.13-.14-.09-.23-.21-.19-.27.03-.06.15-.07.33.01l29.73,14.3c2.37,1.14,3.98,3.04,3.42,4.06Z"/>
      </g>
    </g>
    <g id="_x3C_径向重复_x3E_-44" data-name="_x3C_径向重复_x3E_">
      <g id="_x3C_径向重复_x3E_-45" data-name="_x3C_径向重复_x3E_">
        <path class="cls-1" d="M103.58,109.87c-.89.75-3.07-.45-4.65-2.56-3.14-4.17-6.29-8.35-9.43-12.52-3.47-4.61-6.94-9.22-10.42-13.83-.1-.14-.14-.27-.08-.32.05-.04.17-.01.3.13l22.55,24.07c1.8,1.92,2.61,4.28,1.72,5.02Z"/>
      </g>
    </g>
    <g id="_x3C_径向重复_x3E_-46" data-name="_x3C_径向重复_x3E_">
      <g id="_x3C_径向重复_x3E_-47" data-name="_x3C_径向重复_x3E_">
        <path class="cls-1" d="M87.29,119.07c-1.1.37-2.7-1.53-3.41-4.06-1.42-5.03-2.85-10.05-4.27-15.08-1.57-5.55-3.14-11.1-4.72-16.66-.05-.16-.03-.31.04-.33.06-.02.16.05.24.23l12.33,30.6c.98,2.44.89,4.93-.21,5.3Z"/>
      </g>
    </g>
    <g id="_x3C_径向重复_x3E_-48" data-name="_x3C_径向重复_x3E_">
      <g id="_x3C_径向重复_x3E_-49" data-name="_x3C_径向重复_x3E_">
        <path class="cls-1" d="M68.78,121.77c-1.16-.05-1.96-2.4-1.71-5.02.49-5.2.98-10.4,1.47-15.61.54-5.75,1.08-11.49,1.62-17.24.02-.17.08-.3.16-.29.07,0,.13.1.14.3l.45,32.98c.04,2.63-.95,4.92-2.11,4.87Z"/>
      </g>
    </g>
    <g id="_x3C_径向重复_x3E_-50" data-name="_x3C_径向重复_x3E_">
      <g id="_x3C_径向重复_x3E_-51" data-name="_x3C_径向重复_x3E_">
        <path class="cls-1" d="M50.55,117.6c-1.06-.46-.96-2.95.22-5.3,2.33-4.67,4.67-9.35,7-14.02,2.58-5.16,5.16-10.32,7.74-15.49.08-.15.19-.24.25-.21.06.03.09.15.02.33l-11.5,30.92c-.92,2.47-2.67,4.24-3.73,3.78Z"/>
      </g>
    </g>
  </g>
  <g>
    <g id="_x3C_径向重复_x3E_-52" data-name="_x3C_径向重复_x3E_">
      <g id="_x3C_径向重复_x3E_-53" data-name="_x3C_径向重复_x3E_">
        <polygon class="cls-2" points="113.84 33.89 80.56 61.16 107.84 27.88 113.84 33.89"/>
      </g>
    </g>
    <g id="_x3C_径向重复_x3E_-54" data-name="_x3C_径向重复_x3E_">
      <g id="_x3C_径向重复_x3E_-55" data-name="_x3C_径向重复_x3E_">
        <polygon class="cls-2" points="124.31 51.93 83.43 65.34 120.88 44.16 124.31 51.93"/>
      </g>
    </g>
    <g id="_x3C_径向重复_x3E_-56" data-name="_x3C_径向重复_x3E_">
      <g id="_x3C_径向重复_x3E_-57" data-name="_x3C_径向重复_x3E_">
        <polygon class="cls-2" points="127.56 72.53 84.59 70.27 127.17 64.05 127.56 72.53"/>
      </g>
    </g>
    <g id="_x3C_径向重复_x3E_-58" data-name="_x3C_径向重复_x3E_">
      <g id="_x3C_径向重复_x3E_-59" data-name="_x3C_径向重复_x3E_">
        <polygon class="cls-2" points="123.14 92.92 83.89 75.29 125.84 84.87 123.14 92.92"/>
      </g>
    </g>
    <g id="_x3C_径向重复_x3E_-60" data-name="_x3C_径向重复_x3E_">
      <g id="_x3C_径向重复_x3E_-61" data-name="_x3C_径向重复_x3E_">
        <polygon class="cls-2" points="111.66 110.33 81.43 79.71 117.08 103.81 111.66 110.33"/>
      </g>
    </g>
    <g id="_x3C_径向重复_x3E_-62" data-name="_x3C_径向重复_x3E_">
      <g id="_x3C_径向重复_x3E_-63" data-name="_x3C_径向重复_x3E_">
        <polygon class="cls-2" points="94.66 122.42 77.53 82.95 102.07 118.3 94.66 122.42"/>
      </g>
    </g>
    <g id="_x3C_径向重复_x3E_-64" data-name="_x3C_径向重复_x3E_">
      <g id="_x3C_径向重复_x3E_-65" data-name="_x3C_径向重复_x3E_">
        <polygon class="cls-2" points="74.44 127.56 72.73 84.56 82.85 126.39 74.44 127.56"/>
      </g>
    </g>
    <g id="_x3C_径向重复_x3E_-66" data-name="_x3C_径向重复_x3E_">
      <g id="_x3C_径向重复_x3E_-67" data-name="_x3C_径向重复_x3E_">
        <polygon class="cls-2" points="53.73 125.04 67.67 84.33 62 126.98 53.73 125.04"/>
      </g>
    </g>
    <g id="_x3C_径向重复_x3E_-68" data-name="_x3C_径向重复_x3E_">
      <g id="_x3C_径向重复_x3E_-69" data-name="_x3C_径向重复_x3E_">
        <polygon class="cls-2" points="35.33 115.21 63.03 82.28 42.34 120.01 35.33 115.21"/>
      </g>
    </g>
    <g id="_x3C_径向重复_x3E_-70" data-name="_x3C_径向重复_x3E_">
      <g id="_x3C_径向重复_x3E_-71" data-name="_x3C_径向重复_x3E_">
        <polygon class="cls-2" points="21.73 99.4 59.45 78.7 26.52 106.4 21.73 99.4"/>
      </g>
    </g>
    <g id="_x3C_径向重复_x3E_-72" data-name="_x3C_径向重复_x3E_">
      <g id="_x3C_径向重复_x3E_-73" data-name="_x3C_径向重复_x3E_">
        <polygon class="cls-2" points="14.75 79.75 57.41 74.07 16.69 88.01 14.75 79.75"/>
      </g>
    </g>
    <g id="_x3C_径向重复_x3E_-74" data-name="_x3C_径向重复_x3E_">
      <g id="_x3C_径向重复_x3E_-75" data-name="_x3C_径向重复_x3E_">
        <polygon class="cls-2" points="15.35 58.89 57.17 69.01 14.17 67.3 15.35 58.89"/>
      </g>
    </g>
    <g id="_x3C_径向重复_x3E_-76" data-name="_x3C_径向重复_x3E_">
      <g id="_x3C_径向重复_x3E_-77" data-name="_x3C_径向重复_x3E_">
        <polygon class="cls-2" points="23.43 39.67 58.78 64.21 19.3 47.08 23.43 39.67"/>
      </g>
    </g>
    <g id="_x3C_径向重复_x3E_-78" data-name="_x3C_径向重复_x3E_">
      <g id="_x3C_径向重复_x3E_-79" data-name="_x3C_径向重复_x3E_">
        <polygon class="cls-2" points="37.92 24.66 62.01 60.31 31.39 30.08 37.92 24.66"/>
      </g>
    </g>
    <g id="_x3C_径向重复_x3E_-80" data-name="_x3C_径向重复_x3E_">
      <g id="_x3C_径向重复_x3E_-81" data-name="_x3C_径向重复_x3E_">
        <polygon class="cls-2" points="56.85 15.9 66.44 57.85 48.8 18.59 56.85 15.9"/>
      </g>
    </g>
    <g id="_x3C_径向重复_x3E_-82" data-name="_x3C_径向重复_x3E_">
      <g id="_x3C_径向重复_x3E_-83" data-name="_x3C_径向重复_x3E_">
        <polygon class="cls-2" points="77.67 14.57 71.45 57.15 69.19 14.17 77.67 14.57"/>
      </g>
    </g>
    <g id="_x3C_径向重复_x3E_-84" data-name="_x3C_径向重复_x3E_">
      <g id="_x3C_径向重复_x3E_-85" data-name="_x3C_径向重复_x3E_">
        <polygon class="cls-2" points="97.56 20.84 76.38 58.3 89.8 17.42 97.56 20.84"/>
      </g>
    </g>
  </g>
</svg>