<?xml version="1.0" encoding="UTF-8"?>
<svg id="_图层_1" data-name="图层_1" xmlns="http://www.w3.org/2000/svg" viewBox="0 0 185.39 130.66">
  <defs>
    <style>
      .cls-1 {
        fill: #a2bce2;
      }

      .cls-2 {
        fill: #b198c7;
      }

      .cls-3 {
        fill: #8d71b0;
      }

      .cls-4 {
        fill: #4f82c3;
      }
    </style>
  </defs>
  <path class="cls-3" d="M149.39,65.33c0,2.32-17.37,3.38-17.69,5.62s16.05,8.18,15.41,10.35c-.65,2.21-17.61-1.67-18.56.39s13.08,12.37,11.84,14.29-16.42-6.59-17.92-4.86,9.08,15.54,7.35,17.04c-1.73,1.5-13.91-10.93-15.83-9.69-1.92,1.23,4.35,17.47,2.26,18.42s-10.24-14.41-12.45-13.76c-2.17.64-.76,17.98-3.05,18.31-2.23.32-5.74-16.72-8.06-16.72s-5.83,17.04-8.06,16.72-.87-17.67-3.05-18.31c-2.21-.65-10.39,14.71-12.45,13.76-2.09-.96,4.18-17.19,2.27-18.42-1.93-1.24-14.11,11.18-15.83,9.69-1.73-1.5,8.85-15.31,7.35-17.04-1.5-1.72-16.68,6.79-17.92,4.86-1.23-1.92,12.8-12.2,11.84-14.29s-17.91,1.82-18.56-.39c-.64-2.17,15.74-8.06,15.41-10.35-.32-2.23-17.69-3.3-17.69-5.62s17.37-3.38,17.69-5.62-16.05-8.18-15.41-10.35c.65-2.21,17.61,1.67,18.56-.39s-13.08-12.37-11.84-14.29,16.42,6.59,17.92,4.86c1.5-1.73-9.08-15.54-7.35-17.04,1.73-1.5,13.91,10.93,15.83,9.69,1.92-1.23-4.35-17.47-2.26-18.42s10.24,14.41,12.45,13.76.76-17.98,3.05-18.31,5.74,16.72,8.06,16.72,5.83-17.04,8.06-16.72c2.29.33.87,17.67,3.05,18.31,2.21.65,10.39-14.71,12.45-13.76s-4.18,17.19-2.27,18.42c1.93,1.24,14.11-11.18,15.83-9.69,1.73,1.5-8.85,15.31-7.35,17.04s16.68-6.79,17.92-4.86-12.8,12.2-11.84,14.29c.95,2.07,17.91-1.82,18.56.39.64,2.17-15.74,8.06-15.41,10.35.32,2.23,17.69,3.3,17.69,5.62Z"/>
  <path class="cls-2" d="M92.7,107.68c-1.42,0-.99-25.85-2.36-26.05s-8.24,24.73-9.57,24.34c-1.35-.4,6.36-25.07,5.09-25.65-1.28-.59-14.9,21.39-16.07,20.63s13.19-22.26,12.13-23.17c-1.06-.92-20.31,16.34-21.23,15.29s18.9-17.66,18.14-18.84-24.08,9.99-24.67,8.71,23.12-11.6,22.72-12.95c-.39-1.33-25.92,2.77-26.12,1.36s25.46-4.59,25.46-6.01-25.66-4.64-25.46-6.01,25.73,2.7,26.12,1.36c.4-1.35-23.3-11.69-22.72-12.95s23.91,9.88,24.67,8.71c.76-1.18-19.06-17.79-18.14-18.84.92-1.06,20.17,16.2,21.23,15.29s-13.31-22.41-12.13-23.17c1.17-.76,14.79,21.22,16.07,20.63s-6.45-25.25-5.09-25.65c1.33-.39,8.17,24.54,9.57,24.34,1.37-.19.94-26.05,2.36-26.05s.99,25.85,2.36,26.05c1.4.2,8.24-24.73,9.57-24.34,1.35.4-6.36,25.07-5.09,25.65s14.9-21.39,16.07-20.63c1.18.76-13.19,22.26-12.13,23.17,1.06.92,20.31-16.34,21.23-15.29s-18.9,17.66-18.14,18.84,24.08-9.99,24.67-8.71-23.12,11.6-22.72,12.95c.39,1.33,25.92-2.77,26.12-1.36s-25.46,4.59-25.46,6.01,25.66,4.64,25.46,6.01-25.73-2.7-26.12-1.36,23.3,11.69,22.72,12.95c-.59,1.28-23.91-9.88-24.67-8.71s19.06,17.79,18.14,18.84c-.92,1.06-20.17-16.2-21.23-15.29s13.31,22.41,12.13,23.17c-1.17.76-14.79-21.22-16.07-20.63-1.27.58,6.45,25.25,5.09,25.65s-8.17-24.54-9.57-24.34c-1.37.19-.94,26.05-2.36,26.05Z"/>
  <g>
    <path class="cls-1" d="M80.86,65.33c0,.88-13.39,1.59-30.23,1.64-.9,0-1.64-.73-1.64-1.64h0c0-.91.73-1.64,1.64-1.64,16.84.04,30.23.76,30.23,1.64Z"/>
    <path class="cls-1" d="M81.34,62c-.25.84-13.3-2.24-29.46-6.94-.87-.25-1.36-1.16-1.11-2.03h0c.26-.87,1.17-1.37,2.03-1.11,16.14,4.78,28.79,9.24,28.54,10.09Z"/>
    <path class="cls-1" d="M82.74,58.93c-.47.74-12.13-5.9-26.31-14.96-.76-.49-.98-1.5-.49-2.26h0c.49-.76,1.5-.98,2.26-.49,14.14,9.14,25.02,16.98,24.54,17.71Z"/>
    <path class="cls-1" d="M84.94,56.39c-.66.57-9.97-9.07-21.03-21.77-.59-.68-.52-1.71.17-2.31h0c.68-.59,1.72-.52,2.31.16,10.99,12.75,19.22,23.34,18.56,23.91Z"/>
    <path class="cls-1" d="M87.78,54.56c-.8.36-7.01-11.51-14.04-26.81-.38-.82-.01-1.79.81-2.17h0c.82-.38,1.8-.01,2.17.81,6.95,15.33,11.86,27.8,11.07,28.17Z"/>
    <path class="cls-1" d="M91.01,53.61c-.87.12-3.48-13.02-5.92-29.68-.13-.89.49-1.72,1.39-1.85h0c.9-.13,1.73.49,1.85,1.39,2.35,16.67,3.55,30.02,2.68,30.14Z"/>
    <path class="cls-1" d="M94.38,53.61c-.87-.12.33-13.48,2.68-30.14.13-.89.96-1.51,1.85-1.39h0c.9.13,1.52.96,1.39,1.85-2.44,16.65-5.06,29.8-5.92,29.68Z"/>
    <path class="cls-1" d="M97.61,54.56c-.8-.36,4.11-12.84,11.07-28.17.37-.82,1.35-1.18,2.17-.81h0c.82.38,1.19,1.35.81,2.17-7.03,15.29-13.25,27.17-14.05,26.81Z"/>
    <path class="cls-1" d="M100.45,56.38c-.66-.57,7.56-11.16,18.56-23.91.59-.68,1.62-.76,2.31-.16h0c.68.59.76,1.63.17,2.31-11.06,12.69-20.37,22.34-21.03,21.76Z"/>
    <path class="cls-1" d="M102.66,58.93c-.47-.74,10.4-8.58,24.54-17.71.76-.49,1.77-.27,2.26.49h0c.49.76.27,1.78-.49,2.26-14.19,9.06-25.84,15.7-26.31,14.96Z"/>
    <path class="cls-1" d="M104.06,61.99c-.25-.84,12.4-5.3,28.54-10.08.87-.26,1.78.24,2.03,1.11h0c.26.87-.24,1.78-1.11,2.03-16.17,4.7-29.22,7.78-29.46,6.94Z"/>
    <path class="cls-1" d="M104.54,65.33c0-.88,13.39-1.59,30.23-1.64.9,0,1.64.73,1.64,1.64h0c0,.91-.73,1.64-1.64,1.64-16.84-.04-30.23-.76-30.23-1.64Z"/>
    <path class="cls-1" d="M104.06,68.66c.25-.84,13.3,2.24,29.46,6.94.87.25,1.36,1.16,1.11,2.03h0c-.26.87-1.17,1.37-2.03,1.11-16.14-4.78-28.79-9.24-28.54-10.09Z"/>
    <path class="cls-1" d="M102.66,71.73c.47-.74,12.13,5.9,26.31,14.96.76.49.98,1.5.49,2.26h0c-.49.76-1.5.98-2.26.49-14.14-9.14-25.02-16.98-24.54-17.71Z"/>
    <path class="cls-1" d="M100.45,74.27c.66-.57,9.97,9.07,21.03,21.77.59.68.52,1.71-.17,2.31h0c-.68.59-1.72.52-2.31-.16-10.99-12.75-19.22-23.34-18.56-23.91Z"/>
    <path class="cls-1" d="M97.62,76.1c.8-.36,7.01,11.51,14.04,26.81.38.82.01,1.79-.81,2.17h0c-.82.38-1.8.01-2.17-.81-6.95-15.33-11.86-27.8-11.07-28.17Z"/>
    <path class="cls-1" d="M94.38,77.05c.87-.12,3.48,13.02,5.92,29.68.13.89-.49,1.72-1.39,1.85h0c-.9.13-1.73-.49-1.85-1.39-2.35-16.67-3.55-30.02-2.68-30.14Z"/>
    <path class="cls-1" d="M91.01,77.05c.87.12-.33,13.48-2.68,30.14-.13.89-.96,1.51-1.85,1.39h0c-.9-.13-1.52-.96-1.39-1.85,2.44-16.65,5.06-29.8,5.92-29.68Z"/>
    <path class="cls-1" d="M87.78,76.1c.8.36-4.11,12.84-11.07,28.17-.37.82-1.35,1.18-2.17.81h0c-.82-.38-1.19-1.35-.81-2.17,7.03-15.29,13.25-27.17,14.05-26.81Z"/>
    <path class="cls-1" d="M84.94,74.28c.66.57-7.56,11.16-18.56,23.91-.59.68-1.62.76-2.31.16h0c-.68-.59-.76-1.63-.17-2.31,11.06-12.69,20.37-22.34,21.03-21.76Z"/>
    <path class="cls-1" d="M82.74,71.73c.47.74-10.4,8.58-24.54,17.71-.76.49-1.77.27-2.26-.49h0c-.49-.76-.27-1.78.49-2.26,14.19-9.06,25.84-15.7,26.31-14.96Z"/>
    <path class="cls-1" d="M81.34,68.67c.25.84-12.4,5.3-28.54,10.08-.87.26-1.78-.24-2.03-1.11h0c-.26-.87.24-1.78,1.11-2.03,16.17-4.7,29.22-7.78,29.46-6.94Z"/>
  </g>
  <g>
    <path class="cls-4" d="M92.69,94.06c.77,0,1.4,11.75,1.45,26.53,0,.79-.64,1.44-1.44,1.43h0c-.79,0-1.44-.64-1.44-1.44.03-14.77.66-26.52,1.43-26.52Z"/>
    <path class="cls-4" d="M84.59,92.9c.74.22-1.97,11.67-6.09,25.86-.22.76-1.02,1.2-1.78.97h0c-.76-.22-1.2-1.02-.97-1.78,4.2-14.17,8.11-25.26,8.85-25.05Z"/>
    <path class="cls-4" d="M77.15,89.5c.65.42-5.17,10.64-13.13,23.1-.43.67-1.32.86-1.98.43h0c-.67-.43-.86-1.32-.43-1.99,8.02-12.41,14.9-21.96,15.55-21.54Z"/>
    <path class="cls-4" d="M70.97,84.14c.5.58-7.96,8.75-19.11,18.46-.6.52-1.51.45-2.03-.15h0c-.52-.6-.46-1.51.14-2.03,11.19-9.65,20.48-16.87,20.99-16.29Z"/>
    <path class="cls-4" d="M66.55,77.26c.32.7-10.11,6.16-23.53,12.33-.72.33-1.57.01-1.9-.71h0c-.33-.72-.01-1.58.71-1.9,13.46-6.11,24.41-10.42,24.73-9.72Z"/>
    <path class="cls-4" d="M64.25,69.41c.11.76-11.43,3.06-26.06,5.21-.78.12-1.51-.43-1.63-1.22h0c-.11-.79.43-1.52,1.22-1.63,14.63-2.07,26.36-3.12,26.46-2.36Z"/>
    <path class="cls-4" d="M64.25,61.23c-.11.76-11.83-.28-26.47-2.34-.78-.11-1.33-.84-1.22-1.63h0c.11-.79.84-1.33,1.63-1.22,14.62,2.14,26.17,4.43,26.06,5.19Z"/>
    <path class="cls-4" d="M66.56,53.39c-.32.7-11.27-3.61-24.74-9.7-.72-.33-1.04-1.18-.71-1.9h0c.33-.72,1.18-1.04,1.9-.71,13.43,6.17,23.86,11.62,23.54,12.32Z"/>
    <path class="cls-4" d="M70.98,46.51c-.5.58-9.8-6.63-21-16.28-.6-.52-.66-1.42-.14-2.03h0c.52-.6,1.43-.67,2.03-.15,11.15,9.7,19.62,17.87,19.12,18.45Z"/>
    <path class="cls-4" d="M77.17,41.15c-.65.42-7.53-9.13-15.56-21.53-.43-.66-.24-1.55.43-1.98h0c.67-.43,1.56-.24,1.99.43,7.96,12.45,13.79,22.67,13.14,23.09Z"/>
    <path class="cls-4" d="M84.61,37.76c-.74.22-4.66-10.88-8.86-25.04-.23-.76.21-1.56.97-1.78h0c.76-.22,1.56.21,1.78.97,4.13,14.19,6.84,25.64,6.1,25.85Z"/>
    <path class="cls-4" d="M92.71,36.6c-.77,0-1.4-11.75-1.45-26.53,0-.79.64-1.44,1.44-1.43h0c.79,0,1.44.64,1.44,1.44-.03,14.77-.66,26.52-1.43,26.52Z"/>
    <path class="cls-4" d="M100.8,37.76c-.74-.22,1.97-11.67,6.09-25.86.22-.76,1.02-1.2,1.78-.97h0c.76.22,1.2,1.02.97,1.78-4.2,14.17-8.11,25.26-8.85,25.05Z"/>
    <path class="cls-4" d="M108.24,41.16c-.65-.42,5.17-10.64,13.13-23.1.43-.67,1.32-.86,1.98-.43h0c.67.43.86,1.32.43,1.99-8.02,12.41-14.9,21.96-15.55,21.54Z"/>
    <path class="cls-4" d="M114.42,46.52c-.5-.58,7.96-8.75,19.11-18.46.6-.52,1.51-.45,2.03.15h0c.52.6.46,1.51-.14,2.03-11.19,9.65-20.48,16.87-20.99,16.29Z"/>
    <path class="cls-4" d="M118.84,53.4c-.32-.7,10.11-6.16,23.53-12.33.72-.33,1.57-.01,1.9.71h0c.33.72.01,1.58-.71,1.9-13.46,6.11-24.41,10.42-24.73,9.72Z"/>
    <path class="cls-4" d="M121.15,61.25c-.11-.76,11.43-3.06,26.06-5.21.78-.12,1.51.43,1.63,1.22h0c.11.79-.43,1.52-1.22,1.63-14.63,2.07-26.36,3.12-26.46,2.36Z"/>
    <path class="cls-4" d="M121.14,69.43c.11-.76,11.83.28,26.47,2.34.78.11,1.33.84,1.22,1.63h0c-.11.79-.84,1.33-1.63,1.22-14.62-2.14-26.17-4.43-26.06-5.19Z"/>
    <path class="cls-4" d="M118.84,77.27c.32-.7,11.27,3.61,24.74,9.7.72.33,1.04,1.18.71,1.9h0c-.33.72-1.18,1.04-1.9.71-13.43-6.17-23.86-11.62-23.54-12.32Z"/>
    <path class="cls-4" d="M114.41,84.15c.5-.58,9.8,6.63,21,16.28.6.52.66,1.42.14,2.03h0c-.52.6-1.43.67-2.03.15-11.15-9.7-19.62-17.87-19.12-18.45Z"/>
    <path class="cls-4" d="M108.23,89.51c.65-.42,7.53,9.13,15.56,21.53.43.66.24,1.55-.43,1.98h0c-.67.43-1.56.24-1.99-.43-7.96-12.45-13.79-22.67-13.14-23.09Z"/>
    <path class="cls-4" d="M100.79,92.9c.74-.22,4.66,10.88,8.86,25.04.23.76-.21,1.56-.97,1.78h0c-.76.22-1.56-.21-1.78-.97-4.13-14.19-6.84-25.64-6.1-25.85Z"/>
  </g>
</svg>