<?xml version="1.0" encoding="UTF-8"?>
<svg id="_图层_1" data-name="图层_1" xmlns="http://www.w3.org/2000/svg" viewBox="0 0 185.39 130.66">
  <defs>
    <style>
      .cls-1 {
        fill: #a2bce2;
      }

      .cls-2 {
        fill: #c8e4c9;
      }

      .cls-3 {
        fill: #81c58a;
      }

      .cls-4 {
        fill: #4f82c3;
      }
    </style>
  </defs>
  <g>
    <path class="cls-4" d="M63.96,65.32c0,.77-11.75,1.4-26.53,1.44-.79,0-1.44-.64-1.43-1.43h0c0-.79.64-1.43,1.44-1.43,14.77.03,26.52.66,26.52,1.42Z"/>
    <path class="cls-4" d="M65.13,57.25c-.22.74-11.67-1.96-25.86-6.07-.76-.22-1.2-1.02-.97-1.78h0c.22-.76,1.02-1.2,1.78-.97,14.17,4.18,25.26,8.08,25.05,8.81Z"/>
    <path class="cls-4" d="M68.53,49.84c-.42.65-10.64-5.16-23.1-13.08-.67-.42-.86-1.31-.43-1.98h0c.43-.67,1.32-.86,1.99-.43,12.41,7.99,21.96,14.85,21.54,15.49Z"/>
    <path class="cls-4" d="M73.89,43.68c-.58.5-8.75-7.94-18.46-19.04-.52-.6-.45-1.5.15-2.02h0c.6-.52,1.51-.45,2.03.14,9.65,11.15,16.87,20.41,16.29,20.91Z"/>
    <path class="cls-4" d="M80.77,39.27c-.7.32-6.16-10.07-12.33-23.45-.33-.72-.01-1.57.71-1.9h0c.72-.33,1.58-.01,1.9.71,6.11,13.41,10.42,24.32,9.72,24.64Z"/>
    <path class="cls-4" d="M88.62,36.98c-.76.11-3.06-11.39-5.21-25.96-.12-.78.43-1.51,1.22-1.62h0c.79-.11,1.52.43,1.63,1.21,2.07,14.58,3.12,26.26,2.36,26.37Z"/>
    <path class="cls-4" d="M96.79,36.98c-.76-.11.28-11.79,2.34-26.37.11-.78.84-1.32,1.63-1.21h0c.79.11,1.33.84,1.22,1.62-2.14,14.57-4.43,26.08-5.19,25.97Z"/>
    <path class="cls-4" d="M104.64,39.28c-.7-.32,3.61-11.23,9.7-24.65.33-.72,1.18-1.04,1.9-.71h0c.72.33,1.04,1.18.71,1.9-6.17,13.38-11.62,23.78-12.32,23.46Z"/>
    <path class="cls-4" d="M111.52,43.69c-.58-.5,6.63-9.77,16.28-20.92.52-.6,1.42-.66,2.03-.14h0c.6.52.67,1.42.15,2.02-9.7,11.11-17.87,19.55-18.45,19.05Z"/>
    <path class="cls-4" d="M116.87,49.85c-.42-.65,9.13-7.51,21.53-15.51.66-.43,1.55-.24,1.98.43h0c.43.67.24,1.55-.43,1.98-12.45,7.93-22.67,13.74-23.09,13.1Z"/>
    <path class="cls-4" d="M120.27,57.27c-.22-.74,10.88-4.64,25.04-8.83.76-.22,1.56.21,1.78.97h0c.22.76-.21,1.56-.97,1.78-14.19,4.12-25.64,6.82-25.85,6.08Z"/>
    <path class="cls-4" d="M121.43,65.34c0-.77,11.75-1.4,26.53-1.44.79,0,1.44.64,1.43,1.43h0c0,.79-.64,1.43-1.44,1.43-14.77-.03-26.52-.66-26.52-1.42Z"/>
    <path class="cls-4" d="M120.26,73.41c.22-.74,11.67,1.96,25.86,6.07.76.22,1.2,1.02.97,1.78h0c-.22.76-1.02,1.2-1.78.97-14.17-4.18-25.26-8.08-25.05-8.81Z"/>
    <path class="cls-4" d="M116.86,80.82c.42-.65,10.64,5.16,23.1,13.08.67.42.86,1.31.43,1.98h0c-.43.67-1.32.86-1.99.43-12.41-7.99-21.96-14.85-21.54-15.49Z"/>
    <path class="cls-4" d="M111.51,86.98c.58-.5,8.75,7.94,18.46,19.04.52.6.45,1.5-.15,2.02h0c-.6.52-1.51.45-2.03-.14-9.65-11.15-16.87-20.41-16.29-20.91Z"/>
    <path class="cls-4" d="M104.62,91.38c.7-.32,6.16,10.07,12.33,23.45.33.72.01,1.57-.71,1.9h0c-.72.33-1.58.01-1.9-.71-6.11-13.41-10.42-24.32-9.72-24.64Z"/>
    <path class="cls-4" d="M96.78,93.68c.76-.11,3.06,11.39,5.21,25.96.12.78-.43,1.51-1.22,1.62h0c-.79.11-1.52-.43-1.63-1.21-2.07-14.58-3.12-26.26-2.36-26.37Z"/>
    <path class="cls-4" d="M88.6,93.68c.76.11-.28,11.79-2.34,26.37-.11.78-.84,1.32-1.63,1.21h0c-.79-.11-1.33-.84-1.22-1.62,2.14-14.57,4.43-26.08,5.19-25.97Z"/>
    <path class="cls-4" d="M80.75,91.38c.7.32-3.61,11.23-9.7,24.65-.33.72-1.18,1.04-1.9.71h0c-.72-.33-1.04-1.18-.71-1.9,6.17-13.38,11.62-23.78,12.32-23.46Z"/>
    <path class="cls-4" d="M73.87,86.97c.58.5-6.63,9.77-16.28,20.92-.52.6-1.42.66-2.03.14h0c-.6-.52-.67-1.42-.15-2.02,9.7-11.11,17.87-19.55,18.45-19.05Z"/>
    <path class="cls-4" d="M68.52,80.81c.42.65-9.13,7.51-21.53,15.51-.66.43-1.55.24-1.98-.43h0c-.43-.67-.24-1.55.43-1.98,12.45-7.93,22.67-13.74,23.09-13.1Z"/>
    <path class="cls-4" d="M65.13,73.39c.22.74-10.88,4.64-25.04,8.83-.76.22-1.56-.21-1.78-.97h0c-.22-.76.21-1.56.97-1.78,14.19-4.12,25.64-6.82,25.85-6.08Z"/>
  </g>
  <g>
    <path class="cls-1" d="M104.53,65.33c0-.87,13.39-1.59,30.22-1.63.9,0,1.64.73,1.64,1.63h0c0,.9-.73,1.63-1.64,1.63-16.83-.04-30.22-.76-30.22-1.63Z"/>
    <path class="cls-1" d="M104.05,68.65c.25-.84,13.29,2.24,29.45,6.92.87.25,1.36,1.16,1.11,2.02h0c-.26.87-1.17,1.36-2.03,1.11-16.14-4.77-28.78-9.21-28.53-10.05Z"/>
    <path class="cls-1" d="M102.66,71.71c.47-.74,12.12,5.88,26.3,14.91.76.48.98,1.49.49,2.25h0c-.49.76-1.5.98-2.26.49-14.14-9.11-25.01-16.92-24.53-17.66Z"/>
    <path class="cls-1" d="M100.45,74.24c.66-.57,9.97,9.04,21.02,21.69.59.68.52,1.71-.17,2.3h0c-.68.59-1.72.52-2.31-.16-10.99-12.71-19.21-23.26-18.55-23.83Z"/>
    <path class="cls-1" d="M97.62,76.06c.8-.36,7.01,11.48,14.04,26.72.38.82.01,1.79-.81,2.16h0c-.82.37-1.8.01-2.17-.8-6.95-15.28-11.86-27.71-11.06-28.08Z"/>
    <path class="cls-1" d="M94.38,77.01c.87-.12,3.48,12.98,5.92,29.58.13.89-.49,1.72-1.39,1.85h0c-.9.13-1.73-.49-1.85-1.38-2.35-16.61-3.55-29.92-2.68-30.04Z"/>
    <path class="cls-1" d="M91.01,77.01c.87.12-.33,13.43-2.68,30.04-.13.89-.96,1.51-1.85,1.38h0c-.9-.13-1.52-.96-1.39-1.85,2.44-16.6,5.05-29.7,5.92-29.58Z"/>
    <path class="cls-1" d="M87.78,76.06c.8.36-4.11,12.8-11.06,28.07-.37.82-1.34,1.18-2.17.8h0c-.82-.37-1.19-1.34-.81-2.16,7.03-15.24,13.25-27.08,14.04-26.72Z"/>
    <path class="cls-1" d="M84.95,74.25c.66.57-7.56,11.12-18.55,23.83-.59.68-1.62.75-2.31.16h0c-.68-.59-.76-1.62-.17-2.3,11.06-12.65,20.36-22.27,21.03-21.69Z"/>
    <path class="cls-1" d="M82.74,71.71c.47.74-10.4,8.55-24.54,17.65-.76.49-1.77.27-2.26-.49h0c-.49-.76-.27-1.77.49-2.25,14.18-9.03,25.83-15.65,26.31-14.91Z"/>
    <path class="cls-1" d="M81.34,68.65c.25.84-12.39,5.28-28.53,10.05-.86.26-1.78-.24-2.03-1.11h0c-.26-.87.24-1.77,1.11-2.02,16.16-4.68,29.21-7.76,29.45-6.92Z"/>
    <path class="cls-1" d="M80.86,65.33c0,.87-13.39,1.59-30.22,1.63-.9,0-1.64-.73-1.64-1.63h0c0-.9.73-1.63,1.64-1.63,16.83.04,30.22.76,30.22,1.63Z"/>
    <path class="cls-1" d="M81.34,62.01c-.25.84-13.29-2.24-29.45-6.92-.87-.25-1.36-1.16-1.11-2.02h0c.26-.87,1.17-1.36,2.03-1.11,16.14,4.77,28.78,9.21,28.53,10.05Z"/>
    <path class="cls-1" d="M82.74,58.95c-.47.74-12.12-5.88-26.3-14.91-.76-.48-.98-1.49-.49-2.25h0c.49-.76,1.5-.98,2.26-.49,14.14,9.11,25.01,16.92,24.53,17.66Z"/>
    <path class="cls-1" d="M84.94,56.41c-.66.57-9.97-9.04-21.02-21.69-.59-.68-.52-1.71.17-2.3h0c.68-.59,1.72-.52,2.31.16,10.99,12.71,19.21,23.26,18.55,23.83Z"/>
    <path class="cls-1" d="M87.78,54.6c-.8.36-7.01-11.48-14.04-26.72-.38-.82-.01-1.79.81-2.16h0c.82-.37,1.8-.01,2.17.8,6.95,15.28,11.86,27.71,11.06,28.08Z"/>
    <path class="cls-1" d="M91.01,53.65c-.87.12-3.48-12.98-5.92-29.58-.13-.89.49-1.72,1.39-1.85h0c.9-.13,1.73.49,1.85,1.38,2.35,16.61,3.55,29.92,2.68,30.04Z"/>
    <path class="cls-1" d="M94.38,53.65c-.87-.12.33-13.43,2.68-30.04.13-.89.96-1.51,1.85-1.38h0c.9.13,1.52.96,1.39,1.85-2.44,16.6-5.05,29.7-5.92,29.58Z"/>
    <path class="cls-1" d="M97.61,54.6c-.8-.36,4.11-12.8,11.06-28.07.37-.82,1.34-1.18,2.17-.8h0c.82.37,1.19,1.34.81,2.16-7.03,15.24-13.25,27.08-14.04,26.72Z"/>
    <path class="cls-1" d="M100.45,56.41c-.66-.57,7.56-11.12,18.55-23.83.59-.68,1.62-.75,2.31-.16h0c.68.59.76,1.62.17,2.3-11.06,12.65-20.36,22.27-21.03,21.69Z"/>
    <path class="cls-1" d="M102.65,58.95c-.47-.74,10.4-8.55,24.54-17.65.76-.49,1.77-.27,2.26.49h0c.49.76.27,1.77-.49,2.25-14.18,9.03-25.83,15.65-26.31,14.91Z"/>
    <path class="cls-1" d="M104.05,62c-.25-.84,12.39-5.28,28.53-10.05.86-.26,1.78.24,2.03,1.11h0c.26.87-.24,1.77-1.11,2.02-16.16,4.68-29.21,7.76-29.45,6.92Z"/>
  </g>
  <g>
    <path class="cls-2" d="M99.51,75.88c-1.15-1.34-1.75-3.34-.99-3.76s2.87.74,4.03,2.08c1.15,1.34,1.75,3.34.99,3.76-.76.42-2.87-.74-4.03-2.08Z"/>
    <path class="cls-2" d="M96.25,77.36c-.73-1.61-.73-3.7.12-3.89s2.55,1.51,3.28,3.12c.73,1.61.73,3.7-.12,3.89-.85.19-2.55-1.51-3.28-3.12Z"/>
    <path class="cls-2" d="M92.7,77.87c-.24-1.75.34-3.75,1.21-3.7.87.06,2.02,2.17,2.26,3.92.24,1.75-.34,3.75-1.21,3.7-.87-.06-2.02-2.17-2.26-3.92Z"/>
    <path class="cls-2" d="M89.16,77.37c.26-1.75,1.39-3.51,2.21-3.21s1.32,2.65,1.06,4.39c-.26,1.75-1.39,3.51-2.21,3.21-.82-.3-1.32-2.65-1.06-4.39Z"/>
    <path class="cls-2" d="M85.9,75.88c.75-1.6,2.32-2.97,3.02-2.46.7.52.52,2.91-.22,4.51-.75,1.6-2.32,2.97-3.02,2.46-.7-.52-.52-2.91.22-4.51Z"/>
    <path class="cls-2" d="M83.19,73.55c1.17-1.33,3.07-2.2,3.6-1.51.53.69-.32,2.94-1.49,4.27-1.17,1.33-3.07,2.2-3.6,1.51-.53-.69.32-2.94,1.49-4.27Z"/>
    <path class="cls-2" d="M81.25,70.55c1.5-.95,3.57-1.25,3.88-.44s-1.14,2.73-2.64,3.68c-1.5.95-3.57,1.25-3.88.44-.31-.81,1.14-2.73,2.64-3.68Z"/>
    <path class="cls-2" d="M80.24,67.12c1.7-.49,3.78-.2,3.84.67s-1.87,2.3-3.57,2.79c-1.7.49-3.78.2-3.84-.67-.07-.87,1.87-2.3,3.57-2.79Z"/>
    <path class="cls-2" d="M80.24,63.55c1.77.01,3.68.87,3.5,1.72s-2.44,1.68-4.21,1.67c-1.77-.01-3.68-.87-3.5-1.72.18-.85,2.44-1.68,4.21-1.67Z"/>
    <path class="cls-2" d="M81.25,60.13c1.7.51,3.28,1.87,2.87,2.63s-2.82.93-4.52.42-3.28-1.87-2.87-2.63c.41-.77,2.82-.93,4.52-.42Z"/>
    <path class="cls-2" d="M83.18,57.12c1.49.96,2.62,2.71,2.01,3.33-.61.62-2.97.1-4.45-.86-1.49-.96-2.62-2.71-2.01-3.33.61-.62,2.97-.1,4.45.86Z"/>
    <path class="cls-2" d="M85.89,54.78c1.15,1.34,1.75,3.34.99,3.76s-2.87-.74-4.03-2.08-1.75-3.34-.99-3.76c.76-.42,2.87.74,4.03,2.08Z"/>
    <path class="cls-2" d="M89.14,53.3c.73,1.61.73,3.7-.12,3.89s-2.55-1.51-3.28-3.12c-.73-1.61-.73-3.7.12-3.89.85-.19,2.55,1.51,3.28,3.12Z"/>
    <path class="cls-2" d="M92.69,52.79c.24,1.75-.34,3.75-1.21,3.7-.87-.06-2.02-2.17-2.26-3.92-.24-1.75.34-3.75,1.21-3.7.87.06,2.02,2.17,2.26,3.92Z"/>
    <path class="cls-2" d="M96.24,53.29c-.26,1.75-1.39,3.51-2.21,3.21s-1.32-2.65-1.06-4.39,1.39-3.51,2.21-3.21c.82.3,1.32,2.65,1.06,4.39Z"/>
    <path class="cls-2" d="M99.49,54.77c-.75,1.6-2.32,2.97-3.02,2.46s-.52-2.91.22-4.51c.75-1.6,2.32-2.97,3.02-2.46.7.52.52,2.91-.22,4.51Z"/>
    <path class="cls-2" d="M102.2,57.11c-1.17,1.33-3.07,2.2-3.6,1.51s.32-2.94,1.49-4.27,3.07-2.2,3.6-1.51c.53.69-.32,2.94-1.49,4.27Z"/>
    <path class="cls-2" d="M104.14,60.11c-1.5.95-3.57,1.25-3.88.44s1.14-2.73,2.64-3.68,3.57-1.25,3.88-.44c.31.81-1.14,2.73-2.64,3.68Z"/>
    <path class="cls-2" d="M105.15,63.54c-1.7.49-3.78.2-3.84-.67s1.87-2.3,3.57-2.79,3.78-.2,3.84.67c.07.87-1.87,2.3-3.57,2.79Z"/>
    <path class="cls-2" d="M105.15,67.11c-1.77-.01-3.68-.87-3.5-1.72s2.44-1.68,4.21-1.67,3.68.87,3.5,1.72c-.18.85-2.44,1.68-4.21,1.67Z"/>
    <path class="cls-2" d="M104.15,70.53c-1.7-.51-3.28-1.87-2.87-2.63s2.82-.93,4.52-.42,3.28,1.87,2.87,2.63c-.41.77-2.82.93-4.52.42Z"/>
    <path class="cls-2" d="M102.21,73.54c-1.49-.96-2.62-2.71-2.01-3.33s2.97-.1,4.45.86c1.49.96,2.62,2.71,2.01,3.33-.61.62-2.97.1-4.45-.86Z"/>
  </g>
  <g>
    <path class="cls-3" d="M92.42,121.7c-.47-1.16-1.26-7.05.28-45.04,1.54,37.99.75,43.88.28,45.04-.17.43-.39.43-.56,0Z"/>
    <path class="cls-3" d="M76.49,119.34c-.12-1.24.78-7.12,13-43.13-9.26,36.88-11.69,42.31-12.46,43.29-.28.36-.49.3-.53-.16Z"/>
    <path class="cls-3" d="M61.89,112.6c.23-1.23,2.76-6.61,24.66-37.74-19.31,32.79-23.17,37.31-24.19,38.04-.38.27-.55.15-.47-.3Z"/>
    <path class="cls-3" d="M49.77,102.04c.57-1.11,4.52-5.56,34.33-29.28-27.8,26.04-32.78,29.3-33.96,29.7-.43.15-.57-.01-.36-.42Z"/>
    <path class="cls-3" d="M41.13,88.5c.86-.91,5.91-4.07,41.22-18.46-34.03,17.18-39.73,18.9-40.98,18.96-.46.02-.55-.17-.23-.51Z"/>
    <path class="cls-3" d="M36.67,73.08c1.08-.63,6.82-2.25,44.76-6.13-37.51,6.93-43.47,6.98-44.68,6.68-.45-.11-.48-.32-.08-.55Z"/>
    <path class="cls-3" d="M36.75,57.03c1.22-.3,7.18-.24,44.68,6.68-37.94-3.89-43.68-5.51-44.76-6.13-.4-.23-.37-.44.08-.55Z"/>
    <path class="cls-3" d="M41.37,41.66c1.25.06,6.95,1.78,40.98,18.96-35.31-14.39-40.35-17.55-41.22-18.46-.32-.33-.23-.53.23-.51Z"/>
    <path class="cls-3" d="M50.14,28.2c1.18.41,6.17,3.66,33.96,29.7-29.81-23.72-33.76-28.17-34.33-29.28-.21-.41-.07-.57.36-.42Z"/>
    <path class="cls-3" d="M62.35,17.75c1.02.72,4.88,5.25,24.19,38.04-21.9-31.13-24.43-36.51-24.66-37.74-.09-.45.09-.57.47-.3Z"/>
    <path class="cls-3" d="M77.03,11.16c.78.98,3.2,6.41,12.46,43.29-12.21-36.02-13.12-41.89-13-43.13.04-.46.25-.52.53-.16Z"/>
    <path class="cls-3" d="M92.98,8.96c.47,1.16,1.26,7.05-.28,45.04-1.54-37.99-.75-43.88-.28-45.04.17-.43.39-.43.56,0Z"/>
    <path class="cls-3" d="M108.9,11.32c.12,1.24-.78,7.12-13,43.13,9.26-36.88,11.69-42.31,12.46-43.29.28-.36.49-.3.53.16Z"/>
    <path class="cls-3" d="M123.51,18.05c-.23,1.23-2.76,6.61-24.66,37.74,19.31-32.79,23.17-37.31,24.19-38.04.38-.27.55-.15.47.3Z"/>
    <path class="cls-3" d="M135.62,28.62c-.57,1.11-4.52,5.56-34.33,29.28,27.8-26.04,32.78-29.3,33.96-29.7.43-.15.57.01.36.42Z"/>
    <path class="cls-3" d="M144.26,42.16c-.86.91-5.91,4.07-41.22,18.46,34.03-17.18,39.73-18.9,40.98-18.96.46-.02.55.17.23.51Z"/>
    <path class="cls-3" d="M148.72,57.58c-1.08.63-6.82,2.25-44.76,6.13,37.51-6.93,43.47-6.98,44.68-6.68.45.11.48.32.08.55Z"/>
    <path class="cls-3" d="M148.64,73.63c-1.22.3-7.18.24-44.68-6.68,37.94,3.89,43.68,5.51,44.76,6.13.4.23.37.44-.08.55Z"/>
    <path class="cls-3" d="M144.03,89c-1.25-.06-6.95-1.78-40.98-18.96,35.31,14.39,40.35,17.55,41.22,18.46.32.33.23.53-.23.51Z"/>
    <path class="cls-3" d="M135.26,102.46c-1.18-.41-6.17-3.66-33.96-29.7,29.81,23.72,33.76,28.17,34.33,29.28.21.41.07.57-.36.42Z"/>
    <path class="cls-3" d="M123.04,112.9c-1.02-.72-4.88-5.25-24.19-38.04,21.9,31.13,24.43,36.51,24.66,37.74.09.45-.09.57-.47.3Z"/>
    <path class="cls-3" d="M108.36,119.5c-.78-.98-3.2-6.41-12.46-43.29,12.21,36.02,13.12,41.89,13,43.13-.04.46-.25.52-.53.16Z"/>
  </g>
</svg>