<?xml version="1.0" encoding="UTF-8"?>
<svg id="_图层_1" data-name="图层_1" xmlns="http://www.w3.org/2000/svg" viewBox="0 0 141.73 141.73">
  <defs>
    <style>
      .cls-1 {
        fill: #4f81c2;
      }

      .cls-2 {
        fill: #fff;
      }

      .cls-3 {
        fill: #223e95;
      }

      .cls-4 {
        fill: #3c6fb6;
      }

      .cls-5 {
        fill: #a1bce2;
      }
    </style>
  </defs>
  <path class="cls-3" d="M86.56,39.13c2.14,1-1.13,10.36.65,11.75,1.84,1.43,10.46-3.77,11.89-2.01,1.46,1.78-5.66,8.84-4.65,10.88s11.08,1,11.59,3.22c.51,2.2-9.01,5.57-9.01,7.86s9.52,5.57,8.99,7.81c-.51,2.17-10.57,1.17-11.61,3.26-1.04,2.09,6.05,9.11,4.62,10.86s-10.08-3.36-11.89-1.96,1.4,10.77-.69,11.75c-2.1.99-7.55-7.31-9.82-6.8-2.26.51-3.49,10.32-5.83,10.32-2.3,0-3.51-9.78-5.81-10.29-2.23-.49-7.7,7.84-9.84,6.84-2.14-1,1.13-10.36-.65-11.75-1.84-1.43-10.46,3.77-11.89,2.01-1.46-1.78,5.66-8.84,4.65-10.88-1.01-2.05-11.08-1-11.59-3.22-.51-2.2,9.01-5.57,9.01-7.86,0-2.25-9.52-5.57-8.99-7.81.51-2.17,10.57-1.17,11.61-3.26,1.04-2.09-6.05-9.11-4.62-10.86,1.47-1.8,10.08,3.36,11.89,1.96s-1.4-10.77.69-11.75,7.55,7.31,9.82,6.8c2.26-.51,3.49-10.32,5.83-10.32,2.3,0,3.51,9.78,5.81,10.29,2.23.49,7.7-7.84,9.84-6.84Z"/>
  <g>
    <path class="cls-1" d="M70.88,42.13c-.79,0-1.44-11.75-1.48-26.52,0-.79.66-1.44,1.47-1.43h0c.81,0,1.48.64,1.47,1.44-.03,14.77-.67,26.52-1.46,26.52Z"/>
    <path class="cls-1" d="M83.65,44.98c-.71-.33,3.93-11.2,10.46-24.53.35-.71,1.23-1.01,1.96-.67h0c.73.35,1.04,1.2.69,1.92-6.6,13.3-12.4,23.61-13.12,23.28Z"/>
    <path class="cls-1" d="M93.9,52.96c-.49-.6,8.52-8.42,20.33-17.67.63-.5,1.56-.39,2.07.23h0c.51.62.4,1.53-.23,2.02-11.86,9.19-21.68,16.02-22.17,15.42Z"/>
    <path class="cls-1" d="M99.58,64.48c-.18-.75,11.42-3.98,26.18-7.31.79-.18,1.58.31,1.76,1.08h0c.18.77-.32,1.55-1.11,1.72-14.77,3.26-26.66,5.26-26.83,4.51Z"/>
    <path class="cls-1" d="M99.58,77.27c.18-.75,12.06,1.25,26.84,4.49.79.17,1.29.94,1.11,1.72h0c-.18.77-.97,1.26-1.76,1.08-14.76-3.32-26.36-6.54-26.18-7.29Z"/>
    <path class="cls-1" d="M93.89,88.79c.49-.6,10.31,6.23,22.18,15.41.64.49.74,1.4.23,2.02h0c-.51.62-1.44.72-2.07.23-11.82-9.24-20.84-17.05-20.34-17.65Z"/>
    <path class="cls-1" d="M83.64,96.76c.71-.33,6.52,9.98,13.13,23.27.35.71.05,1.57-.69,1.92h0c-.73.34-1.62.04-1.97-.67-6.54-13.33-11.19-24.18-10.48-24.52Z"/>
    <path class="cls-1" d="M70.86,99.6c.79,0,1.44,11.75,1.48,26.52,0,.79-.66,1.44-1.47,1.43h0c-.81,0-1.48-.64-1.47-1.44.03-14.77.67-26.52,1.46-26.52Z"/>
    <path class="cls-1" d="M58.08,96.75c.71.33-3.93,11.2-10.46,24.53-.35.71-1.23,1.01-1.96.67h0c-.73-.35-1.04-1.2-.69-1.92,6.6-13.3,12.4-23.61,13.12-23.28Z"/>
    <path class="cls-1" d="M47.83,88.77c.49.6-8.52,8.42-20.33,17.67-.63.5-1.56.39-2.07-.23h0c-.51-.62-.4-1.53.23-2.02,11.86-9.19,21.68-16.02,22.17-15.42Z"/>
    <path class="cls-1" d="M42.15,77.25c.18.75-11.42,3.98-26.18,7.31-.79.18-1.58-.31-1.76-1.08h0c-.18-.77.32-1.55,1.11-1.72,14.77-3.26,26.66-5.26,26.83-4.51Z"/>
    <path class="cls-1" d="M42.15,64.46c-.18.75-12.06-1.25-26.84-4.49-.79-.17-1.29-.94-1.11-1.72h0c.18-.77.97-1.26,1.76-1.08,14.76,3.32,26.36,6.54,26.18,7.29Z"/>
    <path class="cls-1" d="M47.85,52.94c-.49.6-10.31-6.23-22.18-15.41-.64-.49-.74-1.4-.23-2.02h0c.51-.62,1.44-.72,2.07-.23,11.82,9.24,20.84,17.05,20.34,17.65Z"/>
    <path class="cls-1" d="M58.1,44.97c-.71.33-6.52-9.98-13.13-23.27-.35-.71-.05-1.57.69-1.92h0c.73-.34,1.62-.04,1.97.67,6.54,13.33,11.19,24.18,10.48,24.52Z"/>
  </g>
  <g>
    <path class="cls-4" d="M70.86,71.43c.62,0,1.13,9.23,1.16,20.83,0,.62-.52,1.13-1.16,1.13h0c-.64,0-1.16-.51-1.16-1.13.03-11.6.53-20.83,1.15-20.82Z"/>
    <path class="cls-4" d="M70.73,71.42c.6.13-1,9.24-3.62,20.56-.14.61-.76.99-1.38.85h0c-.62-.14-1.01-.74-.87-1.35,2.67-11.3,5.27-20.19,5.87-20.05Z"/>
    <path class="cls-4" d="M70.61,71.37c.56.26-3.09,8.79-8.21,19.26-.27.56-.97.8-1.54.53h0c-.58-.27-.82-.95-.54-1.51,5.18-10.44,9.74-18.54,10.3-18.28Z"/>
    <path class="cls-4" d="M70.5,71.3c.48.38-5.01,7.9-12.4,16.99-.4.49-1.12.57-1.62.18h0c-.5-.39-.58-1.1-.18-1.59,7.43-9.05,13.72-15.96,14.21-15.58Z"/>
    <path class="cls-4" d="M70.41,71.21c.39.47-6.69,6.61-15.96,13.87-.5.39-1.22.31-1.62-.18h0c-.4-.49-.32-1.2.18-1.59,9.31-7.21,17.02-12.58,17.41-12.11Z"/>
    <path class="cls-4" d="M70.34,71.11c.27.54-8.03,5-18.73,10.06-.57.27-1.26.04-1.54-.53h0c-.28-.56-.04-1.24.54-1.51,10.72-5.01,19.46-8.57,19.73-8.03Z"/>
    <path class="cls-4" d="M70.3,70.98c.14.59-8.97,3.13-20.55,5.74-.62.14-1.24-.24-1.38-.85h0c-.14-.61.25-1.21.87-1.35,11.6-2.56,20.93-4.13,21.07-3.54Z"/>
    <path class="cls-4" d="M70.29,70.86c0,.6-9.46,1.1-21.35,1.14-.64,0-1.16-.5-1.15-1.13h0c0-.62.52-1.13,1.16-1.13,11.89.03,21.35.52,21.35,1.12Z"/>
    <path class="cls-4" d="M70.3,70.73c-.14.59-9.47-.98-21.07-3.53-.62-.14-1.01-.74-.87-1.35h0c.14-.61.76-.99,1.38-.85,11.59,2.61,20.69,5.14,20.56,5.73Z"/>
    <path class="cls-4" d="M70.35,70.61c-.27.54-9.01-3.01-19.74-8.01-.58-.27-.82-.94-.54-1.5h0c.28-.56.97-.8,1.54-.53,10.7,5.06,19,9.5,18.73,10.05Z"/>
    <path class="cls-4" d="M70.42,70.51c-.39.47-8.1-4.89-17.42-12.1-.5-.39-.58-1.1-.18-1.58h0c.4-.49,1.13-.57,1.62-.18,9.28,7.25,16.36,13.39,15.97,13.86Z"/>
    <path class="cls-4" d="M70.51,70.42c-.48.38-6.78-6.53-14.22-15.57-.4-.48-.32-1.2.18-1.58h0c.5-.39,1.23-.31,1.62.18,7.39,9.09,12.9,16.6,12.41,16.98Z"/>
    <path class="cls-4" d="M70.62,70.35c-.56.26-5.12-7.83-10.31-18.27-.28-.56-.04-1.23.54-1.5h0c.58-.27,1.27-.03,1.54.53,5.14,10.46,8.79,18.99,8.23,19.25Z"/>
    <path class="cls-4" d="M70.74,70.31c-.6.13-3.2-8.75-5.89-20.05-.14-.61.25-1.21.87-1.35h0c.62-.14,1.24.24,1.38.85,2.62,11.32,4.23,20.42,3.63,20.55Z"/>
    <path class="cls-4" d="M70.87,70.3c-.62,0-1.13-9.23-1.16-20.83,0-.62.52-1.13,1.16-1.13h0c.64,0,1.16.51,1.16,1.13-.03,11.6-.53,20.83-1.15,20.82Z"/>
    <path class="cls-4" d="M71,70.32c-.6-.13,1-9.24,3.62-20.56.14-.61.76-.99,1.38-.85h0c.62.14,1.01.74.87,1.35-2.67,11.3-5.27,20.19-5.87,20.05Z"/>
    <path class="cls-4" d="M71.12,70.36c-.56-.26,3.09-8.79,8.21-19.26.27-.56.97-.8,1.54-.53h0c.58.27.82.95.54,1.51-5.18,10.44-9.74,18.54-10.3,18.28Z"/>
    <path class="cls-4" d="M71.23,70.43c-.48-.38,5.01-7.9,12.4-16.99.4-.49,1.12-.57,1.62-.18h0c.5.39.58,1.1.18,1.59-7.43,9.05-13.72,15.96-14.21,15.58Z"/>
    <path class="cls-4" d="M71.32,70.52c-.39-.47,6.69-6.61,15.96-13.87.5-.39,1.22-.31,1.62.18h0c.4.49.32,1.2-.18,1.59-9.31,7.21-17.02,12.58-17.41,12.11Z"/>
    <path class="cls-4" d="M71.39,70.63c-.27-.54,8.03-5,18.73-10.06.57-.27,1.26-.04,1.54.53h0c.28.56.04,1.24-.54,1.51-10.72,5.01-19.46,8.57-19.73,8.03Z"/>
    <path class="cls-4" d="M71.43,70.75c-.14-.59,8.97-3.13,20.55-5.74.62-.14,1.24.24,1.38.85h0c.14.61-.25,1.21-.87,1.35-11.6,2.56-20.93,4.13-21.07,3.54Z"/>
    <path class="cls-4" d="M71.45,70.87c0-.6,9.46-1.1,21.35-1.14.64,0,1.16.5,1.15,1.13h0c0,.62-.52,1.13-1.16,1.13-11.89-.03-21.35-.52-21.35-1.12Z"/>
    <path class="cls-4" d="M71.43,71c.14-.59,9.47.98,21.07,3.53.62.14,1.01.74.87,1.35h0c-.14.61-.76.99-1.38.85-11.59-2.61-20.69-5.14-20.56-5.73Z"/>
    <path class="cls-4" d="M71.39,71.12c.27-.54,9.01,3.01,19.74,8.01.58.27.82.94.54,1.5h0c-.28.56-.97.8-1.54.53-10.7-5.06-19-9.5-18.73-10.05Z"/>
    <path class="cls-4" d="M71.32,71.23c.39-.47,8.1,4.89,17.42,12.1.5.39.58,1.1.18,1.58h0c-.4.49-1.13.57-1.62.18-9.28-7.25-16.36-13.39-15.97-13.86Z"/>
    <path class="cls-4" d="M71.22,71.31c.48-.38,6.78,6.53,14.22,15.57.4.48.32,1.2-.18,1.58h0c-.5.39-1.23.31-1.62-.18-7.39-9.09-12.9-16.6-12.41-16.98Z"/>
    <path class="cls-4" d="M71.11,71.38c.56-.26,5.12,7.83,10.31,18.27.28.56.04,1.23-.54,1.5h0c-.58.27-1.27.03-1.54-.53-5.14-10.46-8.79-18.99-8.23-19.25Z"/>
    <path class="cls-4" d="M70.99,71.42c.6-.13,3.2,8.75,5.89,20.05.14.61-.25,1.21-.87,1.35h0c-.62.14-1.24-.24-1.38-.85-2.62-11.32-4.23-20.42-3.63-20.55Z"/>
  </g>
  <g>
    <path class="cls-2" d="M70.86,71.04c.19,0,.34,2.82.36,6.36,0,.19-.16.34-.35.34h0c-.2,0-.35-.15-.35-.34,0-3.54.16-6.36.35-6.36Z"/>
    <path class="cls-2" d="M70.82,71.03c.18.04-.31,2.82-1.1,6.28-.04.19-.23.3-.42.26h0c-.19-.04-.31-.23-.27-.41.82-3.45,1.61-6.17,1.79-6.13Z"/>
    <path class="cls-2" d="M70.79,71.02c.17.08-.94,2.69-2.51,5.88-.08.17-.3.24-.47.16h0c-.18-.08-.25-.29-.17-.46,1.58-3.19,2.98-5.66,3.15-5.58Z"/>
    <path class="cls-2" d="M70.75,71c.15.12-1.53,2.41-3.79,5.19-.12.15-.34.17-.5.05h0c-.15-.12-.18-.34-.06-.48,2.27-2.77,4.19-4.88,4.34-4.76Z"/>
    <path class="cls-2" d="M70.73,70.97c.12.14-2.04,2.02-4.88,4.24-.15.12-.37.09-.5-.05h0c-.12-.15-.1-.37.06-.48,2.85-2.2,5.2-3.84,5.32-3.7Z"/>
    <path class="cls-2" d="M70.71,70.94c.08.17-2.45,1.53-5.72,3.07-.18.08-.39.01-.47-.16h0c-.08-.17-.01-.38.16-.46,3.28-1.53,5.95-2.62,6.03-2.45Z"/>
    <path class="cls-2" d="M70.69,70.9c.04.18-2.74.96-6.28,1.75-.19.04-.38-.07-.42-.26h0c-.04-.19.08-.37.27-.41,3.54-.78,6.39-1.26,6.44-1.08Z"/>
    <path class="cls-2" d="M70.69,70.86c0,.18-2.89.34-6.52.35-.19,0-.35-.15-.35-.34h0c0-.19.16-.35.35-.34,3.63,0,6.52.16,6.52.34Z"/>
    <path class="cls-2" d="M70.69,70.82c-.04.18-2.89-.3-6.44-1.08-.19-.04-.31-.23-.27-.41h0c.04-.19.23-.3.42-.26,3.54.8,6.32,1.57,6.28,1.75Z"/>
    <path class="cls-2" d="M70.71,70.79c-.08.17-2.75-.92-6.03-2.45-.18-.08-.25-.29-.16-.46h0c.08-.17.3-.24.47-.16,3.27,1.54,5.81,2.9,5.72,3.07Z"/>
    <path class="cls-2" d="M70.73,70.76c-.12.14-2.47-1.49-5.32-3.7-.15-.12-.18-.33-.06-.48h0c.12-.15.34-.17.5-.05,2.84,2.22,5,4.09,4.88,4.23Z"/>
    <path class="cls-2" d="M70.76,70.73c-.15.12-2.07-1.99-4.34-4.76-.12-.15-.1-.37.06-.48h0c.15-.12.38-.09.5.05,2.26,2.78,3.94,5.07,3.79,5.19Z"/>
    <path class="cls-2" d="M70.79,70.71c-.17.08-1.56-2.39-3.15-5.58-.09-.17-.01-.38.17-.46h0c.18-.08.39-.01.47.16,1.57,3.2,2.68,5.8,2.51,5.88Z"/>
    <path class="cls-2" d="M70.83,70.7c-.18.04-.98-2.67-1.8-6.13-.04-.19.08-.37.27-.41h0c.19-.04.38.07.42.26.8,3.46,1.29,6.24,1.11,6.28Z"/>
    <path class="cls-2" d="M70.87,70.69c-.19,0-.34-2.82-.36-6.36,0-.19.16-.34.35-.34h0c.2,0,.35.15.35.34,0,3.54-.16,6.36-.35,6.36Z"/>
    <path class="cls-2" d="M70.91,70.7c-.18-.04.31-2.82,1.1-6.28.04-.19.23-.3.42-.26h0c.19.04.31.23.27.41-.82,3.45-1.61,6.17-1.79,6.13Z"/>
    <path class="cls-2" d="M70.95,70.71c-.17-.08.94-2.69,2.51-5.88.08-.17.3-.24.47-.16h0c.18.08.25.29.17.46-1.58,3.19-2.98,5.66-3.15,5.58Z"/>
    <path class="cls-2" d="M70.98,70.73c-.15-.12,1.53-2.41,3.79-5.19.12-.15.34-.17.5-.05h0c.15.12.18.34.06.48-2.27,2.77-4.19,4.88-4.34,4.76Z"/>
    <path class="cls-2" d="M71.01,70.76c-.12-.14,2.04-2.02,4.88-4.24.15-.12.37-.09.5.05h0c.12.15.1.37-.06.48-2.85,2.2-5.2,3.84-5.32,3.7Z"/>
    <path class="cls-2" d="M71.03,70.79c-.08-.17,2.45-1.53,5.72-3.07.18-.08.39-.01.47.16h0c.08.17.01.38-.16.46-3.28,1.53-5.95,2.62-6.03,2.45Z"/>
    <path class="cls-2" d="M71.04,70.83c-.04-.18,2.74-.96,6.28-1.75.19-.04.38.07.42.26h0c.04.19-.08.37-.27.41-3.54.78-6.39,1.26-6.44,1.08Z"/>
    <path class="cls-2" d="M71.04,70.87c0-.18,2.89-.34,6.52-.35.19,0,.35.15.35.34h0c0,.19-.16.35-.35.34-3.63,0-6.52-.16-6.52-.34Z"/>
    <path class="cls-2" d="M71.04,70.91c.04-.18,2.89.3,6.44,1.08.19.04.31.23.27.41h0c-.04.19-.23.3-.42.26-3.54-.8-6.32-1.57-6.28-1.75Z"/>
    <path class="cls-2" d="M71.03,70.94c.08-.17,2.75.92,6.03,2.45.18.08.25.29.16.46h0c-.08.17-.3.24-.47.16-3.27-1.54-5.81-2.9-5.72-3.07Z"/>
    <path class="cls-2" d="M71,70.98c.12-.14,2.47,1.49,5.32,3.7.15.12.18.33.06.48h0c-.12.15-.34.17-.5.05-2.84-2.22-5-4.09-4.88-4.23Z"/>
    <path class="cls-2" d="M70.97,71c.15-.12,2.07,1.99,4.34,4.76.12.15.1.37-.06.48h0c-.15.12-.38.09-.5-.05-2.26-2.78-3.94-5.07-3.79-5.19Z"/>
    <path class="cls-2" d="M70.94,71.02c.17-.08,1.56,2.39,3.15,5.58.09.17.01.38-.17.46h0c-.18.08-.39.01-.47-.16-1.57-3.2-2.68-5.8-2.51-5.88Z"/>
    <path class="cls-2" d="M70.9,71.04c.18-.04.98,2.67,1.8,6.13.04.19-.08.37-.27.41h0c-.19.04-.38-.07-.42-.26-.8-3.46-1.29-6.24-1.11-6.28Z"/>
  </g>
  <g>
    <path class="cls-5" d="M80.14,79.91c.69-.67,11.73,9.01,24.96,21.85.71.69.71,1.81,0,2.5h0c-.71.69-1.86.69-2.56,0-13.15-12.9-23.08-23.68-22.39-24.35Z"/>
    <path class="cls-5" d="M77.85,81.7c.82-.5,9.38,11.33,19.35,26.71.53.82.28,1.92-.57,2.44h0c-.85.52-1.97.27-2.5-.56-9.88-15.43-17.1-28.09-16.28-28.6Z"/>
    <path class="cls-5" d="M75.2,82.94c.92-.31,6.56,13.09,12.77,30.24.33.92-.17,1.93-1.11,2.25h0c-.95.32-1.98-.16-2.31-1.08-6.11-17.19-10.26-31.1-9.34-31.41Z"/>
    <path class="cls-5" d="M72.34,83.58c.97-.11,3.41,14.18,5.55,32.26.11.97-.6,1.84-1.6,1.95h0c-1,.11-1.9-.59-2.01-1.56-2.04-18.08-2.91-32.55-1.94-32.65Z"/>
    <path class="cls-5" d="M69.4,83.58c.97.11.09,14.57-1.95,32.65-.11.97-1.01,1.67-2.01,1.56h0c-1-.11-1.71-.99-1.6-1.95,2.14-18.07,4.59-32.36,5.55-32.26Z"/>
    <path class="cls-5" d="M66.54,82.94c.92.31-3.23,14.22-9.35,31.41-.33.92-1.36,1.41-2.31,1.08h0c-.95-.32-1.45-1.33-1.11-2.25,6.21-17.16,11.85-30.56,12.77-30.24Z"/>
    <path class="cls-5" d="M63.89,81.7c.82.5-6.4,13.17-16.28,28.6-.53.83-1.65,1.08-2.5.56h0c-.85-.52-1.11-1.61-.57-2.44,9.96-15.38,18.53-27.22,19.35-26.71Z"/>
    <path class="cls-5" d="M61.59,79.92c.69.67-9.24,11.45-22.39,24.35-.7.69-1.85.69-2.56,0h0c-.71-.69-.71-1.81,0-2.5,13.22-12.83,24.27-22.51,24.96-21.84Z"/>
    <path class="cls-5" d="M59.76,77.67c.52.8-11.62,9.16-27.38,18.87-.84.52-1.97.27-2.5-.56h0c-.53-.83-.28-1.92.57-2.44,15.82-9.64,28.8-16.68,29.31-15.88Z"/>
    <path class="cls-5" d="M58.49,75.09c.32.89-13.42,6.4-31,12.46-.94.32-1.98-.16-2.31-1.09h0c-.33-.92.17-1.93,1.11-2.25,17.62-5.96,31.88-10.01,32.2-9.12Z"/>
    <path class="cls-5" d="M57.83,72.3c.11.94-14.54,3.33-33.07,5.41-.99.11-1.89-.59-2-1.56h0c-.11-.97.6-1.85,1.6-1.96,18.54-1.99,33.36-2.84,33.47-1.9Z"/>
    <path class="cls-5" d="M57.83,69.44c-.11.94-14.93.09-33.47-1.9-.99-.11-1.71-.98-1.6-1.96h0c.11-.97,1.01-1.67,2-1.56,18.53,2.08,33.17,4.47,33.07,5.42Z"/>
    <path class="cls-5" d="M58.49,66.64c-.32.89-14.58-3.15-32.2-9.12-.94-.32-1.44-1.33-1.11-2.25h0c.33-.92,1.37-1.41,2.31-1.09,17.59,6.05,31.32,11.56,31,12.46Z"/>
    <path class="cls-5" d="M59.76,64.06c-.52.8-13.5-6.24-29.31-15.88-.85-.52-1.1-1.61-.57-2.44h0c.53-.83,1.65-1.08,2.5-.56,15.76,9.72,27.9,18.07,27.38,18.88Z"/>
    <path class="cls-5" d="M61.59,61.82c-.69.67-11.73-9.01-24.96-21.85-.71-.69-.71-1.81,0-2.5h0c.71-.69,1.86-.69,2.56,0,13.15,12.9,23.08,23.68,22.39,24.35Z"/>
    <path class="cls-5" d="M63.89,60.03c-.82.5-9.38-11.33-19.35-26.71-.53-.82-.28-1.92.57-2.44h0c.85-.52,1.97-.27,2.5.56,9.88,15.43,17.1,28.09,16.28,28.6Z"/>
    <path class="cls-5" d="M66.53,58.79c-.92.31-6.56-13.09-12.77-30.24-.33-.92.17-1.93,1.11-2.25h0c.95-.32,1.98.16,2.31,1.08,6.11,17.19,10.26,31.1,9.34,31.41Z"/>
    <path class="cls-5" d="M69.4,58.15c-.97.11-3.41-14.18-5.55-32.26-.11-.97.6-1.84,1.6-1.95h0c1-.11,1.9.59,2.01,1.56,2.04,18.08,2.91,32.55,1.94,32.65Z"/>
    <path class="cls-5" d="M72.33,58.15c-.97-.11-.09-14.57,1.95-32.65.11-.97,1.01-1.67,2.01-1.56h0c1,.11,1.71.99,1.6,1.95-2.14,18.07-4.59,32.36-5.55,32.26Z"/>
    <path class="cls-5" d="M75.2,58.79c-.92-.31,3.23-14.22,9.35-31.41.33-.92,1.36-1.41,2.31-1.08h0c.95.32,1.45,1.33,1.11,2.25-6.21,17.16-11.85,30.56-12.77,30.24Z"/>
    <path class="cls-5" d="M77.84,60.03c-.82-.5,6.4-13.17,16.28-28.6.53-.83,1.65-1.08,2.5-.56h0c.85.52,1.11,1.61.57,2.44-9.96,15.38-18.53,27.22-19.35,26.71Z"/>
    <path class="cls-5" d="M80.14,61.82c-.69-.67,9.24-11.45,22.39-24.35.7-.69,1.85-.69,2.56,0h0c.71.69.71,1.81,0,2.5-13.22,12.83-24.27,22.51-24.96,21.84Z"/>
    <path class="cls-5" d="M81.97,64.06c-.52-.8,11.62-9.16,27.38-18.87.84-.52,1.97-.27,2.5.56h0c.53.83.28,1.92-.57,2.44-15.82,9.64-28.8,16.68-29.31,15.88Z"/>
    <path class="cls-5" d="M83.25,66.64c-.32-.89,13.42-6.4,31-12.46.94-.32,1.98.16,2.31,1.09h0c.33.92-.17,1.93-1.11,2.25-17.62,5.96-31.88,10.01-32.2,9.12Z"/>
    <path class="cls-5" d="M83.9,69.43c-.11-.94,14.54-3.33,33.07-5.41.99-.11,1.89.59,2,1.56h0c.11.97-.6,1.85-1.6,1.96-18.54,1.99-33.36,2.84-33.47,1.9Z"/>
    <path class="cls-5" d="M83.9,72.3c.11-.94,14.93-.09,33.47,1.9.99.11,1.71.98,1.6,1.96h0c-.11.97-1.01,1.67-2,1.56-18.53-2.08-33.17-4.47-33.07-5.42Z"/>
    <path class="cls-5" d="M83.25,75.09c.32-.89,14.58,3.15,32.2,9.12.94.32,1.44,1.33,1.11,2.25h0c-.33.92-1.37,1.41-2.31,1.09-17.59-6.05-31.32-11.56-31-12.46Z"/>
    <path class="cls-5" d="M81.97,77.67c.52-.8,13.5,6.24,29.31,15.88.85.52,1.1,1.61.57,2.44h0c-.53.83-1.65,1.08-2.5.56-15.76-9.72-27.9-18.07-27.38-18.88Z"/>
  </g>
</svg>