<?xml version="1.0" encoding="UTF-8"?>
<svg id="_图层_1" data-name="图层_1" xmlns="http://www.w3.org/2000/svg" viewBox="0 0 141.73 141.73">
  <defs>
    <style>
      .cls-1 {
        fill: #f3bb1f;
      }

      .cls-2 {
        fill: #faf5ca;
      }

      .cls-3 {
        fill: #ffd824;
      }
    </style>
  </defs>
  <g>
    <g id="_x3C_径向重复_x3E_">
      <path class="cls-2" d="M67.61,60.41c-.82,0-.99-4.33-2.73-16.83-.16-1.13-3.18-22.86.41-30.47.32-.68,1.21-2.56,2.39-2.56,1.14,0,1.98,1.75,2.28,2.38,3.67,7.59.43,30.56.43,30.56-1.78,12.59-1.97,16.92-2.78,16.92Z"/>
    </g>
    <g id="_x3C_径向重复_x3E_-2" data-name="_x3C_径向重复_x3E_">
      <path class="cls-2" d="M70.24,60.9c-.76-.3.63-4.4,3.51-16.68.26-1.11,5.26-22.47,11.35-28.27.55-.52,2.05-1.95,3.15-1.52,1.06.42,1.22,2.34,1.27,3.04.69,8.41-10.6,28.66-10.6,28.66-6.18,11.09-7.92,15.06-8.68,14.77Z"/>
    </g>
    <g id="_x3C_径向重复_x3E_-3" data-name="_x3C_径向重复_x3E_">
      <path class="cls-2" d="M72.52,62.3c-.6-.55,2.17-3.87,9.27-14.28.64-.94,12.98-19.04,20.75-22.24.7-.29,2.61-1.08,3.49-.27.84.77.29,2.63.09,3.3-2.38,8.09-20.19,22.88-20.19,22.88-9.76,8.1-12.81,11.17-13.41,10.62Z"/>
    </g>
    <g id="_x3C_径向重复_x3E_-4" data-name="_x3C_径向重复_x3E_">
      <path class="cls-2" d="M74.14,64.44c-.36-.74,3.42-2.82,13.78-9.95.94-.65,18.96-13.05,27.35-13.21.75-.01,2.83-.06,3.35,1.01.5,1.02-.67,2.56-1.1,3.11-5.13,6.68-27.06,14.01-27.06,14.01-12.01,4.02-15.96,5.77-16.32,5.04Z"/>
    </g>
    <g id="_x3C_径向重复_x3E_-5" data-name="_x3C_径向重复_x3E_">
      <path class="cls-2" d="M74.88,67.02c-.07-.82,4.2-1.39,16.43-4.28,1.11-.26,22.37-5.29,30.26-2.4.71.26,2.65.97,2.76,2.15.1,1.14-1.55,2.14-2.15,2.5-7.19,4.37-30.27,3.25-30.27,3.25-12.65-.61-16.96-.4-17.04-1.22Z"/>
    </g>
    <g id="_x3C_径向重复_x3E_-6" data-name="_x3C_径向重复_x3E_">
      <path class="cls-2" d="M74.64,69.7c.22-.79,4.42.23,16.86,1.97,1.13.16,22.76,3.18,29.08,8.74.57.5,2.13,1.87,1.8,3.01-.31,1.1-2.21,1.43-2.9,1.55-8.27,1.47-29.39-7.95-29.39-7.95-11.57-5.16-15.67-6.53-15.44-7.32Z"/>
    </g>
    <g id="_x3C_径向重复_x3E_-7" data-name="_x3C_径向重复_x3E_">
      <path class="cls-2" d="M73.45,72.1c.49-.65,4.04,1.82,15.02,7.95,1,.56,20.08,11.22,23.97,18.69.35.67,1.31,2.51.59,3.46-.69.91-2.58.53-3.26.4-8.24-1.63-24.55-18.08-24.55-18.08-8.93-9.01-12.26-11.77-11.77-12.43Z"/>
    </g>
    <g id="_x3C_径向重复_x3E_-8" data-name="_x3C_径向重复_x3E_">
      <path class="cls-2" d="M71.48,73.92c.7-.43,3.11,3.16,11.14,12.86.73.88,14.69,17.75,15.63,26.13.08.75.32,2.82-.69,3.44-.97.6-2.6-.44-3.19-.81-7.1-4.51-16.39-25.76-16.39-25.76-5.09-11.64-7.2-15.43-6.5-15.86Z"/>
    </g>
    <g id="_x3C_径向重复_x3E_-9" data-name="_x3C_径向重复_x3E_">
      <path class="cls-2" d="M68.99,74.89c.8-.15,1.77,4.07,5.76,16.04.36,1.08,7.31,21.88,5.17,30.03-.19.73-.72,2.74-1.88,2.96-1.12.21-2.26-1.35-2.68-1.91-4.99-6.78-6.01-29.96-6.01-29.96-.56-12.7-1.16-17-.36-17.14Z"/>
    </g>
    <g id="_x3C_径向重复_x3E_-10" data-name="_x3C_径向重复_x3E_">
      <path class="cls-2" d="M66.31,74.9c.8.15.18,4.44-.4,17.04-.05,1.14-1.05,23.05-5.98,29.88-.44.61-1.66,2.3-2.82,2.08-1.12-.21-1.62-2.08-1.81-2.76-2.22-8.14,5.17-30.12,5.17-30.12,4.05-12.05,5.03-16.27,5.83-16.12Z"/>
    </g>
    <g id="_x3C_径向重复_x3E_-11" data-name="_x3C_径向重复_x3E_">
      <path class="cls-2" d="M63.82,73.94c.69.43-1.43,4.21-6.5,15.75-.46,1.05-9.28,21.11-16.33,25.69-.63.41-2.37,1.54-3.38.91-.96-.6-.77-2.53-.69-3.23.86-8.39,15.66-26.21,15.66-26.21,8.11-9.76,10.54-13.35,11.24-12.91Z"/>
    </g>
    <g id="_x3C_径向重复_x3E_-12" data-name="_x3C_径向重复_x3E_">
      <path class="cls-2" d="M61.84,72.13c.49.66-2.84,3.4-11.73,12.33-.81.81-16.25,16.32-24.47,18.03-.74.15-2.77.58-3.48-.37-.68-.91.2-2.64.51-3.26,3.82-7.51,24.03-18.76,24.03-18.76,11.07-6.16,14.63-8.62,15.12-7.96Z"/>
    </g>
    <g id="_x3C_径向重复_x3E_-13" data-name="_x3C_径向重复_x3E_">
      <path class="cls-2" d="M60.64,69.73c.22.79-3.88,2.14-15.37,7.24-1.04.46-21.02,9.33-29.3,7.94-.74-.12-2.79-.47-3.11-1.61-.31-1.1,1.13-2.39,1.65-2.85,6.26-5.62,29.16-8.78,29.16-8.78,12.54-1.73,16.75-2.73,16.97-1.94Z"/>
    </g>
    <g id="_x3C_径向重复_x3E_-14" data-name="_x3C_径向重复_x3E_">
      <path class="cls-2" d="M60.39,67.06c-.08.82-4.39.59-16.94,1.18-1.14.05-22.96,1.07-30.18-3.22-.65-.39-2.43-1.45-2.32-2.63.11-1.13,1.91-1.82,2.57-2.06,7.86-2.97,30.35,2.39,30.35,2.39,12.32,2.94,16.6,3.53,16.52,4.35Z"/>
    </g>
    <g id="_x3C_径向重复_x3E_-15" data-name="_x3C_径向重复_x3E_">
      <path class="cls-2" d="M61.11,64.48c-.37.73-4.3-1.04-16.22-5.05-1.08-.36-21.79-7.33-26.98-13.95-.47-.59-1.75-2.23-1.22-3.29.51-1.02,2.44-1,3.14-.99,8.4.08,27.44,13.24,27.44,13.24,10.43,7.21,14.21,9.31,13.84,10.04Z"/>
    </g>
    <g id="_x3C_径向重复_x3E_-16" data-name="_x3C_径向重复_x3E_">
      <path class="cls-2" d="M62.72,62.33c-.61.55-3.64-2.53-13.31-10.59-.88-.73-17.69-14.74-20.14-22.8-.22-.72-.83-2.71.05-3.51.84-.77,2.63-.05,3.28.21,7.8,3.13,20.82,22.3,20.82,22.3,7.13,10.5,9.9,13.83,9.29,14.39Z"/>
    </g>
    <g id="_x3C_径向重复_x3E_-17" data-name="_x3C_径向重复_x3E_">
      <path class="cls-2" d="M64.99,60.91c-.76.3-2.48-3.68-8.6-14.7-.55-1-11.19-20.16-10.58-28.56.05-.75.21-2.83,1.31-3.25,1.06-.41,2.47.91,2.98,1.39,6.15,5.75,11.4,28.34,11.4,28.34,2.87,12.38,4.25,16.49,3.49,16.79Z"/>
    </g>
  </g>
  <g>
    <path class="cls-3" d="M67.69,114.68c.77,0,1.46-10.28,1.46-18.79,0-8.51-.7-18.78-1.46-18.78-.76,0-1.57,9.95-1.57,18.69,0,8.86.81,18.89,1.57,18.89Z"/>
    <path class="cls-3" d="M50.79,111.53c.72.28,5.06-9.06,8.12-16.99,3.06-7.94,6.11-17.76,5.39-18.04-.7-.28-5.04,8.71-8.19,16.85-3.19,8.26-6.04,17.91-5.33,18.18Z"/>
    <path class="cls-3" d="M36.16,102.46c.57.52,7.98-6.61,13.69-12.9,5.71-6.29,12.09-14.35,11.52-14.87-.56-.51-7.83,6.3-13.7,12.75-5.95,6.54-12.07,14.51-11.51,15.02Z"/>
    <path class="cls-3" d="M25.79,88.7c.35.69,9.82-3.27,17.4-7.06,7.59-3.8,16.43-9,16.09-9.69-.33-.68-9.57,3.03-17.36,6.92-7.9,3.94-16.48,9.15-16.14,9.83Z"/>
    <path class="cls-3" d="M21.06,72.1c.07.77,10.33.51,18.77-.27,8.44-.79,18.56-2.43,18.49-3.2-.07-.76-10.01-.65-18.67.15-8.78.81-18.66,2.55-18.58,3.31Z"/>
    <path class="cls-3" d="M22.63,54.92c-.21.74,9.45,4.23,17.6,6.56,8.16,2.33,18.18,4.47,18.39,3.73.21-.73-9.1-4.24-17.47-6.63-8.48-2.43-18.32-4.39-18.52-3.65Z"/>
    <path class="cls-3" d="M30.27,39.46c-.46.62,7.29,7.37,14.05,12.5,6.77,5.13,15.34,10.76,15.81,10.15.46-.6-6.97-7.25-13.9-12.52-7.03-5.34-15.5-10.73-15.96-10.12Z"/>
    <path class="cls-3" d="M42.97,27.81c-.65.41,4.15,9.52,8.61,16.75,4.46,7.24,10.44,15.6,11.09,15.19.65-.4-3.89-9.29-8.46-16.72-4.64-7.53-10.59-15.63-11.24-15.23Z"/>
    <path class="cls-3" d="M58.99,21.56c-.76.15.44,10.38,2,18.74,1.56,8.37,4.12,18.33,4.88,18.19.74-.14-.28-10.07-1.88-18.66-1.61-8.71-4.25-18.42-5-18.27Z"/>
    <path class="cls-3" d="M76.17,21.54c-.76-.14-3.32,9.84-4.88,18.2-1.56,8.37-2.75,18.59-2,18.73.74.14,3.36-9.49,4.96-18.08,1.63-8.7,2.66-18.72,1.91-18.85Z"/>
    <path class="cls-3" d="M92.21,27.76c-.66-.4-6.64,7.97-11.1,15.2-4.46,7.24-9.25,16.33-8.6,16.74.64.4,6.55-7.63,11.13-15.06,4.65-7.53,9.21-16.49,8.57-16.89Z"/>
    <path class="cls-3" d="M104.93,39.37c-.47-.61-9.06,5.02-15.82,10.15-6.77,5.13-14.5,11.87-14.04,12.49.45.61,8.85-4.74,15.8-10,7.04-5.33,14.52-12.03,14.06-12.64Z"/>
    <path class="cls-3" d="M112.6,54.81c-.21-.74-10.25,1.4-18.4,3.73-8.16,2.33-17.8,5.81-17.59,6.55.2.73,9.96-1.21,18.33-3.6,8.48-2.42,17.87-5.95,17.66-6.69Z"/>
    <path class="cls-3" d="M114.21,72c.07-.77-10.06-2.41-18.5-3.2-8.44-.79-18.69-1.04-18.76-.27-.07.76,9.72,2.48,18.38,3.29,8.78.82,18.81.93,18.87.17Z"/>
    <path class="cls-3" d="M109.53,88.6c.34-.69-8.52-5.9-16.1-9.69-7.59-3.8-17.05-7.75-17.4-7.06-.34.68,8.17,5.84,15.96,9.74,7.89,3.95,17.2,7.69,17.54,7.01Z"/>
    <path class="cls-3" d="M99.18,102.39c.57-.52-5.82-8.59-11.53-14.88-5.71-6.29-13.11-13.41-13.68-12.89-.56.51,5.52,8.41,11.38,14.87,5.94,6.55,13.27,13.41,13.83,12.89Z"/>
    <path class="cls-3" d="M84.58,111.49c.72-.28-2.34-10.12-5.4-18.05-3.06-7.94-7.4-17.26-8.12-16.98-.71.27,2.12,9.85,5.26,17.99,3.18,8.26,7.55,17.32,8.26,17.04Z"/>
  </g>
  <g>
    <g id="_x3C_径向重复_x3E_-18" data-name="_x3C_径向重复_x3E_">
      <g id="_x3C_径向重复_x3E_-19" data-name="_x3C_径向重复_x3E_">
        <path class="cls-1" d="M67.62,44.73c-.52,0-.63-2.73-1.72-10.61-.1-.71-2.01-14.41.26-19.21.2-.43.76-1.62,1.51-1.61.72,0,1.25,1.1,1.44,1.5,2.31,4.78.27,19.27.27,19.27-1.12,7.94-1.24,10.67-1.76,10.67Z"/>
      </g>
    </g>
    <g id="_x3C_径向重复_x3E_-20" data-name="_x3C_径向重复_x3E_">
      <g id="_x3C_径向重复_x3E_-21" data-name="_x3C_径向重复_x3E_">
        <path class="cls-1" d="M75.89,46.28c-.48-.19.4-2.77,2.21-10.52.16-.7,3.31-14.17,7.15-17.82.34-.33,1.29-1.23,1.99-.96.67.26.77,1.48.8,1.92.44,5.3-6.68,18.07-6.68,18.07-3.9,6.99-4.99,9.5-5.48,9.31Z"/>
      </g>
    </g>
    <g id="_x3C_径向重复_x3E_-22" data-name="_x3C_径向重复_x3E_">
      <g id="_x3C_径向重复_x3E_-23" data-name="_x3C_径向重复_x3E_">
        <path class="cls-1" d="M83.05,50.72c-.38-.35,1.37-2.44,5.85-9,.41-.6,8.19-12.01,13.08-14.02.44-.18,1.65-.68,2.2-.17.53.49.18,1.66.06,2.08-1.5,5.1-12.73,14.42-12.73,14.42-6.15,5.11-8.07,7.05-8.46,6.7Z"/>
      </g>
    </g>
    <g id="_x3C_径向重复_x3E_-24" data-name="_x3C_径向重复_x3E_">
      <g id="_x3C_径向重复_x3E_-25" data-name="_x3C_径向重复_x3E_">
        <path class="cls-1" d="M88.12,57.46c-.23-.46,2.16-1.78,8.69-6.28.59-.41,11.95-8.23,17.25-8.33.47,0,1.78-.03,2.11.64.32.64-.43,1.61-.69,1.96-3.23,4.21-17.06,8.83-17.06,8.83-7.57,2.53-10.06,3.64-10.29,3.18Z"/>
      </g>
    </g>
    <g id="_x3C_径向重复_x3E_-26" data-name="_x3C_径向重复_x3E_">
      <g id="_x3C_径向重复_x3E_-27" data-name="_x3C_径向重复_x3E_">
        <path class="cls-1" d="M90.43,65.58c-.05-.52,2.65-.88,10.36-2.7.7-.17,14.11-3.34,19.08-1.51.45.16,1.67.61,1.74,1.36.06.72-.98,1.35-1.35,1.58-4.53,2.75-19.09,2.05-19.09,2.05-7.97-.39-10.69-.26-10.74-.77Z"/>
      </g>
    </g>
    <g id="_x3C_径向重复_x3E_-28" data-name="_x3C_径向重复_x3E_">
      <g id="_x3C_径向重复_x3E_-29" data-name="_x3C_径向重复_x3E_">
        <path class="cls-1" d="M89.66,74c.14-.5,2.79.14,10.63,1.24.71.1,14.35,2.01,18.33,5.51.36.31,1.34,1.18,1.13,1.9-.2.69-1.4.9-1.83.98-5.22.92-18.53-5.01-18.53-5.01-7.3-3.25-9.88-4.12-9.74-4.62Z"/>
      </g>
    </g>
    <g id="_x3C_径向重复_x3E_-30" data-name="_x3C_径向重复_x3E_">
      <g id="_x3C_径向重复_x3E_-31" data-name="_x3C_径向重复_x3E_">
        <path class="cls-1" d="M85.91,81.56c.31-.41,2.55,1.14,9.47,5.01.63.35,12.66,7.08,15.11,11.79.22.42.83,1.59.37,2.18-.43.57-1.63.34-2.06.25-5.2-1.03-15.48-11.4-15.48-11.4-5.63-5.68-7.73-7.42-7.42-7.84Z"/>
      </g>
    </g>
    <g id="_x3C_径向重复_x3E_-32" data-name="_x3C_径向重复_x3E_">
      <g id="_x3C_径向重复_x3E_-33" data-name="_x3C_径向重复_x3E_">
        <path class="cls-1" d="M79.69,87.25c.44-.27,1.96,1.99,7.03,8.11.46.56,9.26,11.19,9.85,16.47.05.47.2,1.78-.44,2.17-.61.38-1.64-.28-2.01-.51-4.48-2.85-10.33-16.24-10.33-16.24-3.21-7.34-4.54-9.73-4.1-10Z"/>
      </g>
    </g>
    <g id="_x3C_径向重复_x3E_-34" data-name="_x3C_径向重复_x3E_">
      <g id="_x3C_径向重复_x3E_-35" data-name="_x3C_径向重复_x3E_">
        <path class="cls-1" d="M71.85,90.31c.51-.09,1.11,2.57,3.63,10.11.23.68,4.61,13.8,3.26,18.93-.12.46-.45,1.73-1.19,1.87-.7.13-1.43-.85-1.69-1.21-3.15-4.28-3.79-18.89-3.79-18.89-.35-8.01-.73-10.72-.23-10.81Z"/>
      </g>
    </g>
    <g id="_x3C_径向重复_x3E_-36" data-name="_x3C_径向重复_x3E_">
      <g id="_x3C_径向重复_x3E_-37" data-name="_x3C_径向重复_x3E_">
        <path class="cls-1" d="M63.44,90.31c.51.1.11,2.8-.25,10.75-.03.72-.66,14.54-3.77,18.84-.28.39-1.05,1.45-1.78,1.31-.7-.13-1.02-1.31-1.14-1.74-1.4-5.13,3.26-18.99,3.26-18.99,2.55-7.6,3.17-10.26,3.68-10.16Z"/>
      </g>
    </g>
    <g id="_x3C_径向重复_x3E_-38" data-name="_x3C_径向重复_x3E_">
      <g id="_x3C_径向重复_x3E_-39" data-name="_x3C_径向重复_x3E_">
        <path class="cls-1" d="M55.59,87.27c.44.27-.9,2.65-4.1,9.93-.29.66-5.85,13.31-10.29,16.2-.4.26-1.5.97-2.13.58-.61-.38-.48-1.59-.44-2.03.54-5.29,9.87-16.53,9.87-16.53,5.11-6.16,6.65-8.42,7.09-8.14Z"/>
      </g>
    </g>
    <g id="_x3C_径向重复_x3E_-40" data-name="_x3C_径向重复_x3E_">
      <g id="_x3C_径向重复_x3E_-41" data-name="_x3C_径向重复_x3E_">
        <path class="cls-1" d="M49.37,81.58c.31.41-1.79,2.15-7.39,7.77-.51.51-10.24,10.29-15.43,11.37-.46.1-1.74.36-2.19-.24-.43-.57.12-1.66.32-2.06,2.41-4.74,15.15-11.83,15.15-11.83,6.98-3.89,9.23-5.44,9.54-5.02Z"/>
      </g>
    </g>
    <g id="_x3C_径向重复_x3E_-42" data-name="_x3C_径向重复_x3E_">
      <g id="_x3C_径向重复_x3E_-43" data-name="_x3C_径向重复_x3E_">
        <path class="cls-1" d="M45.62,74.02c.14.5-2.44,1.35-9.69,4.57-.66.29-13.26,5.88-18.48,5.01-.47-.08-1.76-.29-1.96-1.01-.19-.69.71-1.51,1.04-1.8,3.95-3.54,18.39-5.53,18.39-5.53,7.91-1.09,10.56-1.72,10.7-1.22Z"/>
      </g>
    </g>
    <g id="_x3C_径向重复_x3E_-44" data-name="_x3C_径向重复_x3E_">
      <g id="_x3C_径向重复_x3E_-45" data-name="_x3C_径向重复_x3E_">
        <path class="cls-1" d="M44.84,65.61c-.05.52-2.77.37-10.68.74-.72.03-14.48.68-19.03-2.03-.41-.24-1.53-.91-1.46-1.66.07-.72,1.21-1.14,1.62-1.3,4.96-1.87,19.14,1.51,19.14,1.51,7.77,1.85,10.47,2.22,10.42,2.74Z"/>
      </g>
    </g>
    <g id="_x3C_径向重复_x3E_-46" data-name="_x3C_径向重复_x3E_">
      <g id="_x3C_径向重复_x3E_-47" data-name="_x3C_径向重复_x3E_">
        <path class="cls-1" d="M47.13,57.48c-.23.46-2.71-.66-10.23-3.18-.68-.23-13.74-4.62-17.01-8.8-.29-.37-1.1-1.41-.77-2.07.32-.64,1.54-.63,1.98-.63,5.3.05,17.3,8.35,17.3,8.35,6.58,4.54,8.96,5.87,8.73,6.33Z"/>
      </g>
    </g>
    <g id="_x3C_径向重复_x3E_-48" data-name="_x3C_径向重复_x3E_">
      <g id="_x3C_径向重复_x3E_-49" data-name="_x3C_径向重复_x3E_">
        <path class="cls-1" d="M52.2,50.74c-.38.35-2.29-1.6-8.39-6.68-.55-.46-11.15-9.29-12.7-14.37-.14-.46-.52-1.71.03-2.21.53-.48,1.66-.03,2.07.13,4.92,1.97,13.13,14.06,13.13,14.06,4.5,6.62,6.24,8.72,5.86,9.07Z"/>
      </g>
    </g>
    <g id="_x3C_径向重复_x3E_-50" data-name="_x3C_径向重复_x3E_">
      <g id="_x3C_径向重复_x3E_-51" data-name="_x3C_径向重复_x3E_">
        <path class="cls-1" d="M59.35,46.29c-.48.19-1.57-2.32-5.42-9.27-.35-.63-7.06-12.71-6.67-18.01.03-.48.13-1.78.83-2.05.67-.26,1.56.57,1.88.88,3.88,3.62,7.19,17.87,7.19,17.87,1.81,7.81,2.68,10.4,2.2,10.58Z"/>
      </g>
    </g>
  </g>
</svg>