<?xml version="1.0" encoding="UTF-8"?>
<svg id="_图层_1" data-name="图层_1" xmlns="http://www.w3.org/2000/svg" viewBox="0 0 185.39 130.66">
  <defs>
    <style>
      .cls-1 {
        fill: #fed925;
      }

      .cls-2 {
        fill: #f4bc1f;
      }

      .cls-3 {
        fill: #72ba2b;
      }

      .cls-4 {
        fill: #99c834;
      }
    </style>
  </defs>
  <g>
    <path class="cls-1" d="M45.25,65.38c0,.79,10.39,1.5,18.98,1.5,8.6,0,18.97-.71,18.97-1.5,0-.78-10.05-1.6-18.88-1.61-8.95,0-19.08.83-19.08,1.61Z"/>
    <path class="cls-1" d="M47.16,51.88c-.22.76,9.55,4.4,17.79,6.84,8.25,2.45,18.4,4.72,18.62,3.96.22-.74-9.2-4.4-17.66-6.92-8.58-2.55-18.54-4.63-18.76-3.89Z"/>
    <path class="cls-1" d="M52.76,39.46c-.42.67,7.94,6.94,15.17,11.63,7.24,4.7,16.34,9.76,16.76,9.1.42-.65-7.6-6.84-15.02-11.66-7.52-4.89-16.5-9.72-16.91-9.07Z"/>
    <path class="cls-1" d="M61.59,29.14c-.59.52,5.68,8.91,11.31,15.47,5.63,6.57,12.96,14.02,13.55,13.5.58-.51-5.38-8.73-11.16-15.47-5.85-6.83-13.12-14.02-13.7-13.51Z"/>
    <path class="cls-1" d="M72.94,21.76c-.71.33,2.97,10.17,6.53,18.07,3.57,7.9,8.52,17.14,9.23,16.81.7-.32-2.73-9.9-6.39-18.01-3.71-8.22-8.67-17.19-9.38-16.86Z"/>
    <path class="cls-1" d="M85.89,17.9c-.77.12,0,10.6,1.23,19.19,1.22,8.6,3.4,18.87,4.17,18.76.76-.11.14-10.28-1.11-19.1-1.27-8.95-3.53-18.96-4.29-18.85Z"/>
    <path class="cls-1" d="M99.39,17.88c-.77-.11-2.95,10.17-4.17,18.77-1.22,8.6-2,19.07-1.23,19.18.76.11,3-9.82,4.26-18.65,1.28-8.94,1.9-19.2,1.14-19.31Z"/>
    <path class="cls-1" d="M112.36,21.71c-.71-.32-5.67,8.92-9.24,16.82-3.57,7.9-7.24,17.73-6.53,18.06.7.33,5.62-8.57,9.29-16.68,3.72-8.22,7.18-17.88,6.48-18.2Z"/>
    <path class="cls-1" d="M123.72,29.07c-.59-.51-7.93,6.95-13.55,13.51-5.63,6.57-11.89,14.95-11.3,15.47.58.51,7.78-6.63,13.57-13.36,5.86-6.83,11.87-15.11,11.29-15.62Z"/>
    <path class="cls-1" d="M132.58,39.37c-.42-.66-9.54,4.41-16.77,9.11-7.24,4.7-15.58,10.96-15.16,11.62.41.65,9.32-4.14,16.74-8.95,7.53-4.88,15.61-11.12,15.19-11.77Z"/>
    <path class="cls-1" d="M138.2,51.77c-.22-.76-10.39,1.52-18.63,3.96-8.25,2.45-18,6.08-17.79,6.84.21.75,10.09-1.32,18.56-3.83,8.59-2.54,18.08-6.23,17.86-6.97Z"/>
    <path class="cls-1" d="M140.14,65.27c0-.79-10.39-1.5-18.98-1.5-8.6,0-18.97.71-18.97,1.5,0,.78,10.05,1.6,18.88,1.61,8.95,0,19.08-.83,19.08-1.61Z"/>
    <path class="cls-1" d="M138.23,78.78c.22-.76-9.55-4.4-17.79-6.84-8.25-2.45-18.4-4.72-18.62-3.96-.22.74,9.2,4.4,17.66,6.92,8.58,2.55,18.54,4.63,18.76,3.89Z"/>
    <path class="cls-1" d="M132.64,91.19c.42-.67-7.94-6.94-15.17-11.63-7.24-4.7-16.34-9.76-16.76-9.1-.42.65,7.6,6.84,15.02,11.66,7.52,4.89,16.5,9.72,16.91,9.07Z"/>
    <path class="cls-1" d="M123.81,101.51c.59-.52-5.68-8.91-11.31-15.47-5.63-6.57-12.96-14.02-13.55-13.5-.58.51,5.38,8.73,11.16,15.47,5.85,6.83,13.12,14.02,13.7,13.51Z"/>
    <path class="cls-1" d="M112.46,108.9c.71-.33-2.97-10.17-6.53-18.07-3.57-7.9-8.52-17.14-9.23-16.81-.7.32,2.73,9.9,6.39,18.01,3.71,8.22,8.67,17.19,9.38,16.86Z"/>
    <path class="cls-1" d="M99.5,112.76c.77-.12,0-10.6-1.23-19.19-1.22-8.6-3.4-18.87-4.17-18.76-.76.11-.14,10.28,1.11,19.1,1.27,8.95,3.53,18.96,4.29,18.85Z"/>
    <path class="cls-1" d="M86,112.78c.77.11,2.95-10.17,4.17-18.77,1.22-8.6,2-19.07,1.23-19.18-.76-.11-3,9.82-4.26,18.65-1.28,8.94-1.9,19.2-1.14,19.31Z"/>
    <path class="cls-1" d="M73.04,108.95c.71.32,5.67-8.92,9.24-16.82,3.57-7.9,7.24-17.73,6.53-18.06-.7-.33-5.62,8.57-9.29,16.68-3.72,8.22-7.18,17.88-6.48,18.2Z"/>
    <path class="cls-1" d="M61.67,101.59c.59.51,7.93-6.95,13.55-13.51,5.63-6.57,11.89-14.95,11.3-15.47-.58-.51-7.78,6.63-13.57,13.36-5.86,6.83-11.87,15.11-11.29,15.62Z"/>
    <path class="cls-1" d="M52.81,91.29c.42.66,9.54-4.41,16.77-9.11,7.24-4.7,15.58-10.96,15.16-11.62-.41-.65-9.32,4.14-16.74,8.95-7.53,4.88-15.61,11.12-15.19,11.77Z"/>
    <path class="cls-1" d="M47.19,78.88c.22.76,10.39-1.52,18.63-3.96,8.25-2.45,18-6.08,17.79-6.84-.21-.75-10.09,1.32-18.56,3.83-8.59,2.54-18.08,6.23-17.86,6.97Z"/>
  </g>
  <g>
    <g id="_x3C_径向重复_x3E_">
      <path class="cls-2" d="M49.52,65.33c0,.22-1.17.27-4.56.75-.31.04-6.2.88-8.26-.11-.19-.09-.7-.33-.69-.66,0-.31.47-.54.64-.63,2.06-1.01,8.29-.12,8.29-.12,3.41.49,4.59.54,4.59.77Z"/>
    </g>
    <g id="_x3C_径向重复_x3E_-2" data-name="_x3C_径向重复_x3E_">
      <path class="cls-2" d="M51.27,53.05c-.06.22-1.2-.07-4.59-.58-.31-.05-6.19-.92-7.9-2.46-.15-.14-.57-.52-.48-.83.09-.3.61-.39.79-.42,2.26-.38,7.99,2.25,7.99,2.25,3.14,1.44,4.25,1.82,4.19,2.04Z"/>
    </g>
    <g id="_x3C_径向重复_x3E_-3" data-name="_x3C_径向重复_x3E_">
      <path class="cls-2" d="M56.38,41.75c-.12.19-1.13-.41-4.24-1.86-.28-.13-5.68-2.65-6.89-4.61-.11-.18-.41-.66-.23-.93.17-.26.69-.2.88-.18,2.27.27,7.04,4.43,7.04,4.43,2.61,2.27,3.57,2.96,3.45,3.15Z"/>
    </g>
    <g id="_x3C_径向重复_x3E_-4" data-name="_x3C_径向重复_x3E_">
      <path class="cls-2" d="M64.42,32.37c-.17.15-.97-.72-3.55-2.99-.23-.21-4.71-4.16-5.33-6.38-.05-.2-.21-.75.04-.96.23-.2.72,0,.89.08,2.1.91,5.52,6.25,5.52,6.25,1.87,2.93,2.6,3.86,2.43,4Z"/>
    </g>
    <g id="_x3C_径向重复_x3E_-5" data-name="_x3C_径向重复_x3E_">
      <path class="cls-2" d="M74.76,25.66c-.2.09-.73-.97-2.57-3.88-.17-.26-3.36-5.33-3.33-7.64,0-.21.01-.78.3-.91.28-.13.69.21.83.33,1.76,1.47,3.55,7.57,3.55,7.57.98,3.34,1.42,4.44,1.22,4.53Z"/>
    </g>
    <g id="_x3C_径向重复_x3E_-6" data-name="_x3C_径向重复_x3E_">
      <path class="cls-2" d="M86.55,22.16c-.22.03-.43-1.14-1.38-4.46-.09-.3-1.74-6.07-1.06-8.28.06-.2.23-.74.55-.79.31-.04.6.4.71.55,1.28,1.91,1.3,8.27,1.3,8.27,0,3.48.12,4.66-.1,4.7Z"/>
    </g>
    <g id="_x3C_径向重复_x3E_-7" data-name="_x3C_径向重复_x3E_">
      <path class="cls-2" d="M98.84,22.16c-.22-.03-.1-1.21-.09-4.67,0-.31.02-6.32,1.29-8.25.11-.17.43-.65.74-.6.31.05.47.55.52.73.7,2.2-1.06,8.3-1.06,8.3-.96,3.34-1.18,4.51-1.4,4.48Z"/>
    </g>
    <g id="_x3C_径向重复_x3E_-8" data-name="_x3C_径向重复_x3E_">
      <path class="cls-2" d="M110.63,25.66c-.2-.09.24-1.19,1.22-4.5.09-.3,1.79-6.06,3.53-7.55.16-.13.59-.5.88-.36.28.13.29.66.3.85.05,2.31-3.34,7.66-3.34,7.66-1.86,2.93-2.39,3.99-2.6,3.9Z"/>
    </g>
    <g id="_x3C_径向重复_x3E_-9" data-name="_x3C_径向重复_x3E_">
      <path class="cls-2" d="M120.97,32.37c-.17-.15.57-1.08,2.43-3.98.17-.26,3.4-5.31,5.5-6.23.19-.08.7-.31.95-.1.23.21.1.72.05.9-.59,2.23-5.34,6.4-5.34,6.4-2.6,2.29-3.41,3.15-3.58,3Z"/>
    </g>
    <g id="_x3C_径向重复_x3E_-10" data-name="_x3C_径向重复_x3E_">
      <path class="cls-2" d="M129.01,41.75c-.12-.19.84-.87,3.44-3.12.24-.2,4.75-4.12,7.01-4.42.2-.03.76-.1.94.17.17.26-.11.72-.21.88-1.19,1.97-6.91,4.63-6.91,4.63-3.13,1.45-4.15,2.05-4.27,1.86Z"/>
    </g>
    <g id="_x3C_径向重复_x3E_-11" data-name="_x3C_径向重复_x3E_">
      <path class="cls-2" d="M134.12,53.04c-.06-.22,1.05-.6,4.17-2.02.28-.13,5.7-2.6,7.96-2.24.2.03.76.12.85.43.09.3-.3.66-.44.79-1.69,1.55-7.92,2.47-7.92,2.47-3.41.5-4.55.79-4.62.57Z"/>
    </g>
    <g id="_x3C_径向重复_x3E_-12" data-name="_x3C_径向重复_x3E_">
      <path class="cls-2" d="M135.87,65.32c0-.22,1.17-.27,4.56-.75.31-.04,6.2-.88,8.26.11.19.09.7.33.69.66,0,.31-.47.54-.64.63-2.06,1.01-8.29.12-8.29.12-3.41-.49-4.59-.54-4.59-.77Z"/>
    </g>
    <g id="_x3C_径向重复_x3E_-13" data-name="_x3C_径向重复_x3E_">
      <path class="cls-2" d="M134.12,77.61c.06-.22,1.2.07,4.59.58.31.05,6.19.92,7.9,2.46.15.14.57.52.48.83-.09.3-.61.39-.79.42-2.26.38-7.99-2.25-7.99-2.25-3.14-1.44-4.25-1.82-4.19-2.04Z"/>
    </g>
    <g id="_x3C_径向重复_x3E_-14" data-name="_x3C_径向重复_x3E_">
      <path class="cls-2" d="M129.02,88.9c.12-.19,1.13.41,4.24,1.86.28.13,5.68,2.65,6.89,4.61.11.18.41.66.23.93-.17.26-.69.2-.88.18-2.27-.27-7.04-4.43-7.04-4.43-2.61-2.27-3.57-2.96-3.45-3.15Z"/>
    </g>
    <g id="_x3C_径向重复_x3E_-15" data-name="_x3C_径向重复_x3E_">
      <path class="cls-2" d="M120.97,98.29c.17-.15.97.72,3.55,2.99.23.21,4.71,4.16,5.33,6.38.05.2.21.75-.04.96-.23.2-.72,0-.89-.08-2.1-.91-5.52-6.25-5.52-6.25-1.87-2.93-2.6-3.86-2.43-4Z"/>
    </g>
    <g id="_x3C_径向重复_x3E_-16" data-name="_x3C_径向重复_x3E_">
      <path class="cls-2" d="M110.64,105c.2-.09.73.97,2.57,3.88.17.26,3.36,5.33,3.33,7.64,0,.21-.01.78-.3.91-.28.13-.69-.21-.83-.33-1.76-1.47-3.55-7.57-3.55-7.57-.98-3.34-1.42-4.44-1.22-4.53Z"/>
    </g>
    <g id="_x3C_径向重复_x3E_-17" data-name="_x3C_径向重复_x3E_">
      <path class="cls-2" d="M98.85,108.5c.22-.03.43,1.14,1.38,4.46.09.3,1.74,6.07,1.06,8.28-.06.2-.23.74-.55.79-.31.04-.6-.4-.71-.55-1.28-1.91-1.3-8.27-1.3-8.27,0-3.48-.12-4.66.1-4.7Z"/>
    </g>
    <g id="_x3C_径向重复_x3E_-18" data-name="_x3C_径向重复_x3E_">
      <path class="cls-2" d="M86.56,108.5c.22.03.1,1.21.09,4.67,0,.31-.02,6.32-1.29,8.25-.11.17-.43.65-.74.6-.31-.05-.47-.55-.52-.73-.7-2.2,1.06-8.3,1.06-8.3.96-3.34,1.18-4.51,1.4-4.48Z"/>
    </g>
    <g id="_x3C_径向重复_x3E_-19" data-name="_x3C_径向重复_x3E_">
      <path class="cls-2" d="M74.77,105c.2.09-.24,1.19-1.22,4.5-.09.3-1.79,6.06-3.53,7.55-.16.13-.59.5-.88.36-.28-.13-.29-.66-.3-.85-.05-2.31,3.34-7.66,3.34-7.66,1.86-2.93,2.39-3.99,2.6-3.9Z"/>
    </g>
    <g id="_x3C_径向重复_x3E_-20" data-name="_x3C_径向重复_x3E_">
      <path class="cls-2" d="M64.43,98.29c.17.15-.57,1.08-2.43,3.98-.17.26-3.4,5.31-5.5,6.23-.19.08-.7.31-.95.1-.23-.21-.1-.72-.05-.9.59-2.23,5.34-6.4,5.34-6.4,2.6-2.29,3.41-3.15,3.58-3Z"/>
    </g>
    <g id="_x3C_径向重复_x3E_-21" data-name="_x3C_径向重复_x3E_">
      <path class="cls-2" d="M56.38,88.91c.12.19-.84.87-3.44,3.12-.24.2-4.75,4.12-7.01,4.42-.2.03-.76.1-.94-.17-.17-.26.11-.72.21-.88,1.19-1.97,6.91-4.63,6.91-4.63,3.13-1.45,4.15-2.05,4.27-1.86Z"/>
    </g>
    <g id="_x3C_径向重复_x3E_-22" data-name="_x3C_径向重复_x3E_">
      <path class="cls-2" d="M51.28,77.62c.06.22-1.05.6-4.17,2.02-.28.13-5.7,2.6-7.96,2.24-.2-.03-.76-.12-.85-.43-.09-.3.3-.66.44-.79,1.69-1.55,7.92-2.47,7.92-2.47,3.41-.5,4.55-.79,4.62-.57Z"/>
    </g>
  </g>
  <g>
    <path class="cls-3" d="M92.7,121.72c-.75,0-1.34-1.06-1.28-2.28.44-15.88.87-22.78,1.28-22.78s.83,6.9,1.28,22.78c.07,1.22-.52,2.28-1.28,2.28Z"/>
    <path class="cls-3" d="M76.97,119.44c-.72-.21-1-1.39-.59-2.55,4.86-15.11,7.19-21.61,7.58-21.49s-1.13,6.86-5.13,22.22c-.28,1.19-1.14,2.04-1.86,1.82Z"/>
    <path class="cls-3" d="M62.52,112.77c-.63-.41-.57-1.62.15-2.61,8.87-13.12,12.92-18.69,13.26-18.47s-2.99,6.26-11.12,19.86c-.6,1.07-1.66,1.63-2.29,1.22Z"/>
    <path class="cls-3" d="M50.51,102.26c-.49-.58-.09-1.72.87-2.47,12.17-10.06,17.61-14.25,17.88-13.94s-4.62,5.15-16.21,15.89c-.87.85-2.05,1.09-2.54.52Z"/>
    <path class="cls-3" d="M41.92,88.75c-.31-.69.39-1.67,1.52-2.12,14.48-6.19,20.87-8.66,21.04-8.29s-5.87,3.63-19.98,10.63c-1.07.57-2.27.47-2.58-.23Z"/>
    <path class="cls-3" d="M37.44,73.35c-.11-.75.84-1.49,2.05-1.6,15.62-1.82,22.44-2.37,22.5-1.97s-6.64,1.81-22.14,4.52c-1.19.24-2.31-.2-2.41-.95Z"/>
    <path class="cls-3" d="M37.44,57.3c.11-.75,1.22-1.19,2.41-.95,15.5,2.7,22.2,4.11,22.14,4.52s-6.88-.15-22.5-1.97c-1.21-.11-2.16-.85-2.05-1.6Z"/>
    <path class="cls-3" d="M41.92,41.9c.31-.69,1.51-.8,2.58-.23,14.12,7.01,20.15,10.26,19.98,10.63s-6.56-2.1-21.04-8.29c-1.13-.45-1.83-1.43-1.52-2.12Z"/>
    <path class="cls-3" d="M50.51,28.4c.49-.58,1.67-.34,2.54.52,11.59,10.74,16.47,15.58,16.21,15.89s-5.71-3.88-17.88-13.94c-.96-.75-1.36-1.89-.87-2.47Z"/>
    <path class="cls-3" d="M62.52,17.89c.63-.41,1.7.15,2.29,1.22,8.13,13.6,11.46,19.64,11.12,19.86s-4.39-5.35-13.26-18.47c-.71-.99-.78-2.2-.15-2.61Z"/>
    <path class="cls-3" d="M76.97,11.22c.72-.21,1.58.63,1.86,1.82,4,15.36,5.52,22.1,5.13,22.22s-2.72-6.38-7.58-21.49c-.41-1.15-.13-2.33.59-2.55Z"/>
    <path class="cls-3" d="M92.7,8.94c.75,0,1.34,1.06,1.28,2.28-.44,15.88-.87,22.78-1.28,22.78s-.83-6.9-1.28-22.78c-.07-1.22.52-2.28,1.28-2.28Z"/>
    <path class="cls-3" d="M108.42,11.22c.72.21,1,1.39.59,2.55-4.86,15.11-7.19,21.61-7.58,21.49s1.13-6.86,5.13-22.22c.28-1.19,1.14-2.04,1.86-1.82Z"/>
    <path class="cls-3" d="M122.88,17.89c.63.41.57,1.62-.15,2.61-8.87,13.12-12.92,18.69-13.26,18.47s2.99-6.26,11.12-19.86c.6-1.07,1.66-1.63,2.29-1.22Z"/>
    <path class="cls-3" d="M134.88,28.4c.49.58.09,1.72-.87,2.47-12.17,10.06-17.61,14.25-17.88,13.94s4.62-5.15,16.21-15.89c.87-.85,2.05-1.09,2.54-.52Z"/>
    <path class="cls-3" d="M143.47,41.9c.31.69-.39,1.67-1.52,2.12-14.48,6.19-20.87,8.66-21.04,8.29s5.87-3.63,19.98-10.63c1.07-.57,2.27-.47,2.58.23Z"/>
    <path class="cls-3" d="M147.95,57.3c.11.75-.84,1.49-2.05,1.6-15.62,1.82-22.44,2.37-22.5,1.97s6.64-1.81,22.14-4.52c1.19-.24,2.31.2,2.41.95Z"/>
    <path class="cls-3" d="M147.95,73.35c-.11.75-1.22,1.19-2.41.95-15.5-2.7-22.2-4.11-22.14-4.52s6.88.15,22.5,1.97c1.21.11,2.16.85,2.05,1.6Z"/>
    <path class="cls-3" d="M143.47,88.75c-.31.69-1.51.8-2.58.23-14.12-7.01-20.15-10.26-19.98-10.63s6.56,2.1,21.04,8.29c1.13.45,1.83,1.43,1.52,2.12Z"/>
    <path class="cls-3" d="M134.88,102.26c-.49.58-1.67.34-2.54-.52-11.59-10.74-16.47-15.58-16.21-15.89s5.71,3.88,17.88,13.94c.96.75,1.36,1.89.87,2.47Z"/>
    <path class="cls-3" d="M122.88,112.77c-.63.41-1.7-.15-2.29-1.22-8.13-13.6-11.46-19.64-11.12-19.86s4.39,5.35,13.26,18.47c.71.99.78,2.2.15,2.61Z"/>
    <path class="cls-3" d="M108.42,119.44c-.72.21-1.58-.63-1.86-1.82-4-15.36-5.52-22.1-5.13-22.22s2.72,6.38,7.58,21.49c.41,1.15.13,2.33-.59,2.55Z"/>
  </g>
  <g>
    <g id="_x3C_径向重复_x3E_-23" data-name="_x3C_径向重复_x3E_">
      <ellipse class="cls-4" cx="92.7" cy="83.35" rx="1.74" ry="8.93"/>
    </g>
    <g id="_x3C_径向重复_x3E_-24" data-name="_x3C_径向重复_x3E_">
      <ellipse class="cls-4" cx="87.67" cy="82.62" rx="8.92" ry="1.74" transform="translate(-16.12 143.77) rotate(-73.81)"/>
    </g>
    <g id="_x3C_径向重复_x3E_-25" data-name="_x3C_径向重复_x3E_">
      <ellipse class="cls-4" cx="83.05" cy="80.49" rx="8.9" ry="1.75" transform="translate(-29.42 107.4) rotate(-57.56)"/>
    </g>
    <g id="_x3C_径向重复_x3E_-26" data-name="_x3C_径向重复_x3E_">
      <ellipse class="cls-4" cx="79.22" cy="77.13" rx="8.88" ry="1.75" transform="translate(-31.19 71.31) rotate(-41.22)"/>
    </g>
    <g id="_x3C_径向重复_x3E_-27" data-name="_x3C_径向重复_x3E_">
      <ellipse class="cls-4" cx="76.47" cy="72.81" rx="8.86" ry="1.76" transform="translate(-23.48 38.76) rotate(-24.78)"/>
    </g>
    <g id="_x3C_径向重复_x3E_-28" data-name="_x3C_径向重复_x3E_">
      <ellipse class="cls-4" cx="75.04" cy="67.89" rx="8.84" ry="1.76" transform="translate(-8.99 11.5) rotate(-8.27)"/>
    </g>
    <g id="_x3C_径向重复_x3E_-29" data-name="_x3C_径向重复_x3E_">
      <ellipse class="cls-4" cx="75.04" cy="62.76" rx="1.76" ry="8.84" transform="translate(2.14 128) rotate(-81.73)"/>
    </g>
    <g id="_x3C_径向重复_x3E_-30" data-name="_x3C_径向重复_x3E_">
      <ellipse class="cls-4" cx="76.47" cy="57.84" rx="1.76" ry="8.86" transform="translate(-8.1 103.03) rotate(-65.22)"/>
    </g>
    <g id="_x3C_径向重复_x3E_-31" data-name="_x3C_径向重复_x3E_">
      <ellipse class="cls-4" cx="79.22" cy="53.53" rx="1.75" ry="8.88" transform="translate(-13.25 77.84) rotate(-48.78)"/>
    </g>
    <g id="_x3C_径向重复_x3E_-32" data-name="_x3C_径向重复_x3E_">
      <ellipse class="cls-4" cx="83.05" cy="50.17" rx="1.75" ry="8.9" transform="translate(-13.95 52.39) rotate(-32.44)"/>
    </g>
    <g id="_x3C_径向重复_x3E_-33" data-name="_x3C_径向重复_x3E_">
      <ellipse class="cls-4" cx="87.67" cy="48.04" rx="1.74" ry="8.92" transform="translate(-9.92 26.36) rotate(-16.19)"/>
    </g>
    <g id="_x3C_径向重复_x3E_-34" data-name="_x3C_径向重复_x3E_">
      <ellipse class="cls-4" cx="92.7" cy="47.31" rx="1.74" ry="8.93"/>
    </g>
    <g id="_x3C_径向重复_x3E_-35" data-name="_x3C_径向重复_x3E_">
      <ellipse class="cls-4" cx="97.72" cy="48.04" rx="8.92" ry="1.74" transform="translate(24.33 128.49) rotate(-73.81)"/>
    </g>
    <g id="_x3C_径向重复_x3E_-36" data-name="_x3C_径向重复_x3E_">
      <ellipse class="cls-4" cx="102.34" cy="50.17" rx="8.9" ry="1.75" transform="translate(5.1 109.62) rotate(-57.56)"/>
    </g>
    <g id="_x3C_径向重复_x3E_-37" data-name="_x3C_径向重复_x3E_">
      <ellipse class="cls-4" cx="106.18" cy="53.53" rx="8.88" ry="1.75" transform="translate(-8.96 83.23) rotate(-41.22)"/>
    </g>
    <g id="_x3C_径向重复_x3E_-38" data-name="_x3C_径向重复_x3E_">
      <ellipse class="cls-4" cx="108.92" cy="57.84" rx="8.86" ry="1.76" transform="translate(-14.22 50.99) rotate(-24.78)"/>
    </g>
    <g id="_x3C_径向重复_x3E_-39" data-name="_x3C_径向重复_x3E_">
      <ellipse class="cls-4" cx="110.35" cy="62.76" rx="8.84" ry="1.76" transform="translate(-7.88 16.53) rotate(-8.27)"/>
    </g>
    <g id="_x3C_径向重复_x3E_-40" data-name="_x3C_径向重复_x3E_">
      <ellipse class="cls-4" cx="110.35" cy="67.89" rx="1.76" ry="8.84" transform="translate(27.29 167.33) rotate(-81.73)"/>
    </g>
    <g id="_x3C_径向重复_x3E_-41" data-name="_x3C_径向重复_x3E_">
      <ellipse class="cls-4" cx="108.92" cy="72.81" rx="1.76" ry="8.86" transform="translate(-2.85 141.18) rotate(-65.22)"/>
    </g>
    <g id="_x3C_径向重复_x3E_-42" data-name="_x3C_径向重复_x3E_">
      <ellipse class="cls-4" cx="106.18" cy="77.13" rx="1.75" ry="8.88" transform="translate(-21.8 106.17) rotate(-48.78)"/>
    </g>
    <g id="_x3C_径向重复_x3E_-43" data-name="_x3C_径向重复_x3E_">
      <ellipse class="cls-4" cx="102.34" cy="80.49" rx="1.75" ry="8.9" transform="translate(-27.2 67.46) rotate(-32.44)"/>
    </g>
    <g id="_x3C_径向重复_x3E_-44" data-name="_x3C_径向重复_x3E_">
      <ellipse class="cls-4" cx="97.72" cy="82.62" rx="1.74" ry="8.92" transform="translate(-19.16 30.53) rotate(-16.19)"/>
    </g>
  </g>
</svg>