<?xml version="1.0" encoding="UTF-8"?>
<svg id="_图层_1" data-name="图层_1" xmlns="http://www.w3.org/2000/svg" viewBox="0 0 141.73 141.73">
  <defs>
    <style>
      .cls-1 {
        fill: #a0d7e9;
      }

      .cls-2 {
        fill: #46bdd5;
      }

      .cls-3 {
        fill: #0087c0;
      }
    </style>
  </defs>
  <g>
    <g id="_x3C_径向重复_x3E_">
      <polygon class="cls-3" points="70.87 80.87 72.39 127.56 69.34 127.56 70.87 80.87"/>
    </g>
    <g id="_x3C_径向重复_x3E_-2" data-name="_x3C_径向重复_x3E_">
      <polygon class="cls-3" points="69.3 80.75 63.51 127.1 60.49 126.62 69.3 80.75"/>
    </g>
    <g id="_x3C_径向重复_x3E_-3" data-name="_x3C_径向重复_x3E_">
      <polygon class="cls-3" points="67.77 80.38 54.8 125.26 51.89 124.31 67.77 80.38"/>
    </g>
    <g id="_x3C_径向重复_x3E_-4" data-name="_x3C_径向重复_x3E_">
      <polygon class="cls-3" points="66.32 79.78 46.49 122.07 43.77 120.69 66.32 79.78"/>
    </g>
    <g id="_x3C_径向重复_x3E_-5" data-name="_x3C_径向重复_x3E_">
      <polygon class="cls-3" points="64.98 78.96 38.78 117.63 36.31 115.83 64.98 78.96"/>
    </g>
    <g id="_x3C_径向重复_x3E_-6" data-name="_x3C_径向重复_x3E_">
      <polygon class="cls-3" points="63.79 77.94 31.86 112.04 29.7 109.87 63.79 77.94"/>
    </g>
    <g id="_x3C_径向重复_x3E_-7" data-name="_x3C_径向重复_x3E_">
      <polygon class="cls-3" points="62.77 76.75 25.9 105.43 24.1 102.95 62.77 76.75"/>
    </g>
    <g id="_x3C_径向重复_x3E_-8" data-name="_x3C_径向重复_x3E_">
      <polygon class="cls-3" points="61.95 75.41 21.05 97.97 19.66 95.24 61.95 75.41"/>
    </g>
    <g id="_x3C_径向重复_x3E_-9" data-name="_x3C_径向重复_x3E_">
      <polygon class="cls-3" points="61.35 73.96 17.42 89.84 16.48 86.93 61.35 73.96"/>
    </g>
    <g id="_x3C_径向重复_x3E_-10" data-name="_x3C_径向重复_x3E_">
      <polygon class="cls-3" points="60.98 72.43 15.11 81.24 14.63 78.23 60.98 72.43"/>
    </g>
    <g id="_x3C_径向重复_x3E_-11" data-name="_x3C_径向重复_x3E_">
      <polygon class="cls-3" points="60.86 70.87 14.17 72.39 14.17 69.34 60.86 70.87"/>
    </g>
    <g id="_x3C_径向重复_x3E_-12" data-name="_x3C_径向重复_x3E_">
      <polygon class="cls-3" points="60.98 69.3 14.63 63.51 15.11 60.49 60.98 69.3"/>
    </g>
    <g id="_x3C_径向重复_x3E_-13" data-name="_x3C_径向重复_x3E_">
      <polygon class="cls-3" points="61.35 67.77 16.48 54.8 17.42 51.89 61.35 67.77"/>
    </g>
    <g id="_x3C_径向重复_x3E_-14" data-name="_x3C_径向重复_x3E_">
      <polygon class="cls-3" points="61.95 66.32 19.66 46.49 21.05 43.77 61.95 66.32"/>
    </g>
    <g id="_x3C_径向重复_x3E_-15" data-name="_x3C_径向重复_x3E_">
      <polygon class="cls-3" points="62.77 64.98 24.1 38.78 25.9 36.31 62.77 64.98"/>
    </g>
    <g id="_x3C_径向重复_x3E_-16" data-name="_x3C_径向重复_x3E_">
      <polygon class="cls-3" points="63.79 63.79 29.7 31.86 31.86 29.7 63.79 63.79"/>
    </g>
    <g id="_x3C_径向重复_x3E_-17" data-name="_x3C_径向重复_x3E_">
      <polygon class="cls-3" points="64.99 62.77 36.31 25.9 38.78 24.1 64.99 62.77"/>
    </g>
    <g id="_x3C_径向重复_x3E_-18" data-name="_x3C_径向重复_x3E_">
      <polygon class="cls-3" points="66.32 61.95 43.77 21.05 46.49 19.66 66.32 61.95"/>
    </g>
    <g id="_x3C_径向重复_x3E_-19" data-name="_x3C_径向重复_x3E_">
      <polygon class="cls-3" points="67.77 61.35 51.89 17.42 54.8 16.48 67.77 61.35"/>
    </g>
    <g id="_x3C_径向重复_x3E_-20" data-name="_x3C_径向重复_x3E_">
      <polygon class="cls-3" points="69.3 60.98 60.49 15.11 63.51 14.63 69.3 60.98"/>
    </g>
    <g id="_x3C_径向重复_x3E_-21" data-name="_x3C_径向重复_x3E_">
      <polygon class="cls-3" points="70.87 60.86 69.34 14.17 72.39 14.17 70.87 60.86"/>
    </g>
    <g id="_x3C_径向重复_x3E_-22" data-name="_x3C_径向重复_x3E_">
      <polygon class="cls-3" points="72.43 60.98 78.23 14.63 81.24 15.11 72.43 60.98"/>
    </g>
    <g id="_x3C_径向重复_x3E_-23" data-name="_x3C_径向重复_x3E_">
      <polygon class="cls-3" points="73.96 61.35 86.93 16.48 89.84 17.42 73.96 61.35"/>
    </g>
    <g id="_x3C_径向重复_x3E_-24" data-name="_x3C_径向重复_x3E_">
      <polygon class="cls-3" points="75.41 61.95 95.24 19.66 97.97 21.05 75.41 61.95"/>
    </g>
    <g id="_x3C_径向重复_x3E_-25" data-name="_x3C_径向重复_x3E_">
      <polygon class="cls-3" points="76.75 62.77 102.95 24.1 105.43 25.9 76.75 62.77"/>
    </g>
    <g id="_x3C_径向重复_x3E_-26" data-name="_x3C_径向重复_x3E_">
      <polygon class="cls-3" points="77.94 63.79 109.87 29.7 112.03 31.86 77.94 63.79"/>
    </g>
    <g id="_x3C_径向重复_x3E_-27" data-name="_x3C_径向重复_x3E_">
      <polygon class="cls-3" points="78.96 64.99 115.83 36.31 117.63 38.78 78.96 64.99"/>
    </g>
    <g id="_x3C_径向重复_x3E_-28" data-name="_x3C_径向重复_x3E_">
      <polygon class="cls-3" points="79.78 66.32 120.69 43.77 122.07 46.49 79.78 66.32"/>
    </g>
    <g id="_x3C_径向重复_x3E_-29" data-name="_x3C_径向重复_x3E_">
      <polygon class="cls-3" points="80.38 67.77 124.31 51.89 125.26 54.8 80.38 67.77"/>
    </g>
    <g id="_x3C_径向重复_x3E_-30" data-name="_x3C_径向重复_x3E_">
      <polygon class="cls-3" points="80.75 69.3 126.62 60.49 127.1 63.51 80.75 69.3"/>
    </g>
    <g id="_x3C_径向重复_x3E_-31" data-name="_x3C_径向重复_x3E_">
      <polygon class="cls-3" points="80.87 70.87 127.56 69.34 127.56 72.39 80.87 70.87"/>
    </g>
    <g id="_x3C_径向重复_x3E_-32" data-name="_x3C_径向重复_x3E_">
      <polygon class="cls-3" points="80.75 72.43 127.1 78.23 126.62 81.24 80.75 72.43"/>
    </g>
    <g id="_x3C_径向重复_x3E_-33" data-name="_x3C_径向重复_x3E_">
      <polygon class="cls-3" points="80.38 73.96 125.26 86.93 124.31 89.84 80.38 73.96"/>
    </g>
    <g id="_x3C_径向重复_x3E_-34" data-name="_x3C_径向重复_x3E_">
      <polygon class="cls-3" points="79.78 75.41 122.07 95.24 120.69 97.97 79.78 75.41"/>
    </g>
    <g id="_x3C_径向重复_x3E_-35" data-name="_x3C_径向重复_x3E_">
      <polygon class="cls-3" points="78.96 76.75 117.63 102.95 115.83 105.43 78.96 76.75"/>
    </g>
    <g id="_x3C_径向重复_x3E_-36" data-name="_x3C_径向重复_x3E_">
      <polygon class="cls-3" points="77.94 77.94 112.04 109.87 109.87 112.03 77.94 77.94"/>
    </g>
    <g id="_x3C_径向重复_x3E_-37" data-name="_x3C_径向重复_x3E_">
      <polygon class="cls-3" points="76.75 78.96 105.43 115.83 102.95 117.63 76.75 78.96"/>
    </g>
    <g id="_x3C_径向重复_x3E_-38" data-name="_x3C_径向重复_x3E_">
      <polygon class="cls-3" points="75.41 79.78 97.97 120.69 95.24 122.07 75.41 79.78"/>
    </g>
    <g id="_x3C_径向重复_x3E_-39" data-name="_x3C_径向重复_x3E_">
      <polygon class="cls-3" points="73.96 80.38 89.84 124.31 86.93 125.26 73.96 80.38"/>
    </g>
    <g id="_x3C_径向重复_x3E_-40" data-name="_x3C_径向重复_x3E_">
      <polygon class="cls-3" points="72.43 80.75 81.24 126.62 78.23 127.1 72.43 80.75"/>
    </g>
  </g>
  <g>
    <polygon class="cls-1" points="71.12 72.89 74.42 102.49 72.48 102.65 71.12 72.89"/>
    <polygon class="cls-1" points="70.8 72.9 69.43 102.66 67.49 102.51 70.8 72.9"/>
    <polygon class="cls-1" points="70.48 72.87 64.48 102.05 62.58 101.59 70.48 72.87"/>
    <polygon class="cls-1" points="70.17 72.78 59.68 100.66 57.88 99.92 70.17 72.78"/>
    <polygon class="cls-1" points="69.88 72.65 55.15 98.55 53.49 97.53 69.88 72.65"/>
    <polygon class="cls-1" points="69.62 72.47 51.02 95.75 49.54 94.48 69.62 72.47"/>
    <polygon class="cls-1" points="69.38 72.26 47.37 92.34 46.1 90.85 69.38 72.26"/>
    <polygon class="cls-1" points="69.18 72.01 44.3 88.4 43.28 86.73 69.18 72.01"/>
    <polygon class="cls-1" points="69.02 71.73 41.89 84.02 41.14 82.22 69.02 71.73"/>
    <polygon class="cls-1" points="68.91 71.43 40.18 79.33 39.73 77.43 68.91 71.43"/>
    <polygon class="cls-1" points="68.85 71.12 39.24 74.43 39.09 72.48 68.85 71.12"/>
    <polygon class="cls-1" points="68.83 70.8 39.07 69.43 39.22 67.49 68.83 70.8"/>
    <polygon class="cls-1" points="68.87 70.48 39.69 64.48 40.14 62.58 68.87 70.48"/>
    <polygon class="cls-1" points="68.95 70.17 41.07 59.68 41.82 57.88 68.95 70.17"/>
    <polygon class="cls-1" points="69.08 69.88 43.19 55.15 44.21 53.49 69.08 69.88"/>
    <polygon class="cls-1" points="69.26 69.61 45.99 51.02 47.25 49.54 69.26 69.61"/>
    <polygon class="cls-1" points="69.48 69.38 49.4 47.37 50.88 46.1 69.48 69.38"/>
    <polygon class="cls-1" points="69.73 69.18 53.34 44.3 55 43.28 69.73 69.18"/>
    <polygon class="cls-1" points="70 69.02 57.71 41.89 59.51 41.14 70 69.02"/>
    <polygon class="cls-1" points="70.3 68.91 62.4 40.18 64.3 39.73 70.3 68.91"/>
    <polygon class="cls-1" points="70.62 68.85 67.31 39.24 69.25 39.08 70.62 68.85"/>
    <polygon class="cls-1" points="70.93 68.83 72.3 39.07 74.24 39.22 70.93 68.83"/>
    <polygon class="cls-1" points="71.25 68.87 77.26 39.69 79.15 40.14 71.25 68.87"/>
    <polygon class="cls-1" points="71.56 68.95 82.05 41.07 83.86 41.82 71.56 68.95"/>
    <polygon class="cls-1" points="71.85 69.08 86.58 43.19 88.24 44.2 71.85 69.08"/>
    <polygon class="cls-1" points="72.12 69.26 90.71 45.99 92.2 47.25 72.12 69.26"/>
    <polygon class="cls-1" points="72.35 69.48 94.36 49.4 95.63 50.88 72.35 69.48"/>
    <polygon class="cls-1" points="72.55 69.73 97.43 53.34 98.45 55 72.55 69.73"/>
    <polygon class="cls-1" points="72.71 70 99.85 57.71 100.59 59.51 72.71 70"/>
    <polygon class="cls-1" points="72.82 70.3 101.55 62.4 102 64.3 72.82 70.3"/>
    <polygon class="cls-1" points="72.89 70.62 102.49 67.31 102.65 69.25 72.89 70.62"/>
    <polygon class="cls-1" points="72.9 70.93 102.66 72.3 102.51 74.24 72.9 70.93"/>
    <polygon class="cls-1" points="72.87 71.25 102.05 77.26 101.59 79.15 72.87 71.25"/>
    <polygon class="cls-1" points="72.78 71.56 100.66 82.05 99.92 83.86 72.78 71.56"/>
    <polygon class="cls-1" points="72.65 71.85 98.55 86.58 97.53 88.24 72.65 71.85"/>
    <polygon class="cls-1" points="72.47 72.12 95.75 90.71 94.48 92.2 72.47 72.12"/>
    <polygon class="cls-1" points="72.26 72.35 92.34 94.36 90.85 95.63 72.26 72.35"/>
    <polygon class="cls-1" points="72.01 72.55 88.4 97.43 86.73 98.45 72.01 72.55"/>
    <polygon class="cls-1" points="71.73 72.71 84.02 99.85 82.22 100.59 71.73 72.71"/>
    <polygon class="cls-1" points="71.43 72.82 79.33 101.55 77.43 102 71.43 72.82"/>
  </g>
  <g>
    <g id="_x3C_径向重复_x3E_-41" data-name="_x3C_径向重复_x3E_">
      <path class="cls-2" d="M75.42,126.14l-.46-19.09c-.01-.56-.5-.99-1.06-.95l-.48.04c-.56.05-.96.56-.88,1.11l2.87,18.88Z"/>
    </g>
    <g id="_x3C_径向重复_x3E_-42" data-name="_x3C_径向重复_x3E_">
      <path class="cls-2" d="M66.72,126.17l2.54-18.93c.07-.56-.34-1.06-.9-1.1l-.48-.03c-.56-.04-1.04.4-1.04.96l-.12,19.1Z"/>
    </g>
    <g id="_x3C_径向重复_x3E_-43" data-name="_x3C_径向重复_x3E_">
      <path class="cls-2" d="M58.12,124.84l5.47-18.3c.16-.54-.17-1.1-.71-1.23l-.47-.11c-.55-.13-1.09.24-1.18.79l-3.11,18.84Z"/>
    </g>
    <g id="_x3C_径向重复_x3E_-44" data-name="_x3C_径向重复_x3E_">
      <path class="cls-2" d="M49.83,122.18l8.26-17.22c.24-.51,0-1.11-.51-1.32l-.44-.18c-.52-.21-1.11.06-1.29.6l-6.02,18.13Z"/>
    </g>
    <g id="_x3C_径向重复_x3E_-45" data-name="_x3C_径向重复_x3E_">
      <path class="cls-2" d="M42.06,118.26l10.85-15.72c.32-.46.18-1.1-.3-1.39l-.41-.25c-.48-.29-1.11-.11-1.36.39l-8.78,16.96Z"/>
    </g>
    <g id="_x3C_径向重复_x3E_-46" data-name="_x3C_径向重复_x3E_">
      <path class="cls-2" d="M35.01,113.17l13.18-13.82c.39-.41.35-1.06-.08-1.42l-.37-.31c-.43-.36-1.08-.28-1.41.17l-11.33,15.38Z"/>
    </g>
    <g id="_x3C_径向重复_x3E_-47" data-name="_x3C_径向重复_x3E_">
      <path class="cls-2" d="M28.83,107.04l15.18-11.59c.45-.34.51-.99.14-1.41l-.31-.36c-.37-.42-1.02-.45-1.42-.05l-13.59,13.42Z"/>
    </g>
    <g id="_x3C_径向重复_x3E_-48" data-name="_x3C_径向重复_x3E_">
      <path class="cls-2" d="M23.69,100.01l16.81-9.07c.49-.27.66-.89.36-1.37l-.25-.41c-.3-.48-.93-.6-1.39-.28l-15.52,11.13Z"/>
    </g>
    <g id="_x3C_径向重复_x3E_-49" data-name="_x3C_径向重复_x3E_">
      <path class="cls-2" d="M19.71,92.28l18.02-6.33c.53-.19.79-.78.57-1.3l-.19-.44c-.22-.52-.83-.74-1.33-.49l-17.07,8.56Z"/>
    </g>
    <g id="_x3C_径向重复_x3E_-50" data-name="_x3C_径向重复_x3E_">
      <path class="cls-2" d="M16.99,84.01l18.79-3.44c.55-.1.9-.65.77-1.19l-.12-.46c-.14-.54-.7-.86-1.24-.69l-18.2,5.79Z"/>
    </g>
    <g id="_x3C_径向重复_x3E_-51" data-name="_x3C_径向重复_x3E_">
      <path class="cls-2" d="M15.6,75.42l19.09-.46c.56-.01.99-.5.95-1.06l-.04-.48c-.05-.56-.56-.96-1.11-.88l-18.88,2.87Z"/>
    </g>
    <g id="_x3C_径向重复_x3E_-52" data-name="_x3C_径向重复_x3E_">
      <path class="cls-2" d="M15.57,66.72l18.93,2.54c.56.07,1.06-.34,1.1-.9l.03-.48c.04-.56-.4-1.04-.96-1.04l-19.1-.12Z"/>
    </g>
    <g id="_x3C_径向重复_x3E_-53" data-name="_x3C_径向重复_x3E_">
      <path class="cls-2" d="M16.89,58.12l18.3,5.47c.54.16,1.1-.17,1.23-.71l.11-.47c.13-.55-.24-1.09-.79-1.18l-18.84-3.11Z"/>
    </g>
    <g id="_x3C_径向重复_x3E_-54" data-name="_x3C_径向重复_x3E_">
      <path class="cls-2" d="M19.55,49.83l17.22,8.26c.51.24,1.11,0,1.32-.51l.18-.44c.21-.52-.06-1.11-.6-1.29l-18.13-6.02Z"/>
    </g>
    <g id="_x3C_径向重复_x3E_-55" data-name="_x3C_径向重复_x3E_">
      <path class="cls-2" d="M23.48,42.06l15.72,10.85c.46.32,1.1.18,1.39-.3l.25-.41c.29-.48.11-1.11-.39-1.36l-16.96-8.78Z"/>
    </g>
    <g id="_x3C_径向重复_x3E_-56" data-name="_x3C_径向重复_x3E_">
      <path class="cls-2" d="M28.57,35.01l13.82,13.18c.41.39,1.06.35,1.42-.08l.31-.37c.36-.43.28-1.08-.17-1.41l-15.38-11.33Z"/>
    </g>
    <g id="_x3C_径向重复_x3E_-57" data-name="_x3C_径向重复_x3E_">
      <path class="cls-2" d="M34.7,28.83l11.59,15.18c.34.45.99.51,1.41.14l.36-.31c.42-.37.45-1.02.05-1.42l-13.42-13.59Z"/>
    </g>
    <g id="_x3C_径向重复_x3E_-58" data-name="_x3C_径向重复_x3E_">
      <path class="cls-2" d="M41.72,23.69l9.07,16.81c.27.49.89.66,1.37.36l.41-.25c.48-.3.6-.93.28-1.39l-11.13-15.52Z"/>
    </g>
    <g id="_x3C_径向重复_x3E_-59" data-name="_x3C_径向重复_x3E_">
      <path class="cls-2" d="M49.46,19.71l6.33,18.02c.19.53.78.79,1.3.57l.44-.19c.52-.22.74-.83.49-1.33l-8.56-17.07Z"/>
    </g>
    <g id="_x3C_径向重复_x3E_-60" data-name="_x3C_径向重复_x3E_">
      <path class="cls-2" d="M57.72,16.99l3.44,18.79c.1.55.65.9,1.19.77l.46-.12c.54-.14.86-.7.69-1.24l-5.79-18.2Z"/>
    </g>
    <g id="_x3C_径向重复_x3E_-61" data-name="_x3C_径向重复_x3E_">
      <path class="cls-2" d="M66.31,15.6l.46,19.09c.01.56.5.99,1.06.95l.48-.04c.56-.05.96-.56.88-1.11l-2.87-18.88Z"/>
    </g>
    <g id="_x3C_径向重复_x3E_-62" data-name="_x3C_径向重复_x3E_">
      <path class="cls-2" d="M75.01,15.57l-2.54,18.93c-.07.56.34,1.06.9,1.1l.48.03c.56.04,1.04-.4,1.04-.96l.12-19.1Z"/>
    </g>
    <g id="_x3C_径向重复_x3E_-63" data-name="_x3C_径向重复_x3E_">
      <path class="cls-2" d="M83.61,16.9l-5.47,18.3c-.16.54.17,1.1.71,1.23l.47.11c.55.13,1.09-.24,1.18-.79l3.11-18.84Z"/>
    </g>
    <g id="_x3C_径向重复_x3E_-64" data-name="_x3C_径向重复_x3E_">
      <path class="cls-2" d="M91.9,19.55l-8.26,17.22c-.24.51,0,1.11.51,1.32l.44.18c.52.21,1.11-.06,1.29-.6l6.02-18.13Z"/>
    </g>
    <g id="_x3C_径向重复_x3E_-65" data-name="_x3C_径向重复_x3E_">
      <path class="cls-2" d="M99.67,23.48l-10.85,15.72c-.32.46-.18,1.1.3,1.39l.41.25c.48.29,1.11.11,1.36-.39l8.78-16.96Z"/>
    </g>
    <g id="_x3C_径向重复_x3E_-66" data-name="_x3C_径向重复_x3E_">
      <path class="cls-2" d="M106.73,28.56l-13.18,13.82c-.39.41-.35,1.06.08,1.42l.37.31c.43.36,1.08.28,1.41-.17l11.33-15.38Z"/>
    </g>
    <g id="_x3C_径向重复_x3E_-67" data-name="_x3C_径向重复_x3E_">
      <path class="cls-2" d="M112.9,34.7l-15.18,11.59c-.45.34-.51.99-.14,1.41l.31.36c.37.42,1.02.45,1.42.05l13.59-13.42Z"/>
    </g>
    <g id="_x3C_径向重复_x3E_-68" data-name="_x3C_径向重复_x3E_">
      <path class="cls-2" d="M118.04,41.72l-16.81,9.07c-.49.27-.66.89-.36,1.37l.25.41c.3.48.93.6,1.39.28l15.52-11.13Z"/>
    </g>
    <g id="_x3C_径向重复_x3E_-69" data-name="_x3C_径向重复_x3E_">
      <path class="cls-2" d="M122.02,49.46l-18.02,6.33c-.53.19-.79.78-.57,1.3l.19.44c.22.52.83.74,1.33.49l17.07-8.56Z"/>
    </g>
    <g id="_x3C_径向重复_x3E_-70" data-name="_x3C_径向重复_x3E_">
      <path class="cls-2" d="M124.74,57.72l-18.79,3.44c-.55.1-.9.65-.77,1.19l.12.46c.14.54.7.86,1.24.69l18.2-5.79Z"/>
    </g>
    <g id="_x3C_径向重复_x3E_-71" data-name="_x3C_径向重复_x3E_">
      <path class="cls-2" d="M126.14,66.31l-19.09.46c-.56.01-.99.5-.95,1.06l.04.48c.05.56.56.96,1.11.88l18.88-2.87Z"/>
    </g>
    <g id="_x3C_径向重复_x3E_-72" data-name="_x3C_径向重复_x3E_">
      <path class="cls-2" d="M126.17,75.01l-18.93-2.54c-.56-.07-1.06.34-1.1.9l-.03.48c-.04.56.4,1.04.96,1.04l19.1.12Z"/>
    </g>
    <g id="_x3C_径向重复_x3E_-73" data-name="_x3C_径向重复_x3E_">
      <path class="cls-2" d="M124.84,83.61l-18.3-5.47c-.54-.16-1.1.17-1.23.71l-.11.47c-.13.55.24,1.09.79,1.18l18.84,3.11Z"/>
    </g>
    <g id="_x3C_径向重复_x3E_-74" data-name="_x3C_径向重复_x3E_">
      <path class="cls-2" d="M122.18,91.9l-17.22-8.26c-.51-.24-1.11,0-1.32.51l-.18.44c-.21.52.06,1.11.6,1.29l18.13,6.02Z"/>
    </g>
    <g id="_x3C_径向重复_x3E_-75" data-name="_x3C_径向重复_x3E_">
      <path class="cls-2" d="M118.26,99.67l-15.72-10.85c-.46-.32-1.1-.18-1.39.3l-.25.41c-.29.48-.11,1.11.39,1.36l16.96,8.78Z"/>
    </g>
    <g id="_x3C_径向重复_x3E_-76" data-name="_x3C_径向重复_x3E_">
      <path class="cls-2" d="M113.17,106.73l-13.82-13.18c-.41-.39-1.06-.35-1.42.08l-.31.37c-.36.43-.28,1.08.17,1.41l15.38,11.33Z"/>
    </g>
    <g id="_x3C_径向重复_x3E_-77" data-name="_x3C_径向重复_x3E_">
      <path class="cls-2" d="M107.04,112.9l-11.59-15.18c-.34-.45-.99-.51-1.41-.14l-.36.31c-.42.37-.45,1.02-.05,1.42l13.42,13.59Z"/>
    </g>
    <g id="_x3C_径向重复_x3E_-78" data-name="_x3C_径向重复_x3E_">
      <path class="cls-2" d="M100.01,118.04l-9.07-16.81c-.27-.49-.89-.66-1.37-.36l-.41.25c-.48.3-.6.93-.28,1.39l11.13,15.52Z"/>
    </g>
    <g id="_x3C_径向重复_x3E_-79" data-name="_x3C_径向重复_x3E_">
      <path class="cls-2" d="M92.28,122.02l-6.33-18.02c-.19-.53-.78-.79-1.3-.57l-.44.19c-.52.22-.74.83-.49,1.33l8.56,17.07Z"/>
    </g>
    <g id="_x3C_径向重复_x3E_-80" data-name="_x3C_径向重复_x3E_">
      <path class="cls-2" d="M84.01,124.74l-3.44-18.79c-.1-.55-.65-.9-1.19-.77l-.46.12c-.54.14-.86.7-.69,1.24l5.79,18.2Z"/>
    </g>
  </g>
</svg>