<?xml version="1.0" encoding="UTF-8"?>
<svg id="_图层_1" data-name="图层_1" xmlns="http://www.w3.org/2000/svg" viewBox="0 0 185.39 130.66">
  <defs>
    <style>
      .cls-1 {
        fill: #c8e4c9;
      }

      .cls-2 {
        fill: #349394;
      }

      .cls-3 {
        fill: #ea572a;
      }

      .cls-4 {
        fill: #f8cb78;
      }
    </style>
  </defs>
  <g>
    <g id="_x3C_径向重复_x3E_">
      <path class="cls-4" d="M92.7,90.68c-1.39,0-2.47-1.23-2.3-2.63.34-2.77.67-5.54,1.01-8.31.37-3.06.74-6.12,1.12-9.18.01-.09.09-.16.18-.16.08,0,.16.05.18.16l2.13,17.5c.17,1.4-.91,2.63-2.3,2.63Z"/>
    </g>
    <g id="_x3C_径向重复_x3E_-2" data-name="_x3C_径向重复_x3E_">
      <path class="cls-4" d="M85.63,89.66c-1.34-.4-2.03-1.89-1.48-3.18,1.1-2.56,2.19-5.13,3.29-7.69,1.21-2.83,2.42-5.66,3.63-8.49.04-.08.13-.13.21-.1.08.02.14.1.13.2l-2.84,17.39c-.23,1.39-1.61,2.26-2.94,1.87Z"/>
    </g>
    <g id="_x3C_径向重复_x3E_-3" data-name="_x3C_径向重复_x3E_">
      <path class="cls-4" d="M79.13,86.66c-1.17-.76-1.42-2.39-.53-3.47,1.77-2.15,3.53-4.3,5.3-6.44,1.95-2.37,3.9-4.74,5.85-7.12.06-.07.16-.09.23-.04.07.04.11.13.06.23l-7.58,15.88c-.6,1.27-2.17,1.72-3.34.95Z"/>
    </g>
    <g id="_x3C_径向重复_x3E_-4" data-name="_x3C_径向重复_x3E_">
      <path class="cls-4" d="M73.73,81.93c-.91-1.06-.7-2.69.46-3.48,2.29-1.56,4.59-3.12,6.88-4.67,2.53-1.72,5.07-3.44,7.6-5.16.07-.05.18-.04.23.03.05.06.07.16,0,.24l-11.7,13.08c-.93,1.04-2.56,1.03-3.48-.04Z"/>
    </g>
    <g id="_x3C_径向重复_x3E_-5" data-name="_x3C_径向重复_x3E_">
      <path class="cls-4" d="M69.87,75.86c-.58-1.28.08-2.78,1.41-3.21,2.64-.84,5.27-1.68,7.91-2.53,2.91-.93,5.82-1.86,8.73-2.79.09-.03.18.01.22.1.03.08.02.17-.07.23l-14.87,9.22c-1.19.74-2.75.26-3.32-1.02Z"/>
    </g>
    <g id="_x3C_径向重复_x3E_-6" data-name="_x3C_径向重复_x3E_">
      <path class="cls-4" d="M67.85,68.94c-.2-1.39.86-2.65,2.25-2.68,2.76-.06,5.53-.12,8.29-.17,3.05-.06,6.1-.13,9.16-.19.09,0,.17.06.18.15.01.08-.03.17-.13.2l-16.84,4.62c-1.34.37-2.71-.54-2.9-1.93Z"/>
    </g>
    <g id="_x3C_径向重复_x3E_-7" data-name="_x3C_径向重复_x3E_">
      <path class="cls-4" d="M67.85,61.72c.2-1.39,1.56-2.3,2.9-1.93,2.67.73,5.34,1.46,8,2.19,2.95.81,5.89,1.61,8.84,2.42.09.02.14.11.13.2-.01.08-.08.16-.18.15l-17.45-.36c-1.39-.03-2.45-1.28-2.25-2.68Z"/>
    </g>
    <g id="_x3C_径向重复_x3E_-8" data-name="_x3C_径向重复_x3E_">
      <path class="cls-4" d="M69.87,54.8c.58-1.28,2.14-1.76,3.32-1.02,2.36,1.46,4.71,2.92,7.07,4.38,2.6,1.61,5.2,3.23,7.8,4.84.08.05.11.15.07.23-.03.08-.12.13-.22.1l-16.64-5.31c-1.33-.42-1.99-1.93-1.41-3.21Z"/>
    </g>
    <g id="_x3C_径向重复_x3E_-9" data-name="_x3C_径向重复_x3E_">
      <path class="cls-4" d="M73.73,48.73c.91-1.06,2.54-1.08,3.47-.04,1.85,2.07,3.71,4.14,5.56,6.22,2.05,2.29,4.09,4.58,6.14,6.86.06.07.06.17,0,.24-.05.06-.15.09-.23.03l-14.48-9.83c-1.16-.79-1.37-2.42-.46-3.48Z"/>
    </g>
    <g id="_x3C_径向重复_x3E_-10" data-name="_x3C_径向重复_x3E_">
      <path class="cls-4" d="M79.13,44c1.17-.76,2.74-.31,3.34.95,1.2,2.52,2.4,5.03,3.6,7.55,1.33,2.78,2.65,5.56,3.98,8.33.04.08.01.18-.06.23-.07.04-.17.05-.23-.04l-11.15-13.56c-.89-1.08-.64-2.71.53-3.47Z"/>
    </g>
    <g id="_x3C_径向重复_x3E_-11" data-name="_x3C_径向重复_x3E_">
      <path class="cls-4" d="M85.63,41c1.34-.4,2.72.48,2.94,1.87.45,2.75.9,5.51,1.35,8.26.5,3.04.99,6.09,1.49,9.13.01.09-.04.18-.13.2-.08.02-.17,0-.21-.1l-6.92-16.18c-.55-1.29.14-2.78,1.48-3.18Z"/>
    </g>
    <g id="_x3C_径向重复_x3E_-12" data-name="_x3C_径向重复_x3E_">
      <path class="cls-4" d="M92.7,39.97c1.39,0,2.47,1.23,2.3,2.63-.34,2.77-.67,5.54-1.01,8.31-.37,3.06-.74,6.12-1.12,9.18-.01.09-.09.16-.18.16-.08,0-.16-.05-.18-.16l-2.13-17.5c-.17-1.4.91-2.63,2.3-2.63Z"/>
    </g>
    <g id="_x3C_径向重复_x3E_-13" data-name="_x3C_径向重复_x3E_">
      <path class="cls-4" d="M99.77,41c1.34.4,2.03,1.89,1.48,3.18-1.1,2.56-2.19,5.13-3.29,7.69-1.21,2.83-2.42,5.66-3.63,8.49-.04.08-.13.13-.21.1-.08-.02-.14-.1-.13-.2l2.84-17.39c.23-1.39,1.61-2.26,2.94-1.87Z"/>
    </g>
    <g id="_x3C_径向重复_x3E_-14" data-name="_x3C_径向重复_x3E_">
      <path class="cls-4" d="M106.27,44c1.17.76,1.42,2.39.53,3.47-1.77,2.15-3.53,4.3-5.3,6.44-1.95,2.37-3.9,4.74-5.85,7.12-.06.07-.16.09-.23.04-.07-.04-.11-.13-.06-.23l7.58-15.88c.6-1.27,2.17-1.72,3.34-.95Z"/>
    </g>
    <g id="_x3C_径向重复_x3E_-15" data-name="_x3C_径向重复_x3E_">
      <path class="cls-4" d="M111.67,48.73c.91,1.06.7,2.69-.46,3.48-2.29,1.56-4.59,3.12-6.88,4.67-2.53,1.72-5.07,3.44-7.6,5.16-.07.05-.18.04-.23-.03-.05-.06-.07-.16,0-.24l11.7-13.08c.93-1.04,2.56-1.03,3.48.04Z"/>
    </g>
    <g id="_x3C_径向重复_x3E_-16" data-name="_x3C_径向重复_x3E_">
      <path class="cls-4" d="M115.53,54.8c.58,1.28-.08,2.78-1.41,3.21-2.64.84-5.27,1.68-7.91,2.53-2.91.93-5.82,1.86-8.73,2.79-.09.03-.18-.01-.22-.1-.03-.08-.02-.17.07-.23l14.87-9.22c1.19-.74,2.75-.26,3.32,1.02Z"/>
    </g>
    <g id="_x3C_径向重复_x3E_-17" data-name="_x3C_径向重复_x3E_">
      <path class="cls-4" d="M117.54,61.72c.2,1.39-.86,2.65-2.25,2.68-2.76.06-5.53.12-8.29.17-3.05.06-6.1.13-9.16.19-.09,0-.17-.06-.18-.15-.01-.08.03-.17.13-.2l16.84-4.62c1.34-.37,2.71.54,2.9,1.93Z"/>
    </g>
    <g id="_x3C_径向重复_x3E_-18" data-name="_x3C_径向重复_x3E_">
      <path class="cls-4" d="M117.54,68.94c-.2,1.39-1.56,2.3-2.9,1.93-2.67-.73-5.34-1.46-8-2.19-2.95-.81-5.89-1.61-8.84-2.42-.09-.02-.14-.11-.13-.2.01-.08.08-.16.18-.15l17.45.36c1.39.03,2.45,1.28,2.25,2.68Z"/>
    </g>
    <g id="_x3C_径向重复_x3E_-19" data-name="_x3C_径向重复_x3E_">
      <path class="cls-4" d="M115.53,75.86c-.58,1.28-2.14,1.76-3.32,1.02-2.36-1.46-4.71-2.92-7.07-4.38-2.6-1.61-5.2-3.23-7.8-4.84-.08-.05-.11-.15-.07-.23.03-.08.12-.13.22-.1l16.64,5.31c1.33.42,1.99,1.93,1.41,3.21Z"/>
    </g>
    <g id="_x3C_径向重复_x3E_-20" data-name="_x3C_径向重复_x3E_">
      <path class="cls-4" d="M111.67,81.93c-.91,1.06-2.54,1.08-3.47.04-1.85-2.07-3.71-4.14-5.56-6.22-2.05-2.29-4.09-4.58-6.14-6.86-.06-.07-.06-.17,0-.24.05-.06.15-.09.23-.03l14.48,9.83c1.16.79,1.37,2.42.46,3.48Z"/>
    </g>
    <g id="_x3C_径向重复_x3E_-21" data-name="_x3C_径向重复_x3E_">
      <path class="cls-4" d="M106.27,86.66c-1.17.76-2.74.31-3.34-.95-1.2-2.52-2.4-5.03-3.6-7.55-1.33-2.78-2.65-5.56-3.98-8.33-.04-.08-.01-.18.06-.23.07-.04.17-.05.23.04l11.15,13.56c.89,1.08.64,2.71-.53,3.47Z"/>
    </g>
    <g id="_x3C_径向重复_x3E_-22" data-name="_x3C_径向重复_x3E_">
      <path class="cls-4" d="M99.77,89.66c-1.34.4-2.72-.48-2.94-1.87-.45-2.75-.9-5.51-1.35-8.26-.5-3.04-.99-6.09-1.49-9.13-.01-.09.04-.18.13-.2.08-.02.17,0,.21.1l6.92,16.18c.55,1.29-.14,2.78-1.48,3.18Z"/>
    </g>
  </g>
  <g>
    <g id="_x3C_径向重复_x3E_-23" data-name="_x3C_径向重复_x3E_">
      <polygon class="cls-3" points="91.36 114.83 92.7 75.23 94.04 114.83 91.36 114.83"/>
    </g>
    <g id="_x3C_径向重复_x3E_-24" data-name="_x3C_径向重复_x3E_">
      <polygon class="cls-3" points="77.61 112.44 89.94 74.83 80.18 113.2 77.61 112.44"/>
    </g>
    <g id="_x3C_径向重复_x3E_-25" data-name="_x3C_径向重复_x3E_">
      <polygon class="cls-3" points="65.08 106.24 87.4 73.66 67.33 107.7 65.08 106.24"/>
    </g>
    <g id="_x3C_径向重复_x3E_-26" data-name="_x3C_径向重复_x3E_">
      <polygon class="cls-3" points="54.79 96.72 85.29 71.81 56.54 98.76 54.79 96.72"/>
    </g>
    <g id="_x3C_径向重复_x3E_-27" data-name="_x3C_径向重复_x3E_">
      <polygon class="cls-3" points="47.57 84.66 83.78 69.44 48.68 87.12 47.57 84.66"/>
    </g>
    <g id="_x3C_径向重复_x3E_-28" data-name="_x3C_径向重复_x3E_">
      <polygon class="cls-3" points="44.01 71.04 83 66.74 44.39 73.71 44.01 71.04"/>
    </g>
    <g id="_x3C_径向重复_x3E_-29" data-name="_x3C_径向重复_x3E_">
      <polygon class="cls-3" points="44.39 56.95 83 63.92 44.01 59.62 44.39 56.95"/>
    </g>
    <g id="_x3C_径向重复_x3E_-30" data-name="_x3C_径向重复_x3E_">
      <polygon class="cls-3" points="48.68 43.54 83.78 61.22 47.57 46 48.68 43.54"/>
    </g>
    <g id="_x3C_径向重复_x3E_-31" data-name="_x3C_径向重复_x3E_">
      <polygon class="cls-3" points="56.54 31.89 85.29 58.85 54.79 33.94 56.54 31.89"/>
    </g>
    <g id="_x3C_径向重复_x3E_-32" data-name="_x3C_径向重复_x3E_">
      <polygon class="cls-3" points="67.33 22.96 87.4 57 65.08 24.42 67.33 22.96"/>
    </g>
    <g id="_x3C_径向重复_x3E_-33" data-name="_x3C_径向重复_x3E_">
      <polygon class="cls-3" points="80.18 17.46 89.94 55.83 77.61 18.22 80.18 17.46"/>
    </g>
    <g id="_x3C_径向重复_x3E_-34" data-name="_x3C_径向重复_x3E_">
      <polygon class="cls-3" points="94.03 15.83 92.7 55.43 91.36 15.83 94.03 15.83"/>
    </g>
    <g id="_x3C_径向重复_x3E_-35" data-name="_x3C_径向重复_x3E_">
      <polygon class="cls-3" points="107.79 18.22 95.46 55.83 105.22 17.46 107.79 18.22"/>
    </g>
    <g id="_x3C_径向重复_x3E_-36" data-name="_x3C_径向重复_x3E_">
      <polygon class="cls-3" points="120.31 24.42 97.99 57 118.06 22.96 120.31 24.42"/>
    </g>
    <g id="_x3C_径向重复_x3E_-37" data-name="_x3C_径向重复_x3E_">
      <polygon class="cls-3" points="130.6 33.94 100.1 58.85 128.85 31.89 130.6 33.94"/>
    </g>
    <g id="_x3C_径向重复_x3E_-38" data-name="_x3C_径向重复_x3E_">
      <polygon class="cls-3" points="137.82 46 101.61 61.22 136.71 43.54 137.82 46"/>
    </g>
    <g id="_x3C_径向重复_x3E_-39" data-name="_x3C_径向重复_x3E_">
      <polygon class="cls-3" points="141.39 59.62 102.4 63.92 141.01 56.95 141.39 59.62"/>
    </g>
    <g id="_x3C_径向重复_x3E_-40" data-name="_x3C_径向重复_x3E_">
      <polygon class="cls-3" points="141.01 73.71 102.4 66.74 141.39 71.04 141.01 73.71"/>
    </g>
    <g id="_x3C_径向重复_x3E_-41" data-name="_x3C_径向重复_x3E_">
      <polygon class="cls-3" points="136.71 87.12 101.61 69.44 137.82 84.66 136.71 87.12"/>
    </g>
    <g id="_x3C_径向重复_x3E_-42" data-name="_x3C_径向重复_x3E_">
      <polygon class="cls-3" points="128.85 98.76 100.1 71.81 130.6 96.72 128.85 98.76"/>
    </g>
    <g id="_x3C_径向重复_x3E_-43" data-name="_x3C_径向重复_x3E_">
      <polygon class="cls-3" points="118.06 107.7 97.99 73.66 120.31 106.24 118.06 107.7"/>
    </g>
    <g id="_x3C_径向重复_x3E_-44" data-name="_x3C_径向重复_x3E_">
      <polygon class="cls-3" points="105.22 113.2 95.46 74.83 107.79 112.44 105.22 113.2"/>
    </g>
  </g>
  <g>
    <g id="_x3C_径向重复_x3E_-45" data-name="_x3C_径向重复_x3E_">
      <path class="cls-2" d="M38.52,81.02c.92-.78,5.71-3.05,37.23-10.67-31.25,10.88-36.18,11.48-37.18,11.26-.37-.08-.39-.3-.05-.59Z"/>
    </g>
    <g id="_x3C_径向重复_x3E_-46" data-name="_x3C_径向重复_x3E_">
      <path class="cls-2" d="M36.34,64.97c1.1-.48,6.33-1.3,38.7.35-33.02,1.55-37.92.71-38.81.23-.33-.18-.28-.4.12-.58Z"/>
    </g>
    <g id="_x3C_径向重复_x3E_-47" data-name="_x3C_径向重复_x3E_">
      <path class="cls-2" d="M38.72,48.94c1.19-.15,6.44.55,37.03,11.35-32.11-7.91-36.58-10.11-37.31-10.83-.27-.27-.16-.47.27-.52Z"/>
    </g>
    <g id="_x3C_径向重复_x3E_-48" data-name="_x3C_径向重复_x3E_">
      <path class="cls-2" d="M45.48,34.24c1.18.19,6.02,2.36,32.37,21.43-28.6-16.73-32.28-20.11-32.77-21.01-.18-.33-.03-.49.41-.42Z"/>
    </g>
    <g id="_x3C_径向重复_x3E_-49" data-name="_x3C_径向重复_x3E_">
      <path class="cls-2" d="M56.06,22.07c1.08.52,5.12,3.98,25.08,29.77-22.78-24.19-25.36-28.48-25.59-29.48-.08-.37.11-.48.51-.29Z"/>
    </g>
    <g id="_x3C_径向重复_x3E_-50" data-name="_x3C_径向重复_x3E_">
      <path class="cls-2" d="M69.61,13.39c.89.81,3.8,5.28,15.76,35.7-15.11-29.69-16.39-34.54-16.33-35.57.02-.38.24-.43.57-.13Z"/>
    </g>
    <g id="_x3C_径向重复_x3E_-51" data-name="_x3C_径向重复_x3E_">
      <path class="cls-2" d="M85.03,8.93c.63,1.03,2.17,6.14,5.16,38.74-6.21-32.79-6.1-37.81-5.75-38.78.13-.36.35-.34.58.03Z"/>
    </g>
    <g id="_x3C_径向重复_x3E_-52" data-name="_x3C_径向重复_x3E_">
      <path class="cls-2" d="M101.07,9.03c.32,1.16.37,6.51-5.85,38.64,3.18-33.23,4.7-38.01,5.3-38.84.22-.3.43-.23.55.2Z"/>
    </g>
    <g id="_x3C_径向重复_x3E_-53" data-name="_x3C_径向重复_x3E_">
      <path class="cls-2" d="M116.44,13.7c-.02,1.21-1.46,6.36-16.39,35.41,12.32-30.98,15.11-35.14,15.92-35.76.3-.23.48-.1.47.35Z"/>
    </g>
    <g id="_x3C_径向重复_x3E_-54" data-name="_x3C_径向重复_x3E_">
      <path class="cls-2" d="M129.87,22.54c-.35,1.15-3.17,5.68-25.6,29.31,20.46-26.22,24.3-29.41,25.25-29.78.35-.13.49.05.36.47Z"/>
    </g>
    <g id="_x3C_径向重复_x3E_-55" data-name="_x3C_径向重复_x3E_">
      <path class="cls-2" d="M140.3,34.86c-.66,1.01-4.63,4.55-32.74,20.84,26.95-19.33,31.51-21.31,32.53-21.39.37-.03.45.18.21.55Z"/>
    </g>
    <g id="_x3C_径向重复_x3E_-56" data-name="_x3C_径向重复_x3E_">
      <path class="cls-2" d="M146.87,49.64c-.92.78-5.71,3.05-37.23,10.67,31.25-10.88,36.18-11.48,37.18-11.26.37.08.39.3.05.59Z"/>
    </g>
    <g id="_x3C_径向重复_x3E_-57" data-name="_x3C_径向重复_x3E_">
      <path class="cls-2" d="M149.05,65.69c-1.1.48-6.33,1.3-38.7-.35,33.02-1.55,37.92-.71,38.81-.23.33.18.28.4-.12.58Z"/>
    </g>
    <g id="_x3C_径向重复_x3E_-58" data-name="_x3C_径向重复_x3E_">
      <path class="cls-2" d="M146.67,81.72c-1.19.15-6.44-.55-37.03-11.35,32.11,7.91,36.58,10.11,37.31,10.83.27.27.16.47-.27.52Z"/>
    </g>
    <g id="_x3C_径向重复_x3E_-59" data-name="_x3C_径向重复_x3E_">
      <path class="cls-2" d="M139.91,96.41c-1.18-.19-6.02-2.36-32.37-21.43,28.6,16.73,32.28,20.11,32.77,21.01.18.33.03.49-.41.42Z"/>
    </g>
    <g id="_x3C_径向重复_x3E_-60" data-name="_x3C_径向重复_x3E_">
      <path class="cls-2" d="M129.33,108.59c-1.08-.52-5.12-3.98-25.08-29.77,22.78,24.19,25.36,28.48,25.59,29.48.08.37-.11.48-.51.29Z"/>
    </g>
    <g id="_x3C_径向重复_x3E_-61" data-name="_x3C_径向重复_x3E_">
      <path class="cls-2" d="M115.78,117.26c-.89-.81-3.8-5.28-15.76-35.7,15.11,29.69,16.39,34.54,16.33,35.57-.02.38-.24.43-.57.13Z"/>
    </g>
    <g id="_x3C_径向重复_x3E_-62" data-name="_x3C_径向重复_x3E_">
      <path class="cls-2" d="M100.36,121.73c-.63-1.03-2.17-6.14-5.16-38.74,6.21,32.79,6.1,37.81,5.75,38.78-.13.36-.35.34-.58-.03Z"/>
    </g>
    <g id="_x3C_径向重复_x3E_-63" data-name="_x3C_径向重复_x3E_">
      <path class="cls-2" d="M84.32,121.63c-.32-1.16-.37-6.51,5.85-38.64-3.18,33.23-4.7,38.01-5.3,38.84-.22.3-.43.23-.55-.2Z"/>
    </g>
    <g id="_x3C_径向重复_x3E_-64" data-name="_x3C_径向重复_x3E_">
      <path class="cls-2" d="M68.96,116.96c.02-1.21,1.46-6.36,16.39-35.41-12.32,30.98-15.11,35.14-15.92,35.76-.3.23-.48.1-.47-.35Z"/>
    </g>
    <g id="_x3C_径向重复_x3E_-65" data-name="_x3C_径向重复_x3E_">
      <path class="cls-2" d="M55.52,108.11c.35-1.15,3.17-5.68,25.6-29.31-20.46,26.22-24.3,29.41-25.25,29.78-.35.13-.49-.05-.36-.47Z"/>
    </g>
    <g id="_x3C_径向重复_x3E_-66" data-name="_x3C_径向重复_x3E_">
      <path class="cls-2" d="M45.09,95.8c.66-1.01,4.63-4.55,32.74-20.84-26.95,19.33-31.51,21.31-32.53,21.39-.37.03-.45-.18-.21-.55Z"/>
    </g>
  </g>
  <g>
    <path class="cls-1" d="M95.19,71.59c-.47-.83-.58-1.94-.14-2.09s1.42.68,1.89,1.51.58,1.94.14,2.09c-.44.15-1.42-.68-1.89-1.51Z"/>
    <path class="cls-1" d="M93.34,72.05c-.22-.93-.01-2.03.45-2.04s1.18,1.06,1.39,1.98.01,2.03-.45,2.04-1.18-1.06-1.39-1.98Z"/>
    <path class="cls-1" d="M91.44,71.96c.05-.95.56-1.95,1-1.83s.83,1.35.78,2.3-.56,1.95-1,1.83c-.45-.12-.83-1.35-.78-2.3Z"/>
    <path class="cls-1" d="M89.64,71.33c.31-.9,1.08-1.71,1.47-1.47s.42,1.53.11,2.43-1.08,1.71-1.47,1.47c-.4-.24-.42-1.53-.11-2.43Z"/>
    <path class="cls-1" d="M88.09,70.22c.55-.77,1.51-1.34,1.82-.99s-.02,1.59-.57,2.36-1.51,1.34-1.82.99c-.31-.34.02-1.59.57-2.36Z"/>
    <path class="cls-1" d="M86.91,68.71c.74-.58,1.82-.85,2.03-.43s-.46,1.52-1.21,2.1-1.82.85-2.03.43c-.21-.42.46-1.52,1.21-2.1Z"/>
    <path class="cls-1" d="M86.2,66.93c.88-.35,1.99-.3,2.07.16s-.87,1.33-1.75,1.68-1.99.3-2.07-.16c-.08-.46.87-1.33,1.75-1.68Z"/>
    <path class="cls-1" d="M86.02,65.01c.94-.08,1.99.28,1.94.74s-1.2,1.03-2.14,1.11-1.99-.28-1.94-.74c.05-.47,1.2-1.03,2.14-1.11Z"/>
    <path class="cls-1" d="M86.38,63.13c.92.19,1.83.83,1.65,1.26s-1.44.64-2.37.46-1.83-.83-1.65-1.26c.18-.43,1.44-.64,2.37-.46Z"/>
    <path class="cls-1" d="M87.25,61.42c.83.44,1.52,1.32,1.23,1.68s-1.56.21-2.4-.23-1.52-1.32-1.23-1.68c.29-.36,1.56-.21,2.4.23Z"/>
    <path class="cls-1" d="M88.56,60.03c.68.66,1.09,1.7.71,1.97s-1.56-.25-2.23-.91-1.09-1.7-.71-1.97c.38-.27,1.56.25,2.23.91Z"/>
    <path class="cls-1" d="M90.21,59.06c.47.83.58,1.94.14,2.09s-1.42-.68-1.89-1.51-.58-1.94-.14-2.09c.44-.15,1.42.68,1.89,1.51Z"/>
    <path class="cls-1" d="M92.06,58.61c.22.93.01,2.03-.45,2.04s-1.18-1.06-1.39-1.98-.01-2.03.45-2.04c.46-.01,1.18,1.06,1.39,1.98Z"/>
    <path class="cls-1" d="M93.96,58.7c-.05.95-.56,1.95-1,1.83s-.83-1.35-.78-2.3.56-1.95,1-1.83c.45.12.83,1.35.78,2.3Z"/>
    <path class="cls-1" d="M95.75,59.33c-.31.9-1.08,1.71-1.47,1.47s-.42-1.53-.11-2.43,1.08-1.71,1.47-1.47c.4.24.42,1.53.11,2.43Z"/>
    <path class="cls-1" d="M97.3,60.44c-.55.77-1.51,1.34-1.82.99s.02-1.59.57-2.36,1.51-1.34,1.82-.99c.31.34-.02,1.59-.57,2.36Z"/>
    <path class="cls-1" d="M98.48,61.95c-.74.58-1.82.85-2.03.43s.46-1.52,1.21-2.1,1.82-.85,2.03-.43c.21.42-.46,1.52-1.21,2.1Z"/>
    <path class="cls-1" d="M99.19,63.73c-.88.35-1.99.3-2.07-.16s.87-1.33,1.75-1.68,1.99-.3,2.07.16c.08.46-.87,1.33-1.75,1.68Z"/>
    <path class="cls-1" d="M99.37,65.64c-.94.08-1.99-.28-1.94-.74s1.2-1.03,2.14-1.11,1.99.28,1.94.74c-.05.47-1.2,1.03-2.14,1.11Z"/>
    <path class="cls-1" d="M99.01,67.53c-.92-.19-1.83-.83-1.65-1.26s1.44-.64,2.37-.46,1.83.83,1.65,1.26c-.18.43-1.44.64-2.37.46Z"/>
    <path class="cls-1" d="M98.14,69.24c-.83-.44-1.52-1.32-1.23-1.68s1.56-.21,2.4.23,1.52,1.32,1.23,1.68-1.56.21-2.4-.23Z"/>
    <path class="cls-1" d="M96.83,70.63c-.68-.66-1.09-1.7-.71-1.97s1.56.25,2.23.91,1.09,1.7.71,1.97c-.38.27-1.56-.25-2.23-.91Z"/>
  </g>
</svg>