<?xml version="1.0" encoding="UTF-8"?>
<svg id="_图层_1" data-name="图层_1" xmlns="http://www.w3.org/2000/svg" viewBox="0 0 185.39 130.66">
  <defs>
    <style>
      .cls-1 {
        fill: #9d2324;
      }

      .cls-2 {
        fill: #a1d8ea;
      }

      .cls-3 {
        fill: #cc261c;
      }

      .cls-4 {
        fill: #46bed6;
      }
    </style>
  </defs>
  <g>
    <g id="_x3C_径向重复_x3E_">
      <path class="cls-4" d="M58.57,65.33l-17.66,1.11c-.52.03-.96-.38-.96-.89v-.44c0-.52.44-.93.96-.89l17.66,1.11Z"/>
    </g>
    <g id="_x3C_径向重复_x3E_-2" data-name="_x3C_径向重复_x3E_">
      <path class="cls-4" d="M59.96,55.78l-17.26-3.88c-.51-.11-.81-.63-.67-1.13l.13-.42c.15-.5.68-.77,1.17-.59l16.63,6.01Z"/>
    </g>
    <g id="_x3C_径向重复_x3E_-3" data-name="_x3C_径向重复_x3E_">
      <path class="cls-4" d="M63.99,47l-15.46-8.55c-.45-.25-.6-.83-.32-1.27l.24-.37c.28-.43.87-.54,1.29-.24l14.25,10.43Z"/>
    </g>
    <g id="_x3C_径向重复_x3E_-4" data-name="_x3C_径向重复_x3E_">
      <path class="cls-4" d="M70.35,39.7l-12.41-12.53c-.36-.37-.34-.97.05-1.3l.34-.29c.39-.34.99-.28,1.31.13l10.72,13.99Z"/>
    </g>
    <g id="_x3C_径向重复_x3E_-5" data-name="_x3C_径向重复_x3E_">
      <path class="cls-4" d="M78.52,34.49l-8.36-15.5c-.25-.46-.05-1.02.42-1.24l.4-.18c.47-.21,1.03.01,1.22.49l6.32,16.43Z"/>
    </g>
    <g id="_x3C_径向重复_x3E_-6" data-name="_x3C_径向重复_x3E_">
      <path class="cls-4" d="M87.84,31.77l-3.62-17.21c-.11-.51.24-1,.75-1.07l.44-.06c.51-.07.99.3,1.03.82l1.4,17.53Z"/>
    </g>
    <g id="_x3C_径向重复_x3E_-7" data-name="_x3C_径向重复_x3E_">
      <path class="cls-4" d="M97.55,31.77l1.4-17.53c.04-.52.51-.89,1.03-.82l.44.06c.51.07.86.56.75,1.07l-3.62,17.21Z"/>
    </g>
    <g id="_x3C_径向重复_x3E_-8" data-name="_x3C_径向重复_x3E_">
      <path class="cls-4" d="M106.87,34.49l6.32-16.43c.19-.48.74-.71,1.22-.49l.4.18c.47.21.67.78.42,1.24l-8.36,15.5Z"/>
    </g>
    <g id="_x3C_径向重复_x3E_-9" data-name="_x3C_径向重复_x3E_">
      <path class="cls-4" d="M115.04,39.7l10.72-13.99c.31-.41.91-.47,1.31-.13l.34.29c.39.34.42.94.05,1.3l-12.41,12.53Z"/>
    </g>
    <g id="_x3C_径向重复_x3E_-10" data-name="_x3C_径向重复_x3E_">
      <path class="cls-4" d="M121.4,47l14.25-10.43c.42-.31,1.01-.2,1.29.24l.24.37c.28.43.13,1.02-.32,1.27l-15.46,8.55Z"/>
    </g>
    <g id="_x3C_径向重复_x3E_-11" data-name="_x3C_径向重复_x3E_">
      <path class="cls-4" d="M125.44,55.78l16.63-6.01c.49-.18,1.03.09,1.17.59l.13.42c.15.5-.16,1.01-.67,1.13l-17.26,3.88Z"/>
    </g>
    <g id="_x3C_径向重复_x3E_-12" data-name="_x3C_径向重复_x3E_">
      <path class="cls-4" d="M126.82,65.33l17.66-1.11c.52-.03.96.38.96.89v.44c0,.52-.44.93-.96.89l-17.66-1.11Z"/>
    </g>
    <g id="_x3C_径向重复_x3E_-13" data-name="_x3C_径向重复_x3E_">
      <path class="cls-4" d="M125.44,74.88l17.26,3.88c.51.11.81.63.67,1.13l-.13.42c-.15.5-.68.77-1.17.59l-16.63-6.01Z"/>
    </g>
    <g id="_x3C_径向重复_x3E_-14" data-name="_x3C_径向重复_x3E_">
      <path class="cls-4" d="M121.4,83.66l15.46,8.55c.45.25.6.83.32,1.27l-.24.37c-.28.43-.87.54-1.29.24l-14.25-10.43Z"/>
    </g>
    <g id="_x3C_径向重复_x3E_-15" data-name="_x3C_径向重复_x3E_">
      <path class="cls-4" d="M115.04,90.95l12.41,12.53c.36.37.34.97-.05,1.3l-.34.29c-.39.34-.99.28-1.31-.13l-10.72-13.99Z"/>
    </g>
    <g id="_x3C_径向重复_x3E_-16" data-name="_x3C_径向重复_x3E_">
      <path class="cls-4" d="M106.87,96.17l8.36,15.5c.25.46.05,1.02-.42,1.24l-.4.18c-.47.21-1.03-.01-1.22-.49l-6.32-16.43Z"/>
    </g>
    <g id="_x3C_径向重复_x3E_-17" data-name="_x3C_径向重复_x3E_">
      <path class="cls-4" d="M97.55,98.89l3.62,17.21c.11.51-.24,1-.75,1.07l-.44.06c-.51.07-.99-.3-1.03-.82l-1.4-17.53Z"/>
    </g>
    <g id="_x3C_径向重复_x3E_-18" data-name="_x3C_径向重复_x3E_">
      <path class="cls-4" d="M87.84,98.89l-1.4,17.53c-.04.52-.51.89-1.03.82l-.44-.06c-.51-.07-.86-.56-.75-1.07l3.62-17.21Z"/>
    </g>
    <g id="_x3C_径向重复_x3E_-19" data-name="_x3C_径向重复_x3E_">
      <path class="cls-4" d="M78.52,96.17l-6.32,16.43c-.19.48-.74.71-1.22.49l-.4-.18c-.47-.21-.67-.78-.42-1.24l8.36-15.5Z"/>
    </g>
    <g id="_x3C_径向重复_x3E_-20" data-name="_x3C_径向重复_x3E_">
      <path class="cls-4" d="M70.35,90.95l-10.72,13.99c-.31.41-.91.47-1.31.13l-.34-.29c-.39-.34-.42-.94-.05-1.3l12.41-12.53Z"/>
    </g>
    <g id="_x3C_径向重复_x3E_-21" data-name="_x3C_径向重复_x3E_">
      <path class="cls-4" d="M63.99,83.66l-14.25,10.43c-.42.31-1.01.2-1.29-.24l-.24-.37c-.28-.43-.13-1.02.32-1.27l15.46-8.55Z"/>
    </g>
    <g id="_x3C_径向重复_x3E_-22" data-name="_x3C_径向重复_x3E_">
      <path class="cls-4" d="M59.96,74.88l-16.63,6.01c-.49.18-1.03-.09-1.17-.59l-.13-.42c-.15-.5.16-1.01.67-1.13l17.26-3.88Z"/>
    </g>
  </g>
  <polygon class="cls-1" points="76.05 67.7 47.57 65.33 76.05 62.96 49.39 52.83 77.39 58.46 54.74 41.32 79.98 54.5 63.14 31.78 83.61 51.4 73.94 24.95 87.95 49.45 86.29 21.38 92.7 48.78 99.1 21.38 97.44 49.45 111.45 24.95 101.78 51.4 122.26 31.78 105.41 54.5 130.66 41.32 108.01 58.46 136.01 52.83 109.35 62.96 137.83 65.33 109.35 67.7 136.01 77.83 108.01 72.2 130.66 89.34 105.42 76.16 122.26 98.88 101.78 79.26 111.46 105.71 97.44 81.21 99.1 109.28 92.7 81.88 86.29 109.28 87.95 81.21 73.94 105.71 83.61 79.26 63.14 98.88 79.98 76.16 54.74 89.34 77.39 72.2 49.39 77.83 76.05 67.7"/>
  <g>
    <polygon class="cls-3" points="92.7 70.4 87.33 102.18 91.23 70.2 77.03 99.05 89.92 69.61 67.86 93.51 88.8 68.64 60.89 85.45 88 67.43 56.57 75.76 87.6 66.08 54.69 65.33 87.6 64.58 56.57 54.9 88 63.23 60.89 45.21 88.8 62.02 67.86 37.15 89.92 61.05 77.03 31.61 91.23 60.46 87.33 28.48 92.7 60.26 98.06 28.48 94.16 60.46 108.36 31.61 95.47 61.05 117.53 37.15 96.6 62.02 124.51 45.21 97.4 63.23 128.83 54.9 97.8 64.58 130.7 65.33 97.8 66.08 128.83 75.76 97.4 67.43 124.51 85.45 96.6 68.64 117.53 93.51 95.47 69.61 108.36 99.05 94.16 70.2 98.06 102.18 92.7 70.4"/>
    <path class="cls-3" d="M97,35.79l-2.89,23.66-.24,1.98.88-1.79,10.42-21.18-9.46,21.61-.8,1.83,1.37-1.48,16.38-17.75-15.54,18.47-1.3,1.54,1.74-1.04,20.62-12.42-20.03,13.32-1.68,1.12,1.96-.52,23.01-6.1-22.72,7.09-1.94.6,2.03.05,24.55.56-24.55.56-2.03.05,1.94.6,22.72,7.09-23.01-6.1-1.96-.52,1.68,1.12,20.03,13.32-20.62-12.42-1.74-1.04,1.3,1.54,15.54,18.47-16.38-17.75-1.37-1.48.8,1.83,9.46,21.61-10.42-21.18-.88-1.79.24,1.98,2.89,23.66-3.97-23.51-.33-1.98-.33,1.98-3.97,23.51,2.89-23.66.24-1.98-.88,1.79-10.42,21.18,9.46-21.61.8-1.83-1.37,1.48-16.38,17.75,15.54-18.47,1.3-1.54-1.74,1.04-20.62,12.42,20.03-13.32,1.68-1.12-1.96.52-23.01,6.1,22.72-7.09,1.94-.6-2.03-.05-24.55-.56,24.55-.56,2.03-.05-1.94-.6-22.72-7.09,23.01,6.1,1.96.52-1.68-1.12-20.03-13.32,20.62,12.42,1.74,1.04-1.3-1.54-15.54-18.47,16.38,17.75,1.37,1.48-.8-1.83-9.46-21.61,10.42,21.18.88,1.79-.24-1.98-2.89-23.66,3.97,23.51.33,1.98.33-1.98,3.97-23.51M99.13,21.17l-6.43,38.07-6.43-38.07,4.68,38.32-17.1-34.73,15.52,35.45-26.37-28.58,25.02,29.73-33.46-20.15,32.51,21.61-37.88-10.04,37.4,11.67-39.23.89,39.23.89-37.4,11.67,37.88-10.04-32.51,21.61,33.46-20.15-25.02,29.73,26.37-28.58-15.52,35.45,17.1-34.73-4.68,38.32,6.43-38.07,6.43,38.07-4.68-38.32,17.1,34.73-15.52-35.45,26.37,28.58-25.02-29.73,33.46,20.15-32.51-21.61,37.88,10.04-37.4-11.67,39.23-.89-39.23-.89,37.4-11.67-37.88,10.04,32.51-21.61-33.46,20.15,25.02-29.73-26.37,28.58,15.52-35.45-17.1,34.74,4.68-38.32h0Z"/>
  </g>
  <g>
    <polygon class="cls-2" points="92.7 75.33 94.23 122.02 91.16 122.02 92.7 75.33"/>
    <polygon class="cls-2" points="89.86 74.93 78.1 120.16 75.15 119.3 89.86 74.93"/>
    <polygon class="cls-2" points="87.25 73.75 63.14 113.85 60.56 112.2 87.25 73.75"/>
    <polygon class="cls-2" points="85.09 71.88 50.58 103.61 48.57 101.3 85.09 71.88"/>
    <polygon class="cls-2" points="83.54 69.49 41.44 90.27 40.16 87.49 83.54 69.49"/>
    <polygon class="cls-2" points="82.73 66.75 36.44 74.91 36 71.88 82.73 66.75"/>
    <polygon class="cls-2" points="82.73 63.9 36 58.77 36.44 55.75 82.73 63.9"/>
    <polygon class="cls-2" points="83.54 61.17 40.16 43.17 41.44 40.39 83.54 61.17"/>
    <polygon class="cls-2" points="85.09 58.78 48.57 29.36 50.58 27.05 85.09 58.78"/>
    <polygon class="cls-2" points="87.25 56.91 60.56 18.46 63.14 16.81 87.25 56.91"/>
    <polygon class="cls-2" points="89.86 55.73 75.15 11.36 78.1 10.5 89.86 55.73"/>
    <polygon class="cls-2" points="92.7 55.32 91.16 8.64 94.23 8.64 92.7 55.32"/>
    <polygon class="cls-2" points="95.53 55.73 107.3 10.5 110.25 11.36 95.53 55.73"/>
    <polygon class="cls-2" points="98.14 56.91 122.25 16.81 124.84 18.46 98.14 56.91"/>
    <polygon class="cls-2" points="100.31 58.78 134.81 27.05 136.82 29.36 100.31 58.78"/>
    <polygon class="cls-2" points="101.86 61.17 143.96 40.39 145.23 43.17 101.86 61.17"/>
    <polygon class="cls-2" points="102.66 63.91 148.95 55.75 149.39 58.77 102.66 63.91"/>
    <polygon class="cls-2" points="102.66 66.75 149.39 71.89 148.95 74.91 102.66 66.75"/>
    <polygon class="cls-2" points="101.86 69.49 145.24 87.49 143.96 90.27 101.86 69.49"/>
    <polygon class="cls-2" points="100.31 71.88 136.82 101.3 134.81 103.61 100.31 71.88"/>
    <polygon class="cls-2" points="98.14 73.75 124.84 112.2 122.25 113.85 98.14 73.75"/>
    <polygon class="cls-2" points="95.53 74.93 110.25 119.3 107.3 120.16 95.53 74.93"/>
  </g>
</svg>