<?xml version="1.0" encoding="UTF-8"?>
<svg id="_图层_1" data-name="图层_1" xmlns="http://www.w3.org/2000/svg" viewBox="0 0 185.39 130.66">
  <defs>
    <style>
      .cls-1 {
        fill: #fed925;
      }

      .cls-2 {
        fill: #f4bc1f;
      }

      .cls-3 {
        fill: #9d2324;
      }

      .cls-4 {
        fill: #cc261c;
      }
    </style>
  </defs>
  <polygon class="cls-3" points="75.93 67.71 47.27 65.33 75.93 62.95 49.1 52.79 77.28 58.44 54.48 41.25 79.9 54.47 62.94 31.69 83.55 51.36 73.81 24.83 87.92 49.4 86.25 21.26 92.7 48.74 99.15 21.26 97.48 49.4 111.58 24.83 101.84 51.36 122.45 31.69 105.5 54.47 130.91 41.25 108.11 58.44 136.3 52.79 109.46 62.95 138.13 65.33 109.46 67.71 136.3 77.87 108.11 72.22 130.91 89.41 105.5 76.19 122.45 98.97 101.84 79.3 111.58 105.83 97.48 81.26 99.15 109.4 92.7 81.92 86.25 109.4 87.92 81.26 73.81 105.83 83.55 79.3 62.94 98.97 79.9 76.19 54.48 89.41 77.28 72.22 49.1 77.87 75.93 67.71"/>
  <g>
    <polygon class="cls-4" points="92.7 70.41 87.29 102.28 91.22 70.21 76.93 99.15 89.91 69.62 67.7 93.59 88.77 68.65 60.68 85.51 87.96 67.43 56.33 75.79 87.56 66.08 54.44 65.33 87.56 64.58 56.33 54.87 87.96 63.22 60.68 45.15 88.77 62.01 67.7 37.07 89.91 61.04 76.93 31.51 91.22 60.44 87.29 28.38 92.7 60.25 98.1 28.38 94.17 60.44 108.47 31.51 95.49 61.04 117.69 37.07 96.62 62.01 124.72 45.15 97.43 63.22 129.07 54.87 97.83 64.58 130.96 65.33 97.83 66.08 129.07 75.79 97.43 67.43 124.72 85.51 96.62 68.65 117.7 93.59 95.49 69.62 108.47 99.15 94.17 70.21 98.1 102.28 92.7 70.41"/>
    <path class="cls-4" d="M97.03,35.71l-2.91,23.72-.24,1.98.89-1.8,10.49-21.24-9.53,21.67-.81,1.84,1.37-1.48,16.49-17.8-15.65,18.52-1.31,1.55,1.75-1.05,20.76-12.46-20.17,13.36-1.69,1.12,1.97-.52,23.17-6.12-22.87,7.11-1.95.61,2.04.05,24.72.56-24.72.56-2.04.05,1.95.61,22.87,7.11-23.17-6.12-1.97-.52,1.69,1.12,20.17,13.36-20.76-12.46-1.75-1.05,1.31,1.55,15.65,18.52-16.49-17.8-1.37-1.48.81,1.84,9.53,21.67-10.49-21.24-.89-1.8.24,1.98,2.91,23.72-4-23.58-.34-1.98-.34,1.98-4,23.57,2.91-23.72.24-1.98-.89,1.8-10.49,21.24,9.53-21.67.81-1.84-1.37,1.48-16.49,17.8,15.65-18.52,1.31-1.55-1.75,1.05-20.76,12.46,20.17-13.36,1.69-1.12-1.97.52-23.17,6.12,22.87-7.11,1.95-.61-2.04-.05-24.72-.56,24.72-.56,2.04-.05-1.95-.61-22.87-7.11,23.17,6.12,1.97.52-1.69-1.12-20.17-13.36,20.76,12.46,1.75,1.05-1.31-1.55-15.65-18.52,16.49,17.8,1.37,1.48-.81-1.84-9.53-21.67,10.49,21.24.89,1.8-.24-1.98-2.91-23.72,4,23.58.34,1.98.34-1.98,4-23.58M99.17,21.05l-6.47,38.18-6.47-38.18,4.71,38.43-17.21-34.83,15.62,35.55-26.55-28.66,25.19,29.81-33.68-20.21,32.72,21.67-38.13-10.07,37.65,11.7-39.49.89,39.49.89-37.65,11.7,38.13-10.07-32.72,21.67,33.68-20.21-25.19,29.81,26.55-28.66-15.62,35.55,17.21-34.83-4.71,38.43,6.47-38.18,6.47,38.18-4.71-38.43,17.21,34.83-15.62-35.55,26.55,28.66-25.19-29.81,33.68,20.21-32.72-21.67,38.13,10.07-37.65-11.7,39.49-.89-39.49-.89,37.65-11.7-38.13,10.07,32.72-21.67-33.68,20.21,25.19-29.81-26.55,28.66,15.62-35.55-17.21,34.83,4.71-38.43h0Z"/>
  </g>
  <g>
    <path class="cls-1" d="M92.75,108.32c.71,0,1.36-9.41,1.36-17.2,0-7.79-.65-17.19-1.36-17.19-.7,0-1.45,9.11-1.46,17.11,0,8.11.75,17.29,1.46,17.29Z"/>
    <path class="cls-1" d="M80.51,106.59c.69.2,3.98-8.65,6.2-16.13,2.22-7.48,4.27-16.67,3.59-16.88-.67-.2-3.99,8.34-6.27,16.01-2.31,7.78-4.2,16.8-3.52,17Z"/>
    <path class="cls-1" d="M69.26,101.52c.6.38,6.28-7.19,10.54-13.74,4.26-6.56,8.85-14.81,8.25-15.19-.59-.38-6.2,6.89-10.57,13.61-4.43,6.82-8.81,14.95-8.22,15.33Z"/>
    <path class="cls-1" d="M59.91,93.52c.47.53,8.08-5.15,14.02-10.25,5.95-5.1,12.7-11.74,12.24-12.28-.46-.53-7.91,4.88-14.01,10.11-6.19,5.3-12.71,11.89-12.24,12.41Z"/>
    <path class="cls-1" d="M53.21,83.23c.3.64,9.22-2.69,16.37-5.92,7.16-3.24,15.53-7.72,15.23-8.37-.29-.63-8.98,2.48-16.32,5.79-7.45,3.36-15.58,7.86-15.28,8.5Z"/>
    <path class="cls-1" d="M49.72,71.5c.1.7,9.61,0,17.39-1.12,7.79-1.11,17.1-3.08,17-3.78-.1-.69-9.32-.13-17.31,1-8.11,1.15-17.18,3.2-17.08,3.89Z"/>
    <path class="cls-1" d="M49.7,59.26c-.1.7,9.22,2.67,17.01,3.78,7.79,1.11,17.28,1.81,17.38,1.12.1-.69-8.9-2.72-16.9-3.86-8.11-1.16-17.4-1.72-17.49-1.03Z"/>
    <path class="cls-1" d="M53.17,47.51c-.29.64,8.09,5.13,15.24,8.37,7.16,3.24,16.06,6.56,16.36,5.92.29-.63-7.77-5.09-15.11-8.42-7.45-3.37-16.2-6.51-16.49-5.87Z"/>
    <path class="cls-1" d="M59.84,37.21c-.47.54,6.3,7.18,12.24,12.28,5.95,5.1,13.55,10.77,14.02,10.24.46-.52-6-7.05-12.1-12.29-6.19-5.31-13.69-10.76-14.15-10.23Z"/>
    <path class="cls-1" d="M69.17,29.19c-.6.38,4,8.65,8.25,15.2,4.26,6.56,9.93,14.12,10.53,13.74.59-.37-3.75-8.44-8.11-15.17-4.42-6.82-10.08-14.14-10.67-13.76Z"/>
    <path class="cls-1" d="M80.41,24.09c-.68.2,1.38,9.41,3.59,16.88,2.22,7.48,5.51,16.31,6.2,16.12.68-.19-1.2-9.15-3.47-16.82-2.3-7.78-5.64-16.38-6.32-16.18Z"/>
    <path class="cls-1" d="M92.65,22.34c-.71,0-1.36,9.41-1.36,17.2,0,7.79.65,17.19,1.36,17.19.7,0,1.45-9.11,1.46-17.11,0-8.11-.75-17.29-1.46-17.29Z"/>
    <path class="cls-1" d="M104.88,24.06c-.69-.2-3.98,8.65-6.2,16.13-2.22,7.48-4.27,16.67-3.59,16.88.67.2,3.99-8.34,6.27-16.01,2.31-7.78,4.2-16.8,3.52-17Z"/>
    <path class="cls-1" d="M116.14,29.13c-.6-.38-6.28,7.19-10.54,13.74-4.26,6.56-8.85,14.81-8.25,15.19.59.38,6.2-6.89,10.57-13.61,4.43-6.82,8.81-14.95,8.22-15.33Z"/>
    <path class="cls-1" d="M125.49,37.14c-.47-.53-8.08,5.15-14.02,10.25-5.95,5.1-12.7,11.74-12.24,12.28.46.53,7.91-4.88,14.01-10.11,6.19-5.3,12.71-11.89,12.24-12.41Z"/>
    <path class="cls-1" d="M132.18,47.42c-.3-.64-9.22,2.69-16.37,5.92-7.16,3.24-15.53,7.72-15.23,8.37.29.63,8.98-2.48,16.32-5.79,7.45-3.36,15.58-7.86,15.28-8.5Z"/>
    <path class="cls-1" d="M135.68,59.16c-.1-.7-9.61,0-17.39,1.12-7.79,1.11-17.1,3.08-17,3.78.1.69,9.32.13,17.31-1,8.11-1.15,17.18-3.2,17.08-3.89Z"/>
    <path class="cls-1" d="M135.69,71.4c.1-.7-9.22-2.67-17.01-3.78-7.79-1.11-17.28-1.81-17.38-1.12-.1.69,8.9,2.72,16.9,3.86,8.11,1.16,17.4,1.72,17.49,1.03Z"/>
    <path class="cls-1" d="M132.22,83.14c.29-.64-8.09-5.13-15.24-8.37-7.16-3.24-16.06-6.56-16.36-5.92-.29.63,7.77,5.09,15.11,8.42,7.45,3.37,16.2,6.51,16.49,5.87Z"/>
    <path class="cls-1" d="M125.55,93.45c.47-.54-6.3-7.18-12.24-12.28-5.95-5.1-13.55-10.77-14.02-10.24-.46.52,6,7.05,12.1,12.29,6.19,5.31,13.69,10.76,14.15,10.23Z"/>
    <path class="cls-1" d="M116.22,101.47c.6-.38-4-8.65-8.25-15.2-4.26-6.56-9.93-14.12-10.53-13.74-.59.37,3.75,8.44,8.11,15.17,4.42,6.82,10.08,14.14,10.67,13.76Z"/>
    <path class="cls-1" d="M104.98,106.57c.68-.2-1.38-9.41-3.59-16.88-2.22-7.48-5.51-16.31-6.2-16.12-.68.19,1.2,9.15,3.47,16.82,2.3,7.78,5.64,16.38,6.32,16.18Z"/>
  </g>
  <g>
    <g id="_x3C_径向重复_x3E_">
      <path class="cls-2" d="M92.7,108.5c.22,0,.27,1.17.75,4.56.04.31.88,6.2-.11,8.26-.09.19-.33.7-.66.69-.31,0-.54-.47-.63-.64-1.01-2.06-.12-8.29-.12-8.29.49-3.41.54-4.59.77-4.59Z"/>
    </g>
    <g id="_x3C_径向重复_x3E_-2" data-name="_x3C_径向重复_x3E_">
      <path class="cls-2" d="M80.41,106.75c.22.06-.07,1.2-.58,4.59-.05.31-.92,6.19-2.46,7.9-.14.15-.52.57-.83.48-.3-.09-.39-.61-.42-.79-.38-2.26,2.25-7.99,2.25-7.99,1.44-3.14,1.82-4.25,2.04-4.19Z"/>
    </g>
    <g id="_x3C_径向重复_x3E_-3" data-name="_x3C_径向重复_x3E_">
      <path class="cls-2" d="M69.12,101.65c.19.12-.41,1.13-1.86,4.24-.13.28-2.65,5.68-4.61,6.89-.18.11-.66.41-.93.23-.26-.17-.2-.69-.18-.88.27-2.27,4.43-7.04,4.43-7.04,2.27-2.61,2.96-3.57,3.15-3.45Z"/>
    </g>
    <g id="_x3C_径向重复_x3E_-4" data-name="_x3C_径向重复_x3E_">
      <path class="cls-2" d="M59.74,93.61c.15.17-.72.97-2.99,3.55-.21.23-4.16,4.71-6.38,5.33-.2.05-.75.21-.96-.04-.2-.23,0-.72.08-.89.91-2.1,6.25-5.52,6.25-5.52,2.93-1.87,3.86-2.6,4-2.43Z"/>
    </g>
    <g id="_x3C_径向重复_x3E_-5" data-name="_x3C_径向重复_x3E_">
      <path class="cls-2" d="M53.03,83.27c.09.2-.97.73-3.88,2.57-.26.17-5.33,3.36-7.64,3.33-.21,0-.78-.01-.91-.3-.13-.28.21-.69.33-.83,1.47-1.76,7.57-3.55,7.57-3.55,3.34-.98,4.44-1.42,4.53-1.22Z"/>
    </g>
    <g id="_x3C_径向重复_x3E_-6" data-name="_x3C_径向重复_x3E_">
      <path class="cls-2" d="M49.53,71.48c.03.22-1.14.43-4.46,1.38-.3.09-6.07,1.74-8.28,1.06-.2-.06-.74-.23-.79-.55-.04-.31.4-.6.55-.71,1.91-1.28,8.27-1.3,8.27-1.3,3.48,0,4.66-.12,4.7.1Z"/>
    </g>
    <g id="_x3C_径向重复_x3E_-7" data-name="_x3C_径向重复_x3E_">
      <path class="cls-2" d="M49.53,59.19c-.03.22-1.21.1-4.67.09-.31,0-6.32-.02-8.25-1.29-.17-.11-.65-.43-.6-.74.05-.31.55-.47.73-.52,2.2-.7,8.3,1.06,8.3,1.06,3.34.96,4.51,1.18,4.48,1.4Z"/>
    </g>
    <g id="_x3C_径向重复_x3E_-8" data-name="_x3C_径向重复_x3E_">
      <path class="cls-2" d="M53.02,47.4c-.09.2-1.19-.24-4.5-1.22-.3-.09-6.06-1.79-7.55-3.53-.13-.16-.5-.59-.36-.88.13-.28.66-.29.85-.3,2.31-.05,7.66,3.34,7.66,3.34,2.93,1.86,3.99,2.39,3.9,2.6Z"/>
    </g>
    <g id="_x3C_径向重复_x3E_-9" data-name="_x3C_径向重复_x3E_">
      <path class="cls-2" d="M59.73,37.06c-.15.17-1.08-.57-3.98-2.43-.26-.17-5.31-3.4-6.23-5.5-.08-.19-.31-.7-.1-.95.21-.23.72-.1.9-.05,2.23.59,6.4,5.34,6.4,5.34,2.29,2.6,3.15,3.41,3,3.58Z"/>
    </g>
    <g id="_x3C_径向重复_x3E_-10" data-name="_x3C_径向重复_x3E_">
      <path class="cls-2" d="M69.11,29.01c-.19.12-.87-.84-3.12-3.44-.2-.24-4.12-4.75-4.42-7.01-.03-.2-.1-.76.17-.94.26-.17.72.11.88.21,1.97,1.19,4.63,6.91,4.63,6.91,1.45,3.13,2.05,4.15,1.86,4.27Z"/>
    </g>
    <g id="_x3C_径向重复_x3E_-11" data-name="_x3C_径向重复_x3E_">
      <path class="cls-2" d="M80.4,23.91c-.22.06-.6-1.05-2.02-4.17-.13-.28-2.6-5.7-2.24-7.96.03-.2.12-.76.43-.85.3-.09.66.3.79.44,1.55,1.69,2.47,7.92,2.47,7.92.5,3.41.79,4.55.57,4.62Z"/>
    </g>
    <g id="_x3C_径向重复_x3E_-12" data-name="_x3C_径向重复_x3E_">
      <path class="cls-2" d="M92.69,22.16c-.22,0-.27-1.17-.75-4.56-.04-.31-.88-6.2.11-8.26.09-.19.33-.7.66-.69.31,0,.54.47.63.64,1.01,2.06.12,8.29.12,8.29-.49,3.41-.54,4.59-.77,4.59Z"/>
    </g>
    <g id="_x3C_径向重复_x3E_-13" data-name="_x3C_径向重复_x3E_">
      <path class="cls-2" d="M104.98,23.9c-.22-.06.07-1.2.58-4.59.05-.31.92-6.19,2.46-7.9.14-.15.52-.57.83-.48.3.09.39.61.42.79.38,2.26-2.25,7.99-2.25,7.99-1.44,3.14-1.82,4.25-2.04,4.19Z"/>
    </g>
    <g id="_x3C_径向重复_x3E_-14" data-name="_x3C_径向重复_x3E_">
      <path class="cls-2" d="M116.27,29.01c-.19-.12.41-1.13,1.86-4.24.13-.28,2.65-5.68,4.61-6.89.18-.11.66-.41.93-.23.26.17.2.69.18.88-.27,2.27-4.43,7.04-4.43,7.04-2.27,2.61-2.96,3.57-3.15,3.45Z"/>
    </g>
    <g id="_x3C_径向重复_x3E_-15" data-name="_x3C_径向重复_x3E_">
      <path class="cls-2" d="M125.65,37.05c-.15-.17.72-.97,2.99-3.55.21-.23,4.16-4.71,6.38-5.33.2-.05.75-.21.96.04.2.23,0,.72-.08.89-.91,2.1-6.25,5.52-6.25,5.52-2.93,1.87-3.86,2.6-4,2.43Z"/>
    </g>
    <g id="_x3C_径向重复_x3E_-16" data-name="_x3C_径向重复_x3E_">
      <path class="cls-2" d="M132.37,47.39c-.09-.2.97-.73,3.88-2.57.26-.17,5.33-3.36,7.64-3.33.21,0,.78.01.91.3.13.28-.21.69-.33.83-1.47,1.76-7.57,3.55-7.57,3.55-3.34.98-4.44,1.42-4.53,1.22Z"/>
    </g>
    <g id="_x3C_径向重复_x3E_-17" data-name="_x3C_径向重复_x3E_">
      <path class="cls-2" d="M135.86,59.18c-.03-.22,1.14-.43,4.46-1.38.3-.09,6.07-1.74,8.28-1.06.2.06.74.23.79.55.04.31-.4.6-.55.71-1.91,1.28-8.27,1.3-8.27,1.3-3.48,0-4.66.12-4.7-.1Z"/>
    </g>
    <g id="_x3C_径向重复_x3E_-18" data-name="_x3C_径向重复_x3E_">
      <path class="cls-2" d="M135.87,71.47c.03-.22,1.21-.1,4.67-.09.31,0,6.32.02,8.25,1.29.17.11.65.43.6.74-.05.31-.55.47-.73.52-2.2.7-8.3-1.06-8.3-1.06-3.34-.96-4.51-1.18-4.48-1.4Z"/>
    </g>
    <g id="_x3C_径向重复_x3E_-19" data-name="_x3C_径向重复_x3E_">
      <path class="cls-2" d="M132.37,83.26c.09-.2,1.19.24,4.5,1.22.3.09,6.06,1.79,7.55,3.53.13.16.5.59.36.88-.13.28-.66.29-.85.3-2.31.05-7.66-3.34-7.66-3.34-2.93-1.86-3.99-2.39-3.9-2.6Z"/>
    </g>
    <g id="_x3C_径向重复_x3E_-20" data-name="_x3C_径向重复_x3E_">
      <path class="cls-2" d="M125.66,93.6c.15-.17,1.08.57,3.98,2.43.26.17,5.31,3.4,6.23,5.5.08.19.31.7.1.95-.21.23-.72.1-.9.05-2.23-.59-6.4-5.34-6.4-5.34-2.29-2.6-3.15-3.41-3-3.58Z"/>
    </g>
    <g id="_x3C_径向重复_x3E_-21" data-name="_x3C_径向重复_x3E_">
      <path class="cls-2" d="M116.28,101.65c.19-.12.87.84,3.12,3.44.2.24,4.12,4.75,4.42,7.01.03.2.1.76-.17.94-.26.17-.72-.11-.88-.21-1.97-1.19-4.63-6.91-4.63-6.91-1.45-3.13-2.05-4.15-1.86-4.27Z"/>
    </g>
    <g id="_x3C_径向重复_x3E_-22" data-name="_x3C_径向重复_x3E_">
      <path class="cls-2" d="M104.99,106.75c.22-.06.6,1.05,2.02,4.17.13.28,2.6,5.7,2.24,7.96-.03.2-.12.76-.43.85-.3.09-.66-.3-.79-.44-1.55-1.69-2.47-7.92-2.47-7.92-.5-3.41-.79-4.55-.57-4.62Z"/>
    </g>
  </g>
</svg>