<?xml version="1.0" encoding="UTF-8"?>
<svg id="_图层_1" data-name="图层_1" xmlns="http://www.w3.org/2000/svg" viewBox="0 0 141.73 141.73">
  <defs>
    <style>
      .cls-1 {
        fill: #8c71af;
      }

      .cls-2 {
        fill: #b097c6;
      }

      .cls-3 {
        fill: #cdb9d9;
      }

      .cls-4 {
        fill: #5f3790;
      }
    </style>
  </defs>
  <path class="cls-3" d="M108.14,37.01c.93,1.02-7.23,9.56-6.41,10.65.83,1.1,11.29-4.39,12-3.23.73,1.17-8.86,8.07-8.26,9.29.61,1.23,11.9-2.23,12.39-.96.49,1.28-10.2,6.29-9.83,7.6.37,1.32,12.11,0,12.36,1.35.25,1.35-11.19,4.3-11.07,5.66.12,1.37,11.9,2.22,11.9,3.59,0,1.37-11.79,2.18-11.91,3.54-.13,1.36,11.3,4.36,11.04,5.7-.25,1.34-11.98-.02-12.36,1.3-.38,1.31,10.31,6.35,9.81,7.63-.49,1.27-11.77-2.23-12.39-1-.61,1.22,8.96,8.14,8.23,9.31-.72,1.16-11.16-4.37-11.99-3.27s7.3,9.66,6.37,10.67c-.92,1-10.16-6.35-11.19-5.42-1.02.93,5.4,10.84,4.32,11.66-1.1.83-8.86-8.08-10.02-7.36-1.17.73,3.33,11.64,2.11,12.25-1.23.61-7.21-9.58-8.48-9.09-1.28.49,1.12,12.06-.2,12.43-1.32.37-5.31-10.74-6.66-10.5-1.35.25-1.12,12.06-2.48,12.18-1.37.12-3.25-11.54-4.62-11.54-1.37,0-3.3,11.65-4.67,11.52s-1.09-11.94-2.43-12.19c-1.34-.25-5.38,10.85-6.7,10.47-1.31-.38,1.12-11.93-.16-12.43-1.27-.49-7.28,9.68-8.51,9.06-1.22-.61,3.31-11.52,2.14-12.24-1.16-.72-8.94,8.16-10.04,7.33-1.08-.82,5.39-10.7,4.37-11.64-1-.92-10.28,6.39-11.21,5.36-.93-1.02,7.23-9.56,6.41-10.65-.83-1.1-11.29,4.39-12,3.23-.73-1.17,8.86-8.07,8.26-9.29-.61-1.23-11.9,2.23-12.39.96-.49-1.28,10.2-6.29,9.83-7.6-.37-1.32-12.11,0-12.36-1.35-.25-1.35,11.19-4.3,11.07-5.66-.12-1.37-11.9-2.22-11.9-3.59,0-1.37,11.79-2.18,11.91-3.54.13-1.36-11.3-4.36-11.04-5.7.25-1.34,11.98.02,12.36-1.3.38-1.31-10.31-6.35-9.81-7.63.49-1.27,11.77,2.23,12.39,1,.61-1.22-8.96-8.14-8.23-9.31s11.16,4.37,11.99,3.27c.82-1.08-7.3-9.66-6.37-10.67.92-1,10.16,6.35,11.19,5.42s-5.4-10.84-4.32-11.66c1.1-.83,8.86,8.08,10.02,7.36s-3.33-11.64-2.11-12.25c1.23-.61,7.21,9.58,8.48,9.09,1.28-.49-1.12-12.06.2-12.43,1.32-.37,5.31,10.74,6.66,10.5,1.35-.25,1.12-12.06,2.48-12.18,1.37-.12,3.25,11.54,4.62,11.54,1.37,0,3.3-11.65,4.67-11.52,1.36.13,1.09,11.94,2.43,12.19,1.34.25,5.38-10.85,6.7-10.47,1.31.38-1.12,11.93.16,12.43,1.27.49,7.28-9.68,8.51-9.06,1.22.61-3.31,11.52-2.14,12.24,1.16.72,8.94-8.16,10.04-7.33,1.08.82-5.39,10.7-4.37,11.64,1,.92,10.28-6.39,11.21-5.36Z"/>
  <path class="cls-2" d="M127.55,76.13c-.12,1.33-27.59-1.15-27.83.14-.24,1.31,26.27,8.87,25.91,10.13-.36,1.28-26.91-6.17-27.39-4.95s24.18,13.54,23.59,14.72c-.59,1.19-25.3-11.03-26-9.91-.7,1.13,21.26,17.75,20.46,18.81-.8,1.06-22.83-15.48-23.73-14.5s17.63,21.33,16.65,22.22c-.98.89-19.6-19.38-20.67-18.58-1.06.8,13.43,24.18,12.29,24.87-1.13.7-15.72-22.62-16.91-22.03s8.75,26.21,7.51,26.69-11.26-25.11-12.55-24.75c-1.27.36,3.74,27.37,2.43,27.61-1.3.24-6.4-26.75-7.73-26.63-1.31.12-1.4,27.58-2.74,27.58s-1.36-27.46-2.7-27.59c-1.34-.12-6.44,26.86-7.73,26.62s3.66-27.25,2.39-27.61c-1.29-.36-11.28,25.22-12.51,24.75-1.25-.48,8.66-26.1,7.47-26.69-1.19-.59-15.77,22.71-16.89,22.01-1.13-.7,13.35-24.06,12.3-24.85-1.06-.8-19.69,19.43-20.67,18.54-.98-.89,17.56-21.2,16.67-22.18-.9-.98-22.93,15.51-23.73,14.45-.8-1.06,21.16-17.65,20.46-18.77-.7-1.12-25.4,11.07-25.99,9.89-.59-1.18,24.05-13.48,23.57-14.71-.48-1.23-27.01,6.23-27.38,4.95s26.14-8.82,25.9-10.12c-.24-1.29-27.71,1.15-27.83-.18-.12-1.31,27.33-3.85,27.34-5.18,0-1.31-27.45-3.93-27.33-5.26.12-1.33,27.59,1.15,27.83-.14.24-1.31-26.27-8.87-25.91-10.13.36-1.28,26.91,6.17,27.39,4.95.48-1.24-24.18-13.54-23.59-14.72.59-1.19,25.3,11.03,26,9.91s-21.26-17.75-20.46-18.81c.8-1.06,22.83,15.48,23.73,14.5.9-.98-17.63-21.33-16.65-22.22s19.6,19.38,20.67,18.58-13.43-24.18-12.29-24.87c1.13-.7,15.72,22.62,16.91,22.03,1.19-.59-8.75-26.21-7.51-26.69,1.23-.48,11.26,25.11,12.55,24.75,1.27-.36-3.74-27.37-2.43-27.61,1.3-.24,6.4,26.75,7.73,26.63,1.31-.12,1.4-27.58,2.74-27.58,1.32,0,1.36,27.46,2.7,27.59s6.44-26.86,7.73-26.62c1.32.24-3.66,27.25-2.39,27.61,1.29.36,11.28-25.22,12.51-24.75,1.25.48-8.66,26.1-7.47,26.69,1.19.59,15.77-22.71,16.89-22.01,1.13.7-13.35,24.06-12.3,24.85s19.69-19.43,20.67-18.54c.98.89-17.56,21.2-16.67,22.18.9.98,22.93-15.51,23.73-14.45s-21.16,17.65-20.46,18.77,25.4-11.07,25.99-9.89-24.05,13.48-23.57,14.71c.48,1.23,27.01-6.23,27.38-4.95.36,1.27-26.14,8.82-25.9,10.12.24,1.29,27.71-1.15,27.83.18.12,1.31-27.33,3.85-27.34,5.18,0,1.31,27.45,3.93,27.33,5.26Z"/>
  <path class="cls-1" d="M93.79,45.79c.69.63-4.26,6.88-3.64,7.55s7.31-3.65,7.86-2.92-5.45,5.98-4.97,6.76,7.86-2.24,8.27-1.42c.41.83-6.46,4.86-6.13,5.72s8.14-.75,8.39.13c.25.89-7.25,3.59-7.08,4.49.17.91,8.14.75,8.22,1.67s-7.78,2.2-7.78,3.12c0,.92,7.86,2.22,7.78,3.14-.09.92-8.05.74-8.22,1.65s7.32,3.62,7.07,4.52-8.05-.76-8.39.1c-.33.86,6.53,4.91,6.11,5.74-.41.82-7.77-2.24-8.26-1.45-.48.78,5.51,6.03,4.95,6.77-.55.73-7.23-3.63-7.86-2.94s4.31,6.95,3.63,7.56-6.46-4.87-7.19-4.32,2.96,7.62,2.18,8.1-5.44-5.98-6.27-5.57c-.83.41,1.5,8.03.64,8.36-.87.33-4.24-6.89-5.13-6.64s0,8.17-.91,8.34c-.91.17-2.9-7.55-3.82-7.46s-1.49,8.03-2.42,8.03-1.47-7.95-2.4-8.04-2.93,7.63-3.84,7.45c-.91-.17.01-8.09-.88-8.34s-4.29,6.96-5.15,6.62c-.86-.33,1.51-7.94.67-8.36-.82-.41-5.5,6.04-6.29,5.55s2.95-7.53,2.21-8.09-6.51,4.93-7.2,4.3c-.69-.63,4.26-6.88,3.64-7.55-.63-.69-7.31,3.65-7.86,2.92-.56-.74,5.45-5.98,4.97-6.76s-7.86,2.24-8.27,1.42c-.41-.83,6.46-4.86,6.13-5.72-.33-.87-8.14.75-8.39-.13-.25-.89,7.25-3.59,7.08-4.49s-8.14-.75-8.22-1.67c-.08-.92,7.78-2.2,7.78-3.12,0-.92-7.86-2.22-7.78-3.14.09-.92,8.05-.74,8.22-1.65s-7.32-3.62-7.07-4.52,8.05.76,8.39-.1c.33-.86-6.53-4.91-6.11-5.74s7.77,2.24,8.26,1.45c.48-.78-5.51-6.03-4.95-6.77s7.23,3.63,7.86,2.94-4.31-6.95-3.63-7.56c.69-.63,6.46,4.87,7.19,4.32s-2.96-7.62-2.18-8.1,5.44,5.98,6.27,5.57-1.5-8.03-.64-8.36,4.24,6.89,5.13,6.64c.89-.25,0-8.17.91-8.34s2.9,7.55,3.82,7.46c.92-.08,1.49-8.03,2.42-8.03.92,0,1.47,7.95,2.4,8.04.92.09,2.93-7.63,3.84-7.45s-.01,8.09.88,8.34c.89.25,4.29-6.96,5.15-6.62s-1.51,7.94-.67,8.36c.82.41,5.5-6.04,6.29-5.55.78.48-2.95,7.53-2.21,8.09s6.51-4.93,7.2-4.3Z"/>
  <path class="cls-4" d="M103.33,70.87c0,.77-15.72.81-15.79,1.55s15.38,3.66,15.25,4.4-15.6-2.1-15.81-1.37c-.21.73,14.44,6.44,14.17,7.14s-14.95-4.95-15.28-4.27,13,9,12.61,9.64-13.78-7.62-14.24-7.01,11.14,11.23,10.62,11.79c-.51.56-12.15-10.01-12.71-9.5s8.9,13.07,8.29,13.53c-.6.46-10.11-12.06-10.76-11.66s6.35,14.48,5.67,14.82c-.68.34-7.72-13.72-8.43-13.44s3.57,15.41,2.83,15.61-5.05-14.91-5.8-14.77.66,15.8-.1,15.87-2.22-15.59-2.99-15.59c-.77,0-2.24,15.65-2.99,15.59-.76-.07.64-15.73-.1-15.87-.75-.14-5.07,14.98-5.8,14.77s3.54-15.34,2.83-15.61c-.71-.27-7.75,13.78-8.43,13.44-.68-.34,6.31-14.42,5.67-14.82s-10.16,12.12-10.76,11.66,8.85-13.02,8.29-13.53-12.2,10.06-12.71,9.5c-.51-.56,11.08-11.18,10.63-11.79s-13.84,7.66-14.24,7.01c-.4-.64,12.95-8.96,12.61-9.64-.34-.68-15.01,4.98-15.28,4.27s14.38-6.41,14.17-7.14-15.67,2.12-15.81,1.37,15.32-3.64,15.25-4.4c-.07-.75-15.79-.79-15.79-1.55s15.72-.81,15.79-1.55-15.38-3.66-15.25-4.4,15.6,2.1,15.81,1.37-14.44-6.44-14.17-7.14,14.95,4.95,15.28,4.27c.34-.68-13-9-12.61-9.64.4-.65,13.78,7.62,14.24,7.01s-11.14-11.23-10.62-11.79,12.15,10.01,12.71,9.5-8.9-13.07-8.29-13.53,10.11,12.06,10.76,11.66-6.35-14.48-5.67-14.82c.68-.34,7.72,13.72,8.43,13.44s-3.57-15.41-2.83-15.61,5.05,14.91,5.8,14.77-.66-15.8.1-15.87,2.22,15.59,2.99,15.59,2.24-15.65,2.99-15.59-.64,15.73.1,15.87c.75.14,5.07-14.98,5.8-14.77s-3.54,15.34-2.83,15.61,7.75-13.78,8.43-13.44-6.31,14.42-5.67,14.82,10.16-12.12,10.76-11.66-8.85,13.02-8.29,13.53,12.2-10.06,12.71-9.5-11.08,11.18-10.63,11.79,13.84-7.66,14.24-7.01-12.95,8.96-12.61,9.64,15.01-4.98,15.28-4.27c.27.7-14.38,6.41-14.17,7.14.21.72,15.67-2.12,15.81-1.37s-15.32,3.64-15.25,4.4c.07.75,15.79.79,15.79,1.55Z"/>
</svg>