<?xml version="1.0" encoding="UTF-8"?>
<svg id="_图层_1" data-name="图层_1" xmlns="http://www.w3.org/2000/svg" viewBox="0 0 185.39 130.66">
  <defs>
    <style>
      .cls-1 {
        fill: #a1d8ea;
      }

      .cls-2 {
        fill: #3c6fb7;
      }

      .cls-3 {
        fill: #4f82c3;
      }

      .cls-4 {
        fill: #46bed6;
      }
    </style>
  </defs>
  <g>
    <path class="cls-3" d="M66.14,65.32c0,.71-10.86,1.29-24.52,1.33-.73,0-1.33-.59-1.33-1.32h0c0-.73.6-1.32,1.33-1.32,13.66.03,24.52.6,24.52,1.31Z"/>
    <path class="cls-3" d="M67.21,57.88c-.2.68-10.79-1.8-23.9-5.59-.7-.2-1.11-.94-.9-1.64h0c.21-.7.95-1.1,1.65-.9,13.1,3.85,23.36,7.44,23.15,8.12Z"/>
    <path class="cls-3" d="M70.36,51.05c-.38.59-9.84-4.75-21.35-12.06-.62-.39-.8-1.21-.4-1.82h0c.4-.61,1.22-.79,1.83-.4,11.47,7.36,20.3,13.68,19.91,14.28Z"/>
    <path class="cls-3" d="M75.31,45.38c-.54.46-8.09-7.31-17.07-17.54-.48-.55-.42-1.38.13-1.86h0c.56-.48,1.4-.42,1.87.13,8.92,10.28,15.6,18.81,15.06,19.27Z"/>
    <path class="cls-3" d="M81.67,41.32c-.65.29-5.69-9.28-11.4-21.61-.31-.66-.01-1.44.66-1.75h0c.67-.3,1.46-.01,1.76.65,5.65,12.36,9.63,22.41,8.99,22.71Z"/>
    <path class="cls-3" d="M88.92,39.2c-.7.1-2.83-10.5-4.81-23.93-.11-.72.4-1.39,1.13-1.49h0c.73-.1,1.4.4,1.5,1.12,1.91,13.44,2.89,24.2,2.18,24.3Z"/>
    <path class="cls-3" d="M96.49,39.21c-.7-.1.26-10.87,2.17-24.31.1-.72.78-1.22,1.5-1.12h0c.73.1,1.23.77,1.13,1.49-1.97,13.43-4.09,24.03-4.8,23.93Z"/>
    <path class="cls-3" d="M103.74,41.33c-.65-.29,3.33-10.35,8.97-22.71.3-.66,1.09-.95,1.76-.65h0c.67.3.96,1.09.66,1.75-5.7,12.33-10.74,21.91-11.39,21.62Z"/>
    <path class="cls-3" d="M110.1,45.39c-.54-.46,6.13-9,15.05-19.28.48-.55,1.32-.61,1.87-.13h0c.56.48.62,1.31.13,1.86-8.97,10.24-16.52,18.02-17.05,17.55Z"/>
    <path class="cls-3" d="M115.05,51.07c-.38-.59,8.44-6.92,19.91-14.29.61-.4,1.44-.22,1.83.4h0c.4.61.22,1.43-.4,1.82-11.51,7.31-20.96,12.66-21.34,12.07Z"/>
    <path class="cls-3" d="M118.18,57.9c-.2-.68,10.06-4.28,23.15-8.14.7-.21,1.44.19,1.65.89h0c.21.7-.2,1.43-.9,1.64-13.11,3.79-23.7,6.28-23.9,5.61Z"/>
    <path class="cls-3" d="M119.26,65.34c0-.71,10.86-1.29,24.52-1.33.73,0,1.33.59,1.33,1.32h0c0,.73-.6,1.32-1.33,1.32-13.66-.03-24.52-.6-24.52-1.31Z"/>
    <path class="cls-3" d="M118.18,72.77c.2-.68,10.79,1.8,23.9,5.59.7.2,1.11.94.9,1.64h0c-.21.7-.95,1.1-1.65.9-13.1-3.85-23.36-7.44-23.15-8.12Z"/>
    <path class="cls-3" d="M115.04,79.61c.38-.59,9.84,4.75,21.35,12.06.62.39.8,1.21.4,1.82h0c-.4.61-1.22.79-1.83.4-11.47-7.36-20.3-13.68-19.91-14.28Z"/>
    <path class="cls-3" d="M110.08,85.28c.54-.46,8.09,7.31,17.07,17.54.48.55.42,1.38-.13,1.86h0c-.56.48-1.4.42-1.87-.13-8.92-10.28-15.6-18.81-15.06-19.27Z"/>
    <path class="cls-3" d="M103.72,89.34c.65-.29,5.69,9.28,11.4,21.61.31.66.01,1.44-.66,1.75h0c-.67.3-1.46.01-1.76-.65-5.65-12.36-9.63-22.41-8.99-22.71Z"/>
    <path class="cls-3" d="M96.47,91.45c.7-.1,2.83,10.5,4.81,23.93.11.72-.4,1.39-1.13,1.49h0c-.73.1-1.4-.4-1.5-1.12-1.91-13.44-2.89-24.2-2.18-24.3Z"/>
    <path class="cls-3" d="M88.91,91.45c.7.1-.26,10.87-2.17,24.31-.1.72-.78,1.22-1.5,1.12h0c-.73-.1-1.23-.77-1.13-1.49,1.97-13.43,4.09-24.03,4.8-23.93Z"/>
    <path class="cls-3" d="M81.65,89.33c.65.29-3.33,10.35-8.97,22.71-.3.66-1.09.95-1.76.65h0c-.67-.3-.96-1.09-.66-1.75,5.7-12.33,10.74-21.91,11.39-21.62Z"/>
    <path class="cls-3" d="M75.3,85.27c.54.46-6.13,9-15.05,19.28-.48.55-1.32.61-1.87.13h0c-.56-.48-.62-1.31-.13-1.86,8.97-10.24,16.52-18.02,17.05-17.55Z"/>
    <path class="cls-3" d="M70.35,79.59c.38.59-8.44,6.92-19.91,14.29-.61.4-1.44.22-1.83-.4h0c-.4-.61-.22-1.43.4-1.82,11.51-7.31,20.96-12.66,21.34-12.07Z"/>
    <path class="cls-3" d="M67.21,72.76c.2.68-10.06,4.28-23.15,8.14-.7.21-1.44-.19-1.65-.89h0c-.21-.7.2-1.43.9-1.64,13.11-3.79,23.7-6.28,23.9-5.61Z"/>
  </g>
  <g>
    <path class="cls-2" d="M92.69,65.81c.52,0,.94,7.84.97,17.7,0,.53-.43.96-.96.96h0c-.53,0-.97-.43-.97-.96.02-9.86.44-17.7.96-17.7Z"/>
    <path class="cls-2" d="M92.55,65.79c.5.14-1.32,7.79-4.09,17.25-.15.51-.68.8-1.2.65h0c-.51-.15-.81-.68-.65-1.19,2.82-9.45,5.44-16.86,5.94-16.71Z"/>
    <path class="cls-2" d="M92.43,65.73c.43.28-3.47,7.1-8.81,15.41-.29.45-.88.57-1.33.29h0c-.45-.29-.58-.88-.29-1.32,5.38-8.28,10-14.65,10.44-14.37Z"/>
    <path class="cls-2" d="M92.33,65.64c.34.39-5.35,5.84-12.82,12.32-.4.35-1.01.3-1.36-.1h0c-.35-.4-.31-1.01.1-1.35,7.51-6.44,13.75-11.26,14.09-10.87Z"/>
    <path class="cls-2" d="M92.25,65.52c.21.47-6.79,4.11-15.8,8.23-.48.22-1.06,0-1.28-.47h0c-.22-.48,0-1.05.48-1.27,9.03-4.08,16.38-6.95,16.6-6.49Z"/>
    <path class="cls-2" d="M92.22,65.39c.07.51-7.68,2.04-17.49,3.47-.53.08-1.02-.29-1.09-.81h0c-.08-.52.29-1.01.82-1.09,9.82-1.38,17.69-2.08,17.77-1.58Z"/>
    <path class="cls-2" d="M92.22,65.25c-.07.51-7.94-.19-17.77-1.56-.53-.07-.89-.56-.82-1.08h0c.08-.52.57-.89,1.09-.81,9.82,1.42,17.57,2.95,17.49,3.46Z"/>
    <path class="cls-2" d="M92.26,65.12c-.21.47-7.57-2.41-16.6-6.47-.48-.22-.7-.79-.48-1.27h0c.22-.48.79-.69,1.28-.47,9.02,4.12,16.02,7.75,15.8,8.22Z"/>
    <path class="cls-2" d="M92.34,65.01c-.34.39-6.58-4.43-14.1-10.86-.4-.34-.45-.95-.1-1.35h0c.35-.4.96-.44,1.36-.1,7.48,6.47,13.17,11.92,12.83,12.31Z"/>
    <path class="cls-2" d="M92.44,64.92c-.43.28-5.06-6.09-10.45-14.37-.29-.44-.16-1.04.29-1.32h0c.45-.29,1.05-.16,1.33.29,5.34,8.3,9.26,15.13,8.82,15.4Z"/>
    <path class="cls-2" d="M92.57,64.87c-.5.14-3.13-7.26-5.95-16.71-.15-.51.14-1.04.65-1.19h0c.51-.15,1.05.14,1.2.65,2.77,9.46,4.59,17.1,4.1,17.25Z"/>
    <path class="cls-2" d="M92.7,64.85c-.52,0-.94-7.84-.97-17.7,0-.53.43-.96.96-.96h0c.53,0,.97.43.97.96-.02,9.86-.44,17.7-.96,17.7Z"/>
    <path class="cls-2" d="M92.84,64.87c-.5-.14,1.32-7.79,4.09-17.25.15-.51.68-.8,1.2-.65h0c.51.15.81.68.65,1.19-2.82,9.45-5.44,16.86-5.94,16.71Z"/>
    <path class="cls-2" d="M92.96,64.93c-.43-.28,3.47-7.1,8.81-15.41.29-.45.88-.57,1.33-.29h0c.45.29.58.88.29,1.32-5.38,8.28-10,14.65-10.44,14.37Z"/>
    <path class="cls-2" d="M93.07,65.02c-.34-.39,5.35-5.84,12.82-12.32.4-.35,1.01-.3,1.36.1h0c.35.4.31,1.01-.1,1.35-7.51,6.44-13.75,11.26-14.09,10.87Z"/>
    <path class="cls-2" d="M93.14,65.14c-.21-.47,6.79-4.11,15.8-8.23.48-.22,1.06,0,1.28.47h0c.22.48,0,1.05-.48,1.27-9.03,4.08-16.38,6.95-16.6,6.49Z"/>
    <path class="cls-2" d="M93.18,65.27c-.07-.51,7.68-2.04,17.49-3.47.53-.08,1.02.29,1.09.81h0c.08.52-.29,1.01-.82,1.09-9.82,1.38-17.69,2.08-17.77,1.58Z"/>
    <path class="cls-2" d="M93.17,65.4c.07-.51,7.94.19,17.77,1.56.53.07.89.56.82,1.08h0c-.08.52-.57.89-1.09.81-9.82-1.42-17.57-2.95-17.49-3.46Z"/>
    <path class="cls-2" d="M93.13,65.53c.21-.47,7.57,2.41,16.6,6.47.48.22.7.79.48,1.27h0c-.22.48-.79.69-1.28.47-9.02-4.12-16.02-7.75-15.8-8.22Z"/>
    <path class="cls-2" d="M93.06,65.65c.34-.39,6.58,4.43,14.1,10.86.4.34.45.95.1,1.35h0c-.35.4-.96.44-1.36.1-7.48-6.47-13.17-11.92-12.83-12.31Z"/>
    <path class="cls-2" d="M92.95,65.74c.43-.28,5.06,6.09,10.45,14.37.29.44.16,1.04-.29,1.32h0c-.45.29-1.05.16-1.33-.29-5.34-8.3-9.26-15.13-8.82-15.4Z"/>
    <path class="cls-2" d="M92.83,65.79c.5-.14,3.13,7.26,5.95,16.71.15.51-.14,1.04-.65,1.19h0c-.51.15-1.05-.14-1.2-.65-2.77-9.46-4.59-17.1-4.1-17.25Z"/>
  </g>
  <g>
    <polygon class="cls-1" points="92.7 75.33 94.23 122.02 91.16 122.02 92.7 75.33"/>
    <polygon class="cls-1" points="89.86 74.93 78.1 120.16 75.15 119.29 89.86 74.93"/>
    <polygon class="cls-1" points="87.25 73.75 63.14 113.85 60.56 112.2 87.25 73.75"/>
    <polygon class="cls-1" points="85.09 71.88 50.58 103.61 48.57 101.3 85.09 71.88"/>
    <polygon class="cls-1" points="83.54 69.49 41.44 90.27 40.16 87.49 83.54 69.49"/>
    <polygon class="cls-1" points="82.73 66.75 36.44 74.91 36 71.89 82.73 66.75"/>
    <polygon class="cls-1" points="82.73 63.91 36 58.77 36.44 55.75 82.73 63.91"/>
    <polygon class="cls-1" points="83.54 61.17 40.16 43.17 41.44 40.39 83.54 61.17"/>
    <polygon class="cls-1" points="85.09 58.78 48.57 29.36 50.58 27.05 85.09 58.78"/>
    <polygon class="cls-1" points="87.25 56.91 60.56 18.46 63.14 16.81 87.25 56.91"/>
    <polygon class="cls-1" points="89.86 55.73 75.15 11.36 78.1 10.5 89.86 55.73"/>
    <polygon class="cls-1" points="92.7 55.32 91.16 8.64 94.23 8.64 92.7 55.32"/>
    <polygon class="cls-1" points="95.53 55.73 107.3 10.5 110.25 11.36 95.53 55.73"/>
    <polygon class="cls-1" points="98.14 56.91 122.25 16.81 124.84 18.46 98.14 56.91"/>
    <polygon class="cls-1" points="100.31 58.78 134.81 27.05 136.82 29.36 100.31 58.78"/>
    <polygon class="cls-1" points="101.86 61.17 143.96 40.39 145.23 43.17 101.86 61.17"/>
    <polygon class="cls-1" points="102.66 63.91 148.95 55.75 149.39 58.77 102.66 63.91"/>
    <polygon class="cls-1" points="102.66 66.75 149.39 71.88 148.95 74.91 102.66 66.75"/>
    <polygon class="cls-1" points="101.86 69.49 145.23 87.49 143.96 90.27 101.86 69.49"/>
    <polygon class="cls-1" points="100.31 71.88 136.82 101.3 134.81 103.61 100.31 71.88"/>
    <polygon class="cls-1" points="98.14 73.75 124.84 112.2 122.25 113.85 98.14 73.75"/>
    <polygon class="cls-1" points="95.53 74.93 110.25 119.3 107.3 120.16 95.53 74.93"/>
  </g>
  <g>
    <g id="_x3C_径向重复_x3E_">
      <path class="cls-4" d="M92.7,99.24l1.12,17.55c.03.52-.38.95-.9.95h-.44c-.52,0-.93-.44-.9-.95l1.12-17.55Z"/>
    </g>
    <g id="_x3C_径向重复_x3E_-2" data-name="_x3C_径向重复_x3E_">
      <path class="cls-4" d="M83.08,97.86l-3.9,17.15c-.11.5-.63.81-1.13.66l-.43-.12c-.5-.15-.77-.68-.59-1.17l6.05-16.52Z"/>
    </g>
    <g id="_x3C_径向重复_x3E_-3" data-name="_x3C_径向重复_x3E_">
      <path class="cls-4" d="M74.25,93.85l-8.61,15.37c-.25.45-.84.6-1.27.32l-.37-.24c-.44-.28-.55-.87-.24-1.28l10.49-14.16Z"/>
    </g>
    <g id="_x3C_径向重复_x3E_-4" data-name="_x3C_径向重复_x3E_">
      <path class="cls-4" d="M66.91,87.53l-12.61,12.33c-.37.36-.97.34-1.31-.05l-.29-.33c-.34-.39-.28-.99.14-1.3l14.08-10.65Z"/>
    </g>
    <g id="_x3C_径向重复_x3E_-5" data-name="_x3C_径向重复_x3E_">
      <path class="cls-4" d="M61.66,79.41l-15.6,8.3c-.46.24-1.03.05-1.25-.42l-.18-.4c-.22-.47.01-1.02.5-1.21l16.53-6.28Z"/>
    </g>
    <g id="_x3C_径向重复_x3E_-6" data-name="_x3C_径向重复_x3E_">
      <path class="cls-4" d="M58.92,70.16l-17.32,3.6c-.51.11-1-.24-1.08-.75l-.06-.44c-.07-.51.3-.98.82-1.02l17.64-1.39Z"/>
    </g>
    <g id="_x3C_径向重复_x3E_-7" data-name="_x3C_径向重复_x3E_">
      <path class="cls-4" d="M58.92,60.5l-17.64-1.39c-.52-.04-.89-.51-.82-1.02l.06-.44c.07-.51.57-.85,1.08-.75l17.32,3.6Z"/>
    </g>
    <g id="_x3C_径向重复_x3E_-8" data-name="_x3C_径向重复_x3E_">
      <path class="cls-4" d="M61.66,51.24l-16.53-6.28c-.49-.18-.71-.74-.5-1.21l.18-.4c.22-.47.79-.66,1.25-.42l15.6,8.3Z"/>
    </g>
    <g id="_x3C_径向重复_x3E_-9" data-name="_x3C_径向重复_x3E_">
      <path class="cls-4" d="M66.91,43.12l-14.08-10.65c-.41-.31-.48-.91-.14-1.3l.29-.33c.34-.39.94-.41,1.31-.05l12.61,12.33Z"/>
    </g>
    <g id="_x3C_径向重复_x3E_-10" data-name="_x3C_径向重复_x3E_">
      <path class="cls-4" d="M74.25,36.8l-10.49-14.16c-.31-.42-.2-1,.24-1.28l.37-.24c.44-.28,1.02-.13,1.27.32l8.61,15.37Z"/>
    </g>
    <g id="_x3C_径向重复_x3E_-11" data-name="_x3C_径向重复_x3E_">
      <path class="cls-4" d="M83.08,32.8l-6.05-16.52c-.18-.49.09-1.02.59-1.17l.43-.12c.5-.15,1.02.16,1.13.66l3.9,17.15Z"/>
    </g>
    <g id="_x3C_径向重复_x3E_-12" data-name="_x3C_径向重复_x3E_">
      <path class="cls-4" d="M92.7,31.42l-1.12-17.55c-.03-.52.38-.95.9-.95h.44c.52,0,.93.44.9.95l-1.12,17.55Z"/>
    </g>
    <g id="_x3C_径向重复_x3E_-13" data-name="_x3C_径向重复_x3E_">
      <path class="cls-4" d="M102.31,32.8l3.9-17.15c.11-.5.63-.81,1.13-.66l.43.12c.5.15.77.68.59,1.17l-6.05,16.52Z"/>
    </g>
    <g id="_x3C_径向重复_x3E_-14" data-name="_x3C_径向重复_x3E_">
      <path class="cls-4" d="M111.15,36.8l8.61-15.37c.25-.45.84-.6,1.27-.32l.37.24c.44.28.55.87.24,1.28l-10.49,14.16Z"/>
    </g>
    <g id="_x3C_径向重复_x3E_-15" data-name="_x3C_径向重复_x3E_">
      <path class="cls-4" d="M118.49,43.12l12.61-12.33c.37-.36.97-.34,1.31.05l.29.33c.34.39.28.99-.14,1.3l-14.08,10.65Z"/>
    </g>
    <g id="_x3C_径向重复_x3E_-16" data-name="_x3C_径向重复_x3E_">
      <path class="cls-4" d="M123.74,51.24l15.6-8.3c.46-.24,1.03-.05,1.25.42l.18.4c.22.47-.01,1.02-.5,1.21l-16.53,6.28Z"/>
    </g>
    <g id="_x3C_径向重复_x3E_-17" data-name="_x3C_径向重复_x3E_">
      <path class="cls-4" d="M126.47,60.5l17.32-3.6c.51-.11,1,.24,1.08.75l.06.44c.07.51-.3.98-.82,1.02l-17.64,1.39Z"/>
    </g>
    <g id="_x3C_径向重复_x3E_-18" data-name="_x3C_径向重复_x3E_">
      <path class="cls-4" d="M126.47,70.15l17.64,1.39c.52.04.89.51.82,1.02l-.06.44c-.07.51-.57.85-1.08.75l-17.32-3.6Z"/>
    </g>
    <g id="_x3C_径向重复_x3E_-19" data-name="_x3C_径向重复_x3E_">
      <path class="cls-4" d="M123.74,79.41l16.53,6.28c.49.18.71.74.5,1.21l-.18.4c-.22.47-.79.66-1.25.42l-15.6-8.3Z"/>
    </g>
    <g id="_x3C_径向重复_x3E_-20" data-name="_x3C_径向重复_x3E_">
      <path class="cls-4" d="M118.49,87.53l14.08,10.65c.41.31.48.91.14,1.3l-.29.33c-.34.39-.94.41-1.31.05l-12.61-12.33Z"/>
    </g>
    <g id="_x3C_径向重复_x3E_-21" data-name="_x3C_径向重复_x3E_">
      <path class="cls-4" d="M111.15,93.85l10.49,14.16c.31.42.2,1-.24,1.28l-.37.24c-.44.28-1.02.13-1.27-.32l-8.61-15.37Z"/>
    </g>
    <g id="_x3C_径向重复_x3E_-22" data-name="_x3C_径向重复_x3E_">
      <path class="cls-4" d="M102.31,97.86l6.05,16.52c.18.49-.09,1.02-.59,1.17l-.43.12c-.5.15-1.02-.16-1.13-.66l-3.9-17.15Z"/>
    </g>
  </g>
</svg>