<?xml version="1.0" encoding="UTF-8"?>
<svg id="_图层_1" data-name="图层_1" xmlns="http://www.w3.org/2000/svg" viewBox="0 0 185.39 130.66">
  <defs>
    <style>
      .cls-1 {
        fill: #c8e4c9;
      }

      .cls-2 {
        fill: #a1d8ea;
      }

      .cls-3 {
        fill: #81c58a;
      }

      .cls-4 {
        fill: #46bed6;
      }
    </style>
  </defs>
  <g>
    <polygon class="cls-2" points="99.78 72.41 133.89 104.36 131.73 106.52 99.78 72.41"/>
    <polygon class="cls-2" points="97.49 74.12 121.23 114.39 118.54 115.85 97.49 74.12"/>
    <polygon class="cls-2" points="94.83 75.11 106.25 120.44 103.26 121.09 94.83 75.11"/>
    <polygon class="cls-2" points="91.98 75.32 90.17 122.02 87.12 121.8 91.98 75.32"/>
    <polygon class="cls-2" points="89.2 74.71 74.3 119.01 71.44 117.95 89.2 74.71"/>
    <polygon class="cls-2" points="86.7 73.34 59.92 111.66 57.48 109.83 86.7 73.34"/>
    <polygon class="cls-2" points="84.68 71.33 48.2 100.55 46.37 98.1 84.68 71.33"/>
    <polygon class="cls-2" points="83.32 68.83 40.08 86.59 39.01 83.72 83.32 68.83"/>
    <polygon class="cls-2" points="82.71 66.04 36.22 70.9 36 67.85 82.71 66.04"/>
    <polygon class="cls-2" points="82.91 63.2 36.94 54.76 37.59 51.78 82.91 63.2"/>
    <polygon class="cls-2" points="83.91 60.53 42.17 39.48 43.64 36.8 83.91 60.53"/>
    <polygon class="cls-2" points="85.62 58.25 51.5 26.3 53.66 24.13 85.62 58.25"/>
    <polygon class="cls-2" points="87.9 56.54 64.17 16.27 66.85 14.81 87.9 56.54"/>
    <polygon class="cls-2" points="90.57 55.55 79.14 10.22 82.13 9.57 90.57 55.55"/>
    <polygon class="cls-2" points="93.41 55.34 95.22 8.64 98.27 8.85 93.41 55.34"/>
    <polygon class="cls-2" points="96.2 55.95 111.09 11.64 113.95 12.71 96.2 55.95"/>
    <polygon class="cls-2" points="98.7 57.31 125.47 19 127.92 20.83 98.7 57.31"/>
    <polygon class="cls-2" points="100.71 59.33 137.19 30.11 139.03 32.56 100.71 59.33"/>
    <polygon class="cls-2" points="102.08 61.83 145.31 44.07 146.38 46.94 102.08 61.83"/>
    <polygon class="cls-2" points="102.68 64.61 149.17 59.76 149.39 62.81 102.68 64.61"/>
    <polygon class="cls-2" points="102.48 67.46 148.45 75.89 147.8 78.88 102.48 67.46"/>
    <polygon class="cls-2" points="101.48 70.13 143.22 91.17 141.75 93.86 101.48 70.13"/>
  </g>
  <g>
    <g id="_x3C_径向重复_x3E_">
      <path class="cls-4" d="M92.7,99.26l1.11,17.56c.03.52-.38.95-.89.95h-.44c-.52,0-.93-.44-.89-.95l1.11-17.56Z"/>
    </g>
    <g id="_x3C_径向重复_x3E_-2" data-name="_x3C_径向重复_x3E_">
      <path class="cls-4" d="M83.14,97.88l-3.88,17.16c-.11.5-.63.81-1.13.66l-.42-.12c-.5-.15-.77-.68-.59-1.17l6.02-16.54Z"/>
    </g>
    <g id="_x3C_径向重复_x3E_-3" data-name="_x3C_径向重复_x3E_">
      <path class="cls-4" d="M74.35,93.87l-8.56,15.38c-.25.45-.83.6-1.27.32l-.37-.24c-.44-.28-.54-.87-.24-1.28l10.43-14.17Z"/>
    </g>
    <g id="_x3C_径向重复_x3E_-4" data-name="_x3C_径向重复_x3E_">
      <path class="cls-4" d="M67.06,87.55l-12.54,12.34c-.37.36-.97.34-1.31-.05l-.29-.33c-.34-.39-.28-.99.13-1.3l14-10.66Z"/>
    </g>
    <g id="_x3C_径向重复_x3E_-5" data-name="_x3C_径向重复_x3E_">
      <path class="cls-4" d="M61.83,79.42l-15.51,8.31c-.46.24-1.02.05-1.24-.42l-.18-.4c-.21-.47.01-1.02.5-1.21l16.44-6.28Z"/>
    </g>
    <g id="_x3C_径向重复_x3E_-6" data-name="_x3C_径向重复_x3E_">
      <path class="cls-4" d="M59.11,70.16l-17.22,3.6c-.51.11-1-.24-1.07-.75l-.06-.44c-.07-.51.3-.98.82-1.02l17.54-1.4Z"/>
    </g>
    <g id="_x3C_径向重复_x3E_-7" data-name="_x3C_径向重复_x3E_">
      <path class="cls-4" d="M59.11,60.5l-17.54-1.4c-.52-.04-.89-.51-.82-1.02l.06-.44c.07-.51.56-.86,1.07-.75l17.22,3.6Z"/>
    </g>
    <g id="_x3C_径向重复_x3E_-8" data-name="_x3C_径向重复_x3E_">
      <path class="cls-4" d="M61.83,51.23l-16.44-6.28c-.48-.18-.71-.74-.5-1.21l.18-.4c.21-.47.78-.66,1.24-.42l15.51,8.31Z"/>
    </g>
    <g id="_x3C_径向重复_x3E_-9" data-name="_x3C_径向重复_x3E_">
      <path class="cls-4" d="M67.06,43.11l-14-10.66c-.41-.31-.47-.91-.13-1.3l.29-.33c.34-.39.94-.41,1.31-.05l12.54,12.34Z"/>
    </g>
    <g id="_x3C_径向重复_x3E_-10" data-name="_x3C_径向重复_x3E_">
      <path class="cls-4" d="M74.35,36.79l-10.43-14.17c-.31-.42-.2-1.01.24-1.28l.37-.24c.44-.28,1.02-.13,1.27.32l8.56,15.38Z"/>
    </g>
    <g id="_x3C_径向重复_x3E_-11" data-name="_x3C_径向重复_x3E_">
      <path class="cls-4" d="M83.14,32.78l-6.02-16.54c-.18-.49.09-1.02.59-1.17l.42-.12c.5-.15,1.01.16,1.13.66l3.88,17.16Z"/>
    </g>
    <g id="_x3C_径向重复_x3E_-12" data-name="_x3C_径向重复_x3E_">
      <path class="cls-4" d="M92.7,31.4l-1.11-17.56c-.03-.52.38-.95.89-.95h.44c.52,0,.93.44.89.95l-1.11,17.56Z"/>
    </g>
    <g id="_x3C_径向重复_x3E_-13" data-name="_x3C_径向重复_x3E_">
      <path class="cls-4" d="M102.26,32.78l3.88-17.16c.11-.5.63-.81,1.13-.66l.42.12c.5.15.77.68.59,1.17l-6.02,16.54Z"/>
    </g>
    <g id="_x3C_径向重复_x3E_-14" data-name="_x3C_径向重复_x3E_">
      <path class="cls-4" d="M111.04,36.79l8.56-15.38c.25-.45.83-.6,1.27-.32l.37.24c.44.28.54.87.24,1.28l-10.43,14.17Z"/>
    </g>
    <g id="_x3C_径向重复_x3E_-15" data-name="_x3C_径向重复_x3E_">
      <path class="cls-4" d="M118.34,43.11l12.54-12.34c.37-.36.97-.34,1.31.05l.29.33c.34.39.28.99-.13,1.3l-14,10.66Z"/>
    </g>
    <g id="_x3C_径向重复_x3E_-16" data-name="_x3C_径向重复_x3E_">
      <path class="cls-4" d="M123.56,51.23l15.51-8.31c.46-.24,1.02-.05,1.24.42l.18.4c.21.47-.01,1.02-.5,1.21l-16.44,6.28Z"/>
    </g>
    <g id="_x3C_径向重复_x3E_-17" data-name="_x3C_径向重复_x3E_">
      <path class="cls-4" d="M126.28,60.5l17.22-3.6c.51-.11,1,.24,1.07.75l.06.44c.07.51-.3.98-.82,1.02l-17.54,1.4Z"/>
    </g>
    <g id="_x3C_径向重复_x3E_-18" data-name="_x3C_径向重复_x3E_">
      <path class="cls-4" d="M126.28,70.16l17.54,1.4c.52.04.89.51.82,1.02l-.06.44c-.07.51-.56.86-1.07.75l-17.22-3.6Z"/>
    </g>
    <g id="_x3C_径向重复_x3E_-19" data-name="_x3C_径向重复_x3E_">
      <path class="cls-4" d="M123.56,79.42l16.44,6.28c.48.18.71.74.5,1.21l-.18.4c-.21.47-.78.66-1.24.42l-15.51-8.31Z"/>
    </g>
    <g id="_x3C_径向重复_x3E_-20" data-name="_x3C_径向重复_x3E_">
      <path class="cls-4" d="M118.34,87.55l14,10.66c.41.31.47.91.13,1.3l-.29.33c-.34.39-.94.41-1.31.05l-12.54-12.34Z"/>
    </g>
    <g id="_x3C_径向重复_x3E_-21" data-name="_x3C_径向重复_x3E_">
      <path class="cls-4" d="M111.04,93.87l10.43,14.17c.31.42.2,1.01-.24,1.28l-.37.24c-.44.28-1.02.13-1.27-.32l-8.56-15.38Z"/>
    </g>
    <g id="_x3C_径向重复_x3E_-22" data-name="_x3C_径向重复_x3E_">
      <path class="cls-4" d="M102.26,97.88l6.02,16.54c.18.49-.09,1.02-.59,1.17l-.42.12c-.5.15-1.01-.16-1.13-.66l-3.88-17.16Z"/>
    </g>
  </g>
  <g>
    <path class="cls-3" d="M40.71,65.07c1.07-.43,6.5-1.16,41.53.26-35.03,1.42-40.46.69-41.53.26-.39-.16-.39-.35,0-.51Z"/>
    <path class="cls-3" d="M42.89,50.44c1.15-.11,6.56.72,39.77,11.95-34.01-8.51-39.02-10.74-39.92-11.45-.33-.26-.28-.45.14-.49Z"/>
    <path class="cls-3" d="M49.1,37.01c1.13.22,6.09,2.54,34.8,22.67-30.23-17.75-34.41-21.3-35.07-22.24-.24-.34-.14-.51.28-.43Z"/>
    <path class="cls-3" d="M58.85,25.87c1.02.53,5.13,4.15,27,31.55-24.01-25.55-27.01-30.13-27.39-31.22-.14-.4.01-.53.39-.34Z"/>
    <path class="cls-3" d="M71.33,17.94c.83.79,3.75,5.43,17.02,37.88-15.84-31.28-17.43-36.52-17.48-37.67-.02-.42.16-.5.47-.21Z"/>
    <path class="cls-3" d="M85.55,13.84c.58,1,2.07,6.27,5.66,41.14-6.39-34.47-6.44-39.95-6.16-41.07.1-.41.29-.44.51-.07Z"/>
    <path class="cls-3" d="M100.35,13.91c.27,1.12.22,6.6-6.16,41.07,3.58-34.88,5.08-40.15,5.66-41.14.21-.37.41-.34.51.07Z"/>
    <path class="cls-3" d="M114.52,18.15c-.05,1.15-1.64,6.39-17.48,37.67,13.27-32.45,16.18-37.09,17.02-37.88.31-.29.49-.21.47.21Z"/>
    <path class="cls-3" d="M126.93,26.21c-.37,1.09-3.38,5.67-27.39,31.22,21.87-27.4,25.98-31.03,27-31.55.38-.19.52-.06.39.34Z"/>
    <path class="cls-3" d="M136.57,37.44c-.67.94-4.84,4.49-35.07,22.24,28.7-20.13,33.67-22.45,34.8-22.67.42-.08.52.09.28.43Z"/>
    <path class="cls-3" d="M142.65,50.93c-.9.71-5.91,2.94-39.92,11.45,33.21-11.23,38.63-12.06,39.77-11.95.42.04.48.23.14.49Z"/>
    <path class="cls-3" d="M144.68,65.59c-1.07.43-6.5,1.16-41.53-.26,35.03-1.42,40.46-.69,41.53-.26.39.16.39.35,0,.51Z"/>
    <path class="cls-3" d="M142.5,80.22c-1.15.11-6.56-.72-39.77-11.95,34.01,8.51,39.02,10.74,39.92,11.45.33.26.28.45-.14.49Z"/>
    <path class="cls-3" d="M136.29,93.65c-1.13-.22-6.09-2.54-34.8-22.67,30.23,17.75,34.41,21.3,35.07,22.24.24.34.14.51-.28.43Z"/>
    <path class="cls-3" d="M126.55,104.78c-1.02-.53-5.13-4.15-27-31.55,24.01,25.55,27.01,30.13,27.39,31.22.14.4-.01.53-.39.34Z"/>
    <path class="cls-3" d="M114.06,112.72c-.83-.79-3.75-5.43-17.02-37.88,15.84,31.28,17.43,36.52,17.48,37.67.02.42-.16.5-.47.21Z"/>
    <path class="cls-3" d="M99.84,116.82c-.58-1-2.07-6.27-5.66-41.14,6.39,34.47,6.44,39.95,6.16,41.07-.1.41-.29.44-.51.07Z"/>
    <path class="cls-3" d="M85.05,116.75c-.27-1.12-.22-6.6,6.16-41.07-3.58,34.88-5.08,40.15-5.66,41.14-.21.37-.41.34-.51-.07Z"/>
    <path class="cls-3" d="M70.87,112.51c.05-1.15,1.64-6.39,17.48-37.67-13.27,32.45-16.18,37.09-17.02,37.88-.31.29-.49.21-.47-.21Z"/>
    <path class="cls-3" d="M58.46,104.45c.37-1.09,3.38-5.67,27.39-31.22-21.87,27.4-25.98,31.03-27,31.55-.38.19-.52.06-.39-.34Z"/>
    <path class="cls-3" d="M48.83,93.22c.67-.94,4.84-4.49,35.07-22.24-28.7,20.13-33.67,22.45-34.8,22.67-.42.08-.52-.09-.28-.43Z"/>
    <path class="cls-3" d="M42.75,79.73c.9-.71,5.91-2.94,39.92-11.45-33.21,11.23-38.63,12.06-39.77,11.95-.42-.04-.48-.23-.14-.49Z"/>
  </g>
  <g>
    <path class="cls-1" d="M97.46,75.87c-.87-1.38-1.14-3.28-.39-3.57.75-.28,2.51,1.06,3.38,2.44.87,1.38,1.14,3.28.39,3.57-.75.28-2.51-1.06-3.38-2.44Z"/>
    <path class="cls-1" d="M94.3,76.78c-.44-1.57-.17-3.47.63-3.53.8-.06,2.11,1.72,2.56,3.29.44,1.57.17,3.47-.63,3.53-.8.06-2.11-1.72-2.56-3.29Z"/>
    <path class="cls-1" d="M91.01,76.77c.02-1.63.82-3.38,1.6-3.21.78.17,1.54,2.25,1.53,3.88-.02,1.63-.82,3.38-1.6,3.21-.78-.17-1.54-2.25-1.53-3.88Z"/>
    <path class="cls-1" d="M87.85,75.83c.48-1.56,1.74-3.01,2.44-2.63s.85,2.59.37,4.15c-.48,1.56-1.74,3.01-2.44,2.63-.71-.38-.85-2.59-.37-4.15Z"/>
    <path class="cls-1" d="M85.09,74.04c.9-1.36,2.51-2.4,3.08-1.83.57.57.08,2.73-.81,4.09-.9,1.36-2.51,2.4-3.08,1.83-.57-.57-.08-2.73.81-4.09Z"/>
    <path class="cls-1" d="M82.94,71.55c1.24-1.05,3.09-1.59,3.47-.89.39.7-.69,2.64-1.93,3.69-1.24,1.05-3.09,1.59-3.47.89-.39-.7.69-2.64,1.93-3.69Z"/>
    <path class="cls-1" d="M81.59,68.55c1.49-.66,3.41-.66,3.58.12s-1.41,2.34-2.89,3c-1.49.66-3.41.66-3.58-.12-.17-.78,1.41-2.34,2.89-3Z"/>
    <path class="cls-1" d="M81.13,65.29c1.61-.21,3.46.33,3.4,1.13s-2.01,1.85-3.62,2.06c-1.61.21-3.46-.33-3.4-1.13.05-.8,2.01-1.85,3.62-2.06Z"/>
    <path class="cls-1" d="M81.61,62.03c1.61.25,3.23,1.29,2.95,2.04s-2.45,1.21-4.06.96-3.23-1.29-2.95-2.04c.28-.75,2.45-1.21,4.06-.96Z"/>
    <path class="cls-1" d="M82.99,59.04c1.47.69,2.73,2.15,2.25,2.79s-2.69.47-4.16-.22-2.73-2.15-2.25-2.79c.48-.64,2.69-.47,4.16.22Z"/>
    <path class="cls-1" d="M85.15,56.56c1.22,1.08,2.02,2.83,1.38,3.31s-2.71-.31-3.93-1.39c-1.22-1.08-2.02-2.83-1.38-3.31.64-.48,2.71.31,3.93,1.39Z"/>
    <path class="cls-1" d="M87.93,54.79c.87,1.38,1.14,3.28.39,3.57s-2.51-1.06-3.38-2.44c-.87-1.38-1.14-3.28-.39-3.57.75-.28,2.51,1.06,3.38,2.44Z"/>
    <path class="cls-1" d="M91.09,53.87c.44,1.57.17,3.47-.63,3.53s-2.11-1.72-2.56-3.29c-.44-1.57-.17-3.47.63-3.53.8-.06,2.11,1.72,2.56,3.29Z"/>
    <path class="cls-1" d="M94.38,53.89c-.02,1.63-.82,3.38-1.6,3.21s-1.54-2.25-1.53-3.88c.02-1.63.82-3.38,1.6-3.21.78.17,1.54,2.25,1.53,3.88Z"/>
    <path class="cls-1" d="M97.54,54.83c-.48,1.56-1.74,3.01-2.44,2.63s-.85-2.59-.37-4.15c.48-1.56,1.74-3.01,2.44-2.63.71.38.85,2.59.37,4.15Z"/>
    <path class="cls-1" d="M100.3,56.62c-.9,1.36-2.51,2.4-3.08,1.83-.57-.57-.08-2.73.81-4.09.9-1.36,2.51-2.4,3.08-1.83.57.57.08,2.73-.81,4.09Z"/>
    <path class="cls-1" d="M102.45,59.11c-1.24,1.05-3.09,1.59-3.47.89s.69-2.64,1.93-3.69c1.24-1.05,3.09-1.59,3.47-.89.39.7-.69,2.64-1.93,3.69Z"/>
    <path class="cls-1" d="M103.81,62.11c-1.49.66-3.41.66-3.58-.12s1.41-2.34,2.89-3c1.49-.66,3.41-.66,3.58.12.17.78-1.41,2.34-2.89,3Z"/>
    <path class="cls-1" d="M104.26,65.37c-1.61.21-3.46-.33-3.4-1.13s2.01-1.85,3.62-2.06c1.61-.21,3.46.33,3.4,1.13-.05.8-2.01,1.85-3.62,2.06Z"/>
    <path class="cls-1" d="M103.78,68.63c-1.61-.25-3.23-1.29-2.95-2.04s2.45-1.21,4.06-.96c1.61.25,3.23,1.29,2.95,2.04-.28.75-2.45,1.21-4.06.96Z"/>
    <path class="cls-1" d="M102.4,71.62c-1.47-.69-2.73-2.15-2.25-2.79s2.69-.47,4.16.22c1.47.69,2.73,2.15,2.25,2.79-.48.64-2.69.47-4.16-.22Z"/>
    <path class="cls-1" d="M100.24,74.1c-1.22-1.08-2.02-2.83-1.38-3.31.64-.48,2.71.31,3.93,1.39s2.02,2.83,1.38,3.31c-.64.48-2.71-.31-3.93-1.39Z"/>
  </g>
</svg>