<?xml version="1.0" encoding="UTF-8"?>
<svg id="_图层_1" data-name="图层_1" xmlns="http://www.w3.org/2000/svg" viewBox="0 0 141.73 141.73">
  <defs>
    <style>
      .cls-1 {
        fill: #f8ca78;
      }

      .cls-2 {
        fill: #e9562a;
      }

      .cls-3 {
        fill: #ef8026;
      }
    </style>
  </defs>
  <g>
    <g id="_x3C_径向重复_x3E_">
      <polygon class="cls-2" points="69.62 128.45 70.87 88.35 72.11 128.45 69.62 128.45"/>
    </g>
    <g id="_x3C_径向重复_x3E_-2" data-name="_x3C_径向重复_x3E_">
      <polygon class="cls-2" points="53.45 125.77 65.94 87.64 55.84 126.47 53.45 125.77"/>
    </g>
    <g id="_x3C_径向重复_x3E_-3" data-name="_x3C_径向重复_x3E_">
      <polygon class="cls-2" points="38.68 118.64 61.41 85.57 40.78 119.99 38.68 118.64"/>
    </g>
    <g id="_x3C_径向重复_x3E_-4" data-name="_x3C_径向重复_x3E_">
      <polygon class="cls-2" points="26.53 107.64 57.65 82.32 28.16 109.52 26.53 107.64"/>
    </g>
    <g id="_x3C_径向重复_x3E_-5" data-name="_x3C_径向重复_x3E_">
      <polygon class="cls-2" points="17.96 93.66 54.96 78.13 19 95.92 17.96 93.66"/>
    </g>
    <g id="_x3C_径向重复_x3E_-6" data-name="_x3C_径向重复_x3E_">
      <polygon class="cls-2" points="13.69 77.83 53.56 73.35 14.04 80.29 13.69 77.83"/>
    </g>
    <g id="_x3C_径向重复_x3E_-7" data-name="_x3C_径向重复_x3E_">
      <polygon class="cls-2" points="14.04 61.44 53.56 68.38 13.69 63.9 14.04 61.44"/>
    </g>
    <g id="_x3C_径向重复_x3E_-8" data-name="_x3C_径向重复_x3E_">
      <polygon class="cls-2" points="19 45.81 54.96 63.6 17.97 48.08 19 45.81"/>
    </g>
    <g id="_x3C_径向重复_x3E_-9" data-name="_x3C_径向重复_x3E_">
      <polygon class="cls-2" points="28.16 32.21 57.65 59.42 26.53 34.1 28.16 32.21"/>
    </g>
    <g id="_x3C_径向重复_x3E_-10" data-name="_x3C_径向重复_x3E_">
      <polygon class="cls-2" points="40.78 21.75 61.41 56.16 38.68 23.09 40.78 21.75"/>
    </g>
    <g id="_x3C_径向重复_x3E_-11" data-name="_x3C_径向重复_x3E_">
      <polygon class="cls-2" points="55.84 15.26 65.94 54.09 53.45 15.96 55.84 15.26"/>
    </g>
    <g id="_x3C_径向重复_x3E_-12" data-name="_x3C_径向重复_x3E_">
      <polygon class="cls-2" points="72.11 13.28 70.87 53.38 69.62 13.28 72.11 13.28"/>
    </g>
    <g id="_x3C_径向重复_x3E_-13" data-name="_x3C_径向重复_x3E_">
      <polygon class="cls-2" points="88.29 15.96 75.79 54.09 85.9 15.26 88.29 15.96"/>
    </g>
    <g id="_x3C_径向重复_x3E_-14" data-name="_x3C_径向重复_x3E_">
      <polygon class="cls-2" points="103.05 23.09 80.32 56.16 100.95 21.75 103.05 23.09"/>
    </g>
    <g id="_x3C_径向重复_x3E_-15" data-name="_x3C_径向重复_x3E_">
      <polygon class="cls-2" points="115.2 34.1 84.08 59.42 113.57 32.21 115.2 34.1"/>
    </g>
    <g id="_x3C_径向重复_x3E_-16" data-name="_x3C_径向重复_x3E_">
      <polygon class="cls-2" points="123.77 48.08 86.77 63.6 122.73 45.81 123.77 48.08"/>
    </g>
    <g id="_x3C_径向重复_x3E_-17" data-name="_x3C_径向重复_x3E_">
      <polygon class="cls-2" points="128.05 63.9 88.17 68.38 127.69 61.44 128.05 63.9"/>
    </g>
    <g id="_x3C_径向重复_x3E_-18" data-name="_x3C_径向重复_x3E_">
      <polygon class="cls-2" points="127.69 80.29 88.17 73.35 128.05 77.83 127.69 80.29"/>
    </g>
    <g id="_x3C_径向重复_x3E_-19" data-name="_x3C_径向重复_x3E_">
      <polygon class="cls-2" points="122.73 95.92 86.77 78.13 123.77 93.66 122.73 95.92"/>
    </g>
    <g id="_x3C_径向重复_x3E_-20" data-name="_x3C_径向重复_x3E_">
      <polygon class="cls-2" points="113.57 109.52 84.08 82.32 115.2 107.64 113.57 109.52"/>
    </g>
    <g id="_x3C_径向重复_x3E_-21" data-name="_x3C_径向重复_x3E_">
      <polygon class="cls-2" points="100.95 119.99 80.32 85.57 103.05 118.64 100.95 119.99"/>
    </g>
    <g id="_x3C_径向重复_x3E_-22" data-name="_x3C_径向重复_x3E_">
      <polygon class="cls-2" points="85.89 126.47 75.79 87.64 88.28 125.77 85.89 126.47"/>
    </g>
  </g>
  <g>
    <g id="_x3C_径向重复_x3E_-23" data-name="_x3C_径向重复_x3E_">
      <g id="_x3C_径向重复_x3E_-24" data-name="_x3C_径向重复_x3E_">
        <path class="cls-3" d="M70.87,86.71c-.65,0-1.16-.63-1.08-1.34.16-1.41.31-2.82.47-4.23.17-1.56.35-3.12.52-4.67,0-.05.04-.08.08-.08.04,0,.08.03.08.08l.99,8.91c.08.71-.43,1.34-1.08,1.34Z"/>
      </g>
    </g>
    <g id="_x3C_径向重复_x3E_-25" data-name="_x3C_径向重复_x3E_">
      <g id="_x3C_径向重复_x3E_-26" data-name="_x3C_径向重复_x3E_">
        <path class="cls-3" d="M65.97,85.93c-.62-.2-.91-.95-.61-1.61.59-1.29,1.17-2.59,1.76-3.88.65-1.43,1.29-2.86,1.94-4.28.02-.04.06-.06.1-.05.04.01.06.05.05.1l-1.81,8.78c-.14.7-.82,1.14-1.44.94Z"/>
      </g>
    </g>
    <g id="_x3C_径向重复_x3E_-27" data-name="_x3C_径向重复_x3E_">
      <g id="_x3C_径向重复_x3E_-28" data-name="_x3C_径向重复_x3E_">
        <path class="cls-3" d="M61.56,83.68c-.53-.38-.57-1.19-.08-1.72.96-1.05,1.91-2.1,2.87-3.15,1.06-1.16,2.11-2.32,3.17-3.47.03-.03.08-.04.11-.02.03.02.05.07.02.11l-4.43,7.79c-.35.62-1.13.83-1.66.45Z"/>
      </g>
    </g>
    <g id="_x3C_径向重复_x3E_-29" data-name="_x3C_径向重复_x3E_">
      <g id="_x3C_径向重复_x3E_-30" data-name="_x3C_径向重复_x3E_">
        <path class="cls-3" d="M58.05,80.18c-.38-.53-.17-1.3.45-1.66,1.23-.7,2.47-1.4,3.7-2.11,1.36-.78,2.73-1.55,4.09-2.32.04-.02.09-.01.11.02.02.03.02.08-.02.11l-6.62,6.04c-.53.48-1.33.44-1.72-.08Z"/>
      </g>
    </g>
    <g id="_x3C_径向重复_x3E_-31" data-name="_x3C_径向重复_x3E_">
      <g id="_x3C_径向重复_x3E_-32" data-name="_x3C_径向重复_x3E_">
        <path class="cls-3" d="M55.8,75.76c-.2-.62.24-1.29.94-1.44,1.39-.29,2.78-.57,4.17-.86,1.54-.32,3.07-.63,4.61-.95.05,0,.09.01.1.05.01.04,0,.08-.05.1l-8.16,3.7c-.65.3-1.4,0-1.61-.61Z"/>
      </g>
    </g>
    <g id="_x3C_径向重复_x3E_-33" data-name="_x3C_径向重复_x3E_">
      <g id="_x3C_径向重复_x3E_-34" data-name="_x3C_径向重复_x3E_">
        <path class="cls-3" d="M55.03,70.87c0-.65.63-1.16,1.34-1.08,1.41.16,2.82.31,4.23.47,1.56.17,3.12.35,4.67.52.05,0,.08.04.08.08,0,.04-.03.08-.08.08l-8.91.99c-.71.08-1.34-.43-1.34-1.08Z"/>
      </g>
    </g>
    <g id="_x3C_径向重复_x3E_-35" data-name="_x3C_径向重复_x3E_">
      <g id="_x3C_径向重复_x3E_-36" data-name="_x3C_径向重复_x3E_">
        <path class="cls-3" d="M55.8,65.97c.2-.62.95-.91,1.61-.61,1.29.59,2.59,1.17,3.88,1.76,1.43.65,2.86,1.29,4.28,1.94.04.02.06.06.05.1-.01.04-.05.06-.1.05l-8.78-1.81c-.7-.14-1.14-.82-.94-1.44Z"/>
      </g>
    </g>
    <g id="_x3C_径向重复_x3E_-37" data-name="_x3C_径向重复_x3E_">
      <g id="_x3C_径向重复_x3E_-38" data-name="_x3C_径向重复_x3E_">
        <path class="cls-3" d="M58.05,61.56c.38-.53,1.19-.57,1.72-.08,1.05.96,2.1,1.91,3.15,2.87,1.16,1.06,2.32,2.11,3.47,3.17.03.03.04.08.02.11-.02.03-.07.05-.11.02l-7.79-4.43c-.62-.35-.83-1.13-.45-1.66Z"/>
      </g>
    </g>
    <g id="_x3C_径向重复_x3E_-39" data-name="_x3C_径向重复_x3E_">
      <g id="_x3C_径向重复_x3E_-40" data-name="_x3C_径向重复_x3E_">
        <path class="cls-3" d="M61.56,58.05c.53-.38,1.3-.17,1.66.45.7,1.23,1.4,2.47,2.11,3.7.78,1.36,1.55,2.73,2.32,4.09.02.04.01.09-.02.11-.03.02-.08.02-.11-.02l-6.04-6.62c-.48-.53-.44-1.33.08-1.72Z"/>
      </g>
    </g>
    <g id="_x3C_径向重复_x3E_-41" data-name="_x3C_径向重复_x3E_">
      <g id="_x3C_径向重复_x3E_-42" data-name="_x3C_径向重复_x3E_">
        <path class="cls-3" d="M65.97,55.8c.62-.2,1.29.24,1.44.94.29,1.39.57,2.78.86,4.17.32,1.54.63,3.07.95,4.61,0,.05-.01.09-.05.1-.04.01-.08,0-.1-.05l-3.7-8.16c-.3-.65,0-1.4.61-1.61Z"/>
      </g>
    </g>
    <g id="_x3C_径向重复_x3E_-43" data-name="_x3C_径向重复_x3E_">
      <g id="_x3C_径向重复_x3E_-44" data-name="_x3C_径向重复_x3E_">
        <path class="cls-3" d="M70.87,55.03c.65,0,1.16.63,1.08,1.34-.16,1.41-.31,2.82-.47,4.23-.17,1.56-.35,3.12-.52,4.67,0,.05-.04.08-.08.08-.04,0-.08-.03-.08-.08l-.99-8.91c-.08-.71.43-1.34,1.08-1.34Z"/>
      </g>
    </g>
    <g id="_x3C_径向重复_x3E_-45" data-name="_x3C_径向重复_x3E_">
      <g id="_x3C_径向重复_x3E_-46" data-name="_x3C_径向重复_x3E_">
        <path class="cls-3" d="M75.76,55.8c.62.2.91.95.61,1.61-.59,1.29-1.17,2.59-1.76,3.88-.65,1.43-1.29,2.86-1.94,4.28-.02.04-.06.06-.1.05-.04-.01-.06-.05-.05-.1l1.81-8.78c.14-.7.82-1.14,1.44-.94Z"/>
      </g>
    </g>
    <g id="_x3C_径向重复_x3E_-47" data-name="_x3C_径向重复_x3E_">
      <g id="_x3C_径向重复_x3E_-48" data-name="_x3C_径向重复_x3E_">
        <path class="cls-3" d="M80.18,58.05c.53.38.57,1.19.08,1.72-.96,1.05-1.91,2.1-2.87,3.15-1.06,1.16-2.11,2.32-3.17,3.47-.03.03-.08.04-.11.02-.03-.02-.05-.07-.02-.11l4.43-7.79c.35-.62,1.13-.83,1.66-.45Z"/>
      </g>
    </g>
    <g id="_x3C_径向重复_x3E_-49" data-name="_x3C_径向重复_x3E_">
      <g id="_x3C_径向重复_x3E_-50" data-name="_x3C_径向重复_x3E_">
        <path class="cls-3" d="M83.68,61.56c.38.53.17,1.3-.45,1.66-1.23.7-2.47,1.4-3.7,2.11-1.36.78-2.73,1.55-4.09,2.32-.04.02-.09.01-.11-.02-.02-.03-.02-.08.02-.11l6.62-6.04c.53-.48,1.33-.44,1.72.08Z"/>
      </g>
    </g>
    <g id="_x3C_径向重复_x3E_-51" data-name="_x3C_径向重复_x3E_">
      <g id="_x3C_径向重复_x3E_-52" data-name="_x3C_径向重复_x3E_">
        <path class="cls-3" d="M85.93,65.97c.2.62-.24,1.29-.94,1.44-1.39.29-2.78.57-4.17.86-1.54.32-3.07.63-4.61.95-.05,0-.09-.01-.1-.05-.01-.04,0-.08.05-.1l8.16-3.7c.65-.3,1.4,0,1.61.61Z"/>
      </g>
    </g>
    <g id="_x3C_径向重复_x3E_-53" data-name="_x3C_径向重复_x3E_">
      <g id="_x3C_径向重复_x3E_-54" data-name="_x3C_径向重复_x3E_">
        <path class="cls-3" d="M86.71,70.87c0,.65-.63,1.16-1.34,1.08-1.41-.16-2.82-.31-4.23-.47-1.56-.17-3.12-.35-4.67-.52-.05,0-.08-.04-.08-.08,0-.04.03-.08.08-.08l8.91-.99c.71-.08,1.34.43,1.34,1.08Z"/>
      </g>
    </g>
    <g id="_x3C_径向重复_x3E_-55" data-name="_x3C_径向重复_x3E_">
      <g id="_x3C_径向重复_x3E_-56" data-name="_x3C_径向重复_x3E_">
        <path class="cls-3" d="M85.93,75.76c-.2.62-.95.91-1.61.61-1.29-.59-2.59-1.17-3.88-1.76-1.43-.65-2.86-1.29-4.28-1.94-.04-.02-.06-.06-.05-.1.01-.04.05-.06.1-.05l8.78,1.81c.7.14,1.14.82.94,1.44Z"/>
      </g>
    </g>
    <g id="_x3C_径向重复_x3E_-57" data-name="_x3C_径向重复_x3E_">
      <g id="_x3C_径向重复_x3E_-58" data-name="_x3C_径向重复_x3E_">
        <path class="cls-3" d="M83.68,80.18c-.38.53-1.19.57-1.72.08-1.05-.96-2.1-1.91-3.15-2.87-1.16-1.06-2.32-2.11-3.47-3.17-.03-.03-.04-.08-.02-.11.02-.03.07-.05.11-.02l7.79,4.43c.62.35.83,1.13.45,1.66Z"/>
      </g>
    </g>
    <g id="_x3C_径向重复_x3E_-59" data-name="_x3C_径向重复_x3E_">
      <g id="_x3C_径向重复_x3E_-60" data-name="_x3C_径向重复_x3E_">
        <path class="cls-3" d="M80.18,83.68c-.53.38-1.3.17-1.66-.45-.7-1.23-1.4-2.47-2.11-3.7-.78-1.36-1.55-2.73-2.32-4.09-.02-.04-.01-.09.02-.11.03-.02.08-.02.11.02l6.04,6.62c.48.53.44,1.33-.08,1.72Z"/>
      </g>
    </g>
    <g id="_x3C_径向重复_x3E_-61" data-name="_x3C_径向重复_x3E_">
      <g id="_x3C_径向重复_x3E_-62" data-name="_x3C_径向重复_x3E_">
        <path class="cls-3" d="M75.76,85.93c-.62.2-1.29-.24-1.44-.94-.29-1.39-.57-2.78-.86-4.17-.32-1.54-.63-3.07-.95-4.61,0-.05.01-.09.05-.1.04-.01.08,0,.1.05l3.7,8.16c.3.65,0,1.4-.61,1.61Z"/>
      </g>
    </g>
  </g>
  <g>
    <g id="_x3C_径向重复_x3E_-63" data-name="_x3C_径向重复_x3E_">
      <g id="_x3C_径向重复_x3E_-64" data-name="_x3C_径向重复_x3E_">
        <path class="cls-1" d="M127.56,70.87c0,2.75-2.19,4.88-4.67,4.54-4.92-.66-9.84-1.33-14.77-1.99-5.44-.73-10.87-1.47-16.31-2.2-.16-.02-.28-.17-.28-.35,0-.16.09-.32.28-.35l31.07-4.19c2.48-.33,4.67,1.79,4.67,4.54Z"/>
      </g>
    </g>
    <g id="_x3C_径向重复_x3E_-65" data-name="_x3C_径向重复_x3E_">
      <g id="_x3C_径向重复_x3E_-66" data-name="_x3C_径向重复_x3E_">
        <path class="cls-1" d="M125.26,86.84c-.77,2.64-3.47,4.06-5.76,3.04-4.54-2.02-9.07-4.05-13.61-6.07-5.01-2.23-10.02-4.47-15.03-6.71-.15-.07-.22-.24-.17-.41.05-.16.18-.28.37-.26l31,4.73c2.48.38,3.97,3.04,3.2,5.67Z"/>
      </g>
    </g>
    <g id="_x3C_径向重复_x3E_-67" data-name="_x3C_径向重复_x3E_">
      <g id="_x3C_径向重复_x3E_-68" data-name="_x3C_径向重复_x3E_">
        <path class="cls-1" d="M118.56,101.52c-1.49,2.31-4.48,2.92-6.38,1.3-3.78-3.22-7.56-6.44-11.34-9.66-4.18-3.56-8.35-7.11-12.53-10.67-.12-.1-.14-.3-.05-.45.09-.14.25-.22.43-.14l28.41,13.27c2.27,1.06,2.96,4.03,1.47,6.34Z"/>
      </g>
    </g>
    <g id="_x3C_径向重复_x3E_-69" data-name="_x3C_径向重复_x3E_">
      <g id="_x3C_径向重复_x3E_-70" data-name="_x3C_径向重复_x3E_">
        <path class="cls-1" d="M107.99,113.71c-2.08,1.8-5.12,1.54-6.49-.56-2.72-4.15-5.44-8.31-8.16-12.46-3.01-4.59-6.01-9.18-9.02-13.76-.09-.13-.05-.33.08-.44.12-.11.31-.14.45-.02l23.52,20.74c1.88,1.66,1.7,4.7-.37,6.5Z"/>
      </g>
    </g>
    <g id="_x3C_径向重复_x3E_-71" data-name="_x3C_径向重复_x3E_">
      <g id="_x3C_径向重复_x3E_-72" data-name="_x3C_径向重复_x3E_">
        <path class="cls-1" d="M94.42,122.44c-2.5,1.14-5.34.04-6.07-2.36-1.44-4.75-2.88-9.51-4.32-14.26-1.59-5.25-3.18-10.5-4.77-15.75-.05-.15.04-.33.2-.4.15-.07.33-.05.43.11l16.72,26.52c1.34,2.12.31,4.99-2.19,6.13Z"/>
      </g>
    </g>
    <g id="_x3C_径向重复_x3E_-73" data-name="_x3C_径向重复_x3E_">
      <g id="_x3C_径向重复_x3E_-74" data-name="_x3C_径向重复_x3E_">
        <path class="cls-1" d="M78.93,126.98c-2.72.39-5.14-1.47-5.16-3.98-.04-4.97-.09-9.93-.13-14.9-.05-5.48-.1-10.97-.14-16.45,0-.16.13-.3.31-.33.16-.02.33.05.39.23l8.57,30.16c.68,2.41-1.11,4.88-3.83,5.27Z"/>
      </g>
    </g>
    <g id="_x3C_径向重复_x3E_-75" data-name="_x3C_径向重复_x3E_">
      <g id="_x3C_径向重复_x3E_-76" data-name="_x3C_径向重复_x3E_">
        <path class="cls-1" d="M62.8,126.98c-2.72-.39-4.51-2.86-3.83-5.27,1.36-4.78,2.72-9.55,4.07-14.33,1.5-5.28,3-10.55,4.5-15.83.04-.16.21-.25.39-.23.16.02.31.14.31.33l-.27,31.35c-.02,2.5-2.44,4.37-5.16,3.98Z"/>
      </g>
    </g>
    <g id="_x3C_径向重复_x3E_-77" data-name="_x3C_径向重复_x3E_">
      <g id="_x3C_径向重复_x3E_-78" data-name="_x3C_径向重复_x3E_">
        <path class="cls-1" d="M47.31,122.44c-2.5-1.14-3.53-4.02-2.19-6.13,2.65-4.2,5.3-8.4,7.95-12.6,2.93-4.64,5.85-9.28,8.78-13.92.09-.14.27-.18.43-.11.15.07.26.22.2.4l-9.1,30.01c-.73,2.4-3.57,3.5-6.07,2.36Z"/>
      </g>
    </g>
    <g id="_x3C_径向重复_x3E_-79" data-name="_x3C_径向重复_x3E_">
      <g id="_x3C_径向重复_x3E_-80" data-name="_x3C_径向重复_x3E_">
        <path class="cls-1" d="M33.74,113.71c-2.08-1.8-2.25-4.85-.37-6.5,3.72-3.28,7.45-6.57,11.17-9.85,4.11-3.63,8.23-7.26,12.34-10.88.12-.11.31-.1.45.02.12.11.18.28.08.44l-17.18,26.23c-1.37,2.09-4.41,2.35-6.49.55Z"/>
      </g>
    </g>
    <g id="_x3C_径向重复_x3E_-81" data-name="_x3C_径向重复_x3E_">
      <g id="_x3C_径向重复_x3E_-82" data-name="_x3C_径向重复_x3E_">
        <path class="cls-1" d="M23.17,101.52c-1.49-2.31-.8-5.28,1.47-6.34,4.5-2.1,9-4.2,13.5-6.31,4.97-2.32,9.94-4.64,14.91-6.97.15-.07.33,0,.43.14.09.14.1.32-.05.45l-23.87,20.33c-1.91,1.62-4.9,1.02-6.38-1.3Z"/>
      </g>
    </g>
    <g id="_x3C_径向重复_x3E_-83" data-name="_x3C_径向重复_x3E_">
      <g id="_x3C_径向重复_x3E_-84" data-name="_x3C_径向重复_x3E_">
        <path class="cls-1" d="M16.47,86.84c-.77-2.64.73-5.29,3.2-5.67,4.91-.75,9.82-1.5,14.73-2.25,5.42-.83,10.84-1.66,16.27-2.48.16-.02.32.09.37.26.05.16,0,.34-.17.41l-28.63,12.78c-2.29,1.02-4.99-.41-5.76-3.04Z"/>
      </g>
    </g>
    <g id="_x3C_径向重复_x3E_-85" data-name="_x3C_径向重复_x3E_">
      <g id="_x3C_径向重复_x3E_-86" data-name="_x3C_径向重复_x3E_">
        <path class="cls-1" d="M14.17,70.87c0-2.75,2.19-4.88,4.67-4.54,4.92.66,9.84,1.33,14.77,1.99,5.44.73,10.87,1.47,16.31,2.2.16.02.28.17.28.35,0,.16-.09.32-.28.35l-31.07,4.19c-2.48.33-4.67-1.79-4.67-4.54Z"/>
      </g>
    </g>
    <g id="_x3C_径向重复_x3E_-87" data-name="_x3C_径向重复_x3E_">
      <g id="_x3C_径向重复_x3E_-88" data-name="_x3C_径向重复_x3E_">
        <path class="cls-1" d="M16.47,54.89c.77-2.64,3.47-4.06,5.76-3.04,4.54,2.02,9.07,4.05,13.61,6.07,5.01,2.23,10.02,4.47,15.03,6.71.15.07.22.24.17.41-.05.16-.18.28-.37.26l-31-4.73c-2.48-.38-3.97-3.04-3.2-5.67Z"/>
      </g>
    </g>
    <g id="_x3C_径向重复_x3E_-89" data-name="_x3C_径向重复_x3E_">
      <g id="_x3C_径向重复_x3E_-90" data-name="_x3C_径向重复_x3E_">
        <path class="cls-1" d="M23.17,40.22c1.49-2.31,4.48-2.92,6.38-1.3,3.78,3.22,7.56,6.44,11.34,9.66,4.18,3.56,8.35,7.11,12.53,10.67.12.1.14.3.05.45-.09.14-.25.22-.43.14l-28.41-13.27c-2.27-1.06-2.96-4.03-1.47-6.34Z"/>
      </g>
    </g>
    <g id="_x3C_径向重复_x3E_-91" data-name="_x3C_径向重复_x3E_">
      <g id="_x3C_径向重复_x3E_-92" data-name="_x3C_径向重复_x3E_">
        <path class="cls-1" d="M33.74,28.02c2.08-1.8,5.12-1.54,6.49.56,2.72,4.15,5.44,8.31,8.16,12.46,3.01,4.59,6.01,9.18,9.02,13.76.09.13.05.33-.08.44-.12.11-.31.14-.45.02l-23.52-20.74c-1.88-1.66-1.7-4.7.37-6.5Z"/>
      </g>
    </g>
    <g id="_x3C_径向重复_x3E_-93" data-name="_x3C_径向重复_x3E_">
      <g id="_x3C_径向重复_x3E_-94" data-name="_x3C_径向重复_x3E_">
        <path class="cls-1" d="M47.32,19.3c2.5-1.14,5.34-.04,6.07,2.36,1.44,4.75,2.88,9.51,4.32,14.26,1.59,5.25,3.18,10.5,4.77,15.75.05.15-.04.33-.2.4-.15.07-.33.05-.43-.11l-16.72-26.52c-1.34-2.12-.31-4.99,2.19-6.13Z"/>
      </g>
    </g>
    <g id="_x3C_径向重复_x3E_-95" data-name="_x3C_径向重复_x3E_">
      <g id="_x3C_径向重复_x3E_-96" data-name="_x3C_径向重复_x3E_">
        <path class="cls-1" d="M62.8,14.75c2.72-.39,5.14,1.47,5.16,3.98.04,4.97.09,9.93.13,14.9.05,5.48.1,10.97.14,16.45,0,.16-.13.3-.31.33-.16.02-.33-.05-.39-.23l-8.57-30.16c-.68-2.41,1.11-4.88,3.83-5.27Z"/>
      </g>
    </g>
    <g id="_x3C_径向重复_x3E_-97" data-name="_x3C_径向重复_x3E_">
      <g id="_x3C_径向重复_x3E_-98" data-name="_x3C_径向重复_x3E_">
        <path class="cls-1" d="M78.93,14.75c2.72.39,4.51,2.86,3.83,5.27-1.36,4.78-2.72,9.55-4.07,14.33-1.5,5.28-3,10.55-4.5,15.83-.04.16-.21.25-.39.23-.16-.02-.31-.14-.31-.33l.27-31.35c.02-2.5,2.44-4.37,5.16-3.98Z"/>
      </g>
    </g>
    <g id="_x3C_径向重复_x3E_-99" data-name="_x3C_径向重复_x3E_">
      <g id="_x3C_径向重复_x3E_-100" data-name="_x3C_径向重复_x3E_">
        <path class="cls-1" d="M94.42,19.3c2.5,1.14,3.53,4.02,2.19,6.13-2.65,4.2-5.3,8.4-7.95,12.6-2.93,4.64-5.85,9.28-8.78,13.92-.09.14-.27.18-.43.11-.15-.07-.26-.22-.2-.4l9.1-30.01c.73-2.4,3.57-3.5,6.07-2.36Z"/>
      </g>
    </g>
    <g id="_x3C_径向重复_x3E_-101" data-name="_x3C_径向重复_x3E_">
      <g id="_x3C_径向重复_x3E_-102" data-name="_x3C_径向重复_x3E_">
        <path class="cls-1" d="M107.99,28.02c2.08,1.8,2.25,4.85.37,6.5-3.72,3.28-7.45,6.57-11.17,9.85-4.11,3.63-8.23,7.26-12.34,10.88-.12.11-.31.1-.45-.02-.12-.11-.18-.28-.08-.44l17.18-26.23c1.37-2.09,4.41-2.35,6.49-.55Z"/>
      </g>
    </g>
    <g id="_x3C_径向重复_x3E_-103" data-name="_x3C_径向重复_x3E_">
      <g id="_x3C_径向重复_x3E_-104" data-name="_x3C_径向重复_x3E_">
        <path class="cls-1" d="M118.56,40.22c1.49,2.31.8,5.28-1.47,6.34-4.5,2.1-9,4.2-13.5,6.31-4.97,2.32-9.94,4.64-14.91,6.97-.15.07-.33,0-.43-.14-.09-.14-.1-.32.05-.45l23.87-20.33c1.91-1.62,4.9-1.02,6.38,1.3Z"/>
      </g>
    </g>
    <g id="_x3C_径向重复_x3E_-105" data-name="_x3C_径向重复_x3E_">
      <g id="_x3C_径向重复_x3E_-106" data-name="_x3C_径向重复_x3E_">
        <path class="cls-1" d="M125.26,54.89c.77,2.64-.73,5.29-3.2,5.67-4.91.75-9.82,1.5-14.73,2.25-5.42.83-10.84,1.66-16.27,2.48-.16.02-.32-.09-.37-.26-.05-.16,0-.34.17-.41l28.63-12.78c2.29-1.02,4.99.41,5.76,3.04Z"/>
      </g>
    </g>
  </g>
</svg>