<?xml version="1.0" encoding="UTF-8"?>
<svg id="_图层_1" data-name="图层_1" xmlns="http://www.w3.org/2000/svg" viewBox="0 0 185.39 130.66">
  <defs>
    <style>
      .cls-1 {
        fill: #f4bc1f;
      }

      .cls-2 {
        fill: #ea572a;
      }

      .cls-3 {
        fill: #fbf6cb;
      }

      .cls-4 {
        fill: #f8cb78;
      }
    </style>
  </defs>
  <g>
    <g id="_x3C_径向重复_x3E_">
      <polygon class="cls-2" points="143.84 66.71 103.31 65.33 143.84 63.95 143.84 66.71"/>
    </g>
    <g id="_x3C_径向重复_x3E_-2" data-name="_x3C_径向重复_x3E_">
      <polygon class="cls-2" points="139.92 84.84 102.63 68.98 140.92 82.27 139.92 84.84"/>
    </g>
    <g id="_x3C_径向重复_x3E_-3" data-name="_x3C_径向重复_x3E_">
      <polygon class="cls-2" points="129.68 100.33 100.67 72.13 131.55 98.3 129.68 100.33"/>
    </g>
    <g id="_x3C_径向重复_x3E_-4" data-name="_x3C_径向重复_x3E_">
      <polygon class="cls-2" points="114.52 111.1 97.7 74.36 117 109.87 114.52 111.1"/>
    </g>
    <g id="_x3C_径向重复_x3E_-5" data-name="_x3C_径向重复_x3E_">
      <polygon class="cls-2" points="96.48 115.69 94.11 75.38 99.23 115.43 96.48 115.69"/>
    </g>
    <g id="_x3C_径向重复_x3E_-6" data-name="_x3C_径向重复_x3E_">
      <polygon class="cls-2" points="77.99 113.47 90.41 75.03 80.65 114.23 77.99 113.47"/>
    </g>
    <g id="_x3C_径向重复_x3E_-7" data-name="_x3C_径向重复_x3E_">
      <polygon class="cls-2" points="61.55 104.76 87.07 73.38 63.76 106.42 61.55 104.76"/>
    </g>
    <g id="_x3C_径向重复_x3E_-8" data-name="_x3C_径向重复_x3E_">
      <polygon class="cls-2" points="49.38 90.72 84.57 70.64 50.84 93.06 49.38 90.72"/>
    </g>
    <g id="_x3C_径向重复_x3E_-9" data-name="_x3C_径向重复_x3E_">
      <polygon class="cls-2" points="43.13 73.25 83.22 67.18 43.64 75.95 43.13 73.25"/>
    </g>
    <g id="_x3C_径向重复_x3E_-10" data-name="_x3C_径向重复_x3E_">
      <polygon class="cls-2" points="43.64 54.71 83.22 63.48 43.13 57.42 43.64 54.71"/>
    </g>
    <g id="_x3C_径向重复_x3E_-11" data-name="_x3C_径向重复_x3E_">
      <polygon class="cls-2" points="50.84 37.6 84.57 60.02 49.38 39.95 50.84 37.6"/>
    </g>
    <g id="_x3C_径向重复_x3E_-12" data-name="_x3C_径向重复_x3E_">
      <polygon class="cls-2" points="63.76 24.25 87.07 57.28 61.55 25.91 63.76 24.25"/>
    </g>
    <g id="_x3C_径向重复_x3E_-13" data-name="_x3C_径向重复_x3E_">
      <polygon class="cls-2" points="80.65 16.44 90.41 55.63 77.99 17.19 80.65 16.44"/>
    </g>
    <g id="_x3C_径向重复_x3E_-14" data-name="_x3C_径向重复_x3E_">
      <polygon class="cls-2" points="99.23 15.23 94.12 55.28 96.48 14.97 99.23 15.23"/>
    </g>
    <g id="_x3C_径向重复_x3E_-15" data-name="_x3C_径向重复_x3E_">
      <polygon class="cls-2" points="117 20.79 97.7 56.3 114.52 19.56 117 20.79"/>
    </g>
    <g id="_x3C_径向重复_x3E_-16" data-name="_x3C_径向重复_x3E_">
      <polygon class="cls-2" points="131.55 32.36 100.67 58.53 129.68 30.33 131.55 32.36"/>
    </g>
    <g id="_x3C_径向重复_x3E_-17" data-name="_x3C_径向重复_x3E_">
      <polygon class="cls-2" points="140.92 48.39 102.63 61.69 139.92 45.82 140.92 48.39"/>
    </g>
  </g>
  <g>
    <path class="cls-3" d="M83.7,65.34c0,.55-2.92.67-11.34,1.84-.76.11-15.4,2.14-20.53-.28-.46-.22-1.73-.82-1.73-1.61,0-.76,1.18-1.33,1.6-1.54,5.11-2.47,20.59-.29,20.59-.29,8.48,1.2,11.4,1.32,11.4,1.88Z"/>
    <path class="cls-3" d="M84.34,61.93c-.2.51-2.96-.43-11.24-2.36-.75-.18-15.14-3.54-19.05-7.64-.35-.37-1.32-1.38-1.02-2.12.28-.71,1.58-.82,2.05-.86,5.66-.47,19.31,7.14,19.31,7.14,7.47,4.17,10.15,5.34,9.95,5.85Z"/>
    <path class="cls-3" d="M86.17,58.98c-.37.41-2.61-1.46-9.62-6.25-.64-.43-12.83-8.75-14.99-13.98-.19-.47-.73-1.76-.18-2.35.52-.56,1.77-.2,2.22-.06,5.45,1.6,15.41,13.6,15.41,13.6,5.46,6.57,7.53,8.63,7.16,9.03Z"/>
    <path class="cls-3" d="M88.95,56.89c-.5.24-1.9-2.3-6.71-9.29-.44-.63-8.79-12.77-8.9-18.43,0-.51-.04-1.9.68-2.26.69-.34,1.72.45,2.1.74,4.5,3.46,9.44,18.23,9.44,18.23,2.71,8.09,3.89,10.75,3.4,11Z"/>
    <path class="cls-3" d="M92.29,55.94c-.55.05-.94-2.83-2.88-11.07-.18-.75-3.56-15.07-1.62-20.38.17-.48.66-1.79,1.45-1.86.76-.07,1.44,1.04,1.69,1.45,2.94,4.84,2.19,20.39,2.19,20.39-.41,8.52-.27,11.43-.82,11.48Z"/>
    <path class="cls-3" d="M95.76,56.25c-.53-.15.15-2.98,1.33-11.36.11-.76,2.14-15.34,5.89-19.59.34-.38,1.26-1.43,2.03-1.21.74.21.96,1.49,1.05,1.95.99,5.57-5.36,19.8-5.36,19.8-3.48,7.8-4.4,10.56-4.93,10.41Z"/>
    <path class="cls-3" d="M98.88,57.79c-.44-.33,1.22-2.72,5.36-10.12.38-.67,7.56-13.53,12.6-16.15.45-.23,1.69-.88,2.33-.4.61.46.36,1.74.27,2.2-1.1,5.55-12.18,16.54-12.18,16.54-6.07,6.02-7.93,8.26-8.37,7.93Z"/>
    <path class="cls-3" d="M101.23,60.35c-.29-.47,2.13-2.1,8.67-7.51.59-.49,11.96-9.9,17.6-10.53.51-.06,1.9-.21,2.32.47.4.65-.3,1.75-.55,2.15-3.04,4.78-17.36,11.04-17.36,11.04-7.84,3.43-10.39,4.85-10.68,4.38Z"/>
    <path class="cls-3" d="M102.49,63.58c-.1-.54,2.75-1.19,10.81-3.88.73-.24,14.74-4.93,20.23-3.48.49.13,1.85.49,1.99,1.27.14.75-.91,1.52-1.29,1.8-4.57,3.37-20.19,4.05-20.19,4.05-8.56.38-11.45.78-11.55.24Z"/>
    <path class="cls-3" d="M102.5,67.05c.1-.54,2.99-.12,11.48.27.77.04,15.53.71,20.13,4.03.41.3,1.55,1.12,1.4,1.9-.14.75-1.4,1.09-1.86,1.22-5.48,1.49-20.3-3.48-20.3-3.48-8.12-2.73-10.96-3.39-10.86-3.93Z"/>
    <path class="cls-3" d="M101.24,70.29c.29-.47,2.83.96,10.61,4.38.71.31,14.23,6.25,17.31,11,.28.43,1.04,1.6.61,2.27-.41.65-1.7.52-2.17.47-5.65-.58-17.66-10.55-17.66-10.55-6.58-5.46-8.99-7.1-8.7-7.57Z"/>
    <path class="cls-3" d="M98.9,72.85c.44-.33,2.29,1.92,8.31,7.9.55.54,11,10.95,12.15,16.48.1.5.39,1.86-.25,2.34-.61.46-1.78-.13-2.2-.35-5.06-2.57-12.64-16.19-12.64-16.19-4.15-7.46-5.81-9.86-5.37-10.19Z"/>
    <path class="cls-3" d="M95.78,74.4c.53-.15,1.44,2.61,4.88,10.36.31.7,6.29,14.16,5.35,19.74-.08.5-.31,1.88-1.08,2.09-.74.21-1.61-.76-1.92-1.11-3.79-4.22-5.91-19.65-5.91-19.65-1.17-8.45-1.84-11.28-1.31-11.43Z"/>
    <path class="cls-3" d="M92.32,74.73c.55.05.4,2.96.79,11.41.04.77.72,15.47-2.17,20.33-.26.44-.97,1.64-1.77,1.56-.76-.07-1.22-1.29-1.39-1.73-2-5.3,1.61-20.45,1.61-20.45,1.98-8.3,2.38-11.18,2.93-11.13Z"/>
    <path class="cls-3" d="M88.97,73.78c.49.25-.7,2.9-3.4,10.93-.24.73-4.94,14.68-9.4,18.18-.4.31-1.5,1.18-2.22.82-.69-.34-.67-1.64-.67-2.11.06-5.66,8.92-18.49,8.92-18.49,4.86-7.03,6.27-9.57,6.77-9.33Z"/>
    <path class="cls-3" d="M86.18,71.7c.37.41-1.7,2.45-7.13,8.96-.49.59-9.93,11.92-15.36,13.57-.49.15-1.83.56-2.36-.03-.52-.57-.03-1.77.14-2.21,2.11-5.26,15.02-14.03,15.02-14.03,7.08-4.81,9.32-6.67,9.69-6.26Z"/>
    <path class="cls-3" d="M84.35,68.75c.2.51-2.48,1.67-9.9,5.79-.67.37-13.58,7.54-19.25,7.13-.51-.04-1.91-.14-2.19-.88-.28-.71.61-1.67.94-2.01,3.87-4.14,19.1-7.68,19.1-7.68,8.34-1.94,11.11-2.87,11.31-2.35Z"/>
  </g>
  <g>
    <g id="_x3C_径向重复_x3E_-18" data-name="_x3C_径向重复_x3E_">
      <path class="cls-1" d="M49.64,65.34c0,.22-1.18.27-4.6.75-.31.04-6.25.87-8.33-.11-.19-.09-.7-.33-.7-.65,0-.31.48-.54.65-.62,2.08-1,8.36-.12,8.36-.12,3.44.49,4.63.54,4.63.76Z"/>
    </g>
    <g id="_x3C_径向重复_x3E_-19" data-name="_x3C_径向重复_x3E_">
      <path class="cls-1" d="M52.58,49.67c-.08.21-1.2-.17-4.56-.96-.3-.07-6.14-1.44-7.73-3.1-.14-.15-.53-.56-.42-.86.11-.29.64-.33.83-.35,2.3-.19,7.84,2.9,7.84,2.9,3.03,1.69,4.12,2.17,4.04,2.37Z"/>
    </g>
    <g id="_x3C_径向重复_x3E_-20" data-name="_x3C_径向重复_x3E_">
      <path class="cls-1" d="M61,36.12c-.15.16-1.06-.59-3.91-2.54-.26-.18-5.21-3.55-6.08-5.67-.08-.19-.29-.71-.08-.95.21-.23.72-.08.9-.03,2.21.65,6.26,5.52,6.26,5.52,2.22,2.67,3.06,3.5,2.9,3.67Z"/>
    </g>
    <g id="_x3C_径向重复_x3E_-21" data-name="_x3C_径向重复_x3E_">
      <path class="cls-1" d="M73.77,26.52c-.2.1-.77-.93-2.72-3.77-.18-.26-3.57-5.18-3.61-7.48,0-.21-.02-.77.28-.92.28-.14.7.18.85.3,1.83,1.4,3.83,7.4,3.83,7.4,1.1,3.28,1.58,4.36,1.38,4.46Z"/>
    </g>
    <g id="_x3C_径向重复_x3E_-22" data-name="_x3C_径向重复_x3E_">
      <path class="cls-1" d="M89.16,22.16c-.22.02-.38-1.15-1.17-4.49-.07-.3-1.45-6.12-.66-8.27.07-.19.27-.73.59-.75.31-.03.58.42.68.59,1.19,1.97.89,8.28.89,8.28-.17,3.46-.11,4.64-.33,4.66Z"/>
    </g>
    <g id="_x3C_径向重复_x3E_-23" data-name="_x3C_径向重复_x3E_">
      <path class="cls-1" d="M105.09,23.63c-.22-.06.06-1.21.54-4.61.04-.31.87-6.22,2.39-7.95.14-.15.51-.58.82-.49.3.09.39.61.42.79.4,2.26-2.17,8.04-2.17,8.04-1.41,3.16-1.79,4.28-2,4.22Z"/>
    </g>
    <g id="_x3C_径向重复_x3E_-24" data-name="_x3C_径向重复_x3E_">
      <path class="cls-1" d="M119.41,30.73c-.18-.14.5-1.1,2.17-4.11.15-.27,3.07-5.49,5.11-6.55.18-.1.69-.36.95-.16.25.19.15.71.11.89-.45,2.25-4.94,6.71-4.94,6.71-2.46,2.44-3.22,3.35-3.4,3.22Z"/>
    </g>
    <g id="_x3C_径向重复_x3E_-25" data-name="_x3C_径向重复_x3E_">
      <path class="cls-1" d="M130.2,42.5c-.12-.19.86-.85,3.52-3.05.24-.2,4.85-4.02,7.14-4.27.21-.02.77-.09.94.19.16.26-.12.71-.22.87-1.23,1.94-7.04,4.48-7.04,4.48-3.18,1.39-4.22,1.97-4.34,1.78Z"/>
    </g>
    <g id="_x3C_径向重复_x3E_-26" data-name="_x3C_径向重复_x3E_">
      <path class="cls-1" d="M135.98,57.36c-.04-.22,1.11-.48,4.39-1.58.3-.1,5.98-2,8.21-1.41.2.05.75.2.81.51.06.31-.37.62-.52.73-1.85,1.37-8.19,1.64-8.19,1.64-3.47.15-4.65.32-4.69.1Z"/>
    </g>
    <g id="_x3C_径向重复_x3E_-27" data-name="_x3C_径向重复_x3E_">
      <path class="cls-1" d="M135.98,73.29c.04-.22,1.21-.05,4.66.11.31.01,6.3.29,8.17,1.64.17.12.63.45.57.77-.06.3-.57.44-.75.49-2.23.61-8.24-1.41-8.24-1.41-3.29-1.11-4.45-1.38-4.41-1.6Z"/>
    </g>
    <g id="_x3C_径向重复_x3E_-28" data-name="_x3C_径向重复_x3E_">
      <path class="cls-1" d="M130.2,88.15c.12-.19,1.15.39,4.31,1.78.29.13,5.77,2.54,7.03,4.46.11.17.42.65.25.92-.16.26-.69.21-.88.19-2.29-.23-7.17-4.28-7.17-4.28-2.67-2.22-3.65-2.88-3.53-3.07Z"/>
    </g>
    <g id="_x3C_径向重复_x3E_-29" data-name="_x3C_径向重复_x3E_">
      <path class="cls-1" d="M119.42,99.93c.18-.13.93.78,3.37,3.21.22.22,4.46,4.44,4.93,6.69.04.2.16.76-.1.95-.25.19-.72-.05-.89-.14-2.05-1.04-5.13-6.57-5.13-6.57-1.69-3.03-2.36-4-2.18-4.14Z"/>
    </g>
    <g id="_x3C_径向重复_x3E_-30" data-name="_x3C_径向重复_x3E_">
      <path class="cls-1" d="M105.1,107.03c.22-.06.59,1.06,1.98,4.2.13.29,2.55,5.75,2.17,8.01-.03.2-.13.76-.44.85-.3.08-.65-.31-.78-.45-1.54-1.71-2.4-7.97-2.4-7.97-.47-3.43-.75-4.58-.53-4.64Z"/>
    </g>
    <g id="_x3C_径向重复_x3E_-31" data-name="_x3C_径向重复_x3E_">
      <path class="cls-1" d="M89.17,108.5c.22.02.16,1.2.32,4.63.01.31.29,6.28-.88,8.25-.11.18-.4.66-.72.63-.31-.03-.5-.52-.56-.7-.81-2.15.65-8.3.65-8.3.8-3.37.96-4.54,1.19-4.52Z"/>
    </g>
    <g id="_x3C_径向重复_x3E_-32" data-name="_x3C_径向重复_x3E_">
      <path class="cls-1" d="M73.78,104.14c.2.1-.28,1.18-1.38,4.43-.1.3-2,5.96-3.82,7.38-.16.13-.61.48-.9.33-.28-.14-.27-.67-.27-.86.02-2.3,3.62-7.5,3.62-7.5,1.97-2.85,2.55-3.89,2.75-3.79Z"/>
    </g>
    <g id="_x3C_径向重复_x3E_-33" data-name="_x3C_径向重复_x3E_">
      <path class="cls-1" d="M61.01,94.54c.15.17-.69.99-2.9,3.64-.2.24-4.03,4.84-6.23,5.51-.2.06-.74.23-.96-.01-.21-.23-.01-.72.06-.9.85-2.13,6.1-5.69,6.1-5.69,2.87-1.95,3.78-2.71,3.93-2.54Z"/>
    </g>
    <g id="_x3C_径向重复_x3E_-34" data-name="_x3C_径向重复_x3E_">
      <path class="cls-1" d="M52.58,81c.08.21-1.01.68-4.02,2.35-.27.15-5.51,3.06-7.81,2.89-.21-.01-.77-.06-.89-.36-.11-.29.25-.68.38-.82,1.57-1.68,7.75-3.12,7.75-3.12,3.39-.79,4.51-1.16,4.59-.95Z"/>
    </g>
  </g>
  <g>
    <g id="_x3C_径向重复_x3E_-35" data-name="_x3C_径向重复_x3E_">
      <path class="cls-4" d="M67.23,65.33c0-1.43,1.26-2.55,2.69-2.37,2.84.35,5.67.69,8.51,1.04,3.13.38,6.26.77,9.4,1.15.09.01.16.09.16.18,0,.08-.05.17-.16.18l-17.91,2.19c-1.43.17-2.69-.94-2.69-2.37Z"/>
    </g>
    <g id="_x3C_径向重复_x3E_-36" data-name="_x3C_径向重复_x3E_">
      <path class="cls-4" d="M68.98,56c.52-1.34,2.1-1.92,3.37-1.24,2.52,1.34,5.04,2.69,7.56,4.03,2.78,1.48,5.56,2.97,8.35,4.45.08.04.12.14.08.23-.03.08-.11.14-.22.11l-17.49-4.4c-1.4-.35-2.17-1.84-1.65-3.18Z"/>
    </g>
    <g id="_x3C_径向重复_x3E_-37" data-name="_x3C_径向重复_x3E_">
      <path class="cls-4" d="M74,47.92c.97-1.06,2.65-1.04,3.59.05,1.86,2.16,3.72,4.32,5.58,6.48,2.06,2.38,4.11,4.77,6.17,7.15.06.07.06.18,0,.24-.06.06-.15.09-.24.03l-14.71-10.4c-1.17-.83-1.36-2.5-.38-3.56Z"/>
    </g>
    <g id="_x3C_径向重复_x3E_-38" data-name="_x3C_径向重复_x3E_">
      <path class="cls-4" d="M81.61,42.2c1.29-.64,2.85-.01,3.33,1.34.95,2.68,1.91,5.37,2.86,8.05,1.05,2.96,2.1,5.93,3.16,8.89.03.09,0,.18-.09.23-.08.04-.18.03-.24-.06l-9.95-14.99c-.79-1.2-.36-2.82.93-3.46Z"/>
    </g>
    <g id="_x3C_径向重复_x3E_-39" data-name="_x3C_径向重复_x3E_">
      <path class="cls-4" d="M90.79,39.6c1.43-.13,2.66,1.02,2.62,2.45-.08,2.84-.17,5.69-.25,8.53-.09,3.14-.19,6.28-.28,9.42,0,.09-.07.17-.17.18-.08,0-.17-.04-.2-.14l-3.84-17.55c-.31-1.4.69-2.75,2.12-2.89Z"/>
    </g>
    <g id="_x3C_径向重复_x3E_-40" data-name="_x3C_径向重复_x3E_">
      <path class="cls-4" d="M100.28,40.48c1.39.39,2.11,1.9,1.55,3.23-1.11,2.62-2.22,5.24-3.33,7.87-1.23,2.9-2.45,5.79-3.68,8.69-.04.09-.13.13-.22.11-.08-.02-.15-.1-.13-.21l2.79-17.75c.22-1.42,1.64-2.32,3.03-1.93Z"/>
    </g>
    <g id="_x3C_径向重复_x3E_-41" data-name="_x3C_径向重复_x3E_">
      <path class="cls-4" d="M108.82,44.71c1.15.86,1.28,2.54.28,3.57-1.99,2.04-3.97,4.09-5.96,6.13-2.19,2.26-4.39,4.52-6.58,6.78-.06.07-.17.07-.24.02-.07-.05-.1-.14-.05-.24l9.04-15.55c.72-1.24,2.37-1.57,3.52-.71Z"/>
    </g>
    <g id="_x3C_径向重复_x3E_-42" data-name="_x3C_径向重复_x3E_">
      <path class="cls-4" d="M115.24,51.73c.76,1.22.27,2.83-1.03,3.43-2.59,1.19-5.19,2.38-7.78,3.58-2.87,1.32-5.73,2.63-8.6,3.95-.08.04-.19,0-.23-.07-.04-.07-.04-.17.04-.24l14.07-11.25c1.12-.9,2.78-.61,3.54.61Z"/>
    </g>
    <g id="_x3C_径向重复_x3E_-43" data-name="_x3C_径向重复_x3E_">
      <path class="cls-4" d="M118.69,60.58c.26,1.41-.77,2.73-2.21,2.82-2.85.18-5.7.36-8.56.53-3.15.2-6.3.39-9.45.59-.09,0-.18-.06-.19-.15-.02-.08.02-.18.13-.21l17.2-5.43c1.37-.43,2.82.43,3.08,1.84Z"/>
    </g>
    <g id="_x3C_径向重复_x3E_-44" data-name="_x3C_径向重复_x3E_">
      <path class="cls-4" d="M118.69,70.08c-.26,1.41-1.71,2.27-3.08,1.84-2.72-.86-5.45-1.72-8.17-2.58-3.01-.95-6.02-1.9-9.03-2.85-.09-.03-.14-.12-.13-.21.02-.08.08-.16.19-.15l18.01,1.13c1.44.09,2.47,1.41,2.21,2.82Z"/>
    </g>
    <g id="_x3C_径向重复_x3E_-45" data-name="_x3C_径向重复_x3E_">
      <path class="cls-4" d="M115.24,78.93c-.76,1.22-2.42,1.5-3.54.61-2.23-1.78-4.46-3.56-6.68-5.34-2.46-1.97-4.92-3.94-7.38-5.9-.07-.06-.09-.16-.04-.24.04-.07.14-.12.23-.07l16.38,7.53c1.31.6,1.79,2.21,1.03,3.43Z"/>
    </g>
    <g id="_x3C_径向重复_x3E_-46" data-name="_x3C_径向重复_x3E_">
      <path class="cls-4" d="M108.82,85.95c-1.15.86-2.8.53-3.52-.71-1.43-2.46-2.86-4.93-4.29-7.39-1.58-2.72-3.16-5.44-4.74-8.16-.05-.08-.03-.18.05-.24.07-.05.17-.06.24.02l12.54,12.91c1,1.03.87,2.7-.28,3.57Z"/>
    </g>
    <g id="_x3C_径向重复_x3E_-47" data-name="_x3C_径向重复_x3E_">
      <path class="cls-4" d="M100.28,90.18c-1.39.39-2.8-.51-3.03-1.93-.44-2.81-.88-5.62-1.32-8.43-.49-3.1-.97-6.21-1.46-9.31-.01-.09.04-.18.13-.21.08-.02.18,0,.22.11l7.01,16.55c.56,1.32-.17,2.83-1.55,3.23Z"/>
    </g>
    <g id="_x3C_径向重复_x3E_-48" data-name="_x3C_径向重复_x3E_">
      <path class="cls-4" d="M90.79,91.06c-1.43-.13-2.43-1.49-2.12-2.89.61-2.78,1.22-5.56,1.82-8.34.67-3.07,1.34-6.14,2.02-9.21.02-.09.1-.15.2-.14.08,0,.16.07.17.18l.54,17.96c.04,1.43-1.18,2.58-2.62,2.45Z"/>
    </g>
    <g id="_x3C_径向重复_x3E_-49" data-name="_x3C_径向重复_x3E_">
      <path class="cls-4" d="M81.61,88.46c-1.29-.64-1.73-2.26-.93-3.46,1.58-2.37,3.15-4.75,4.73-7.12,1.74-2.62,3.48-5.24,5.22-7.86.05-.08.15-.1.24-.06.08.04.13.12.09.23l-6.01,16.94c-.48,1.35-2.04,1.98-3.33,1.34Z"/>
    </g>
    <g id="_x3C_径向重复_x3E_-50" data-name="_x3C_径向重复_x3E_">
      <path class="cls-4" d="M74,82.74c-.97-1.06-.79-2.73.38-3.56,2.33-1.65,4.66-3.29,6.99-4.94,2.57-1.82,5.15-3.64,7.72-5.46.08-.05.18-.04.24.03.06.06.07.16,0,.24l-11.75,13.63c-.94,1.09-2.62,1.11-3.59.05Z"/>
    </g>
    <g id="_x3C_径向重复_x3E_-51" data-name="_x3C_径向重复_x3E_">
      <path class="cls-4" d="M68.98,74.66c-.52-1.34.25-2.83,1.65-3.18,2.77-.7,5.54-1.39,8.31-2.09,3.06-.77,6.12-1.54,9.18-2.31.09-.02.18.03.22.11.03.08.01.18-.08.23l-15.9,8.48c-1.27.68-2.85.09-3.37-1.24Z"/>
    </g>
  </g>
</svg>