<?xml version="1.0" encoding="UTF-8"?>
<svg id="_图层_1" data-name="图层_1" xmlns="http://www.w3.org/2000/svg" viewBox="0 0 141.73 141.73">
  <defs>
    <style>
      .cls-1 {
        fill: #c7e3c9;
      }

      .cls-2 {
        fill: #349394;
      }

      .cls-3 {
        fill: #80c489;
      }
    </style>
  </defs>
  <g>
    <g id="_x3C_径向重复_x3E_">
      <path class="cls-3" d="M70.59,127.24c-.47-1.16-1.26-7.05.28-45.04,1.53,37.99.74,43.88.28,45.04-.17.43-.38.43-.56,0Z"/>
    </g>
    <g id="_x3C_径向重复_x3E_-2" data-name="_x3C_径向重复_x3E_">
      <path class="cls-3" d="M53.18,124.4c-.09-1.25.98-7.09,14.18-42.75-10.28,36.6-12.85,41.96-13.65,42.92-.29.35-.5.29-.53-.17Z"/>
    </g>
    <g id="_x3C_径向重复_x3E_-3" data-name="_x3C_径向重复_x3E_">
      <path class="cls-3" d="M37.51,116.31c.3-1.21,3.13-6.44,26.7-36.27-21.09,31.64-25.19,35.93-26.25,36.6-.39.24-.56.12-.45-.33Z"/>
    </g>
    <g id="_x3C_径向重复_x3E_-4" data-name="_x3C_径向重复_x3E_">
      <path class="cls-3" d="M25.1,103.78c.66-1.06,4.96-5.16,36.6-26.25-29.83,23.57-35.06,26.39-36.27,26.7-.44.11-.57-.06-.33-.45Z"/>
    </g>
    <g id="_x3C_径向重复_x3E_-5" data-name="_x3C_径向重复_x3E_">
      <path class="cls-3" d="M17.17,88.02c.96-.8,6.31-3.37,42.92-13.65-35.66,13.2-41.5,14.27-42.75,14.18-.46-.03-.52-.23-.17-.53Z"/>
    </g>
    <g id="_x3C_径向重复_x3E_-6" data-name="_x3C_径向重复_x3E_">
      <path class="cls-3" d="M14.49,70.59c1.16-.47,7.05-1.26,45.04.28-37.99,1.53-43.88.74-45.04.28-.43-.17-.43-.38,0-.56Z"/>
    </g>
    <g id="_x3C_径向重复_x3E_-7" data-name="_x3C_径向重复_x3E_">
      <path class="cls-3" d="M17.34,53.18c1.25-.09,7.09.98,42.75,14.18-36.6-10.28-41.96-12.85-42.92-13.65-.35-.29-.29-.5.17-.53Z"/>
    </g>
    <g id="_x3C_径向重复_x3E_-8" data-name="_x3C_径向重复_x3E_">
      <path class="cls-3" d="M25.42,37.51c1.21.3,6.44,3.13,36.27,26.7-31.64-21.09-35.93-25.19-36.6-26.25-.24-.39-.12-.56.33-.45Z"/>
    </g>
    <g id="_x3C_径向重复_x3E_-9" data-name="_x3C_径向重复_x3E_">
      <path class="cls-3" d="M37.96,25.1c1.06.66,5.16,4.96,26.25,36.6-23.57-29.83-26.39-35.06-26.7-36.27-.11-.44.06-.57.45-.33Z"/>
    </g>
    <g id="_x3C_径向重复_x3E_-10" data-name="_x3C_径向重复_x3E_">
      <path class="cls-3" d="M53.71,17.17c.8.96,3.37,6.31,13.65,42.92-13.2-35.66-14.27-41.5-14.18-42.75.03-.46.23-.52.53-.17Z"/>
    </g>
    <g id="_x3C_径向重复_x3E_-11" data-name="_x3C_径向重复_x3E_">
      <path class="cls-3" d="M71.14,14.49c.47,1.16,1.26,7.05-.28,45.04-1.53-37.99-.74-43.88-.28-45.04.17-.43.38-.43.56,0Z"/>
    </g>
    <g id="_x3C_径向重复_x3E_-12" data-name="_x3C_径向重复_x3E_">
      <path class="cls-3" d="M88.55,17.34c.09,1.25-.98,7.09-14.18,42.75,10.28-36.6,12.85-41.96,13.65-42.92.29-.35.5-.29.53.17Z"/>
    </g>
    <g id="_x3C_径向重复_x3E_-13" data-name="_x3C_径向重复_x3E_">
      <path class="cls-3" d="M104.23,25.42c-.3,1.21-3.13,6.44-26.7,36.27,21.09-31.64,25.19-35.93,26.25-36.6.39-.24.56-.12.45.33Z"/>
    </g>
    <g id="_x3C_径向重复_x3E_-14" data-name="_x3C_径向重复_x3E_">
      <path class="cls-3" d="M116.64,37.95c-.66,1.06-4.96,5.16-36.6,26.25,29.83-23.57,35.06-26.39,36.27-26.7.44-.11.57.06.33.45Z"/>
    </g>
    <g id="_x3C_径向重复_x3E_-15" data-name="_x3C_径向重复_x3E_">
      <path class="cls-3" d="M124.57,53.71c-.96.8-6.31,3.37-42.92,13.65,35.66-13.2,41.5-14.27,42.75-14.18.46.03.52.23.17.53Z"/>
    </g>
    <g id="_x3C_径向重复_x3E_-16" data-name="_x3C_径向重复_x3E_">
      <path class="cls-3" d="M127.24,71.14c-1.16.47-7.05,1.26-45.04-.28,37.99-1.53,43.88-.74,45.04-.28.43.17.43.38,0,.56Z"/>
    </g>
    <g id="_x3C_径向重复_x3E_-17" data-name="_x3C_径向重复_x3E_">
      <path class="cls-3" d="M124.4,88.55c-1.25.09-7.09-.98-42.75-14.18,36.6,10.28,41.96,12.85,42.92,13.65.35.29.29.5-.17.53Z"/>
    </g>
    <g id="_x3C_径向重复_x3E_-18" data-name="_x3C_径向重复_x3E_">
      <path class="cls-3" d="M116.31,104.23c-1.21-.3-6.44-3.13-36.27-26.7,31.64,21.09,35.93,25.19,36.6,26.25.24.39.12.56-.33.45Z"/>
    </g>
    <g id="_x3C_径向重复_x3E_-19" data-name="_x3C_径向重复_x3E_">
      <path class="cls-3" d="M103.78,116.64c-1.06-.66-5.16-4.96-26.25-36.6,23.57,29.83,26.39,35.06,26.7,36.27.11.44-.06.57-.45.33Z"/>
    </g>
    <g id="_x3C_径向重复_x3E_-20" data-name="_x3C_径向重复_x3E_">
      <path class="cls-3" d="M88.02,124.57c-.8-.96-3.37-6.31-13.65-42.92,13.2,35.66,14.27,41.5,14.18,42.75-.03.46-.23.52-.53.17Z"/>
    </g>
  </g>
  <g>
    <g id="_x3C_径向重复_x3E_-21" data-name="_x3C_径向重复_x3E_">
      <path class="cls-2" d="M36.27,35.97c.9.38,4.58,3.19,24.67,24.97-21.78-20.09-24.59-23.77-24.97-24.66-.14-.33-.02-.45.31-.31Z"/>
    </g>
    <g id="_x3C_径向重复_x3E_-22" data-name="_x3C_径向重复_x3E_">
      <path class="cls-2" d="M48.75,26.99c.73.64,3.37,4.45,15.74,31.37-14.51-25.84-16.04-30.2-16.13-31.17-.03-.36.12-.43.39-.2Z"/>
    </g>
    <g id="_x3C_径向重复_x3E_-23" data-name="_x3C_径向重复_x3E_">
      <path class="cls-2" d="M63.39,22.3c.5.83,1.83,5.27,5.28,34.7-5.81-29.05-5.92-33.68-5.7-34.63.08-.35.24-.37.43-.07Z"/>
    </g>
    <g id="_x3C_径向重复_x3E_-24" data-name="_x3C_径向重复_x3E_">
      <path class="cls-2" d="M78.77,22.37c.22.95.11,5.58-5.7,34.63,3.45-29.43,4.78-33.87,5.28-34.7.18-.31.35-.28.43.07Z"/>
    </g>
    <g id="_x3C_径向重复_x3E_-25" data-name="_x3C_径向重复_x3E_">
      <path class="cls-2" d="M93.37,27.18c-.09.97-1.62,5.34-16.13,31.17,12.38-26.92,15.01-30.73,15.74-31.37.27-.23.42-.16.39.2Z"/>
    </g>
    <g id="_x3C_径向重复_x3E_-26" data-name="_x3C_径向重复_x3E_">
      <path class="cls-2" d="M105.76,36.27c-.38.9-3.19,4.58-24.97,24.67,20.09-21.78,23.77-24.59,24.66-24.97.33-.14.45-.02.31.31Z"/>
    </g>
    <g id="_x3C_径向重复_x3E_-27" data-name="_x3C_径向重复_x3E_">
      <path class="cls-2" d="M114.75,48.75c-.64.73-4.45,3.37-31.37,15.74,25.84-14.51,30.2-16.04,31.17-16.13.36-.03.43.12.2.39Z"/>
    </g>
    <g id="_x3C_径向重复_x3E_-28" data-name="_x3C_径向重复_x3E_">
      <path class="cls-2" d="M119.43,63.39c-.83.5-5.27,1.83-34.7,5.28,29.05-5.81,33.68-5.92,34.63-5.7.35.08.37.24.07.43Z"/>
    </g>
    <g id="_x3C_径向重复_x3E_-29" data-name="_x3C_径向重复_x3E_">
      <path class="cls-2" d="M119.37,78.77c-.95.22-5.58.11-34.63-5.7,29.43,3.45,33.87,4.78,34.7,5.28.31.18.28.35-.07.43Z"/>
    </g>
    <g id="_x3C_径向重复_x3E_-30" data-name="_x3C_径向重复_x3E_">
      <path class="cls-2" d="M114.55,93.37c-.97-.09-5.34-1.62-31.17-16.13,26.92,12.38,30.73,15.01,31.37,15.74.23.27.16.42-.2.39Z"/>
    </g>
    <g id="_x3C_径向重复_x3E_-31" data-name="_x3C_径向重复_x3E_">
      <path class="cls-2" d="M105.46,105.76c-.9-.38-4.58-3.19-24.67-24.97,21.78,20.09,24.59,23.77,24.97,24.67.14.33.02.45-.31.31Z"/>
    </g>
    <g id="_x3C_径向重复_x3E_-32" data-name="_x3C_径向重复_x3E_">
      <path class="cls-2" d="M92.98,114.75c-.73-.64-3.37-4.45-15.74-31.37,14.51,25.84,16.04,30.2,16.13,31.17.03.36-.12.43-.39.2Z"/>
    </g>
    <g id="_x3C_径向重复_x3E_-33" data-name="_x3C_径向重复_x3E_">
      <path class="cls-2" d="M78.34,119.43c-.5-.83-1.83-5.27-5.28-34.7,5.81,29.05,5.92,33.68,5.7,34.63-.08.35-.24.37-.43.07Z"/>
    </g>
    <g id="_x3C_径向重复_x3E_-34" data-name="_x3C_径向重复_x3E_">
      <path class="cls-2" d="M62.97,119.37c-.22-.95-.11-5.58,5.7-34.63-3.45,29.43-4.78,33.87-5.28,34.7-.18.31-.35.28-.43-.07Z"/>
    </g>
    <g id="_x3C_径向重复_x3E_-35" data-name="_x3C_径向重复_x3E_">
      <path class="cls-2" d="M48.37,114.55c.09-.97,1.62-5.34,16.13-31.17-12.38,26.92-15.01,30.73-15.74,31.37-.27.23-.42.16-.39-.2Z"/>
    </g>
    <g id="_x3C_径向重复_x3E_-36" data-name="_x3C_径向重复_x3E_">
      <path class="cls-2" d="M35.97,105.46c.38-.9,3.19-4.58,24.97-24.67-20.09,21.78-23.77,24.59-24.66,24.97-.33.14-.45.02-.31-.31Z"/>
    </g>
    <g id="_x3C_径向重复_x3E_-37" data-name="_x3C_径向重复_x3E_">
      <path class="cls-2" d="M26.99,92.98c.64-.73,4.45-3.37,31.37-15.74-25.84,14.51-30.2,16.04-31.17,16.13-.36.03-.43-.12-.2-.39Z"/>
    </g>
    <g id="_x3C_径向重复_x3E_-38" data-name="_x3C_径向重复_x3E_">
      <path class="cls-2" d="M22.3,78.34c.83-.5,5.27-1.83,34.7-5.28-29.05,5.81-33.68,5.92-34.63,5.7-.35-.08-.37-.24-.07-.43Z"/>
    </g>
    <g id="_x3C_径向重复_x3E_-39" data-name="_x3C_径向重复_x3E_">
      <path class="cls-2" d="M22.37,62.97c.95-.22,5.58-.11,34.63,5.7-29.43-3.45-33.87-4.78-34.7-5.28-.31-.18-.28-.35.07-.43Z"/>
    </g>
    <g id="_x3C_径向重复_x3E_-40" data-name="_x3C_径向重复_x3E_">
      <path class="cls-2" d="M27.18,48.37c.97.09,5.34,1.62,31.17,16.13-26.92-12.38-30.73-15.01-31.37-15.74-.23-.27-.16-.42.2-.39Z"/>
    </g>
  </g>
  <g>
    <g id="_x3C_径向重复_x3E_-41" data-name="_x3C_径向重复_x3E_">
      <ellipse class="cls-1" cx="70.87" cy="64.51" rx="1.31" ry="2.84"/>
    </g>
    <g id="_x3C_径向重复_x3E_-42" data-name="_x3C_径向重复_x3E_">
      <ellipse class="cls-1" cx="73.82" cy="65.24" rx="2.84" ry="1.31" transform="translate(-18.25 100.28) rotate(-62.31)"/>
    </g>
    <g id="_x3C_径向重复_x3E_-43" data-name="_x3C_径向重复_x3E_">
      <ellipse class="cls-1" cx="76.1" cy="67.26" rx="2.84" ry="1.31" transform="translate(-24.74 55.13) rotate(-34.62)"/>
    </g>
    <g id="_x3C_径向重复_x3E_-44" data-name="_x3C_径向重复_x3E_">
      <ellipse class="cls-1" cx="77.18" cy="70.1" rx="2.84" ry="1.31" transform="translate(-7.89 9.81) rotate(-6.92)"/>
    </g>
    <g id="_x3C_径向重复_x3E_-45" data-name="_x3C_径向重复_x3E_">
      <ellipse class="cls-1" cx="76.81" cy="73.12" rx="1.31" ry="2.84" transform="translate(-18.8 119.01) rotate(-69.23)"/>
    </g>
    <g id="_x3C_径向重复_x3E_-46" data-name="_x3C_径向重复_x3E_">
      <ellipse class="cls-1" cx="75.08" cy="75.62" rx="1.31" ry="2.84" transform="translate(-31.27 68.81) rotate(-41.54)"/>
    </g>
    <g id="_x3C_径向重复_x3E_-47" data-name="_x3C_径向重复_x3E_">
      <ellipse class="cls-1" cx="72.39" cy="77.04" rx="1.31" ry="2.84" transform="translate(-16.33 19.56) rotate(-13.85)"/>
    </g>
    <g id="_x3C_径向重复_x3E_-48" data-name="_x3C_径向重复_x3E_">
      <ellipse class="cls-1" cx="69.35" cy="77.04" rx="2.84" ry="1.31" transform="translate(-22.05 125.93) rotate(-76.15)"/>
    </g>
    <g id="_x3C_径向重复_x3E_-49" data-name="_x3C_径向重复_x3E_">
      <ellipse class="cls-1" cx="66.65" cy="75.62" rx="2.84" ry="1.31" transform="translate(-34.15 75.37) rotate(-48.46)"/>
    </g>
    <g id="_x3C_径向重复_x3E_-50" data-name="_x3C_径向重复_x3E_">
      <ellipse class="cls-1" cx="64.92" cy="73.12" rx="2.84" ry="1.31" transform="translate(-21.71 27.77) rotate(-20.77)"/>
    </g>
    <g id="_x3C_径向重复_x3E_-51" data-name="_x3C_径向重复_x3E_">
      <ellipse class="cls-1" cx="64.56" cy="70.1" rx="1.31" ry="2.84" transform="translate(-12.81 125.74) rotate(-83.08)"/>
    </g>
    <g id="_x3C_径向重复_x3E_-52" data-name="_x3C_径向重复_x3E_">
      <ellipse class="cls-1" cx="65.64" cy="67.26" rx="1.31" ry="2.84" transform="translate(-27 83.07) rotate(-55.38)"/>
    </g>
    <g id="_x3C_径向重复_x3E_-53" data-name="_x3C_径向重复_x3E_">
      <ellipse class="cls-1" cx="67.91" cy="65.24" rx="1.31" ry="2.84" transform="translate(-22.54 39.03) rotate(-27.69)"/>
    </g>
  </g>
</svg>