<?xml version="1.0" encoding="UTF-8"?>
<svg id="_图层_1" data-name="图层_1" xmlns="http://www.w3.org/2000/svg" viewBox="0 0 185.39 130.66">
  <defs>
    <style>
      .cls-1 {
        fill: #fed925;
      }

      .cls-2 {
        fill: #0088c0;
      }

      .cls-3 {
        fill: #f4bc1f;
      }

      .cls-4 {
        fill: #46bed6;
      }
    </style>
  </defs>
  <g>
    <path class="cls-1" d="M46.32,65.38c0,.77,10.15,1.46,18.55,1.47,8.41,0,18.54-.7,18.55-1.47,0-.76-9.83-1.57-18.45-1.57-8.74,0-18.65.81-18.65,1.57Z"/>
    <path class="cls-1" d="M48.19,52.19c-.21.74,9.33,4.29,17.39,6.68,8.07,2.39,17.99,4.61,18.2,3.87.21-.73-8.99-4.3-17.26-6.76-8.39-2.49-18.12-4.53-18.33-3.8Z"/>
    <path class="cls-1" d="M53.66,40.06c-.41.65,7.76,6.77,14.82,11.36,7.07,4.59,15.97,9.53,16.39,8.89.41-.64-7.43-6.68-14.68-11.39-7.35-4.78-16.13-9.5-16.53-8.86Z"/>
    <path class="cls-1" d="M62.29,29.98c-.57.51,5.55,8.71,11.05,15.12,5.51,6.41,12.66,13.69,13.24,13.19.57-.49-5.26-8.52-10.91-15.11-5.72-6.68-12.82-13.7-13.39-13.2Z"/>
    <path class="cls-1" d="M73.38,22.77c-.69.32,2.9,9.93,6.39,17.65,3.49,7.72,8.33,16.74,9.02,16.42.68-.31-2.67-9.67-6.25-17.6-3.63-8.03-8.48-16.79-9.16-16.47Z"/>
    <path class="cls-1" d="M86.04,19c-.75.11,0,10.36,1.2,18.75,1.2,8.4,3.32,18.43,4.08,18.32.74-.1.14-10.04-1.08-18.66-1.24-8.74-3.45-18.52-4.2-18.41Z"/>
    <path class="cls-1" d="M99.24,18.98c-.76-.11-2.88,9.94-4.08,18.33-1.2,8.4-1.96,18.63-1.2,18.74.74.11,2.93-9.6,4.17-18.21,1.25-8.74,1.86-18.75,1.11-18.86Z"/>
    <path class="cls-1" d="M111.91,22.72c-.7-.32-5.54,8.72-9.03,16.43-3.49,7.72-7.08,17.32-6.38,17.64.68.32,5.49-8.37,9.08-16.29,3.64-8.03,7.02-17.46,6.33-17.78Z"/>
    <path class="cls-1" d="M123.03,29.91c-.58-.5-7.75,6.79-13.25,13.2-5.51,6.41-11.62,14.6-11.05,15.11.57.5,7.61-6.47,13.26-13.05,5.73-6.67,11.61-14.76,11.04-15.26Z"/>
    <path class="cls-1" d="M131.68,39.97c-.42-.65-9.33,4.31-16.39,8.89-7.07,4.59-15.23,10.71-14.82,11.35.4.64,9.11-4.05,16.36-8.75,7.36-4.77,15.26-10.86,14.85-11.5Z"/>
    <path class="cls-1" d="M137.18,52.09c-.22-.74-10.15,1.48-18.21,3.87-8.07,2.39-17.6,5.94-17.39,6.68.21.73,9.87-1.29,18.14-3.74,8.39-2.48,17.67-6.08,17.45-6.81Z"/>
    <path class="cls-1" d="M139.07,65.28c0-.77-10.15-1.46-18.55-1.47-8.41,0-18.54.7-18.55,1.47,0,.76,9.83,1.57,18.45,1.57,8.74,0,18.65-.81,18.65-1.57Z"/>
    <path class="cls-1" d="M137.21,78.47c.21-.74-9.33-4.29-17.39-6.68-8.07-2.39-17.99-4.61-18.2-3.87-.21.73,8.99,4.3,17.26,6.76,8.39,2.49,18.12,4.53,18.33,3.8Z"/>
    <path class="cls-1" d="M131.74,90.59c.41-.65-7.76-6.77-14.82-11.36-7.07-4.59-15.97-9.53-16.39-8.89-.41.64,7.43,6.68,14.68,11.39,7.35,4.78,16.13,9.5,16.53,8.86Z"/>
    <path class="cls-1" d="M123.11,100.67c.57-.51-5.55-8.71-11.05-15.12-5.51-6.41-12.66-13.69-13.24-13.19-.57.49,5.26,8.52,10.91,15.11,5.72,6.68,12.82,13.7,13.39,13.2Z"/>
    <path class="cls-1" d="M112.01,107.89c.69-.32-2.9-9.93-6.39-17.65-3.49-7.72-8.33-16.74-9.02-16.42-.68.31,2.67,9.67,6.25,17.6,3.63,8.03,8.48,16.79,9.16,16.47Z"/>
    <path class="cls-1" d="M99.35,111.66c.75-.11,0-10.36-1.2-18.75-1.2-8.4-3.32-18.43-4.08-18.32-.74.1-.14,10.04,1.08,18.66,1.24,8.74,3.45,18.52,4.2,18.41Z"/>
    <path class="cls-1" d="M86.15,111.67c.76.11,2.88-9.94,4.08-18.33,1.2-8.4,1.96-18.63,1.2-18.74-.74-.11-2.93,9.6-4.17,18.21-1.25,8.74-1.86,18.75-1.11,18.86Z"/>
    <path class="cls-1" d="M73.48,107.94c.7.32,5.54-8.72,9.03-16.43,3.49-7.72,7.08-17.32,6.38-17.64-.68-.32-5.49,8.37-9.08,16.29-3.64,8.03-7.02,17.46-6.33,17.78Z"/>
    <path class="cls-1" d="M62.37,100.74c.58.5,7.75-6.79,13.25-13.2,5.51-6.41,11.62-14.6,11.05-15.11-.57-.5-7.61,6.47-13.26,13.05-5.73,6.67-11.61,14.76-11.04,15.26Z"/>
    <path class="cls-1" d="M53.71,90.68c.42.65,9.33-4.31,16.39-8.89,7.07-4.59,15.23-10.71,14.82-11.35-.4-.64-9.11,4.05-16.36,8.75-7.36,4.77-15.26,10.86-14.85,11.5Z"/>
    <path class="cls-1" d="M48.22,78.57c.22.74,10.15-1.48,18.21-3.87,8.07-2.39,17.6-5.94,17.39-6.68-.21-.73-9.87,1.29-18.14,3.74-8.39,2.48-17.67,6.08-17.45,6.81Z"/>
  </g>
  <g>
    <polygon class="cls-2" points="92.7 73.4 93.92 111.07 91.48 111.07 92.7 73.4"/>
    <polygon class="cls-2" points="90.44 73.07 81.1 109.56 78.76 108.87 90.44 73.07"/>
    <polygon class="cls-2" points="88.37 72.12 69.23 104.48 67.17 103.14 88.37 72.12"/>
    <polygon class="cls-2" points="86.65 70.62 59.25 96.22 57.65 94.35 86.65 70.62"/>
    <polygon class="cls-2" points="85.42 68.68 51.99 85.45 50.97 83.21 85.42 68.68"/>
    <polygon class="cls-2" points="84.78 66.48 48.02 73.06 47.67 70.62 84.78 66.48"/>
    <polygon class="cls-2" points="84.78 64.18 47.67 60.04 48.02 57.6 84.78 64.18"/>
    <polygon class="cls-2" points="85.42 61.98 50.97 47.45 51.99 45.21 85.42 61.98"/>
    <polygon class="cls-2" points="86.65 60.04 57.65 36.31 59.25 34.44 86.65 60.04"/>
    <polygon class="cls-2" points="88.37 58.54 67.17 27.51 69.23 26.18 88.37 58.54"/>
    <polygon class="cls-2" points="90.44 57.58 78.76 21.79 81.1 21.09 90.44 57.58"/>
    <polygon class="cls-2" points="92.7 57.26 91.48 19.59 93.92 19.59 92.7 57.26"/>
    <polygon class="cls-2" points="94.95 57.58 104.29 21.09 106.63 21.79 94.95 57.58"/>
    <polygon class="cls-2" points="97.02 58.54 116.17 26.18 118.22 27.52 97.02 58.54"/>
    <polygon class="cls-2" points="98.74 60.04 126.14 34.44 127.74 36.31 98.74 60.04"/>
    <polygon class="cls-2" points="99.97 61.98 133.41 45.21 134.42 47.45 99.97 61.98"/>
    <polygon class="cls-2" points="100.61 64.18 137.37 57.6 137.72 60.04 100.61 64.18"/>
    <polygon class="cls-2" points="100.61 66.48 137.72 70.62 137.37 73.06 100.61 66.48"/>
    <polygon class="cls-2" points="99.97 68.68 134.42 83.21 133.41 85.45 99.97 68.68"/>
    <polygon class="cls-2" points="98.74 70.62 127.74 94.35 126.14 96.21 98.74 70.62"/>
    <polygon class="cls-2" points="97.02 72.12 118.22 103.14 116.17 104.48 97.02 72.12"/>
    <polygon class="cls-2" points="94.95 73.07 106.63 108.87 104.29 109.56 94.95 73.07"/>
  </g>
  <g>
    <g id="_x3C_径向重复_x3E_">
      <path class="cls-4" d="M129.38,65.33l18.98-1.22c.56-.04,1.03.41,1.03.98v.48c0,.56-.47,1.01-1.03.98l-18.98-1.22Z"/>
    </g>
    <g id="_x3C_径向重复_x3E_-2" data-name="_x3C_径向重复_x3E_">
      <path class="cls-4" d="M127.89,75.76l18.55,4.23c.55.12.87.69.72,1.23l-.13.46c-.16.54-.74.84-1.26.64l-17.88-6.57Z"/>
    </g>
    <g id="_x3C_径向重复_x3E_-3" data-name="_x3C_径向重复_x3E_">
      <path class="cls-4" d="M123.55,85.35l16.62,9.34c.49.27.65.91.34,1.38l-.26.41c-.3.47-.94.59-1.39.26l-15.32-11.38Z"/>
    </g>
    <g id="_x3C_径向重复_x3E_-4" data-name="_x3C_径向重复_x3E_">
      <path class="cls-4" d="M116.72,93.31l13.34,13.69c.39.4.37,1.06-.06,1.42l-.36.32c-.42.37-1.07.3-1.4-.15l-11.52-15.28Z"/>
    </g>
    <g id="_x3C_径向重复_x3E_-5" data-name="_x3C_径向重复_x3E_">
      <path class="cls-4" d="M107.93,99.01l8.98,16.93c.26.5.06,1.12-.45,1.35l-.43.2c-.51.23-1.11-.01-1.31-.54l-6.79-17.94Z"/>
    </g>
    <g id="_x3C_径向重复_x3E_-6" data-name="_x3C_径向重复_x3E_">
      <path class="cls-4" d="M97.92,101.98l3.89,18.8c.11.55-.26,1.09-.81,1.17l-.47.07c-.55.08-1.06-.33-1.1-.89l-1.51-19.14Z"/>
    </g>
    <g id="_x3C_径向重复_x3E_-7" data-name="_x3C_径向重复_x3E_">
      <path class="cls-4" d="M87.48,101.98l-1.51,19.14c-.04.56-.55.97-1.1.89l-.47-.07c-.55-.08-.92-.62-.81-1.17l3.89-18.8Z"/>
    </g>
    <g id="_x3C_径向重复_x3E_-8" data-name="_x3C_径向重复_x3E_">
      <path class="cls-4" d="M77.46,99.01l-6.79,17.94c-.2.53-.8.77-1.31.54l-.43-.2c-.51-.23-.72-.85-.45-1.35l8.98-16.93Z"/>
    </g>
    <g id="_x3C_径向重复_x3E_-9" data-name="_x3C_径向重复_x3E_">
      <path class="cls-4" d="M68.68,93.31l-11.52,15.28c-.34.45-.98.52-1.4.15l-.36-.32c-.42-.37-.45-1.02-.06-1.42l13.34-13.69Z"/>
    </g>
    <g id="_x3C_径向重复_x3E_-10" data-name="_x3C_径向重复_x3E_">
      <path class="cls-4" d="M61.84,85.35l-15.32,11.38c-.45.33-1.09.22-1.39-.26l-.26-.41c-.3-.47-.14-1.11.34-1.38l16.62-9.34Z"/>
    </g>
    <g id="_x3C_径向重复_x3E_-11" data-name="_x3C_径向重复_x3E_">
      <path class="cls-4" d="M57.5,75.76l-17.88,6.57c-.53.19-1.1-.1-1.26-.64l-.13-.46c-.16-.54.17-1.1.72-1.23l18.55-4.23Z"/>
    </g>
    <g id="_x3C_径向重复_x3E_-12" data-name="_x3C_径向重复_x3E_">
      <path class="cls-4" d="M56.02,65.33l-18.98,1.22c-.56.04-1.03-.41-1.03-.98v-.48c0-.56.47-1.01,1.03-.98l18.98,1.22Z"/>
    </g>
    <g id="_x3C_径向重复_x3E_-13" data-name="_x3C_径向重复_x3E_">
      <path class="cls-4" d="M57.5,54.9l-18.55-4.23c-.55-.12-.87-.69-.72-1.23l.13-.46c.16-.54.74-.84,1.26-.64l17.88,6.57Z"/>
    </g>
    <g id="_x3C_径向重复_x3E_-14" data-name="_x3C_径向重复_x3E_">
      <path class="cls-4" d="M61.84,45.31l-16.62-9.34c-.49-.27-.65-.91-.34-1.38l.26-.41c.3-.47.94-.59,1.39-.26l15.32,11.38Z"/>
    </g>
    <g id="_x3C_径向重复_x3E_-15" data-name="_x3C_径向重复_x3E_">
      <path class="cls-4" d="M68.68,37.35l-13.34-13.69c-.39-.4-.37-1.06.06-1.42l.36-.32c.42-.37,1.07-.3,1.4.15l11.52,15.28Z"/>
    </g>
    <g id="_x3C_径向重复_x3E_-16" data-name="_x3C_径向重复_x3E_">
      <path class="cls-4" d="M77.46,31.65l-8.98-16.93c-.26-.5-.06-1.12.45-1.35l.43-.2c.51-.23,1.11.01,1.31.54l6.79,17.94Z"/>
    </g>
    <g id="_x3C_径向重复_x3E_-17" data-name="_x3C_径向重复_x3E_">
      <path class="cls-4" d="M87.48,28.68l-3.89-18.8c-.11-.55.26-1.09.81-1.17l.47-.07c.55-.08,1.06.33,1.1.89l1.51,19.14Z"/>
    </g>
    <g id="_x3C_径向重复_x3E_-18" data-name="_x3C_径向重复_x3E_">
      <path class="cls-4" d="M97.92,28.68l1.51-19.14c.04-.56.55-.97,1.1-.89l.47.07c.55.08.92.62.81,1.17l-3.89,18.8Z"/>
    </g>
    <g id="_x3C_径向重复_x3E_-19" data-name="_x3C_径向重复_x3E_">
      <path class="cls-4" d="M107.93,31.65l6.79-17.94c.2-.53.8-.77,1.31-.54l.43.2c.51.23.72.85.45,1.35l-8.98,16.93Z"/>
    </g>
    <g id="_x3C_径向重复_x3E_-20" data-name="_x3C_径向重复_x3E_">
      <path class="cls-4" d="M116.72,37.35l11.52-15.28c.34-.45.98-.52,1.4-.15l.36.32c.42.37.45,1.02.06,1.42l-13.34,13.69Z"/>
    </g>
    <g id="_x3C_径向重复_x3E_-21" data-name="_x3C_径向重复_x3E_">
      <path class="cls-4" d="M123.55,45.31l15.32-11.38c.45-.33,1.09-.22,1.39.26l.26.41c.3.47.14,1.11-.34,1.38l-16.62,9.34Z"/>
    </g>
    <g id="_x3C_径向重复_x3E_-22" data-name="_x3C_径向重复_x3E_">
      <path class="cls-4" d="M127.89,54.9l17.88-6.57c.53-.19,1.1.1,1.26.64l.13.46c.16.54-.17,1.1-.72,1.23l-18.55,4.23Z"/>
    </g>
  </g>
  <g>
    <g id="_x3C_径向重复_x3E_-23" data-name="_x3C_径向重复_x3E_">
      <path class="cls-3" d="M92.69,22.73c-.22,0-.26-1.16-.73-4.5-.04-.3-.85-6.12.11-8.15.09-.18.32-.69.64-.69.3,0,.53.47.61.64.98,2.03.11,8.18.11,8.18-.47,3.37-.52,4.53-.74,4.53Z"/>
    </g>
    <g id="_x3C_径向重复_x3E_-24" data-name="_x3C_径向重复_x3E_">
      <path class="cls-3" d="M104.58,24.45c-.21-.06.07-1.19.56-4.53.04-.3.89-6.11,2.38-7.79.13-.15.5-.57.8-.48.29.09.37.6.41.78.37,2.23-2.17,7.88-2.17,7.88-1.39,3.1-1.77,4.2-1.97,4.13Z"/>
    </g>
    <g id="_x3C_径向重复_x3E_-25" data-name="_x3C_径向重复_x3E_">
      <path class="cls-3" d="M115.51,29.49c-.18-.12.4-1.12,1.8-4.18.13-.28,2.56-5.61,4.46-6.8.17-.11.64-.4.9-.23.25.17.19.68.17.87-.27,2.24-4.28,6.94-4.28,6.94-2.2,2.58-2.87,3.52-3.05,3.4Z"/>
    </g>
    <g id="_x3C_径向重复_x3E_-26" data-name="_x3C_径向重复_x3E_">
      <path class="cls-3" d="M124.59,37.43c-.14-.17.69-.96,2.89-3.5.2-.23,4.02-4.65,6.18-5.26.19-.05.72-.2.93.04.2.23,0,.71-.08.88-.88,2.07-6.05,5.44-6.05,5.44-2.83,1.85-3.73,2.57-3.87,2.4Z"/>
    </g>
    <g id="_x3C_径向重复_x3E_-27" data-name="_x3C_径向重复_x3E_">
      <path class="cls-3" d="M131.08,47.63c-.09-.2.93-.72,3.76-2.54.26-.16,5.16-3.32,7.39-3.29.2,0,.75.01.88.3.12.28-.2.68-.32.82-1.42,1.74-7.32,3.5-7.32,3.5-3.23.97-4.3,1.4-4.39,1.2Z"/>
    </g>
    <g id="_x3C_径向重复_x3E_-28" data-name="_x3C_径向重复_x3E_">
      <path class="cls-3" d="M134.47,59.26c-.03-.22,1.1-.43,4.31-1.37.29-.09,5.88-1.72,8.01-1.05.19.06.72.22.76.54.04.3-.38.59-.54.7-1.85,1.26-8,1.28-8,1.28-3.37,0-4.51.12-4.54-.1Z"/>
    </g>
    <g id="_x3C_径向重复_x3E_-29" data-name="_x3C_径向重复_x3E_">
      <path class="cls-3" d="M134.47,71.39c.03-.22,1.17-.1,4.52-.09.3,0,6.12.02,7.98,1.27.17.11.63.42.58.73-.04.3-.53.46-.71.52-2.13.69-8.03-1.05-8.03-1.05-3.24-.95-4.36-1.17-4.33-1.38Z"/>
    </g>
    <g id="_x3C_径向重复_x3E_-30" data-name="_x3C_径向重复_x3E_">
      <path class="cls-3" d="M131.09,83.02c.09-.2,1.15.24,4.36,1.2.29.09,5.86,1.76,7.3,3.49.13.15.48.58.35.87-.13.28-.64.29-.83.29-2.24.05-7.42-3.29-7.42-3.29-2.84-1.83-3.86-2.36-3.77-2.56Z"/>
    </g>
    <g id="_x3C_径向重复_x3E_-31" data-name="_x3C_径向重复_x3E_">
      <path class="cls-3" d="M124.59,93.22c.14-.17,1.04.56,3.85,2.39.25.17,5.13,3.36,6.03,5.42.08.19.3.7.1.93-.2.23-.69.1-.87.05-2.16-.58-6.2-5.27-6.2-5.27-2.21-2.57-3.05-3.36-2.9-3.53Z"/>
    </g>
    <g id="_x3C_径向重复_x3E_-32" data-name="_x3C_径向重复_x3E_">
      <path class="cls-3" d="M115.52,101.16c.18-.12.84.83,3.02,3.39.2.23,3.99,4.68,4.27,6.92.03.2.1.75-.17.92-.25.16-.69-.11-.85-.2-1.91-1.18-4.48-6.82-4.48-6.82-1.41-3.09-1.98-4.09-1.8-4.21Z"/>
    </g>
    <g id="_x3C_径向重复_x3E_-33" data-name="_x3C_径向重复_x3E_">
      <path class="cls-3" d="M104.59,106.2c.21-.06.58,1.04,1.95,4.11.12.28,2.52,5.63,2.17,7.85-.03.2-.12.75-.42.84-.29.08-.64-.3-.76-.44-1.5-1.67-2.39-7.81-2.39-7.81-.49-3.37-.76-4.49-.55-4.55Z"/>
    </g>
    <g id="_x3C_径向重复_x3E_-34" data-name="_x3C_径向重复_x3E_">
      <path class="cls-3" d="M92.7,107.93c.22,0,.26,1.16.73,4.5.04.3.85,6.12-.11,8.15-.09.18-.32.69-.64.69-.3,0-.53-.47-.61-.64-.98-2.03-.11-8.18-.11-8.18.47-3.37.52-4.53.74-4.53Z"/>
    </g>
    <g id="_x3C_径向重复_x3E_-35" data-name="_x3C_径向重复_x3E_">
      <path class="cls-3" d="M80.81,106.21c.21.06-.07,1.19-.56,4.53-.04.3-.89,6.11-2.38,7.79-.13.15-.5.57-.8.48-.29-.09-.37-.6-.41-.78-.37-2.23,2.17-7.88,2.17-7.88,1.39-3.1,1.77-4.2,1.97-4.13Z"/>
    </g>
    <g id="_x3C_径向重复_x3E_-36" data-name="_x3C_径向重复_x3E_">
      <path class="cls-3" d="M69.89,101.17c.18.12-.4,1.12-1.8,4.18-.13.28-2.56,5.61-4.46,6.8-.17.11-.64.4-.9.23-.25-.17-.19-.68-.17-.87.27-2.24,4.28-6.94,4.28-6.94,2.2-2.58,2.87-3.52,3.05-3.4Z"/>
    </g>
    <g id="_x3C_径向重复_x3E_-37" data-name="_x3C_径向重复_x3E_">
      <path class="cls-3" d="M60.81,93.23c.14.17-.69.96-2.89,3.5-.2.23-4.02,4.65-6.18,5.26-.19.05-.72.2-.93-.04-.2-.23,0-.71.08-.88.88-2.07,6.05-5.44,6.05-5.44,2.83-1.85,3.73-2.57,3.87-2.4Z"/>
    </g>
    <g id="_x3C_径向重复_x3E_-38" data-name="_x3C_径向重复_x3E_">
      <path class="cls-3" d="M54.31,83.03c.09.2-.93.72-3.76,2.54-.26.16-5.16,3.32-7.39,3.29-.2,0-.75-.01-.88-.3-.12-.28.2-.68.32-.82,1.42-1.74,7.32-3.5,7.32-3.5,3.23-.97,4.3-1.4,4.39-1.2Z"/>
    </g>
    <g id="_x3C_径向重复_x3E_-39" data-name="_x3C_径向重复_x3E_">
      <path class="cls-3" d="M50.93,71.4c.03.22-1.1.43-4.31,1.37-.29.09-5.88,1.72-8.01,1.05-.19-.06-.72-.22-.76-.54-.04-.3.38-.59.54-.7,1.85-1.26,8-1.28,8-1.28,3.37,0,4.51-.12,4.54.1Z"/>
    </g>
    <g id="_x3C_径向重复_x3E_-40" data-name="_x3C_径向重复_x3E_">
      <path class="cls-3" d="M50.93,59.27c-.03.22-1.17.1-4.52.09-.3,0-6.12-.02-7.98-1.27-.17-.11-.63-.42-.58-.73.04-.3.53-.46.71-.52,2.13-.69,8.03,1.05,8.03,1.05,3.24.95,4.36,1.17,4.33,1.38Z"/>
    </g>
    <g id="_x3C_径向重复_x3E_-41" data-name="_x3C_径向重复_x3E_">
      <path class="cls-3" d="M54.31,47.64c-.09.2-1.15-.24-4.36-1.2-.29-.09-5.86-1.76-7.3-3.49-.13-.15-.48-.58-.35-.87.13-.28.64-.29.83-.29,2.24-.05,7.42,3.29,7.42,3.29,2.84,1.83,3.86,2.36,3.77,2.56Z"/>
    </g>
    <g id="_x3C_径向重复_x3E_-42" data-name="_x3C_径向重复_x3E_">
      <path class="cls-3" d="M60.8,37.44c-.14.17-1.04-.56-3.85-2.39-.25-.17-5.13-3.36-6.03-5.42-.08-.19-.3-.7-.1-.93.2-.23.69-.1.87-.05,2.16.58,6.2,5.27,6.2,5.27,2.21,2.57,3.05,3.36,2.9,3.53Z"/>
    </g>
    <g id="_x3C_径向重复_x3E_-43" data-name="_x3C_径向重复_x3E_">
      <path class="cls-3" d="M69.88,29.49c-.18.12-.84-.83-3.02-3.39-.2-.23-3.99-4.68-4.27-6.92-.03-.2-.1-.75.17-.92.25-.16.69.11.85.2,1.91,1.18,4.48,6.82,4.48,6.82,1.41,3.09,1.98,4.09,1.8,4.21Z"/>
    </g>
    <g id="_x3C_径向重复_x3E_-44" data-name="_x3C_径向重复_x3E_">
      <path class="cls-3" d="M80.8,24.46c-.21.06-.58-1.04-1.95-4.11-.12-.28-2.52-5.63-2.17-7.85.03-.2.12-.75.42-.84.29-.08.64.3.76.44,1.5,1.67,2.39,7.81,2.39,7.81.49,3.37.76,4.49.55,4.55Z"/>
    </g>
  </g>
</svg>