<?xml version="1.0" encoding="UTF-8"?>
<svg id="_图层_1" data-name="图层_1" xmlns="http://www.w3.org/2000/svg" viewBox="0 0 141.73 141.73">
  <defs>
    <style>
      .cls-1 {
        fill: #4f81c2;
      }

      .cls-2 {
        fill: #fff;
      }

      .cls-3 {
        fill: #223e95;
      }

      .cls-4 {
        fill: #3c6fb6;
      }

      .cls-5 {
        fill: #a1bce2;
      }
    </style>
  </defs>
  <g>
    <path class="cls-5" d="M81.79,81.79c.81-.81,13.83,10.89,29.4,26.38.83.83.83,2.18,0,3.02h0c-.84.84-2.19.84-3.02,0-15.5-15.58-27.19-28.6-26.38-29.41Z"/>
    <path class="cls-5" d="M79.09,83.95c.97-.61,11.06,13.69,22.8,32.27.63,1,.33,2.32-.67,2.94h0c-1,.63-2.32.33-2.95-.67-11.64-18.64-20.15-33.93-19.18-34.54Z"/>
    <path class="cls-5" d="M75.97,85.45c1.08-.38,7.73,15.81,15.04,36.53.39,1.11-.2,2.33-1.31,2.72h0c-1.12.39-2.34-.2-2.72-1.31-7.2-20.76-12.09-37.56-11.01-37.94Z"/>
    <path class="cls-5" d="M72.6,86.22c1.14-.13,4.02,17.13,6.54,38.96.13,1.17-.71,2.23-1.88,2.36h0c-1.17.13-2.23-.71-2.36-1.88-2.4-21.84-3.43-39.31-2.29-39.44Z"/>
    <path class="cls-5" d="M69.14,86.22c1.14.13.11,17.6-2.29,39.44-.13,1.17-1.19,2.01-2.36,1.88h0c-1.17-.13-2.02-1.19-1.88-2.36,2.52-21.83,5.4-39.09,6.54-38.96Z"/>
    <path class="cls-5" d="M65.76,85.45c1.08.38-3.81,17.18-11.01,37.94-.39,1.11-1.61,1.7-2.72,1.31h0c-1.12-.39-1.7-1.61-1.31-2.72,7.31-20.72,13.97-36.91,15.05-36.53Z"/>
    <path class="cls-5" d="M62.65,83.95c.97.61-7.54,15.9-19.18,34.54-.62,1-1.94,1.3-2.95.67h0c-1-.63-1.3-1.95-.67-2.94,11.74-18.58,21.83-32.87,22.8-32.26Z"/>
    <path class="cls-5" d="M59.94,81.79c.81.81-10.89,13.83-26.38,29.4-.83.83-2.18.83-3.02,0h0c-.84-.84-.84-2.19,0-3.02,15.58-15.5,28.6-27.19,29.41-26.38Z"/>
    <path class="cls-5" d="M57.78,79.09c.61.97-13.69,11.06-32.27,22.8-1,.63-2.32.33-2.94-.67h0c-.63-1-.33-2.32.67-2.95,18.64-11.64,33.93-20.15,34.54-19.18Z"/>
    <path class="cls-5" d="M56.28,75.97c.38,1.08-15.81,7.73-36.53,15.04-1.11.39-2.33-.2-2.72-1.31h0c-.39-1.12.2-2.34,1.31-2.72,20.76-7.2,37.56-12.09,37.94-11.01Z"/>
    <path class="cls-5" d="M55.51,72.6c.13,1.14-17.13,4.02-38.96,6.54-1.17.13-2.23-.71-2.36-1.88h0c-.13-1.17.71-2.23,1.88-2.36,21.84-2.4,39.31-3.43,39.44-2.29Z"/>
    <path class="cls-5" d="M55.51,69.14c-.13,1.14-17.6.11-39.44-2.29-1.17-.13-2.01-1.19-1.88-2.36h0c.13-1.17,1.19-2.02,2.36-1.88,21.83,2.52,39.09,5.4,38.96,6.54Z"/>
    <path class="cls-5" d="M56.28,65.76c-.38,1.08-17.18-3.81-37.94-11.01-1.11-.39-1.7-1.61-1.31-2.72h0c.39-1.12,1.61-1.7,2.72-1.31,20.72,7.31,36.91,13.97,36.53,15.05Z"/>
    <path class="cls-5" d="M57.78,62.65c-.61.97-15.9-7.54-34.54-19.18-1-.62-1.3-1.94-.67-2.95h0c.63-1,1.95-1.3,2.94-.67,18.58,11.74,32.87,21.83,32.26,22.8Z"/>
    <path class="cls-5" d="M59.94,59.94c-.81.81-13.83-10.89-29.4-26.38-.83-.83-.83-2.18,0-3.02h0c.84-.84,2.19-.84,3.02,0,15.5,15.58,27.19,28.6,26.38,29.41Z"/>
    <path class="cls-5" d="M62.64,57.78c-.97.61-11.06-13.69-22.8-32.27-.63-1-.33-2.32.67-2.94h0c1-.63,2.32-.33,2.95.67,11.64,18.64,20.15,33.93,19.18,34.54Z"/>
    <path class="cls-5" d="M65.76,56.28c-1.08.38-7.73-15.81-15.04-36.53-.39-1.11.2-2.33,1.31-2.72h0c1.12-.39,2.34.2,2.72,1.31,7.2,20.76,12.09,37.56,11.01,37.94Z"/>
    <path class="cls-5" d="M69.13,55.51c-1.14.13-4.02-17.13-6.54-38.96-.13-1.17.71-2.23,1.88-2.36h0c1.17-.13,2.23.71,2.36,1.88,2.4,21.84,3.43,39.31,2.29,39.44Z"/>
    <path class="cls-5" d="M72.59,55.51c-1.14-.13-.11-17.6,2.29-39.44.13-1.17,1.19-2.01,2.36-1.88h0c1.17.13,2.02,1.19,1.88,2.36-2.52,21.83-5.4,39.09-6.54,38.96Z"/>
    <path class="cls-5" d="M75.97,56.28c-1.08-.38,3.81-17.18,11.01-37.94.39-1.11,1.61-1.7,2.72-1.31h0c1.12.39,1.7,1.61,1.31,2.72-7.31,20.72-13.97,36.91-15.05,36.53Z"/>
    <path class="cls-5" d="M79.09,57.78c-.97-.61,7.54-15.9,19.18-34.54.62-1,1.94-1.3,2.95-.67h0c1,.63,1.3,1.95.67,2.94-11.74,18.58-21.83,32.87-22.8,32.26Z"/>
    <path class="cls-5" d="M81.79,59.94c-.81-.81,10.89-13.83,26.38-29.4.83-.83,2.18-.83,3.02,0h0c.84.84.84,2.19,0,3.02-15.58,15.5-28.6,27.19-29.41,26.38Z"/>
    <path class="cls-5" d="M83.95,62.64c-.61-.97,13.69-11.06,32.27-22.8,1-.63,2.32-.33,2.94.67h0c.63,1,.33,2.32-.67,2.95-18.64,11.64-33.93,20.15-34.54,19.18Z"/>
    <path class="cls-5" d="M85.45,65.76c-.38-1.08,15.81-7.73,36.53-15.04,1.11-.39,2.33.2,2.72,1.31h0c.39,1.12-.2,2.34-1.31,2.72-20.76,7.2-37.56,12.09-37.94,11.01Z"/>
    <path class="cls-5" d="M86.22,69.13c-.13-1.14,17.13-4.02,38.96-6.54,1.17-.13,2.23.71,2.36,1.88h0c.13,1.17-.71,2.23-1.88,2.36-21.84,2.4-39.31,3.43-39.44,2.29Z"/>
    <path class="cls-5" d="M86.22,72.59c.13-1.14,17.6-.11,39.44,2.29,1.17.13,2.01,1.19,1.88,2.36h0c-.13,1.17-1.19,2.02-2.36,1.88-21.83-2.52-39.09-5.4-38.96-6.54Z"/>
    <path class="cls-5" d="M85.45,75.97c.38-1.08,17.18,3.81,37.94,11.01,1.11.39,1.7,1.61,1.31,2.72h0c-.39,1.12-1.61,1.7-2.72,1.31-20.72-7.31-36.91-13.97-36.53-15.05Z"/>
    <path class="cls-5" d="M83.95,79.09c.61-.97,15.9,7.54,34.54,19.18,1,.62,1.3,1.94.67,2.95h0c-.63,1-1.95,1.3-2.94.67-18.58-11.74-32.87-21.83-32.26-22.8Z"/>
  </g>
  <path class="cls-3" d="M118.66,54.15c1.1,3.17-11.66,9.45-11.3,12.65.37,3.3,14.17,6.61,13.8,9.84-.38,3.28-14.58,3.37-15.66,6.45-1.09,3.1,9.92,12.1,8.18,14.88-1.73,2.76-14.57-3.32-16.89-.99-2.29,2.29,3.74,15.21.94,16.97-2.72,1.71-11.63-9.38-14.79-8.27-3.15,1.1-3.29,15.35-6.48,15.71-3.29.37-6.54-13.52-9.75-13.89-3.26-.38-9.56,12.4-12.63,11.31-3.08-1.09-.02-15.02-2.79-16.77-2.75-1.74-13.94,7.05-16.26,4.71-2.28-2.3,6.49-13.5,4.73-16.32-1.7-2.73-15.58.31-16.68-2.86s11.66-9.45,11.3-12.65c-.37-3.3-14.17-6.61-13.8-9.84.38-3.28,14.58-3.37,15.66-6.45,1.09-3.1-9.92-12.1-8.18-14.88s14.57,3.32,16.89.99c2.29-2.29-3.74-15.21-.94-16.97,2.72-1.71,11.63,9.38,14.79,8.27,3.15-1.1,3.29-15.35,6.48-15.71,3.29-.37,6.54,13.52,9.75,13.89,3.26.38,9.56-12.4,12.63-11.31,3.08,1.09.02,15.02,2.79,16.77,2.75,1.74,13.94-7.05,16.26-4.71,2.28,2.3-6.49,13.5-4.73,16.32,1.7,2.73,15.58-.31,16.68,2.86Z"/>
  <g>
    <path class="cls-1" d="M88.27,88.28c.47-.47,7.97,6.27,16.94,15.19.48.48.48,1.26,0,1.74h0c-.48.48-1.26.48-1.74,0-8.93-8.97-15.67-16.47-15.2-16.93Z"/>
    <path class="cls-1" d="M78.99,94.1c.62-.22,4.46,9.1,8.67,21.04.23.64-.11,1.34-.76,1.57h0c-.64.22-1.35-.11-1.57-.75-4.15-11.96-6.97-21.63-6.35-21.85Z"/>
    <path class="cls-1" d="M68.1,95.32c.66.07.07,10.14-1.31,22.72-.07.67-.68,1.16-1.36,1.08h0c-.68-.08-1.16-.69-1.09-1.36,1.45-12.57,3.1-22.52,3.76-22.44Z"/>
    <path class="cls-1" d="M57.76,91.7c.56.35-4.34,9.16-11.04,19.9-.36.58-1.12.75-1.7.39h0c-.58-.36-.75-1.12-.39-1.7,6.76-10.7,12.57-18.94,13.12-18.59Z"/>
    <path class="cls-1" d="M50.02,83.95c.35.56-7.88,6.37-18.58,13.14-.57.36-1.33.19-1.7-.39h0c-.36-.58-.19-1.34.39-1.7,10.73-6.71,19.54-11.61,19.89-11.05Z"/>
    <path class="cls-1" d="M46.41,73.61c.07.66-9.87,2.32-22.44,3.77-.67.08-1.28-.41-1.36-1.09h0c-.08-.68.41-1.29,1.08-1.36,12.58-1.39,22.64-1.98,22.72-1.33Z"/>
    <path class="cls-1" d="M47.64,62.73c-.22.62-9.9-2.19-21.86-6.34-.64-.22-.98-.92-.75-1.57h0c.23-.64.93-.98,1.57-.76,11.94,4.21,21.26,8.04,21.04,8.66Z"/>
    <path class="cls-1" d="M53.47,53.46c-.47.47-7.97-6.27-16.94-15.19-.48-.48-.48-1.26,0-1.74h0c.48-.48,1.26-.48,1.74,0,8.93,8.97,15.67,16.47,15.2,16.93Z"/>
    <path class="cls-1" d="M62.74,47.63c-.62.22-4.46-9.1-8.67-21.04-.23-.64.11-1.34.76-1.57h0c.64-.22,1.35.11,1.57.75,4.15,11.96,6.97,21.63,6.35,21.85Z"/>
    <path class="cls-1" d="M73.63,46.41c-.66-.07-.07-10.14,1.31-22.72.07-.67.68-1.16,1.36-1.08h0c.68.08,1.16.69,1.09,1.36-1.45,12.57-3.1,22.52-3.76,22.44Z"/>
    <path class="cls-1" d="M83.97,50.03c-.56-.35,4.34-9.16,11.04-19.9.36-.58,1.12-.75,1.7-.39h0c.58.36.75,1.12.39,1.7-6.76,10.7-12.57,18.94-13.12,18.59Z"/>
    <path class="cls-1" d="M91.71,57.78c-.35-.56,7.88-6.37,18.58-13.14.57-.36,1.33-.19,1.7.39h0c.36.58.19,1.34-.39,1.7-10.73,6.71-19.54,11.61-19.89,11.05Z"/>
    <path class="cls-1" d="M95.33,68.12c-.07-.66,9.87-2.32,22.44-3.77.67-.08,1.28.41,1.36,1.09h0c.08.68-.41,1.29-1.08,1.36-12.58,1.39-22.64,1.98-22.72,1.33Z"/>
    <path class="cls-1" d="M94.1,79c.22-.62,9.9,2.19,21.86,6.34.64.22.98.92.75,1.57h0c-.23.64-.93.98-1.57.76-11.94-4.21-21.26-8.04-21.04-8.66Z"/>
  </g>
  <g>
    <path class="cls-4" d="M70.86,84.08c.66,0,1.2,10.07,1.24,22.74,0,.68-.55,1.23-1.23,1.23h0c-.68,0-1.23-.55-1.23-1.23.03-12.67.56-22.74,1.22-22.74Z"/>
    <path class="cls-4" d="M67.92,83.75c.64.15-1.07,10.09-3.85,22.44-.15.66-.81,1.08-1.47.93h0c-.66-.15-1.08-.81-.93-1.47,2.85-12.34,5.61-22.04,6.25-21.89Z"/>
    <path class="cls-4" d="M65.12,82.77c.59.29-3.29,9.6-8.75,21.02-.29.61-1.03.87-1.64.57h0c-.61-.3-.87-1.03-.58-1.64,5.52-11.4,10.37-20.24,10.97-19.95Z"/>
    <path class="cls-4" d="M62.62,81.2c.52.41-5.34,8.62-13.21,18.55-.42.53-1.2.62-1.73.19h0c-.53-.42-.62-1.2-.2-1.73,7.92-9.88,14.62-17.43,15.13-17.01Z"/>
    <path class="cls-4" d="M60.53,79.1c.41.52-7.13,7.22-17,15.15-.53.42-1.3.34-1.73-.2h0c-.42-.53-.34-1.31.19-1.73,9.92-7.87,18.13-13.74,18.54-13.22Z"/>
    <path class="cls-4" d="M58.95,76.59c.29.59-8.55,5.45-19.95,10.98-.61.3-1.35.04-1.64-.58h0c-.3-.61-.04-1.35.57-1.64,11.42-5.47,20.73-9.36,21.02-8.76Z"/>
    <path class="cls-4" d="M57.98,73.8c.15.64-9.55,3.41-21.89,6.27-.66.15-1.32-.26-1.47-.93h0c-.15-.66.26-1.33.93-1.48,12.35-2.79,22.29-4.51,22.44-3.87Z"/>
    <path class="cls-4" d="M57.65,70.86c0,.66-10.07,1.2-22.74,1.24-.68,0-1.23-.55-1.23-1.23h0c0-.68.55-1.23,1.23-1.23,12.67.03,22.74.56,22.74,1.22Z"/>
    <path class="cls-4" d="M57.98,67.92c-.15.64-10.09-1.07-22.44-3.85-.66-.15-1.08-.81-.93-1.47h0c.15-.66.81-1.08,1.47-.93,12.34,2.85,22.04,5.61,21.89,6.25Z"/>
    <path class="cls-4" d="M58.96,65.12c-.29.59-9.6-3.29-21.02-8.75-.61-.29-.87-1.03-.57-1.64h0c.3-.61,1.03-.87,1.64-.58,11.4,5.52,20.24,10.37,19.95,10.97Z"/>
    <path class="cls-4" d="M60.54,62.62c-.41.52-8.62-5.34-18.55-13.21-.53-.42-.62-1.2-.19-1.73h0c.42-.53,1.2-.62,1.73-.2,9.88,7.92,17.43,14.62,17.01,15.13Z"/>
    <path class="cls-4" d="M62.63,60.53c-.52.41-7.22-7.13-15.15-17-.42-.53-.34-1.3.2-1.73h0c.53-.42,1.31-.34,1.73.19,7.87,9.92,13.74,18.13,13.22,18.54Z"/>
    <path class="cls-4" d="M65.14,58.95c-.59.29-5.45-8.55-10.98-19.95-.3-.61-.04-1.35.58-1.64h0c.61-.3,1.35-.04,1.64.57,5.47,11.42,9.36,20.73,8.76,21.02Z"/>
    <path class="cls-4" d="M67.93,57.98c-.64.15-3.41-9.55-6.27-21.89-.15-.66.26-1.32.93-1.47h0c.66-.15,1.33.26,1.48.93,2.79,12.35,4.51,22.29,3.87,22.44Z"/>
    <path class="cls-4" d="M70.87,57.65c-.66,0-1.2-10.07-1.24-22.74,0-.68.55-1.23,1.23-1.23h0c.68,0,1.23.55,1.23,1.23-.03,12.67-.56,22.74-1.22,22.74Z"/>
    <path class="cls-4" d="M73.82,57.98c-.64-.15,1.07-10.09,3.85-22.44.15-.66.81-1.08,1.47-.93h0c.66.15,1.08.81.93,1.47-2.85,12.34-5.61,22.04-6.25,21.89Z"/>
    <path class="cls-4" d="M76.61,58.96c-.59-.29,3.29-9.6,8.75-21.02.29-.61,1.03-.87,1.64-.57h0c.61.3.87,1.03.58,1.64-5.52,11.4-10.37,20.24-10.97,19.95Z"/>
    <path class="cls-4" d="M79.11,60.54c-.52-.41,5.34-8.62,13.21-18.55.42-.53,1.2-.62,1.73-.19h0c.53.42.62,1.2.2,1.73-7.92,9.88-14.62,17.43-15.13,17.01Z"/>
    <path class="cls-4" d="M81.21,62.63c-.41-.52,7.13-7.22,17-15.15.53-.42,1.3-.34,1.73.2h0c.42.53.34,1.31-.19,1.73-9.92,7.87-18.13,13.74-18.54,13.22Z"/>
    <path class="cls-4" d="M82.78,65.14c-.29-.59,8.55-5.45,19.95-10.98.61-.3,1.35-.04,1.64.58h0c.3.61.04,1.35-.57,1.64-11.42,5.47-20.73,9.36-21.02,8.76Z"/>
    <path class="cls-4" d="M83.76,67.93c-.15-.64,9.55-3.41,21.89-6.27.66-.15,1.32.26,1.47.93h0c.15.66-.26,1.33-.93,1.48-12.35,2.79-22.29,4.51-22.44,3.87Z"/>
    <path class="cls-4" d="M84.09,70.87c0-.66,10.07-1.2,22.74-1.24.68,0,1.23.55,1.23,1.23h0c0,.68-.55,1.23-1.23,1.23-12.67-.03-22.74-.56-22.74-1.22Z"/>
    <path class="cls-4" d="M83.75,73.82c.15-.64,10.09,1.07,22.44,3.85.66.15,1.08.81.93,1.47h0c-.15.66-.81,1.08-1.47.93-12.34-2.85-22.04-5.61-21.89-6.25Z"/>
    <path class="cls-4" d="M82.77,76.61c.29-.59,9.6,3.29,21.02,8.75.61.29.87,1.03.57,1.64h0c-.3.61-1.03.87-1.64.58-11.4-5.52-20.24-10.37-19.95-10.97Z"/>
    <path class="cls-4" d="M81.2,79.11c.41-.52,8.62,5.34,18.55,13.21.53.42.62,1.2.19,1.73h0c-.42.53-1.2.62-1.73.2-9.88-7.92-17.43-14.62-17.01-15.13Z"/>
    <path class="cls-4" d="M79.1,81.21c.52-.41,7.22,7.13,15.15,17,.42.53.34,1.3-.2,1.73h0c-.53.42-1.31.34-1.73-.19-7.87-9.92-13.74-18.13-13.22-18.54Z"/>
    <path class="cls-4" d="M76.59,82.78c.59-.29,5.45,8.55,10.98,19.95.3.61.04,1.35-.58,1.64h0c-.61.3-1.35.04-1.64-.57-5.47-11.42-9.36-20.73-8.76-21.02Z"/>
    <path class="cls-4" d="M73.8,83.76c.64-.15,3.41,9.55,6.27,21.89.15.66-.26,1.32-.93,1.47h0c-.66.15-1.33-.26-1.48-.93-2.79-12.35-4.51-22.29-3.87-22.44Z"/>
  </g>
  <g>
    <path class="cls-2" d="M70.86,74.77c.2,0,.37,3.08.38,6.95,0,.21-.17.38-.38.38h0c-.21,0-.38-.17-.38-.38,0-3.87.17-6.95.37-6.95Z"/>
    <path class="cls-2" d="M70,74.67c.2.04-.33,3.08-1.18,6.86-.05.2-.25.33-.45.28h0c-.2-.05-.33-.25-.28-.45.87-3.77,1.71-6.73,1.91-6.69Z"/>
    <path class="cls-2" d="M69.17,74.38c.18.09-1,2.93-2.67,6.42-.09.19-.31.27-.5.18h0c-.19-.09-.27-.32-.18-.5,1.69-3.48,3.17-6.18,3.35-6.1Z"/>
    <path class="cls-2" d="M68.43,73.91c.16.13-1.63,2.63-4.03,5.67-.13.16-.37.19-.53.06h0c-.16-.13-.19-.37-.06-.53,2.42-3.02,4.47-5.32,4.62-5.2Z"/>
    <path class="cls-2" d="M67.82,73.3c.13.16-2.18,2.21-5.19,4.63-.16.13-.4.1-.53-.06h0c-.13-.16-.1-.4.06-.53,3.03-2.41,5.54-4.2,5.66-4.04Z"/>
    <path class="cls-2" d="M67.35,72.56c.09.18-2.61,1.67-6.09,3.36-.19.09-.41.01-.5-.18h0c-.09-.19-.01-.41.18-.5,3.49-1.67,6.33-2.86,6.42-2.68Z"/>
    <path class="cls-2" d="M67.06,71.73c.04.2-2.92,1.04-6.69,1.92-.2.05-.4-.08-.45-.28h0c-.05-.2.08-.4.28-.45,3.77-.85,6.81-1.38,6.86-1.18Z"/>
    <path class="cls-2" d="M66.97,70.86c0,.2-3.08.37-6.95.38-.21,0-.38-.17-.38-.38h0c0-.21.17-.38.38-.38,3.87,0,6.95.17,6.95.37Z"/>
    <path class="cls-2" d="M67.06,70c-.04.2-3.08-.33-6.86-1.18-.2-.05-.33-.25-.28-.45h0c.05-.2.25-.33.45-.28,3.77.87,6.73,1.71,6.69,1.91Z"/>
    <path class="cls-2" d="M67.35,69.17c-.09.18-2.93-1-6.42-2.67-.19-.09-.27-.31-.18-.5h0c.09-.19.32-.27.5-.18,3.48,1.69,6.18,3.17,6.1,3.35Z"/>
    <path class="cls-2" d="M67.82,68.43c-.13.16-2.63-1.63-5.67-4.04-.16-.13-.19-.37-.06-.53h0c.13-.16.37-.19.53-.06,3.02,2.42,5.32,4.47,5.2,4.62Z"/>
    <path class="cls-2" d="M68.44,67.82c-.16.13-2.21-2.18-4.63-5.19-.13-.16-.1-.4.06-.53h0c.16-.13.4-.1.53.06,2.41,3.03,4.2,5.54,4.04,5.66Z"/>
    <path class="cls-2" d="M69.18,67.35c-.18.09-1.67-2.61-3.36-6.09-.09-.19-.01-.41.18-.5h0c.19-.09.41-.01.5.18,1.67,3.49,2.86,6.33,2.68,6.42Z"/>
    <path class="cls-2" d="M70,67.06c-.2.04-1.04-2.92-1.92-6.69-.05-.2.08-.4.28-.45h0c.2-.05.4.08.45.28.85,3.77,1.38,6.81,1.18,6.86Z"/>
    <path class="cls-2" d="M70.87,66.97c-.2,0-.37-3.08-.38-6.95,0-.21.17-.38.38-.38h0c.21,0,.38.17.38.38,0,3.87-.17,6.95-.37,6.95Z"/>
    <path class="cls-2" d="M71.74,67.06c-.2-.04.33-3.08,1.18-6.86.05-.2.25-.33.45-.28h0c.2.05.33.25.28.45-.87,3.77-1.71,6.73-1.91,6.69Z"/>
    <path class="cls-2" d="M72.56,67.35c-.18-.09,1-2.93,2.67-6.42.09-.19.31-.27.5-.18h0c.19.09.27.32.18.5-1.69,3.48-3.17,6.18-3.35,6.1Z"/>
    <path class="cls-2" d="M73.3,67.82c-.16-.13,1.63-2.63,4.03-5.67.13-.16.37-.19.53-.06h0c.16.13.19.37.06.53-2.42,3.02-4.47,5.32-4.62,5.2Z"/>
    <path class="cls-2" d="M73.92,68.44c-.13-.16,2.18-2.21,5.19-4.63.16-.13.4-.1.53.06h0c.13.16.1.4-.06.53-3.03,2.41-5.54,4.2-5.66,4.04Z"/>
    <path class="cls-2" d="M74.38,69.18c-.09-.18,2.61-1.67,6.09-3.36.19-.09.41-.01.5.18h0c.09.19.01.41-.18.5-3.49,1.67-6.33,2.86-6.42,2.68Z"/>
    <path class="cls-2" d="M74.67,70c-.04-.2,2.92-1.04,6.69-1.92.2-.05.4.08.45.28h0c.05.2-.08.4-.28.45-3.77.85-6.81,1.38-6.86,1.18Z"/>
    <path class="cls-2" d="M74.77,70.87c0-.2,3.08-.37,6.95-.38.21,0,.38.17.38.38h0c0,.21-.17.38-.38.38-3.87,0-6.95-.17-6.95-.37Z"/>
    <path class="cls-2" d="M74.67,71.74c.04-.2,3.08.33,6.86,1.18.2.05.33.25.28.45h0c-.05.2-.25.33-.45.28-3.77-.87-6.73-1.71-6.69-1.91Z"/>
    <path class="cls-2" d="M74.38,72.56c.09-.18,2.93,1,6.42,2.67.19.09.27.31.18.5h0c-.09.19-.32.27-.5.18-3.48-1.69-6.18-3.17-6.1-3.35Z"/>
    <path class="cls-2" d="M73.91,73.3c.13-.16,2.63,1.63,5.67,4.04.16.13.19.37.06.53h0c-.13.16-.37.19-.53.06-3.02-2.42-5.32-4.47-5.2-4.62Z"/>
    <path class="cls-2" d="M73.29,73.92c.16-.13,2.21,2.18,4.63,5.19.13.16.1.4-.06.53h0c-.16.13-.4.1-.53-.06-2.41-3.03-4.2-5.54-4.04-5.66Z"/>
    <path class="cls-2" d="M72.56,74.38c.18-.09,1.67,2.61,3.36,6.09.09.19.01.41-.18.5h0c-.19.09-.41.01-.5-.18-1.67-3.49-2.86-6.33-2.68-6.42Z"/>
    <path class="cls-2" d="M71.73,74.67c.2-.04,1.04,2.92,1.92,6.69.05.2-.08.4-.28.45h0c-.2.05-.4-.08-.45-.28-.85-3.77-1.38-6.81-1.18-6.86Z"/>
  </g>
</svg>