<?xml version="1.0" encoding="UTF-8"?>
<svg id="_图层_1" data-name="图层_1" xmlns="http://www.w3.org/2000/svg" viewBox="0 0 141.73 141.73">
  <defs>
    <style>
      .cls-1 {
        fill: #f3bb1f;
      }

      .cls-2 {
        fill: #faf5ca;
      }

      .cls-3 {
        fill: #ffd824;
      }
    </style>
  </defs>
  <g>
    <g id="_x3C_径向重复_x3E_">
      <path class="cls-2" d="M70.85,57.28c-.86,0-1.05-3.06-2.88-11.9-.17-.8-3.36-16.16.43-21.54.34-.48,1.28-1.81,2.52-1.81,1.2,0,2.08,1.23,2.41,1.68,3.87,5.37.45,21.61.45,21.61-1.87,8.9-2.07,11.96-2.94,11.96Z"/>
    </g>
    <g id="_x3C_径向重复_x3E_-2" data-name="_x3C_径向重复_x3E_">
      <path class="cls-2" d="M75.76,58.19c-.8-.31.13-3.23,1.61-12.13.13-.81,2.71-16.28,8.19-19.93.49-.33,1.84-1.23,3.01-.78,1.12.43,1.5,1.9,1.64,2.44,1.67,6.4-7.38,20.31-7.38,20.31-4.96,7.62-6.25,10.41-7.06,10.09Z"/>
    </g>
    <g id="_x3C_径向重复_x3E_-3" data-name="_x3C_径向重复_x3E_">
      <path class="cls-2" d="M80.01,60.81c-.64-.58,1.29-2.97,5.89-10.73.42-.7,8.41-14.2,14.84-15.63.58-.13,2.16-.48,3.08.36.88.81.71,2.32.65,2.86-.76,6.57-14.22,16.27-14.22,16.27-7.38,5.32-9.59,7.44-10.23,6.86Z"/>
    </g>
    <g id="_x3C_径向重复_x3E_-4" data-name="_x3C_径向重复_x3E_">
      <path class="cls-2" d="M83.02,64.79c-.38-.77,2.28-2.3,9.37-7.88.64-.51,12.97-10.21,19.48-9.21.58.09,2.19.33,2.74,1.45.53,1.07-.18,2.42-.43,2.9-3.08,5.85-19.14,10.04-19.14,10.04-8.8,2.29-11.63,3.48-12.02,2.7Z"/>
    </g>
    <g id="_x3C_径向重复_x3E_-5" data-name="_x3C_径向重复_x3E_">
      <path class="cls-2" d="M84.4,69.59c-.08-.86,2.95-1.32,11.58-3.96.78-.24,15.78-4.83,21.49-1.56.51.29,1.92,1.1,2.04,2.34.11,1.19-1.04,2.19-1.45,2.55-4.99,4.35-21.48,2.44-21.48,2.44-9.03-1.04-12.1-.96-12.18-1.82Z"/>
    </g>
    <g id="_x3C_径向重复_x3E_-6" data-name="_x3C_径向重复_x3E_">
      <path class="cls-2" d="M83.94,74.57c.24-.83,3.23-.17,12.23.49.82.06,16.46,1.2,20.6,6.31.37.46,1.39,1.72,1.05,2.92-.33,1.15-1.76,1.67-2.27,1.85-6.22,2.25-20.91-5.48-20.91-5.48-8.05-4.24-10.94-5.27-10.7-6.1Z"/>
    </g>
    <g id="_x3C_径向重复_x3E_-7" data-name="_x3C_径向重复_x3E_">
      <path class="cls-2" d="M81.72,79.04c.52-.69,3.07,1.01,11.23,4.87.74.35,14.92,7.06,16.93,13.33.18.56.68,2.11-.07,3.1-.72.95-2.24.92-2.79.91-6.61-.15-17.52-12.66-17.52-12.66-5.97-6.86-8.3-8.86-7.78-9.55Z"/>
    </g>
    <g id="_x3C_径向重复_x3E_-8" data-name="_x3C_径向重复_x3E_">
      <path class="cls-2" d="M78.04,82.41c.73-.45,2.5,2.05,8.71,8.6.56.59,11.36,11.97,10.97,18.55-.03.59-.13,2.21-1.19,2.87-1.02.63-2.42.05-2.93-.16-6.11-2.53-11.76-18.13-11.76-18.13-3.09-8.55-4.54-11.26-3.8-11.72Z"/>
    </g>
    <g id="_x3C_径向重复_x3E_-9" data-name="_x3C_径向重复_x3E_">
      <path class="cls-2" d="M73.38,84.22c.85-.16,1.59,2.82,5.01,11.17.31.76,6.27,15.27,3.53,21.26-.25.54-.92,2.02-2.15,2.24-1.18.22-2.28-.83-2.67-1.21-4.79-4.56-4.41-21.16-4.41-21.16.2-9.09-.16-12.14.69-12.3Z"/>
    </g>
    <g id="_x3C_径向重复_x3E_-10" data-name="_x3C_径向重复_x3E_">
      <path class="cls-2" d="M68.39,84.23c.85.16.46,3.2.64,12.22.02.82.33,16.5-4.39,21.1-.42.41-1.59,1.55-2.81,1.32-1.18-.22-1.82-1.6-2.06-2.09-2.82-5.98,3.53-21.32,3.53-21.32,3.47-8.4,4.24-11.38,5.08-11.22Z"/>
    </g>
    <g id="_x3C_径向重复_x3E_-11" data-name="_x3C_径向重复_x3E_">
      <path class="cls-2" d="M63.73,82.43c.73.45-.72,3.15-3.82,11.63-.28.77-5.65,15.51-11.71,18.09-.54.23-2.04.87-3.1.21-1.02-.63-1.12-2.15-1.16-2.69-.46-6.6,10.99-18.61,10.99-18.61,6.28-6.58,8.06-9.08,8.79-8.63Z"/>
    </g>
    <g id="_x3C_径向重复_x3E_-12" data-name="_x3C_径向重复_x3E_">
      <path class="cls-2" d="M60.03,79.07c.52.69-1.81,2.68-7.76,9.47-.54.62-10.87,12.42-17.45,12.64-.59.02-2.22.07-2.96-.92-.72-.96-.27-2.41-.11-2.93,1.95-6.32,16.97-13.38,16.97-13.38,8.23-3.87,10.8-5.55,11.32-4.87Z"/>
    </g>
    <g id="_x3C_径向重复_x3E_-13" data-name="_x3C_径向重复_x3E_">
      <path class="cls-2" d="M57.8,74.6c.24.83-2.66,1.84-10.65,6.02-.73.38-14.62,7.65-20.84,5.48-.56-.19-2.09-.73-2.43-1.93-.32-1.15.62-2.34.96-2.77,4.1-5.19,20.66-6.35,20.66-6.35,9.07-.64,12.07-1.28,12.31-.45Z"/>
    </g>
    <g id="_x3C_径向重复_x3E_-14" data-name="_x3C_径向重复_x3E_">
      <path class="cls-2" d="M57.33,69.63c-.08.86-3.15.76-12.11,1.77-.81.09-16.4,1.85-21.41-2.42-.45-.38-1.69-1.44-1.57-2.68.11-1.19,1.42-1.96,1.89-2.24,5.7-3.36,21.56,1.54,21.56,1.54,8.69,2.68,11.72,3.17,11.64,4.03Z"/>
    </g>
    <g id="_x3C_径向重复_x3E_-15" data-name="_x3C_径向重复_x3E_">
      <path class="cls-2" d="M58.69,64.83c-.39.77-3.21-.43-11.93-2.73-.79-.21-15.96-4.2-19.09-9.99-.28-.52-1.05-1.95-.5-3.06.54-1.07,2.03-1.32,2.58-1.4,6.53-1.07,19.55,9.23,19.55,9.23,7.13,5.64,9.78,7.19,9.4,7.96Z"/>
    </g>
    <g id="_x3C_径向重复_x3E_-16" data-name="_x3C_径向重复_x3E_">
      <path class="cls-2" d="M61.7,60.84c-.64.58-2.84-1.56-10.14-6.85-.66-.48-13.37-9.68-14.19-16.21-.07-.59-.28-2.2.64-3.04.89-.8,2.37-.49,2.91-.38,6.47,1.36,14.89,15.66,14.89,15.66,4.61,7.84,6.53,10.24,5.89,10.82Z"/>
    </g>
    <g id="_x3C_径向重复_x3E_-17" data-name="_x3C_径向重复_x3E_">
      <path class="cls-2" d="M65.94,58.2c-.8.31-2.08-2.48-6.98-10.05-.44-.69-8.97-13.86-7.38-20.25.14-.57.53-2.15,1.7-2.6,1.12-.43,2.39.4,2.85.7,5.54,3.61,8.23,19.99,8.23,19.99,1.47,8.97,2.39,11.9,1.58,12.22Z"/>
    </g>
  </g>
  <g>
    <g id="_x3C_径向重复_x3E_-18" data-name="_x3C_径向重复_x3E_">
      <g id="_x3C_径向重复_x3E_-19" data-name="_x3C_径向重复_x3E_">
        <path class="cls-1" d="M70.87,111.46c.34,0,.41,1.4,1.13,5.43.07.37,1.32,7.38-.17,9.84-.13.22-.5.83-.99.83-.47,0-.82-.56-.94-.77-1.52-2.45-.18-9.87-.18-9.87.73-4.07.81-5.46,1.15-5.46Z"/>
      </g>
    </g>
    <g id="_x3C_径向重复_x3E_-20" data-name="_x3C_径向重复_x3E_">
      <g id="_x3C_径向重复_x3E_-21" data-name="_x3C_径向重复_x3E_">
        <path class="cls-1" d="M56.21,108.72c.32.12-.12,1.45-.91,5.48-.07.36-1.44,7.36-3.71,9.12-.2.16-.77.59-1.22.41-.44-.17-.56-.82-.6-1.06-.53-2.83,3.4-9.27,3.4-9.27,2.15-3.53,2.73-4.8,3.05-4.68Z"/>
      </g>
    </g>
    <g id="_x3C_径向重复_x3E_-22" data-name="_x3C_径向重复_x3E_">
      <g id="_x3C_径向重复_x3E_-23" data-name="_x3C_径向重复_x3E_">
        <path class="cls-1" d="M43.53,100.87c.25.23-.64,1.31-2.83,4.78-.2.31-4,6.34-6.76,7.16-.25.07-.93.27-1.29-.06-.35-.32-.23-.97-.18-1.2.53-2.83,6.52-7.41,6.52-7.41,3.28-2.51,4.28-3.49,4.53-3.26Z"/>
      </g>
    </g>
    <g id="_x3C_径向重复_x3E_-24" data-name="_x3C_径向重复_x3E_">
      <g id="_x3C_径向重复_x3E_-25" data-name="_x3C_径向重复_x3E_">
        <path class="cls-1" d="M34.53,88.97c.15.3-1.07.99-4.36,3.43-.3.22-6.02,4.47-8.89,4.23-.26-.02-.96-.08-1.18-.52-.21-.42.14-.98.27-1.19,1.52-2.45,8.76-4.56,8.76-4.56,3.97-1.15,5.25-1.71,5.41-1.4Z"/>
      </g>
    </g>
    <g id="_x3C_径向重复_x3E_-26" data-name="_x3C_径向重复_x3E_">
      <g id="_x3C_径向重复_x3E_-27" data-name="_x3C_径向重复_x3E_">
        <path class="cls-1" d="M30.45,74.62c.03.34-1.35.54-5.31,1.63-.36.1-7.23,1.99-9.82.74-.23-.11-.87-.42-.91-.91-.04-.47.49-.87.68-1.01,2.3-1.74,9.81-1.09,9.81-1.09,4.12.36,5.52.31,5.55.64Z"/>
      </g>
    </g>
    <g id="_x3C_径向重复_x3E_-28" data-name="_x3C_径向重复_x3E_">
      <g id="_x3C_径向重复_x3E_-29" data-name="_x3C_径向重复_x3E_">
        <path class="cls-1" d="M31.82,59.76c-.09.33-1.46.01-5.54-.4-.37-.04-7.46-.75-9.42-2.86-.18-.19-.66-.71-.52-1.18.13-.45.77-.63,1-.7,2.77-.79,9.54,2.53,9.54,2.53,3.71,1.82,5.03,2.28,4.94,2.6Z"/>
      </g>
    </g>
    <g id="_x3C_径向重复_x3E_-30" data-name="_x3C_径向重复_x3E_">
      <g id="_x3C_径向重复_x3E_-31" data-name="_x3C_径向重复_x3E_">
        <path class="cls-1" d="M38.47,46.41c-.2.27-1.36-.52-5.02-2.37-.33-.17-6.68-3.4-7.75-6.07-.1-.24-.36-.9-.06-1.29.28-.37.94-.31,1.18-.29,2.87.26,7.98,5.81,7.98,5.81,2.8,3.04,3.87,3.94,3.67,4.21Z"/>
      </g>
    </g>
    <g id="_x3C_径向重复_x3E_-32" data-name="_x3C_径向重复_x3E_">
      <g id="_x3C_径向重复_x3E_-33" data-name="_x3C_径向重复_x3E_">
        <path class="cls-1" d="M49.49,36.36c-.29.18-1.09-.97-3.82-4.03-.25-.28-5.01-5.58-5.04-8.46,0-.26,0-.97.41-1.22.4-.25.99.05,1.21.16,2.58,1.28,5.35,8.3,5.35,8.3,1.52,3.84,2.18,5.07,1.9,5.25Z"/>
      </g>
    </g>
    <g id="_x3C_径向重复_x3E_-34" data-name="_x3C_径向重复_x3E_">
      <g id="_x3C_径向重复_x3E_-35" data-name="_x3C_径向重复_x3E_">
        <path class="cls-1" d="M63.4,30.97c-.33.06-.66-1.3-2.11-5.13-.13-.35-2.65-7.01-1.64-9.71.09-.24.34-.91.82-.99.46-.09.91.4,1.07.58,1.94,2.13,1.99,9.67,1.99,9.67.02,4.13.2,5.52-.13,5.58Z"/>
      </g>
    </g>
    <g id="_x3C_径向重复_x3E_-36" data-name="_x3C_径向重复_x3E_">
      <g id="_x3C_径向重复_x3E_-37" data-name="_x3C_径向重复_x3E_">
        <path class="cls-1" d="M78.32,30.97c-.33-.06-.15-1.45-.11-5.55,0-.37.06-7.5,1.98-9.64.17-.19.64-.72,1.13-.63.46.09.7.7.79.93,1.04,2.69-1.64,9.74-1.64,9.74-1.47,3.86-1.8,5.22-2.14,5.16Z"/>
      </g>
    </g>
    <g id="_x3C_径向重复_x3E_-38" data-name="_x3C_径向重复_x3E_">
      <g id="_x3C_径向重复_x3E_-39" data-name="_x3C_径向重复_x3E_">
        <path class="cls-1" d="M92.23,36.35c-.29-.18.39-1.41,1.9-5.22.14-.35,2.77-6.97,5.33-8.28.23-.12.86-.44,1.28-.18.4.25.4.91.4,1.15,0,2.88-5.05,8.49-5.05,8.49-2.77,3.07-3.57,4.22-3.86,4.04Z"/>
      </g>
    </g>
    <g id="_x3C_径向重复_x3E_-40" data-name="_x3C_径向重复_x3E_">
      <g id="_x3C_径向重复_x3E_-41" data-name="_x3C_径向重复_x3E_">
        <path class="cls-1" d="M103.25,46.4c-.2-.27.87-1.17,3.66-4.18.25-.27,5.1-5.5,7.96-5.79.26-.03.96-.1,1.26.29.28.38.04.99-.04,1.22-1.04,2.69-7.77,6.09-7.77,6.09-3.69,1.86-4.85,2.64-5.06,2.37Z"/>
      </g>
    </g>
    <g id="_x3C_径向重复_x3E_-42" data-name="_x3C_径向重复_x3E_">
      <g id="_x3C_径向重复_x3E_-43" data-name="_x3C_径向重复_x3E_">
        <path class="cls-1" d="M109.9,59.75c-.09-.33,1.23-.78,4.92-2.57.33-.16,6.74-3.29,9.51-2.53.25.07.93.26,1.07.73.13.45-.32.94-.48,1.12-1.94,2.13-9.45,2.87-9.45,2.87-4.11.41-5.48.71-5.57.39Z"/>
      </g>
    </g>
    <g id="_x3C_径向重复_x3E_-44" data-name="_x3C_径向重复_x3E_">
      <g id="_x3C_径向重复_x3E_-45" data-name="_x3C_径向重复_x3E_">
        <path class="cls-1" d="M111.28,74.6c.03-.34,1.43-.28,5.52-.62.37-.03,7.47-.63,9.78,1.08.21.15.78.58.73,1.06-.04.47-.64.76-.85.87-2.58,1.29-9.85-.73-9.85-.73-3.98-1.11-5.37-1.32-5.33-1.65Z"/>
      </g>
    </g>
    <g id="_x3C_径向重复_x3E_-46" data-name="_x3C_径向重复_x3E_">
      <g id="_x3C_径向重复_x3E_-47" data-name="_x3C_径向重复_x3E_">
        <path class="cls-1" d="M107.21,88.95c.15-.3,1.44.26,5.37,1.41.36.1,7.2,2.11,8.73,4.54.14.22.52.82.3,1.25-.21.42-.87.48-1.11.5-2.87.27-8.92-4.24-8.92-4.24-3.31-2.47-4.53-3.16-4.38-3.47Z"/>
      </g>
    </g>
    <g id="_x3C_径向重复_x3E_-48" data-name="_x3C_径向重复_x3E_">
      <g id="_x3C_径向重复_x3E_-49" data-name="_x3C_径向重复_x3E_">
        <path class="cls-1" d="M98.22,100.86c.25-.23,1.25.76,4.5,3.25.29.23,5.95,4.57,6.5,7.39.05.25.19.95-.17,1.28-.35.32-.98.13-1.22.07-2.77-.79-6.78-7.18-6.78-7.18-2.2-3.5-3.08-4.59-2.83-4.81Z"/>
      </g>
    </g>
    <g id="_x3C_径向重复_x3E_-50" data-name="_x3C_径向重复_x3E_">
      <g id="_x3C_径向重复_x3E_-51" data-name="_x3C_径向重复_x3E_">
        <path class="cls-1" d="M85.54,108.71c.32-.12.89,1.16,3.02,4.66.19.32,3.9,6.41,3.4,9.24-.04.25-.17.95-.62,1.13-.44.17-.97-.23-1.16-.37-2.3-1.74-3.73-9.14-3.73-9.14-.78-4.06-1.21-5.39-.9-5.51Z"/>
      </g>
    </g>
  </g>
  <g>
    <g id="_x3C_径向重复_x3E_-52" data-name="_x3C_径向重复_x3E_">
      <path class="cls-3" d="M70.81,32.4c-.86,0-1.63,8.88-1.63,16.22,0,7.35.78,16.21,1.63,16.21.84,0,1.75-8.59,1.75-16.13,0-7.64-.9-16.3-1.75-16.3Z"/>
    </g>
    <g id="_x3C_径向重复_x3E_-53" data-name="_x3C_径向重复_x3E_">
      <path class="cls-3" d="M84.71,34.97c-.8-.31-4.73,7.69-7.38,14.53-2.65,6.85-5.13,15.39-4.33,15.7.79.31,4.73-7.38,7.46-14.4,2.77-7.12,5.05-15.53,4.25-15.83Z"/>
    </g>
    <g id="_x3C_径向重复_x3E_-54" data-name="_x3C_径向重复_x3E_">
      <path class="cls-3" d="M96.74,42.4c-.64-.58-7.19,5.46-12.13,10.88-4.95,5.43-10.34,12.5-9.71,13.08.62.57,7.08-5.17,12.16-10.74,5.15-5.64,10.31-12.66,9.69-13.23Z"/>
    </g>
    <g id="_x3C_径向重复_x3E_-55" data-name="_x3C_径向重复_x3E_">
      <path class="cls-3" d="M105.27,53.67c-.38-.77-8.67,2.49-15.24,5.77-6.58,3.28-14.16,7.92-13.78,8.69.37.76,8.47-2.27,15.22-5.62,6.84-3.4,14.19-8.08,13.81-8.83Z"/>
    </g>
    <g id="_x3C_径向重复_x3E_-56" data-name="_x3C_径向重复_x3E_">
      <path class="cls-3" d="M109.16,67.26c-.08-.85-8.99-.81-16.3-.13-7.32.68-16.06,2.27-15.99,3.12.08.84,8.71.95,16.22.26,7.61-.7,16.15-2.4,16.07-3.25Z"/>
    </g>
    <g id="_x3C_径向重复_x3E_-57" data-name="_x3C_径向重复_x3E_">
      <path class="cls-3" d="M107.88,81.33c.23-.83-8.09-4-15.15-6.01-7.07-2.01-15.8-3.69-16.04-2.87-.23.81,7.78,4.03,15.03,6.1,7.35,2.1,15.93,3.59,16.16,2.77Z"/>
    </g>
    <g id="_x3C_径向重复_x3E_-58" data-name="_x3C_径向重复_x3E_">
      <path class="cls-3" d="M101.6,94c.52-.69-6.1-6.65-11.96-11.07-5.86-4.43-13.4-9.15-13.92-8.46-.51.67,5.8,6.57,11.81,11.12,6.09,4.61,13.55,9.1,14.06,8.42Z"/>
    </g>
    <g id="_x3C_径向重复_x3E_-59" data-name="_x3C_径向重复_x3E_">
      <path class="cls-3" d="M91.17,103.54c.73-.45-3.28-8.41-7.15-14.65-3.87-6.25-9.19-13.37-9.92-12.92-.72.44,3.04,8.22,7,14.63,4.02,6.5,9.35,13.38,10.07,12.93Z"/>
    </g>
    <g id="_x3C_径向重复_x3E_-60" data-name="_x3C_径向重复_x3E_">
      <path class="cls-3" d="M77.99,108.67c.84-.16-.03-9.02-1.37-16.24-1.35-7.22-3.74-15.79-4.58-15.63-.83.15-.14,8.76,1.24,16.17,1.4,7.51,3.88,15.86,4.72,15.7Z"/>
    </g>
    <g id="_x3C_径向重复_x3E_-61" data-name="_x3C_径向重复_x3E_">
      <path class="cls-3" d="M63.86,108.69c.84.16,3.24-8.42,4.58-15.64,1.35-7.22,2.22-16.07,1.37-16.23-.83-.16-3.29,8.12-4.69,15.53-1.41,7.51-2.11,16.19-1.27,16.34Z"/>
    </g>
    <g id="_x3C_径向重复_x3E_-62" data-name="_x3C_径向重复_x3E_">
      <path class="cls-3" d="M50.67,103.6c.73.45,6.06-6.69,9.92-12.93,3.87-6.25,7.87-14.19,7.14-14.64-.72-.45-6.01,6.38-9.98,12.79-4.03,6.49-7.81,14.34-7.09,14.78Z"/>
    </g>
    <g id="_x3C_径向重复_x3E_-63" data-name="_x3C_径向重复_x3E_">
      <path class="cls-3" d="M40.21,94.1c.52.68,8.07-4.05,13.92-8.47,5.86-4.43,12.46-10.38,11.95-11.07-.51-.68-7.91,3.78-13.92,8.32-6.1,4.6-12.46,10.55-11.95,11.22Z"/>
    </g>
    <g id="_x3C_径向重复_x3E_-64" data-name="_x3C_径向重复_x3E_">
      <path class="cls-3" d="M33.88,81.45c.24.82,8.98-.86,16.04-2.87,7.07-2.01,15.37-5.18,15.14-6.01-.23-.81-8.74.67-15.99,2.73-7.35,2.08-15.43,5.33-15.2,6.15Z"/>
    </g>
    <g id="_x3C_径向重复_x3E_-65" data-name="_x3C_径向重复_x3E_">
      <path class="cls-3" d="M32.56,67.38c-.08.85,8.69,2.44,16,3.12,7.32.68,16.21.72,16.29-.13.08-.84-8.39-2.53-15.89-3.23-7.61-.71-16.31-.6-16.39.24Z"/>
    </g>
    <g id="_x3C_径向重复_x3E_-66" data-name="_x3C_径向重复_x3E_">
      <path class="cls-3" d="M36.41,53.77c-.38.77,7.22,5.42,13.79,8.69,6.58,3.28,14.85,6.53,15.24,5.76.38-.75-6.91-5.39-13.65-8.76-6.84-3.41-15-6.46-15.37-5.7Z"/>
    </g>
    <g id="_x3C_径向重复_x3E_-67" data-name="_x3C_径向重复_x3E_">
      <path class="cls-3" d="M44.91,42.48c-.63.58,4.77,7.66,9.72,13.08,4.95,5.43,11.49,11.45,12.13,10.88.63-.57-4.5-7.52-9.57-13.1-5.14-5.65-11.65-11.44-12.28-10.86Z"/>
    </g>
    <g id="_x3C_径向重复_x3E_-68" data-name="_x3C_径向重复_x3E_">
      <path class="cls-3" d="M56.91,35.02c-.8.31,1.68,8.87,4.34,15.71,2.65,6.85,6.58,14.83,7.38,14.52.79-.3-1.47-8.64-4.19-15.67-2.75-7.13-6.73-14.87-7.52-14.56Z"/>
    </g>
  </g>
</svg>