<?xml version="1.0" encoding="UTF-8"?>
<svg id="_图层_1" data-name="图层_1" xmlns="http://www.w3.org/2000/svg" viewBox="0 0 185.39 130.66">
  <defs>
    <style>
      .cls-1 {
        fill: #f4bc1f;
      }

      .cls-2 {
        fill: #b198c7;
      }

      .cls-3 {
        fill: #5f3791;
      }

      .cls-4 {
        fill: #fbf6cb;
      }
    </style>
  </defs>
  <path class="cls-2" d="M135.74,65.33c0,1.46-26.28,1.02-26.48,2.42s25.14,8.46,24.74,9.82-25.49-6.53-26.08-5.23,21.74,15.3,20.97,16.5-22.62-13.54-23.56-12.45,16.61,20.85,15.54,21.79-17.95-19.41-19.15-18.63c-1.19.78,10.15,24.72,8.85,25.32s-11.79-23.74-13.17-23.33,2.81,26.61,1.39,26.82-4.67-26.14-6.11-26.14-4.72,26.34-6.11,26.14,2.74-26.42,1.39-26.82-11.88,23.92-13.17,23.33,10.04-24.55,8.85-25.32-18.08,19.57-19.15,18.62,16.47-20.7,15.54-21.79-22.78,13.66-23.56,12.45,21.57-15.19,20.97-16.5-25.67,6.62-26.08,5.23,24.94-8.39,24.74-9.82-26.48-.96-26.48-2.42,26.28-1.02,26.48-2.42c.2-1.44-25.14-8.46-24.74-9.82s25.49,6.53,26.08,5.23-21.74-15.3-20.97-16.5,22.62,13.54,23.56,12.45c.93-1.09-16.61-20.85-15.54-21.79,1.07-.94,17.95,19.41,19.15,18.63s-10.15-24.72-8.85-25.32,11.79,23.74,13.17,23.33-2.81-26.61-1.39-26.82,4.67,26.14,6.11,26.14,4.72-26.34,6.11-26.14-2.74,26.42-1.39,26.82,11.88-23.92,13.17-23.33-10.04,24.55-8.85,25.32c1.2.78,18.08-19.57,19.15-18.62s-16.47,20.7-15.54,21.79,22.78-13.66,23.56-12.45-21.57,15.19-20.97,16.5c.59,1.3,25.67-6.62,26.08-5.23s-24.94,8.39-24.74,9.82,26.48.96,26.48,2.42Z"/>
  <g>
    <g id="_x3C_径向重复_x3E_">
      <path class="cls-1" d="M49.52,65.33c0,.22-1.17.27-4.56.75-.31.04-6.2.88-8.26-.11-.19-.09-.7-.33-.69-.66,0-.31.47-.54.64-.63,2.06-1.01,8.29-.12,8.29-.12,3.41.49,4.59.54,4.59.77Z"/>
    </g>
    <g id="_x3C_径向重复_x3E_-2" data-name="_x3C_径向重复_x3E_">
      <path class="cls-1" d="M51.27,53.05c-.06.22-1.2-.07-4.59-.58-.31-.05-6.19-.92-7.9-2.46-.15-.14-.57-.52-.48-.83.09-.3.61-.39.79-.42,2.26-.38,7.99,2.25,7.99,2.25,3.14,1.44,4.25,1.82,4.19,2.04Z"/>
    </g>
    <g id="_x3C_径向重复_x3E_-3" data-name="_x3C_径向重复_x3E_">
      <path class="cls-1" d="M56.37,41.75c-.12.19-1.13-.41-4.24-1.86-.28-.13-5.68-2.65-6.89-4.61-.11-.18-.41-.66-.23-.93.17-.26.69-.2.88-.18,2.27.27,7.04,4.43,7.04,4.43,2.61,2.27,3.57,2.96,3.45,3.15Z"/>
    </g>
    <g id="_x3C_径向重复_x3E_-4" data-name="_x3C_径向重复_x3E_">
      <path class="cls-1" d="M64.42,32.37c-.17.15-.97-.72-3.55-2.99-.23-.21-4.71-4.16-5.33-6.38-.05-.2-.21-.75.04-.96.23-.2.72,0,.89.08,2.1.91,5.52,6.25,5.52,6.25,1.87,2.93,2.6,3.86,2.43,4Z"/>
    </g>
    <g id="_x3C_径向重复_x3E_-5" data-name="_x3C_径向重复_x3E_">
      <path class="cls-1" d="M74.76,25.66c-.2.09-.73-.97-2.57-3.88-.17-.26-3.36-5.33-3.33-7.64,0-.21.01-.78.3-.91.28-.13.69.21.83.33,1.76,1.47,3.55,7.57,3.55,7.57.98,3.34,1.42,4.44,1.22,4.53Z"/>
    </g>
    <g id="_x3C_径向重复_x3E_-6" data-name="_x3C_径向重复_x3E_">
      <path class="cls-1" d="M86.55,22.16c-.22.03-.43-1.14-1.38-4.46-.09-.3-1.74-6.07-1.06-8.28.06-.2.23-.74.55-.79.31-.04.6.4.71.55,1.28,1.91,1.3,8.27,1.3,8.27,0,3.48.12,4.66-.1,4.7Z"/>
    </g>
    <g id="_x3C_径向重复_x3E_-7" data-name="_x3C_径向重复_x3E_">
      <path class="cls-1" d="M98.84,22.16c-.22-.03-.1-1.21-.09-4.67,0-.31.02-6.32,1.29-8.25.11-.17.43-.65.74-.6.31.05.47.55.52.73.7,2.2-1.06,8.3-1.06,8.3-.96,3.34-1.18,4.51-1.4,4.48Z"/>
    </g>
    <g id="_x3C_径向重复_x3E_-8" data-name="_x3C_径向重复_x3E_">
      <path class="cls-1" d="M110.63,25.66c-.2-.09.24-1.19,1.22-4.5.09-.3,1.79-6.06,3.53-7.55.16-.13.59-.5.88-.36.28.13.29.66.3.85.05,2.31-3.34,7.66-3.34,7.66-1.86,2.93-2.39,3.99-2.6,3.9Z"/>
    </g>
    <g id="_x3C_径向重复_x3E_-9" data-name="_x3C_径向重复_x3E_">
      <path class="cls-1" d="M120.97,32.37c-.17-.15.57-1.08,2.43-3.98.17-.26,3.4-5.31,5.5-6.23.19-.08.7-.31.95-.1.23.21.1.72.05.9-.59,2.23-5.34,6.4-5.34,6.4-2.6,2.29-3.41,3.15-3.58,3Z"/>
    </g>
    <g id="_x3C_径向重复_x3E_-10" data-name="_x3C_径向重复_x3E_">
      <path class="cls-1" d="M129.01,41.75c-.12-.19.84-.87,3.44-3.12.24-.2,4.75-4.12,7.01-4.42.2-.03.76-.1.94.17.17.26-.11.72-.21.88-1.19,1.97-6.91,4.63-6.91,4.63-3.13,1.45-4.15,2.05-4.27,1.86Z"/>
    </g>
    <g id="_x3C_径向重复_x3E_-11" data-name="_x3C_径向重复_x3E_">
      <path class="cls-1" d="M134.12,53.04c-.06-.22,1.05-.6,4.17-2.02.28-.13,5.7-2.6,7.96-2.24.2.03.76.12.85.43.09.3-.3.66-.44.79-1.69,1.55-7.92,2.47-7.92,2.47-3.41.5-4.55.79-4.62.57Z"/>
    </g>
    <g id="_x3C_径向重复_x3E_-12" data-name="_x3C_径向重复_x3E_">
      <path class="cls-1" d="M135.87,65.32c0-.22,1.17-.27,4.56-.75.31-.04,6.2-.88,8.26.11.19.09.7.33.69.66,0,.31-.47.54-.64.63-2.06,1.01-8.29.12-8.29.12-3.41-.49-4.59-.54-4.59-.77Z"/>
    </g>
    <g id="_x3C_径向重复_x3E_-13" data-name="_x3C_径向重复_x3E_">
      <path class="cls-1" d="M134.12,77.61c.06-.22,1.2.07,4.59.58.31.05,6.19.92,7.9,2.46.15.14.57.52.48.83-.09.3-.61.39-.79.42-2.26.38-7.99-2.25-7.99-2.25-3.14-1.44-4.25-1.82-4.19-2.04Z"/>
    </g>
    <g id="_x3C_径向重复_x3E_-14" data-name="_x3C_径向重复_x3E_">
      <path class="cls-1" d="M129.02,88.9c.12-.19,1.13.41,4.24,1.86.28.13,5.68,2.65,6.89,4.61.11.18.41.66.23.93-.17.26-.69.2-.88.18-2.27-.27-7.04-4.43-7.04-4.43-2.61-2.27-3.57-2.96-3.45-3.15Z"/>
    </g>
    <g id="_x3C_径向重复_x3E_-15" data-name="_x3C_径向重复_x3E_">
      <path class="cls-1" d="M120.97,98.29c.17-.15.97.72,3.55,2.99.23.21,4.71,4.16,5.33,6.38.05.2.21.75-.04.96-.23.2-.72,0-.89-.08-2.1-.91-5.52-6.25-5.52-6.25-1.87-2.93-2.6-3.86-2.43-4Z"/>
    </g>
    <g id="_x3C_径向重复_x3E_-16" data-name="_x3C_径向重复_x3E_">
      <path class="cls-1" d="M110.64,105c.2-.09.73.97,2.57,3.88.17.26,3.36,5.33,3.33,7.64,0,.21-.01.78-.3.91-.28.13-.69-.21-.83-.33-1.76-1.47-3.55-7.57-3.55-7.57-.98-3.34-1.42-4.44-1.22-4.53Z"/>
    </g>
    <g id="_x3C_径向重复_x3E_-17" data-name="_x3C_径向重复_x3E_">
      <path class="cls-1" d="M98.84,108.5c.22-.03.43,1.14,1.38,4.46.09.3,1.74,6.07,1.06,8.28-.06.2-.23.74-.55.79-.31.04-.6-.4-.71-.55-1.28-1.91-1.3-8.27-1.3-8.27,0-3.48-.12-4.66.1-4.7Z"/>
    </g>
    <g id="_x3C_径向重复_x3E_-18" data-name="_x3C_径向重复_x3E_">
      <path class="cls-1" d="M86.56,108.5c.22.03.1,1.21.09,4.67,0,.31-.02,6.32-1.29,8.25-.11.17-.43.65-.74.6-.31-.05-.47-.55-.52-.73-.7-2.2,1.06-8.3,1.06-8.3.96-3.34,1.18-4.51,1.4-4.48Z"/>
    </g>
    <g id="_x3C_径向重复_x3E_-19" data-name="_x3C_径向重复_x3E_">
      <path class="cls-1" d="M74.77,105c.2.09-.24,1.19-1.22,4.5-.09.3-1.79,6.06-3.53,7.55-.16.13-.59.5-.88.36-.28-.13-.29-.66-.3-.85-.05-2.31,3.34-7.66,3.34-7.66,1.86-2.93,2.39-3.99,2.6-3.9Z"/>
    </g>
    <g id="_x3C_径向重复_x3E_-20" data-name="_x3C_径向重复_x3E_">
      <path class="cls-1" d="M64.43,98.29c.17.15-.57,1.08-2.43,3.98-.17.26-3.4,5.31-5.5,6.23-.19.08-.7.31-.95.1-.23-.21-.1-.72-.05-.9.59-2.23,5.34-6.4,5.34-6.4,2.6-2.29,3.41-3.15,3.58-3Z"/>
    </g>
    <g id="_x3C_径向重复_x3E_-21" data-name="_x3C_径向重复_x3E_">
      <path class="cls-1" d="M56.38,88.91c.12.19-.84.87-3.44,3.12-.24.2-4.75,4.12-7.01,4.42-.2.03-.76.1-.94-.17-.17-.26.11-.72.21-.88,1.19-1.97,6.91-4.63,6.91-4.63,3.13-1.45,4.15-2.05,4.27-1.86Z"/>
    </g>
    <g id="_x3C_径向重复_x3E_-22" data-name="_x3C_径向重复_x3E_">
      <path class="cls-1" d="M51.27,77.62c.06.22-1.05.6-4.17,2.02-.28.13-5.7,2.6-7.96,2.24-.2-.03-.76-.12-.85-.43-.09-.3.3-.66.44-.79,1.69-1.55,7.92-2.47,7.92-2.47,3.41-.5,4.55-.79,4.62-.57Z"/>
    </g>
  </g>
  <path class="cls-3" d="M92.7,121.81c-1.88,0-1.31-34.48-3.12-34.74s-10.87,32.98-12.63,32.46c-1.79-.53,8.39-33.44,6.72-34.21-1.69-.78-19.67,28.52-21.22,27.52s17.4-29.68,16.01-30.9c-1.4-1.22-26.81,21.8-28.02,20.39s24.95-23.55,23.95-25.13c-1-1.56-31.79,13.32-32.56,11.61-.76-1.69,30.52-15.47,29.99-17.28-.51-1.77-34.21,3.69-34.48,1.82s33.61-6.12,33.61-8.02-33.86-6.19-33.61-8.02c.26-1.87,33.96,3.59,34.48,1.82s-30.76-15.59-29.99-17.28c.77-1.71,31.56,13.18,32.56,11.61s-25.15-23.72-23.95-25.13c1.21-1.41,26.62,21.61,28.02,20.39,1.39-1.22-17.57-29.89-16.01-30.9s19.53,28.3,21.22,27.52-8.51-33.68-6.72-34.21c1.76-.52,10.78,32.73,12.63,32.46s1.24-34.74,3.12-34.74,1.31,34.48,3.12,34.74c1.85.27,10.87-32.98,12.63-32.46s-8.39,33.44-6.72,34.21c1.69.78,19.67-28.52,21.22-27.52,1.56,1.01-17.4,29.68-16.01,30.9,1.4,1.22,26.81-21.8,28.02-20.39s-24.95,23.55-23.95,25.13,31.79-13.32,32.56-11.61c.76,1.69-30.52,15.47-29.99,17.28s34.21-3.69,34.48-1.82-33.61,6.12-33.61,8.02,33.86,6.19,33.61,8.02-33.96-3.59-34.48-1.82c-.52,1.81,30.76,15.59,29.99,17.28s-31.56-13.18-32.56-11.61,25.15,23.72,23.95,25.13c-1.21,1.41-26.62-21.61-28.02-20.39s17.57,29.89,16.01,30.9-19.53-28.3-21.22-27.52,8.51,33.68,6.72,34.21-10.78-32.73-12.63-32.46-1.24,34.74-3.12,34.74Z"/>
  <g>
    <path class="cls-4" d="M92.71,81.4c.55,0,.67,2.92,1.83,11.36.11.76,2.13,15.43-.28,20.57-.22.46-.81,1.73-1.6,1.73-.76,0-1.33-1.18-1.53-1.6-2.46-5.12-.29-20.63-.29-20.63,1.19-8.5,1.32-11.42,1.87-11.42Z"/>
    <path class="cls-4" d="M88.23,80.75c.53.16-.18,2.99-1.41,11.42-.11.76-2.25,15.41-6,19.66-.34.38-1.26,1.43-2.02,1.2-.73-.22-.94-1.51-1.02-1.97-.93-5.61,5.48-19.87,5.48-19.87,3.51-7.81,4.45-10.58,4.98-10.43Z"/>
    <path class="cls-4" d="M84.11,78.86c.46.3-1,2.82-4.54,10.55-.32.7-6.46,14.14-11.24,17.15-.43.27-1.61,1.01-2.27.58-.64-.42-.49-1.72-.43-2.19.67-5.65,10.8-17.51,10.8-17.51,5.55-6.5,7.22-8.89,7.68-8.59Z"/>
    <path class="cls-4" d="M80.68,75.86c.36.42-1.75,2.42-7.3,8.83-.5.58-10.14,11.73-15.57,13.26-.49.14-1.83.51-2.34-.09-.5-.58.01-1.78.2-2.22,2.22-5.23,15.24-13.73,15.24-13.73,7.14-4.65,9.41-6.47,9.77-6.05Z"/>
    <path class="cls-4" d="M78.23,72.02c.23.5-2.36,1.83-9.47,6.4-.64.41-13,8.37-18.63,8.29-.51,0-1.9-.03-2.22-.76-.31-.7.51-1.71.81-2.07,3.59-4.39,18.46-8.83,18.46-8.83,8.14-2.43,10.83-3.53,11.06-3.03Z"/>
    <path class="cls-4" d="M76.95,67.63c.08.55-2.77,1.08-10.87,3.45-.73.21-14.81,4.33-20.19,2.65-.48-.15-1.81-.57-1.92-1.36-.11-.76.97-1.49,1.35-1.76,4.67-3.19,20.17-3.22,20.17-3.22,8.49-.02,11.38-.31,11.45.24Z"/>
    <path class="cls-4" d="M76.95,63.05c-.08.55-2.96.25-11.39.21-.76,0-15.42-.06-20.11-3.2-.42-.28-1.58-1.06-1.46-1.85.11-.76,1.34-1.16,1.79-1.3,5.37-1.73,20.25,2.65,20.25,2.65,8.15,2.4,11,2.94,10.92,3.49Z"/>
    <path class="cls-4" d="M78.22,58.66c-.23.5-2.91-.6-10.99-3.04-.73-.22-14.78-4.45-18.4-8.8-.33-.39-1.22-1.46-.89-2.19.32-.7,1.61-.73,2.08-.74,5.63-.13,18.69,8.3,18.69,8.3,7.16,4.62,9.74,5.96,9.51,6.46Z"/>
    <path class="cls-4" d="M80.67,54.81c-.36.42-2.62-1.41-9.7-6.04-.64-.42-12.94-8.47-15.21-13.68-.2-.47-.76-1.75-.24-2.36.5-.58,1.75-.24,2.2-.12,5.44,1.48,15.62,13.29,15.62,13.29,5.58,6.47,7.68,8.49,7.32,8.9Z"/>
    <path class="cls-4" d="M84.09,51.82c-.46.3-2.12-2.1-7.62-8.55-.5-.59-10.05-11.81-10.77-17.45-.06-.51-.24-1.9.42-2.33.64-.41,1.75.27,2.15.51,4.81,2.96,11.28,17.2,11.28,17.2,3.54,7.8,5,10.33,4.54,10.63Z"/>
    <path class="cls-4" d="M88.2,49.91c-.53.16-1.45-2.62-4.92-10.38-.31-.7-6.35-14.19-5.47-19.81.08-.5.3-1.89,1.06-2.11.73-.21,1.6.75,1.92,1.1,3.79,4.21,6.03,19.71,6.03,19.71,1.23,8.49,1.92,11.33,1.39,11.49Z"/>
    <path class="cls-4" d="M92.68,49.26c-.55,0-.67-2.92-1.83-11.36-.11-.76-2.13-15.43.28-20.57.22-.46.81-1.73,1.6-1.73.76,0,1.33,1.18,1.53,1.6,2.46,5.12.29,20.63.29,20.63-1.19,8.5-1.32,11.42-1.87,11.42Z"/>
    <path class="cls-4" d="M97.17,49.91c-.53-.16.18-2.99,1.41-11.42.11-.76,2.25-15.41,6-19.66.34-.38,1.26-1.43,2.02-1.2.73.22.94,1.51,1.02,1.97.93,5.61-5.48,19.87-5.48,19.87-3.51,7.81-4.45,10.58-4.98,10.43Z"/>
    <path class="cls-4" d="M101.29,51.8c-.46-.3,1-2.82,4.54-10.55.32-.7,6.46-14.14,11.24-17.15.43-.27,1.61-1.01,2.27-.58.64.42.49,1.72.43,2.19-.67,5.65-10.8,17.51-10.8,17.51-5.55,6.5-7.22,8.89-7.68,8.59Z"/>
    <path class="cls-4" d="M104.71,54.8c-.36-.42,1.75-2.42,7.3-8.83.5-.58,10.14-11.73,15.57-13.26.49-.14,1.83-.51,2.34.09.5.58-.01,1.78-.2,2.22-2.22,5.23-15.24,13.73-15.24,13.73-7.14,4.65-9.41,6.47-9.77,6.05Z"/>
    <path class="cls-4" d="M107.16,58.64c-.23-.5,2.36-1.83,9.47-6.4.64-.41,13-8.37,18.63-8.29.51,0,1.9.03,2.22.76.31.7-.51,1.71-.81,2.07-3.59,4.39-18.46,8.83-18.46,8.83-8.14,2.43-10.83,3.53-11.06,3.03Z"/>
    <path class="cls-4" d="M108.44,63.03c-.08-.55,2.77-1.08,10.87-3.45.73-.21,14.81-4.33,20.19-2.65.48.15,1.81.57,1.92,1.36.11.76-.97,1.49-1.35,1.76-4.67,3.19-20.17,3.22-20.17,3.22-8.49.02-11.38.31-11.45-.24Z"/>
    <path class="cls-4" d="M108.45,67.6c.08-.55,2.96-.25,11.39-.21.76,0,15.42.06,20.11,3.2.42.28,1.58,1.06,1.46,1.85-.11.76-1.34,1.16-1.79,1.3-5.37,1.73-20.25-2.65-20.25-2.65-8.15-2.4-11-2.94-10.92-3.49Z"/>
    <path class="cls-4" d="M107.17,71.99c.23-.5,2.91.6,10.99,3.04.73.22,14.78,4.45,18.4,8.8.33.39,1.22,1.46.89,2.19-.32.7-1.61.73-2.08.74-5.63.13-18.69-8.3-18.69-8.3-7.16-4.62-9.74-5.96-9.51-6.46Z"/>
    <path class="cls-4" d="M104.73,75.84c.36-.42,2.62,1.41,9.7,6.04.64.42,12.94,8.47,15.21,13.68.2.47.76,1.75.24,2.36-.5.58-1.75.24-2.2.12-5.44-1.48-15.62-13.29-15.62-13.29-5.58-6.47-7.68-8.49-7.32-8.9Z"/>
    <path class="cls-4" d="M101.31,78.84c.46-.3,2.12,2.1,7.62,8.55.5.59,10.05,11.81,10.77,17.45.06.51.24,1.9-.42,2.33-.64.41-1.75-.27-2.15-.51-4.81-2.96-11.28-17.2-11.28-17.2-3.54-7.8-5-10.33-4.54-10.63Z"/>
    <path class="cls-4" d="M97.19,80.75c.53-.16,1.45,2.62,4.92,10.38.31.7,6.35,14.19,5.47,19.81-.08.5-.3,1.89-1.06,2.11-.73.21-1.6-.75-1.92-1.1-3.79-4.21-6.03-19.71-6.03-19.71-1.23-8.49-1.92-11.33-1.39-11.49Z"/>
  </g>
</svg>