<?xml version="1.0" encoding="UTF-8"?>
<svg id="_图层_1" data-name="图层_1" xmlns="http://www.w3.org/2000/svg" viewBox="0 0 185.39 130.66">
  <defs>
    <style>
      .cls-1 {
        fill: #9d2324;
      }

      .cls-2 {
        fill: #cc261c;
      }

      .cls-3 {
        fill: #681218;
      }
    </style>
  </defs>
  <polygon class="cls-3" points="74.55 68 43.53 65.33 74.55 62.66 45.51 51.28 76.02 57.61 51.34 38.34 78.84 53.16 60.49 27.63 82.8 49.67 72.26 19.95 87.52 47.48 85.72 15.94 92.7 46.73 99.68 15.94 97.87 47.48 113.13 19.95 102.6 49.67 124.9 27.63 106.55 53.16 134.06 38.34 109.38 57.61 139.88 51.28 110.84 62.66 141.87 65.33 110.84 68 139.88 79.38 109.38 73.05 134.06 92.31 106.55 77.5 124.9 103.03 102.6 80.98 113.14 110.71 97.87 83.18 99.68 114.72 92.7 83.92 85.72 114.72 87.52 83.18 72.26 110.71 82.8 80.98 60.49 103.03 78.84 77.5 51.34 92.31 76.02 73.05 45.51 79.38 74.55 68"/>
  <polygon class="cls-2" points="63.58 69.57 83.37 68.12 65.93 77.72 84.51 70.66 70.47 84.88 86.32 72.78 76.79 90.43 88.66 74.31 84.4 93.96 91.31 75.1 92.71 95.17 94.08 75.1 100.97 93.97 96.74 74.31 108.6 90.44 99.06 72.79 114.93 84.87 100.88 70.66 119.45 77.74 102.03 68.11 121.82 69.58 102.42 65.34 121.81 61.09 102.03 62.54 119.46 52.94 100.89 60 114.92 45.78 99.07 57.88 108.6 40.23 96.73 56.35 100.99 36.69 94.09 55.56 92.69 35.48 91.31 55.56 84.42 36.69 88.65 56.35 76.79 40.22 86.33 57.86 70.47 45.79 84.51 60 65.94 52.92 83.36 62.55 63.58 61.08 82.97 65.32 63.58 69.57"/>
  <polygon class="cls-1" points="92.7 73.12 84.69 122.02 90.51 72.82 69.33 117.21 88.56 71.91 55.66 108.69 86.88 70.42 45.25 96.29 85.68 68.56 38.81 81.37 85.09 66.48 36 65.33 85.09 64.18 38.81 49.28 85.68 62.1 45.25 34.37 86.88 60.23 55.66 21.97 88.56 58.75 69.33 13.44 90.51 57.83 84.69 8.64 92.7 57.53 100.7 8.64 94.88 57.83 116.06 13.44 96.83 58.75 129.74 21.97 98.51 60.23 140.14 34.37 99.71 62.1 146.59 49.28 100.31 64.18 149.39 65.33 100.31 66.48 146.59 81.37 99.71 68.56 140.14 96.29 98.51 70.42 129.74 108.69 96.83 71.91 116.06 117.21 94.88 72.82 100.7 122.02 92.7 73.12"/>
</svg>