<?xml version="1.0" encoding="UTF-8"?>
<svg id="_图层_1" data-name="图层_1" xmlns="http://www.w3.org/2000/svg" viewBox="0 0 141.73 141.73">
  <defs>
    <style>
      .cls-1 {
        fill: #71b92b;
      }

      .cls-2 {
        fill: #d3da7e;
      }

      .cls-3 {
        fill: #98c734;
      }
    </style>
  </defs>
  <g>
    <ellipse class="cls-3" cx="70.87" cy="85.5" rx="1.81" ry="9.2"/>
    <ellipse class="cls-3" cx="65.77" cy="84.54" rx="9.19" ry="1.81" transform="translate(-36.77 115.49) rotate(-68.91)"/>
    <ellipse class="cls-3" cx="61.37" cy="81.8" rx="9.18" ry="1.81" transform="translate(-40.45 72.27) rotate(-47.78)"/>
    <ellipse class="cls-3" cx="58.25" cy="77.65" rx="9.17" ry="1.81" transform="translate(-28.58 34.26) rotate(-26.57)"/>
    <ellipse class="cls-3" cx="56.83" cy="72.65" rx="9.16" ry="1.81" transform="translate(-6.49 5.58) rotate(-5.32)"/>
    <ellipse class="cls-3" cx="57.31" cy="67.47" rx="1.81" ry="9.16" transform="translate(-23.31 104.03) rotate(-74.05)"/>
    <ellipse class="cls-3" cx="59.61" cy="62.81" rx="1.81" ry="9.17" transform="translate(-26.45 72.34) rotate(-52.82)"/>
    <ellipse class="cls-3" cx="63.44" cy="59.3" rx="1.81" ry="9.19" transform="translate(-21.68 42.11) rotate(-31.65)"/>
    <ellipse class="cls-3" cx="68.28" cy="57.42" rx="1.81" ry="9.2" transform="translate(-9.35 13.46) rotate(-10.54)"/>
    <ellipse class="cls-3" cx="73.46" cy="57.42" rx="9.2" ry="1.81" transform="translate(3.56 119.14) rotate(-79.46)"/>
    <ellipse class="cls-3" cx="78.29" cy="59.3" rx="9.19" ry="1.81" transform="translate(-13.27 94.83) rotate(-58.35)"/>
    <ellipse class="cls-3" cx="82.12" cy="62.81" rx="9.17" ry="1.81" transform="translate(-21.27 62.4) rotate(-37.18)"/>
    <ellipse class="cls-3" cx="84.43" cy="67.47" rx="9.16" ry="1.81" transform="translate(-15.29 25.8) rotate(-15.95)"/>
    <ellipse class="cls-3" cx="84.91" cy="72.65" rx="1.81" ry="9.16" transform="translate(4.7 150.45) rotate(-84.68)"/>
    <ellipse class="cls-3" cx="83.49" cy="77.65" rx="1.81" ry="9.17" transform="translate(-23.31 117.58) rotate(-63.43)"/>
    <ellipse class="cls-3" cx="80.36" cy="81.8" rx="1.81" ry="9.18" transform="translate(-34.12 75.23) rotate(-42.22)"/>
    <ellipse class="cls-3" cx="75.96" cy="84.54" rx="1.81" ry="9.19" transform="translate(-25.33 33) rotate(-21.09)"/>
  </g>
  <g>
    <g id="_x3C_径向重复_x3E_">
      <path class="cls-2" d="M70.87,14.17c1.24,0,2.21,1.72,2.1,3.72-.73,25.94-1.43,37.2-2.1,37.2s-1.37-11.27-2.1-37.2c-.11-2,.86-3.72,2.1-3.72Z"/>
    </g>
    <g id="_x3C_径向重复_x3E_-2" data-name="_x3C_径向重复_x3E_">
      <path class="cls-2" d="M91.43,18.03c1.15.45,1.44,2.41.62,4.23-10.01,23.92-14.72,34.17-15.34,33.93s2.78-11,11.43-35.45c.61-1.9,2.14-3.16,3.29-2.71Z"/>
    </g>
    <g id="_x3C_径向重复_x3E_-3" data-name="_x3C_径向重复_x3E_">
      <path class="cls-2" d="M109.22,29.09c.91.84.48,2.77-.95,4.17-17.94,18.67-26.02,26.53-26.51,26.08s6.55-9.25,23.41-28.91c1.26-1.55,3.13-2.17,4.04-1.33Z"/>
    </g>
    <g id="_x3C_径向重复_x3E_-4" data-name="_x3C_径向重复_x3E_">
      <path class="cls-2" d="M121.83,45.86c.55,1.11-.55,2.75-2.38,3.54-23.45,10.9-33.8,15.3-34.1,14.7s9.44-6.25,32.23-18.47c1.73-.99,3.7-.89,4.25.23Z"/>
    </g>
    <g id="_x3C_径向重复_x3E_-5" data-name="_x3C_径向重复_x3E_">
      <path class="cls-2" d="M127.55,66.07c.11,1.24-1.5,2.37-3.5,2.44-25.79,1.66-37.02,2-37.08,1.34s11.05-2.4,36.7-5.53c1.97-.3,3.77.51,3.88,1.75Z"/>
    </g>
    <g id="_x3C_径向重复_x3E_-6" data-name="_x3C_径向重复_x3E_">
      <path class="cls-2" d="M125.62,86.99c-.34,1.2-2.25,1.66-4.14,1.01-24.64-7.8-35.24-11.56-35.06-12.21s11.17,1.76,36.21,8.16c1.94.44,3.33,1.85,2.99,3.04Z"/>
    </g>
    <g id="_x3C_径向重复_x3E_-7" data-name="_x3C_径向重复_x3E_">
      <path class="cls-2" d="M116.3,105.79c-.75.99-2.7.73-4.22-.56-20.17-16.22-28.7-23.57-28.3-24.1s9.78,5.7,30.83,20.74c1.66,1.11,2.44,2.93,1.69,3.92Z"/>
    </g>
    <g id="_x3C_径向重复_x3E_-8" data-name="_x3C_径向重复_x3E_">
      <path class="cls-2" d="M100.84,119.95c-1.05.65-2.78-.3-3.73-2.06-12.98-22.44-18.29-32.39-17.72-32.74s7.07,8.86,21.29,30.52c1.14,1.64,1.22,3.62.17,4.27Z"/>
    </g>
    <g id="_x3C_径向重复_x3E_-9" data-name="_x3C_径向重复_x3E_">
      <path class="cls-2" d="M81.33,127.54c-1.22.23-2.49-1.29-2.74-3.27-4.03-25.63-5.4-36.83-4.75-36.96s3.4,10.82,8.87,36.18c.48,1.94-.16,3.82-1.38,4.04Z"/>
    </g>
    <g id="_x3C_径向重复_x3E_-10" data-name="_x3C_径向重复_x3E_">
      <path class="cls-2" d="M60.41,127.54c-1.22-.23-1.85-2.1-1.38-4.04,5.46-25.36,8.21-36.31,8.87-36.18s-.72,11.33-4.75,36.96c-.26,1.98-1.52,3.5-2.74,3.27Z"/>
    </g>
    <g id="_x3C_径向重复_x3E_-11" data-name="_x3C_径向重复_x3E_">
      <path class="cls-2" d="M40.9,119.95c-1.05-.65-.97-2.63.17-4.27,14.22-21.67,20.72-30.88,21.29-30.52s-4.75,10.3-17.72,32.74c-.95,1.76-2.68,2.71-3.73,2.06Z"/>
    </g>
    <g id="_x3C_径向重复_x3E_-12" data-name="_x3C_径向重复_x3E_">
      <path class="cls-2" d="M25.44,105.79c-.75-.99.04-2.81,1.69-3.92,21.05-15.05,30.43-21.27,30.83-20.74s-8.13,7.88-28.3,24.1c-1.52,1.29-3.47,1.55-4.22.56Z"/>
    </g>
    <g id="_x3C_径向重复_x3E_-13" data-name="_x3C_径向重复_x3E_">
      <path class="cls-2" d="M16.11,86.99c-.34-1.2,1.05-2.6,2.99-3.04,25.04-6.39,36.03-8.8,36.21-8.16s-10.42,4.4-35.06,12.21c-1.88.66-3.8.19-4.14-1.01Z"/>
    </g>
    <g id="_x3C_径向重复_x3E_-14" data-name="_x3C_径向重复_x3E_">
      <path class="cls-2" d="M14.18,66.07c.11-1.24,1.91-2.05,3.88-1.75,25.65,3.12,36.76,4.86,36.7,5.53s-11.3.33-37.08-1.34c-1.99-.07-3.61-1.2-3.5-2.44Z"/>
    </g>
    <g id="_x3C_径向重复_x3E_-15" data-name="_x3C_径向重复_x3E_">
      <path class="cls-2" d="M19.9,45.86c.55-1.11,2.52-1.22,4.25-.23,22.8,12.22,32.53,17.87,32.23,18.47s-10.65-3.8-34.1-14.7c-1.83-.79-2.93-2.43-2.38-3.54Z"/>
    </g>
    <g id="_x3C_径向重复_x3E_-16" data-name="_x3C_径向重复_x3E_">
      <path class="cls-2" d="M32.51,29.09c.91-.84,2.79-.22,4.04,1.33,16.86,19.66,23.9,28.46,23.41,28.91s-8.57-7.4-26.51-26.08c-1.42-1.4-1.86-3.33-.95-4.17Z"/>
    </g>
    <g id="_x3C_径向重复_x3E_-17" data-name="_x3C_径向重复_x3E_">
      <path class="cls-2" d="M50.3,18.03c1.15-.45,2.68.81,3.29,2.71,8.65,24.45,12.05,35.21,11.43,35.45s-5.33-10.01-15.34-33.93c-.82-1.82-.54-3.78.62-4.23Z"/>
    </g>
  </g>
  <g>
    <path class="cls-1" d="M70.87,115.42c-.58,0-1.04-.81-.99-1.76.34-12.25.68-17.57.99-17.57s.64,5.32.99,17.57c.05.94-.4,1.76-.99,1.76Z"/>
    <path class="cls-1" d="M55.01,112.44c-.54-.21-.68-1.14-.29-2,4.73-11.29,6.95-16.14,7.24-16.02s-1.31,5.19-5.4,16.74c-.29.9-1.01,1.49-1.55,1.28Z"/>
    <path class="cls-1" d="M41.3,103.91c-.43-.4-.22-1.31.45-1.97,8.47-8.82,12.28-12.53,12.52-12.31s-3.09,4.37-11.05,13.65c-.59.73-1.48,1.02-1.91.63Z"/>
    <path class="cls-1" d="M31.58,90.99c-.26-.53.26-1.3,1.13-1.67,11.07-5.15,15.96-7.22,16.1-6.94s-4.46,2.95-15.22,8.72c-.82.47-1.75.42-2.01-.11Z"/>
    <path class="cls-1" d="M27.16,75.41c-.05-.58.71-1.12,1.65-1.15,12.18-.79,17.48-.95,17.51-.63s-5.22,1.14-17.33,2.61c-.93.14-1.78-.24-1.83-.83Z"/>
    <path class="cls-1" d="M28.65,59.28c.16-.56,1.06-.78,1.95-.47,11.64,3.68,16.64,5.46,16.56,5.76s-5.27-.83-17.1-3.85c-.92-.21-1.57-.87-1.41-1.44Z"/>
    <path class="cls-1" d="M35.84,44.78c.35-.47,1.27-.35,1.99.27,9.52,7.66,13.55,11.13,13.36,11.38s-4.62-2.69-14.56-9.79c-.78-.53-1.15-1.38-.8-1.85Z"/>
    <path class="cls-1" d="M47.76,33.87c.5-.31,1.31.14,1.76.97,6.13,10.59,8.64,15.29,8.37,15.46s-3.34-4.18-10.05-14.41c-.54-.77-.58-1.71-.08-2.02Z"/>
    <path class="cls-1" d="M62.8,28.02c.57-.11,1.17.61,1.29,1.54,1.9,12.1,2.55,17.39,2.24,17.45s-1.61-5.11-4.19-17.09c-.22-.92.08-1.8.65-1.91Z"/>
    <path class="cls-1" d="M78.93,28.02c.57.11.88.99.65,1.91-2.58,11.97-3.88,17.14-4.19,17.09s.34-5.35,2.24-17.45c.12-.94.72-1.65,1.29-1.54Z"/>
    <path class="cls-1" d="M93.97,33.87c.5.31.46,1.24-.08,2.02-6.71,10.23-9.78,14.58-10.05,14.41s2.24-4.86,8.37-15.46c.45-.83,1.27-1.28,1.76-.97Z"/>
    <path class="cls-1" d="M105.89,44.78c.35.47-.02,1.33-.8,1.85-9.94,7.1-14.37,10.05-14.56,9.79s3.84-3.72,13.36-11.38c.72-.61,1.64-.73,1.99-.27Z"/>
    <path class="cls-1" d="M113.08,59.28c.16.56-.49,1.23-1.41,1.44-11.82,3.02-17.01,4.16-17.1,3.85s4.92-2.08,16.56-5.76c.89-.31,1.79-.09,1.95.47Z"/>
    <path class="cls-1" d="M114.57,75.41c-.05.58-.9.97-1.83.83-12.11-1.47-17.36-2.3-17.33-2.61s5.33-.15,17.51.63c.94.03,1.7.57,1.65,1.15Z"/>
    <path class="cls-1" d="M110.15,90.99c-.26.53-1.19.57-2.01.11-10.76-5.77-15.36-8.44-15.22-8.72s5.03,1.79,16.1,6.94c.86.37,1.39,1.15,1.13,1.67Z"/>
    <path class="cls-1" d="M100.43,103.91c-.43.4-1.32.1-1.91-.63-7.96-9.28-11.29-13.44-11.05-13.65s4.05,3.5,12.52,12.31c.67.66.88,1.57.45,1.97Z"/>
    <path class="cls-1" d="M86.72,112.44c-.54.21-1.26-.38-1.55-1.28-4.08-11.54-5.69-16.63-5.4-16.74s2.51,4.73,7.24,16.02c.39.86.25,1.79-.29,2Z"/>
  </g>
</svg>