<?xml version="1.0" encoding="UTF-8"?>
<svg id="_图层_1" data-name="图层_1" xmlns="http://www.w3.org/2000/svg" viewBox="0 0 185.39 130.66">
  <defs>
    <style>
      .cls-1 {
        fill: #c8e4c9;
      }

      .cls-2 {
        fill: #349394;
      }

      .cls-3 {
        fill: #81c58a;
      }
    </style>
  </defs>
  <g>
    <g id="_x3C_径向重复_x3E_">
      <ellipse class="cls-1" cx="92.7" cy="33.02" rx="3.84" ry="12.16"/>
    </g>
    <g id="_x3C_径向重复_x3E_-2" data-name="_x3C_径向重复_x3E_">
      <ellipse class="cls-1" cx="102.68" cy="34.6" rx="12.16" ry="3.84" transform="translate(38.04 121.56) rotate(-72)"/>
    </g>
    <g id="_x3C_径向重复_x3E_-3" data-name="_x3C_径向重复_x3E_">
      <ellipse class="cls-1" cx="111.69" cy="39.19" rx="12.16" ry="3.84" transform="translate(14.33 106.51) rotate(-54)"/>
    </g>
    <g id="_x3C_径向重复_x3E_-4" data-name="_x3C_径向重复_x3E_">
      <ellipse class="cls-1" cx="118.83" cy="46.34" rx="12.16" ry="3.84" transform="translate(-4.54 78.7) rotate(-36)"/>
    </g>
    <g id="_x3C_径向重复_x3E_-5" data-name="_x3C_径向重复_x3E_">
      <ellipse class="cls-1" cx="123.42" cy="55.34" rx="12.16" ry="3.84" transform="translate(-11.06 40.85) rotate(-18)"/>
    </g>
    <g id="_x3C_径向重复_x3E_-6" data-name="_x3C_径向重复_x3E_">
      <ellipse class="cls-1" cx="125" cy="65.33" rx="12.16" ry="3.84"/>
    </g>
    <g id="_x3C_径向重复_x3E_-7" data-name="_x3C_径向重复_x3E_">
      <ellipse class="cls-1" cx="123.42" cy="75.31" rx="3.84" ry="12.16" transform="translate(13.66 169.42) rotate(-72)"/>
    </g>
    <g id="_x3C_径向重复_x3E_-8" data-name="_x3C_径向重复_x3E_">
      <ellipse class="cls-1" cx="118.83" cy="84.32" rx="3.84" ry="12.16" transform="translate(-19.23 130.9) rotate(-54)"/>
    </g>
    <g id="_x3C_径向重复_x3E_-9" data-name="_x3C_径向重复_x3E_">
      <ellipse class="cls-1" cx="111.69" cy="91.47" rx="3.84" ry="12.16" transform="translate(-32.43 83.12) rotate(-36)"/>
    </g>
    <g id="_x3C_径向重复_x3E_-10" data-name="_x3C_径向重复_x3E_">
      <ellipse class="cls-1" cx="102.68" cy="96.05" rx="3.84" ry="12.16" transform="translate(-24.66 36.43) rotate(-18)"/>
    </g>
    <g id="_x3C_径向重复_x3E_-11" data-name="_x3C_径向重复_x3E_">
      <ellipse class="cls-1" cx="92.7" cy="97.64" rx="3.84" ry="12.16"/>
    </g>
    <g id="_x3C_径向重复_x3E_-12" data-name="_x3C_径向重复_x3E_">
      <ellipse class="cls-1" cx="82.71" cy="96.05" rx="12.16" ry="3.84" transform="translate(-34.2 145.04) rotate(-72)"/>
    </g>
    <g id="_x3C_径向重复_x3E_-13" data-name="_x3C_径向重复_x3E_">
      <ellipse class="cls-1" cx="73.71" cy="91.47" rx="12.16" ry="3.84" transform="translate(-43.61 97.33) rotate(-54)"/>
    </g>
    <g id="_x3C_径向重复_x3E_-14" data-name="_x3C_径向重复_x3E_">
      <ellipse class="cls-1" cx="66.56" cy="84.32" rx="12.16" ry="3.84" transform="translate(-36.85 55.23) rotate(-36)"/>
    </g>
    <g id="_x3C_径向重复_x3E_-15" data-name="_x3C_径向重复_x3E_">
      <ellipse class="cls-1" cx="61.97" cy="75.31" rx="12.16" ry="3.84" transform="translate(-20.24 22.84) rotate(-18)"/>
    </g>
    <g id="_x3C_径向重复_x3E_-16" data-name="_x3C_径向重复_x3E_">
      <ellipse class="cls-1" cx="60.39" cy="65.33" rx="12.16" ry="3.84"/>
    </g>
    <g id="_x3C_径向重复_x3E_-17" data-name="_x3C_径向重复_x3E_">
      <ellipse class="cls-1" cx="61.97" cy="55.35" rx="3.84" ry="12.16" transform="translate(-9.82 97.18) rotate(-72)"/>
    </g>
    <g id="_x3C_径向重复_x3E_-18" data-name="_x3C_径向重复_x3E_">
      <ellipse class="cls-1" cx="66.56" cy="46.34" rx="3.84" ry="12.16" transform="translate(-10.05 72.95) rotate(-54)"/>
    </g>
    <g id="_x3C_径向重复_x3E_-19" data-name="_x3C_径向重复_x3E_">
      <ellipse class="cls-1" cx="73.71" cy="39.19" rx="3.84" ry="12.16" transform="translate(-8.96 50.81) rotate(-36)"/>
    </g>
    <g id="_x3C_径向重复_x3E_-20" data-name="_x3C_径向重复_x3E_">
      <ellipse class="cls-1" cx="82.71" cy="34.6" rx="3.84" ry="12.16" transform="translate(-6.64 27.25) rotate(-18)"/>
    </g>
  </g>
  <g>
    <g id="_x3C_径向重复_x3E_-21" data-name="_x3C_径向重复_x3E_">
      <path class="cls-2" d="M92.41,72.71c-.47,1.18-1.28,7.17.28,45.81,1.56-38.65.76-44.64.28-45.81-.17-.43-.39-.43-.56,0Z"/>
    </g>
    <g id="_x3C_径向重复_x3E_-22" data-name="_x3C_径向重复_x3E_">
      <path class="cls-2" d="M90.15,72.26c-.82.97-3.43,6.42-13.89,43.66,13.43-36.27,14.51-42.22,14.43-43.49-.03-.47-.24-.53-.54-.17Z"/>
    </g>
    <g id="_x3C_径向重复_x3E_-23" data-name="_x3C_径向重复_x3E_">
      <path class="cls-2" d="M88.13,71.14c-1.08.67-5.25,5.05-26.7,37.23,23.98-30.35,26.85-35.67,27.16-36.9.11-.45-.06-.58-.46-.33Z"/>
    </g>
    <g id="_x3C_径向重复_x3E_-24" data-name="_x3C_径向重复_x3E_">
      <path class="cls-2" d="M86.56,69.44c-1.23.31-6.55,3.18-36.9,27.16,32.18-21.45,36.56-25.62,37.23-26.7.25-.4.12-.57-.33-.46Z"/>
    </g>
    <g id="_x3C_径向重复_x3E_-25" data-name="_x3C_径向重复_x3E_">
      <path class="cls-2" d="M85.59,67.34c-1.27-.09-7.21,1-43.49,14.43,37.24-10.46,42.69-13.07,43.66-13.89.36-.3.29-.51-.17-.54Z"/>
    </g>
    <g id="_x3C_径向重复_x3E_-26" data-name="_x3C_径向重复_x3E_">
      <path class="cls-2" d="M85.31,65.05c-1.18-.47-7.17-1.28-45.81.28,38.65,1.56,44.64.76,45.81.28.43-.17.43-.39,0-.56Z"/>
    </g>
    <g id="_x3C_径向重复_x3E_-27" data-name="_x3C_径向重复_x3E_">
      <path class="cls-2" d="M85.76,62.78c-.97-.82-6.42-3.43-43.66-13.89,36.27,13.43,42.22,14.51,43.49,14.43.47-.03.53-.24.17-.54Z"/>
    </g>
    <g id="_x3C_径向重复_x3E_-28" data-name="_x3C_径向重复_x3E_">
      <path class="cls-2" d="M86.89,60.76c-.67-1.08-5.05-5.25-37.23-26.7,30.35,23.98,35.67,26.85,36.9,27.16.45.11.58-.06.33-.46Z"/>
    </g>
    <g id="_x3C_径向重复_x3E_-29" data-name="_x3C_径向重复_x3E_">
      <path class="cls-2" d="M88.58,59.19c-.31-1.23-3.18-6.55-27.16-36.9,21.45,32.18,25.62,36.56,26.7,37.23.4.25.57.12.46-.33Z"/>
    </g>
    <g id="_x3C_径向重复_x3E_-30" data-name="_x3C_径向重复_x3E_">
      <path class="cls-2" d="M90.68,58.22c.09-1.27-1-7.21-14.43-43.49,10.46,37.24,13.07,42.69,13.89,43.66.3.36.51.29.54-.17Z"/>
    </g>
    <g id="_x3C_径向重复_x3E_-31" data-name="_x3C_径向重复_x3E_">
      <path class="cls-2" d="M92.98,57.94c.47-1.18,1.28-7.17-.28-45.81-1.56,38.65-.76,44.64-.28,45.81.17.43.39.43.56,0Z"/>
    </g>
    <g id="_x3C_径向重复_x3E_-32" data-name="_x3C_径向重复_x3E_">
      <path class="cls-2" d="M95.25,58.39c.82-.97,3.43-6.42,13.89-43.66-13.43,36.27-14.51,42.22-14.43,43.49.03.47.24.53.54.17Z"/>
    </g>
    <g id="_x3C_径向重复_x3E_-33" data-name="_x3C_径向重复_x3E_">
      <path class="cls-2" d="M97.27,59.52c1.08-.67,5.25-5.05,26.7-37.23-23.98,30.35-26.85,35.67-27.16,36.9-.11.45.06.58.46.33Z"/>
    </g>
    <g id="_x3C_径向重复_x3E_-34" data-name="_x3C_径向重复_x3E_">
      <path class="cls-2" d="M98.84,61.22c1.23-.31,6.55-3.18,36.9-27.16-32.18,21.45-36.56,25.62-37.23,26.7-.25.4-.12.57.33.46Z"/>
    </g>
    <g id="_x3C_径向重复_x3E_-35" data-name="_x3C_径向重复_x3E_">
      <path class="cls-2" d="M99.81,63.32c1.27.09,7.21-1,43.49-14.43-37.24,10.46-42.69,13.07-43.66,13.89-.36.3-.29.51.17.54Z"/>
    </g>
    <g id="_x3C_径向重复_x3E_-36" data-name="_x3C_径向重复_x3E_">
      <path class="cls-2" d="M100.08,65.61c1.18.47,7.17,1.28,45.81-.28-38.65-1.56-44.64-.76-45.81-.28-.43.17-.43.39,0,.56Z"/>
    </g>
    <g id="_x3C_径向重复_x3E_-37" data-name="_x3C_径向重复_x3E_">
      <path class="cls-2" d="M99.63,67.88c.97.82,6.42,3.43,43.66,13.89-36.27-13.43-42.22-14.51-43.49-14.43-.47.03-.53.24-.17.54Z"/>
    </g>
    <g id="_x3C_径向重复_x3E_-38" data-name="_x3C_径向重复_x3E_">
      <path class="cls-2" d="M98.5,69.9c.67,1.08,5.05,5.25,37.23,26.7-30.35-23.98-35.67-26.85-36.9-27.16-.45-.11-.58.06-.33.46Z"/>
    </g>
    <g id="_x3C_径向重复_x3E_-39" data-name="_x3C_径向重复_x3E_">
      <path class="cls-2" d="M96.81,71.47c.31,1.23,3.18,6.55,27.16,36.9-21.45-32.18-25.62-36.56-26.7-37.23-.4-.25-.57-.12-.46.33Z"/>
    </g>
    <g id="_x3C_径向重复_x3E_-40" data-name="_x3C_径向重复_x3E_">
      <path class="cls-2" d="M94.71,72.44c-.09,1.27,1,7.21,14.43,43.49-10.46-37.24-13.07-42.69-13.89-43.66-.3-.36-.51-.29-.54.17Z"/>
    </g>
  </g>
  <g>
    <g id="_x3C_径向重复_x3E_-41" data-name="_x3C_径向重复_x3E_">
      <path class="cls-3" d="M132.68,106.05c-1.45-.21-6.72-3.37-31.87-32.61,29.24,25.15,32.4,30.42,32.61,31.87.08.53-.21.82-.74.74Z"/>
    </g>
    <g id="_x3C_径向重复_x3E_-42" data-name="_x3C_径向重复_x3E_">
      <path class="cls-3" d="M118.14,116.42c-1.31-.65-5.35-5.28-20.23-40.86,20.03,32.96,21.41,38.94,21.16,40.39-.09.53-.45.71-.93.47Z"/>
    </g>
    <g id="_x3C_径向重复_x3E_-43" data-name="_x3C_径向重复_x3E_">
      <path class="cls-3" d="M101.11,121.78c-1.05-1.02-3.45-6.68-6.62-45.11,8.87,37.53,8.33,43.65,7.65,44.95-.25.48-.65.54-1.03.16Z"/>
    </g>
    <g id="_x3C_径向重复_x3E_-44" data-name="_x3C_径向重复_x3E_">
      <path class="cls-3" d="M83.25,121.62c-.68-1.3-1.22-7.42,7.65-44.95-3.16,38.44-5.57,44.09-6.62,45.11-.39.37-.78.31-1.03-.16Z"/>
    </g>
    <g id="_x3C_径向重复_x3E_-45" data-name="_x3C_径向重复_x3E_">
      <path class="cls-3" d="M66.32,115.94c-.25-1.44,1.13-7.43,21.16-40.39-14.89,35.58-18.92,40.21-20.23,40.86-.48.24-.84.06-.93-.47Z"/>
    </g>
    <g id="_x3C_径向重复_x3E_-46" data-name="_x3C_径向重复_x3E_">
      <path class="cls-3" d="M51.97,105.31c.21-1.45,3.37-6.72,32.61-31.87-25.15,29.24-30.42,32.4-31.87,32.61-.53.08-.82-.21-.74-.74Z"/>
    </g>
    <g id="_x3C_径向重复_x3E_-47" data-name="_x3C_径向重复_x3E_">
      <path class="cls-3" d="M41.61,90.77c.65-1.31,5.28-5.35,40.86-20.23-32.96,20.03-38.94,21.41-40.39,21.16-.53-.09-.71-.45-.47-.93Z"/>
    </g>
    <g id="_x3C_径向重复_x3E_-48" data-name="_x3C_径向重复_x3E_">
      <path class="cls-3" d="M36.25,73.74c1.02-1.05,6.68-3.45,45.11-6.62-37.53,8.87-43.65,8.33-44.95,7.65-.48-.25-.54-.65-.16-1.03Z"/>
    </g>
    <g id="_x3C_径向重复_x3E_-49" data-name="_x3C_径向重复_x3E_">
      <path class="cls-3" d="M36.41,55.89c1.3-.68,7.42-1.22,44.95,7.65-38.44-3.16-44.09-5.57-45.11-6.62-.37-.39-.31-.78.16-1.03Z"/>
    </g>
    <g id="_x3C_径向重复_x3E_-50" data-name="_x3C_径向重复_x3E_">
      <path class="cls-3" d="M42.08,38.95c1.44-.25,7.43,1.13,40.39,21.16-35.58-14.89-40.21-18.92-40.86-20.23-.24-.48-.06-.84.47-.93Z"/>
    </g>
    <g id="_x3C_径向重复_x3E_-51" data-name="_x3C_径向重复_x3E_">
      <path class="cls-3" d="M52.71,24.6c1.45.21,6.72,3.37,31.87,32.61-29.24-25.15-32.4-30.42-32.61-31.87-.08-.53.21-.82.74-.74Z"/>
    </g>
    <g id="_x3C_径向重复_x3E_-52" data-name="_x3C_径向重复_x3E_">
      <path class="cls-3" d="M67.25,14.24c1.31.65,5.35,5.28,20.23,40.86-20.03-32.96-21.41-38.94-21.16-40.39.09-.53.45-.71.93-.47Z"/>
    </g>
    <g id="_x3C_径向重复_x3E_-53" data-name="_x3C_径向重复_x3E_">
      <path class="cls-3" d="M84.28,8.88c1.05,1.02,3.45,6.68,6.62,45.11-8.87-37.53-8.33-43.65-7.65-44.95.25-.48.65-.54,1.03-.16Z"/>
    </g>
    <g id="_x3C_径向重复_x3E_-54" data-name="_x3C_径向重复_x3E_">
      <path class="cls-3" d="M102.14,9.04c.68,1.3,1.22,7.42-7.65,44.95,3.16-38.44,5.57-44.09,6.62-45.11.39-.37.78-.31,1.03.16Z"/>
    </g>
    <g id="_x3C_径向重复_x3E_-55" data-name="_x3C_径向重复_x3E_">
      <path class="cls-3" d="M119.07,14.72c.25,1.44-1.13,7.43-21.16,40.39,14.89-35.58,18.92-40.21,20.23-40.86.48-.24.84-.06.93.47Z"/>
    </g>
    <g id="_x3C_径向重复_x3E_-56" data-name="_x3C_径向重复_x3E_">
      <path class="cls-3" d="M133.42,25.34c-.21,1.45-3.37,6.72-32.61,31.87,25.15-29.24,30.42-32.4,31.87-32.61.53-.08.82.21.74.74Z"/>
    </g>
    <g id="_x3C_径向重复_x3E_-57" data-name="_x3C_径向重复_x3E_">
      <path class="cls-3" d="M143.79,39.89c-.65,1.31-5.28,5.35-40.86,20.23,32.96-20.03,38.94-21.41,40.39-21.16.53.09.71.45.47.93Z"/>
    </g>
    <g id="_x3C_径向重复_x3E_-58" data-name="_x3C_径向重复_x3E_">
      <path class="cls-3" d="M149.15,56.92c-1.02,1.05-6.68,3.45-45.11,6.62,37.53-8.87,43.65-8.33,44.95-7.65.48.25.54.65.16,1.03Z"/>
    </g>
    <g id="_x3C_径向重复_x3E_-59" data-name="_x3C_径向重复_x3E_">
      <path class="cls-3" d="M148.98,74.77c-1.3.68-7.42,1.22-44.95-7.65,38.44,3.16,44.09,5.57,45.11,6.62.37.39.31.78-.16,1.03Z"/>
    </g>
    <g id="_x3C_径向重复_x3E_-60" data-name="_x3C_径向重复_x3E_">
      <path class="cls-3" d="M143.31,91.7c-1.44.25-7.43-1.13-40.39-21.16,35.58,14.89,40.21,18.92,40.86,20.23.24.48.06.84-.47.93Z"/>
    </g>
  </g>
</svg>