<?xml version="1.0" encoding="UTF-8"?>
<svg id="_图层_1" data-name="图层_1" xmlns="http://www.w3.org/2000/svg" viewBox="0 0 141.73 141.73">
  <defs>
    <style>
      .cls-1 {
        fill: #9d2324;
      }

      .cls-2 {
        fill: #cc261c;
      }

      .cls-3 {
        fill: #681218;
      }
    </style>
  </defs>
  <polygon class="cls-3" points="51.46 73.53 20.43 70.87 51.46 68.2 22.41 56.82 52.92 63.15 28.24 43.88 55.75 58.69 37.4 33.17 59.71 55.21 49.17 25.48 64.43 53.02 62.62 21.48 69.6 52.27 76.58 21.48 74.78 53.02 90.04 25.48 79.5 55.21 101.81 33.17 83.46 58.69 110.96 43.88 86.29 63.15 116.79 56.82 87.74 68.2 118.77 70.87 87.74 73.53 116.79 84.92 86.29 78.59 110.97 97.85 83.46 83.04 101.81 108.57 79.5 86.52 90.04 116.25 74.78 88.72 76.58 120.25 69.6 89.46 62.62 120.25 64.43 88.72 49.17 116.25 59.71 86.52 37.4 108.57 55.75 83.04 28.24 97.85 52.92 78.59 22.41 84.92 51.46 73.53"/>
  <polygon class="cls-2" points="40.49 75.11 60.27 73.66 42.84 83.26 61.41 76.2 47.38 90.41 63.23 78.32 53.69 95.97 65.57 79.85 61.31 99.5 68.21 80.64 69.61 100.71 70.99 80.63 77.88 99.51 73.65 79.84 85.51 95.97 75.96 78.33 91.83 90.41 77.79 76.2 96.36 83.28 78.94 73.64 98.72 75.11 79.33 70.88 98.72 66.62 78.93 68.07 96.37 58.47 77.79 65.54 91.83 51.32 75.98 63.41 85.51 45.76 73.64 61.89 77.9 42.23 70.99 61.1 69.59 41.02 68.22 61.1 61.33 42.23 65.56 61.89 53.7 45.76 63.24 63.4 47.37 51.32 61.42 65.53 42.85 58.46 60.27 68.09 40.48 66.62 59.88 70.85 40.49 75.11"/>
  <polygon class="cls-1" points="69.6 78.66 61.6 127.56 67.42 78.36 46.24 122.75 65.47 77.45 32.56 114.23 63.79 75.96 22.16 101.82 62.59 74.09 15.71 86.91 61.99 72.01 12.91 70.87 61.99 69.72 15.71 54.82 62.59 67.64 22.16 39.91 63.79 65.77 32.56 27.51 65.47 64.28 46.23 18.98 67.42 63.37 61.6 14.18 69.6 63.07 77.61 14.17 71.79 63.37 92.97 18.98 73.74 64.28 106.64 27.51 75.42 65.77 117.05 39.91 76.62 67.64 123.49 54.82 77.21 69.72 126.3 70.87 77.21 72.01 123.49 86.91 76.62 74.09 117.05 101.82 75.42 75.96 106.65 114.23 73.74 77.45 92.97 122.75 71.79 78.36 77.61 127.56 69.6 78.66"/>
</svg>