<?xml version="1.0" encoding="UTF-8"?>
<svg id="_图层_1" data-name="图层_1" xmlns="http://www.w3.org/2000/svg" viewBox="0 0 185.39 130.66">
  <defs>
    <style>
      .cls-1 {
        fill: #a2bce2;
      }

      .cls-2 {
        fill: #fff;
      }

      .cls-3 {
        fill: #3c6fb7;
      }

      .cls-4 {
        fill: #4f82c3;
      }

      .cls-5 {
        fill: #243e96;
      }
    </style>
  </defs>
  <g>
    <path class="cls-1" d="M103.63,76.26c.81-.81,13.83,10.89,29.4,26.38.83.83.83,2.18,0,3.02h0c-.84.84-2.19.84-3.02,0-15.5-15.58-27.19-28.6-26.38-29.41Z"/>
    <path class="cls-1" d="M100.92,78.41c.97-.61,11.06,13.69,22.8,32.27.63,1,.33,2.32-.67,2.94h0c-1,.63-2.32.33-2.95-.67-11.64-18.64-20.15-33.93-19.18-34.54Z"/>
    <path class="cls-1" d="M97.8,79.91c1.08-.38,7.73,15.81,15.04,36.53.39,1.11-.2,2.33-1.31,2.72h0c-1.12.39-2.34-.2-2.72-1.31-7.2-20.76-12.09-37.56-11.01-37.94Z"/>
    <path class="cls-1" d="M94.43,80.69c1.14-.13,4.02,17.13,6.54,38.96.13,1.17-.71,2.23-1.88,2.36h0c-1.17.13-2.23-.71-2.36-1.88-2.4-21.84-3.43-39.31-2.29-39.44Z"/>
    <path class="cls-1" d="M90.97,80.68c1.14.13.11,17.6-2.29,39.44-.13,1.17-1.19,2.01-2.36,1.88h0c-1.17-.13-2.02-1.19-1.88-2.36,2.52-21.83,5.4-39.09,6.54-38.96Z"/>
    <path class="cls-1" d="M87.59,79.92c1.08.38-3.81,17.18-11.01,37.94-.39,1.11-1.61,1.7-2.72,1.31h0c-1.12-.39-1.7-1.61-1.31-2.72,7.31-20.72,13.97-36.91,15.05-36.53Z"/>
    <path class="cls-1" d="M84.48,78.42c.97.61-7.54,15.9-19.18,34.54-.62,1-1.94,1.3-2.95.67h0c-1-.63-1.3-1.95-.67-2.94,11.74-18.58,21.83-32.87,22.8-32.26Z"/>
    <path class="cls-1" d="M81.77,76.26c.81.81-10.89,13.83-26.38,29.4-.83.83-2.18.83-3.02,0h0c-.84-.84-.84-2.19,0-3.02,15.58-15.5,28.6-27.19,29.41-26.38Z"/>
    <path class="cls-1" d="M79.61,73.55c.61.97-13.69,11.06-32.27,22.8-1,.63-2.32.33-2.94-.67h0c-.63-1-.33-2.32.67-2.95,18.64-11.64,33.93-20.15,34.54-19.18Z"/>
    <path class="cls-1" d="M78.11,70.43c.38,1.08-15.81,7.73-36.53,15.04-1.11.39-2.33-.2-2.72-1.31h0c-.39-1.12.2-2.34,1.31-2.72,20.76-7.2,37.56-12.09,37.94-11.01Z"/>
    <path class="cls-1" d="M77.34,67.06c.13,1.14-17.13,4.02-38.96,6.54-1.17.13-2.23-.71-2.36-1.88h0c-.13-1.17.71-2.23,1.88-2.36,21.84-2.4,39.31-3.43,39.44-2.29Z"/>
    <path class="cls-1" d="M77.34,63.6c-.13,1.14-17.6.11-39.44-2.29-1.17-.13-2.01-1.19-1.88-2.36h0c.13-1.17,1.19-2.02,2.36-1.88,21.83,2.52,39.09,5.4,38.96,6.54Z"/>
    <path class="cls-1" d="M78.11,60.23c-.38,1.08-17.18-3.81-37.94-11.01-1.11-.39-1.7-1.61-1.31-2.72h0c.39-1.12,1.61-1.7,2.72-1.31,20.72,7.31,36.91,13.97,36.53,15.05Z"/>
    <path class="cls-1" d="M79.61,57.11c-.61.97-15.9-7.54-34.54-19.18-1-.62-1.3-1.94-.67-2.95h0c.63-1,1.95-1.3,2.94-.67,18.58,11.74,32.87,21.83,32.26,22.8Z"/>
    <path class="cls-1" d="M81.77,54.4c-.81.81-13.83-10.89-29.4-26.38-.83-.83-.83-2.18,0-3.02h0c.84-.84,2.19-.84,3.02,0,15.5,15.58,27.19,28.6,26.38,29.41Z"/>
    <path class="cls-1" d="M84.47,52.24c-.97.61-11.06-13.69-22.8-32.27-.63-1-.33-2.32.67-2.94h0c1-.63,2.32-.33,2.95.67,11.64,18.64,20.15,33.93,19.18,34.54Z"/>
    <path class="cls-1" d="M87.59,50.74c-1.08.38-7.73-15.81-15.04-36.53-.39-1.11.2-2.33,1.31-2.72h0c1.12-.39,2.34.2,2.72,1.31,7.2,20.76,12.09,37.56,11.01,37.94Z"/>
    <path class="cls-1" d="M90.96,49.97c-1.14.13-4.02-17.13-6.54-38.96-.13-1.17.71-2.23,1.88-2.36h0c1.17-.13,2.23.71,2.36,1.88,2.4,21.84,3.43,39.31,2.29,39.44Z"/>
    <path class="cls-1" d="M94.42,49.97c-1.14-.13-.11-17.6,2.29-39.44.13-1.17,1.19-2.01,2.36-1.88h0c1.17.13,2.02,1.19,1.88,2.36-2.52,21.83-5.4,39.09-6.54,38.96Z"/>
    <path class="cls-1" d="M97.8,50.74c-1.08-.38,3.81-17.18,11.01-37.94.39-1.11,1.61-1.7,2.72-1.31h0c1.12.39,1.7,1.61,1.31,2.72-7.31,20.72-13.97,36.91-15.05,36.53Z"/>
    <path class="cls-1" d="M100.92,52.24c-.97-.61,7.54-15.9,19.18-34.54.62-1,1.94-1.3,2.95-.67h0c1,.63,1.3,1.95.67,2.94-11.74,18.58-21.83,32.87-22.8,32.26Z"/>
    <path class="cls-1" d="M103.62,54.4c-.81-.81,10.89-13.83,26.38-29.4.83-.83,2.18-.83,3.02,0h0c.84.84.84,2.19,0,3.02-15.58,15.5-28.6,27.19-29.41,26.38Z"/>
    <path class="cls-1" d="M105.78,57.11c-.61-.97,13.69-11.06,32.27-22.8,1-.63,2.32-.33,2.94.67h0c.63,1,.33,2.32-.67,2.95-18.64,11.64-33.93,20.15-34.54,19.18Z"/>
    <path class="cls-1" d="M107.28,60.22c-.38-1.08,15.81-7.73,36.53-15.04,1.11-.39,2.33.2,2.72,1.31h0c.39,1.12-.2,2.34-1.31,2.72-20.76,7.2-37.56,12.09-37.94,11.01Z"/>
    <path class="cls-1" d="M108.05,63.6c-.13-1.14,17.13-4.02,38.96-6.54,1.17-.13,2.23.71,2.36,1.88h0c.13,1.17-.71,2.23-1.88,2.36-21.84,2.4-39.31,3.43-39.44,2.29Z"/>
    <path class="cls-1" d="M108.05,67.06c.13-1.14,17.6-.11,39.44,2.29,1.17.13,2.01,1.19,1.88,2.36h0c-.13,1.17-1.19,2.02-2.36,1.88-21.83-2.52-39.09-5.4-38.96-6.54Z"/>
    <path class="cls-1" d="M107.28,70.43c.38-1.08,17.18,3.81,37.94,11.01,1.11.39,1.7,1.61,1.31,2.72h0c-.39,1.12-1.61,1.7-2.72,1.31-20.72-7.31-36.91-13.97-36.53-15.05Z"/>
    <path class="cls-1" d="M105.78,73.55c.61-.97,15.9,7.54,34.54,19.18,1,.62,1.3,1.94.67,2.95h0c-.63,1-1.95,1.3-2.94.67-18.58-11.74-32.87-21.83-32.26-22.8Z"/>
  </g>
  <path class="cls-5" d="M125.81,53.75c.76,2.2-8.08,6.55-7.83,8.76.25,2.29,9.82,4.58,9.56,6.82-.26,2.27-10.1,2.34-10.85,4.47s6.87,8.39,5.67,10.31c-1.2,1.92-10.09-2.3-11.71-.68-1.59,1.59,2.59,10.54.65,11.76-1.88,1.18-8.06-6.5-10.25-5.73s-2.28,10.64-4.49,10.89c-2.28.26-4.53-9.37-6.76-9.62s-6.63,8.59-8.75,7.84c-2.14-.76-.01-10.41-1.93-11.62-1.91-1.21-9.66,4.88-11.27,3.27-1.58-1.59,4.49-9.35,3.28-11.31-1.18-1.89-10.8.21-11.56-1.98-.76-2.2,8.08-6.55,7.83-8.76s-9.82-4.58-9.56-6.82c.26-2.27,10.1-2.34,10.85-4.47.75-2.15-6.87-8.39-5.67-10.31s10.09,2.3,11.71.68c1.59-1.59-2.59-10.54-.65-11.76,1.88-1.18,8.06,6.5,10.25,5.73s2.28-10.64,4.49-10.89c2.28-.26,4.53,9.37,6.76,9.62s6.63-8.59,8.75-7.84c2.14.76.01,10.41,1.93,11.62,1.91,1.21,9.66-4.88,11.27-3.27s-4.49,9.35-3.28,11.31c1.18,1.89,10.8-.21,11.56,1.98Z"/>
  <g>
    <path class="cls-4" d="M109.03,81.67c.44-.44,7.48,5.88,15.9,14.26.45.45.45,1.18,0,1.63h0c-.45.45-1.18.45-1.63,0-8.38-8.42-14.71-15.45-14.27-15.89Z"/>
    <path class="cls-4" d="M100.32,87.14c.58-.2,4.18,8.55,8.14,19.75.21.6-.11,1.26-.71,1.47h0c-.6.21-1.26-.11-1.47-.71-3.9-11.22-6.54-20.3-5.96-20.51Z"/>
    <path class="cls-4" d="M90.1,88.28c.62.07.06,9.51-1.23,21.32-.07.63-.64,1.09-1.28,1.02h0c-.63-.07-1.09-.64-1.02-1.28,1.36-11.8,2.91-21.13,3.53-21.06Z"/>
    <path class="cls-4" d="M80.4,84.89c.52.33-4.07,8.6-10.36,18.68-.34.54-1.05.7-1.59.36h0c-.54-.34-.7-1.05-.36-1.59,6.34-10.04,11.79-17.78,12.32-17.45Z"/>
    <path class="cls-4" d="M73.13,77.61c.33.52-7.4,5.98-17.44,12.33-.54.34-1.25.18-1.59-.36h0c-.34-.54-.18-1.26.36-1.59,10.07-6.3,18.34-10.9,18.67-10.37Z"/>
    <path class="cls-4" d="M69.74,67.91c.07.62-9.26,2.18-21.06,3.54-.63.07-1.2-.38-1.28-1.02h0c-.07-.63.38-1.21,1.02-1.28,11.81-1.3,21.25-1.86,21.32-1.25Z"/>
    <path class="cls-4" d="M70.89,57.69c-.2.58-9.29-2.06-20.51-5.95-.6-.21-.92-.87-.71-1.47h0c.21-.6.87-.92,1.47-.71,11.2,3.95,19.95,7.54,19.75,8.13Z"/>
    <path class="cls-4" d="M76.37,48.99c-.44.44-7.48-5.88-15.9-14.26-.45-.45-.45-1.18,0-1.63h0c.45-.45,1.18-.45,1.63,0,8.38,8.42,14.71,15.45,14.27,15.89Z"/>
    <path class="cls-4" d="M85.07,43.52c-.58.2-4.18-8.55-8.14-19.75-.21-.6.11-1.26.71-1.47h0c.6-.21,1.26.11,1.47.71,3.9,11.22,6.54,20.3,5.96,20.51Z"/>
    <path class="cls-4" d="M95.29,42.37c-.62-.07-.06-9.51,1.23-21.32.07-.63.64-1.09,1.28-1.02h0c.63.07,1.09.64,1.02,1.28-1.36,11.8-2.91,21.13-3.53,21.06Z"/>
    <path class="cls-4" d="M104.99,45.77c-.52-.33,4.07-8.6,10.36-18.68.34-.54,1.05-.7,1.59-.36h0c.54.34.7,1.05.36,1.59-6.34,10.04-11.79,17.78-12.32,17.45Z"/>
    <path class="cls-4" d="M112.26,53.04c-.33-.52,7.4-5.98,17.44-12.33.54-.34,1.25-.18,1.59.36h0c.34.54.18,1.26-.36,1.59-10.07,6.3-18.34,10.9-18.67,10.37Z"/>
    <path class="cls-4" d="M115.65,62.75c-.07-.62,9.26-2.18,21.06-3.54.63-.07,1.2.38,1.28,1.02h0c.07.63-.38,1.21-1.02,1.28-11.81,1.3-21.25,1.86-21.32,1.25Z"/>
    <path class="cls-4" d="M114.5,72.97c.2-.58,9.29,2.06,20.51,5.95.6.21.92.87.71,1.47h0c-.21.6-.87.92-1.47.71-11.2-3.95-19.95-7.54-19.75-8.13Z"/>
  </g>
  <g>
    <path class="cls-3" d="M92.69,78.55c.66,0,1.2,10.07,1.24,22.74,0,.68-.55,1.23-1.23,1.23h0c-.68,0-1.23-.55-1.23-1.23.03-12.67.56-22.74,1.22-22.74Z"/>
    <path class="cls-3" d="M89.75,78.22c.64.15-1.07,10.09-3.85,22.44-.15.66-.81,1.08-1.47.93h0c-.66-.15-1.08-.81-.93-1.47,2.85-12.34,5.61-22.04,6.25-21.89Z"/>
    <path class="cls-3" d="M86.95,77.24c.59.29-3.29,9.6-8.75,21.02-.29.61-1.03.87-1.64.57h0c-.61-.3-.87-1.03-.58-1.64,5.52-11.4,10.37-20.24,10.97-19.95Z"/>
    <path class="cls-3" d="M84.45,75.66c.52.41-5.34,8.62-13.21,18.55-.42.53-1.2.62-1.73.19h0c-.53-.42-.62-1.2-.2-1.73,7.92-9.88,14.62-17.43,15.13-17.01Z"/>
    <path class="cls-3" d="M82.36,73.56c.41.52-7.13,7.22-17,15.15-.53.42-1.3.34-1.73-.2h0c-.42-.53-.34-1.31.19-1.73,9.92-7.87,18.13-13.74,18.54-13.22Z"/>
    <path class="cls-3" d="M80.78,71.06c.29.59-8.55,5.45-19.95,10.98-.61.3-1.35.04-1.64-.58h0c-.3-.61-.04-1.35.57-1.64,11.42-5.47,20.73-9.36,21.02-8.76Z"/>
    <path class="cls-3" d="M79.81,68.26c.15.64-9.55,3.41-21.89,6.27-.66.15-1.32-.26-1.47-.93h0c-.15-.66.26-1.33.93-1.48,12.35-2.79,22.29-4.51,22.44-3.87Z"/>
    <path class="cls-3" d="M79.48,65.32c0,.66-10.07,1.2-22.74,1.24-.68,0-1.23-.55-1.23-1.23h0c0-.68.55-1.23,1.23-1.23,12.67.03,22.74.56,22.74,1.22Z"/>
    <path class="cls-3" d="M79.81,62.38c-.15.64-10.09-1.07-22.44-3.85-.66-.15-1.08-.81-.93-1.47h0c.15-.66.81-1.08,1.47-.93,12.34,2.85,22.04,5.61,21.89,6.25Z"/>
    <path class="cls-3" d="M80.79,59.59c-.29.59-9.6-3.29-21.02-8.75-.61-.29-.87-1.03-.57-1.64h0c.3-.61,1.03-.87,1.64-.58,11.4,5.52,20.24,10.37,19.95,10.97Z"/>
    <path class="cls-3" d="M82.37,57.08c-.41.52-8.62-5.34-18.55-13.21-.53-.42-.62-1.2-.19-1.73h0c.42-.53,1.2-.62,1.73-.2,9.88,7.92,17.43,14.62,17.01,15.13Z"/>
    <path class="cls-3" d="M84.46,54.99c-.52.41-7.22-7.13-15.15-17-.42-.53-.34-1.3.2-1.73h0c.53-.42,1.31-.34,1.73.19,7.87,9.92,13.74,18.13,13.22,18.54Z"/>
    <path class="cls-3" d="M86.97,53.42c-.59.29-5.45-8.55-10.98-19.95-.3-.61-.04-1.35.58-1.64h0c.61-.3,1.35-.04,1.64.57,5.47,11.42,9.36,20.73,8.76,21.02Z"/>
    <path class="cls-3" d="M89.76,52.44c-.64.15-3.41-9.55-6.27-21.89-.15-.66.26-1.32.93-1.47h0c.66-.15,1.33.26,1.48.93,2.79,12.35,4.51,22.29,3.87,22.44Z"/>
    <path class="cls-3" d="M92.7,52.11c-.66,0-1.2-10.07-1.24-22.74,0-.68.55-1.23,1.23-1.23h0c.68,0,1.23.55,1.23,1.23-.03,12.67-.56,22.74-1.22,22.74Z"/>
    <path class="cls-3" d="M95.65,52.44c-.64-.15,1.07-10.09,3.85-22.44.15-.66.81-1.08,1.47-.93h0c.66.15,1.08.81.93,1.47-2.85,12.34-5.61,22.04-6.25,21.89Z"/>
    <path class="cls-3" d="M98.44,53.42c-.59-.29,3.29-9.6,8.75-21.02.29-.61,1.03-.87,1.64-.57h0c.61.3.87,1.03.58,1.64-5.52,11.4-10.37,20.24-10.97,19.95Z"/>
    <path class="cls-3" d="M100.95,55c-.52-.41,5.34-8.62,13.21-18.55.42-.53,1.2-.62,1.73-.19h0c.53.42.62,1.2.2,1.73-7.92,9.88-14.62,17.43-15.13,17.01Z"/>
    <path class="cls-3" d="M103.04,57.09c-.41-.52,7.13-7.22,17-15.15.53-.42,1.3-.34,1.73.2h0c.42.53.34,1.31-.19,1.73-9.92,7.87-18.13,13.74-18.54,13.22Z"/>
    <path class="cls-3" d="M104.61,59.6c-.29-.59,8.55-5.45,19.95-10.98.61-.3,1.35-.04,1.64.58h0c.3.61.04,1.35-.57,1.64-11.42,5.47-20.73,9.36-21.02,8.76Z"/>
    <path class="cls-3" d="M105.59,62.4c-.15-.64,9.55-3.41,21.89-6.27.66-.15,1.32.26,1.47.93h0c.15.66-.26,1.33-.93,1.48-12.35,2.79-22.29,4.51-22.44,3.87Z"/>
    <path class="cls-3" d="M105.92,65.34c0-.66,10.07-1.2,22.74-1.24.68,0,1.23.55,1.23,1.23h0c0,.68-.55,1.23-1.23,1.23-12.67-.03-22.74-.56-22.74-1.22Z"/>
    <path class="cls-3" d="M105.58,68.28c.15-.64,10.09,1.07,22.44,3.85.66.15,1.08.81.93,1.47h0c-.15.66-.81,1.08-1.47.93-12.34-2.85-22.04-5.61-21.89-6.25Z"/>
    <path class="cls-3" d="M104.6,71.07c.29-.59,9.6,3.29,21.02,8.75.61.29.87,1.03.57,1.64h0c-.3.61-1.03.87-1.64.58-11.4-5.52-20.24-10.37-19.95-10.97Z"/>
    <path class="cls-3" d="M103.03,73.58c.41-.52,8.62,5.34,18.55,13.21.53.42.62,1.2.19,1.73h0c-.42.53-1.2.62-1.73.2-9.88-7.92-17.43-14.62-17.01-15.13Z"/>
    <path class="cls-3" d="M100.93,75.67c.52-.41,7.22,7.13,15.15,17,.42.53.34,1.3-.2,1.73h0c-.53.42-1.31.34-1.73-.19-7.87-9.92-13.74-18.13-13.22-18.54Z"/>
    <path class="cls-3" d="M98.42,77.24c.59-.29,5.45,8.55,10.98,19.95.3.61.04,1.35-.58,1.64h0c-.61.3-1.35.04-1.64-.57-5.47-11.42-9.36-20.73-8.76-21.02Z"/>
    <path class="cls-3" d="M95.63,78.22c.64-.15,3.41,9.55,6.27,21.89.15.66-.26,1.32-.93,1.47h0c-.66.15-1.33-.26-1.48-.93-2.79-12.35-4.51-22.29-3.87-22.44Z"/>
  </g>
  <g>
    <g id="_x3C_径向重复_x3E_">
      <path class="cls-2" d="M92.69,73.4c.39,0,.71,5.93.73,13.39,0,.4-.32.72-.72.72h0c-.4,0-.73-.33-.73-.72.02-7.46.33-13.39.72-13.39Z"/>
    </g>
    <g id="_x3C_径向重复_x3E_-2" data-name="_x3C_径向重复_x3E_">
      <path class="cls-2" d="M90.9,73.19c.38.09-.63,5.94-2.27,13.21-.09.39-.48.63-.87.54h0c-.39-.09-.64-.48-.55-.87,1.68-7.27,3.3-12.98,3.68-12.89Z"/>
    </g>
    <g id="_x3C_径向重复_x3E_-3" data-name="_x3C_径向重复_x3E_">
      <path class="cls-2" d="M89.19,72.59c.35.17-1.94,5.65-5.15,12.38-.17.36-.61.51-.97.34h0c-.36-.17-.51-.61-.34-.97,3.25-6.71,6.11-11.92,6.46-11.75Z"/>
    </g>
    <g id="_x3C_径向重复_x3E_-4" data-name="_x3C_径向重复_x3E_">
      <path class="cls-2" d="M87.66,71.63c.3.24-3.14,5.08-7.78,10.92-.25.31-.7.36-1.02.11h0c-.31-.25-.37-.71-.12-1.02,4.66-5.82,8.61-10.26,8.91-10.02Z"/>
    </g>
    <g id="_x3C_径向重复_x3E_-5" data-name="_x3C_径向重复_x3E_">
      <path class="cls-2" d="M86.39,70.35c.24.3-4.2,4.25-10.01,8.92-.31.25-.77.2-1.02-.12h0c-.25-.31-.2-.77.11-1.02,5.84-4.64,10.67-8.09,10.92-7.78Z"/>
    </g>
    <g id="_x3C_径向重复_x3E_-6" data-name="_x3C_径向重复_x3E_">
      <path class="cls-2" d="M85.43,68.83c.17.35-5.04,3.21-11.74,6.47-.36.17-.79.02-.97-.34h0c-.17-.36-.02-.8.34-.97,6.73-3.22,12.21-5.51,12.37-5.16Z"/>
    </g>
    <g id="_x3C_径向重复_x3E_-7" data-name="_x3C_径向重复_x3E_">
      <path class="cls-2" d="M84.83,67.12c.09.38-5.62,2.01-12.89,3.69-.39.09-.78-.15-.87-.55h0c-.09-.39.16-.78.55-.87,7.27-1.64,13.13-2.66,13.21-2.28Z"/>
    </g>
    <g id="_x3C_径向重复_x3E_-8" data-name="_x3C_径向重复_x3E_">
      <path class="cls-2" d="M84.63,65.32c0,.39-5.93.71-13.39.73-.4,0-.72-.32-.72-.72h0c0-.4.33-.73.72-.73,7.46.02,13.39.33,13.39.72Z"/>
    </g>
    <g id="_x3C_径向重复_x3E_-9" data-name="_x3C_径向重复_x3E_">
      <path class="cls-2" d="M84.83,63.53c-.09.38-5.94-.63-13.21-2.27-.39-.09-.63-.48-.54-.87h0c.09-.39.48-.64.87-.55,7.27,1.68,12.98,3.3,12.89,3.68Z"/>
    </g>
    <g id="_x3C_径向重复_x3E_-10" data-name="_x3C_径向重复_x3E_">
      <path class="cls-2" d="M85.43,61.82c-.17.35-5.65-1.94-12.38-5.15-.36-.17-.51-.61-.34-.97h0c.17-.36.61-.51.97-.34,6.71,3.25,11.92,6.11,11.75,6.46Z"/>
    </g>
    <g id="_x3C_径向重复_x3E_-11" data-name="_x3C_径向重复_x3E_">
      <path class="cls-2" d="M86.39,60.3c-.24.3-5.08-3.14-10.92-7.78-.31-.25-.36-.7-.11-1.02h0c.25-.31.71-.37,1.02-.12,5.82,4.66,10.26,8.61,10.02,8.91Z"/>
    </g>
    <g id="_x3C_径向重复_x3E_-12" data-name="_x3C_径向重复_x3E_">
      <path class="cls-2" d="M87.67,59.02c-.3.24-4.25-4.2-8.92-10.01-.25-.31-.2-.77.12-1.02h0c.31-.25.77-.2,1.02.11,4.64,5.84,8.09,10.67,7.78,10.92Z"/>
    </g>
    <g id="_x3C_径向重复_x3E_-13" data-name="_x3C_径向重复_x3E_">
      <path class="cls-2" d="M89.2,58.06c-.35.17-3.21-5.04-6.47-11.74-.17-.36-.02-.79.34-.97h0c.36-.17.8-.02.97.34,3.22,6.73,5.51,12.21,5.16,12.37Z"/>
    </g>
    <g id="_x3C_径向重复_x3E_-14" data-name="_x3C_径向重复_x3E_">
      <path class="cls-2" d="M90.91,57.46c-.38.09-2.01-5.62-3.69-12.89-.09-.39.15-.78.55-.87h0c.39-.09.78.16.87.55,1.64,7.27,2.66,13.13,2.28,13.21Z"/>
    </g>
    <g id="_x3C_径向重复_x3E_-15" data-name="_x3C_径向重复_x3E_">
      <path class="cls-2" d="M92.7,57.26c-.39,0-.71-5.93-.73-13.39,0-.4.32-.72.72-.72h0c.4,0,.73.33.73.72-.02,7.46-.33,13.39-.72,13.39Z"/>
    </g>
    <g id="_x3C_径向重复_x3E_-16" data-name="_x3C_径向重复_x3E_">
      <path class="cls-2" d="M94.5,57.47c-.38-.09.63-5.94,2.27-13.21.09-.39.48-.63.87-.54h0c.39.09.64.48.55.87-1.68,7.27-3.3,12.98-3.68,12.89Z"/>
    </g>
    <g id="_x3C_径向重复_x3E_-17" data-name="_x3C_径向重复_x3E_">
      <path class="cls-2" d="M96.2,58.06c-.35-.17,1.94-5.65,5.15-12.38.17-.36.61-.51.97-.34h0c.36.17.51.61.34.97-3.25,6.71-6.11,11.92-6.46,11.75Z"/>
    </g>
    <g id="_x3C_径向重复_x3E_-18" data-name="_x3C_径向重复_x3E_">
      <path class="cls-2" d="M97.73,59.03c-.3-.24,3.14-5.08,7.78-10.92.25-.31.7-.36,1.02-.11h0c.31.25.37.71.12,1.02-4.66,5.82-8.61,10.26-8.91,10.02Z"/>
    </g>
    <g id="_x3C_径向重复_x3E_-19" data-name="_x3C_径向重复_x3E_">
      <path class="cls-2" d="M99.01,60.3c-.24-.3,4.2-4.25,10.01-8.92.31-.25.77-.2,1.02.12h0c.25.31.2.77-.11,1.02-5.84,4.64-10.67,8.09-10.92,7.78Z"/>
    </g>
    <g id="_x3C_径向重复_x3E_-20" data-name="_x3C_径向重复_x3E_">
      <path class="cls-2" d="M99.97,61.83c-.17-.35,5.04-3.21,11.74-6.47.36-.17.79-.02.97.34h0c.17.36.02.8-.34.97-6.73,3.22-12.21,5.51-12.37,5.16Z"/>
    </g>
    <g id="_x3C_径向重复_x3E_-21" data-name="_x3C_径向重复_x3E_">
      <path class="cls-2" d="M100.56,63.54c-.09-.38,5.62-2.01,12.89-3.69.39-.09.78.15.87.55h0c.09.39-.16.78-.55.87-7.27,1.64-13.13,2.66-13.21,2.28Z"/>
    </g>
    <g id="_x3C_径向重复_x3E_-22" data-name="_x3C_径向重复_x3E_">
      <path class="cls-2" d="M100.76,65.33c0-.39,5.93-.71,13.39-.73.4,0,.72.32.72.72h0c0,.4-.33.73-.72.73-7.46-.02-13.39-.33-13.39-.72Z"/>
    </g>
    <g id="_x3C_径向重复_x3E_-23" data-name="_x3C_径向重复_x3E_">
      <path class="cls-2" d="M100.56,67.13c.09-.38,5.94.63,13.21,2.27.39.09.63.48.54.87h0c-.09.39-.48.64-.87.55-7.27-1.68-12.98-3.3-12.89-3.68Z"/>
    </g>
    <g id="_x3C_径向重复_x3E_-24" data-name="_x3C_径向重复_x3E_">
      <path class="cls-2" d="M99.96,68.83c.17-.35,5.65,1.94,12.38,5.15.36.17.51.61.34.97h0c-.17.36-.61.51-.97.34-6.71-3.25-11.92-6.11-11.75-6.46Z"/>
    </g>
    <g id="_x3C_径向重复_x3E_-25" data-name="_x3C_径向重复_x3E_">
      <path class="cls-2" d="M99,70.36c.24-.3,5.08,3.14,10.92,7.78.31.25.36.7.11,1.02h0c-.25.31-.71.37-1.02.12-5.82-4.66-10.26-8.61-10.02-8.91Z"/>
    </g>
    <g id="_x3C_径向重复_x3E_-26" data-name="_x3C_径向重复_x3E_">
      <path class="cls-2" d="M97.72,71.64c.3-.24,4.25,4.2,8.92,10.01.25.31.2.77-.12,1.02h0c-.31.25-.77.2-1.02-.11-4.64-5.84-8.09-10.67-7.78-10.92Z"/>
    </g>
    <g id="_x3C_径向重复_x3E_-27" data-name="_x3C_径向重复_x3E_">
      <path class="cls-2" d="M96.19,72.6c.35-.17,3.21,5.04,6.47,11.74.17.36.02.79-.34.97h0c-.36.17-.8.02-.97-.34-3.22-6.73-5.51-12.21-5.16-12.37Z"/>
    </g>
    <g id="_x3C_径向重复_x3E_-28" data-name="_x3C_径向重复_x3E_">
      <path class="cls-2" d="M94.49,73.19c.38-.09,2.01,5.62,3.69,12.89.09.39-.15.78-.55.87h0c-.39.09-.78-.16-.87-.55-1.64-7.27-2.66-13.13-2.28-13.21Z"/>
    </g>
  </g>
</svg>