<?xml version="1.0" encoding="UTF-8"?>
<svg id="_图层_1" data-name="图层_1" xmlns="http://www.w3.org/2000/svg" viewBox="0 0 141.73 141.73">
  <defs>
    <style>
      .cls-1 {
        fill: #c7e3c9;
      }

      .cls-2 {
        fill: #349394;
      }

      .cls-3 {
        fill: #80c489;
      }
    </style>
  </defs>
  <g>
    <g id="_x3C_径向重复_x3E_">
      <ellipse class="cls-1" cx="70.87" cy="38.56" rx="3.84" ry="12.16"/>
    </g>
    <g id="_x3C_径向重复_x3E_-2" data-name="_x3C_径向重复_x3E_">
      <ellipse class="cls-1" cx="80.85" cy="40.14" rx="12.16" ry="3.84" transform="translate(17.69 104.63) rotate(-72)"/>
    </g>
    <g id="_x3C_径向重复_x3E_-3" data-name="_x3C_径向重复_x3E_">
      <ellipse class="cls-1" cx="89.86" cy="44.73" rx="12.16" ry="3.84" transform="translate(.85 91.13) rotate(-54)"/>
    </g>
    <g id="_x3C_径向重复_x3E_-4" data-name="_x3C_径向重复_x3E_">
      <ellipse class="cls-1" cx="97" cy="51.88" rx="12.16" ry="3.84" transform="translate(-11.97 66.92) rotate(-36)"/>
    </g>
    <g id="_x3C_径向重复_x3E_-5" data-name="_x3C_径向重复_x3E_">
      <ellipse class="cls-1" cx="101.59" cy="60.88" rx="12.16" ry="3.84" transform="translate(-13.84 34.37) rotate(-18)"/>
    </g>
    <g id="_x3C_径向重复_x3E_-6" data-name="_x3C_径向重复_x3E_">
      <ellipse class="cls-1" cx="103.17" cy="70.87" rx="12.16" ry="3.84"/>
    </g>
    <g id="_x3C_径向重复_x3E_-7" data-name="_x3C_径向重复_x3E_">
      <ellipse class="cls-1" cx="101.59" cy="80.85" rx="3.84" ry="12.16" transform="translate(-6.69 152.48) rotate(-72)"/>
    </g>
    <g id="_x3C_径向重复_x3E_-8" data-name="_x3C_径向重复_x3E_">
      <ellipse class="cls-1" cx="97" cy="89.86" rx="3.84" ry="12.16" transform="translate(-32.71 115.52) rotate(-54)"/>
    </g>
    <g id="_x3C_径向重复_x3E_-9" data-name="_x3C_径向重复_x3E_">
      <ellipse class="cls-1" cx="89.86" cy="97" rx="3.84" ry="12.16" transform="translate(-39.86 71.34) rotate(-36)"/>
    </g>
    <g id="_x3C_径向重复_x3E_-10" data-name="_x3C_径向重复_x3E_">
      <ellipse class="cls-1" cx="80.85" cy="101.59" rx="3.84" ry="12.16" transform="translate(-27.44 29.96) rotate(-18)"/>
    </g>
    <g id="_x3C_径向重复_x3E_-11" data-name="_x3C_径向重复_x3E_">
      <ellipse class="cls-1" cx="70.87" cy="103.17" rx="3.84" ry="12.16"/>
    </g>
    <g id="_x3C_径向重复_x3E_-12" data-name="_x3C_径向重复_x3E_">
      <ellipse class="cls-1" cx="60.88" cy="101.59" rx="12.16" ry="3.84" transform="translate(-54.55 128.1) rotate(-72)"/>
    </g>
    <g id="_x3C_径向重复_x3E_-13" data-name="_x3C_径向重复_x3E_">
      <ellipse class="cls-1" cx="51.88" cy="97" rx="12.16" ry="3.84" transform="translate(-57.09 81.95) rotate(-54)"/>
    </g>
    <g id="_x3C_径向重复_x3E_-14" data-name="_x3C_径向重复_x3E_">
      <ellipse class="cls-1" cx="44.73" cy="89.86" rx="12.16" ry="3.84" transform="translate(-44.27 43.45) rotate(-36)"/>
    </g>
    <g id="_x3C_径向重复_x3E_-15" data-name="_x3C_径向重复_x3E_">
      <ellipse class="cls-1" cx="40.14" cy="80.85" rx="12.16" ry="3.84" transform="translate(-23.02 16.36) rotate(-18)"/>
    </g>
    <g id="_x3C_径向重复_x3E_-16" data-name="_x3C_径向重复_x3E_">
      <ellipse class="cls-1" cx="38.56" cy="70.87" rx="12.16" ry="3.84"/>
    </g>
    <g id="_x3C_径向重复_x3E_-17" data-name="_x3C_径向重复_x3E_">
      <ellipse class="cls-1" cx="40.14" cy="60.88" rx="3.84" ry="12.16" transform="translate(-30.17 80.25) rotate(-72)"/>
    </g>
    <g id="_x3C_径向重复_x3E_-18" data-name="_x3C_径向重复_x3E_">
      <ellipse class="cls-1" cx="44.73" cy="51.88" rx="3.84" ry="12.16" transform="translate(-23.53 57.57) rotate(-54)"/>
    </g>
    <g id="_x3C_径向重复_x3E_-19" data-name="_x3C_径向重复_x3E_">
      <ellipse class="cls-1" cx="51.88" cy="44.73" rx="3.84" ry="12.16" transform="translate(-16.38 39.04) rotate(-36)"/>
    </g>
    <g id="_x3C_径向重复_x3E_-20" data-name="_x3C_径向重复_x3E_">
      <ellipse class="cls-1" cx="60.88" cy="40.14" rx="3.84" ry="12.16" transform="translate(-9.42 20.78) rotate(-18)"/>
    </g>
  </g>
  <g>
    <g id="_x3C_径向重复_x3E_-21" data-name="_x3C_径向重复_x3E_">
      <path class="cls-2" d="M70.58,78.25c-.47,1.18-1.28,7.17.28,45.81,1.56-38.65.76-44.64.28-45.81-.17-.43-.39-.43-.56,0Z"/>
    </g>
    <g id="_x3C_径向重复_x3E_-22" data-name="_x3C_径向重复_x3E_">
      <path class="cls-2" d="M68.32,77.8c-.82.97-3.43,6.42-13.89,43.66,13.43-36.27,14.51-42.22,14.43-43.49-.03-.47-.24-.53-.54-.17Z"/>
    </g>
    <g id="_x3C_径向重复_x3E_-23" data-name="_x3C_径向重复_x3E_">
      <path class="cls-2" d="M66.3,76.67c-1.08.67-5.25,5.05-26.7,37.23,23.98-30.35,26.85-35.67,27.16-36.9.11-.45-.06-.58-.46-.33Z"/>
    </g>
    <g id="_x3C_径向重复_x3E_-24" data-name="_x3C_径向重复_x3E_">
      <path class="cls-2" d="M64.73,74.98c-1.23.31-6.55,3.18-36.9,27.16,32.18-21.45,36.56-25.62,37.23-26.7.25-.4.12-.57-.33-.46Z"/>
    </g>
    <g id="_x3C_径向重复_x3E_-25" data-name="_x3C_径向重复_x3E_">
      <path class="cls-2" d="M63.76,72.88c-1.27-.09-7.21,1-43.49,14.43,37.24-10.46,42.69-13.07,43.66-13.89.36-.3.29-.51-.17-.54Z"/>
    </g>
    <g id="_x3C_径向重复_x3E_-26" data-name="_x3C_径向重复_x3E_">
      <path class="cls-2" d="M63.48,70.58c-1.18-.47-7.17-1.28-45.81.28,38.65,1.56,44.64.76,45.81.28.43-.17.43-.39,0-.56Z"/>
    </g>
    <g id="_x3C_径向重复_x3E_-27" data-name="_x3C_径向重复_x3E_">
      <path class="cls-2" d="M63.93,68.32c-.97-.82-6.42-3.43-43.66-13.89,36.27,13.43,42.22,14.51,43.49,14.43.47-.03.53-.24.17-.54Z"/>
    </g>
    <g id="_x3C_径向重复_x3E_-28" data-name="_x3C_径向重复_x3E_">
      <path class="cls-2" d="M65.06,66.3c-.67-1.08-5.05-5.25-37.23-26.7,30.35,23.98,35.67,26.85,36.9,27.16.45.11.58-.06.33-.46Z"/>
    </g>
    <g id="_x3C_径向重复_x3E_-29" data-name="_x3C_径向重复_x3E_">
      <path class="cls-2" d="M66.75,64.73c-.31-1.23-3.18-6.55-27.16-36.9,21.45,32.18,25.62,36.56,26.7,37.23.4.25.57.12.46-.33Z"/>
    </g>
    <g id="_x3C_径向重复_x3E_-30" data-name="_x3C_径向重复_x3E_">
      <path class="cls-2" d="M68.85,63.76c.09-1.27-1-7.21-14.43-43.49,10.46,37.24,13.07,42.69,13.89,43.66.3.36.51.29.54-.17Z"/>
    </g>
    <g id="_x3C_径向重复_x3E_-31" data-name="_x3C_径向重复_x3E_">
      <path class="cls-2" d="M71.15,63.48c.47-1.18,1.28-7.17-.28-45.81-1.56,38.65-.76,44.64-.28,45.81.17.43.39.43.56,0Z"/>
    </g>
    <g id="_x3C_径向重复_x3E_-32" data-name="_x3C_径向重复_x3E_">
      <path class="cls-2" d="M73.42,63.93c.82-.97,3.43-6.42,13.89-43.66-13.43,36.27-14.51,42.22-14.43,43.49.03.47.24.53.54.17Z"/>
    </g>
    <g id="_x3C_径向重复_x3E_-33" data-name="_x3C_径向重复_x3E_">
      <path class="cls-2" d="M75.44,65.06c1.08-.67,5.25-5.05,26.7-37.23-23.98,30.35-26.85,35.67-27.16,36.9-.11.45.06.58.46.33Z"/>
    </g>
    <g id="_x3C_径向重复_x3E_-34" data-name="_x3C_径向重复_x3E_">
      <path class="cls-2" d="M77.01,66.75c1.23-.31,6.55-3.18,36.9-27.16-32.18,21.45-36.56,25.62-37.23,26.7-.25.4-.12.57.33.46Z"/>
    </g>
    <g id="_x3C_径向重复_x3E_-35" data-name="_x3C_径向重复_x3E_">
      <path class="cls-2" d="M77.98,68.85c1.27.09,7.21-1,43.49-14.43-37.24,10.46-42.69,13.07-43.66,13.89-.36.3-.29.51.17.54Z"/>
    </g>
    <g id="_x3C_径向重复_x3E_-36" data-name="_x3C_径向重复_x3E_">
      <path class="cls-2" d="M78.25,71.15c1.18.47,7.17,1.28,45.81-.28-38.65-1.56-44.64-.76-45.81-.28-.43.17-.43.39,0,.56Z"/>
    </g>
    <g id="_x3C_径向重复_x3E_-37" data-name="_x3C_径向重复_x3E_">
      <path class="cls-2" d="M77.8,73.42c.97.82,6.42,3.43,43.66,13.89-36.27-13.43-42.22-14.51-43.49-14.43-.47.03-.53.24-.17.54Z"/>
    </g>
    <g id="_x3C_径向重复_x3E_-38" data-name="_x3C_径向重复_x3E_">
      <path class="cls-2" d="M76.67,75.44c.67,1.08,5.05,5.25,37.23,26.7-30.35-23.98-35.67-26.85-36.9-27.16-.45-.11-.58.06-.33.46Z"/>
    </g>
    <g id="_x3C_径向重复_x3E_-39" data-name="_x3C_径向重复_x3E_">
      <path class="cls-2" d="M74.98,77.01c.31,1.23,3.18,6.55,27.16,36.9-21.45-32.18-25.62-36.56-26.7-37.23-.4-.25-.57-.12-.46.33Z"/>
    </g>
    <g id="_x3C_径向重复_x3E_-40" data-name="_x3C_径向重复_x3E_">
      <path class="cls-2" d="M72.88,77.98c-.09,1.27,1,7.21,14.43,43.49-10.46-37.24-13.07-42.69-13.89-43.66-.3-.36-.51-.29-.54.17Z"/>
    </g>
  </g>
  <g>
    <g id="_x3C_径向重复_x3E_-41" data-name="_x3C_径向重复_x3E_">
      <path class="cls-3" d="M110.85,111.59c-1.45-.21-6.72-3.37-31.87-32.61,29.24,25.15,32.4,30.42,32.61,31.87.08.53-.21.82-.74.74Z"/>
    </g>
    <g id="_x3C_径向重复_x3E_-42" data-name="_x3C_径向重复_x3E_">
      <path class="cls-3" d="M96.31,121.95c-1.31-.65-5.35-5.28-20.23-40.86,20.03,32.96,21.41,38.94,21.16,40.39-.09.53-.45.71-.93.47Z"/>
    </g>
    <g id="_x3C_径向重复_x3E_-43" data-name="_x3C_径向重复_x3E_">
      <path class="cls-3" d="M79.28,127.32c-1.05-1.02-3.45-6.68-6.62-45.11,8.87,37.53,8.33,43.65,7.65,44.95-.25.48-.65.54-1.03.16Z"/>
    </g>
    <g id="_x3C_径向重复_x3E_-44" data-name="_x3C_径向重复_x3E_">
      <path class="cls-3" d="M61.42,127.15c-.68-1.3-1.22-7.42,7.65-44.95-3.16,38.44-5.57,44.09-6.62,45.11-.39.37-.78.31-1.03-.16Z"/>
    </g>
    <g id="_x3C_径向重复_x3E_-45" data-name="_x3C_径向重复_x3E_">
      <path class="cls-3" d="M44.49,121.48c-.25-1.44,1.13-7.43,21.16-40.39-14.89,35.58-18.92,40.21-20.23,40.86-.48.24-.84.06-.93-.47Z"/>
    </g>
    <g id="_x3C_径向重复_x3E_-46" data-name="_x3C_径向重复_x3E_">
      <path class="cls-3" d="M30.14,110.85c.21-1.45,3.37-6.72,32.61-31.87-25.15,29.24-30.42,32.4-31.87,32.61-.53.08-.82-.21-.74-.74Z"/>
    </g>
    <g id="_x3C_径向重复_x3E_-47" data-name="_x3C_径向重复_x3E_">
      <path class="cls-3" d="M19.78,96.31c.65-1.31,5.28-5.35,40.86-20.23-32.96,20.03-38.94,21.41-40.39,21.16-.53-.09-.71-.45-.47-.93Z"/>
    </g>
    <g id="_x3C_径向重复_x3E_-48" data-name="_x3C_径向重复_x3E_">
      <path class="cls-3" d="M14.42,79.28c1.02-1.05,6.68-3.45,45.11-6.62-37.53,8.87-43.65,8.33-44.95,7.65-.48-.25-.54-.65-.16-1.03Z"/>
    </g>
    <g id="_x3C_径向重复_x3E_-49" data-name="_x3C_径向重复_x3E_">
      <path class="cls-3" d="M14.58,61.42c1.3-.68,7.42-1.22,44.95,7.65-38.44-3.16-44.09-5.57-45.11-6.62-.37-.39-.31-.78.16-1.03Z"/>
    </g>
    <g id="_x3C_径向重复_x3E_-50" data-name="_x3C_径向重复_x3E_">
      <path class="cls-3" d="M20.25,44.49c1.44-.25,7.43,1.13,40.39,21.16-35.58-14.89-40.21-18.92-40.86-20.23-.24-.48-.06-.84.47-.93Z"/>
    </g>
    <g id="_x3C_径向重复_x3E_-51" data-name="_x3C_径向重复_x3E_">
      <path class="cls-3" d="M30.88,30.14c1.45.21,6.72,3.37,31.87,32.61-29.24-25.15-32.4-30.42-32.61-31.87-.08-.53.21-.82.74-.74Z"/>
    </g>
    <g id="_x3C_径向重复_x3E_-52" data-name="_x3C_径向重复_x3E_">
      <path class="cls-3" d="M45.42,19.78c1.31.65,5.35,5.28,20.23,40.86-20.03-32.96-21.41-38.94-21.16-40.39.09-.53.45-.71.93-.47Z"/>
    </g>
    <g id="_x3C_径向重复_x3E_-53" data-name="_x3C_径向重复_x3E_">
      <path class="cls-3" d="M62.45,14.42c1.05,1.02,3.45,6.68,6.62,45.11-8.87-37.53-8.33-43.65-7.65-44.95.25-.48.65-.54,1.03-.16Z"/>
    </g>
    <g id="_x3C_径向重复_x3E_-54" data-name="_x3C_径向重复_x3E_">
      <path class="cls-3" d="M80.31,14.58c.68,1.3,1.22,7.42-7.65,44.95,3.16-38.44,5.57-44.09,6.62-45.11.39-.37.78-.31,1.03.16Z"/>
    </g>
    <g id="_x3C_径向重复_x3E_-55" data-name="_x3C_径向重复_x3E_">
      <path class="cls-3" d="M97.24,20.25c.25,1.44-1.13,7.43-21.16,40.39,14.89-35.58,18.92-40.21,20.23-40.86.48-.24.84-.06.93.47Z"/>
    </g>
    <g id="_x3C_径向重复_x3E_-56" data-name="_x3C_径向重复_x3E_">
      <path class="cls-3" d="M111.59,30.88c-.21,1.45-3.37,6.72-32.61,31.87,25.15-29.24,30.42-32.4,31.87-32.61.53-.08.82.21.74.74Z"/>
    </g>
    <g id="_x3C_径向重复_x3E_-57" data-name="_x3C_径向重复_x3E_">
      <path class="cls-3" d="M121.95,45.42c-.65,1.31-5.28,5.35-40.86,20.23,32.96-20.03,38.94-21.41,40.39-21.16.53.09.71.45.47.93Z"/>
    </g>
    <g id="_x3C_径向重复_x3E_-58" data-name="_x3C_径向重复_x3E_">
      <path class="cls-3" d="M127.32,62.45c-1.02,1.05-6.68,3.45-45.11,6.62,37.53-8.87,43.65-8.33,44.95-7.65.48.25.54.65.16,1.03Z"/>
    </g>
    <g id="_x3C_径向重复_x3E_-59" data-name="_x3C_径向重复_x3E_">
      <path class="cls-3" d="M127.15,80.31c-1.3.68-7.42,1.22-44.95-7.65,38.44,3.16,44.09,5.57,45.11,6.62.37.39.31.78-.16,1.03Z"/>
    </g>
    <g id="_x3C_径向重复_x3E_-60" data-name="_x3C_径向重复_x3E_">
      <path class="cls-3" d="M121.48,97.24c-1.44.25-7.43-1.13-40.39-21.16,35.58,14.89,40.21,18.92,40.86,20.23.24.48.06.84-.47.93Z"/>
    </g>
  </g>
</svg>