<?xml version="1.0" encoding="UTF-8"?>
<svg id="_图层_1" data-name="图层_1" xmlns="http://www.w3.org/2000/svg" viewBox="0 0 141.73 141.73">
  <defs>
    <style>
      .cls-1 {
        fill: #f8ca78;
      }

      .cls-2 {
        fill: #e9562a;
      }

      .cls-3 {
        fill: #ef8026;
      }
    </style>
  </defs>
  <g>
    <g id="_x3C_径向重复_x3E_">
      <polygon class="cls-2" points="69.73 118.89 70.87 85.45 72 118.89 69.73 118.89"/>
    </g>
    <g id="_x3C_径向重复_x3E_-2" data-name="_x3C_径向重复_x3E_">
      <polygon class="cls-2" points="56.25 116.62 66.76 84.86 58.43 117.26 56.25 116.62"/>
    </g>
    <g id="_x3C_径向重复_x3E_-3" data-name="_x3C_径向重复_x3E_">
      <polygon class="cls-2" points="43.95 110.65 62.98 83.13 45.86 111.88 43.95 110.65"/>
    </g>
    <g id="_x3C_径向重复_x3E_-4" data-name="_x3C_径向重复_x3E_">
      <polygon class="cls-2" points="33.83 101.46 59.85 80.41 35.32 103.17 33.83 101.46"/>
    </g>
    <g id="_x3C_径向重复_x3E_-5" data-name="_x3C_径向重复_x3E_">
      <polygon class="cls-2" points="26.71 89.78 57.6 76.92 27.66 91.85 26.71 89.78"/>
    </g>
    <g id="_x3C_径向重复_x3E_-6" data-name="_x3C_径向重复_x3E_">
      <polygon class="cls-2" points="23.17 76.58 56.43 72.94 23.49 78.83 23.17 76.58"/>
    </g>
    <g id="_x3C_径向重复_x3E_-7" data-name="_x3C_径向重复_x3E_">
      <polygon class="cls-2" points="23.49 62.91 56.43 68.79 23.17 65.16 23.49 62.91"/>
    </g>
    <g id="_x3C_径向重复_x3E_-8" data-name="_x3C_径向重复_x3E_">
      <polygon class="cls-2" points="27.66 49.88 57.6 64.81 26.71 51.95 27.66 49.88"/>
    </g>
    <g id="_x3C_径向重复_x3E_-9" data-name="_x3C_径向重复_x3E_">
      <polygon class="cls-2" points="35.32 38.56 59.85 61.32 33.83 40.28 35.32 38.56"/>
    </g>
    <g id="_x3C_径向重复_x3E_-10" data-name="_x3C_径向重复_x3E_">
      <polygon class="cls-2" points="45.86 29.85 62.98 58.6 43.95 31.08 45.86 29.85"/>
    </g>
    <g id="_x3C_径向重复_x3E_-11" data-name="_x3C_径向重复_x3E_">
      <polygon class="cls-2" points="58.43 24.47 66.76 56.88 56.25 25.11 58.43 24.47"/>
    </g>
    <g id="_x3C_径向重复_x3E_-12" data-name="_x3C_径向重复_x3E_">
      <polygon class="cls-2" points="72 22.84 70.87 56.29 69.73 22.84 72 22.84"/>
    </g>
    <g id="_x3C_径向重复_x3E_-13" data-name="_x3C_径向重复_x3E_">
      <polygon class="cls-2" points="85.49 25.11 74.97 56.88 83.3 24.47 85.49 25.11"/>
    </g>
    <g id="_x3C_径向重复_x3E_-14" data-name="_x3C_径向重复_x3E_">
      <polygon class="cls-2" points="97.79 31.08 78.75 58.6 95.87 29.85 97.79 31.08"/>
    </g>
    <g id="_x3C_径向重复_x3E_-15" data-name="_x3C_径向重复_x3E_">
      <polygon class="cls-2" points="107.9 40.28 81.89 61.32 106.41 38.56 107.9 40.28"/>
    </g>
    <g id="_x3C_径向重复_x3E_-16" data-name="_x3C_径向重复_x3E_">
      <polygon class="cls-2" points="115.02 51.95 84.13 64.81 114.08 49.88 115.02 51.95"/>
    </g>
    <g id="_x3C_径向重复_x3E_-17" data-name="_x3C_径向重复_x3E_">
      <polygon class="cls-2" points="118.56 65.16 85.3 68.79 118.24 62.91 118.56 65.16"/>
    </g>
    <g id="_x3C_径向重复_x3E_-18" data-name="_x3C_径向重复_x3E_">
      <polygon class="cls-2" points="118.24 78.83 85.3 72.94 118.56 76.57 118.24 78.83"/>
    </g>
    <g id="_x3C_径向重复_x3E_-19" data-name="_x3C_径向重复_x3E_">
      <polygon class="cls-2" points="114.08 91.85 84.13 76.92 115.02 89.78 114.08 91.85"/>
    </g>
    <g id="_x3C_径向重复_x3E_-20" data-name="_x3C_径向重复_x3E_">
      <polygon class="cls-2" points="106.41 103.17 81.88 80.41 107.9 101.45 106.41 103.17"/>
    </g>
    <g id="_x3C_径向重复_x3E_-21" data-name="_x3C_径向重复_x3E_">
      <polygon class="cls-2" points="95.87 111.88 78.75 83.13 97.78 110.65 95.87 111.88"/>
    </g>
    <g id="_x3C_径向重复_x3E_-22" data-name="_x3C_径向重复_x3E_">
      <polygon class="cls-2" points="83.3 117.26 74.97 84.86 85.49 116.62 83.3 117.26"/>
    </g>
  </g>
  <g>
    <g id="_x3C_径向重复_x3E_-23" data-name="_x3C_径向重复_x3E_">
      <g id="_x3C_径向重复_x3E_-24" data-name="_x3C_径向重复_x3E_">
        <path class="cls-3" d="M14.17,70.87c0-1.34,2.43-2.37,5.18-2.21,5.46.32,10.92.65,16.38.97,6.03.36,12.06.71,18.09,1.07.18.01.31.08.31.17,0,.08-.1.16-.31.17l-34.48,2.04c-2.75.16-5.18-.87-5.18-2.21Z"/>
      </g>
    </g>
    <g id="_x3C_径向重复_x3E_-25" data-name="_x3C_径向重复_x3E_">
      <g id="_x3C_径向重复_x3E_-26" data-name="_x3C_径向重复_x3E_">
        <path class="cls-3" d="M16.47,54.89c.38-1.28,3-1.59,5.59-.66,5.15,1.85,10.3,3.7,15.45,5.54,5.69,2.04,11.37,4.08,17.06,6.12.17.06.28.17.25.25-.02.08-.14.12-.35.08l-33.65-7.76c-2.69-.62-4.73-2.3-4.35-3.58Z"/>
      </g>
    </g>
    <g id="_x3C_径向重复_x3E_-27" data-name="_x3C_径向重复_x3E_">
      <g id="_x3C_径向重复_x3E_-28" data-name="_x3C_径向重复_x3E_">
        <path class="cls-3" d="M23.17,40.22c.72-1.12,3.32-.68,5.55.94,4.42,3.22,8.84,6.45,13.26,9.67,4.88,3.56,9.76,7.12,14.64,10.68.14.1.22.24.17.31-.04.07-.17.08-.35-.03l-30.11-16.93c-2.4-1.35-3.89-3.53-3.17-4.66Z"/>
      </g>
    </g>
    <g id="_x3C_径向重复_x3E_-29" data-name="_x3C_径向重复_x3E_">
      <g id="_x3C_径向重复_x3E_-30" data-name="_x3C_径向重复_x3E_">
        <path class="cls-3" d="M33.74,28.02c1.01-.87,3.38.28,5.06,2.47,3.33,4.34,6.66,8.68,10,13.02,3.68,4.79,7.36,9.58,11.04,14.37.11.14.14.29.08.35-.06.05-.19.02-.33-.12l-24.12-24.72c-1.93-1.97-2.73-4.49-1.72-5.36Z"/>
      </g>
    </g>
    <g id="_x3C_径向重复_x3E_-31" data-name="_x3C_径向重复_x3E_">
      <g id="_x3C_径向重复_x3E_-32" data-name="_x3C_径向重复_x3E_">
        <path class="cls-3" d="M47.31,19.3c1.21-.55,3.16,1.22,4.16,3.8,1.98,5.1,3.95,10.2,5.93,15.3,2.18,5.63,4.36,11.27,6.54,16.9.06.17.05.32-.02.35-.07.03-.19-.03-.28-.21l-16.18-30.52c-1.29-2.44-1.36-5.07-.14-5.63Z"/>
      </g>
    </g>
    <g id="_x3C_径向重复_x3E_-33" data-name="_x3C_径向重复_x3E_">
      <g id="_x3C_径向重复_x3E_-34" data-name="_x3C_径向重复_x3E_">
        <path class="cls-3" d="M62.8,14.75c1.32-.19,2.69,2.07,2.92,4.81.46,5.45.92,10.9,1.37,16.35.51,6.02,1.01,12.04,1.52,18.06.01.18-.04.32-.12.33-.08.01-.17-.08-.21-.28l-6.92-33.84c-.55-2.7.13-5.25,1.45-5.44Z"/>
      </g>
    </g>
    <g id="_x3C_径向重复_x3E_-35" data-name="_x3C_径向重复_x3E_">
      <g id="_x3C_径向重复_x3E_-36" data-name="_x3C_径向重复_x3E_">
        <path class="cls-3" d="M78.93,14.75c1.32.19,2,2.74,1.45,5.44-1.1,5.36-2.19,10.72-3.29,16.08-1.21,5.92-2.42,11.84-3.63,17.76-.04.17-.13.3-.21.28-.08-.01-.14-.13-.12-.33l2.89-34.42c.23-2.75,1.6-5,2.92-4.81Z"/>
      </g>
    </g>
    <g id="_x3C_径向重复_x3E_-37" data-name="_x3C_径向重复_x3E_">
      <g id="_x3C_径向重复_x3E_-38" data-name="_x3C_径向重复_x3E_">
        <path class="cls-3" d="M94.42,19.3c1.21.55,1.15,3.19-.14,5.63-2.56,4.83-5.12,9.67-7.69,14.5-2.83,5.34-5.66,10.68-8.49,16.01-.08.16-.21.25-.28.21-.07-.03-.1-.16-.02-.35l12.47-32.21c1-2.57,2.94-4.35,4.16-3.8Z"/>
      </g>
    </g>
    <g id="_x3C_径向重复_x3E_-39" data-name="_x3C_径向重复_x3E_">
      <g id="_x3C_径向重复_x3E_-40" data-name="_x3C_径向重复_x3E_">
        <path class="cls-3" d="M107.99,28.02c1.01.87.2,3.39-1.73,5.36-3.82,3.92-7.64,7.83-11.46,11.75-4.22,4.32-8.44,8.65-12.66,12.97-.12.13-.27.18-.33.12-.06-.05-.05-.18.08-.35l21.04-27.39c1.68-2.19,4.05-3.34,5.06-2.47Z"/>
      </g>
    </g>
    <g id="_x3C_径向重复_x3E_-41" data-name="_x3C_径向重复_x3E_">
      <g id="_x3C_径向重复_x3E_-42" data-name="_x3C_径向重复_x3E_">
        <path class="cls-3" d="M118.56,40.22c.72,1.12-.76,3.31-3.17,4.66-4.77,2.68-9.54,5.36-14.31,8.04-5.27,2.96-10.53,5.92-15.8,8.88-.15.09-.31.1-.35.03-.04-.07,0-.19.17-.31l27.9-20.35c2.23-1.63,4.83-2.07,5.55-.94Z"/>
      </g>
    </g>
    <g id="_x3C_径向重复_x3E_-43" data-name="_x3C_径向重复_x3E_">
      <g id="_x3C_径向重复_x3E_-44" data-name="_x3C_径向重复_x3E_">
        <path class="cls-3" d="M125.26,54.89c.38,1.28-1.66,2.96-4.35,3.58-5.33,1.23-10.66,2.46-15.99,3.69-5.89,1.36-11.77,2.71-17.66,4.07-.17.04-.32,0-.35-.07-.02-.08.06-.18.25-.25l32.51-11.67c2.6-.93,5.22-.62,5.59.66Z"/>
      </g>
    </g>
    <g id="_x3C_径向重复_x3E_-45" data-name="_x3C_径向重复_x3E_">
      <g id="_x3C_径向重复_x3E_-46" data-name="_x3C_径向重复_x3E_">
        <path class="cls-3" d="M127.56,70.87c0,1.34-2.43,2.37-5.18,2.21-5.46-.32-10.92-.65-16.38-.97-6.03-.36-12.06-.71-18.09-1.07-.18-.01-.31-.08-.31-.17,0-.08.1-.16.31-.17l34.48-2.04c2.75-.16,5.18.87,5.18,2.21Z"/>
      </g>
    </g>
    <g id="_x3C_径向重复_x3E_-47" data-name="_x3C_径向重复_x3E_">
      <g id="_x3C_径向重复_x3E_-48" data-name="_x3C_径向重复_x3E_">
        <path class="cls-3" d="M125.26,86.84c-.38,1.28-3,1.59-5.59.66-5.15-1.85-10.3-3.7-15.45-5.54-5.69-2.04-11.37-4.08-17.06-6.12-.17-.06-.28-.17-.25-.25.02-.08.14-.12.35-.08l33.65,7.76c2.69.62,4.73,2.3,4.35,3.58Z"/>
      </g>
    </g>
    <g id="_x3C_径向重复_x3E_-49" data-name="_x3C_径向重复_x3E_">
      <g id="_x3C_径向重复_x3E_-50" data-name="_x3C_径向重复_x3E_">
        <path class="cls-3" d="M118.56,101.52c-.72,1.12-3.32.68-5.55-.94-4.42-3.22-8.84-6.45-13.26-9.67-4.88-3.56-9.76-7.12-14.64-10.68-.14-.1-.22-.24-.17-.31.04-.07.17-.08.35.03l30.11,16.93c2.4,1.35,3.89,3.53,3.17,4.66Z"/>
      </g>
    </g>
    <g id="_x3C_径向重复_x3E_-51" data-name="_x3C_径向重复_x3E_">
      <g id="_x3C_径向重复_x3E_-52" data-name="_x3C_径向重复_x3E_">
        <path class="cls-3" d="M107.99,113.71c-1.01.87-3.38-.28-5.06-2.47-3.33-4.34-6.66-8.68-10-13.02-3.68-4.79-7.36-9.58-11.04-14.37-.11-.14-.14-.29-.08-.35.06-.05.19-.02.33.12l24.12,24.72c1.93,1.97,2.73,4.49,1.72,5.36Z"/>
      </g>
    </g>
    <g id="_x3C_径向重复_x3E_-53" data-name="_x3C_径向重复_x3E_">
      <g id="_x3C_径向重复_x3E_-54" data-name="_x3C_径向重复_x3E_">
        <path class="cls-3" d="M94.42,122.44c-1.21.55-3.16-1.22-4.16-3.8-1.98-5.1-3.95-10.2-5.93-15.3-2.18-5.63-4.36-11.27-6.54-16.9-.06-.17-.05-.32.02-.35.07-.03.19.03.28.21l16.18,30.52c1.29,2.44,1.36,5.07.14,5.63Z"/>
      </g>
    </g>
    <g id="_x3C_径向重复_x3E_-55" data-name="_x3C_径向重复_x3E_">
      <g id="_x3C_径向重复_x3E_-56" data-name="_x3C_径向重复_x3E_">
        <path class="cls-3" d="M78.93,126.98c-1.32.19-2.69-2.07-2.92-4.81-.46-5.45-.92-10.9-1.37-16.35-.51-6.02-1.01-12.04-1.52-18.06-.01-.18.04-.32.12-.33.08-.01.17.08.21.28l6.92,33.84c.55,2.7-.13,5.25-1.45,5.44Z"/>
      </g>
    </g>
    <g id="_x3C_径向重复_x3E_-57" data-name="_x3C_径向重复_x3E_">
      <g id="_x3C_径向重复_x3E_-58" data-name="_x3C_径向重复_x3E_">
        <path class="cls-3" d="M62.8,126.98c-1.32-.19-2-2.74-1.45-5.44,1.1-5.36,2.19-10.72,3.29-16.08,1.21-5.92,2.42-11.84,3.63-17.76.04-.17.13-.3.21-.28.08.01.14.13.12.33l-2.89,34.42c-.23,2.75-1.6,5-2.92,4.81Z"/>
      </g>
    </g>
    <g id="_x3C_径向重复_x3E_-59" data-name="_x3C_径向重复_x3E_">
      <g id="_x3C_径向重复_x3E_-60" data-name="_x3C_径向重复_x3E_">
        <path class="cls-3" d="M47.32,122.44c-1.21-.55-1.15-3.19.14-5.63,2.56-4.83,5.12-9.67,7.69-14.5,2.83-5.34,5.66-10.68,8.49-16.01.08-.16.21-.25.28-.21.07.03.1.16.02.35l-12.47,32.21c-1,2.57-2.94,4.35-4.16,3.8Z"/>
      </g>
    </g>
    <g id="_x3C_径向重复_x3E_-61" data-name="_x3C_径向重复_x3E_">
      <g id="_x3C_径向重复_x3E_-62" data-name="_x3C_径向重复_x3E_">
        <path class="cls-3" d="M33.74,113.71c-1.01-.87-.2-3.39,1.73-5.36,3.82-3.92,7.64-7.83,11.46-11.75,4.22-4.32,8.44-8.65,12.66-12.97.12-.13.27-.18.33-.12.06.05.05.18-.08.35l-21.04,27.39c-1.68,2.19-4.05,3.34-5.06,2.47Z"/>
      </g>
    </g>
    <g id="_x3C_径向重复_x3E_-63" data-name="_x3C_径向重复_x3E_">
      <g id="_x3C_径向重复_x3E_-64" data-name="_x3C_径向重复_x3E_">
        <path class="cls-3" d="M23.17,101.52c-.72-1.12.76-3.31,3.17-4.66,4.77-2.68,9.54-5.36,14.31-8.04,5.27-2.96,10.53-5.92,15.8-8.88.15-.09.31-.1.35-.03.04.07,0,.19-.17.31l-27.9,20.35c-2.23,1.63-4.83,2.07-5.55.94Z"/>
      </g>
    </g>
    <g id="_x3C_径向重复_x3E_-65" data-name="_x3C_径向重复_x3E_">
      <g id="_x3C_径向重复_x3E_-66" data-name="_x3C_径向重复_x3E_">
        <path class="cls-3" d="M16.47,86.84c-.38-1.28,1.66-2.96,4.35-3.58,5.33-1.23,10.66-2.46,15.99-3.69,5.89-1.36,11.77-2.71,17.66-4.07.17-.04.32,0,.35.07.02.08-.06.18-.25.25l-32.51,11.67c-2.6.93-5.22.62-5.59-.66Z"/>
      </g>
    </g>
  </g>
  <g>
    <g id="_x3C_径向重复_x3E_-67" data-name="_x3C_径向重复_x3E_">
      <g id="_x3C_径向重复_x3E_-68" data-name="_x3C_径向重复_x3E_">
        <path class="cls-1" d="M70.87,93.01c-1.1,0-1.96-.97-1.82-2.07.27-2.18.53-4.36.8-6.54.29-2.41.59-4.81.88-7.22,0-.07.07-.12.14-.12.07,0,.13.04.14.12l1.68,13.76c.13,1.1-.72,2.07-1.82,2.07Z"/>
      </g>
    </g>
    <g id="_x3C_径向重复_x3E_-69" data-name="_x3C_径向重复_x3E_">
      <g id="_x3C_径向重复_x3E_-70" data-name="_x3C_径向重复_x3E_">
        <path class="cls-1" d="M64.63,92.12c-1.06-.31-1.6-1.48-1.17-2.5.87-2.02,1.74-4.03,2.61-6.05.96-2.23,1.92-4.45,2.88-6.68.03-.07.1-.1.17-.08.06.02.11.08.1.16l-2.26,13.67c-.18,1.09-1.27,1.78-2.33,1.47Z"/>
      </g>
    </g>
    <g id="_x3C_径向重复_x3E_-71" data-name="_x3C_径向重复_x3E_">
      <g id="_x3C_径向重复_x3E_-72" data-name="_x3C_径向重复_x3E_">
        <path class="cls-1" d="M58.89,89.5c-.93-.6-1.12-1.87-.42-2.72,1.4-1.69,2.8-3.38,4.21-5.07,1.55-1.87,3.1-3.73,4.65-5.6.05-.05.13-.07.19-.03.05.04.09.11.05.18l-6.02,12.48c-.48,1-1.72,1.35-2.65.75Z"/>
      </g>
    </g>
    <g id="_x3C_径向重复_x3E_-73" data-name="_x3C_径向重复_x3E_">
      <g id="_x3C_径向重复_x3E_-74" data-name="_x3C_径向重复_x3E_">
        <path class="cls-1" d="M54.13,85.37c-.72-.83-.55-2.11.37-2.73,1.82-1.23,3.64-2.45,5.46-3.68,2.01-1.35,4.02-2.71,6.03-4.06.06-.04.14-.03.19.02.04.05.05.13,0,.19l-9.29,10.28c-.74.82-2.03.81-2.76-.02Z"/>
      </g>
    </g>
    <g id="_x3C_径向重复_x3E_-75" data-name="_x3C_径向重复_x3E_">
      <g id="_x3C_径向重复_x3E_-76" data-name="_x3C_径向重复_x3E_">
        <path class="cls-1" d="M50.72,80.07c-.46-1,.07-2.18,1.12-2.52,2.09-.66,4.19-1.33,6.28-1.99,2.31-.73,4.62-1.46,6.93-2.2.07-.02.14.01.17.08.03.06.02.14-.06.18l-11.81,7.24c-.94.58-2.18.2-2.64-.8Z"/>
      </g>
    </g>
    <g id="_x3C_径向重复_x3E_-77" data-name="_x3C_径向重复_x3E_">
      <g id="_x3C_径向重复_x3E_-78" data-name="_x3C_径向重复_x3E_">
        <path class="cls-1" d="M48.94,74.02c-.16-1.09.68-2.07,1.79-2.1,2.19-.05,4.39-.09,6.58-.14,2.42-.05,4.85-.1,7.27-.15.07,0,.13.05.14.12,0,.06-.02.13-.1.16l-13.38,3.62c-1.07.29-2.15-.42-2.31-1.51Z"/>
      </g>
    </g>
    <g id="_x3C_径向重复_x3E_-79" data-name="_x3C_径向重复_x3E_">
      <g id="_x3C_径向重复_x3E_-80" data-name="_x3C_径向重复_x3E_">
        <path class="cls-1" d="M48.94,67.71c.16-1.09,1.24-1.8,2.31-1.51,2.12.57,4.24,1.15,6.36,1.72,2.34.63,4.68,1.27,7.02,1.9.07.02.11.09.1.16,0,.06-.06.12-.14.12l-13.86-.29c-1.11-.02-1.94-1.01-1.79-2.1Z"/>
      </g>
    </g>
    <g id="_x3C_径向重复_x3E_-81" data-name="_x3C_径向重复_x3E_">
      <g id="_x3C_径向重复_x3E_-82" data-name="_x3C_径向重复_x3E_">
        <path class="cls-1" d="M50.72,61.67c.46-1,1.69-1.38,2.64-.8,1.87,1.15,3.74,2.29,5.61,3.44,2.07,1.27,4.13,2.53,6.2,3.8.06.04.08.11.06.18-.03.06-.09.1-.17.08l-13.21-4.18c-1.06-.33-1.58-1.51-1.12-2.52Z"/>
      </g>
    </g>
    <g id="_x3C_径向重复_x3E_-83" data-name="_x3C_径向重复_x3E_">
      <g id="_x3C_径向重复_x3E_-84" data-name="_x3C_径向重复_x3E_">
        <path class="cls-1" d="M54.13,56.36c.72-.83,2.01-.84,2.76-.02,1.47,1.63,2.94,3.26,4.42,4.88,1.63,1.8,3.25,3.6,4.88,5.39.05.05.05.13,0,.19-.04.05-.12.07-.19.02l-11.5-7.74c-.92-.62-1.09-1.9-.37-2.73Z"/>
      </g>
    </g>
    <g id="_x3C_径向重复_x3E_-85" data-name="_x3C_径向重复_x3E_">
      <g id="_x3C_径向重复_x3E_-86" data-name="_x3C_径向重复_x3E_">
        <path class="cls-1" d="M58.89,52.23c.93-.6,2.17-.24,2.65.75.95,1.98,1.91,3.95,2.86,5.93,1.05,2.18,2.11,4.37,3.16,6.55.03.06,0,.14-.05.18-.05.04-.13.04-.19-.03l-8.85-10.66c-.71-.85-.51-2.13.42-2.72Z"/>
      </g>
    </g>
    <g id="_x3C_径向重复_x3E_-87" data-name="_x3C_径向重复_x3E_">
      <g id="_x3C_径向重复_x3E_-88" data-name="_x3C_径向重复_x3E_">
        <path class="cls-1" d="M64.63,49.62c1.06-.31,2.15.38,2.33,1.47.36,2.17.72,4.33,1.07,6.5.4,2.39.79,4.78,1.19,7.18.01.07-.03.14-.1.16-.06.02-.14,0-.17-.08l-5.49-12.73c-.44-1.02.11-2.19,1.17-2.5Z"/>
      </g>
    </g>
    <g id="_x3C_径向重复_x3E_-89" data-name="_x3C_径向重复_x3E_">
      <g id="_x3C_径向重复_x3E_-90" data-name="_x3C_径向重复_x3E_">
        <path class="cls-1" d="M70.87,48.72c1.1,0,1.96.97,1.82,2.07-.27,2.18-.53,4.36-.8,6.54-.29,2.41-.59,4.81-.88,7.22,0,.07-.07.12-.14.12-.07,0-.13-.04-.14-.12l-1.68-13.76c-.13-1.1.72-2.07,1.82-2.07Z"/>
      </g>
    </g>
    <g id="_x3C_径向重复_x3E_-91" data-name="_x3C_径向重复_x3E_">
      <g id="_x3C_径向重复_x3E_-92" data-name="_x3C_径向重复_x3E_">
        <path class="cls-1" d="M77.11,49.62c1.06.31,1.6,1.48,1.17,2.5-.87,2.02-1.74,4.03-2.61,6.05-.96,2.23-1.92,4.45-2.88,6.68-.03.07-.1.1-.17.08-.06-.02-.11-.08-.1-.16l2.26-13.67c.18-1.09,1.27-1.78,2.33-1.47Z"/>
      </g>
    </g>
    <g id="_x3C_径向重复_x3E_-93" data-name="_x3C_径向重复_x3E_">
      <g id="_x3C_径向重复_x3E_-94" data-name="_x3C_径向重复_x3E_">
        <path class="cls-1" d="M82.84,52.23c.93.6,1.12,1.87.42,2.72-1.4,1.69-2.8,3.38-4.21,5.07-1.55,1.87-3.1,3.73-4.65,5.6-.05.05-.13.07-.19.03-.05-.04-.09-.11-.05-.18l6.02-12.48c.48-1,1.72-1.35,2.65-.75Z"/>
      </g>
    </g>
    <g id="_x3C_径向重复_x3E_-95" data-name="_x3C_径向重复_x3E_">
      <g id="_x3C_径向重复_x3E_-96" data-name="_x3C_径向重复_x3E_">
        <path class="cls-1" d="M87.6,56.36c.72.83.55,2.11-.37,2.73-1.82,1.23-3.64,2.45-5.46,3.68-2.01,1.35-4.02,2.71-6.03,4.06-.06.04-.14.03-.19-.02-.04-.05-.05-.13,0-.19l9.29-10.28c.74-.82,2.03-.81,2.76.02Z"/>
      </g>
    </g>
    <g id="_x3C_径向重复_x3E_-97" data-name="_x3C_径向重复_x3E_">
      <g id="_x3C_径向重复_x3E_-98" data-name="_x3C_径向重复_x3E_">
        <path class="cls-1" d="M91.01,61.67c.46,1-.07,2.18-1.12,2.52-2.09.66-4.19,1.33-6.28,1.99-2.31.73-4.62,1.46-6.93,2.2-.07.02-.14-.01-.17-.08-.03-.06-.02-.14.06-.18l11.81-7.24c.94-.58,2.18-.2,2.64.8Z"/>
      </g>
    </g>
    <g id="_x3C_径向重复_x3E_-99" data-name="_x3C_径向重复_x3E_">
      <g id="_x3C_径向重复_x3E_-100" data-name="_x3C_径向重复_x3E_">
        <path class="cls-1" d="M92.79,67.71c.16,1.09-.68,2.07-1.79,2.1-2.19.05-4.39.09-6.58.14-2.42.05-4.85.1-7.27.15-.07,0-.13-.05-.14-.12,0-.06.02-.13.1-.16l13.38-3.62c1.07-.29,2.15.42,2.31,1.51Z"/>
      </g>
    </g>
    <g id="_x3C_径向重复_x3E_-101" data-name="_x3C_径向重复_x3E_">
      <g id="_x3C_径向重复_x3E_-102" data-name="_x3C_径向重复_x3E_">
        <path class="cls-1" d="M92.79,74.02c-.16,1.09-1.24,1.8-2.31,1.51-2.12-.57-4.24-1.15-6.36-1.72-2.34-.63-4.68-1.27-7.02-1.9-.07-.02-.11-.09-.1-.16,0-.06.06-.12.14-.12l13.86.29c1.11.02,1.94,1.01,1.79,2.1Z"/>
      </g>
    </g>
    <g id="_x3C_径向重复_x3E_-103" data-name="_x3C_径向重复_x3E_">
      <g id="_x3C_径向重复_x3E_-104" data-name="_x3C_径向重复_x3E_">
        <path class="cls-1" d="M91.01,80.07c-.46,1-1.69,1.38-2.64.8-1.87-1.15-3.74-2.29-5.61-3.44-2.07-1.27-4.13-2.53-6.2-3.8-.06-.04-.08-.11-.06-.18.03-.06.09-.1.17-.08l13.21,4.18c1.06.33,1.58,1.51,1.12,2.52Z"/>
      </g>
    </g>
    <g id="_x3C_径向重复_x3E_-105" data-name="_x3C_径向重复_x3E_">
      <g id="_x3C_径向重复_x3E_-106" data-name="_x3C_径向重复_x3E_">
        <path class="cls-1" d="M87.6,85.37c-.72.83-2.01.84-2.76.02-1.47-1.63-2.94-3.26-4.42-4.88-1.63-1.8-3.25-3.6-4.88-5.39-.05-.05-.05-.13,0-.19.04-.05.12-.07.19-.02l11.5,7.74c.92.62,1.09,1.9.37,2.73Z"/>
      </g>
    </g>
    <g id="_x3C_径向重复_x3E_-107" data-name="_x3C_径向重复_x3E_">
      <g id="_x3C_径向重复_x3E_-108" data-name="_x3C_径向重复_x3E_">
        <path class="cls-1" d="M82.84,89.5c-.93.6-2.17.24-2.65-.75-.95-1.98-1.91-3.95-2.86-5.93-1.05-2.18-2.11-4.37-3.16-6.55-.03-.06,0-.14.05-.18.05-.04.13-.04.19.03l8.85,10.66c.71.85.51,2.13-.42,2.72Z"/>
      </g>
    </g>
    <g id="_x3C_径向重复_x3E_-109" data-name="_x3C_径向重复_x3E_">
      <g id="_x3C_径向重复_x3E_-110" data-name="_x3C_径向重复_x3E_">
        <path class="cls-1" d="M77.11,92.12c-1.06.31-2.15-.38-2.33-1.47-.36-2.17-.72-4.33-1.07-6.5-.4-2.39-.79-4.78-1.19-7.18-.01-.07.03-.14.1-.16.06-.02.14,0,.17.08l5.49,12.73c.44,1.02-.11,2.19-1.17,2.5Z"/>
      </g>
    </g>
  </g>
</svg>