<?xml version="1.0" encoding="UTF-8"?>
<svg id="_图层_1" data-name="图层_1" xmlns="http://www.w3.org/2000/svg" viewBox="0 0 185.39 130.66">
  <defs>
    <style>
      .cls-1 {
        fill: #0088c0;
      }

      .cls-2 {
        fill: #a1d8ea;
      }

      .cls-3 {
        fill: #46bed6;
      }
    </style>
  </defs>
  <g>
    <path class="cls-3" d="M90.5,93.91l-2.08,14.72c-.06.43.26.83.69.86l.37.03c.44.03.81-.31.81-.74l.2-14.86Z"/>
    <path class="cls-3" d="M86.05,93.21l-4.36,14.21c-.13.42.12.86.55.96l.36.09c.43.1.85-.18.92-.61l2.52-14.65Z"/>
    <path class="cls-3" d="M81.77,91.83l-6.53,13.35c-.19.39-.01.87.39,1.03l.34.14c.4.17.86-.04,1.01-.46l4.78-14.07Z"/>
    <path class="cls-3" d="M77.76,89.8l-8.53,12.17c-.25.36-.15.85.23,1.08l.32.19c.37.23.86.09,1.06-.29l6.93-13.15Z"/>
    <path class="cls-3" d="M74.11,87.16l-10.33,10.68c-.3.31-.28.82.05,1.1l.28.24c.33.28.84.23,1.1-.12l8.9-11.9Z"/>
    <path class="cls-3" d="M70.92,83.98l-11.88,8.94c-.35.26-.4.77-.12,1.1l.24.28c.28.33.79.35,1.1.05l10.65-10.37Z"/>
    <path class="cls-3" d="M68.27,80.35l-13.13,6.97c-.39.2-.52.69-.29,1.06l.2.32c.23.37.72.47,1.08.22l12.14-8.57Z"/>
    <path class="cls-3" d="M66.22,76.34l-14.06,4.83c-.41.14-.62.6-.45,1.01l.14.34c.17.4.64.58,1.03.39l13.34-6.57Z"/>
    <path class="cls-3" d="M64.82,72.07l-14.64,2.57c-.43.08-.71.5-.6.92l.09.36c.1.42.54.67.96.54l14.2-4.4Z"/>
    <path class="cls-3" d="M64.11,67.63l-14.86.25c-.44,0-.78.38-.74.82l.03.37c.04.44.43.75.86.69l14.71-2.13Z"/>
    <path class="cls-3" d="M64.11,63.13l-14.72-2.08c-.43-.06-.83.26-.86.69l-.03.37c-.03.44.31.81.74.81l14.87.2Z"/>
    <path class="cls-3" d="M64.8,58.68l-14.21-4.35c-.42-.13-.86.12-.96.55l-.09.36c-.1.42.18.85.61.92l14.65,2.52Z"/>
    <path class="cls-3" d="M66.18,54.4l-13.36-6.52c-.39-.19-.87-.01-1.03.39l-.14.34c-.17.4.04.86.46,1l14.08,4.78Z"/>
    <path class="cls-3" d="M68.22,50.39l-12.17-8.53c-.36-.25-.85-.15-1.08.23l-.19.32c-.23.37-.09.86.29,1.06l13.15,6.92Z"/>
    <path class="cls-3" d="M70.86,46.75l-10.69-10.33c-.31-.3-.82-.28-1.1.05l-.24.28c-.28.33-.23.84.12,1.1l11.91,8.9Z"/>
    <path class="cls-3" d="M74.04,43.56l-8.94-11.87c-.26-.35-.77-.4-1.1-.12l-.28.24c-.33.28-.35.79-.05,1.1l10.37,10.65Z"/>
    <path class="cls-3" d="M77.67,40.91l-6.97-13.13c-.2-.39-.69-.52-1.07-.29l-.32.2c-.37.23-.47.72-.22,1.08l8.58,12.14Z"/>
    <path class="cls-3" d="M81.68,38.86l-4.83-14.05c-.14-.41-.6-.62-1.01-.45l-.34.14c-.4.17-.58.64-.39,1.03l6.57,13.33Z"/>
    <path class="cls-3" d="M85.95,37.47l-2.57-14.64c-.08-.43-.5-.71-.92-.6l-.36.09c-.42.1-.67.54-.54.96l4.4,14.19Z"/>
    <path class="cls-3" d="M90.4,36.76l-.25-14.86c0-.44-.38-.78-.82-.74l-.37.03c-.44.04-.75.43-.69.86l2.13,14.71Z"/>
    <path class="cls-3" d="M94.9,36.75l2.08-14.72c.06-.43-.26-.83-.69-.86l-.37-.03c-.44-.03-.81.31-.81.74l-.2,14.86Z"/>
    <path class="cls-3" d="M99.34,37.44l4.36-14.21c.13-.42-.12-.86-.55-.96l-.36-.09c-.43-.1-.85.18-.92.61l-2.52,14.65Z"/>
    <path class="cls-3" d="M103.62,38.83l6.53-13.35c.19-.39.01-.87-.39-1.03l-.34-.14c-.4-.17-.86.04-1.01.46l-4.78,14.07Z"/>
    <path class="cls-3" d="M107.64,40.86l8.53-12.17c.25-.36.15-.85-.23-1.08l-.32-.19c-.37-.23-.86-.09-1.06.29l-6.93,13.15Z"/>
    <path class="cls-3" d="M111.28,43.5l10.33-10.68c.3-.31.28-.82-.05-1.1l-.28-.24c-.33-.28-.84-.23-1.1.12l-8.9,11.9Z"/>
    <path class="cls-3" d="M114.47,46.67l11.88-8.94c.35-.26.4-.77.12-1.1l-.24-.28c-.28-.33-.79-.35-1.1-.05l-10.65,10.37Z"/>
    <path class="cls-3" d="M117.12,50.31l13.13-6.97c.39-.2.52-.69.29-1.06l-.2-.32c-.23-.37-.72-.47-1.08-.22l-12.14,8.57Z"/>
    <path class="cls-3" d="M119.17,54.31l14.06-4.83c.41-.14.62-.6.45-1.01l-.14-.34c-.17-.4-.64-.58-1.03-.39l-13.34,6.57Z"/>
    <path class="cls-3" d="M120.57,58.59l14.64-2.57c.43-.08.71-.5.6-.92l-.09-.36c-.1-.42-.54-.67-.96-.54l-14.2,4.4Z"/>
    <path class="cls-3" d="M121.28,63.03l14.86-.25c.44,0,.78-.38.74-.82l-.03-.37c-.04-.44-.43-.75-.86-.69l-14.71,2.13Z"/>
    <path class="cls-3" d="M121.29,67.53l14.72,2.08c.43.06.83-.26.86-.69l.03-.37c.03-.44-.31-.81-.74-.81l-14.87-.2Z"/>
    <path class="cls-3" d="M120.59,71.97l14.21,4.35c.42.13.86-.12.96-.55l.09-.36c.1-.42-.18-.85-.61-.92l-14.65-2.52Z"/>
    <path class="cls-3" d="M119.21,76.25l13.36,6.52c.39.19.87.01,1.03-.39l.14-.34c.17-.4-.04-.86-.46-1l-14.08-4.78Z"/>
    <path class="cls-3" d="M117.17,80.27l12.17,8.53c.36.25.85.15,1.08-.23l.19-.32c.23-.37.09-.86-.29-1.06l-13.15-6.92Z"/>
    <path class="cls-3" d="M114.53,83.91l10.69,10.33c.31.3.82.28,1.1-.05l.24-.28c.28-.33.23-.84-.12-1.1l-11.91-8.9Z"/>
    <path class="cls-3" d="M111.36,87.1l8.94,11.87c.26.35.77.4,1.1.12l.28-.24c.33-.28.35-.79.05-1.1l-10.37-10.65Z"/>
    <path class="cls-3" d="M107.72,89.74l6.97,13.13c.2.39.69.52,1.07.29l.32-.2c.37-.23.47-.72.22-1.08l-8.58-12.14Z"/>
    <path class="cls-3" d="M103.72,91.79l4.83,14.05c.14.41.6.62,1.01.45l.34-.14c.4-.17.58-.64.39-1.03l-6.57-13.33Z"/>
    <path class="cls-3" d="M99.44,93.19l2.57,14.64c.08.43.5.71.92.6l.36-.09c.42-.1.67-.54.54-.96l-4.4-14.19Z"/>
    <path class="cls-3" d="M95,93.9l.25,14.86c0,.44.38.78.82.74l.37-.03c.44-.04.75-.43.69-.86l-2.13-14.71Z"/>
  </g>
  <g>
    <g id="_x3C_径向重复_x3E_">
      <polygon class="cls-2" points="90.95 122.02 94.45 122.02 92.7 87.09 90.95 122.02"/>
    </g>
    <g id="_x3C_径向重复_x3E_-2" data-name="_x3C_径向重复_x3E_">
      <polygon class="cls-2" points="82.1 121.05 85.56 121.6 89.29 86.83 82.1 121.05"/>
    </g>
    <g id="_x3C_径向重复_x3E_-3" data-name="_x3C_径向重复_x3E_">
      <polygon class="cls-2" points="73.51 118.71 76.84 119.79 85.97 86.03 73.51 118.71"/>
    </g>
    <g id="_x3C_径向重复_x3E_-4" data-name="_x3C_径向重复_x3E_">
      <polygon class="cls-2" points="65.4 115.05 68.52 116.64 82.82 84.72 65.4 115.05"/>
    </g>
    <g id="_x3C_径向重复_x3E_-5" data-name="_x3C_径向重复_x3E_">
      <polygon class="cls-2" points="57.96 110.17 60.79 112.22 79.9 82.94 57.96 110.17"/>
    </g>
    <g id="_x3C_径向重复_x3E_-6" data-name="_x3C_径向重复_x3E_">
      <polygon class="cls-2" points="51.37 104.18 53.85 106.66 77.31 80.72 51.37 104.18"/>
    </g>
    <g id="_x3C_径向重复_x3E_-7" data-name="_x3C_径向重复_x3E_">
      <polygon class="cls-2" points="45.8 97.24 47.86 100.07 75.09 78.12 45.8 97.24"/>
    </g>
    <g id="_x3C_径向重复_x3E_-8" data-name="_x3C_径向重复_x3E_">
      <polygon class="cls-2" points="41.39 89.51 42.98 92.63 73.3 75.21 41.39 89.51"/>
    </g>
    <g id="_x3C_径向重复_x3E_-9" data-name="_x3C_径向重复_x3E_">
      <polygon class="cls-2" points="38.24 81.19 39.32 84.52 72 72.06 38.24 81.19"/>
    </g>
    <g id="_x3C_径向重复_x3E_-10" data-name="_x3C_径向重复_x3E_">
      <polygon class="cls-2" points="36.43 72.47 36.98 75.93 71.2 68.74 36.43 72.47"/>
    </g>
    <g id="_x3C_径向重复_x3E_-11" data-name="_x3C_径向重复_x3E_">
      <polygon class="cls-2" points="36 63.58 36 67.08 70.93 65.33 36 63.58"/>
    </g>
    <g id="_x3C_径向重复_x3E_-12" data-name="_x3C_径向重复_x3E_">
      <polygon class="cls-2" points="36.98 54.73 36.43 58.19 71.2 61.93 36.98 54.73"/>
    </g>
    <g id="_x3C_径向重复_x3E_-13" data-name="_x3C_径向重复_x3E_">
      <polygon class="cls-2" points="39.32 46.15 38.24 49.48 72 58.6 39.32 46.15"/>
    </g>
    <g id="_x3C_径向重复_x3E_-14" data-name="_x3C_径向重复_x3E_">
      <polygon class="cls-2" points="42.98 38.03 41.39 41.15 73.3 55.45 42.98 38.03"/>
    </g>
    <g id="_x3C_径向重复_x3E_-15" data-name="_x3C_径向重复_x3E_">
      <polygon class="cls-2" points="47.86 30.59 45.8 33.42 75.09 52.54 47.86 30.59"/>
    </g>
    <g id="_x3C_径向重复_x3E_-16" data-name="_x3C_径向重复_x3E_">
      <polygon class="cls-2" points="53.84 24 51.37 26.48 77.31 49.94 53.84 24"/>
    </g>
    <g id="_x3C_径向重复_x3E_-17" data-name="_x3C_径向重复_x3E_">
      <polygon class="cls-2" points="60.79 18.44 57.96 20.49 79.9 47.72 60.79 18.44"/>
    </g>
    <g id="_x3C_径向重复_x3E_-18" data-name="_x3C_径向重复_x3E_">
      <polygon class="cls-2" points="68.52 14.02 65.4 15.61 82.81 45.94 68.52 14.02"/>
    </g>
    <g id="_x3C_径向重复_x3E_-19" data-name="_x3C_径向重复_x3E_">
      <polygon class="cls-2" points="76.84 10.87 73.51 11.95 85.97 44.63 76.84 10.87"/>
    </g>
    <g id="_x3C_径向重复_x3E_-20" data-name="_x3C_径向重复_x3E_">
      <polygon class="cls-2" points="85.56 9.06 82.1 9.61 89.29 43.83 85.56 9.06"/>
    </g>
    <g id="_x3C_径向重复_x3E_-21" data-name="_x3C_径向重复_x3E_">
      <polygon class="cls-2" points="94.45 8.64 90.95 8.64 92.7 43.56 94.45 8.64"/>
    </g>
    <g id="_x3C_径向重复_x3E_-22" data-name="_x3C_径向重复_x3E_">
      <polygon class="cls-2" points="103.29 9.61 99.84 9.06 96.1 43.83 103.29 9.61"/>
    </g>
    <g id="_x3C_径向重复_x3E_-23" data-name="_x3C_径向重复_x3E_">
      <polygon class="cls-2" points="111.88 11.95 108.55 10.87 99.42 44.63 111.88 11.95"/>
    </g>
    <g id="_x3C_径向重复_x3E_-24" data-name="_x3C_径向重复_x3E_">
      <polygon class="cls-2" points="119.99 15.61 116.87 14.02 102.58 45.94 119.99 15.61"/>
    </g>
    <g id="_x3C_径向重复_x3E_-25" data-name="_x3C_径向重复_x3E_">
      <polygon class="cls-2" points="127.43 20.49 124.6 18.43 105.49 47.72 127.43 20.49"/>
    </g>
    <g id="_x3C_径向重复_x3E_-26" data-name="_x3C_径向重复_x3E_">
      <polygon class="cls-2" points="134.02 26.48 131.55 24 108.09 49.94 134.02 26.48"/>
    </g>
    <g id="_x3C_径向重复_x3E_-27" data-name="_x3C_径向重复_x3E_">
      <polygon class="cls-2" points="139.59 33.42 137.53 30.59 110.3 52.54 139.59 33.42"/>
    </g>
    <g id="_x3C_径向重复_x3E_-28" data-name="_x3C_径向重复_x3E_">
      <polygon class="cls-2" points="144 41.15 142.42 38.03 112.09 55.45 144 41.15"/>
    </g>
    <g id="_x3C_径向重复_x3E_-29" data-name="_x3C_径向重复_x3E_">
      <polygon class="cls-2" points="147.15 49.47 146.07 46.14 113.4 58.6 147.15 49.47"/>
    </g>
    <g id="_x3C_径向重复_x3E_-30" data-name="_x3C_径向重复_x3E_">
      <polygon class="cls-2" points="148.97 58.19 148.42 54.73 114.19 61.92 148.97 58.19"/>
    </g>
    <g id="_x3C_径向重复_x3E_-31" data-name="_x3C_径向重复_x3E_">
      <polygon class="cls-2" points="149.39 67.08 149.39 63.58 114.46 65.33 149.39 67.08"/>
    </g>
    <g id="_x3C_径向重复_x3E_-32" data-name="_x3C_径向重复_x3E_">
      <polygon class="cls-2" points="148.42 75.93 148.97 72.47 114.19 68.73 148.42 75.93"/>
    </g>
    <g id="_x3C_径向重复_x3E_-33" data-name="_x3C_径向重复_x3E_">
      <polygon class="cls-2" points="146.07 84.51 147.16 81.18 113.4 72.05 146.07 84.51"/>
    </g>
    <g id="_x3C_径向重复_x3E_-34" data-name="_x3C_径向重复_x3E_">
      <polygon class="cls-2" points="142.42 92.63 144 89.51 112.09 75.21 142.42 92.63"/>
    </g>
    <g id="_x3C_径向重复_x3E_-35" data-name="_x3C_径向重复_x3E_">
      <polygon class="cls-2" points="137.53 100.07 139.59 97.24 110.31 78.12 137.53 100.07"/>
    </g>
    <g id="_x3C_径向重复_x3E_-36" data-name="_x3C_径向重复_x3E_">
      <polygon class="cls-2" points="131.55 106.65 134.02 104.18 108.09 80.72 131.55 106.65"/>
    </g>
    <g id="_x3C_径向重复_x3E_-37" data-name="_x3C_径向重复_x3E_">
      <polygon class="cls-2" points="124.6 112.22 127.44 110.17 105.49 82.94 124.6 112.22"/>
    </g>
    <g id="_x3C_径向重复_x3E_-38" data-name="_x3C_径向重复_x3E_">
      <polygon class="cls-2" points="116.88 116.64 120 115.05 102.58 84.72 116.88 116.64"/>
    </g>
    <g id="_x3C_径向重复_x3E_-39" data-name="_x3C_径向重复_x3E_">
      <polygon class="cls-2" points="108.55 119.79 111.88 118.71 99.42 86.03 108.55 119.79"/>
    </g>
    <g id="_x3C_径向重复_x3E_-40" data-name="_x3C_径向重复_x3E_">
      <polygon class="cls-2" points="99.84 121.6 103.29 121.05 96.1 86.83 99.84 121.6"/>
    </g>
  </g>
  <g>
    <g id="_x3C_径向重复_x3E_-41" data-name="_x3C_径向重复_x3E_">
      <polygon class="cls-1" points="93.2 75.12 92.19 75.12 92.7 92.15 93.2 75.12"/>
    </g>
    <g id="_x3C_径向重复_x3E_-42" data-name="_x3C_径向重复_x3E_">
      <polygon class="cls-1" points="91.66 75.08 90.67 74.92 88.5 91.82 91.66 75.08"/>
    </g>
    <g id="_x3C_径向重复_x3E_-43" data-name="_x3C_径向重复_x3E_">
      <polygon class="cls-1" points="90.15 74.79 89.19 74.48 84.41 90.84 90.15 74.79"/>
    </g>
    <g id="_x3C_径向重复_x3E_-44" data-name="_x3C_径向重复_x3E_">
      <polygon class="cls-1" points="88.7 74.28 87.8 73.82 80.52 89.23 88.7 74.28"/>
    </g>
    <g id="_x3C_径向重复_x3E_-45" data-name="_x3C_径向重复_x3E_">
      <polygon class="cls-1" points="87.35 73.55 86.53 72.95 76.93 87.03 87.35 73.55"/>
    </g>
    <g id="_x3C_径向重复_x3E_-46" data-name="_x3C_径向重复_x3E_">
      <polygon class="cls-1" points="86.13 72.61 85.42 71.89 73.73 84.3 86.13 72.61"/>
    </g>
    <g id="_x3C_径向重复_x3E_-47" data-name="_x3C_径向重复_x3E_">
      <polygon class="cls-1" points="85.07 71.49 84.48 70.68 71 81.1 85.07 71.49"/>
    </g>
    <g id="_x3C_径向重复_x3E_-48" data-name="_x3C_径向重复_x3E_">
      <polygon class="cls-1" points="84.2 70.22 83.75 69.32 68.8 77.51 84.2 70.22"/>
    </g>
    <g id="_x3C_径向重复_x3E_-49" data-name="_x3C_径向重复_x3E_">
      <polygon class="cls-1" points="83.54 68.83 83.23 67.87 67.19 73.62 83.54 68.83"/>
    </g>
    <g id="_x3C_径向重复_x3E_-50" data-name="_x3C_径向重复_x3E_">
      <polygon class="cls-1" points="83.11 67.36 82.95 66.36 66.2 69.52 83.11 67.36"/>
    </g>
    <g id="_x3C_径向重复_x3E_-51" data-name="_x3C_径向重复_x3E_">
      <polygon class="cls-1" points="82.91 65.83 82.91 64.83 65.87 65.33 82.91 65.83"/>
    </g>
    <g id="_x3C_径向重复_x3E_-52" data-name="_x3C_径向重复_x3E_">
      <polygon class="cls-1" points="82.95 64.3 83.11 63.3 66.2 61.13 82.95 64.3"/>
    </g>
    <g id="_x3C_径向重复_x3E_-53" data-name="_x3C_径向重复_x3E_">
      <polygon class="cls-1" points="83.23 62.78 83.54 61.82 67.19 57.04 83.23 62.78"/>
    </g>
    <g id="_x3C_径向重复_x3E_-54" data-name="_x3C_径向重复_x3E_">
      <polygon class="cls-1" points="83.75 61.33 84.2 60.44 68.8 53.15 83.75 61.33"/>
    </g>
    <g id="_x3C_径向重复_x3E_-55" data-name="_x3C_径向重复_x3E_">
      <polygon class="cls-1" points="84.48 59.98 85.07 59.17 71 49.56 84.48 59.98"/>
    </g>
    <g id="_x3C_径向重复_x3E_-56" data-name="_x3C_径向重复_x3E_">
      <polygon class="cls-1" points="85.42 58.76 86.13 58.05 73.73 46.36 85.42 58.76"/>
    </g>
    <g id="_x3C_径向重复_x3E_-57" data-name="_x3C_径向重复_x3E_">
      <polygon class="cls-1" points="86.53 57.71 87.35 57.11 76.93 43.63 86.53 57.71"/>
    </g>
    <g id="_x3C_径向重复_x3E_-58" data-name="_x3C_径向重复_x3E_">
      <polygon class="cls-1" points="87.8 56.84 88.7 56.38 80.52 41.43 87.8 56.84"/>
    </g>
    <g id="_x3C_径向重复_x3E_-59" data-name="_x3C_径向重复_x3E_">
      <polygon class="cls-1" points="89.19 56.18 90.15 55.86 84.41 39.82 89.19 56.18"/>
    </g>
    <g id="_x3C_径向重复_x3E_-60" data-name="_x3C_径向重复_x3E_">
      <polygon class="cls-1" points="90.67 55.74 91.66 55.58 88.5 38.84 90.67 55.74"/>
    </g>
    <g id="_x3C_径向重复_x3E_-61" data-name="_x3C_径向重复_x3E_">
      <polygon class="cls-1" points="92.19 55.54 93.2 55.54 92.7 38.5 92.19 55.54"/>
    </g>
    <g id="_x3C_径向重复_x3E_-62" data-name="_x3C_径向重复_x3E_">
      <polygon class="cls-1" points="93.73 55.58 94.73 55.74 96.89 38.84 93.73 55.58"/>
    </g>
    <g id="_x3C_径向重复_x3E_-63" data-name="_x3C_径向重复_x3E_">
      <polygon class="cls-1" points="95.24 55.86 96.2 56.18 100.99 39.82 95.24 55.86"/>
    </g>
    <g id="_x3C_径向重复_x3E_-64" data-name="_x3C_径向重复_x3E_">
      <polygon class="cls-1" points="96.69 56.38 97.59 56.84 104.87 41.43 96.69 56.38"/>
    </g>
    <g id="_x3C_径向重复_x3E_-65" data-name="_x3C_径向重复_x3E_">
      <polygon class="cls-1" points="98.04 57.11 98.86 57.71 108.46 43.63 98.04 57.11"/>
    </g>
    <g id="_x3C_径向重复_x3E_-66" data-name="_x3C_径向重复_x3E_">
      <polygon class="cls-1" points="99.26 58.05 99.98 58.76 111.66 46.36 99.26 58.05"/>
    </g>
    <g id="_x3C_径向重复_x3E_-67" data-name="_x3C_径向重复_x3E_">
      <polygon class="cls-1" points="100.32 59.17 100.91 59.98 114.4 49.56 100.32 59.17"/>
    </g>
    <g id="_x3C_径向重复_x3E_-68" data-name="_x3C_径向重复_x3E_">
      <polygon class="cls-1" points="101.19 60.44 101.65 61.33 116.6 53.15 101.19 60.44"/>
    </g>
    <g id="_x3C_径向重复_x3E_-69" data-name="_x3C_径向重复_x3E_">
      <polygon class="cls-1" points="101.85 61.82 102.16 62.78 118.21 57.04 101.85 61.82"/>
    </g>
    <g id="_x3C_径向重复_x3E_-70" data-name="_x3C_径向重复_x3E_">
      <polygon class="cls-1" points="102.29 63.3 102.44 64.3 119.19 61.13 102.29 63.3"/>
    </g>
    <g id="_x3C_径向重复_x3E_-71" data-name="_x3C_径向重复_x3E_">
      <polygon class="cls-1" points="102.49 64.82 102.49 65.83 119.52 65.33 102.49 64.82"/>
    </g>
    <g id="_x3C_径向重复_x3E_-72" data-name="_x3C_径向重复_x3E_">
      <polygon class="cls-1" points="102.44 66.36 102.29 67.36 119.19 69.53 102.44 66.36"/>
    </g>
    <g id="_x3C_径向重复_x3E_-73" data-name="_x3C_径向重复_x3E_">
      <polygon class="cls-1" points="102.16 67.87 101.85 68.83 118.21 73.62 102.16 67.87"/>
    </g>
    <g id="_x3C_径向重复_x3E_-74" data-name="_x3C_径向重复_x3E_">
      <polygon class="cls-1" points="101.65 69.32 101.19 70.22 116.6 77.51 101.65 69.32"/>
    </g>
    <g id="_x3C_径向重复_x3E_-75" data-name="_x3C_径向重复_x3E_">
      <polygon class="cls-1" points="100.91 70.68 100.32 71.49 114.4 81.1 100.91 70.68"/>
    </g>
    <g id="_x3C_径向重复_x3E_-76" data-name="_x3C_径向重复_x3E_">
      <polygon class="cls-1" points="99.98 71.89 99.26 72.61 111.67 84.3 99.98 71.89"/>
    </g>
    <g id="_x3C_径向重复_x3E_-77" data-name="_x3C_径向重复_x3E_">
      <polygon class="cls-1" points="98.86 72.95 98.04 73.55 108.46 87.03 98.86 72.95"/>
    </g>
    <g id="_x3C_径向重复_x3E_-78" data-name="_x3C_径向重复_x3E_">
      <polygon class="cls-1" points="97.59 73.82 96.69 74.28 104.88 89.23 97.59 73.82"/>
    </g>
    <g id="_x3C_径向重复_x3E_-79" data-name="_x3C_径向重复_x3E_">
      <polygon class="cls-1" points="96.2 74.48 95.24 74.8 100.99 90.84 96.2 74.48"/>
    </g>
    <g id="_x3C_径向重复_x3E_-80" data-name="_x3C_径向重复_x3E_">
      <polygon class="cls-1" points="94.73 74.92 93.73 75.08 96.89 91.82 94.73 74.92"/>
    </g>
  </g>
</svg>