<?xml version="1.0" encoding="UTF-8"?>
<svg id="_图层_1" data-name="图层_1" xmlns="http://www.w3.org/2000/svg" viewBox="0 0 141.73 141.73">
  <defs>
    <style>
      .cls-1 {
        fill: #f3bb1f;
      }

      .cls-2 {
        fill: #faf5ca;
      }

      .cls-3 {
        fill: #ffd824;
      }
    </style>
  </defs>
  <g>
    <g id="_x3C_径向重复_x3E_">
      <path class="cls-2" d="M70.87,82.77c.24,0,.29,2.16.8,8.41.05.57.93,11.42-.12,15.23-.09.34-.35,1.28-.7,1.28-.33,0-.58-.87-.67-1.19-1.07-3.79-.13-15.28-.13-15.28.52-6.29.58-8.46.81-8.46Z"/>
    </g>
    <g id="_x3C_径向重复_x3E_-2" data-name="_x3C_径向重复_x3E_">
      <path class="cls-2" d="M66.57,81.97c.22.09-.51,2.12-2.29,8.13-.16.54-3.26,10.99-5.61,14.16-.21.28-.79,1.07-1.11.94-.31-.12-.22-1.02-.19-1.35.37-3.92,5.4-14.29,5.4-14.29,2.76-5.68,3.59-7.68,3.82-7.59Z"/>
    </g>
    <g id="_x3C_径向重复_x3E_-3" data-name="_x3C_径向重复_x3E_">
      <path class="cls-2" d="M62.85,79.66c.18.16-1.24,1.8-5.08,6.75-.35.45-7.01,9.07-10.35,11.18-.3.19-1.13.71-1.38.47-.24-.23.16-1.03.31-1.33,1.76-3.53,10.2-11.37,10.2-11.37,4.62-4.3,6.12-5.86,6.3-5.7Z"/>
    </g>
    <g id="_x3C_径向重复_x3E_-4" data-name="_x3C_径向重复_x3E_">
      <path class="cls-2" d="M60.21,76.18c.11.21-1.81,1.22-7.17,4.46-.49.29-9.81,5.93-13.69,6.68-.35.07-1.31.25-1.46-.06-.15-.3.52-.91.77-1.13,2.92-2.65,13.62-6.92,13.62-6.92,5.86-2.34,7.83-3.25,7.93-3.04Z"/>
    </g>
    <g id="_x3C_径向重复_x3E_-5" data-name="_x3C_径向重复_x3E_">
      <path class="cls-2" d="M59.02,71.97c.02.24-2.13.49-8.3,1.57-.56.1-11.29,1.98-15.18,1.29-.35-.06-1.31-.23-1.34-.58-.03-.33.82-.66,1.12-.77,3.68-1.42,15.2-1.53,15.2-1.53,6.31-.06,8.47-.21,8.5.03Z"/>
    </g>
    <g id="_x3C_径向重复_x3E_-6" data-name="_x3C_径向重复_x3E_">
      <path class="cls-2" d="M59.42,67.61c-.07.23-2.16-.31-8.31-1.53-.56-.11-11.24-2.23-14.62-4.28-.3-.18-1.14-.69-1.04-1.02.09-.32,1-.32,1.33-.32,3.94,0,14.73,4.06,14.73,4.06,5.91,2.22,7.98,2.87,7.91,3.1Z"/>
    </g>
    <g id="_x3C_径向重复_x3E_-7" data-name="_x3C_径向重复_x3E_">
      <path class="cls-2" d="M61.36,63.7c-.14.19-1.9-1.07-7.19-4.43-.48-.3-9.68-6.14-12.08-9.28-.22-.28-.81-1.06-.6-1.33.2-.26,1.05.06,1.35.18,3.67,1.43,12.27,9.11,12.27,9.11,4.71,4.21,6.4,5.56,6.26,5.75Z"/>
    </g>
    <g id="_x3C_径向重复_x3E_-8" data-name="_x3C_径向重复_x3E_">
      <path class="cls-2" d="M64.6,60.75c-.2.13-1.39-1.69-5.11-6.73-.34-.46-6.81-9.22-7.92-13.01-.1-.34-.37-1.28-.08-1.46.28-.17.95.44,1.19.66,2.91,2.66,8.15,12.92,8.15,12.92,2.87,5.62,3.96,7.49,3.76,7.62Z"/>
    </g>
    <g id="_x3C_径向重复_x3E_-9" data-name="_x3C_径向重复_x3E_">
      <path class="cls-2" d="M68.67,59.17c-.24.04-.68-2.07-2.33-8.12-.15-.55-3.01-11.06-2.68-14.99.03-.35.11-1.32.45-1.39.33-.06.73.75.87,1.04,1.75,3.53,2.93,14.99,2.93,14.99.65,6.28.99,8.42.75,8.46Z"/>
    </g>
    <g id="_x3C_径向重复_x3E_-10" data-name="_x3C_径向重复_x3E_">
      <path class="cls-2" d="M73.05,59.17c-.24-.04.11-2.18.76-8.41.06-.57,1.18-11.4,2.92-14.95.16-.32.58-1.19.92-1.13.33.06.41.96.44,1.29.36,3.93-2.68,15.04-2.68,15.04-1.67,6.09-2.12,8.21-2.36,8.16Z"/>
    </g>
    <g id="_x3C_径向重复_x3E_-11" data-name="_x3C_径向重复_x3E_">
      <path class="cls-2" d="M77.13,60.74c-.2-.13.89-1.99,3.75-7.57.26-.51,5.22-10.2,8.12-12.89.26-.24.98-.9,1.27-.72.28.18.03,1.05-.06,1.36-1.08,3.79-7.94,13.05-7.94,13.05-3.75,5.08-4.94,6.89-5.14,6.76Z"/>
    </g>
    <g id="_x3C_径向重复_x3E_-12" data-name="_x3C_径向重复_x3E_">
      <path class="cls-2" d="M80.36,63.69c-.14-.19,1.55-1.54,6.23-5.71.42-.38,8.56-7.63,12.23-9.08.33-.13,1.24-.49,1.44-.21.2.27-.35.99-.55,1.25-2.38,3.14-12.12,9.31-12.12,9.31-5.33,3.38-7.1,4.64-7.24,4.45Z"/>
    </g>
    <g id="_x3C_径向重复_x3E_-13" data-name="_x3C_径向重复_x3E_">
      <path class="cls-2" d="M82.31,67.6c-.06-.23,2-.87,7.87-3.07.53-.2,10.73-4.02,14.68-4.05.35,0,1.33-.01,1.42.32.09.32-.68.8-.96.97-3.35,2.07-14.66,4.3-14.66,4.3-6.19,1.22-8.29,1.76-8.36,1.53Z"/>
    </g>
    <g id="_x3C_径向重复_x3E_-14" data-name="_x3C_径向重复_x3E_">
      <path class="cls-2" d="M82.72,71.96c.02-.24,2.18-.09,8.45-.02.57,0,11.46.13,15.16,1.53.33.13,1.24.47,1.21.82-.03.33-.92.5-1.24.56-3.88.72-15.22-1.28-15.22-1.28-6.22-1.1-8.37-1.35-8.35-1.59Z"/>
    </g>
    <g id="_x3C_径向重复_x3E_-15" data-name="_x3C_径向重复_x3E_">
      <path class="cls-2" d="M81.52,76.17c.11-.21,2.07.71,7.88,3.03.53.21,10.64,4.26,13.58,6.9.26.24.99.89.83,1.2-.15.3-1.04.13-1.36.07-3.87-.73-13.73-6.7-13.73-6.7-5.4-3.27-7.31-4.29-7.21-4.5Z"/>
    </g>
    <g id="_x3C_径向重复_x3E_-16" data-name="_x3C_径向重复_x3E_">
      <path class="cls-2" d="M78.89,79.66c.18-.16,1.67,1.4,6.26,5.68.42.39,8.39,7.82,10.17,11.34.16.32.6,1.19.34,1.42-.25.22-1.02-.25-1.29-.43-3.35-2.08-10.38-11.21-10.38-11.21-3.85-5-5.27-6.64-5.1-6.8Z"/>
    </g>
    <g id="_x3C_径向重复_x3E_-17" data-name="_x3C_径向重复_x3E_">
      <path class="cls-2" d="M75.17,81.96c.22-.09,1.05,1.91,3.78,7.55.25.51,5,10.32,5.39,14.25.04.35.13,1.32-.19,1.45-.31.12-.85-.6-1.05-.87-2.37-3.15-5.64-14.2-5.64-14.2-1.79-6.05-2.52-8.09-2.3-8.18Z"/>
    </g>
  </g>
  <g>
    <g id="_x3C_径向重复_x3E_-18" data-name="_x3C_径向重复_x3E_">
      <path class="cls-3" d="M70.76,28.42c-1.53,0-2.92,9.29-2.92,16.98,0,7.69,1.39,16.97,2.92,16.97,1.51,0,3.12-8.99,3.13-16.89.01-8-1.62-17.07-3.13-17.07Z"/>
    </g>
    <g id="_x3C_径向重复_x3E_-19" data-name="_x3C_径向重复_x3E_">
      <path class="cls-3" d="M86.1,31.25c-1.43-.55-6.08,7.61-8.85,14.78-2.78,7.17-4.84,16.32-3.41,16.88,1.41.55,6.16-7.26,9.02-14.62,2.9-7.46,4.66-16.5,3.25-17.05Z"/>
    </g>
    <g id="_x3C_径向重复_x3E_-20" data-name="_x3C_径向重复_x3E_">
      <path class="cls-3" d="M99.38,39.43c-1.14-1.03-8.42,4.9-13.6,10.58-5.18,5.69-10.41,13.47-9.28,14.51,1.11,1.02,8.36-4.55,13.69-10.37,5.4-5.91,10.31-13.7,9.18-14.72Z"/>
    </g>
    <g id="_x3C_径向重复_x3E_-21" data-name="_x3C_径向重复_x3E_">
      <path class="cls-3" d="M108.81,51.85c-.69-1.37-9.62,1.53-16.5,4.96-6.89,3.43-14.57,8.8-13.89,10.18.67,1.35,9.44-1.22,16.51-4.72,7.17-3.56,14.56-9.06,13.88-10.41Z"/>
    </g>
    <g id="_x3C_径向重复_x3E_-22" data-name="_x3C_径向重复_x3E_">
      <path class="cls-3" d="M113.12,66.84c-.14-1.53-9.52-2.05-17.18-1.34-7.66.71-16.77,2.95-16.63,4.47.14,1.5,9.24,2.28,17.1,1.56,7.97-.73,16.85-3.18,16.71-4.69Z"/>
    </g>
    <g id="_x3C_径向重复_x3E_-23" data-name="_x3C_径向重复_x3E_">
      <path class="cls-3" d="M111.72,82.38c.42-1.48-8.14-5.35-15.53-7.45-7.4-2.11-16.7-3.31-17.12-1.84-.42,1.45,7.8,5.46,15.38,7.63,7.69,2.2,16.86,3.12,17.27,1.66Z"/>
    </g>
    <g id="_x3C_径向重复_x3E_-24" data-name="_x3C_径向重复_x3E_">
      <path class="cls-3" d="M104.8,96.36c.92-1.23-5.66-7.93-11.79-12.56-6.14-4.64-14.38-9.12-15.3-7.9-.91,1.2,5.3,7.91,11.59,12.67,6.38,4.83,14.6,9,15.51,7.79Z"/>
    </g>
    <g id="_x3C_径向重复_x3E_-25" data-name="_x3C_径向重复_x3E_">
      <path class="cls-3" d="M93.3,106.9c1.3-.81-2.41-9.44-6.46-15.97-4.05-6.54-10.11-13.7-11.41-12.9-1.28.79,2.08,9.29,6.23,16.01,4.2,6.81,10.36,13.66,11.65,12.86Z"/>
    </g>
    <g id="_x3C_径向重复_x3E_-26" data-name="_x3C_径向重复_x3E_">
      <path class="cls-3" d="M78.77,112.57c1.51-.28,1.16-9.67-.25-17.23-1.41-7.56-4.48-16.43-5.99-16.15-1.48.27-1.41,9.41.03,17.17,1.46,7.87,4.72,16.48,6.21,16.2Z"/>
    </g>
    <g id="_x3C_径向重复_x3E_-27" data-name="_x3C_径向重复_x3E_">
      <path class="cls-3" d="M63.17,112.61c1.51.28,4.57-8.6,5.99-16.16,1.41-7.56,1.76-16.94.25-17.22-1.48-.28-4.72,8.27-6.18,16.02-1.48,7.86-1.55,17.08-.06,17.35Z"/>
    </g>
    <g id="_x3C_径向重复_x3E_-28" data-name="_x3C_径向重复_x3E_">
      <path class="cls-3" d="M48.61,107.01c1.31.8,7.37-6.37,11.42-12.9,4.05-6.54,7.76-15.16,6.46-15.97-1.28-.8-7.39,6.01-11.55,12.71-4.22,6.8-7.61,15.36-6.32,16.16Z"/>
    </g>
    <g id="_x3C_径向重复_x3E_-29" data-name="_x3C_径向重复_x3E_">
      <path class="cls-3" d="M37.06,96.53c.93,1.22,9.17-3.27,15.31-7.91,6.14-4.64,12.71-11.33,11.79-12.56-.91-1.21-9.06,2.93-15.36,7.68-6.39,4.81-12.65,11.58-11.73,12.78Z"/>
    </g>
    <g id="_x3C_径向重复_x3E_-30" data-name="_x3C_径向重复_x3E_">
      <path class="cls-3" d="M30.07,82.58c.42,1.47,9.74.26,17.13-1.84,7.4-2.11,15.94-5.98,15.53-7.45-.41-1.45-9.5-.54-17.1,1.61-7.7,2.18-15.98,6.23-15.56,7.68Z"/>
    </g>
    <g id="_x3C_径向重复_x3E_-31" data-name="_x3C_径向重复_x3E_">
      <path class="cls-3" d="M28.59,67.06c-.14,1.53,8.99,3.76,16.64,4.47,7.66.71,17.03.19,17.17-1.34.14-1.5-8.67-3.94-16.53-4.68-7.97-.75-17.15.03-17.28,1.54Z"/>
    </g>
    <g id="_x3C_径向重复_x3E_-32" data-name="_x3C_径向重复_x3E_">
      <path class="cls-3" d="M32.82,52.04c-.68,1.37,7.02,6.75,13.9,10.18,6.89,3.43,15.81,6.32,16.49,4.95.67-1.35-6.66-6.8-13.72-10.33-7.16-3.58-16-6.16-16.67-4.81Z"/>
    </g>
    <g id="_x3C_径向重复_x3E_-33" data-name="_x3C_径向重复_x3E_">
      <path class="cls-3" d="M42.19,39.57c-1.13,1.04,4.11,8.83,9.28,14.51,5.18,5.69,12.46,11.61,13.59,10.58,1.12-1.01-3.75-8.75-9.06-14.59-5.38-5.92-12.69-11.53-13.81-10.5Z"/>
    </g>
    <g id="_x3C_径向重复_x3E_-34" data-name="_x3C_径向重复_x3E_">
      <path class="cls-3" d="M55.43,31.33c-1.43.56.64,9.72,3.41,16.89,2.78,7.17,7.42,15.32,8.85,14.77,1.41-.54-.34-9.51-3.18-16.88-2.88-7.47-7.67-15.33-9.08-14.78Z"/>
    </g>
  </g>
  <g>
    <g id="_x3C_径向重复_x3E_-35" data-name="_x3C_径向重复_x3E_">
      <g id="_x3C_径向重复_x3E_-36" data-name="_x3C_径向重复_x3E_">
        <path class="cls-1" d="M70.87,108.13c.32,0,.39,1.69,1.07,6.56.06.44,1.25,8.91-.16,11.88-.13.27-.47,1-.94,1-.44,0-.77-.68-.89-.93-1.44-2.96-.17-11.91-.17-11.91.69-4.91.77-6.6,1.09-6.6Z"/>
      </g>
    </g>
    <g id="_x3C_径向重复_x3E_-37" data-name="_x3C_径向重复_x3E_">
      <g id="_x3C_径向重复_x3E_-38" data-name="_x3C_径向重复_x3E_">
        <path class="cls-1" d="M57.41,105.61c.3.12-.25,1.71-1.37,6.5-.1.43-2.06,8.76-4.44,11.02-.21.2-.8.76-1.23.59-.41-.16-.48-.91-.5-1.19-.27-3.28,4.15-11.17,4.15-11.17,2.42-4.32,3.1-5.87,3.4-5.76Z"/>
      </g>
    </g>
    <g id="_x3C_径向重复_x3E_-39" data-name="_x3C_径向重复_x3E_">
      <g id="_x3C_径向重复_x3E_-40" data-name="_x3C_径向重复_x3E_">
        <path class="cls-1" d="M45.77,98.4c.24.22-.85,1.51-3.63,5.57-.25.37-5.08,7.42-8.12,8.67-.27.11-1.02.42-1.36.11-.33-.3-.11-1.02-.04-1.29.93-3.15,7.9-8.92,7.9-8.92,3.82-3.16,5.01-4.36,5.25-4.14Z"/>
      </g>
    </g>
    <g id="_x3C_径向重复_x3E_-41" data-name="_x3C_径向重复_x3E_">
      <g id="_x3C_径向重复_x3E_-42" data-name="_x3C_径向重复_x3E_">
        <path class="cls-1" d="M37.52,87.48c.14.29-1.34,1.1-5.39,3.88-.37.25-7.42,5.09-10.7,5.15-.29,0-1.11.02-1.31-.39-.2-.4.26-1,.43-1.21,2.01-2.6,10.59-5.46,10.59-5.46,4.7-1.57,6.25-2.25,6.39-1.96Z"/>
      </g>
    </g>
    <g id="_x3C_径向重复_x3E_-43" data-name="_x3C_径向重复_x3E_">
      <g id="_x3C_径向重复_x3E_-44" data-name="_x3C_径向重复_x3E_">
        <path class="cls-1" d="M33.77,74.31c.03.32-1.65.54-6.43,1.67-.43.1-8.76,2.06-11.84.94-.28-.1-1.04-.38-1.08-.84-.04-.44.61-.83.84-.97,2.81-1.7,11.85-1.27,11.85-1.27,4.95.24,6.64.16,6.67.48Z"/>
      </g>
    </g>
    <g id="_x3C_径向重复_x3E_-45" data-name="_x3C_径向重复_x3E_">
      <g id="_x3C_径向重复_x3E_-46" data-name="_x3C_径向重复_x3E_">
        <path class="cls-1" d="M35.03,60.68c-.09.31-1.73-.09-6.6-.77-.44-.06-8.91-1.24-11.38-3.41-.22-.19-.83-.73-.7-1.17.12-.43.87-.56,1.14-.61,3.24-.57,11.5,3.1,11.5,3.1,4.53,2.01,6.13,2.55,6.05,2.85Z"/>
      </g>
    </g>
    <g id="_x3C_径向重复_x3E_-47" data-name="_x3C_径向重复_x3E_">
      <g id="_x3C_径向重复_x3E_-48" data-name="_x3C_径向重复_x3E_">
        <path class="cls-1" d="M41.13,48.42c-.19.26-1.58-.71-5.88-3.1-.39-.22-7.86-4.38-9.38-7.29-.14-.26-.51-.98-.23-1.35.27-.35,1.01-.21,1.28-.15,3.23.64,9.61,7.05,9.61,7.05,3.5,3.51,4.8,4.59,4.61,4.84Z"/>
      </g>
    </g>
    <g id="_x3C_径向重复_x3E_-49" data-name="_x3C_径向重复_x3E_">
      <g id="_x3C_径向重复_x3E_-50" data-name="_x3C_径向重复_x3E_">
        <path class="cls-1" d="M51.25,39.19c-.27.17-1.22-1.23-4.36-5.01-.29-.34-5.75-6.92-6.12-10.18-.03-.29-.12-1.1.27-1.34.38-.23,1.02.17,1.25.32,2.78,1.76,6.41,10.04,6.41,10.04,1.99,4.54,2.82,6.01,2.55,6.18Z"/>
      </g>
    </g>
    <g id="_x3C_径向重复_x3E_-51" data-name="_x3C_径向重复_x3E_">
      <g id="_x3C_径向重复_x3E_-52" data-name="_x3C_径向重复_x3E_">
        <path class="cls-1" d="M64.01,34.24c-.31.06-.69-1.59-2.26-6.25-.14-.42-2.86-8.53-2.02-11.71.08-.28.28-1.07.74-1.15.44-.08.89.53,1.05.75,1.95,2.64,2.35,11.68,2.35,11.68.22,4.95.46,6.62.14,6.68Z"/>
      </g>
    </g>
    <g id="_x3C_径向重复_x3E_-53" data-name="_x3C_径向重复_x3E_">
      <g id="_x3C_径向重复_x3E_-54" data-name="_x3C_径向重复_x3E_">
        <path class="cls-1" d="M77.71,34.24c-.31-.06-.07-1.73.16-6.64.02-.45.41-8.99,2.34-11.65.17-.24.65-.9,1.1-.81.44.08.64.81.71,1.07.87,3.17-2.02,11.74-2.02,11.74-1.58,4.7-1.97,6.34-2.28,6.28Z"/>
      </g>
    </g>
    <g id="_x3C_径向重复_x3E_-55" data-name="_x3C_径向重复_x3E_">
      <g id="_x3C_径向重复_x3E_-56" data-name="_x3C_径向重复_x3E_">
        <path class="cls-1" d="M90.47,39.18c-.27-.17.56-1.64,2.54-6.14.18-.41,3.63-8.23,6.39-10.01.25-.16.93-.6,1.32-.36.38.24.3.99.27,1.26-.34,3.27-6.13,10.22-6.13,10.22-3.17,3.81-4.13,5.2-4.4,5.03Z"/>
      </g>
    </g>
    <g id="_x3C_径向重复_x3E_-57" data-name="_x3C_径向重复_x3E_">
      <g id="_x3C_径向重复_x3E_-58" data-name="_x3C_径向重复_x3E_">
        <path class="cls-1" d="M100.59,48.41c-.19-.26,1.11-1.33,4.59-4.8.32-.32,6.36-6.36,9.58-7.03.29-.06,1.08-.22,1.36.15.27.36-.08,1.03-.2,1.27-1.5,2.93-9.41,7.31-9.41,7.31-4.33,2.4-5.73,3.36-5.92,3.1Z"/>
      </g>
    </g>
    <g id="_x3C_径向重复_x3E_-59" data-name="_x3C_径向重复_x3E_">
      <g id="_x3C_径向重复_x3E_-60" data-name="_x3C_径向重复_x3E_">
        <path class="cls-1" d="M106.7,60.66c-.09-.31,1.52-.84,6.02-2.82.41-.18,8.23-3.64,11.47-3.1.29.05,1.09.18,1.22.63.12.43-.44.93-.65,1.11-2.45,2.19-11.41,3.42-11.41,3.42-4.91.67-6.55,1.06-6.64.76Z"/>
      </g>
    </g>
    <g id="_x3C_径向重复_x3E_-61" data-name="_x3C_径向重复_x3E_">
      <g id="_x3C_径向重复_x3E_-62" data-name="_x3C_径向重复_x3E_">
        <path class="cls-1" d="M107.97,74.3c.03-.32,1.72-.23,6.63-.46.45-.02,8.99-.42,11.81,1.26.25.15.95.56.91,1.02-.04.44-.75.71-1,.8-3.08,1.16-11.88-.93-11.88-.93-4.82-1.14-6.5-1.37-6.47-1.69Z"/>
      </g>
    </g>
    <g id="_x3C_径向重复_x3E_-63" data-name="_x3C_径向重复_x3E_">
      <g id="_x3C_径向重复_x3E_-64" data-name="_x3C_径向重复_x3E_">
        <path class="cls-1" d="M104.22,87.47c.14-.29,1.68.41,6.35,1.97.42.14,8.53,2.86,10.56,5.44.18.23.68.87.48,1.28-.2.4-.95.39-1.23.39-3.29-.03-10.74-5.16-10.74-5.16-4.08-2.81-5.56-3.63-5.42-3.92Z"/>
      </g>
    </g>
    <g id="_x3C_径向重复_x3E_-65" data-name="_x3C_径向重复_x3E_">
      <g id="_x3C_径向重复_x3E_-66" data-name="_x3C_径向重复_x3E_">
        <path class="cls-1" d="M95.97,98.4c.24-.22,1.42.99,5.21,4.13.34.28,6.92,5.74,7.88,8.89.09.28.32,1.06-.02,1.37-.33.3-1.03.02-1.28-.08-3.05-1.22-8.15-8.69-8.15-8.69-2.79-4.09-3.87-5.39-3.64-5.61Z"/>
      </g>
    </g>
    <g id="_x3C_径向重复_x3E_-67" data-name="_x3C_径向重复_x3E_">
      <g id="_x3C_径向重复_x3E_-68" data-name="_x3C_径向重复_x3E_">
        <path class="cls-1" d="M84.33,105.61c.3-.12.97,1.43,3.37,5.73.22.39,4.38,7.86,4.14,11.13-.02.29-.08,1.1-.51,1.27-.41.16-.97-.35-1.17-.54-2.41-2.24-4.46-11.05-4.46-11.05-1.12-4.83-1.66-6.43-1.37-6.54Z"/>
      </g>
    </g>
  </g>
</svg>