<?xml version="1.0" encoding="UTF-8"?>
<svg id="_图层_1" data-name="图层_1" xmlns="http://www.w3.org/2000/svg" viewBox="0 0 185.39 130.66">
  <defs>
    <style>
      .cls-1 {
        fill: #72ba2b;
      }

      .cls-2 {
        fill: #d4db7e;
      }

      .cls-3 {
        fill: #99c834;
      }
    </style>
  </defs>
  <g>
    <ellipse class="cls-3" cx="92.7" cy="79.37" rx="1.8" ry="9.12"/>
    <ellipse class="cls-3" cx="87.63" cy="78.42" rx="9.12" ry="1.8" transform="translate(-17.15 131.8) rotate(-68.82)"/>
    <ellipse class="cls-3" cx="83.24" cy="75.7" rx="9.12" ry="1.8" transform="translate(-28.79 86.22) rotate(-47.65)"/>
    <ellipse class="cls-3" cx="80.13" cy="71.59" rx="9.12" ry="1.8" transform="translate(-23.51 43.22) rotate(-26.47)"/>
    <ellipse class="cls-3" cx="78.72" cy="66.63" rx="9.12" ry="1.8" transform="translate(-5.81 7.55) rotate(-5.29)"/>
    <ellipse class="cls-3" cx="79.19" cy="61.49" rx="1.8" ry="9.12" transform="translate(-1.62 120.83) rotate(-74.12)"/>
    <ellipse class="cls-3" cx="81.49" cy="56.87" rx="1.8" ry="9.12" transform="translate(-13 87.63) rotate(-52.94)"/>
    <ellipse class="cls-3" cx="85.31" cy="53.39" rx="1.8" ry="9.12" transform="translate(-15.33 52.9) rotate(-31.76)"/>
    <ellipse class="cls-3" cx="90.12" cy="51.53" rx="1.8" ry="9.12" transform="translate(-7.93 17.44) rotate(-10.59)"/>
    <ellipse class="cls-3" cx="95.28" cy="51.53" rx="9.12" ry="1.8" transform="translate(27.12 135.71) rotate(-79.41)"/>
    <ellipse class="cls-3" cx="100.09" cy="53.39" rx="9.12" ry="1.8" transform="translate(2 110.38) rotate(-58.24)"/>
    <ellipse class="cls-3" cx="103.9" cy="56.87" rx="9.12" ry="1.8" transform="translate(-13.28 74.1) rotate(-37.06)"/>
    <ellipse class="cls-3" cx="106.2" cy="61.49" rx="9.12" ry="1.8" transform="translate(-12.77 31.41) rotate(-15.88)"/>
    <ellipse class="cls-3" cx="106.68" cy="66.62" rx="1.8" ry="9.12" transform="translate(30.49 166.7) rotate(-84.71)"/>
    <ellipse class="cls-3" cx="105.27" cy="71.59" rx="1.8" ry="9.12" transform="translate(-5.74 133.91) rotate(-63.53)"/>
    <ellipse class="cls-3" cx="102.16" cy="75.7" rx="1.8" ry="9.12" transform="translate(-24.34 88.58) rotate(-42.35)"/>
    <ellipse class="cls-3" cx="97.77" cy="78.42" rx="1.8" ry="9.12" transform="translate(-21.73 40.61) rotate(-21.18)"/>
  </g>
  <g>
    <g id="_x3C_径向重复_x3E_">
      <path class="cls-2" d="M92.7,8.64c1.23,0,2.2,1.71,2.09,3.69-.73,25.72-1.42,36.89-2.09,36.89s-1.36-11.17-2.09-36.89c-.11-1.98.85-3.69,2.09-3.69Z"/>
    </g>
    <g id="_x3C_径向重复_x3E_-2" data-name="_x3C_径向重复_x3E_">
      <path class="cls-2" d="M113.18,12.46c1.15.45,1.43,2.39.61,4.19-9.97,23.72-14.66,33.89-15.27,33.65s2.77-10.91,11.38-35.16c.61-1.89,2.13-3.13,3.28-2.69Z"/>
    </g>
    <g id="_x3C_径向重复_x3E_-3" data-name="_x3C_径向重复_x3E_">
      <path class="cls-2" d="M130.89,23.43c.91.83.47,2.74-.94,4.13-17.87,18.52-25.91,26.31-26.4,25.86s6.52-9.17,23.31-28.67c1.25-1.54,3.12-2.15,4.03-1.32Z"/>
    </g>
    <g id="_x3C_径向重复_x3E_-4" data-name="_x3C_径向重复_x3E_">
      <path class="cls-2" d="M143.45,40.06c.55,1.1-.55,2.73-2.37,3.51-23.35,10.81-33.66,15.17-33.96,14.58s9.4-6.2,32.1-18.31c1.72-.98,3.68-.88,4.23.22Z"/>
    </g>
    <g id="_x3C_径向重复_x3E_-5" data-name="_x3C_径向重复_x3E_">
      <path class="cls-2" d="M149.15,60.1c.11,1.23-1.5,2.35-3.48,2.42-25.68,1.65-36.87,1.99-36.93,1.33s11-2.38,36.54-5.48c1.96-.29,3.75.51,3.87,1.74Z"/>
    </g>
    <g id="_x3C_径向重复_x3E_-6" data-name="_x3C_径向重复_x3E_">
      <path class="cls-2" d="M147.23,80.84c-.34,1.19-2.25,1.65-4.12,1-24.54-7.74-35.1-11.47-34.92-12.1s11.12,1.75,36.06,8.09c1.94.43,3.32,1.83,2.98,3.02Z"/>
    </g>
    <g id="_x3C_径向重复_x3E_-7" data-name="_x3C_径向重复_x3E_">
      <path class="cls-2" d="M137.94,99.49c-.74.98-2.69.72-4.2-.56-20.09-16.08-28.58-23.37-28.18-23.9s9.74,5.65,30.7,20.57c1.65,1.1,2.43,2.91,1.69,3.89Z"/>
    </g>
    <g id="_x3C_径向重复_x3E_-8" data-name="_x3C_径向重复_x3E_">
      <path class="cls-2" d="M122.54,113.53c-1.05.65-2.77-.3-3.72-2.04-12.92-22.25-18.21-32.12-17.65-32.47s7.04,8.78,21.2,30.27c1.14,1.63,1.22,3.59.17,4.24Z"/>
    </g>
    <g id="_x3C_径向重复_x3E_-9" data-name="_x3C_径向重复_x3E_">
      <path class="cls-2" d="M103.11,121.06c-1.21.23-2.48-1.28-2.73-3.24-4.01-25.42-5.38-36.53-4.73-36.65s3.39,10.73,8.83,35.88c.47,1.93-.16,3.78-1.37,4.01Z"/>
    </g>
    <g id="_x3C_径向重复_x3E_-10" data-name="_x3C_径向重复_x3E_">
      <path class="cls-2" d="M82.28,121.06c-1.21-.23-1.85-2.08-1.37-4.01,5.44-25.15,8.18-36,8.83-35.88s-.72,11.23-4.73,36.65c-.25,1.97-1.52,3.47-2.73,3.24Z"/>
    </g>
    <g id="_x3C_径向重复_x3E_-11" data-name="_x3C_径向重复_x3E_">
      <path class="cls-2" d="M62.85,113.53c-1.05-.65-.97-2.61.17-4.24,14.16-21.49,20.63-30.62,21.2-30.27s-4.73,10.22-17.65,32.47c-.95,1.74-2.67,2.69-3.72,2.04Z"/>
    </g>
    <g id="_x3C_径向重复_x3E_-12" data-name="_x3C_径向重复_x3E_">
      <path class="cls-2" d="M47.45,99.49c-.74-.98.04-2.78,1.69-3.89,20.96-14.92,30.3-21.1,30.7-20.57s-8.1,7.82-28.18,23.9c-1.51,1.28-3.46,1.54-4.2.56Z"/>
    </g>
    <g id="_x3C_径向重复_x3E_-13" data-name="_x3C_径向重复_x3E_">
      <path class="cls-2" d="M38.17,80.84c-.34-1.19,1.04-2.58,2.98-3.02,24.94-6.34,35.88-8.73,36.06-8.09s-10.37,4.37-34.91,12.1c-1.88.65-3.78.19-4.12-1Z"/>
    </g>
    <g id="_x3C_径向重复_x3E_-14" data-name="_x3C_径向重复_x3E_">
      <path class="cls-2" d="M36.25,60.1c.11-1.23,1.9-2.03,3.87-1.74,25.54,3.1,36.61,4.82,36.54,5.48s-11.25.32-36.93-1.33c-1.98-.07-3.6-1.19-3.48-2.42Z"/>
    </g>
    <g id="_x3C_径向重复_x3E_-15" data-name="_x3C_径向重复_x3E_">
      <path class="cls-2" d="M41.95,40.06c.55-1.1,2.51-1.21,4.23-.22,22.7,12.12,32.39,17.72,32.1,18.31s-10.61-3.76-33.96-14.58c-1.82-.78-2.92-2.41-2.37-3.51Z"/>
    </g>
    <g id="_x3C_径向重复_x3E_-16" data-name="_x3C_径向重复_x3E_">
      <path class="cls-2" d="M54.5,23.43c.91-.83,2.78-.22,4.03,1.32,16.79,19.5,23.8,28.22,23.31,28.67s-8.53-7.34-26.4-25.86c-1.42-1.39-1.85-3.3-.94-4.13Z"/>
    </g>
    <g id="_x3C_径向重复_x3E_-17" data-name="_x3C_径向重复_x3E_">
      <path class="cls-2" d="M72.22,12.46c1.15-.45,2.67.8,3.28,2.69,8.61,24.25,12,34.92,11.38,35.16s-5.3-9.93-15.27-33.65c-.82-1.81-.54-3.75.61-4.19Z"/>
    </g>
  </g>
  <g>
    <path class="cls-1" d="M92.7,109.04c-.58,0-1.04-.81-.99-1.74.34-12.14.67-17.42.99-17.42s.64,5.28.99,17.42c.05.94-.4,1.74-.99,1.74Z"/>
    <path class="cls-1" d="M76.91,106.09c-.54-.21-.68-1.13-.29-1.98,4.71-11.2,6.92-16,7.21-15.89s-1.31,5.15-5.37,16.6c-.29.89-1.01,1.48-1.55,1.27Z"/>
    <path class="cls-1" d="M63.25,97.63c-.43-.39-.22-1.3.45-1.95,8.44-8.74,12.23-12.42,12.46-12.21s-3.08,4.33-11.01,13.54c-.59.73-1.47,1.02-1.9.62Z"/>
    <path class="cls-1" d="M53.57,84.81c-.26-.52.26-1.29,1.12-1.66,11.02-5.11,15.89-7.16,16.03-6.88s-4.44,2.93-15.16,8.65c-.81.46-1.74.42-2-.11Z"/>
    <path class="cls-1" d="M49.18,69.36c-.05-.58.71-1.11,1.64-1.14,12.12-.78,17.41-.94,17.44-.63s-5.19,1.13-17.26,2.59c-.93.14-1.77-.24-1.83-.82Z"/>
    <path class="cls-1" d="M50.66,53.37c.16-.56,1.06-.78,1.95-.47,11.59,3.65,16.57,5.41,16.49,5.72s-5.25-.83-17.03-3.82c-.91-.21-1.57-.86-1.41-1.42Z"/>
    <path class="cls-1" d="M57.82,38.99c.35-.46,1.27-.34,1.98.26,9.48,7.59,13.5,11.03,13.31,11.28s-4.6-2.67-14.5-9.71c-.78-.52-1.15-1.37-.8-1.84Z"/>
    <path class="cls-1" d="M69.69,28.17c.49-.31,1.31.14,1.75.96,6.1,10.51,8.6,15.17,8.33,15.33s-3.32-4.15-10.01-14.29c-.54-.77-.57-1.69-.08-2Z"/>
    <path class="cls-1" d="M84.67,22.37c.57-.11,1.17.6,1.29,1.53,1.89,12,2.54,17.25,2.23,17.31s-1.6-5.07-4.17-16.94c-.22-.91.08-1.79.65-1.89Z"/>
    <path class="cls-1" d="M100.73,22.37c.57.11.87.98.65,1.89-2.57,11.87-3.86,17-4.17,16.94s.34-5.3,2.23-17.31c.12-.93.72-1.64,1.29-1.53Z"/>
    <path class="cls-1" d="M115.71,28.17c.49.31.46,1.23-.08,2-6.69,10.14-9.74,14.46-10.01,14.29s2.23-4.82,8.33-15.33c.45-.82,1.26-1.27,1.75-.96Z"/>
    <path class="cls-1" d="M127.58,38.99c.35.46-.02,1.31-.8,1.84-9.9,7.04-14.31,9.96-14.5,9.71s3.82-3.69,13.31-11.28c.71-.61,1.63-.73,1.98-.26Z"/>
    <path class="cls-1" d="M134.74,53.37c.16.56-.49,1.22-1.41,1.42-11.78,2.99-16.94,4.12-17.03,3.82s4.9-2.06,16.49-5.72c.89-.31,1.79-.09,1.95.47Z"/>
    <path class="cls-1" d="M136.22,69.36c-.05.58-.9.96-1.83.82-12.06-1.46-17.28-2.28-17.26-2.59s5.31-.15,17.44.63c.94.03,1.7.56,1.64,1.14Z"/>
    <path class="cls-1" d="M131.82,84.81c-.26.52-1.18.57-2,.11-10.72-5.72-15.29-8.37-15.16-8.65s5.01,1.78,16.03,6.88c.86.37,1.38,1.14,1.12,1.66Z"/>
    <path class="cls-1" d="M122.14,97.63c-.43.39-1.31.1-1.9-.62-7.93-9.21-11.24-13.33-11.01-13.54s4.03,3.47,12.46,12.21c.67.66.88,1.56.45,1.95Z"/>
    <path class="cls-1" d="M108.49,106.09c-.54.21-1.26-.38-1.55-1.27-4.07-11.45-5.67-16.49-5.37-16.6s2.5,4.69,7.21,15.89c.39.85.25,1.77-.29,1.98Z"/>
  </g>
</svg>