<?xml version="1.0" encoding="UTF-8"?>
<svg id="_图层_1" data-name="图层_1" xmlns="http://www.w3.org/2000/svg" viewBox="0 0 141.73 141.73">
  <defs>
    <style>
      .cls-1 {
        fill: #a0d7e9;
      }

      .cls-2 {
        fill: #46bdd5;
      }

      .cls-3 {
        fill: #0087c0;
      }
    </style>
  </defs>
  <g>
    <g id="_x3C_径向重复_x3E_">
      <path class="cls-2" d="M70.87,77.3l.45,7.15c.01.21-.15.39-.36.39h-.18c-.21,0-.38-.18-.36-.39l.45-7.15Z"/>
    </g>
    <g id="_x3C_径向重复_x3E_-2" data-name="_x3C_径向重复_x3E_">
      <path class="cls-2" d="M69.86,77.22l-.67,7.13c-.02.21-.21.36-.42.33l-.18-.03c-.21-.03-.34-.23-.3-.44l1.57-6.99Z"/>
    </g>
    <g id="_x3C_径向重复_x3E_-3" data-name="_x3C_径向重复_x3E_">
      <path class="cls-2" d="M68.88,76.98l-1.78,6.94c-.05.2-.27.32-.47.26l-.17-.06c-.2-.07-.3-.29-.23-.48l2.64-6.66Z"/>
    </g>
    <g id="_x3C_径向重复_x3E_-4" data-name="_x3C_径向重复_x3E_">
      <path class="cls-2" d="M67.95,76.6l-2.84,6.57c-.08.19-.31.28-.5.18l-.16-.08c-.19-.1-.26-.33-.15-.51l3.65-6.16Z"/>
    </g>
    <g id="_x3C_径向重复_x3E_-5" data-name="_x3C_径向重复_x3E_">
      <path class="cls-2" d="M67.08,76.07l-3.83,6.05c-.11.18-.35.22-.52.1l-.15-.11c-.17-.12-.2-.37-.07-.53l4.57-5.51Z"/>
    </g>
    <g id="_x3C_径向重复_x3E_-6" data-name="_x3C_径向重复_x3E_">
      <path class="cls-2" d="M66.32,75.42l-4.73,5.37c-.14.16-.38.17-.53.02l-.13-.13c-.15-.15-.14-.39.02-.53l5.37-4.73Z"/>
    </g>
    <g id="_x3C_径向重复_x3E_-7" data-name="_x3C_径向重复_x3E_">
      <path class="cls-2" d="M65.66,74.65l-5.51,4.57c-.16.13-.4.1-.53-.07l-.11-.15c-.12-.17-.08-.41.1-.52l6.05-3.83Z"/>
    </g>
    <g id="_x3C_径向重复_x3E_-8" data-name="_x3C_径向重复_x3E_">
      <path class="cls-2" d="M65.13,73.79l-6.16,3.65c-.18.11-.42.04-.51-.15l-.08-.16c-.1-.19-.01-.42.18-.5l6.57-2.84Z"/>
    </g>
    <g id="_x3C_径向重复_x3E_-9" data-name="_x3C_径向重复_x3E_">
      <path class="cls-2" d="M64.75,72.85l-6.66,2.64c-.2.08-.42-.03-.48-.23l-.06-.17c-.07-.2.05-.41.26-.47l6.94-1.78Z"/>
    </g>
    <g id="_x3C_径向重复_x3E_-10" data-name="_x3C_径向重复_x3E_">
      <path class="cls-2" d="M64.51,71.87l-6.99,1.57c-.21.05-.41-.09-.44-.3l-.03-.18c-.03-.21.12-.4.33-.42l7.13-.67Z"/>
    </g>
    <g id="_x3C_径向重复_x3E_-11" data-name="_x3C_径向重复_x3E_">
      <path class="cls-2" d="M64.43,70.87l-7.15.45c-.21.01-.39-.15-.39-.36v-.18c0-.21.18-.38.39-.36l7.15.45Z"/>
    </g>
    <g id="_x3C_径向重复_x3E_-12" data-name="_x3C_径向重复_x3E_">
      <path class="cls-2" d="M64.51,69.86l-7.13-.67c-.21-.02-.36-.21-.33-.42l.03-.18c.03-.21.23-.34.44-.3l6.99,1.57Z"/>
    </g>
    <g id="_x3C_径向重复_x3E_-13" data-name="_x3C_径向重复_x3E_">
      <path class="cls-2" d="M64.75,68.88l-6.94-1.78c-.2-.05-.32-.27-.26-.47l.06-.17c.07-.2.29-.3.48-.23l6.66,2.64Z"/>
    </g>
    <g id="_x3C_径向重复_x3E_-14" data-name="_x3C_径向重复_x3E_">
      <path class="cls-2" d="M65.13,67.95l-6.57-2.84c-.19-.08-.28-.31-.18-.5l.08-.16c.1-.19.33-.26.51-.15l6.16,3.65Z"/>
    </g>
    <g id="_x3C_径向重复_x3E_-15" data-name="_x3C_径向重复_x3E_">
      <path class="cls-2" d="M65.66,67.08l-6.05-3.83c-.18-.11-.22-.35-.1-.52l.11-.15c.12-.17.37-.2.53-.07l5.51,4.57Z"/>
    </g>
    <g id="_x3C_径向重复_x3E_-16" data-name="_x3C_径向重复_x3E_">
      <path class="cls-2" d="M66.32,66.32l-5.37-4.73c-.16-.14-.17-.38-.02-.53l.13-.13c.15-.15.39-.14.53.02l4.73,5.37Z"/>
    </g>
    <g id="_x3C_径向重复_x3E_-17" data-name="_x3C_径向重复_x3E_">
      <path class="cls-2" d="M67.08,65.66l-4.57-5.51c-.13-.16-.1-.4.07-.53l.15-.11c.17-.12.41-.08.52.1l3.83,6.05Z"/>
    </g>
    <g id="_x3C_径向重复_x3E_-18" data-name="_x3C_径向重复_x3E_">
      <path class="cls-2" d="M67.95,65.13l-3.65-6.16c-.11-.18-.04-.42.15-.51l.16-.08c.19-.1.42-.01.5.18l2.84,6.57Z"/>
    </g>
    <g id="_x3C_径向重复_x3E_-19" data-name="_x3C_径向重复_x3E_">
      <path class="cls-2" d="M68.88,64.75l-2.64-6.66c-.08-.2.03-.42.23-.48l.17-.06c.2-.07.41.05.47.26l1.78,6.94Z"/>
    </g>
    <g id="_x3C_径向重复_x3E_-20" data-name="_x3C_径向重复_x3E_">
      <path class="cls-2" d="M69.86,64.51l-1.57-6.99c-.05-.21.09-.41.3-.44l.18-.03c.21-.03.4.12.42.33l.67,7.13Z"/>
    </g>
    <g id="_x3C_径向重复_x3E_-21" data-name="_x3C_径向重复_x3E_">
      <path class="cls-2" d="M70.87,64.43l-.45-7.15c-.01-.21.15-.39.36-.39h.18c.21,0,.38.18.36.39l-.45,7.15Z"/>
    </g>
    <g id="_x3C_径向重复_x3E_-22" data-name="_x3C_径向重复_x3E_">
      <path class="cls-2" d="M71.87,64.51l.67-7.13c.02-.21.21-.36.42-.33l.18.03c.21.03.34.23.3.44l-1.57,6.99Z"/>
    </g>
    <g id="_x3C_径向重复_x3E_-23" data-name="_x3C_径向重复_x3E_">
      <path class="cls-2" d="M72.85,64.75l1.78-6.94c.05-.2.27-.32.47-.26l.17.06c.2.07.3.29.23.48l-2.64,6.66Z"/>
    </g>
    <g id="_x3C_径向重复_x3E_-24" data-name="_x3C_径向重复_x3E_">
      <path class="cls-2" d="M73.79,65.13l2.84-6.57c.08-.19.31-.28.5-.18l.16.08c.19.1.26.33.15.51l-3.65,6.16Z"/>
    </g>
    <g id="_x3C_径向重复_x3E_-25" data-name="_x3C_径向重复_x3E_">
      <path class="cls-2" d="M74.65,65.66l3.83-6.05c.11-.18.35-.22.52-.1l.15.11c.17.12.2.37.07.53l-4.57,5.51Z"/>
    </g>
    <g id="_x3C_径向重复_x3E_-26" data-name="_x3C_径向重复_x3E_">
      <path class="cls-2" d="M75.42,66.32l4.73-5.37c.14-.16.38-.17.53-.02l.13.13c.15.15.14.39-.02.53l-5.37,4.73Z"/>
    </g>
    <g id="_x3C_径向重复_x3E_-27" data-name="_x3C_径向重复_x3E_">
      <path class="cls-2" d="M76.07,67.08l5.51-4.57c.16-.13.4-.1.53.07l.11.15c.12.17.08.41-.1.52l-6.05,3.83Z"/>
    </g>
    <g id="_x3C_径向重复_x3E_-28" data-name="_x3C_径向重复_x3E_">
      <path class="cls-2" d="M76.6,67.95l6.16-3.65c.18-.11.42-.04.51.15l.08.16c.1.19.01.42-.18.5l-6.57,2.84Z"/>
    </g>
    <g id="_x3C_径向重复_x3E_-29" data-name="_x3C_径向重复_x3E_">
      <path class="cls-2" d="M76.98,68.88l6.66-2.64c.2-.08.42.03.48.23l.06.17c.07.2-.05.41-.26.47l-6.94,1.78Z"/>
    </g>
    <g id="_x3C_径向重复_x3E_-30" data-name="_x3C_径向重复_x3E_">
      <path class="cls-2" d="M77.22,69.86l6.99-1.57c.21-.05.41.09.44.3l.03.18c.03.21-.12.4-.33.42l-7.13.67Z"/>
    </g>
    <g id="_x3C_径向重复_x3E_-31" data-name="_x3C_径向重复_x3E_">
      <path class="cls-2" d="M77.3,70.87l7.15-.45c.21-.01.39.15.39.36v.18c0,.21-.18.38-.39.36l-7.15-.45Z"/>
    </g>
    <g id="_x3C_径向重复_x3E_-32" data-name="_x3C_径向重复_x3E_">
      <path class="cls-2" d="M77.22,71.87l7.13.67c.21.02.36.21.33.42l-.03.18c-.03.21-.23.34-.44.3l-6.99-1.57Z"/>
    </g>
    <g id="_x3C_径向重复_x3E_-33" data-name="_x3C_径向重复_x3E_">
      <path class="cls-2" d="M76.98,72.85l6.94,1.78c.2.05.32.27.26.47l-.06.17c-.07.2-.29.3-.48.23l-6.66-2.64Z"/>
    </g>
    <g id="_x3C_径向重复_x3E_-34" data-name="_x3C_径向重复_x3E_">
      <path class="cls-2" d="M76.6,73.79l6.57,2.84c.19.08.28.31.18.5l-.08.16c-.1.19-.33.26-.51.15l-6.16-3.65Z"/>
    </g>
    <g id="_x3C_径向重复_x3E_-35" data-name="_x3C_径向重复_x3E_">
      <path class="cls-2" d="M76.07,74.65l6.05,3.83c.18.11.22.35.1.52l-.11.15c-.12.17-.37.2-.53.07l-5.51-4.57Z"/>
    </g>
    <g id="_x3C_径向重复_x3E_-36" data-name="_x3C_径向重复_x3E_">
      <path class="cls-2" d="M75.42,75.42l5.37,4.73c.16.14.17.38.02.53l-.13.13c-.15.15-.39.14-.53-.02l-4.73-5.37Z"/>
    </g>
    <g id="_x3C_径向重复_x3E_-37" data-name="_x3C_径向重复_x3E_">
      <path class="cls-2" d="M74.65,76.07l4.57,5.51c.13.16.1.4-.07.53l-.15.11c-.17.12-.41.08-.52-.1l-3.83-6.05Z"/>
    </g>
    <g id="_x3C_径向重复_x3E_-38" data-name="_x3C_径向重复_x3E_">
      <path class="cls-2" d="M73.79,76.6l3.65,6.16c.11.18.04.42-.15.51l-.16.08c-.19.1-.42.01-.5-.18l-2.84-6.57Z"/>
    </g>
    <g id="_x3C_径向重复_x3E_-39" data-name="_x3C_径向重复_x3E_">
      <path class="cls-2" d="M72.85,76.98l2.64,6.66c.08.2-.03.42-.23.48l-.17.06c-.2.07-.41-.05-.47-.26l-1.78-6.94Z"/>
    </g>
    <g id="_x3C_径向重复_x3E_-40" data-name="_x3C_径向重复_x3E_">
      <path class="cls-2" d="M71.87,77.22l1.57,6.99c.05.21-.09.41-.3.44l-.18.03c-.21.03-.4-.12-.42-.33l-.67-7.13Z"/>
    </g>
  </g>
  <g>
    <g id="_x3C_径向重复_x3E_-41" data-name="_x3C_径向重复_x3E_">
      <polygon class="cls-1" points="101.71 118.54 99.42 119.94 76.8 80.54 101.71 118.54"/>
    </g>
    <g id="_x3C_径向重复_x3E_-42" data-name="_x3C_径向重复_x3E_">
      <polygon class="cls-1" points="93.87 122.77 91.39 123.8 75.22 81.35 93.87 122.77"/>
    </g>
    <g id="_x3C_径向重复_x3E_-43" data-name="_x3C_径向重复_x3E_">
      <polygon class="cls-1" points="85.47 125.73 82.85 126.36 73.52 81.9 85.47 125.73"/>
    </g>
    <g id="_x3C_径向重复_x3E_-44" data-name="_x3C_径向重复_x3E_">
      <polygon class="cls-1" points="76.7 127.34 74.02 127.55 71.77 82.18 76.7 127.34"/>
    </g>
    <g id="_x3C_径向重复_x3E_-45" data-name="_x3C_径向重复_x3E_">
      <polygon class="cls-1" points="67.8 127.56 65.12 127.35 69.98 82.18 67.8 127.56"/>
    </g>
    <g id="_x3C_径向重复_x3E_-46" data-name="_x3C_径向重复_x3E_">
      <polygon class="cls-1" points="58.97 126.38 56.35 125.76 68.22 81.91 58.97 126.38"/>
    </g>
    <g id="_x3C_径向重复_x3E_-47" data-name="_x3C_径向重复_x3E_">
      <polygon class="cls-1" points="50.43 123.84 47.94 122.81 66.53 81.36 50.43 123.84"/>
    </g>
    <g id="_x3C_径向重复_x3E_-48" data-name="_x3C_径向重复_x3E_">
      <polygon class="cls-1" points="42.39 119.99 40.1 118.58 64.94 80.55 42.39 119.99"/>
    </g>
    <g id="_x3C_径向重复_x3E_-49" data-name="_x3C_径向重复_x3E_">
      <polygon class="cls-1" points="35.06 114.93 33.01 113.18 63.5 79.5 35.06 114.93"/>
    </g>
    <g id="_x3C_径向重复_x3E_-50" data-name="_x3C_径向重复_x3E_">
      <polygon class="cls-1" points="28.61 108.78 26.86 106.74 62.24 78.25 28.61 108.78"/>
    </g>
    <g id="_x3C_径向重复_x3E_-51" data-name="_x3C_径向重复_x3E_">
      <polygon class="cls-1" points="23.2 101.71 21.79 99.42 61.19 76.8 23.2 101.71"/>
    </g>
    <g id="_x3C_径向重复_x3E_-52" data-name="_x3C_径向重复_x3E_">
      <polygon class="cls-1" points="18.96 93.87 17.93 91.39 60.38 75.22 18.96 93.87"/>
    </g>
    <g id="_x3C_径向重复_x3E_-53" data-name="_x3C_径向重复_x3E_">
      <polygon class="cls-1" points="16 85.47 15.37 82.85 59.83 73.52 16 85.47"/>
    </g>
    <g id="_x3C_径向重复_x3E_-54" data-name="_x3C_径向重复_x3E_">
      <polygon class="cls-1" points="14.39 76.7 14.18 74.02 59.55 71.77 14.39 76.7"/>
    </g>
    <g id="_x3C_径向重复_x3E_-55" data-name="_x3C_径向重复_x3E_">
      <polygon class="cls-1" points="14.17 67.8 14.38 65.12 59.55 69.98 14.17 67.8"/>
    </g>
    <g id="_x3C_径向重复_x3E_-56" data-name="_x3C_径向重复_x3E_">
      <polygon class="cls-1" points="15.35 58.97 15.98 56.35 59.83 68.22 15.35 58.97"/>
    </g>
    <g id="_x3C_径向重复_x3E_-57" data-name="_x3C_径向重复_x3E_">
      <polygon class="cls-1" points="17.9 50.43 18.92 47.94 60.37 66.53 17.9 50.43"/>
    </g>
    <g id="_x3C_径向重复_x3E_-58" data-name="_x3C_径向重复_x3E_">
      <polygon class="cls-1" points="21.75 42.39 23.15 40.1 61.18 64.94 21.75 42.39"/>
    </g>
    <g id="_x3C_径向重复_x3E_-59" data-name="_x3C_径向重复_x3E_">
      <polygon class="cls-1" points="26.8 35.06 28.55 33.01 62.23 63.5 26.8 35.06"/>
    </g>
    <g id="_x3C_径向重复_x3E_-60" data-name="_x3C_径向重复_x3E_">
      <polygon class="cls-1" points="32.95 28.61 34.99 26.86 63.49 62.24 32.95 28.61"/>
    </g>
    <g id="_x3C_径向重复_x3E_-61" data-name="_x3C_径向重复_x3E_">
      <polygon class="cls-1" points="40.03 23.2 42.32 21.79 64.93 61.19 40.03 23.2"/>
    </g>
    <g id="_x3C_径向重复_x3E_-62" data-name="_x3C_径向重复_x3E_">
      <polygon class="cls-1" points="47.86 18.96 50.35 17.93 66.51 60.38 47.86 18.96"/>
    </g>
    <g id="_x3C_径向重复_x3E_-63" data-name="_x3C_径向重复_x3E_">
      <polygon class="cls-1" points="56.27 16 58.88 15.37 68.21 59.83 56.27 16"/>
    </g>
    <g id="_x3C_径向重复_x3E_-64" data-name="_x3C_径向重复_x3E_">
      <polygon class="cls-1" points="65.03 14.39 67.71 14.18 69.97 59.55 65.03 14.39"/>
    </g>
    <g id="_x3C_径向重复_x3E_-65" data-name="_x3C_径向重复_x3E_">
      <polygon class="cls-1" points="73.93 14.17 76.61 14.38 71.75 59.55 73.93 14.17"/>
    </g>
    <g id="_x3C_径向重复_x3E_-66" data-name="_x3C_径向重复_x3E_">
      <polygon class="cls-1" points="82.77 15.35 85.38 15.98 73.51 59.83 82.77 15.35"/>
    </g>
    <g id="_x3C_径向重复_x3E_-67" data-name="_x3C_径向重复_x3E_">
      <polygon class="cls-1" points="91.3 17.9 93.79 18.92 75.2 60.37 91.3 17.9"/>
    </g>
    <g id="_x3C_径向重复_x3E_-68" data-name="_x3C_径向重复_x3E_">
      <polygon class="cls-1" points="99.34 21.75 101.63 23.15 76.79 61.18 99.34 21.75"/>
    </g>
    <g id="_x3C_径向重复_x3E_-69" data-name="_x3C_径向重复_x3E_">
      <polygon class="cls-1" points="106.67 26.8 108.72 28.55 78.23 62.23 106.67 26.8"/>
    </g>
    <g id="_x3C_径向重复_x3E_-70" data-name="_x3C_径向重复_x3E_">
      <polygon class="cls-1" points="113.12 32.95 114.87 34.99 79.49 63.49 113.12 32.95"/>
    </g>
    <g id="_x3C_径向重复_x3E_-71" data-name="_x3C_径向重复_x3E_">
      <polygon class="cls-1" points="118.54 40.03 119.94 42.32 80.54 64.93 118.54 40.03"/>
    </g>
    <g id="_x3C_径向重复_x3E_-72" data-name="_x3C_径向重复_x3E_">
      <polygon class="cls-1" points="122.77 47.86 123.8 50.35 81.35 66.51 122.77 47.86"/>
    </g>
    <g id="_x3C_径向重复_x3E_-73" data-name="_x3C_径向重复_x3E_">
      <polygon class="cls-1" points="125.73 56.27 126.36 58.88 81.9 68.21 125.73 56.27"/>
    </g>
    <g id="_x3C_径向重复_x3E_-74" data-name="_x3C_径向重复_x3E_">
      <polygon class="cls-1" points="127.34 65.03 127.55 67.71 82.18 69.97 127.34 65.03"/>
    </g>
    <g id="_x3C_径向重复_x3E_-75" data-name="_x3C_径向重复_x3E_">
      <polygon class="cls-1" points="127.56 73.93 127.35 76.62 82.18 71.75 127.56 73.93"/>
    </g>
    <g id="_x3C_径向重复_x3E_-76" data-name="_x3C_径向重复_x3E_">
      <polygon class="cls-1" points="126.38 82.77 125.76 85.38 81.91 73.51 126.38 82.77"/>
    </g>
    <g id="_x3C_径向重复_x3E_-77" data-name="_x3C_径向重复_x3E_">
      <polygon class="cls-1" points="123.84 91.3 122.81 93.79 81.36 75.2 123.84 91.3"/>
    </g>
    <g id="_x3C_径向重复_x3E_-78" data-name="_x3C_径向重复_x3E_">
      <polygon class="cls-1" points="119.99 99.34 118.58 101.63 80.55 76.79 119.99 99.34"/>
    </g>
    <g id="_x3C_径向重复_x3E_-79" data-name="_x3C_径向重复_x3E_">
      <polygon class="cls-1" points="114.93 106.67 113.18 108.72 79.5 78.23 114.93 106.67"/>
    </g>
    <g id="_x3C_径向重复_x3E_-80" data-name="_x3C_径向重复_x3E_">
      <polygon class="cls-1" points="108.78 113.12 106.74 114.87 78.25 79.49 108.78 113.12"/>
    </g>
  </g>
  <g>
    <g id="_x3C_径向重复_x3E_-81" data-name="_x3C_径向重复_x3E_">
      <polygon class="cls-3" points="71.73 87.69 70 87.69 70.87 116.8 71.73 87.69"/>
    </g>
    <g id="_x3C_径向重复_x3E_-82" data-name="_x3C_径向重复_x3E_">
      <polygon class="cls-3" points="69.09 87.61 67.38 87.34 63.68 116.23 69.09 87.61"/>
    </g>
    <g id="_x3C_径向重复_x3E_-83" data-name="_x3C_径向重复_x3E_">
      <polygon class="cls-3" points="66.49 87.13 64.85 86.6 56.67 114.55 66.49 87.13"/>
    </g>
    <g id="_x3C_径向重复_x3E_-84" data-name="_x3C_径向重复_x3E_">
      <polygon class="cls-3" points="64 86.24 62.46 85.46 50.01 111.79 64 86.24"/>
    </g>
    <g id="_x3C_径向重复_x3E_-85" data-name="_x3C_径向重复_x3E_">
      <polygon class="cls-3" points="61.68 84.98 60.28 83.97 43.87 108.03 61.68 84.98"/>
    </g>
    <g id="_x3C_径向重复_x3E_-86" data-name="_x3C_径向重复_x3E_">
      <polygon class="cls-3" points="59.58 83.37 58.36 82.15 38.39 103.35 59.58 83.37"/>
    </g>
    <g id="_x3C_径向重复_x3E_-87" data-name="_x3C_径向重复_x3E_">
      <polygon class="cls-3" points="57.76 81.45 56.75 80.06 33.7 97.87 57.76 81.45"/>
    </g>
    <g id="_x3C_径向重复_x3E_-88" data-name="_x3C_径向重复_x3E_">
      <polygon class="cls-3" points="56.27 79.27 55.49 77.73 29.94 91.72 56.27 79.27"/>
    </g>
    <g id="_x3C_径向重复_x3E_-89" data-name="_x3C_径向重复_x3E_">
      <polygon class="cls-3" points="55.14 76.88 54.6 75.24 27.18 85.06 55.14 76.88"/>
    </g>
    <g id="_x3C_径向重复_x3E_-90" data-name="_x3C_径向重复_x3E_">
      <polygon class="cls-3" points="54.39 74.35 54.12 72.65 25.5 78.05 54.39 74.35"/>
    </g>
    <g id="_x3C_径向重复_x3E_-91" data-name="_x3C_径向重复_x3E_">
      <polygon class="cls-3" points="54.05 71.73 54.05 70 24.93 70.87 54.05 71.73"/>
    </g>
    <g id="_x3C_径向重复_x3E_-92" data-name="_x3C_径向重复_x3E_">
      <polygon class="cls-3" points="54.12 69.09 54.39 67.38 25.5 63.68 54.12 69.09"/>
    </g>
    <g id="_x3C_径向重复_x3E_-93" data-name="_x3C_径向重复_x3E_">
      <polygon class="cls-3" points="54.6 66.49 55.14 64.85 27.18 56.67 54.6 66.49"/>
    </g>
    <g id="_x3C_径向重复_x3E_-94" data-name="_x3C_径向重复_x3E_">
      <polygon class="cls-3" points="55.49 64 56.27 62.46 29.94 50.01 55.49 64"/>
    </g>
    <g id="_x3C_径向重复_x3E_-95" data-name="_x3C_径向重复_x3E_">
      <polygon class="cls-3" points="56.75 61.68 57.76 60.28 33.7 43.87 56.75 61.68"/>
    </g>
    <g id="_x3C_径向重复_x3E_-96" data-name="_x3C_径向重复_x3E_">
      <polygon class="cls-3" points="58.36 59.58 59.58 58.36 38.39 38.39 58.36 59.58"/>
    </g>
    <g id="_x3C_径向重复_x3E_-97" data-name="_x3C_径向重复_x3E_">
      <polygon class="cls-3" points="60.28 57.76 61.68 56.75 43.87 33.71 60.28 57.76"/>
    </g>
    <g id="_x3C_径向重复_x3E_-98" data-name="_x3C_径向重复_x3E_">
      <polygon class="cls-3" points="62.46 56.27 64 55.49 50.01 29.94 62.46 56.27"/>
    </g>
    <g id="_x3C_径向重复_x3E_-99" data-name="_x3C_径向重复_x3E_">
      <polygon class="cls-3" points="64.85 55.14 66.49 54.6 56.67 27.18 64.85 55.14"/>
    </g>
    <g id="_x3C_径向重复_x3E_-100" data-name="_x3C_径向重复_x3E_">
      <polygon class="cls-3" points="67.38 54.39 69.09 54.12 63.68 25.5 67.38 54.39"/>
    </g>
    <g id="_x3C_径向重复_x3E_-101" data-name="_x3C_径向重复_x3E_">
      <polygon class="cls-3" points="70 54.05 71.73 54.05 70.87 24.93 70 54.05"/>
    </g>
    <g id="_x3C_径向重复_x3E_-102" data-name="_x3C_径向重复_x3E_">
      <polygon class="cls-3" points="72.65 54.12 74.35 54.39 78.05 25.5 72.65 54.12"/>
    </g>
    <g id="_x3C_径向重复_x3E_-103" data-name="_x3C_径向重复_x3E_">
      <polygon class="cls-3" points="75.24 54.6 76.88 55.14 85.06 27.18 75.24 54.6"/>
    </g>
    <g id="_x3C_径向重复_x3E_-104" data-name="_x3C_径向重复_x3E_">
      <polygon class="cls-3" points="77.73 55.49 79.27 56.27 91.72 29.94 77.73 55.49"/>
    </g>
    <g id="_x3C_径向重复_x3E_-105" data-name="_x3C_径向重复_x3E_">
      <polygon class="cls-3" points="80.06 56.75 81.45 57.76 97.87 33.7 80.06 56.75"/>
    </g>
    <g id="_x3C_径向重复_x3E_-106" data-name="_x3C_径向重复_x3E_">
      <polygon class="cls-3" points="82.15 58.36 83.37 59.58 103.35 38.39 82.15 58.36"/>
    </g>
    <g id="_x3C_径向重复_x3E_-107" data-name="_x3C_径向重复_x3E_">
      <polygon class="cls-3" points="83.97 60.28 84.98 61.68 108.03 43.87 83.97 60.28"/>
    </g>
    <g id="_x3C_径向重复_x3E_-108" data-name="_x3C_径向重复_x3E_">
      <polygon class="cls-3" points="85.46 62.46 86.24 64 111.79 50.01 85.46 62.46"/>
    </g>
    <g id="_x3C_径向重复_x3E_-109" data-name="_x3C_径向重复_x3E_">
      <polygon class="cls-3" points="86.6 64.85 87.13 66.49 114.55 56.67 86.6 64.85"/>
    </g>
    <g id="_x3C_径向重复_x3E_-110" data-name="_x3C_径向重复_x3E_">
      <polygon class="cls-3" points="87.35 67.38 87.61 69.09 116.24 63.68 87.35 67.38"/>
    </g>
    <g id="_x3C_径向重复_x3E_-111" data-name="_x3C_径向重复_x3E_">
      <polygon class="cls-3" points="87.69 70 87.69 71.73 116.8 70.87 87.69 70"/>
    </g>
    <g id="_x3C_径向重复_x3E_-112" data-name="_x3C_径向重复_x3E_">
      <polygon class="cls-3" points="87.61 72.65 87.34 74.35 116.23 78.05 87.61 72.65"/>
    </g>
    <g id="_x3C_径向重复_x3E_-113" data-name="_x3C_径向重复_x3E_">
      <polygon class="cls-3" points="87.13 75.24 86.6 76.88 114.55 85.06 87.13 75.24"/>
    </g>
    <g id="_x3C_径向重复_x3E_-114" data-name="_x3C_径向重复_x3E_">
      <polygon class="cls-3" points="86.24 77.73 85.46 79.27 111.79 91.72 86.24 77.73"/>
    </g>
    <g id="_x3C_径向重复_x3E_-115" data-name="_x3C_径向重复_x3E_">
      <polygon class="cls-3" points="84.98 80.06 83.97 81.45 108.03 97.87 84.98 80.06"/>
    </g>
    <g id="_x3C_径向重复_x3E_-116" data-name="_x3C_径向重复_x3E_">
      <polygon class="cls-3" points="83.37 82.15 82.15 83.37 103.35 103.35 83.37 82.15"/>
    </g>
    <g id="_x3C_径向重复_x3E_-117" data-name="_x3C_径向重复_x3E_">
      <polygon class="cls-3" points="81.45 83.97 80.06 84.98 97.87 108.03 81.45 83.97"/>
    </g>
    <g id="_x3C_径向重复_x3E_-118" data-name="_x3C_径向重复_x3E_">
      <polygon class="cls-3" points="79.27 85.46 77.73 86.24 91.72 111.79 79.27 85.46"/>
    </g>
    <g id="_x3C_径向重复_x3E_-119" data-name="_x3C_径向重复_x3E_">
      <polygon class="cls-3" points="76.88 86.6 75.24 87.13 85.06 114.55 76.88 86.6"/>
    </g>
    <g id="_x3C_径向重复_x3E_-120" data-name="_x3C_径向重复_x3E_">
      <polygon class="cls-3" points="74.35 87.35 72.65 87.62 78.05 116.24 74.35 87.35"/>
    </g>
  </g>
</svg>