<?xml version="1.0" encoding="UTF-8"?>
<svg id="_图层_1" data-name="图层_1" xmlns="http://www.w3.org/2000/svg" viewBox="0 0 185.39 130.66">
  <defs>
    <style>
      .cls-1 {
        fill: #cebada;
      }

      .cls-2 {
        fill: #b198c7;
      }

      .cls-3 {
        fill: #8d71b0;
      }

      .cls-4 {
        fill: #5f3791;
      }
    </style>
  </defs>
  <path class="cls-2" d="M149.38,70.59c-.12,1.33-27.59-1.15-27.83.14s26.27,8.87,25.91,10.13c-.36,1.28-26.91-6.17-27.39-4.95s24.18,13.54,23.59,14.72c-.59,1.19-25.3-11.03-26-9.91-.7,1.13,21.26,17.75,20.46,18.81-.8,1.06-22.83-15.48-23.73-14.5s17.63,21.33,16.65,22.22c-.98.89-19.6-19.38-20.67-18.58-1.06.8,13.43,24.18,12.29,24.87-1.13.7-15.72-22.62-16.91-22.03s8.75,26.21,7.51,26.69c-1.23.48-11.26-25.11-12.55-24.75-1.27.36,3.74,27.37,2.43,27.61-1.3.24-6.4-26.75-7.73-26.63s-1.4,27.58-2.74,27.58-1.36-27.46-2.7-27.59c-1.34-.12-6.44,26.86-7.73,26.62-1.32-.24,3.66-27.25,2.39-27.61-1.29-.36-11.28,25.22-12.51,24.75-1.25-.48,8.66-26.1,7.47-26.69-1.19-.59-15.77,22.71-16.89,22.01-1.13-.7,13.35-24.06,12.3-24.85-1.06-.8-19.69,19.43-20.67,18.54-.98-.89,17.56-21.2,16.67-22.18-.9-.98-22.93,15.51-23.73,14.45-.8-1.06,21.16-17.65,20.46-18.77-.7-1.12-25.4,11.07-25.99,9.89-.59-1.18,24.05-13.48,23.57-14.71-.48-1.23-27.01,6.23-27.38,4.95s26.14-8.82,25.9-10.12c-.24-1.29-27.71,1.15-27.83-.18s27.33-3.85,27.34-5.18c0-1.31-27.45-3.93-27.33-5.26.12-1.33,27.59,1.15,27.83-.14.24-1.31-26.27-8.87-25.91-10.13.36-1.28,26.91,6.17,27.39,4.95.48-1.24-24.18-13.54-23.59-14.72.59-1.19,25.3,11.03,26,9.91s-21.26-17.75-20.46-18.81,22.83,15.48,23.73,14.5c.9-.98-17.63-21.33-16.65-22.22.98-.89,19.6,19.38,20.67,18.58s-13.43-24.18-12.29-24.87,15.72,22.62,16.91,22.03-8.75-26.21-7.51-26.69c1.23-.48,11.26,25.11,12.55,24.75,1.27-.36-3.74-27.37-2.43-27.61,1.3-.24,6.4,26.75,7.73,26.63,1.31-.12,1.4-27.58,2.74-27.58,1.32,0,1.36,27.46,2.7,27.59s6.44-26.86,7.73-26.62c1.32.24-3.66,27.25-2.39,27.61,1.29.36,11.28-25.22,12.51-24.75s-8.66,26.1-7.47,26.69c1.19.59,15.77-22.71,16.89-22.01,1.13.7-13.35,24.06-12.3,24.85,1.06.8,19.69-19.43,20.67-18.54.98.89-17.56,21.2-16.67,22.18.9.98,22.93-15.51,23.73-14.45.8,1.06-21.16,17.65-20.46,18.77s25.4-11.07,25.99-9.89-24.05,13.48-23.57,14.71,27.01-6.23,27.38-4.95c.36,1.27-26.14,8.82-25.9,10.12s27.71-1.15,27.83.18-27.33,3.85-27.34,5.18c0,1.31,27.45,3.93,27.33,5.26Z"/>
  <path class="cls-1" d="M129.71,31.7c.92,1.02-7.18,9.5-6.37,10.58.83,1.1,11.21-4.36,11.92-3.21.72,1.17-8.8,8.02-8.2,9.23.61,1.23,11.82-2.22,12.31-.95.49,1.27-10.13,6.24-9.77,7.55.37,1.31,12.03,0,12.27,1.34.25,1.34-11.11,4.27-10.99,5.62.12,1.36,11.82,2.21,11.82,3.57,0,1.36-11.71,2.16-11.83,3.52-.13,1.35,11.22,4.33,10.97,5.66-.25,1.34-11.9-.02-12.28,1.29-.37,1.31,10.24,6.31,9.74,7.58-.49,1.26-11.69-2.21-12.31-.99-.61,1.21,8.9,8.09,8.18,9.25-.71,1.15-11.08-4.34-11.91-3.25-.82,1.08,7.25,9.59,6.33,10.6-.91.99-10.1-6.3-11.11-5.38-1.02.92,5.37,10.76,4.29,11.58-1.1.83-8.8-8.02-9.95-7.31-1.17.72,3.3,11.57,2.09,12.17-1.23.61-7.16-9.51-8.42-9.02-1.27.49,1.11,11.98-.19,12.34-1.31.37-5.28-10.67-6.61-10.42-1.34.25-1.11,11.97-2.46,12.1-1.36.12-3.23-11.46-4.59-11.46-1.36,0-3.28,11.57-4.63,11.44-1.35-.13-1.08-11.85-2.42-12.11-1.34-.25-5.34,10.78-6.65,10.4-1.31-.37,1.12-11.85-.16-12.34-1.26-.49-7.23,9.61-8.45,9-1.21-.61,3.29-11.44,2.13-12.16-1.15-.71-8.88,8.11-9.97,7.28-1.08-.82,5.35-10.63,4.34-11.56-.99-.91-10.21,6.34-11.14,5.33-.92-1.02,7.18-9.5,6.37-10.58-.83-1.1-11.21,4.36-11.92,3.21-.72-1.17,8.8-8.02,8.2-9.23-.61-1.23-11.82,2.22-12.31.95-.49-1.27,10.13-6.24,9.77-7.55-.37-1.31-12.03,0-12.27-1.34-.25-1.34,11.11-4.27,10.99-5.62-.12-1.36-11.82-2.21-11.82-3.57,0-1.36,11.71-2.16,11.83-3.52.13-1.35-11.22-4.33-10.97-5.66.25-1.34,11.9.02,12.28-1.29.37-1.31-10.24-6.31-9.74-7.58.49-1.26,11.69,2.21,12.31.99.61-1.21-8.9-8.09-8.18-9.25s11.08,4.34,11.91,3.25c.82-1.08-7.25-9.59-6.33-10.6.91-.99,10.1,6.3,11.11,5.38s-5.37-10.76-4.29-11.58,8.8,8.02,9.95,7.31c1.17-.72-3.3-11.57-2.09-12.17,1.23-.61,7.16,9.51,8.42,9.02,1.27-.49-1.11-11.98.19-12.34,1.31-.37,5.28,10.67,6.61,10.42,1.34-.25,1.11-11.97,2.46-12.1,1.36-.12,3.23,11.46,4.59,11.46,1.36,0,3.28-11.57,4.63-11.44s1.08,11.85,2.42,12.11c1.34.25,5.34-10.78,6.65-10.4,1.31.37-1.12,11.85.16,12.34,1.26.49,7.23-9.61,8.45-9,1.21.61-3.29,11.44-2.13,12.16,1.15.71,8.88-8.11,9.97-7.28,1.08.82-5.35,10.63-4.34,11.56.99.91,10.21-6.34,11.14-5.33Z"/>
  <path class="cls-4" d="M137.54,65.33c0,1.06-21.72,1.11-21.82,2.15s21.25,5.06,21.06,6.08c-.19,1.04-21.56-2.89-21.84-1.89s19.95,8.9,19.58,9.87c-.38.98-20.65-6.84-21.11-5.9s17.97,12.43,17.42,13.32c-.55.89-19.04-10.52-19.67-9.69-.63.84,15.38,15.51,14.68,16.29-.71.77-16.79-13.83-17.56-13.12-.77.71,12.29,18.06,11.46,18.69-.83.63-13.97-16.67-14.87-16.11-.89.55,8.77,20.01,7.83,20.48-.93.47-10.67-18.96-11.65-18.58-.97.38,4.93,21.28,3.92,21.57s-6.97-20.6-8.01-20.41c-1.02.19.91,21.83-.14,21.92s-3.07-21.53-4.13-21.53c-1.06,0-3.09,21.63-4.13,21.53-1.05-.1.88-21.73-.14-21.92-1.04-.19-7.01,20.69-8.01,20.41s4.89-21.2,3.92-21.57c-.98-.38-10.71,19.04-11.65,18.58-.94-.47,8.72-19.93,7.83-20.48-.89-.55-14.03,16.74-14.87,16.11s12.23-17.99,11.46-18.69-16.86,13.9-17.56,13.12c-.71-.77,15.31-15.45,14.68-16.28-.63-.83-19.11,10.58-19.67,9.69s17.89-12.38,17.42-13.32-20.73,6.88-21.11,5.9,19.86-8.86,19.58-9.87c-.28-1-21.65,2.93-21.84,1.89-.19-1.02,21.16-5.03,21.06-6.08-.09-1.03-21.82-1.09-21.82-2.15s21.72-1.11,21.82-2.15-21.25-5.06-21.06-6.08c.19-1.04,21.56,2.89,21.84,1.89.29-1.01-19.95-8.9-19.58-9.87.38-.98,20.65,6.84,21.11,5.9.47-.94-17.97-12.43-17.42-13.32s19.04,10.52,19.67,9.69c.63-.84-15.38-15.51-14.68-16.29s16.79,13.83,17.56,13.12c.77-.71-12.29-18.06-11.46-18.69.83-.63,13.97,16.67,14.87,16.11s-8.77-20.01-7.83-20.48,10.67,18.96,11.65,18.58c.97-.38-4.93-21.28-3.92-21.57,1-.28,6.97,20.6,8.01,20.41s-.91-21.83.14-21.92,3.07,21.53,4.13,21.53,3.09-21.63,4.13-21.53-.88,21.73.14,21.92c1.04.19,7.01-20.69,8.01-20.41,1.01.29-4.89,21.2-3.92,21.57s10.71-19.04,11.65-18.58-8.72,19.93-7.83,20.48,14.03-16.74,14.87-16.11-12.23,17.99-11.46,18.69c.77.71,16.86-13.9,17.56-13.12s-15.31,15.45-14.68,16.28,19.11-10.58,19.67-9.69-17.89,12.38-17.42,13.32c.47.93,20.73-6.88,21.11-5.9.38.97-19.86,8.86-19.58,9.87.28,1,21.65-2.93,21.84-1.89.19,1.02-21.16,5.03-21.06,6.08.09,1.03,21.82,1.09,21.82,2.15Z"/>
  <path class="cls-3" d="M103.27,53.77c.32.29-1.96,3.17-1.68,3.48s3.37-1.68,3.62-1.35-2.51,2.75-2.29,3.12,3.62-1.03,3.81-.65-2.98,2.24-2.83,2.64,3.75-.35,3.87.06-3.34,1.65-3.26,2.07,3.75.35,3.79.77-3.59,1.01-3.59,1.44,3.62,1.02,3.59,1.45-3.71.34-3.79.76,3.38,1.67,3.26,2.08-3.71-.35-3.87.05,3.01,2.26,2.82,2.65c-.19.38-3.58-1.03-3.81-.67s2.54,2.78,2.28,3.12-3.33-1.67-3.62-1.36,1.99,3.2,1.67,3.49-2.98-2.25-3.31-1.99,1.37,3.51,1.01,3.73-2.51-2.76-2.89-2.57.69,3.7.3,3.86-1.96-3.18-2.36-3.06,0,3.77-.42,3.84-1.34-3.48-1.76-3.44-.69,3.7-1.11,3.7-.68-3.67-1.1-3.71-1.35,3.52-1.77,3.44,0-3.73-.41-3.85-1.98,3.21-2.37,3.05c-.4-.15.69-3.66.31-3.85s-2.53,2.79-2.9,2.56,1.36-3.47,1.02-3.73-3,2.27-3.32,1.98,1.96-3.17,1.68-3.48-3.37,1.68-3.62,1.35,2.51-2.75,2.29-3.12-3.62,1.03-3.81.65,2.98-2.24,2.83-2.64-3.75.35-3.87-.06,3.34-1.65,3.26-2.07-3.75-.35-3.79-.77,3.59-1.01,3.59-1.44-3.62-1.02-3.59-1.45,3.71-.34,3.79-.76-3.38-1.67-3.26-2.08,3.71.35,3.87-.05-3.01-2.26-2.82-2.65,3.58,1.03,3.81.67-2.54-2.78-2.28-3.12,3.33,1.67,3.62,1.36-1.99-3.2-1.67-3.49c.32-.29,2.98,2.25,3.31,1.99s-1.37-3.51-1.01-3.73,2.51,2.76,2.89,2.57-.69-3.7-.3-3.86,1.96,3.18,2.36,3.06,0-3.77.42-3.84,1.34,3.48,1.76,3.44.69-3.7,1.11-3.7.68,3.67,1.1,3.71,1.35-3.52,1.77-3.44,0,3.73.41,3.85,1.98-3.21,2.37-3.05-.69,3.66-.31,3.85,2.53-2.79,2.9-2.56-1.36,3.47-1.02,3.73,3-2.27,3.32-1.98Z"/>
</svg>