<?xml version="1.0" encoding="UTF-8"?>
<svg id="_图层_1" data-name="图层_1" xmlns="http://www.w3.org/2000/svg" viewBox="0 0 141.73 141.73">
  <defs>
    <style>
      .cls-1 {
        fill: #f8ca78;
      }

      .cls-2 {
        fill: #e9562a;
      }

      .cls-3 {
        fill: #ef8026;
      }
    </style>
  </defs>
  <g>
    <g id="_x3C_径向重复_x3E_">
      <path class="cls-3" d="M61.08,80.65c-.33-.33-.3-.89.07-1.18.74-.58,1.48-1.16,2.22-1.73.82-.64,1.63-1.28,2.45-1.92.02-.02.06-.02.08,0,.02.02.03.05,0,.08l-3.65,4.67c-.29.37-.84.41-1.18.07Z"/>
    </g>
    <g id="_x3C_径向重复_x3E_-2" data-name="_x3C_径向重复_x3E_">
      <path class="cls-3" d="M58.54,77.15c-.21-.42-.01-.94.43-1.1.88-.32,1.77-.64,2.65-.96.97-.35,1.95-.71,2.92-1.06.03-.01.06,0,.07.03.01.02,0,.06-.02.08l-4.92,3.32c-.39.26-.93.13-1.14-.3Z"/>
    </g>
    <g id="_x3C_径向重复_x3E_-3" data-name="_x3C_径向重复_x3E_">
      <path class="cls-3" d="M57.2,73.03c-.07-.47.28-.89.75-.91.94-.03,1.88-.07,2.82-.1,1.04-.04,2.07-.07,3.11-.11.03,0,.06.02.06.05,0,.03,0,.06-.04.07l-5.7,1.63c-.46.13-.92-.17-1-.63Z"/>
    </g>
    <g id="_x3C_径向重复_x3E_-4" data-name="_x3C_径向重复_x3E_">
      <path class="cls-3" d="M57.2,68.7c.07-.47.54-.77,1-.63.9.26,1.81.52,2.71.78,1,.29,1.99.57,2.99.86.03,0,.05.04.04.07,0,.03-.03.05-.06.05l-5.93-.21c-.47-.02-.83-.44-.75-.91Z"/>
    </g>
    <g id="_x3C_径向重复_x3E_-5" data-name="_x3C_径向重复_x3E_">
      <path class="cls-3" d="M58.54,64.59c.21-.42.75-.56,1.14-.3.78.53,1.56,1.05,2.34,1.58.86.58,1.72,1.16,2.58,1.74.03.02.03.05.02.08-.01.02-.04.04-.07.03l-5.57-2.03c-.44-.16-.65-.68-.43-1.1Z"/>
    </g>
    <g id="_x3C_径向重复_x3E_-6" data-name="_x3C_径向重复_x3E_">
      <path class="cls-3" d="M61.08,61.08c.33-.33.89-.3,1.18.07.58.74,1.16,1.48,1.73,2.22.64.82,1.28,1.63,1.92,2.45.02.02.02.06,0,.08-.02.02-.05.03-.08,0l-4.67-3.65c-.37-.29-.41-.84-.07-1.18Z"/>
    </g>
    <g id="_x3C_径向重复_x3E_-7" data-name="_x3C_径向重复_x3E_">
      <path class="cls-3" d="M64.59,58.54c.42-.21.94-.01,1.1.43.32.88.64,1.77.96,2.65.35.97.71,1.95,1.06,2.92.01.03,0,.06-.03.07-.02.01-.06,0-.08-.02l-3.32-4.92c-.26-.39-.13-.93.3-1.14Z"/>
    </g>
    <g id="_x3C_径向重复_x3E_-8" data-name="_x3C_径向重复_x3E_">
      <path class="cls-3" d="M68.7,57.2c.47-.07.89.28.91.75.03.94.07,1.88.1,2.82.04,1.04.07,2.07.11,3.11,0,.03-.02.06-.05.06-.03,0-.06,0-.07-.04l-1.63-5.7c-.13-.46.17-.92.63-1Z"/>
    </g>
    <g id="_x3C_径向重复_x3E_-9" data-name="_x3C_径向重复_x3E_">
      <path class="cls-3" d="M73.03,57.2c.47.07.77.54.63,1-.26.9-.52,1.81-.78,2.71-.29,1-.57,1.99-.86,2.99,0,.03-.04.05-.07.04-.03,0-.05-.03-.05-.06l.21-5.93c.02-.47.44-.83.91-.75Z"/>
    </g>
    <g id="_x3C_径向重复_x3E_-10" data-name="_x3C_径向重复_x3E_">
      <path class="cls-3" d="M77.15,58.54c.42.21.56.75.3,1.14-.53.78-1.05,1.56-1.58,2.34-.58.86-1.16,1.72-1.74,2.58-.02.03-.05.03-.08.02-.02-.01-.04-.04-.03-.07l2.03-5.57c.16-.44.68-.65,1.1-.43Z"/>
    </g>
    <g id="_x3C_径向重复_x3E_-11" data-name="_x3C_径向重复_x3E_">
      <path class="cls-3" d="M80.65,61.08c.33.33.3.89-.07,1.18-.74.58-1.48,1.16-2.22,1.73-.82.64-1.63,1.28-2.45,1.92-.02.02-.06.02-.08,0-.02-.02-.03-.05,0-.08l3.65-4.67c.29-.37.84-.41,1.18-.07Z"/>
    </g>
    <g id="_x3C_径向重复_x3E_-12" data-name="_x3C_径向重复_x3E_">
      <path class="cls-3" d="M83.19,64.59c.21.42.01.94-.43,1.1-.88.32-1.77.64-2.65.96-.97.35-1.95.71-2.92,1.06-.03.01-.06,0-.07-.03-.01-.02,0-.06.02-.08l4.92-3.32c.39-.26.93-.13,1.14.3Z"/>
    </g>
    <g id="_x3C_径向重复_x3E_-13" data-name="_x3C_径向重复_x3E_">
      <path class="cls-3" d="M84.53,68.7c.07.47-.28.89-.75.91-.94.03-1.88.07-2.82.1-1.04.04-2.07.07-3.11.11-.03,0-.06-.02-.06-.05,0-.03,0-.06.04-.07l5.7-1.63c.46-.13.92.17,1,.63Z"/>
    </g>
    <g id="_x3C_径向重复_x3E_-14" data-name="_x3C_径向重复_x3E_">
      <path class="cls-3" d="M84.53,73.03c-.07.47-.54.77-1,.63-.9-.26-1.81-.52-2.71-.78-1-.29-1.99-.57-2.99-.86-.03,0-.05-.04-.04-.07,0-.03.03-.05.06-.05l5.93.21c.47.02.83.44.75.91Z"/>
    </g>
    <g id="_x3C_径向重复_x3E_-15" data-name="_x3C_径向重复_x3E_">
      <path class="cls-3" d="M83.19,77.15c-.21.42-.75.56-1.14.3-.78-.53-1.56-1.05-2.34-1.58-.86-.58-1.72-1.16-2.58-1.74-.03-.02-.03-.05-.02-.08.01-.02.04-.04.07-.03l5.57,2.03c.44.16.65.68.43,1.1Z"/>
    </g>
    <g id="_x3C_径向重复_x3E_-16" data-name="_x3C_径向重复_x3E_">
      <path class="cls-3" d="M80.65,80.65c-.33.33-.89.3-1.18-.07-.58-.74-1.16-1.48-1.73-2.22-.64-.82-1.28-1.63-1.92-2.45-.02-.02-.02-.06,0-.08.02-.02.05-.03.08,0l4.67,3.65c.37.29.41.84.07,1.18Z"/>
    </g>
    <g id="_x3C_径向重复_x3E_-17" data-name="_x3C_径向重复_x3E_">
      <path class="cls-3" d="M77.15,83.19c-.42.21-.94.01-1.1-.43-.32-.88-.64-1.77-.96-2.65-.35-.97-.71-1.95-1.06-2.92-.01-.03,0-.06.03-.07.02-.01.06,0,.08.02l3.32,4.92c.26.39.13.93-.3,1.14Z"/>
    </g>
    <g id="_x3C_径向重复_x3E_-18" data-name="_x3C_径向重复_x3E_">
      <path class="cls-3" d="M73.03,84.53c-.47.07-.89-.28-.91-.75-.03-.94-.07-1.88-.1-2.82-.04-1.04-.07-2.07-.11-3.11,0-.03.02-.06.05-.06.03,0,.06,0,.07.04l1.63,5.7c.13.46-.17.92-.63,1Z"/>
    </g>
    <g id="_x3C_径向重复_x3E_-19" data-name="_x3C_径向重复_x3E_">
      <path class="cls-3" d="M68.7,84.53c-.47-.07-.77-.54-.63-1,.26-.9.52-1.81.78-2.71.29-1,.57-1.99.86-2.99,0-.03.04-.05.07-.04.03,0,.05.03.05.06l-.21,5.93c-.02.47-.44.83-.91.75Z"/>
    </g>
    <g id="_x3C_径向重复_x3E_-20" data-name="_x3C_径向重复_x3E_">
      <path class="cls-3" d="M64.59,83.19c-.42-.21-.56-.75-.3-1.14.53-.78,1.05-1.56,1.58-2.34.58-.86,1.16-1.72,1.74-2.58.02-.03.05-.03.08-.02.02.01.04.04.03.07l-2.03,5.57c-.16.44-.68.65-1.1.43Z"/>
    </g>
  </g>
  <g>
    <g id="_x3C_径向重复_x3E_-21" data-name="_x3C_径向重复_x3E_">
      <path class="cls-1" d="M41.95,99.78c-.99-.99-.89-2.62.21-3.48,2.19-1.71,4.38-3.42,6.56-5.13,2.42-1.89,4.83-3.78,7.25-5.66.07-.06.17-.05.24.01.06.06.08.15.01.24l-10.79,13.81c-.86,1.1-2.49,1.2-3.48.21Z"/>
    </g>
    <g id="_x3C_径向重复_x3E_-22" data-name="_x3C_径向重复_x3E_">
      <path class="cls-1" d="M34.43,89.43c-.64-1.25-.04-2.77,1.28-3.25,2.61-.95,5.22-1.9,7.83-2.85,2.88-1.05,5.76-2.1,8.64-3.15.08-.03.18,0,.22.09.04.07.03.17-.06.23l-14.53,9.8c-1.16.78-2.74.37-3.38-.87Z"/>
    </g>
    <g id="_x3C_径向重复_x3E_-23" data-name="_x3C_径向重复_x3E_">
      <path class="cls-1" d="M30.48,77.26c-.22-1.38.82-2.64,2.22-2.69,2.77-.1,5.55-.19,8.32-.29,3.06-.11,6.13-.21,9.19-.32.09,0,.17.06.18.15.01.08-.03.17-.13.2l-16.85,4.83c-1.35.39-2.72-.49-2.94-1.88Z"/>
    </g>
    <g id="_x3C_径向重复_x3E_-24" data-name="_x3C_径向重复_x3E_">
      <path class="cls-1" d="M30.48,64.47c.22-1.38,1.6-2.26,2.94-1.88,2.67.77,5.34,1.53,8.01,2.3,2.95.84,5.89,1.69,8.84,2.53.09.02.14.11.13.2-.01.08-.08.15-.18.15l-17.52-.61c-1.4-.05-2.44-1.31-2.22-2.69Z"/>
    </g>
    <g id="_x3C_径向重复_x3E_-25" data-name="_x3C_径向重复_x3E_">
      <path class="cls-1" d="M34.43,52.3c.64-1.25,2.22-1.66,3.38-.87,2.3,1.55,4.6,3.1,6.9,4.66,2.54,1.71,5.08,3.43,7.63,5.14.07.05.1.15.06.23-.04.07-.12.12-.22.09l-16.47-6c-1.32-.48-1.91-2-1.28-3.25Z"/>
    </g>
    <g id="_x3C_径向重复_x3E_-26" data-name="_x3C_径向重复_x3E_">
      <path class="cls-1" d="M41.95,41.95c.99-.99,2.62-.89,3.48.21,1.71,2.19,3.42,4.38,5.13,6.56,1.89,2.42,3.78,4.83,5.66,7.25.06.07.05.17-.01.24-.06.06-.15.08-.24.01l-13.81-10.79c-1.1-.86-1.2-2.49-.21-3.48Z"/>
    </g>
    <g id="_x3C_径向重复_x3E_-27" data-name="_x3C_径向重复_x3E_">
      <path class="cls-1" d="M52.3,34.43c1.25-.64,2.77-.04,3.25,1.28.95,2.61,1.9,5.22,2.85,7.83,1.05,2.88,2.1,5.76,3.15,8.64.03.08,0,.18-.09.22-.07.04-.17.03-.23-.06l-9.8-14.53c-.78-1.16-.37-2.74.87-3.38Z"/>
    </g>
    <g id="_x3C_径向重复_x3E_-28" data-name="_x3C_径向重复_x3E_">
      <path class="cls-1" d="M64.47,30.48c1.38-.22,2.64.82,2.69,2.22.1,2.77.19,5.55.29,8.32.11,3.06.21,6.13.32,9.19,0,.09-.06.17-.15.18-.08.01-.17-.03-.2-.13l-4.83-16.85c-.39-1.35.49-2.72,1.88-2.94Z"/>
    </g>
    <g id="_x3C_径向重复_x3E_-29" data-name="_x3C_径向重复_x3E_">
      <path class="cls-1" d="M77.26,30.48c1.38.22,2.26,1.6,1.88,2.94-.77,2.67-1.53,5.34-2.3,8.01-.84,2.95-1.69,5.89-2.53,8.84-.02.09-.11.14-.2.13-.08-.01-.15-.08-.15-.18l.61-17.52c.05-1.4,1.31-2.44,2.69-2.22Z"/>
    </g>
    <g id="_x3C_径向重复_x3E_-30" data-name="_x3C_径向重复_x3E_">
      <path class="cls-1" d="M89.43,34.43c1.25.64,1.66,2.22.87,3.38-1.55,2.3-3.1,4.6-4.66,6.9-1.71,2.54-3.43,5.08-5.14,7.63-.05.07-.15.1-.23.06-.07-.04-.12-.12-.09-.22l6-16.47c.48-1.32,2-1.91,3.25-1.28Z"/>
    </g>
    <g id="_x3C_径向重复_x3E_-31" data-name="_x3C_径向重复_x3E_">
      <path class="cls-1" d="M99.78,41.95c.99.99.89,2.62-.21,3.48-2.19,1.71-4.38,3.42-6.56,5.13-2.42,1.89-4.83,3.78-7.25,5.66-.07.06-.17.05-.24-.01-.06-.06-.08-.15-.01-.24l10.79-13.81c.86-1.1,2.49-1.2,3.48-.21Z"/>
    </g>
    <g id="_x3C_径向重复_x3E_-32" data-name="_x3C_径向重复_x3E_">
      <path class="cls-1" d="M107.3,52.3c.64,1.25.04,2.77-1.28,3.25-2.61.95-5.22,1.9-7.83,2.85-2.88,1.05-5.76,2.1-8.64,3.15-.08.03-.18,0-.22-.09-.04-.07-.03-.17.06-.23l14.53-9.8c1.16-.78,2.74-.37,3.38.87Z"/>
    </g>
    <g id="_x3C_径向重复_x3E_-33" data-name="_x3C_径向重复_x3E_">
      <path class="cls-1" d="M111.25,64.47c.22,1.38-.82,2.64-2.22,2.69-2.77.1-5.55.19-8.32.29-3.06.11-6.13.21-9.19.32-.09,0-.17-.06-.18-.15-.01-.08.03-.17.13-.2l16.85-4.83c1.35-.39,2.72.49,2.94,1.88Z"/>
    </g>
    <g id="_x3C_径向重复_x3E_-34" data-name="_x3C_径向重复_x3E_">
      <path class="cls-1" d="M111.25,77.26c-.22,1.38-1.6,2.26-2.94,1.88-2.67-.77-5.34-1.53-8.01-2.3-2.95-.84-5.89-1.69-8.84-2.53-.09-.02-.14-.11-.13-.2.01-.08.08-.15.18-.15l17.52.61c1.4.05,2.44,1.31,2.22,2.69Z"/>
    </g>
    <g id="_x3C_径向重复_x3E_-35" data-name="_x3C_径向重复_x3E_">
      <path class="cls-1" d="M107.3,89.43c-.64,1.25-2.22,1.66-3.38.87-2.3-1.55-4.6-3.1-6.9-4.66-2.54-1.71-5.08-3.43-7.63-5.14-.07-.05-.1-.15-.06-.23.04-.07.12-.12.22-.09l16.47,6c1.32.48,1.91,2,1.28,3.25Z"/>
    </g>
    <g id="_x3C_径向重复_x3E_-36" data-name="_x3C_径向重复_x3E_">
      <path class="cls-1" d="M99.78,99.78c-.99.99-2.62.89-3.48-.21-1.71-2.19-3.42-4.38-5.13-6.56-1.89-2.42-3.78-4.83-5.66-7.25-.06-.07-.05-.17.01-.24.06-.06.15-.08.24-.01l13.81,10.79c1.1.86,1.2,2.49.21,3.48Z"/>
    </g>
    <g id="_x3C_径向重复_x3E_-37" data-name="_x3C_径向重复_x3E_">
      <path class="cls-1" d="M89.43,107.3c-1.25.64-2.77.04-3.25-1.28-.95-2.61-1.9-5.22-2.85-7.83-1.05-2.88-2.1-5.76-3.15-8.64-.03-.08,0-.18.09-.22.07-.04.17-.03.23.06l9.8,14.53c.78,1.16.37,2.74-.87,3.38Z"/>
    </g>
    <g id="_x3C_径向重复_x3E_-38" data-name="_x3C_径向重复_x3E_">
      <path class="cls-1" d="M77.26,111.25c-1.38.22-2.64-.82-2.69-2.22-.1-2.77-.19-5.55-.29-8.32-.11-3.06-.21-6.13-.32-9.19,0-.09.06-.17.15-.18.08-.01.17.03.2.13l4.83,16.85c.39,1.35-.49,2.72-1.88,2.94Z"/>
    </g>
    <g id="_x3C_径向重复_x3E_-39" data-name="_x3C_径向重复_x3E_">
      <path class="cls-1" d="M64.47,111.25c-1.38-.22-2.26-1.6-1.88-2.94.77-2.67,1.53-5.34,2.3-8.01.84-2.95,1.69-5.89,2.53-8.84.02-.09.11-.14.2-.13.08.01.15.08.15.18l-.61,17.52c-.05,1.4-1.31,2.44-2.69,2.22Z"/>
    </g>
    <g id="_x3C_径向重复_x3E_-40" data-name="_x3C_径向重复_x3E_">
      <path class="cls-1" d="M52.3,107.3c-1.25-.64-1.66-2.22-.87-3.38,1.55-2.3,3.1-4.6,4.66-6.9,1.71-2.54,3.43-5.08,5.14-7.63.05-.07.15-.1.23-.06.07.04.12.12.09.22l-6,16.47c-.48,1.32-2,1.91-3.25,1.28Z"/>
    </g>
  </g>
  <g>
    <g id="_x3C_径向重复_x3E_-41" data-name="_x3C_径向重复_x3E_">
      <polygon class="cls-2" points="69.52 127.56 70.87 88.19 72.21 127.56 69.52 127.56"/>
    </g>
    <g id="_x3C_径向重复_x3E_-42" data-name="_x3C_径向重复_x3E_">
      <polygon class="cls-2" points="52.07 124.37 65.51 87.34 54.62 125.2 52.07 124.37"/>
    </g>
    <g id="_x3C_径向重复_x3E_-43" data-name="_x3C_径向重复_x3E_">
      <polygon class="cls-2" points="36.46 115.94 60.68 84.88 38.63 117.52 36.46 115.94"/>
    </g>
    <g id="_x3C_径向重复_x3E_-44" data-name="_x3C_径向重复_x3E_">
      <polygon class="cls-2" points="24.21 103.1 56.85 81.05 25.79 105.28 24.21 103.1"/>
    </g>
    <g id="_x3C_径向重复_x3E_-45" data-name="_x3C_径向重复_x3E_">
      <polygon class="cls-2" points="16.53 87.11 54.39 76.22 17.36 89.66 16.53 87.11"/>
    </g>
    <g id="_x3C_径向重复_x3E_-46" data-name="_x3C_径向重复_x3E_">
      <polygon class="cls-2" points="14.17 69.52 53.54 70.87 14.17 72.21 14.17 69.52"/>
    </g>
    <g id="_x3C_径向重复_x3E_-47" data-name="_x3C_径向重复_x3E_">
      <polygon class="cls-2" points="17.36 52.07 54.39 65.51 16.53 54.62 17.36 52.07"/>
    </g>
    <g id="_x3C_径向重复_x3E_-48" data-name="_x3C_径向重复_x3E_">
      <polygon class="cls-2" points="25.79 36.45 56.85 60.68 24.21 38.63 25.79 36.45"/>
    </g>
    <g id="_x3C_径向重复_x3E_-49" data-name="_x3C_径向重复_x3E_">
      <polygon class="cls-2" points="38.63 24.21 60.68 56.85 36.46 25.79 38.63 24.21"/>
    </g>
    <g id="_x3C_径向重复_x3E_-50" data-name="_x3C_径向重复_x3E_">
      <polygon class="cls-2" points="54.63 16.53 65.51 54.39 52.07 17.36 54.63 16.53"/>
    </g>
    <g id="_x3C_径向重复_x3E_-51" data-name="_x3C_径向重复_x3E_">
      <polygon class="cls-2" points="72.21 14.17 70.87 53.54 69.52 14.17 72.21 14.17"/>
    </g>
    <g id="_x3C_径向重复_x3E_-52" data-name="_x3C_径向重复_x3E_">
      <polygon class="cls-2" points="89.66 17.36 76.22 54.39 87.11 16.53 89.66 17.36"/>
    </g>
    <g id="_x3C_径向重复_x3E_-53" data-name="_x3C_径向重复_x3E_">
      <polygon class="cls-2" points="105.28 25.79 81.05 56.85 103.1 24.21 105.28 25.79"/>
    </g>
    <g id="_x3C_径向重复_x3E_-54" data-name="_x3C_径向重复_x3E_">
      <polygon class="cls-2" points="117.52 38.63 84.88 60.68 115.94 36.46 117.52 38.63"/>
    </g>
    <g id="_x3C_径向重复_x3E_-55" data-name="_x3C_径向重复_x3E_">
      <polygon class="cls-2" points="125.2 54.63 87.34 65.51 124.37 52.07 125.2 54.63"/>
    </g>
    <g id="_x3C_径向重复_x3E_-56" data-name="_x3C_径向重复_x3E_">
      <polygon class="cls-2" points="127.56 72.21 88.19 70.87 127.56 69.52 127.56 72.21"/>
    </g>
    <g id="_x3C_径向重复_x3E_-57" data-name="_x3C_径向重复_x3E_">
      <polygon class="cls-2" points="124.37 89.66 87.34 76.22 125.2 87.11 124.37 89.66"/>
    </g>
    <g id="_x3C_径向重复_x3E_-58" data-name="_x3C_径向重复_x3E_">
      <polygon class="cls-2" points="115.94 105.28 84.88 81.05 117.52 103.1 115.94 105.28"/>
    </g>
    <g id="_x3C_径向重复_x3E_-59" data-name="_x3C_径向重复_x3E_">
      <polygon class="cls-2" points="103.1 117.52 81.05 84.88 105.28 115.94 103.1 117.52"/>
    </g>
    <g id="_x3C_径向重复_x3E_-60" data-name="_x3C_径向重复_x3E_">
      <polygon class="cls-2" points="87.11 125.2 76.22 87.34 89.66 124.37 87.11 125.2"/>
    </g>
  </g>
</svg>