<?xml version="1.0" encoding="UTF-8"?>
<svg id="_图层_1" data-name="图层_1" xmlns="http://www.w3.org/2000/svg" viewBox="0 0 141.73 141.73">
  <defs>
    <style>
      .cls-1 {
        fill: #71b92b;
      }

      .cls-2 {
        fill: #d3da7e;
      }

      .cls-3 {
        fill: #98c734;
      }
    </style>
  </defs>
  <g>
    <ellipse class="cls-3" cx="70.87" cy="115.21" rx="2.3" ry="11.72"/>
    <ellipse class="cls-3" cx="55.09" cy="112.24" rx="11.72" ry="2.3" transform="translate(-69.46 123.25) rotate(-68.91)"/>
    <ellipse class="cls-3" cx="41.44" cy="103.76" rx="11.7" ry="2.31" transform="translate(-63.24 64.72) rotate(-47.78)"/>
    <ellipse class="cls-3" cx="31.77" cy="90.89" rx="11.68" ry="2.31" transform="translate(-37.31 23.81) rotate(-26.57)"/>
    <ellipse class="cls-3" cx="27.37" cy="75.39" rx="11.67" ry="2.31" transform="translate(-6.87 2.86) rotate(-5.32)"/>
    <ellipse class="cls-3" cx="28.85" cy="59.34" rx="2.31" ry="11.68" transform="translate(-36.13 70.77) rotate(-74.05)"/>
    <ellipse class="cls-3" cx="36.01" cy="44.91" rx="2.31" ry="11.69" transform="translate(-21.53 46.46) rotate(-52.82)"/>
    <ellipse class="cls-3" cx="47.87" cy="34.05" rx="2.3" ry="11.71" transform="translate(-10.75 30.18) rotate(-31.65)"/>
    <ellipse class="cls-3" cx="62.84" cy="28.23" rx="2.3" ry="11.72" transform="translate(-4.1 11.97) rotate(-10.54)"/>
    <ellipse class="cls-3" cx="78.89" cy="28.23" rx="11.72" ry="2.3" transform="translate(36.71 100.62) rotate(-79.46)"/>
    <ellipse class="cls-3" cx="93.86" cy="34.05" rx="11.71" ry="2.3" transform="translate(15.63 96.08) rotate(-58.35)"/>
    <ellipse class="cls-3" cx="105.72" cy="44.91" rx="11.69" ry="2.31" transform="translate(-5.65 73.03) rotate(-37.18)"/>
    <ellipse class="cls-3" cx="112.88" cy="59.34" rx="11.68" ry="2.31" transform="translate(-11.96 33.3) rotate(-15.95)"/>
    <ellipse class="cls-3" cx="114.36" cy="75.39" rx="2.31" ry="11.67" transform="translate(28.7 182.27) rotate(-84.68)"/>
    <ellipse class="cls-3" cx="109.97" cy="90.89" rx="2.31" ry="11.68" transform="translate(-20.52 148.58) rotate(-63.43)"/>
    <ellipse class="cls-3" cx="100.29" cy="103.76" rx="2.31" ry="11.7" transform="translate(-43.7 94.32) rotate(-42.22)"/>
    <ellipse class="cls-3" cx="86.65" cy="112.24" rx="2.3" ry="11.72" transform="translate(-34.58 38.69) rotate(-21.09)"/>
  </g>
  <g>
    <path class="cls-2" d="M70.87,14.17c1.16,0,2.07,1.61,1.96,3.48-.68,24.28-1.34,34.83-1.96,34.83s-1.28-10.55-1.96-34.83c-.11-1.87.8-3.48,1.96-3.48Z"/>
    <path class="cls-2" d="M91.43,18.03c1.08.42,1.35,2.25.58,3.96-9.37,22.39-13.78,31.99-14.36,31.76s2.6-10.3,10.7-33.19c.57-1.78,2-2.96,3.08-2.54Z"/>
    <path class="cls-2" d="M109.22,29.09c.86.78.45,2.59-.89,3.9-16.79,17.48-24.35,24.83-24.81,24.41s6.13-8.66,21.92-27.06c1.18-1.45,2.93-2.03,3.79-1.25Z"/>
    <path class="cls-2" d="M121.83,45.86c.52,1.04-.52,2.58-2.23,3.32-21.95,10.21-31.64,14.32-31.92,13.76s8.83-5.85,30.17-17.29c1.62-.93,3.46-.83,3.98.21Z"/>
    <path class="cls-2" d="M127.55,66.07c.11,1.16-1.41,2.22-3.27,2.28-24.14,1.56-34.66,1.88-34.72,1.25s10.34-2.25,34.35-5.17c1.84-.28,3.53.48,3.63,1.64Z"/>
    <path class="cls-2" d="M125.62,86.99c-.32,1.12-2.11,1.55-3.87.94-23.07-7.3-32.99-10.82-32.82-11.43s10.45,1.65,33.89,7.64c1.82.41,3.12,1.73,2.8,2.85Z"/>
    <path class="cls-2" d="M116.3,105.79c-.7.93-2.53.68-3.95-.53-18.88-15.18-26.87-22.06-26.49-22.56s9.15,5.33,28.86,19.42c1.55,1.04,2.28,2.74,1.59,3.67Z"/>
    <path class="cls-2" d="M100.84,119.95c-.98.61-2.6-.28-3.49-1.92-12.15-21-17.12-30.32-16.59-30.65s6.62,8.29,19.93,28.57c1.07,1.53,1.14,3.39.16,4Z"/>
    <path class="cls-2" d="M81.33,127.54c-1.14.21-2.33-1.2-2.57-3.06-3.77-23.99-5.06-34.48-4.44-34.6s3.19,10.13,8.3,33.87c.45,1.82-.15,3.57-1.29,3.79Z"/>
    <path class="cls-2" d="M60.41,127.54c-1.14-.21-1.74-1.97-1.29-3.79,5.11-23.74,7.69-33.99,8.3-33.87s-.67,10.6-4.44,34.6c-.24,1.86-1.43,3.28-2.57,3.06Z"/>
    <path class="cls-2" d="M40.9,119.95c-.98-.61-.91-2.46.16-4,13.31-20.28,19.4-28.9,19.93-28.57s-4.44,9.64-16.59,30.65c-.89,1.65-2.51,2.54-3.49,1.92Z"/>
    <path class="cls-2" d="M25.43,105.79c-.7-.93.04-2.63,1.59-3.67,19.71-14.08,28.48-19.92,28.86-19.42s-7.61,7.38-26.49,22.56c-1.42,1.21-3.25,1.46-3.95.53Z"/>
    <path class="cls-2" d="M16.11,86.99c-.32-1.12.98-2.44,2.8-2.85,23.44-5.98,33.72-8.24,33.89-7.64.17.6-9.75,4.12-32.82,11.43-1.76.61-3.56.18-3.87-.94Z"/>
    <path class="cls-2" d="M14.18,66.07c.11-1.16,1.79-1.92,3.63-1.64,24.01,2.92,34.41,4.55,34.35,5.17s-10.58.3-34.72-1.25c-1.86-.07-3.38-1.12-3.27-2.28Z"/>
    <path class="cls-2" d="M19.9,45.86c.52-1.04,2.36-1.14,3.98-.21,21.34,11.44,30.45,16.73,30.17,17.29-.28.56-9.97-3.55-31.92-13.76-1.71-.74-2.75-2.27-2.23-3.32Z"/>
    <path class="cls-2" d="M32.51,29.09c.86-.78,2.61-.21,3.79,1.25,15.78,18.41,22.38,26.64,21.92,27.06s-8.02-6.93-24.81-24.41c-1.33-1.31-1.74-3.12-.89-3.9Z"/>
    <path class="cls-2" d="M50.3,18.03c1.08-.42,2.51.75,3.08,2.54,8.1,22.89,11.28,32.96,10.7,33.19s-4.99-9.37-14.36-31.76c-.77-1.71-.5-3.54.58-3.96Z"/>
  </g>
  <g>
    <path class="cls-1" d="M70.87,101.2c-.74,0-1.33-1.04-1.26-2.24.44-15.61.86-22.39,1.26-22.39s.82,6.78,1.26,22.39c.07,1.2-.52,2.24-1.26,2.24Z"/>
    <path class="cls-1" d="M60.12,99.19c-.69-.27-.87-1.45-.37-2.55,6.03-14.4,8.86-20.57,9.23-20.42s-1.67,6.62-6.88,21.34c-.37,1.15-1.29,1.9-1.98,1.63Z"/>
    <path class="cls-1" d="M50.83,93.41c-.55-.5-.29-1.67.57-2.51,10.8-11.24,15.66-15.97,15.95-15.69s-3.94,5.57-14.09,17.4c-.76.93-1.88,1.31-2.43.8Z"/>
    <path class="cls-1" d="M44.25,84.65c-.33-.67.33-1.66,1.43-2.13,14.11-6.56,20.34-9.21,20.52-8.85s-5.68,3.76-19.4,11.11c-1.04.6-2.23.53-2.56-.14Z"/>
    <path class="cls-1" d="M41.26,74.1c-.07-.74.91-1.42,2.1-1.47,15.52-1,22.28-1.21,22.32-.81s-6.65,1.45-22.09,3.33c-1.19.18-2.27-.31-2.34-1.05Z"/>
    <path class="cls-1" d="M42.27,63.17c.2-.72,1.36-1,2.49-.61,14.83,4.7,21.21,6.96,21.1,7.35s-6.72-1.06-21.79-4.91c-1.17-.26-2-1.11-1.8-1.83Z"/>
    <path class="cls-1" d="M47.14,53.35c.45-.6,1.62-.44,2.54.34,12.14,9.76,17.28,14.18,17.03,14.5s-5.88-3.43-18.55-12.48c-1-.67-1.47-1.76-1.02-2.36Z"/>
    <path class="cls-1" d="M55.21,45.95c.63-.39,1.67.18,2.25,1.24,7.81,13.5,11.01,19.49,10.67,19.7s-4.25-5.33-12.81-18.37c-.69-.99-.74-2.18-.1-2.57Z"/>
    <path class="cls-1" d="M65.4,41.99c.73-.14,1.5.77,1.65,1.97,2.42,15.43,3.25,22.17,2.86,22.24s-2.05-6.51-5.34-21.78c-.29-1.17.1-2.3.83-2.43Z"/>
    <path class="cls-1" d="M76.33,41.99c.73.14,1.12,1.26.83,2.43-3.29,15.26-4.94,21.85-5.34,21.78s.43-6.82,2.86-22.24c.15-1.19.92-2.11,1.65-1.97Z"/>
    <path class="cls-1" d="M86.52,45.95c.63.39.59,1.58-.1,2.57-8.56,13.04-12.47,18.58-12.81,18.37s2.86-6.2,10.67-19.7c.57-1.06,1.61-1.63,2.25-1.24Z"/>
    <path class="cls-1" d="M94.6,53.35c.45.6-.02,1.69-1.02,2.36-12.67,9.05-18.31,12.8-18.55,12.48s4.89-4.75,17.03-14.5c.91-.78,2.09-.94,2.54-.34Z"/>
    <path class="cls-1" d="M99.47,63.17c.2.72-.63,1.57-1.8,1.83-15.07,3.85-21.68,5.3-21.79,4.91s6.27-2.65,21.1-7.35c1.13-.39,2.29-.11,2.49.61Z"/>
    <path class="cls-1" d="M100.48,74.1c-.07.74-1.15,1.23-2.34,1.05-15.44-1.88-22.12-2.93-22.09-3.33s6.8-.2,22.32.81c1.2.04,2.17.72,2.1,1.47Z"/>
    <path class="cls-1" d="M97.49,84.65c-.33.67-1.52.73-2.56.14-13.72-7.35-19.58-10.75-19.4-11.11s6.41,2.28,20.52,8.85c1.1.48,1.77,1.46,1.43,2.13Z"/>
    <path class="cls-1" d="M90.9,93.41c-.55.5-1.68.13-2.43-.8-10.15-11.83-14.39-17.13-14.09-17.4s5.16,4.46,15.95,15.69c.86.84,1.12,2,.57,2.51Z"/>
    <path class="cls-1" d="M81.61,99.19c-.69.27-1.61-.48-1.98-1.63-5.21-14.72-7.25-21.19-6.88-21.34s3.21,6.03,9.23,20.42c.5,1.1.32,2.28-.37,2.55Z"/>
  </g>
</svg>