<?xml version="1.0" encoding="UTF-8"?>
<svg id="_图层_1" data-name="图层_1" xmlns="http://www.w3.org/2000/svg" viewBox="0 0 141.73 141.73">
  <defs>
    <style>
      .cls-1 {
        fill: #8c71af;
      }

      .cls-2 {
        fill: #b097c6;
      }

      .cls-3 {
        fill: #cdb9d9;
      }

      .cls-4 {
        fill: #5f3790;
      }
    </style>
  </defs>
  <path class="cls-2" d="M127.55,76.13c-.12,1.33-27.59-1.15-27.83.14-.24,1.31,26.27,8.87,25.91,10.13-.36,1.28-26.91-6.17-27.39-4.95-.48,1.24,24.18,13.54,23.59,14.72-.59,1.19-25.3-11.03-26-9.91s21.26,17.75,20.46,18.81c-.8,1.06-22.83-15.48-23.73-14.5s17.63,21.33,16.65,22.22c-.98.89-19.6-19.38-20.67-18.58-1.06.8,13.43,24.18,12.29,24.87-1.13.7-15.72-22.62-16.91-22.03-1.19.59,8.75,26.21,7.51,26.69s-11.26-25.11-12.55-24.75c-1.27.36,3.74,27.37,2.43,27.61-1.3.24-6.4-26.75-7.73-26.63-1.31.12-1.4,27.58-2.74,27.58-1.32,0-1.36-27.46-2.7-27.59-1.34-.12-6.44,26.86-7.73,26.62s3.66-27.25,2.39-27.61c-1.29-.36-11.28,25.22-12.51,24.75-1.25-.48,8.66-26.1,7.47-26.69-1.19-.59-15.77,22.71-16.89,22.01-1.13-.7,13.35-24.06,12.3-24.85-1.06-.8-19.69,19.43-20.67,18.54s17.56-21.2,16.67-22.18c-.9-.98-22.93,15.51-23.73,14.45-.8-1.06,21.16-17.65,20.46-18.77-.7-1.12-25.4,11.07-25.99,9.89-.59-1.18,24.05-13.48,23.57-14.71s-27.01,6.23-27.38,4.95,26.14-8.82,25.9-10.12c-.24-1.29-27.71,1.15-27.83-.18-.12-1.31,27.33-3.85,27.34-5.18,0-1.31-27.45-3.93-27.33-5.26.12-1.33,27.59,1.15,27.83-.14.24-1.31-26.27-8.87-25.91-10.13.36-1.28,26.91,6.17,27.39,4.95.48-1.24-24.18-13.54-23.59-14.72.59-1.19,25.3,11.03,26,9.91.7-1.13-21.26-17.75-20.46-18.81s22.83,15.48,23.73,14.5c.9-.98-17.63-21.33-16.65-22.22.98-.89,19.6,19.38,20.67,18.58,1.06-.8-13.43-24.18-12.29-24.87,1.13-.7,15.72,22.62,16.91,22.03,1.19-.59-8.75-26.21-7.51-26.69,1.23-.48,11.26,25.11,12.55,24.75,1.27-.36-3.74-27.37-2.43-27.61s6.4,26.75,7.73,26.63c1.31-.12,1.4-27.58,2.74-27.58,1.32,0,1.36,27.46,2.7,27.59,1.34.12,6.44-26.86,7.73-26.62,1.32.24-3.66,27.25-2.39,27.61,1.29.36,11.28-25.22,12.51-24.75,1.25.48-8.66,26.1-7.47,26.69,1.19.59,15.77-22.71,16.89-22.01,1.13.7-13.35,24.06-12.3,24.85s19.69-19.43,20.67-18.54c.98.89-17.56,21.2-16.67,22.18.9.98,22.93-15.51,23.73-14.45.8,1.06-21.16,17.65-20.46,18.77.7,1.12,25.4-11.07,25.99-9.89.59,1.18-24.05,13.48-23.57,14.71s27.01-6.23,27.38-4.95-26.14,8.82-25.9,10.12,27.71-1.15,27.83.18c.12,1.31-27.33,3.85-27.34,5.18s27.45,3.93,27.33,5.26Z"/>
  <path class="cls-4" d="M123.97,70.87c0,1.25-25.73,1.32-25.84,2.54s25.17,5.99,24.94,7.2-25.53-3.43-25.86-2.24,23.63,10.54,23.18,11.69c-.45,1.16-24.45-8.1-25-6.99-.55,1.11,21.28,14.72,20.62,15.77-.65,1.06-22.54-12.46-23.29-11.47s18.22,18.37,17.38,19.28c-.84.92-19.88-16.38-20.8-15.54s14.56,21.39,13.57,22.14c-.99.75-16.55-19.74-17.6-19.08-1.05.65,10.39,23.69,9.28,24.25-1.11.55-12.63-22.45-13.79-22-1.15.45,5.84,25.2,4.64,25.54s-8.25-24.4-9.48-24.17c-1.21.22,1.08,25.85-.16,25.96s-3.63-25.5-4.89-25.5c-1.25,0-3.66,25.61-4.89,25.5-1.24-.11,1.05-25.74-.16-25.96-1.23-.23-8.3,24.5-9.48,24.17-1.2-.34,5.79-25.1,4.64-25.54s-12.68,22.55-13.79,22c-1.11-.55,10.33-23.6,9.28-24.25-1.06-.65-16.62,19.83-17.6,19.08-.99-.75,14.48-21.3,13.57-22.14-.92-.84-19.96,16.46-20.8,15.54-.83-.92,18.13-18.29,17.38-19.28-.75-.99-22.63,12.53-23.29,11.47s21.18-14.66,20.62-15.77c-.55-1.11-24.55,8.15-25,6.99s23.52-10.49,23.18-11.69-25.64,3.47-25.86,2.24c-.22-1.21,25.06-5.96,24.94-7.2-.11-1.22-25.84-1.29-25.84-2.54,0-1.25,25.73-1.32,25.84-2.54.11-1.24-25.17-5.99-24.94-7.2.23-1.23,25.53,3.43,25.86,2.24.34-1.2-23.63-10.54-23.18-11.69s24.45,8.1,25,6.99c.55-1.11-21.28-14.72-20.62-15.77.65-1.06,22.54,12.46,23.29,11.47.75-.99-18.22-18.37-17.38-19.28s19.88,16.38,20.8,15.54c.92-.83-14.56-21.39-13.57-22.14.99-.75,16.55,19.74,17.6,19.08s-10.39-23.69-9.28-24.25,12.63,22.45,13.79,22c1.15-.45-5.84-25.2-4.64-25.54,1.19-.34,8.25,24.4,9.48,24.17,1.21-.22-1.08-25.85.16-25.96,1.22-.11,3.63,25.5,4.89,25.5,1.25,0,3.66-25.61,4.89-25.5s-1.05,25.74.16,25.96c1.23.23,8.3-24.5,9.48-24.17,1.2.34-5.79,25.1-4.64,25.54,1.16.45,12.68-22.55,13.79-22,1.11.55-10.33,23.6-9.28,24.25,1.06.65,16.62-19.83,17.6-19.08s-14.48,21.3-13.57,22.14c.92.84,19.96-16.46,20.8-15.54.83.92-18.13,18.29-17.38,19.28s22.63-12.53,23.29-11.47-21.18,14.66-20.62,15.77,24.55-8.15,25-6.99c.45,1.15-23.52,10.49-23.18,11.69.34,1.19,25.64-3.47,25.86-2.24.22,1.21-25.06,5.96-24.94,7.2.11,1.22,25.84,1.29,25.84,2.54Z"/>
  <path class="cls-3" d="M94.89,49.04c.6.66-4.66,6.17-4.13,6.86.54.71,7.28-2.83,7.74-2.08.47.76-5.71,5.2-5.32,5.99.39.8,7.67-1.44,7.99-.62.32.83-6.58,4.05-6.34,4.9.24.85,7.81,0,7.97.87.16.87-7.21,2.77-7.13,3.65.08.88,7.67,1.43,7.67,2.31,0,.88-7.6,1.4-7.68,2.28s7.28,2.81,7.12,3.68c-.16.87-7.73-.01-7.97.84s6.65,4.09,6.32,4.92c-.32.82-7.59-1.43-7.99-.64-.39.79,5.78,5.25,5.31,6-.46.75-7.19-2.82-7.73-2.11s4.71,6.22,4.11,6.88c-.59.64-6.55-4.09-7.21-3.49-.66.6,3.48,6.99,2.78,7.51-.71.54-5.71-5.21-6.46-4.75-.76.47,2.14,7.51,1.36,7.9-.8.39-4.65-6.17-5.47-5.86-.83.32.72,7.77-.13,8.01-.85.24-3.43-6.93-4.29-6.77-.87.16-.72,7.77-1.6,7.85-.88.08-2.1-7.44-2.98-7.44-.88,0-2.13,7.51-3.01,7.43s-.7-7.69-1.57-7.86-3.47,6.99-4.32,6.75c-.85-.24.72-7.69-.1-8.01-.82-.32-4.69,6.24-5.49,5.84-.79-.39,2.13-7.42,1.38-7.89-.75-.46-5.76,5.26-6.47,4.73-.7-.53,3.47-6.9,2.82-7.5-.64-.59-6.63,4.12-7.23,3.46s4.66-6.17,4.13-6.86-7.28,2.83-7.74,2.08c-.47-.76,5.71-5.2,5.32-5.99-.39-.8-7.67,1.44-7.99.62-.32-.83,6.58-4.05,6.34-4.9-.24-.85-7.81,0-7.97-.87s7.21-2.77,7.13-3.65c-.08-.88-7.67-1.43-7.67-2.31,0-.88,7.6-1.4,7.68-2.28s-7.28-2.81-7.12-3.68c.16-.87,7.73.01,7.97-.84.24-.85-6.65-4.09-6.32-4.92.32-.82,7.59,1.43,7.99.64s-5.78-5.25-5.31-6c.46-.75,7.19,2.82,7.73,2.11.53-.7-4.71-6.22-4.11-6.88.59-.64,6.55,4.09,7.21,3.49s-3.48-6.99-2.78-7.51c.71-.54,5.71,5.21,6.46,4.75s-2.14-7.51-1.36-7.9c.8-.39,4.65,6.17,5.47,5.86.83-.32-.72-7.77.13-8.01.85-.24,3.43,6.93,4.29,6.77s.72-7.77,1.6-7.85c.88-.08,2.1,7.44,2.98,7.44.88,0,2.13-7.51,3.01-7.43s.7,7.69,1.57,7.86c.87.16,3.47-6.99,4.32-6.75.85.24-.72,7.69.1,8.01.82.32,4.69-6.24,5.49-5.84.79.39-2.13,7.42-1.38,7.89.75.46,5.76-5.26,6.47-4.73.7.53-3.47,6.9-2.82,7.5.64.59,6.63-4.12,7.23-3.46Z"/>
  <path class="cls-1" d="M85.4,54.97c.44.4-2.7,4.36-2.31,4.79s4.63-2.32,4.98-1.85-3.46,3.79-3.15,4.28,4.98-1.42,5.24-.9-4.1,3.08-3.89,3.63,5.16-.48,5.32.08c.16.57-4.6,2.27-4.49,2.85.11.58,5.16.47,5.21,1.06s-4.93,1.39-4.93,1.98c0,.59,4.98,1.41,4.93,1.99s-5.11.47-5.21,1.04,4.64,2.3,4.48,2.86-5.1-.48-5.32.07,4.14,3.11,3.87,3.64c-.26.52-4.92-1.42-5.24-.92s3.49,3.82,3.14,4.29-4.58-2.3-4.98-1.86,2.73,4.4,2.3,4.79-4.09-3.09-4.56-2.74,1.88,4.83,1.38,5.13-3.45-3.79-3.97-3.53c-.53.26.95,5.09.41,5.3s-2.69-4.37-3.25-4.21,0,5.18-.57,5.29-1.84-4.78-2.42-4.73-.95,5.09-1.53,5.09-.93-5.04-1.52-5.1-1.86,4.83-2.44,4.73,0-5.13-.56-5.29-2.72,4.41-3.27,4.2c-.54-.21.95-5.04.43-5.3s-3.48,3.83-3.99,3.52,1.87-4.77,1.4-5.13-4.13,3.13-4.56,2.73,2.7-4.36,2.31-4.79c-.4-.44-4.63,2.32-4.98,1.85s3.46-3.79,3.15-4.28-4.98,1.42-5.24.9,4.1-3.08,3.89-3.63c-.21-.55-5.16.48-5.32-.08s4.6-2.27,4.49-2.85-5.16-.47-5.21-1.06,4.93-1.39,4.93-1.98c0-.59-4.98-1.41-4.93-1.99s5.11-.47,5.21-1.04-4.64-2.3-4.48-2.86,5.1.48,5.32-.07-4.14-3.11-3.87-3.64,4.92,1.42,5.24.92c.31-.49-3.49-3.82-3.14-4.29.35-.46,4.58,2.3,4.98,1.86s-2.73-4.4-2.3-4.79c.44-.4,4.09,3.09,4.56,2.74s-1.88-4.83-1.38-5.13,3.45,3.79,3.97,3.53-.95-5.09-.41-5.3,2.69,4.37,3.25,4.21,0-5.18.57-5.29,1.84,4.78,2.42,4.73c.58-.05.95-5.09,1.53-5.09s.93,5.04,1.52,5.1,1.86-4.83,2.44-4.73,0,5.13.56,5.29c.56.16,2.72-4.41,3.27-4.2s-.95,5.04-.43,5.3,3.48-3.83,3.99-3.52-1.87,4.77-1.4,5.13,4.13-3.13,4.56-2.73Z"/>
</svg>