<?xml version="1.0" encoding="UTF-8"?>
<svg id="_图层_1" data-name="图层_1" xmlns="http://www.w3.org/2000/svg" viewBox="0 0 141.73 141.73">
  <defs>
    <style>
      .cls-1 {
        fill: #a0d7e9;
      }

      .cls-2 {
        fill: #46bdd5;
      }

      .cls-3 {
        fill: #0087c0;
      }
    </style>
  </defs>
  <g>
    <path class="cls-2" d="M68.66,99.45l-2.08,14.72c-.06.43.26.83.69.86l.37.03c.44.03.81-.31.81-.74l.2-14.86Z"/>
    <path class="cls-2" d="M64.22,98.75l-4.36,14.21c-.13.42.12.86.55.96l.36.09c.43.1.85-.18.92-.61l2.52-14.65Z"/>
    <path class="cls-2" d="M59.94,97.37l-6.53,13.35c-.19.39-.01.87.39,1.03l.34.14c.4.17.86-.04,1.01-.46l4.78-14.07Z"/>
    <path class="cls-2" d="M55.92,95.33l-8.53,12.17c-.25.36-.15.85.23,1.08l.32.19c.37.23.86.09,1.06-.29l6.93-13.15Z"/>
    <path class="cls-2" d="M52.28,92.7l-10.33,10.68c-.3.31-.28.82.05,1.1l.28.24c.33.28.84.23,1.1-.12l8.9-11.9Z"/>
    <path class="cls-2" d="M49.09,89.52l-11.88,8.94c-.35.26-.4.77-.12,1.1l.24.28c.28.33.79.35,1.1.05l10.65-10.37Z"/>
    <path class="cls-2" d="M46.44,85.89l-13.13,6.97c-.39.2-.52.69-.29,1.06l.2.32c.23.37.72.47,1.08.22l12.14-8.57Z"/>
    <path class="cls-2" d="M44.39,81.88l-14.06,4.83c-.41.14-.62.6-.45,1.01l.14.34c.17.4.64.58,1.03.39l13.34-6.57Z"/>
    <path class="cls-2" d="M42.99,77.61l-14.64,2.57c-.43.08-.71.5-.6.92l.09.36c.1.42.54.67.96.54l14.2-4.4Z"/>
    <path class="cls-2" d="M42.28,73.16l-14.86.25c-.44,0-.78.38-.74.82l.03.37c.04.44.43.75.86.69l14.71-2.13Z"/>
    <path class="cls-2" d="M42.27,68.67l-14.72-2.08c-.43-.06-.83.26-.86.69l-.03.37c-.03.44.31.81.74.81l14.87.2Z"/>
    <path class="cls-2" d="M42.97,64.22l-14.21-4.35c-.42-.13-.86.12-.96.55l-.09.36c-.1.42.18.85.61.92l14.65,2.52Z"/>
    <path class="cls-2" d="M44.35,59.94l-13.36-6.52c-.39-.19-.87-.01-1.03.39l-.14.34c-.17.4.04.86.46,1l14.08,4.78Z"/>
    <path class="cls-2" d="M46.39,55.93l-12.17-8.53c-.36-.25-.85-.15-1.08.23l-.19.32c-.23.37-.09.86.29,1.06l13.15,6.92Z"/>
    <path class="cls-2" d="M49.03,52.29l-10.69-10.33c-.31-.3-.82-.28-1.1.05l-.24.28c-.28.33-.23.84.12,1.1l11.91,8.9Z"/>
    <path class="cls-2" d="M52.2,49.1l-8.94-11.87c-.26-.35-.77-.4-1.1-.12l-.28.24c-.33.28-.35.79-.05,1.1l10.37,10.65Z"/>
    <path class="cls-2" d="M55.84,46.45l-6.97-13.13c-.2-.39-.69-.52-1.07-.29l-.32.2c-.37.23-.47.72-.22,1.08l8.58,12.14Z"/>
    <path class="cls-2" d="M59.85,44.4l-4.83-14.05c-.14-.41-.6-.62-1.01-.45l-.34.14c-.4.17-.58.64-.39,1.03l6.57,13.33Z"/>
    <path class="cls-2" d="M64.12,43l-2.57-14.64c-.08-.43-.5-.71-.92-.6l-.36.09c-.42.1-.67.54-.54.96l4.4,14.19Z"/>
    <path class="cls-2" d="M68.57,42.29l-.25-14.86c0-.44-.38-.78-.82-.74l-.37.03c-.44.04-.75.43-.69.86l2.13,14.71Z"/>
    <path class="cls-2" d="M73.07,42.28l2.08-14.72c.06-.43-.26-.83-.69-.86l-.37-.03c-.44-.03-.81.31-.81.74l-.2,14.86Z"/>
    <path class="cls-2" d="M77.51,42.98l4.36-14.21c.13-.42-.12-.86-.55-.96l-.36-.09c-.43-.1-.85.18-.92.61l-2.52,14.65Z"/>
    <path class="cls-2" d="M81.79,44.36l6.53-13.35c.19-.39.01-.87-.39-1.03l-.34-.14c-.4-.17-.86.04-1.01.46l-4.78,14.07Z"/>
    <path class="cls-2" d="M85.81,46.4l8.53-12.17c.25-.36.15-.85-.23-1.08l-.32-.19c-.37-.23-.86-.09-1.06.29l-6.93,13.15Z"/>
    <path class="cls-2" d="M89.45,49.04l10.33-10.68c.3-.31.28-.82-.05-1.1l-.28-.24c-.33-.28-.84-.23-1.1.12l-8.9,11.9Z"/>
    <path class="cls-2" d="M92.64,52.21l11.88-8.94c.35-.26.4-.77.12-1.1l-.24-.28c-.28-.33-.79-.35-1.1-.05l-10.65,10.37Z"/>
    <path class="cls-2" d="M95.29,55.85l13.13-6.97c.39-.2.52-.69.29-1.06l-.2-.32c-.23-.37-.72-.47-1.08-.22l-12.14,8.57Z"/>
    <path class="cls-2" d="M97.34,59.85l14.06-4.83c.41-.14.62-.6.45-1.01l-.14-.34c-.17-.4-.64-.58-1.03-.39l-13.34,6.57Z"/>
    <path class="cls-2" d="M98.74,64.13l14.64-2.57c.43-.08.71-.5.6-.92l-.09-.36c-.1-.42-.54-.67-.96-.54l-14.2,4.4Z"/>
    <path class="cls-2" d="M99.45,68.57l14.86-.25c.44,0,.78-.38.74-.82l-.03-.37c-.04-.44-.43-.75-.86-.69l-14.71,2.13Z"/>
    <path class="cls-2" d="M99.46,73.07l14.72,2.08c.43.06.83-.26.86-.69l.03-.37c.03-.44-.31-.81-.74-.81l-14.87-.2Z"/>
    <path class="cls-2" d="M98.76,77.51l14.21,4.35c.42.13.86-.12.96-.55l.09-.36c.1-.42-.18-.85-.61-.92l-14.65-2.52Z"/>
    <path class="cls-2" d="M97.38,81.79l13.36,6.52c.39.19.87.01,1.03-.39l.14-.34c.17-.4-.04-.86-.46-1l-14.08-4.78Z"/>
    <path class="cls-2" d="M95.34,85.8l12.17,8.53c.36.25.85.15,1.08-.23l.19-.32c.23-.37.09-.86-.29-1.06l-13.15-6.92Z"/>
    <path class="cls-2" d="M92.7,89.45l10.69,10.33c.31.3.82.28,1.1-.05l.24-.28c.28-.33.23-.84-.12-1.1l-11.91-8.9Z"/>
    <path class="cls-2" d="M89.53,92.63l8.94,11.87c.26.35.77.4,1.1.12l.28-.24c.33-.28.35-.79.05-1.1l-10.37-10.65Z"/>
    <path class="cls-2" d="M85.89,95.28l6.97,13.13c.2.39.69.52,1.07.29l.32-.2c.37-.23.47-.72.22-1.08l-8.58-12.14Z"/>
    <path class="cls-2" d="M81.88,97.33l4.83,14.05c.14.41.6.62,1.01.45l.34-.14c.4-.17.58-.64.39-1.03l-6.57-13.33Z"/>
    <path class="cls-2" d="M77.61,98.73l2.57,14.64c.08.43.5.71.92.6l.36-.09c.42-.1.67-.54.54-.96l-4.4-14.19Z"/>
    <path class="cls-2" d="M73.16,99.44l.25,14.86c0,.44.38.78.82.74l.37-.03c.44-.04.75-.43.69-.86l-2.13-14.71Z"/>
  </g>
  <g>
    <g id="_x3C_径向重复_x3E_">
      <polygon class="cls-1" points="69.12 127.56 72.62 127.56 70.87 92.63 69.12 127.56"/>
    </g>
    <g id="_x3C_径向重复_x3E_-2" data-name="_x3C_径向重复_x3E_">
      <polygon class="cls-1" points="60.27 126.59 63.73 127.13 67.46 92.36 60.27 126.59"/>
    </g>
    <g id="_x3C_径向重复_x3E_-3" data-name="_x3C_径向重复_x3E_">
      <polygon class="cls-1" points="51.68 124.24 55.01 125.33 64.14 91.57 51.68 124.24"/>
    </g>
    <g id="_x3C_径向重复_x3E_-4" data-name="_x3C_径向重复_x3E_">
      <polygon class="cls-1" points="43.57 120.59 46.69 122.18 60.99 90.26 43.57 120.59"/>
    </g>
    <g id="_x3C_径向重复_x3E_-5" data-name="_x3C_径向重复_x3E_">
      <polygon class="cls-1" points="36.13 115.7 38.96 117.76 58.07 88.48 36.13 115.7"/>
    </g>
    <g id="_x3C_径向重复_x3E_-6" data-name="_x3C_径向重复_x3E_">
      <polygon class="cls-1" points="29.54 109.72 32.02 112.19 55.48 86.26 29.54 109.72"/>
    </g>
    <g id="_x3C_径向重复_x3E_-7" data-name="_x3C_径向重复_x3E_">
      <polygon class="cls-1" points="23.97 102.78 26.03 105.61 53.26 83.66 23.97 102.78"/>
    </g>
    <g id="_x3C_径向重复_x3E_-8" data-name="_x3C_径向重复_x3E_">
      <polygon class="cls-1" points="19.56 95.05 21.15 98.16 51.47 80.75 19.56 95.05"/>
    </g>
    <g id="_x3C_径向重复_x3E_-9" data-name="_x3C_径向重复_x3E_">
      <polygon class="cls-1" points="16.41 86.72 17.49 90.05 50.17 77.59 16.41 86.72"/>
    </g>
    <g id="_x3C_径向重复_x3E_-10" data-name="_x3C_径向重复_x3E_">
      <polygon class="cls-1" points="14.6 78.01 15.15 81.47 49.37 74.27 14.6 78.01"/>
    </g>
    <g id="_x3C_径向重复_x3E_-11" data-name="_x3C_径向重复_x3E_">
      <polygon class="cls-1" points="14.17 69.12 14.17 72.62 49.1 70.87 14.17 69.12"/>
    </g>
    <g id="_x3C_径向重复_x3E_-12" data-name="_x3C_径向重复_x3E_">
      <polygon class="cls-1" points="15.14 60.27 14.6 63.73 49.37 67.46 15.14 60.27"/>
    </g>
    <g id="_x3C_径向重复_x3E_-13" data-name="_x3C_径向重复_x3E_">
      <polygon class="cls-1" points="17.49 51.68 16.41 55.01 50.17 64.14 17.49 51.68"/>
    </g>
    <g id="_x3C_径向重复_x3E_-14" data-name="_x3C_径向重复_x3E_">
      <polygon class="cls-1" points="21.15 43.57 19.56 46.69 51.47 60.99 21.15 43.57"/>
    </g>
    <g id="_x3C_径向重复_x3E_-15" data-name="_x3C_径向重复_x3E_">
      <polygon class="cls-1" points="26.03 36.13 23.97 38.96 53.26 58.07 26.03 36.13"/>
    </g>
    <g id="_x3C_径向重复_x3E_-16" data-name="_x3C_径向重复_x3E_">
      <polygon class="cls-1" points="32.01 29.54 29.54 32.02 55.47 55.48 32.01 29.54"/>
    </g>
    <g id="_x3C_径向重复_x3E_-17" data-name="_x3C_径向重复_x3E_">
      <polygon class="cls-1" points="38.96 23.97 36.13 26.03 58.07 53.26 38.96 23.97"/>
    </g>
    <g id="_x3C_径向重复_x3E_-18" data-name="_x3C_径向重复_x3E_">
      <polygon class="cls-1" points="46.69 19.56 43.57 21.15 60.98 51.47 46.69 19.56"/>
    </g>
    <g id="_x3C_径向重复_x3E_-19" data-name="_x3C_径向重复_x3E_">
      <polygon class="cls-1" points="55.01 16.41 51.68 17.49 64.14 50.17 55.01 16.41"/>
    </g>
    <g id="_x3C_径向重复_x3E_-20" data-name="_x3C_径向重复_x3E_">
      <polygon class="cls-1" points="63.72 14.6 60.27 15.15 67.46 49.37 63.72 14.6"/>
    </g>
    <g id="_x3C_径向重复_x3E_-21" data-name="_x3C_径向重复_x3E_">
      <polygon class="cls-1" points="72.61 14.17 69.11 14.17 70.86 49.1 72.61 14.17"/>
    </g>
    <g id="_x3C_径向重复_x3E_-22" data-name="_x3C_径向重复_x3E_">
      <polygon class="cls-1" points="81.46 15.15 78.01 14.6 74.27 49.37 81.46 15.15"/>
    </g>
    <g id="_x3C_径向重复_x3E_-23" data-name="_x3C_径向重复_x3E_">
      <polygon class="cls-1" points="90.05 17.49 86.72 16.41 77.59 50.17 90.05 17.49"/>
    </g>
    <g id="_x3C_径向重复_x3E_-24" data-name="_x3C_径向重复_x3E_">
      <polygon class="cls-1" points="98.16 21.15 95.04 19.56 80.75 51.47 98.16 21.15"/>
    </g>
    <g id="_x3C_径向重复_x3E_-25" data-name="_x3C_径向重复_x3E_">
      <polygon class="cls-1" points="105.6 26.03 102.77 23.97 83.66 53.26 105.6 26.03"/>
    </g>
    <g id="_x3C_径向重复_x3E_-26" data-name="_x3C_径向重复_x3E_">
      <polygon class="cls-1" points="112.19 32.01 109.71 29.54 86.25 55.47 112.19 32.01"/>
    </g>
    <g id="_x3C_径向重复_x3E_-27" data-name="_x3C_径向重复_x3E_">
      <polygon class="cls-1" points="117.76 38.96 115.7 36.13 88.47 58.07 117.76 38.96"/>
    </g>
    <g id="_x3C_径向重复_x3E_-28" data-name="_x3C_径向重复_x3E_">
      <polygon class="cls-1" points="122.17 46.69 120.58 43.57 90.26 60.98 122.17 46.69"/>
    </g>
    <g id="_x3C_径向重复_x3E_-29" data-name="_x3C_径向重复_x3E_">
      <polygon class="cls-1" points="125.32 55.01 124.24 51.68 91.57 64.14 125.32 55.01"/>
    </g>
    <g id="_x3C_径向重复_x3E_-30" data-name="_x3C_径向重复_x3E_">
      <polygon class="cls-1" points="127.13 63.72 126.59 60.27 92.36 67.46 127.13 63.72"/>
    </g>
    <g id="_x3C_径向重复_x3E_-31" data-name="_x3C_径向重复_x3E_">
      <polygon class="cls-1" points="127.56 72.61 127.56 69.12 92.63 70.87 127.56 72.61"/>
    </g>
    <g id="_x3C_径向重复_x3E_-32" data-name="_x3C_径向重复_x3E_">
      <polygon class="cls-1" points="126.59 81.46 127.13 78.01 92.36 74.27 126.59 81.46"/>
    </g>
    <g id="_x3C_径向重复_x3E_-33" data-name="_x3C_径向重复_x3E_">
      <polygon class="cls-1" points="124.24 90.05 125.33 86.72 91.57 77.59 124.24 90.05"/>
    </g>
    <g id="_x3C_径向重复_x3E_-34" data-name="_x3C_径向重复_x3E_">
      <polygon class="cls-1" points="120.58 98.16 122.17 95.04 90.26 80.75 120.58 98.16"/>
    </g>
    <g id="_x3C_径向重复_x3E_-35" data-name="_x3C_径向重复_x3E_">
      <polygon class="cls-1" points="115.7 105.6 117.76 102.77 88.48 83.66 115.7 105.6"/>
    </g>
    <g id="_x3C_径向重复_x3E_-36" data-name="_x3C_径向重复_x3E_">
      <polygon class="cls-1" points="109.72 112.19 112.19 109.72 86.26 86.26 109.72 112.19"/>
    </g>
    <g id="_x3C_径向重复_x3E_-37" data-name="_x3C_径向重复_x3E_">
      <polygon class="cls-1" points="102.77 117.76 105.61 115.7 83.66 88.47 102.77 117.76"/>
    </g>
    <g id="_x3C_径向重复_x3E_-38" data-name="_x3C_径向重复_x3E_">
      <polygon class="cls-1" points="95.05 122.17 98.16 120.58 80.75 90.26 95.05 122.17"/>
    </g>
    <g id="_x3C_径向重复_x3E_-39" data-name="_x3C_径向重复_x3E_">
      <polygon class="cls-1" points="86.72 125.33 90.05 124.24 77.59 91.57 86.72 125.33"/>
    </g>
    <g id="_x3C_径向重复_x3E_-40" data-name="_x3C_径向重复_x3E_">
      <polygon class="cls-1" points="78.01 127.13 81.46 126.59 74.27 92.36 78.01 127.13"/>
    </g>
  </g>
  <g>
    <g id="_x3C_径向重复_x3E_-41" data-name="_x3C_径向重复_x3E_">
      <polygon class="cls-3" points="71.37 80.65 70.36 80.65 70.87 97.69 71.37 80.65"/>
    </g>
    <g id="_x3C_径向重复_x3E_-42" data-name="_x3C_径向重复_x3E_">
      <polygon class="cls-3" points="69.83 80.61 68.84 80.45 66.67 97.36 69.83 80.61"/>
    </g>
    <g id="_x3C_径向重复_x3E_-43" data-name="_x3C_径向重复_x3E_">
      <polygon class="cls-3" points="68.32 80.33 67.36 80.02 62.58 96.38 68.32 80.33"/>
    </g>
    <g id="_x3C_径向重复_x3E_-44" data-name="_x3C_径向重复_x3E_">
      <polygon class="cls-3" points="66.87 79.82 65.97 79.36 58.69 94.77 66.87 79.82"/>
    </g>
    <g id="_x3C_径向重复_x3E_-45" data-name="_x3C_径向重复_x3E_">
      <polygon class="cls-3" points="65.52 79.08 64.7 78.49 55.1 92.57 65.52 79.08"/>
    </g>
    <g id="_x3C_径向重复_x3E_-46" data-name="_x3C_径向重复_x3E_">
      <polygon class="cls-3" points="64.3 78.15 63.59 77.43 51.9 89.83 64.3 78.15"/>
    </g>
    <g id="_x3C_径向重复_x3E_-47" data-name="_x3C_径向重复_x3E_">
      <polygon class="cls-3" points="63.24 77.03 62.65 76.21 49.16 86.63 63.24 77.03"/>
    </g>
    <g id="_x3C_径向重复_x3E_-48" data-name="_x3C_径向重复_x3E_">
      <polygon class="cls-3" points="62.37 75.76 61.91 74.86 46.97 83.04 62.37 75.76"/>
    </g>
    <g id="_x3C_径向重复_x3E_-49" data-name="_x3C_径向重复_x3E_">
      <polygon class="cls-3" points="61.71 74.37 61.4 73.41 45.35 79.15 61.71 74.37"/>
    </g>
    <g id="_x3C_径向重复_x3E_-50" data-name="_x3C_径向重复_x3E_">
      <polygon class="cls-3" points="61.28 72.89 61.12 71.9 44.37 75.06 61.28 72.89"/>
    </g>
    <g id="_x3C_径向重复_x3E_-51" data-name="_x3C_径向重复_x3E_">
      <polygon class="cls-3" points="61.08 71.37 61.08 70.36 44.04 70.87 61.08 71.37"/>
    </g>
    <g id="_x3C_径向重复_x3E_-52" data-name="_x3C_径向重复_x3E_">
      <polygon class="cls-3" points="61.12 69.83 61.28 68.84 44.37 66.67 61.12 69.83"/>
    </g>
    <g id="_x3C_径向重复_x3E_-53" data-name="_x3C_径向重复_x3E_">
      <polygon class="cls-3" points="61.4 68.32 61.71 67.36 45.35 62.58 61.4 68.32"/>
    </g>
    <g id="_x3C_径向重复_x3E_-54" data-name="_x3C_径向重复_x3E_">
      <polygon class="cls-3" points="61.91 66.87 62.37 65.97 46.97 58.69 61.91 66.87"/>
    </g>
    <g id="_x3C_径向重复_x3E_-55" data-name="_x3C_径向重复_x3E_">
      <polygon class="cls-3" points="62.65 65.52 63.24 64.7 49.16 55.1 62.65 65.52"/>
    </g>
    <g id="_x3C_径向重复_x3E_-56" data-name="_x3C_径向重复_x3E_">
      <polygon class="cls-3" points="63.59 64.3 64.3 63.59 51.9 51.9 63.59 64.3"/>
    </g>
    <g id="_x3C_径向重复_x3E_-57" data-name="_x3C_径向重复_x3E_">
      <polygon class="cls-3" points="64.7 63.24 65.52 62.65 55.1 49.17 64.7 63.24"/>
    </g>
    <g id="_x3C_径向重复_x3E_-58" data-name="_x3C_径向重复_x3E_">
      <polygon class="cls-3" points="65.97 62.37 66.87 61.92 58.69 46.97 65.97 62.37"/>
    </g>
    <g id="_x3C_径向重复_x3E_-59" data-name="_x3C_径向重复_x3E_">
      <polygon class="cls-3" points="67.36 61.71 68.32 61.4 62.58 45.36 67.36 61.71"/>
    </g>
    <g id="_x3C_径向重复_x3E_-60" data-name="_x3C_径向重复_x3E_">
      <polygon class="cls-3" points="68.84 61.28 69.83 61.12 66.67 44.37 68.84 61.28"/>
    </g>
    <g id="_x3C_径向重复_x3E_-61" data-name="_x3C_径向重复_x3E_">
      <polygon class="cls-3" points="70.36 61.08 71.37 61.08 70.87 44.04 70.36 61.08"/>
    </g>
    <g id="_x3C_径向重复_x3E_-62" data-name="_x3C_径向重复_x3E_">
      <polygon class="cls-3" points="71.9 61.12 72.9 61.28 75.06 44.37 71.9 61.12"/>
    </g>
    <g id="_x3C_径向重复_x3E_-63" data-name="_x3C_径向重复_x3E_">
      <polygon class="cls-3" points="73.41 61.4 74.37 61.71 79.16 45.36 73.41 61.4"/>
    </g>
    <g id="_x3C_径向重复_x3E_-64" data-name="_x3C_径向重复_x3E_">
      <polygon class="cls-3" points="74.86 61.92 75.76 62.37 83.04 46.97 74.86 61.92"/>
    </g>
    <g id="_x3C_径向重复_x3E_-65" data-name="_x3C_径向重复_x3E_">
      <polygon class="cls-3" points="76.21 62.65 77.03 63.24 86.63 49.16 76.21 62.65"/>
    </g>
    <g id="_x3C_径向重复_x3E_-66" data-name="_x3C_径向重复_x3E_">
      <polygon class="cls-3" points="77.43 63.59 78.14 64.3 89.83 51.9 77.43 63.59"/>
    </g>
    <g id="_x3C_径向重复_x3E_-67" data-name="_x3C_径向重复_x3E_">
      <polygon class="cls-3" points="78.49 64.7 79.08 65.52 92.57 55.1 78.49 64.7"/>
    </g>
    <g id="_x3C_径向重复_x3E_-68" data-name="_x3C_径向重复_x3E_">
      <polygon class="cls-3" points="79.36 65.97 79.82 66.87 94.77 58.69 79.36 65.97"/>
    </g>
    <g id="_x3C_径向重复_x3E_-69" data-name="_x3C_径向重复_x3E_">
      <polygon class="cls-3" points="80.02 67.36 80.33 68.32 96.38 62.58 80.02 67.36"/>
    </g>
    <g id="_x3C_径向重复_x3E_-70" data-name="_x3C_径向重复_x3E_">
      <polygon class="cls-3" points="80.46 68.84 80.61 69.83 97.36 66.67 80.46 68.84"/>
    </g>
    <g id="_x3C_径向重复_x3E_-71" data-name="_x3C_径向重复_x3E_">
      <polygon class="cls-3" points="80.66 70.36 80.66 71.37 97.69 70.87 80.66 70.36"/>
    </g>
    <g id="_x3C_径向重复_x3E_-72" data-name="_x3C_径向重复_x3E_">
      <polygon class="cls-3" points="80.61 71.9 80.46 72.9 97.36 75.06 80.61 71.9"/>
    </g>
    <g id="_x3C_径向重复_x3E_-73" data-name="_x3C_径向重复_x3E_">
      <polygon class="cls-3" points="80.33 73.41 80.02 74.37 96.38 79.16 80.33 73.41"/>
    </g>
    <g id="_x3C_径向重复_x3E_-74" data-name="_x3C_径向重复_x3E_">
      <polygon class="cls-3" points="79.82 74.86 79.36 75.76 94.77 83.04 79.82 74.86"/>
    </g>
    <g id="_x3C_径向重复_x3E_-75" data-name="_x3C_径向重复_x3E_">
      <polygon class="cls-3" points="79.08 76.21 78.49 77.03 92.57 86.63 79.08 76.21"/>
    </g>
    <g id="_x3C_径向重复_x3E_-76" data-name="_x3C_径向重复_x3E_">
      <polygon class="cls-3" points="78.15 77.43 77.43 78.14 89.83 89.83 78.15 77.43"/>
    </g>
    <g id="_x3C_径向重复_x3E_-77" data-name="_x3C_径向重复_x3E_">
      <polygon class="cls-3" points="77.03 78.49 76.21 79.08 86.63 92.57 77.03 78.49"/>
    </g>
    <g id="_x3C_径向重复_x3E_-78" data-name="_x3C_径向重复_x3E_">
      <polygon class="cls-3" points="75.76 79.36 74.86 79.82 83.04 94.77 75.76 79.36"/>
    </g>
    <g id="_x3C_径向重复_x3E_-79" data-name="_x3C_径向重复_x3E_">
      <polygon class="cls-3" points="74.37 80.02 73.41 80.33 79.15 96.38 74.37 80.02"/>
    </g>
    <g id="_x3C_径向重复_x3E_-80" data-name="_x3C_径向重复_x3E_">
      <polygon class="cls-3" points="72.9 80.46 71.9 80.61 75.06 97.36 72.9 80.46"/>
    </g>
  </g>
</svg>