<?xml version="1.0" encoding="UTF-8"?>
<svg id="_图层_1" data-name="图层_1" xmlns="http://www.w3.org/2000/svg" viewBox="0 0 141.73 141.73">
  <defs>
    <style>
      .cls-1 {
        fill: #f3bb1f;
      }

      .cls-2 {
        fill: #faf5ca;
      }

      .cls-3 {
        fill: #ffd824;
      }
    </style>
  </defs>
  <g>
    <path class="cls-3" d="M70.92,113.49c.76,0,1.46-10.18,1.46-18.6,0-8.43-.69-18.59-1.45-18.59-.75,0-1.56,9.85-1.56,18.49,0,8.77.8,18.7,1.56,18.69Z"/>
    <path class="cls-3" d="M54.6,110.26c.71.29,5.24-8.85,8.46-16.63,3.23-7.79,6.48-17.44,5.77-17.73-.69-.29-5.21,8.5-8.52,16.49-3.36,8.1-6.41,17.58-5.71,17.87Z"/>
    <path class="cls-3" d="M40.76,101.04c.54.54,8.23-6.17,14.18-12.12,5.96-5.96,12.66-13.63,12.12-14.17-.53-.53-8.07,5.86-14.18,11.97-6.2,6.19-12.65,13.79-12.12,14.32Z"/>
    <path class="cls-3" d="M31.51,87.22c.3.71,9.96-2.55,17.74-5.77,7.79-3.22,16.91-7.75,16.62-8.46-.29-.7-9.7,2.33-17.68,5.63-8.1,3.35-16.97,7.9-16.67,8.59Z"/>
    <path class="cls-3" d="M28.25,70.92c0,.76,10.18,1.46,18.6,1.46,8.43,0,18.59-.69,18.59-1.45,0-.75-9.85-1.56-18.49-1.56-8.77,0-18.7.8-18.69,1.56Z"/>
    <path class="cls-3" d="M31.47,54.6c-.29.71,8.85,5.24,16.63,8.46,7.79,3.23,17.44,6.48,17.73,5.77.29-.69-8.51-5.21-16.49-8.52-8.1-3.36-17.58-6.41-17.87-5.71Z"/>
    <path class="cls-3" d="M40.69,40.77c-.54.54,6.17,8.23,12.12,14.18,5.96,5.96,13.63,12.66,14.17,12.12.53-.53-5.86-8.07-11.97-14.18-6.19-6.2-13.79-12.65-14.32-12.12Z"/>
    <path class="cls-3" d="M54.51,31.51c-.71.3,2.55,9.96,5.77,17.74,3.22,7.79,7.75,16.91,8.46,16.62.7-.29-2.33-9.7-5.63-17.68-3.35-8.1-7.9-16.97-8.59-16.67Z"/>
    <path class="cls-3" d="M70.82,28.25c-.76,0-1.46,10.18-1.46,18.6,0,8.43.69,18.59,1.45,18.59.75,0,1.56-9.85,1.56-18.49,0-8.77-.8-18.7-1.56-18.69Z"/>
    <path class="cls-3" d="M87.13,31.47c-.71-.29-5.24,8.85-8.46,16.63-3.23,7.79-6.48,17.44-5.77,17.73.69.29,5.21-8.5,8.52-16.49,3.36-8.1,6.41-17.58,5.71-17.87Z"/>
    <path class="cls-3" d="M100.97,40.7c-.54-.54-8.23,6.17-14.18,12.12-5.96,5.96-12.66,13.63-12.12,14.17.53.53,8.07-5.86,14.18-11.97,6.2-6.19,12.65-13.79,12.12-14.32Z"/>
    <path class="cls-3" d="M110.22,54.51c-.3-.71-9.96,2.55-17.74,5.77-7.79,3.22-16.91,7.75-16.62,8.46.29.7,9.7-2.33,17.68-5.63,8.1-3.35,16.97-7.9,16.67-8.59Z"/>
    <path class="cls-3" d="M113.49,70.82c0-.76-10.18-1.46-18.6-1.46-8.43,0-18.59.69-18.59,1.45,0,.75,9.85,1.56,18.49,1.56,8.77,0,18.7-.8,18.69-1.56Z"/>
    <path class="cls-3" d="M110.26,87.13c.29-.71-8.85-5.24-16.63-8.46-7.79-3.23-17.44-6.48-17.73-5.77-.29.69,8.51,5.21,16.49,8.52,8.1,3.36,17.58,6.41,17.87,5.71Z"/>
    <path class="cls-3" d="M101.04,100.97c.54-.54-6.17-8.23-12.12-14.18-5.96-5.96-13.63-12.66-14.17-12.12-.53.53,5.86,8.07,11.97,14.18,6.19,6.2,13.79,12.65,14.32,12.12Z"/>
    <path class="cls-3" d="M87.22,110.22c.71-.3-2.55-9.96-5.77-17.74-3.22-7.79-7.75-16.91-8.46-16.62-.7.29,2.33,9.7,5.63,17.68,3.35,8.1,7.9,16.97,8.59,16.67Z"/>
  </g>
  <g>
    <path class="cls-2" d="M67.59,88.28c.53.1.12,2.91-.25,11.16-.03.75-.68,15.09-3.92,19.56-.29.4-1.09,1.5-1.85,1.36-.73-.14-1.07-1.36-1.19-1.8-1.46-5.32,3.38-19.72,3.38-19.72,2.65-7.89,3.3-10.65,3.83-10.55Z"/>
    <path class="cls-2" d="M61.18,85.7c.45.29-1,2.73-4.5,10.21-.32.68-6.4,13.68-11.1,16.57-.42.26-1.58.97-2.23.55-.62-.41-.47-1.67-.41-2.12.69-5.48,10.67-16.93,10.67-16.93,5.47-6.27,7.12-8.58,7.57-8.29Z"/>
    <path class="cls-2" d="M56.24,80.87c.3.44-1.97,2.14-8.07,7.71-.55.51-11.15,10.19-16.6,11.06-.49.08-1.83.29-2.27-.35-.42-.62.21-1.72.43-2.12,2.73-4.8,16.34-11.55,16.34-11.55,7.45-3.7,9.86-5.2,10.17-4.76Z"/>
    <path class="cls-2" d="M53.53,74.51c.11.53-2.64,1.23-10.4,4.04-.7.26-14.2,5.15-19.57,3.87-.48-.11-1.81-.43-1.97-1.19-.15-.73.85-1.51,1.21-1.79,4.36-3.39,19.51-4.42,19.51-4.42,8.3-.57,11.1-1.03,11.21-.5Z"/>
    <path class="cls-2" d="M53.45,67.59c-.1.53-2.91.12-11.16-.25-.75-.03-15.09-.68-19.56-3.92-.4-.29-1.5-1.09-1.36-1.85.14-.73,1.36-1.07,1.8-1.19,5.32-1.46,19.72,3.38,19.72,3.38,7.89,2.65,10.65,3.3,10.55,3.83Z"/>
    <path class="cls-2" d="M56.03,61.18c-.29.45-2.73-1-10.21-4.5-.68-.32-13.68-6.4-16.57-11.1-.26-.42-.97-1.58-.55-2.23.41-.62,1.67-.47,2.12-.41,5.48.69,16.93,10.67,16.93,10.67,6.27,5.47,8.58,7.12,8.29,7.57Z"/>
    <path class="cls-2" d="M60.87,56.24c-.44.3-2.14-1.97-7.71-8.07-.51-.55-10.19-11.15-11.06-16.6-.08-.49-.29-1.83.35-2.27.62-.42,1.72.21,2.12.43,4.8,2.73,11.55,16.34,11.55,16.34,3.7,7.45,5.2,9.86,4.76,10.17Z"/>
    <path class="cls-2" d="M67.23,53.53c-.53.11-1.23-2.64-4.04-10.4-.26-.7-5.15-14.2-3.87-19.57.11-.48.43-1.81,1.19-1.97.73-.15,1.51.85,1.79,1.21,3.39,4.36,4.42,19.51,4.42,19.51.57,8.3,1.03,11.1.5,11.21Z"/>
    <path class="cls-2" d="M74.14,53.45c-.53-.1-.12-2.91.25-11.16.03-.75.68-15.09,3.92-19.56.29-.4,1.09-1.5,1.85-1.36.73.14,1.07,1.36,1.19,1.8,1.46,5.32-3.38,19.72-3.38,19.72-2.65,7.89-3.3,10.65-3.83,10.55Z"/>
    <path class="cls-2" d="M80.55,56.03c-.45-.29,1-2.73,4.5-10.21.32-.68,6.4-13.68,11.1-16.57.42-.26,1.58-.97,2.23-.55.62.41.47,1.67.41,2.12-.69,5.48-10.67,16.93-10.67,16.93-5.47,6.27-7.12,8.58-7.57,8.29Z"/>
    <path class="cls-2" d="M85.49,60.87c-.3-.44,1.97-2.14,8.07-7.71.55-.51,11.15-10.19,16.6-11.06.49-.08,1.83-.29,2.27.35.42.62-.21,1.72-.43,2.12-2.73,4.8-16.34,11.55-16.34,11.55-7.45,3.7-9.86,5.2-10.17,4.76Z"/>
    <path class="cls-2" d="M88.21,67.22c-.11-.53,2.64-1.23,10.4-4.04.7-.26,14.2-5.15,19.57-3.87.48.11,1.81.43,1.97,1.19.15.73-.85,1.51-1.21,1.79-4.36,3.39-19.51,4.42-19.51,4.42-8.3.57-11.1,1.03-11.21.5Z"/>
    <path class="cls-2" d="M88.28,74.14c.1-.53,2.91-.12,11.16.25.75.03,15.09.68,19.56,3.92.4.29,1.5,1.09,1.36,1.85-.14.73-1.36,1.07-1.8,1.19-5.32,1.46-19.72-3.38-19.72-3.38-7.89-2.65-10.65-3.3-10.55-3.83Z"/>
    <path class="cls-2" d="M85.7,80.55c.29-.45,2.73,1,10.21,4.5.68.32,13.68,6.4,16.57,11.1.26.42.97,1.58.55,2.23-.41.62-1.67.47-2.12.41-5.48-.69-16.93-10.67-16.93-10.67-6.27-5.47-8.58-7.12-8.29-7.57Z"/>
    <path class="cls-2" d="M80.87,85.49c.44-.3,2.14,1.97,7.71,8.07.51.55,10.19,11.15,11.06,16.6.08.49.29,1.83-.35,2.27-.62.42-1.72-.21-2.12-.43-4.8-2.73-11.55-16.34-11.55-16.34-3.7-7.45-5.2-9.86-4.76-10.17Z"/>
    <path class="cls-2" d="M74.51,88.2c.53-.11,1.23,2.64,4.04,10.4.26.7,5.15,14.2,3.87,19.57-.11.48-.43,1.81-1.19,1.97-.73.15-1.51-.85-1.79-1.21-3.39-4.36-4.42-19.51-4.42-19.51-.57-8.3-1.03-11.1-.5-11.21Z"/>
  </g>
  <g>
    <g id="_x3C_径向重复_x3E_">
      <path class="cls-1" d="M54.33,111.04c.2.08-.19,1.17-1,4.42-.07.29-1.49,5.95-3.14,7.46-.15.14-.55.51-.85.39-.28-.11-.32-.63-.33-.81-.15-2.24,2.94-7.57,2.94-7.57,1.69-2.92,2.17-3.97,2.37-3.89Z"/>
    </g>
    <g id="_x3C_径向重复_x3E_-2" data-name="_x3C_径向重复_x3E_">
      <path class="cls-1" d="M40.21,101.65c.16.15-.62,1.01-2.62,3.7-.18.24-3.65,4.93-5.76,5.7-.19.07-.71.26-.93.04-.22-.21-.05-.7,0-.88.72-2.12,5.61-5.87,5.61-5.87,2.68-2.05,3.53-2.84,3.68-2.68Z"/>
    </g>
    <g id="_x3C_径向重复_x3E_-3" data-name="_x3C_径向重复_x3E_">
      <path class="cls-1" d="M30.76,87.58c.08.2-.96.69-3.83,2.42-.26.16-5.26,3.15-7.5,3.06-.2,0-.75-.03-.88-.32-.12-.28.22-.67.34-.81,1.47-1.69,7.43-3.28,7.43-3.28,3.26-.87,4.34-1.27,4.43-1.07Z"/>
    </g>
    <g id="_x3C_径向重复_x3E_-4" data-name="_x3C_径向重复_x3E_">
      <path class="cls-1" d="M27.42,70.96c0,.22-1.15.27-4.46.77-.3.04-6.07.9-8.1-.04-.18-.08-.68-.32-.69-.63,0-.3.46-.53.63-.61,2.01-1,8.12-.18,8.12-.18,3.35.45,4.5.49,4.5.71Z"/>
    </g>
    <g id="_x3C_径向重复_x3E_-5" data-name="_x3C_径向重复_x3E_">
      <path class="cls-1" d="M30.69,54.33c-.08.2-1.17-.19-4.42-1-.29-.07-5.95-1.49-7.46-3.14-.14-.15-.51-.55-.39-.85.11-.28.63-.32.81-.33,2.24-.15,7.57,2.94,7.57,2.94,2.92,1.69,3.97,2.17,3.89,2.37Z"/>
    </g>
    <g id="_x3C_径向重复_x3E_-6" data-name="_x3C_径向重复_x3E_">
      <path class="cls-1" d="M40.08,40.21c-.15.16-1.01-.62-3.7-2.62-.24-.18-4.93-3.65-5.7-5.76-.07-.19-.26-.71-.04-.93.21-.22.7-.05.88,0,2.12.72,5.87,5.61,5.87,5.61,2.05,2.68,2.84,3.53,2.68,3.68Z"/>
    </g>
    <g id="_x3C_径向重复_x3E_-7" data-name="_x3C_径向重复_x3E_">
      <path class="cls-1" d="M54.15,30.76c-.2.08-.69-.96-2.42-3.83-.16-.26-3.15-5.26-3.06-7.5,0-.2.03-.75.32-.88.28-.12.67.22.81.34,1.69,1.47,3.28,7.43,3.28,7.43.87,3.26,1.27,4.34,1.07,4.43Z"/>
    </g>
    <g id="_x3C_径向重复_x3E_-8" data-name="_x3C_径向重复_x3E_">
      <path class="cls-1" d="M70.77,27.42c-.22,0-.27-1.15-.77-4.46-.04-.3-.9-6.07.04-8.1.08-.18.32-.68.63-.69.3,0,.53.46.61.63,1,2.01.18,8.12.18,8.12-.45,3.35-.49,4.5-.71,4.5Z"/>
    </g>
    <g id="_x3C_径向重复_x3E_-9" data-name="_x3C_径向重复_x3E_">
      <path class="cls-1" d="M87.41,30.69c-.2-.08.19-1.17,1-4.42.07-.29,1.49-5.95,3.14-7.46.15-.14.55-.51.85-.39.28.11.32.63.33.81.15,2.24-2.94,7.57-2.94,7.57-1.69,2.92-2.17,3.97-2.37,3.89Z"/>
    </g>
    <g id="_x3C_径向重复_x3E_-10" data-name="_x3C_径向重复_x3E_">
      <path class="cls-1" d="M101.52,40.08c-.16-.15.62-1.01,2.62-3.7.18-.24,3.65-4.93,5.76-5.7.19-.07.71-.26.93-.04.22.21.05.7,0,.88-.72,2.12-5.61,5.87-5.61,5.87-2.68,2.05-3.53,2.84-3.68,2.68Z"/>
    </g>
    <g id="_x3C_径向重复_x3E_-11" data-name="_x3C_径向重复_x3E_">
      <path class="cls-1" d="M110.97,54.15c-.08-.2.96-.69,3.83-2.42.26-.16,5.26-3.15,7.5-3.06.2,0,.75.03.88.32.12.28-.22.67-.34.81-1.47,1.69-7.43,3.28-7.43,3.28-3.26.87-4.34,1.27-4.43,1.07Z"/>
    </g>
    <g id="_x3C_径向重复_x3E_-12" data-name="_x3C_径向重复_x3E_">
      <path class="cls-1" d="M114.31,70.77c0-.22,1.15-.27,4.46-.77.3-.04,6.07-.9,8.1.04.18.08.68.32.69.63,0,.3-.46.53-.63.61-2.01,1-8.12.18-8.12.18-3.35-.45-4.5-.49-4.5-.71Z"/>
    </g>
    <g id="_x3C_径向重复_x3E_-13" data-name="_x3C_径向重复_x3E_">
      <path class="cls-1" d="M111.04,87.41c.08-.2,1.17.19,4.42,1,.29.07,5.95,1.49,7.46,3.14.14.15.51.55.39.85-.11.28-.63.32-.81.33-2.24.15-7.57-2.94-7.57-2.94-2.92-1.69-3.97-2.17-3.89-2.37Z"/>
    </g>
    <g id="_x3C_径向重复_x3E_-14" data-name="_x3C_径向重复_x3E_">
      <path class="cls-1" d="M101.65,101.52c.15-.16,1.01.62,3.7,2.62.24.18,4.93,3.65,5.7,5.76.07.19.26.71.04.93-.21.22-.7.05-.88,0-2.12-.72-5.87-5.61-5.87-5.61-2.05-2.68-2.84-3.53-2.68-3.68Z"/>
    </g>
    <g id="_x3C_径向重复_x3E_-15" data-name="_x3C_径向重复_x3E_">
      <path class="cls-1" d="M87.58,110.97c.2-.08.69.96,2.42,3.83.16.26,3.15,5.26,3.06,7.5,0,.2-.03.75-.32.88-.28.12-.67-.22-.81-.34-1.69-1.47-3.28-7.43-3.28-7.43-.87-3.26-1.27-4.34-1.07-4.43Z"/>
    </g>
    <g id="_x3C_径向重复_x3E_-16" data-name="_x3C_径向重复_x3E_">
      <path class="cls-1" d="M70.96,114.31c.22,0,.27,1.15.77,4.46.04.3.9,6.07-.04,8.1-.08.18-.32.68-.63.69-.3,0-.53-.46-.61-.63-1-2.01-.18-8.12-.18-8.12.45-3.35.49-4.5.71-4.5Z"/>
    </g>
  </g>
</svg>