<?xml version="1.0" encoding="UTF-8"?>
<svg id="_图层_1" data-name="图层_1" xmlns="http://www.w3.org/2000/svg" viewBox="0 0 141.73 141.73">
  <defs>
    <style>
      .cls-1 {
        fill: #71b92b;
      }

      .cls-2 {
        fill: #d3da7e;
      }

      .cls-3 {
        fill: #98c734;
      }
    </style>
  </defs>
  <g>
    <path class="cls-2" d="M70.87,127.56c-1.15,0-2.05-1.59-1.94-3.44.68-23.96,1.33-34.36,1.94-34.36s1.27,10.41,1.94,34.36c.1,1.85-.8,3.44-1.94,3.44Z"/>
    <path class="cls-2" d="M50.3,123.7c-1.07-.42-1.34-2.23-.58-3.91,9.25-22.09,13.6-31.56,14.17-31.34s-2.56,10.16-10.55,32.75c-.57,1.76-1.98,2.92-3.05,2.5Z"/>
    <path class="cls-2" d="M32.51,112.64c-.85-.78-.45-2.56.87-3.85,16.57-17.25,24.03-24.5,24.49-24.08.46.42-6.05,8.55-21.62,26.71-1.16,1.43-2.89,2-3.74,1.23Z"/>
    <path class="cls-2" d="M19.9,95.87c-.51-1.03.51-2.55,2.2-3.28,21.66-10.07,31.22-14.13,31.5-13.57s-8.71,5.78-29.77,17.06c-1.6.92-3.42.82-3.93-.22Z"/>
    <path class="cls-2" d="M14.18,75.66c-.11-1.15,1.39-2.19,3.23-2.26,23.82-1.53,34.2-1.84,34.25-1.23s-10.2,2.23-33.9,5.11c-1.82.27-3.48-.48-3.59-1.63Z"/>
    <path class="cls-2" d="M16.11,54.74c.31-1.11,2.08-1.54,3.82-.94,22.76,7.21,32.55,10.69,32.38,11.28-.17.6-10.31-1.63-33.45-7.53-1.8-.4-3.07-1.71-2.76-2.82Z"/>
    <path class="cls-2" d="M25.43,35.94c.69-.92,2.5-.68,3.9.51,18.63,14.98,26.51,21.77,26.14,22.27s-9.03-5.26-28.48-19.15c-1.53-1.03-2.25-2.71-1.56-3.63Z"/>
    <path class="cls-2" d="M40.9,21.78h0c.98-.61,2.58.27,3.45,1.89,11.98,20.73,16.89,29.92,16.36,30.24s-6.53-8.18-19.67-28.19c-1.06-1.51-1.13-3.34-.15-3.95Z"/>
    <path class="cls-2" d="M60.41,14.19h0c1.13-.21,2.3,1.19,2.54,3.02,3.72,23.67,4.98,34.02,4.38,34.14-.61.11-3.15-10-8.2-33.42-.44-1.79.15-3.53,1.28-3.74Z"/>
    <path class="cls-2" d="M81.33,14.19h0c1.13.21,1.72,1.94,1.28,3.74-5.05,23.42-7.59,33.53-8.2,33.42-.61-.11.66-10.46,4.38-34.14.24-1.83,1.41-3.23,2.54-3.02Z"/>
    <path class="cls-2" d="M100.84,21.78c.98.61.91,2.44-.15,3.95-13.14,20.01-19.14,28.52-19.67,28.19s4.38-9.52,16.36-30.24c.88-1.62,2.48-2.5,3.45-1.89Z"/>
    <path class="cls-2" d="M116.3,35.94h0c.69.92-.03,2.6-1.56,3.63-19.45,13.89-28.11,19.65-28.48,19.15s7.51-7.29,26.14-22.27c1.4-1.2,3.21-1.43,3.9-.51Z"/>
    <path class="cls-2" d="M125.62,54.75c.31,1.11-.96,2.41-2.76,2.82-23.13,5.9-33.28,8.12-33.45,7.53s9.62-4.07,32.38-11.28c1.74-.61,3.51-.17,3.82.94Z"/>
    <path class="cls-2" d="M127.55,75.66h0c-.11,1.15-1.77,1.9-3.59,1.63-23.69-2.89-33.95-4.5-33.9-5.11s10.44-.31,34.25,1.23c1.84.07,3.33,1.11,3.23,2.26Z"/>
    <path class="cls-2" d="M121.83,95.87c-.51,1.03-2.33,1.13-3.93.22-21.05-11.29-30.04-16.51-29.77-17.06s9.84,3.5,31.5,13.57c1.69.73,2.71,2.25,2.2,3.28Z"/>
    <path class="cls-2" d="M109.22,112.64c-.85.78-2.58.21-3.74-1.23-15.57-18.16-22.07-26.29-21.62-26.71s7.92,6.83,24.49,24.08c1.32,1.29,1.72,3.08.87,3.85Z"/>
    <path class="cls-2" d="M91.43,123.7c-1.07.42-2.48-.74-3.05-2.5-7.99-22.59-11.13-32.52-10.55-32.75.58-.22,4.92,9.25,14.17,31.34.76,1.68.49,3.49-.58,3.91Z"/>
  </g>
  <g>
    <path class="cls-1" d="M70.87,15.34c.74,0,1.32,1.02,1.25,2.21-.44,15.4-.85,22.09-1.25,22.09s-.81-6.69-1.25-22.09c-.07-1.19.51-2.21,1.25-2.21Z"/>
    <path class="cls-1" d="M91.01,19.12c.69.27.86,1.43.37,2.51-5.95,14.2-8.74,20.29-9.11,20.15s1.65-6.53,6.78-21.05c.36-1.13,1.27-1.87,1.96-1.61Z"/>
    <path class="cls-1" d="M108.43,29.95c.55.5.29,1.65-.56,2.48-10.66,11.09-15.45,15.75-15.75,15.48s3.89-5.5,13.9-17.17c.75-.92,1.86-1.29,2.41-.79Z"/>
    <path class="cls-1" d="M120.78,46.38c.33.66-.33,1.64-1.41,2.11-13.92,6.47-20.07,9.08-20.25,8.72-.18-.36,5.6-3.71,19.14-10.97,1.03-.59,2.2-.53,2.53.14Z"/>
    <path class="cls-1" d="M126.39,66.17c.07.74-.89,1.41-2.08,1.45-15.31.99-21.99,1.19-22.02.79s6.56-1.43,21.79-3.29c1.17-.18,2.24.31,2.31,1.05Z"/>
    <path class="cls-1" d="M124.5,86.66c-.2.71-1.34.99-2.46.6-14.63-4.64-20.93-6.87-20.82-7.25s6.63,1.04,21.5,4.84c1.15.26,1.98,1.1,1.77,1.81Z"/>
    <path class="cls-1" d="M115.37,105.08c-.44.59-1.61.44-2.51-.33-11.98-9.63-17.04-14-16.8-14.32s5.81,3.38,18.31,12.31c.98.66,1.45,1.74,1,2.33Z"/>
    <path class="cls-1" d="M100.22,118.94c-.63.39-1.66-.17-2.22-1.22-7.7-13.33-10.86-19.24-10.52-19.45.34-.21,4.2,5.26,12.64,18.12.68.97.72,2.15.1,2.54Z"/>
    <path class="cls-1" d="M81.11,126.38c-.73.14-1.48-.76-1.63-1.94-2.39-15.22-3.2-21.87-2.81-21.95s2.02,6.43,5.27,21.49c.28,1.15-.1,2.27-.82,2.4Z"/>
    <path class="cls-1" d="M60.62,126.38c-.73-.14-1.11-1.25-.82-2.4,3.25-15.06,4.88-21.56,5.27-21.49s-.42,6.73-2.81,21.95c-.15,1.18-.91,2.08-1.63,1.94Z"/>
    <path class="cls-1" d="M41.51,118.94c-.63-.39-.58-1.57.1-2.54,8.44-12.87,12.31-18.33,12.64-18.12s-2.82,6.12-10.52,19.45c-.56,1.04-1.59,1.61-2.22,1.22Z"/>
    <path class="cls-1" d="M26.37,105.08c-.44-.59.02-1.67,1-2.33,12.5-8.93,18.07-12.63,18.31-12.31s-4.83,4.68-16.8,14.32c-.9.77-2.06.92-2.51.33Z"/>
    <path class="cls-1" d="M17.23,86.66c-.2-.71.62-1.55,1.77-1.81,14.87-3.79,21.39-5.22,21.5-4.84.11.38-6.19,2.62-20.82,7.25-1.12.39-2.26.11-2.46-.6Z"/>
    <path class="cls-1" d="M15.34,66.17c.07-.74,1.14-1.22,2.31-1.05,15.23,1.86,21.83,2.89,21.79,3.29s-6.71.2-22.02-.79c-1.18-.04-2.14-.72-2.08-1.45Z"/>
    <path class="cls-1" d="M20.95,46.38c.33-.66,1.5-.73,2.53-.14,13.54,7.26,19.31,10.61,19.14,10.97s-6.33-2.25-20.25-8.72c-1.09-.47-1.74-1.44-1.41-2.11Z"/>
    <path class="cls-1" d="M33.3,29.95c.55-.5,1.66-.13,2.41.79,10.01,11.68,14.19,16.9,13.9,17.17s-5.09-4.39-15.75-15.48c-.85-.83-1.1-1.98-.56-2.48Z"/>
    <path class="cls-1" d="M50.72,19.12c.69-.27,1.6.48,1.96,1.61,5.13,14.52,7.15,20.91,6.78,21.06-.37.14-3.17-5.94-9.11-20.15-.49-1.08-.32-2.25.37-2.51Z"/>
  </g>
  <g>
    <ellipse class="cls-3" cx="70.87" cy="52.54" rx="2.22" ry="11.25"/>
    <ellipse class="cls-3" cx="77.55" cy="53.8" rx="11.24" ry="2.22" transform="translate(-.55 106.79) rotate(-68.91)"/>
    <ellipse class="cls-3" cx="83.33" cy="57.39" rx="11.22" ry="2.22" transform="translate(-15.17 80.53) rotate(-47.78)"/>
    <ellipse class="cls-3" cx="87.42" cy="62.84" rx="11.21" ry="2.22" transform="translate(-18.87 45.75) rotate(-26.57)"/>
    <ellipse class="cls-3" cx="89.28" cy="69.4" rx="11.2" ry="2.23" transform="translate(-6.05 8.57) rotate(-5.32)"/>
    <ellipse class="cls-3" cx="88.66" cy="76.2" rx="2.22" ry="11.2" transform="translate(-8.97 140.5) rotate(-74.05)"/>
    <ellipse class="cls-3" cx="85.63" cy="82.31" rx="2.22" ry="11.22" transform="translate(-31.7 100.78) rotate(-52.82)"/>
    <ellipse class="cls-3" cx="80.6" cy="86.91" rx="2.22" ry="11.23" transform="translate(-33.61 55.22) rotate(-31.65)"/>
    <ellipse class="cls-3" cx="74.26" cy="89.37" rx="2.22" ry="11.24" transform="translate(-15.1 15.1) rotate(-10.54)"/>
    <ellipse class="cls-3" cx="67.47" cy="89.37" rx="11.24" ry="2.22" transform="translate(-32.74 139.35) rotate(-79.46)"/>
    <ellipse class="cls-3" cx="61.13" cy="86.91" rx="11.23" ry="2.22" transform="translate(-44.93 93.34) rotate(-58.35)"/>
    <ellipse class="cls-3" cx="56.11" cy="82.31" rx="11.22" ry="2.22" transform="translate(-38.34 50.64) rotate(-37.18)"/>
    <ellipse class="cls-3" cx="53.08" cy="76.2" rx="11.2" ry="2.22" transform="translate(-18.9 17.52) rotate(-15.95)"/>
    <ellipse class="cls-3" cx="52.45" cy="69.4" rx="2.23" ry="11.2" transform="translate(-21.52 115.19) rotate(-84.68)"/>
    <ellipse class="cls-3" cx="54.31" cy="62.84" rx="2.22" ry="11.21" transform="translate(-26.19 83.3) rotate(-63.43)"/>
    <ellipse class="cls-3" cx="58.41" cy="57.39" rx="2.22" ry="11.22" transform="translate(-23.41 54.14) rotate(-42.22)"/>
    <ellipse class="cls-3" cx="64.18" cy="53.8" rx="2.22" ry="11.24" transform="translate(-15.06 26.7) rotate(-21.09)"/>
  </g>
</svg>