<?xml version="1.0" encoding="UTF-8"?>
<svg id="_图层_1" data-name="图层_1" xmlns="http://www.w3.org/2000/svg" viewBox="0 0 595.28 419.53">
  <defs>
    <style>
      .cls-1 {
        fill: #71b92b;
      }

      .cls-2 {
        fill: #d3da7e;
      }

      .cls-3 {
        fill: #98c734;
      }
    </style>
  </defs>
  <g>
    <path class="cls-2" d="M299.56,359.76c-3.04,0-5.42-4.21-5.14-9.09,1.79-63.39,3.51-90.92,5.14-90.92s3.35,27.54,5.14,90.92c.28,4.88-2.11,9.09-5.14,9.09Z"/>
    <path class="cls-2" d="M245.15,349.55c-2.83-1.1-3.54-5.89-1.52-10.34,24.47-58.46,35.98-83.51,37.5-82.92,1.52.59-6.78,26.89-27.91,86.65-1.5,4.65-5.23,7.72-8.07,6.61Z"/>
    <path class="cls-2" d="M198.08,320.29c-2.24-2.05-1.18-6.78,2.3-10.2,43.85-45.63,63.59-64.82,64.8-63.71,1.21,1.11-16,22.62-57.2,70.67-3.07,3.8-7.66,5.3-9.9,3.24Z"/>
    <path class="cls-2" d="M164.72,275.93c-1.35-2.73,1.34-6.75,5.81-8.68,57.3-26.64,82.62-37.37,83.34-35.91.73,1.47-23.05,15.29-78.76,45.15-4.23,2.42-9.04,2.16-10.4-.57Z"/>
    <path class="cls-2" d="M149.57,222.46c-.28-3.04,3.68-5.81,8.54-5.98,63.02-4.06,90.48-4.88,90.63-3.25.15,1.63-27,5.89-89.68,13.53-4.82.73-9.21-1.27-9.49-4.3Z"/>
    <path class="cls-2" d="M154.68,167.11c.83-2.93,5.52-4.08,10.12-2.48,60.22,19.08,86.13,28.27,85.68,29.85-.45,1.58-27.29-4.3-88.49-19.92-4.75-1.07-8.13-4.52-7.3-7.46Z"/>
    <path class="cls-2" d="M179.35,117.35c1.83-2.43,6.61-1.8,10.33,1.36,49.29,39.64,70.14,57.6,69.16,58.91s-23.9-13.91-75.35-50.67c-4.05-2.72-5.96-7.17-4.13-9.6Z"/>
    <path class="cls-2" d="M220.26,79.9h0c2.58-1.61,6.81.72,9.14,5.01,31.71,54.84,44.68,79.16,43.29,80.02s-17.28-21.64-52.04-74.59c-2.79-4.01-2.98-8.84-.4-10.45Z"/>
    <path class="cls-2" d="M271.88,59.82h0c2.99-.56,6.1,3.14,6.72,7.99,9.84,62.64,13.19,90.02,11.58,90.32-1.61.3-8.33-26.45-21.69-88.43-1.16-4.75.41-9.33,3.39-9.89Z"/>
    <path class="cls-2" d="M327.24,59.82h0c2.99.56,4.56,5.14,3.39,9.89-13.36,61.98-20.09,88.73-21.69,88.43-1.61-.3,1.75-27.69,11.58-90.32.62-4.85,3.73-8.55,6.72-7.99Z"/>
    <path class="cls-2" d="M378.86,79.9c2.58,1.61,2.4,6.44-.39,10.45-34.75,52.94-50.65,75.45-52.04,74.59s11.59-25.18,43.29-80.02c2.32-4.3,6.56-6.62,9.14-5.01Z"/>
    <path class="cls-2" d="M419.76,117.35h0c1.83,2.43-.08,6.88-4.13,9.6-51.45,36.76-74.37,51.98-75.35,50.67s19.86-19.28,69.16-58.91c3.71-3.16,8.5-3.79,10.33-1.36Z"/>
    <path class="cls-2" d="M444.44,167.11c.83,2.93-2.55,6.39-7.3,7.46-61.2,15.62-88.05,21.49-88.49,19.92s25.46-10.77,85.68-29.85c4.6-1.6,9.29-.46,10.12,2.48Z"/>
    <path class="cls-2" d="M449.54,222.46h0c-.28,3.04-4.68,5.03-9.49,4.3-62.69-7.64-89.83-11.9-89.68-13.53s27.61-.81,90.63,3.25c4.87.17,8.82,2.94,8.54,5.98Z"/>
    <path class="cls-2" d="M434.39,275.93c-1.35,2.73-6.17,2.99-10.4.57-55.71-29.86-79.49-43.68-78.76-45.15.73-1.47,26.04,9.26,83.34,35.91,4.48,1.93,7.17,5.95,5.81,8.68Z"/>
    <path class="cls-2" d="M401.04,320.29c-2.24,2.05-6.83.55-9.9-3.24-41.2-48.06-58.41-69.57-57.2-70.67,1.21-1.11,20.95,18.08,64.8,63.71,3.48,3.42,4.54,8.14,2.3,10.2Z"/>
    <path class="cls-2" d="M353.97,349.55c-2.83,1.1-6.57-1.96-8.07-6.61-21.13-59.76-29.44-86.06-27.91-86.65,1.52-.59,13.03,24.46,37.5,82.92,2.01,4.45,1.31,9.24-1.52,10.34Z"/>
  </g>
  <g>
    <path class="cls-1" d="M299.56,62.85c1.95,0,3.48,2.71,3.31,5.85-1.15,40.75-2.26,58.46-3.31,58.46s-2.15-17.7-3.31-58.46c-.18-3.14,1.35-5.85,3.31-5.85Z"/>
    <path class="cls-1" d="M352.86,72.85c1.82.71,2.27,3.79.98,6.65-15.73,37.58-23.13,53.69-24.11,53.31-.98-.38,4.36-17.29,17.95-55.71.96-2.99,3.37-4.96,5.19-4.25Z"/>
    <path class="cls-1" d="M398.96,101.52c1.44,1.32.76,4.36-1.48,6.56-28.19,29.34-40.88,41.67-41.66,40.96s10.29-14.54,36.77-45.44c1.97-2.44,4.92-3.4,6.37-2.08Z"/>
    <path class="cls-1" d="M431.63,144.97c.87,1.76-.86,4.34-3.74,5.58-36.84,17.13-53.11,24.03-53.58,23.08-.47-.94,14.82-9.83,50.64-29.03,2.72-1.56,5.81-1.39,6.69.37Z"/>
    <path class="cls-1" d="M446.47,197.34c.18,1.95-2.36,3.73-5.49,3.85-40.52,2.61-58.17,3.14-58.27,2.09-.1-1.05,17.36-3.79,57.66-8.7,3.1-.47,5.92.81,6.1,2.77Z"/>
    <path class="cls-1" d="M441.47,251.55c-.53,1.89-3.55,2.62-6.5,1.59-38.72-12.27-55.37-18.18-55.09-19.19s17.55,2.76,56.89,12.8c3.06.69,5.23,2.91,4.7,4.79Z"/>
    <path class="cls-1" d="M417.3,300.29c-1.18,1.56-4.25,1.16-6.64-.87-31.69-25.48-45.1-37.04-44.46-37.88.63-.84,15.37,8.94,48.45,32.58,2.6,1.75,3.83,4.61,2.65,6.17Z"/>
    <path class="cls-1" d="M377.23,336.97c-1.66,1.03-4.38-.46-5.88-3.22-20.38-35.26-28.73-50.89-27.83-51.45.89-.56,11.11,13.91,33.46,47.95,1.8,2.58,1.91,5.69.25,6.72Z"/>
    <path class="cls-1" d="M326.67,356.64c-1.92.36-3.92-2.02-4.32-5.14-6.32-40.27-8.48-57.88-7.45-58.07,1.03-.19,5.36,17,13.95,56.85.75,3.05-.26,6-2.18,6.36Z"/>
    <path class="cls-1" d="M272.45,356.64c-1.92-.36-2.93-3.3-2.18-6.36,8.59-39.85,12.91-57.04,13.95-56.85,1.03.19-1.12,17.8-7.45,58.07-.4,3.12-2.4,5.5-4.32,5.14Z"/>
    <path class="cls-1" d="M221.89,336.97c-1.66-1.03-1.54-4.14.25-6.72,22.34-34.04,32.56-48.51,33.46-47.95s-7.45,16.19-27.83,51.45c-1.49,2.76-4.22,4.26-5.88,3.22Z"/>
    <path class="cls-1" d="M181.82,300.29c-1.18-1.56.05-4.42,2.65-6.17,33.08-23.64,47.81-33.42,48.45-32.58.63.84-12.77,12.39-44.46,37.88-2.39,2.03-5.46,2.44-6.64.87Z"/>
    <path class="cls-1" d="M157.65,251.55c-.53-1.89,1.64-4.11,4.7-4.79,39.35-10.04,56.61-13.82,56.89-12.8.29,1.01-16.37,6.93-55.09,19.19-2.96,1.03-5.97.29-6.5-1.59Z"/>
    <path class="cls-1" d="M152.65,197.34c.18-1.95,3.01-3.23,6.1-2.77,40.3,4.91,57.76,7.65,57.66,8.7-.1,1.05-17.75.52-58.27-2.09-3.13-.11-5.67-1.89-5.49-3.85Z"/>
    <path class="cls-1" d="M167.49,144.97c.87-1.76,3.97-1.92,6.69-.37,35.81,19.2,51.1,28.08,50.64,29.03-.47.94-16.74-5.96-53.58-23.08-2.88-1.24-4.61-3.82-3.74-5.58Z"/>
    <path class="cls-1" d="M200.16,101.52c1.44-1.32,4.39-.36,6.37,2.08,26.49,30.9,37.55,44.73,36.77,45.44-.78.71-13.47-11.63-41.66-40.96-2.24-2.2-2.92-5.24-1.48-6.56Z"/>
    <path class="cls-1" d="M246.26,72.86c1.82-.71,4.22,1.26,5.19,4.25,13.59,38.42,18.93,55.33,17.95,55.71-.98.38-8.38-15.73-24.11-53.31-1.29-2.86-.84-5.94.98-6.65Z"/>
  </g>
  <g>
    <ellipse class="cls-3" cx="299.56" cy="161.28" rx="5.86" ry="29.76"/>
    <ellipse class="cls-3" cx="317.24" cy="164.6" rx="29.74" ry="5.87" transform="translate(49.51 401.36) rotate(-68.91)"/>
    <ellipse class="cls-3" cx="332.53" cy="174.11" rx="29.7" ry="5.88" transform="translate(-19.87 303.35) rotate(-47.78)"/>
    <ellipse class="cls-3" cx="343.37" cy="188.52" rx="29.66" ry="5.88" transform="translate(-48.06 173.52) rotate(-26.57)"/>
    <ellipse class="cls-3" cx="348.29" cy="205.89" rx="29.63" ry="5.89" transform="translate(-17.58 33.17) rotate(-5.32)"/>
    <ellipse class="cls-3" cx="346.63" cy="223.87" rx="5.89" ry="29.64" transform="translate(36.12 495.63) rotate(-74.05)"/>
    <ellipse class="cls-3" cx="338.61" cy="240.04" rx="5.88" ry="29.68" transform="translate(-57.28 364.74) rotate(-52.82)"/>
    <ellipse class="cls-3" cx="325.32" cy="252.21" rx="5.87" ry="29.72" transform="translate(-83.95 208.21) rotate(-31.65)"/>
    <ellipse class="cls-3" cx="308.55" cy="258.73" rx="5.86" ry="29.75" transform="translate(-42.13 60.82) rotate(-10.54)"/>
    <ellipse class="cls-3" cx="290.57" cy="258.73" rx="29.75" ry="5.86" transform="translate(-16.96 497.06) rotate(-79.46)"/>
    <ellipse class="cls-3" cx="273.8" cy="252.21" rx="29.72" ry="5.87" transform="translate(-84.57 352.95) rotate(-58.35)"/>
    <ellipse class="cls-3" cx="260.51" cy="240.04" rx="29.68" ry="5.88" transform="translate(-92.11 206.24) rotate(-37.18)"/>
    <ellipse class="cls-3" cx="252.49" cy="223.87" rx="29.64" ry="5.89" transform="translate(-51.8 78.01) rotate(-15.95)"/>
    <ellipse class="cls-3" cx="250.83" cy="205.89" rx="5.89" ry="29.63" transform="translate(22.58 436.56) rotate(-84.68)"/>
    <ellipse class="cls-3" cx="255.75" cy="188.52" rx="5.88" ry="29.66" transform="translate(-27.26 332.92) rotate(-63.43)"/>
    <ellipse class="cls-3" cx="266.59" cy="174.11" rx="5.88" ry="29.7" transform="translate(-47.83 224.33) rotate(-42.22)"/>
    <ellipse class="cls-3" cx="281.88" cy="164.6" rx="5.87" ry="29.74" transform="translate(-40.35 112.45) rotate(-21.09)"/>
  </g>
</svg>