<?xml version="1.0" encoding="UTF-8"?>
<svg id="_图层_1" data-name="图层_1" xmlns="http://www.w3.org/2000/svg" viewBox="0 0 141.73 141.73">
  <defs>
    <style>
      .cls-1 {
        fill: #8c71af;
      }

      .cls-2 {
        fill: #b097c6;
      }

      .cls-3 {
        fill: #cdb9d9;
      }

      .cls-4 {
        fill: #5f3790;
      }
    </style>
  </defs>
  <path class="cls-4" d="M125.55,70.87c0,1.28-26.49,1.35-26.6,2.61-.12,1.28,25.91,6.15,25.68,7.39s-26.29-3.52-26.63-2.3c-.35,1.23,24.33,10.81,23.87,11.99s-25.18-8.3-25.75-7.17,21.91,15.09,21.24,16.17c-.67,1.08-23.21-12.78-23.98-11.77-.77,1.01,18.76,18.84,17.9,19.78-.86.94-20.47-16.79-21.41-15.94-.94.86,14.99,21.93,13.97,22.7-1.02.77-17.04-20.24-18.13-19.57-1.08.67,10.7,24.3,9.55,24.87-1.14.57-13-23.02-14.2-22.56s6.01,25.85,4.77,26.19c-1.22.35-8.5-25.02-9.76-24.78-1.25.23,1.12,26.51-.17,26.62s-3.74-26.15-5.03-26.15c-1.29,0-3.77,26.26-5.03,26.15-1.28-.12,1.08-26.39-.17-26.62-1.26-.23-8.54,25.13-9.76,24.78-1.23-.35,5.96-25.74,4.77-26.19-1.19-.46-13.06,23.12-14.2,22.56-1.15-.57,10.63-24.2,9.55-24.87-1.09-.67-17.11,20.33-18.13,19.57s14.91-21.84,13.97-22.7-20.55,16.87-21.42,15.94c-.86-.94,18.67-18.76,17.9-19.77-.77-1.01-23.31,12.85-23.98,11.77-.67-1.08,21.81-15.03,21.24-16.17-.57-1.13-25.28,8.36-25.75,7.17s24.22-10.76,23.87-11.98-26.4,3.56-26.63,2.3c-.23-1.24,25.8-6.11,25.68-7.39s-26.6-1.32-26.6-2.61,26.49-1.35,26.6-2.61-25.91-6.15-25.68-7.39c.23-1.26,26.29,3.52,26.63,2.3s-24.33-10.81-23.87-11.99,25.18,8.3,25.75,7.17c.57-1.14-21.91-15.09-21.24-16.17.67-1.08,23.21,12.78,23.98,11.77.77-1.01-18.76-18.84-17.9-19.78s20.47,16.79,21.41,15.94c.94-.86-14.99-21.93-13.97-22.7s17.04,20.24,18.13,19.57c1.08-.67-10.7-24.3-9.55-24.87s13,23.02,14.2,22.56c1.18-.46-6.01-25.85-4.77-26.19,1.22-.35,8.5,25.02,9.76,24.78s-1.12-26.51.17-26.62c1.26-.11,3.74,26.15,5.03,26.15,1.29,0,3.77-26.26,5.03-26.15s-1.08,26.39.17,26.62c1.26.23,8.54-25.13,9.76-24.78,1.23.35-5.96,25.74-4.77,26.19,1.19.46,13.06-23.12,14.2-22.56,1.15.57-10.63,24.2-9.55,24.87,1.09.67,17.11-20.33,18.13-19.57,1.02.77-14.91,21.84-13.97,22.7s20.55-16.87,21.42-15.94c.86.94-18.67,18.76-17.9,19.77s23.31-12.85,23.98-11.77-21.81,15.03-21.24,16.17,25.28-8.36,25.75-7.17c.46,1.18-24.22,10.76-23.87,11.98.35,1.22,26.4-3.56,26.63-2.3.23,1.24-25.8,6.11-25.68,7.39.12,1.25,26.6,1.32,26.6,2.61Z"/>
  <path class="cls-1" d="M109.28,29.03c1.15,1.05-7.14,11.48-6.1,12.61,1.05,1.15,12.25-6.1,13.17-4.87s-9.13,9.97-8.32,11.28,13.17-3.74,13.85-2.37c.69,1.39-10.83,8.11-10.28,9.55s13.63-1.26,14.05.22c.42,1.49-12.15,5.99-11.87,7.5.28,1.52,13.63,1.25,13.77,2.79.14,1.54-13.04,3.67-13.04,5.21,0,1.54,13.17,3.71,13.03,5.24-.14,1.53-13.49,1.23-13.78,2.75-.28,1.51,12.27,6.05,11.84,7.54-.42,1.48-13.49-1.27-14.05.17s10.94,8.2,10.24,9.58c-.69,1.37-13.02-3.74-13.84-2.42-.81,1.3,9.23,10.06,8.29,11.3-.93,1.22-12.11-6.06-13.16-4.91-1.06,1.15,7.22,11.59,6.08,12.62-1.15,1.05-10.82-8.13-12.04-7.21-1.24.94,4.96,12.71,3.65,13.51s-9.12-9.98-10.5-9.3c-1.39.69,2.52,13.4,1.08,13.95-1.45.56-7.11-11.49-8.59-11.07-1.49.42,0,13.63-1.52,13.91s-4.87-12.6-6.41-12.46-2.5,13.4-4.05,13.4c-1.55,0-2.47-13.27-4.01-13.41-1.54-.14-4.92,12.72-6.44,12.44-1.52-.28.02-13.49-1.48-13.92s-7.18,11.61-8.63,11.04c-1.44-.56,2.52-13.26,1.13-13.95-1.38-.69-9.21,10.08-10.53,9.26-1.3-.81,4.94-12.56,3.7-13.5-1.22-.92-10.91,8.23-12.06,7.18-1.15-1.05,7.14-11.48,6.1-12.61-1.05-1.15-12.25,6.1-13.17,4.87-.94-1.24,9.13-9.97,8.32-11.28-.82-1.32-13.17,3.74-13.85,2.37-.69-1.39,10.83-8.11,10.28-9.55s-13.63,1.26-14.05-.22,12.15-5.99,11.87-7.5-13.63-1.25-13.77-2.79c-.14-1.54,13.04-3.67,13.04-5.21,0-1.54-13.17-3.71-13.03-5.24.14-1.53,13.49-1.23,13.78-2.75.28-1.51-12.27-6.05-11.84-7.54s13.49,1.27,14.05-.17c.56-1.43-10.94-8.2-10.24-9.58.69-1.37,13.02,3.74,13.84,2.42.81-1.3-9.23-10.06-8.29-11.3.93-1.22,12.11,6.06,13.16,4.91,1.06-1.15-7.22-11.59-6.08-12.62,1.15-1.05,10.82,8.13,12.04,7.21,1.24-.94-4.96-12.71-3.65-13.51s9.12,9.98,10.5,9.3c1.39-.69-2.52-13.4-1.08-13.95s7.11,11.49,8.59,11.07c1.49-.42,0-13.63,1.52-13.91,1.52-.28,4.87,12.6,6.41,12.46,1.54-.14,2.5-13.4,4.05-13.4,1.55,0,2.47,13.27,4.01,13.41,1.54.14,4.92-12.72,6.44-12.44,1.52.28-.02,13.49,1.48,13.92,1.48.42,7.18-11.61,8.63-11.04,1.44.56-2.52,13.26-1.13,13.95,1.38.69,9.21-10.08,10.53-9.26,1.3.81-4.94,12.56-3.7,13.5s10.91-8.23,12.06-7.18Z"/>
  <path class="cls-2" d="M112.79,74.74c-.09.98-20.4-.85-20.58.1s19.43,6.53,19.16,7.46c-.27.94-19.9-4.55-20.25-3.64s17.88,9.97,17.45,10.84c-.44.88-18.71-8.12-19.23-7.3s15.72,13.08,15.13,13.85c-.59.78-16.89-11.4-17.55-10.68s13.04,15.71,12.31,16.37c-.73.66-14.5-14.27-15.28-13.68-.78.59,9.93,17.81,9.09,18.32-.83.51-11.62-16.66-12.5-16.22s6.47,19.31,5.55,19.66-8.33-18.49-9.28-18.23c-.94.27,2.77,20.16,1.8,20.34-.96.18-4.74-19.7-5.72-19.61-.97.09-1.03,20.31-2.02,20.31s-1.01-20.23-2-20.32c-.99-.09-4.76,19.78-5.72,19.6s2.71-20.07,1.77-20.34c-.95-.27-8.34,18.58-9.25,18.23-.92-.35,6.4-19.23,5.53-19.66-.88-.44-11.66,16.72-12.49,16.21-.84-.52,9.87-17.72,9.09-18.31-.79-.59-14.57,14.31-15.29,13.65s12.99-15.62,12.33-16.34c-.66-.72-16.96,11.42-17.55,10.65s15.65-13,15.13-13.83c-.52-.83-18.78,8.15-19.22,7.28-.44-.87,17.79-9.93,17.43-10.84s-19.98,4.59-20.25,3.65,19.33-6.49,19.15-7.46c-.18-.95-20.49.84-20.58-.13-.09-.96,20.21-2.84,20.22-3.82,0-.97-20.3-2.9-20.21-3.88.09-.98,20.4.85,20.58-.1.18-.97-19.43-6.53-19.16-7.46.27-.94,19.9,4.55,20.25,3.64.36-.91-17.88-9.97-17.45-10.84.44-.88,18.71,8.12,19.23,7.3s-15.72-13.08-15.13-13.85,16.89,11.4,17.55,10.68c.66-.72-13.04-15.71-12.31-16.37.73-.66,14.5,14.27,15.28,13.68s-9.93-17.81-9.09-18.32,11.62,16.66,12.5,16.22-6.47-19.31-5.55-19.66c.91-.35,8.33,18.49,9.28,18.23s-2.77-20.16-1.8-20.34,4.74,19.7,5.72,19.61c.97-.09,1.03-20.31,2.02-20.31.97,0,1.01,20.23,2,20.32.99.09,4.76-19.78,5.72-19.6.97.18-2.71,20.07-1.77,20.34s8.34-18.58,9.25-18.23-6.4,19.23-5.53,19.66c.88.44,11.66-16.72,12.49-16.21.84.52-9.87,17.72-9.09,18.31s14.57-14.31,15.29-13.65c.73.66-12.99,15.62-12.33,16.34.66.72,16.96-11.42,17.55-10.65s-15.65,13-15.13,13.83,18.78-8.15,19.22-7.28-17.79,9.93-17.43,10.84,19.98-4.59,20.25-3.65-19.33,6.49-19.15,7.46,20.49-.84,20.58.13-20.21,2.84-20.22,3.82,20.3,2.9,20.21,3.88Z"/>
  <path class="cls-3" d="M86.38,56.83c.39.42-3.01,3.97-2.67,4.41s4.7-1.82,5-1.34c.3.49-3.69,3.35-3.44,3.85.25.51,4.95-.93,5.16-.4.21.53-4.25,2.61-4.09,3.15s5.04,0,5.14.56-4.66,1.78-4.61,2.35,4.95.92,4.95,1.49c0,.57-4.91.9-4.96,1.47-.05.57,4.7,1.81,4.6,2.36-.11.56-4.99,0-5.15.54s4.29,2.63,4.08,3.16-4.9-.92-5.16-.41c-.25.51,3.73,3.38,3.43,3.86s-4.64-1.81-4.99-1.36,3.04,4,2.65,4.42c-.38.41-4.23-2.63-4.66-2.25-.43.39,2.25,4.49,1.8,4.83s-3.69-3.35-4.17-3.05c-.49.3,1.38,4.83.88,5.08-.51.25-3-3.97-3.53-3.77s.47,5-.08,5.15c-.55.15-2.21-4.45-2.77-4.35-.56.1-.47,5-1.03,5.05-.57.05-1.35-4.78-1.92-4.78-.57,0-1.37,4.83-1.94,4.78s-.45-4.95-1.01-5.05-2.24,4.5-2.79,4.34.47-4.95-.07-5.15c-.53-.2-3.03,4.01-3.54,3.76s1.38-4.77.89-5.08c-.48-.3-3.72,3.38-4.18,3.04-.45-.34,2.24-4.44,1.82-4.82-.42-.38-4.28,2.65-4.67,2.22s3.01-3.97,2.67-4.41c-.35-.46-4.7,1.82-5,1.34-.3-.49,3.69-3.35,3.44-3.85s-4.95.93-5.16.4,4.25-2.61,4.09-3.15-5.04,0-5.14-.56,4.66-1.78,4.61-2.35-4.95-.92-4.95-1.49c0-.57,4.91-.9,4.96-1.47s-4.7-1.81-4.6-2.36c.11-.56,4.99,0,5.15-.54.16-.54-4.29-2.63-4.08-3.16.21-.53,4.9.92,5.16.41s-3.73-3.38-3.43-3.86,4.64,1.81,4.99,1.36-3.04-4-2.65-4.42,4.23,2.63,4.66,2.25-2.25-4.49-1.8-4.83,3.69,3.35,4.17,3.05-1.38-4.83-.88-5.08,3,3.97,3.53,3.77c.53-.2-.47-5,.08-5.15s2.21,4.45,2.77,4.35.47-5,1.03-5.05c.57-.05,1.35,4.78,1.92,4.78.57,0,1.37-4.83,1.94-4.78s.45,4.95,1.01,5.05,2.24-4.5,2.79-4.34-.47,4.95.07,5.15,3.03-4.01,3.54-3.76c.51.25-1.38,4.77-.89,5.08s3.72-3.38,4.18-3.04c.45.34-2.24,4.44-1.82,4.82s4.28-2.65,4.67-2.22Z"/>
</svg>