<?xml version="1.0" encoding="UTF-8"?>
<svg id="_图层_1" data-name="图层_1" xmlns="http://www.w3.org/2000/svg" viewBox="0 0 185.39 130.66">
  <defs>
    <style>
      .cls-1 {
        fill: #ea572a;
      }

      .cls-2 {
        fill: #4f82c3;
      }

      .cls-3 {
        fill: #243e96;
      }

      .cls-4 {
        fill: #f8cb78;
      }
    </style>
  </defs>
  <path class="cls-3" d="M129.33,51.87c.9,2.39-8.85,7.36-8.52,9.78.34,2.5,11.05,4.79,10.82,7.24-.24,2.49-11.2,2.79-11.99,5.15-.79,2.37,7.86,9.02,6.56,11.15-1.29,2.13-11.31-2.28-13.06-.47-1.73,1.78,3.14,11.48,1.01,12.86-2.07,1.34-9.14-6.92-11.56-6.04s-2.29,11.7-4.74,12.02c-2.53.33-5.28-10.15-7.76-10.38-2.53-.23-7.18,9.56-9.57,8.79-2.4-.78-.26-11.39-2.43-12.67-2.15-1.28-10.65,5.57-12.48,3.84-1.8-1.71,4.79-10.35,3.38-12.46-1.36-2.04-12.03.48-12.93-1.9-.9-2.39,8.85-7.36,8.52-9.78-.34-2.5-11.05-4.79-10.82-7.24.24-2.49,11.2-2.79,11.99-5.15.79-2.37-7.86-9.02-6.56-11.15,1.29-2.13,11.31,2.28,13.06.47,1.73-1.78-3.14-11.48-1.01-12.86,2.07-1.34,9.14,6.92,11.56,6.04,2.42-.89,2.29-11.7,4.74-12.02,2.53-.33,5.28,10.15,7.76,10.38,2.53.23,7.18-9.56,9.57-8.79,2.4.78.26,11.39,2.43,12.67,2.15,1.28,10.65-5.57,12.48-3.84,1.8,1.71-4.79,10.35-3.38,12.46,1.36,2.04,12.03-.48,12.93,1.9Z"/>
  <g>
    <g id="_x3C_径向重复_x3E_">
      <path class="cls-4" d="M92.7,90.64c-1.42,0-2.52-1.23-2.35-2.62.34-2.77.69-5.53,1.03-8.3.38-3.06.76-6.11,1.14-9.17.01-.09.09-.16.18-.16.08,0,.17.05.18.16l2.17,17.47c.17,1.39-.93,2.62-2.35,2.62Z"/>
    </g>
    <g id="_x3C_径向重复_x3E_-2" data-name="_x3C_径向重复_x3E_">
      <path class="cls-4" d="M85.49,89.61c-1.36-.4-2.07-1.88-1.5-3.17,1.12-2.56,2.23-5.12,3.35-7.68,1.23-2.83,2.47-5.65,3.7-8.48.04-.08.13-.13.22-.1.08.02.15.1.13.2l-2.89,17.36c-.23,1.39-1.64,2.26-3,1.86Z"/>
    </g>
    <g id="_x3C_径向重复_x3E_-3" data-name="_x3C_径向重复_x3E_">
      <path class="cls-4" d="M78.88,86.62c-1.19-.76-1.45-2.38-.54-3.46,1.8-2.14,3.6-4.29,5.4-6.43,1.99-2.37,3.97-4.74,5.96-7.1.06-.07.16-.09.24-.04.07.04.11.13.07.23l-7.72,15.85c-.62,1.27-2.21,1.71-3.41.95Z"/>
    </g>
    <g id="_x3C_径向重复_x3E_-4" data-name="_x3C_径向重复_x3E_">
      <path class="cls-4" d="M73.38,81.9c-.93-1.06-.71-2.69.47-3.47,2.34-1.56,4.67-3.11,7.01-4.67,2.58-1.72,5.16-3.44,7.74-5.15.08-.05.18-.04.24.03.05.06.07.16,0,.24l-11.91,13.06c-.95,1.04-2.61,1.03-3.54-.04Z"/>
    </g>
    <g id="_x3C_径向重复_x3E_-5" data-name="_x3C_径向重复_x3E_">
      <path class="cls-4" d="M69.44,75.84c-.59-1.28.08-2.78,1.44-3.2,2.68-.84,5.37-1.68,8.05-2.52,2.96-.93,5.93-1.86,8.89-2.78.09-.03.18.01.22.1.03.08.02.17-.07.23l-15.15,9.21c-1.21.74-2.8.26-3.39-1.02Z"/>
    </g>
    <g id="_x3C_径向重复_x3E_-6" data-name="_x3C_径向重复_x3E_">
      <path class="cls-4" d="M67.39,68.93c-.2-1.39.87-2.64,2.29-2.67,2.81-.06,5.63-.12,8.44-.17,3.11-.06,6.22-.13,9.33-.19.09,0,.17.06.18.15.01.08-.03.17-.13.2l-17.15,4.61c-1.37.37-2.76-.53-2.96-1.93Z"/>
    </g>
    <g id="_x3C_径向重复_x3E_-7" data-name="_x3C_径向重复_x3E_">
      <path class="cls-4" d="M67.39,61.73c.2-1.39,1.59-2.29,2.96-1.93,2.72.73,5.43,1.46,8.15,2.19,3,.81,6,1.61,9,2.42.09.02.15.11.13.2-.01.08-.08.16-.18.15l-17.77-.36c-1.42-.03-2.49-1.28-2.29-2.67Z"/>
    </g>
    <g id="_x3C_径向重复_x3E_-8" data-name="_x3C_径向重复_x3E_">
      <path class="cls-4" d="M69.44,54.82c.59-1.28,2.18-1.76,3.39-1.02,2.4,1.46,4.8,2.92,7.2,4.37,2.65,1.61,5.3,3.22,7.95,4.83.08.05.11.15.07.23-.03.08-.12.13-.22.1l-16.95-5.31c-1.35-.42-2.03-1.92-1.44-3.2Z"/>
    </g>
    <g id="_x3C_径向重复_x3E_-9" data-name="_x3C_径向重复_x3E_">
      <path class="cls-4" d="M73.38,48.75c.93-1.06,2.59-1.08,3.54-.04,1.89,2.07,3.77,4.14,5.66,6.2,2.08,2.28,4.17,4.57,6.25,6.85.06.07.06.17,0,.24-.05.06-.15.09-.24.03l-14.75-9.82c-1.18-.78-1.4-2.41-.47-3.47Z"/>
    </g>
    <g id="_x3C_径向重复_x3E_-10" data-name="_x3C_径向重复_x3E_">
      <path class="cls-4" d="M78.88,44.04c1.19-.76,2.79-.31,3.41.95,1.22,2.51,2.44,5.02,3.67,7.53,1.35,2.77,2.7,5.55,4.05,8.32.04.08.01.18-.07.23-.07.04-.17.05-.24-.04l-11.36-13.53c-.91-1.08-.65-2.7.54-3.46Z"/>
    </g>
    <g id="_x3C_径向重复_x3E_-11" data-name="_x3C_径向重复_x3E_">
      <path class="cls-4" d="M85.49,41.04c1.36-.4,2.77.48,3,1.86.46,2.75.92,5.5,1.37,8.25.51,3.04,1.01,6.07,1.52,9.11.01.09-.04.18-.13.2-.08.02-.18,0-.22-.1l-7.05-16.15c-.56-1.29.14-2.78,1.5-3.17Z"/>
    </g>
    <g id="_x3C_径向重复_x3E_-12" data-name="_x3C_径向重复_x3E_">
      <path class="cls-4" d="M92.7,40.02c1.42,0,2.52,1.23,2.35,2.62-.34,2.77-.69,5.53-1.03,8.3-.38,3.06-.76,6.11-1.14,9.17-.01.09-.09.16-.18.16-.08,0-.17-.05-.18-.16l-2.17-17.47c-.17-1.39.93-2.62,2.35-2.62Z"/>
    </g>
    <g id="_x3C_径向重复_x3E_-13" data-name="_x3C_径向重复_x3E_">
      <path class="cls-4" d="M99.9,41.04c1.36.4,2.07,1.88,1.5,3.17-1.12,2.56-2.23,5.12-3.35,7.68-1.23,2.83-2.47,5.65-3.7,8.48-.04.08-.13.13-.22.1-.08-.02-.15-.1-.13-.2l2.89-17.36c.23-1.39,1.64-2.26,3-1.86Z"/>
    </g>
    <g id="_x3C_径向重复_x3E_-14" data-name="_x3C_径向重复_x3E_">
      <path class="cls-4" d="M106.52,44.04c1.19.76,1.45,2.38.54,3.46-1.8,2.14-3.6,4.29-5.4,6.43-1.99,2.37-3.97,4.74-5.96,7.1-.06.07-.16.09-.24.04-.07-.04-.11-.13-.07-.23l7.72-15.85c.62-1.27,2.21-1.71,3.41-.95Z"/>
    </g>
    <g id="_x3C_径向重复_x3E_-15" data-name="_x3C_径向重复_x3E_">
      <path class="cls-4" d="M112.02,48.75c.93,1.06.71,2.69-.47,3.47-2.34,1.56-4.67,3.11-7.01,4.67-2.58,1.72-5.16,3.44-7.74,5.15-.08.05-.18.04-.24-.03-.05-.06-.07-.16,0-.24l11.91-13.06c.95-1.04,2.61-1.03,3.54.04Z"/>
    </g>
    <g id="_x3C_径向重复_x3E_-16" data-name="_x3C_径向重复_x3E_">
      <path class="cls-4" d="M115.95,54.81c.59,1.28-.08,2.78-1.44,3.2-2.68.84-5.37,1.68-8.05,2.52-2.96.93-5.93,1.86-8.89,2.78-.09.03-.18-.01-.22-.1-.03-.08-.02-.17.07-.23l15.15-9.21c1.21-.74,2.8-.26,3.39,1.02Z"/>
    </g>
    <g id="_x3C_径向重复_x3E_-17" data-name="_x3C_径向重复_x3E_">
      <path class="cls-4" d="M118,61.73c.2,1.39-.87,2.64-2.29,2.67-2.81.06-5.63.12-8.44.17-3.11.06-6.22.13-9.33.19-.09,0-.17-.06-.18-.15-.01-.08.03-.17.13-.2l17.15-4.61c1.37-.37,2.76.53,2.96,1.93Z"/>
    </g>
    <g id="_x3C_径向重复_x3E_-18" data-name="_x3C_径向重复_x3E_">
      <path class="cls-4" d="M118,68.93c-.2,1.39-1.59,2.29-2.96,1.93-2.72-.73-5.43-1.46-8.15-2.19-3-.81-6-1.61-9-2.42-.09-.02-.15-.11-.13-.2.01-.08.08-.16.18-.15l17.77.36c1.42.03,2.49,1.28,2.29,2.67Z"/>
    </g>
    <g id="_x3C_径向重复_x3E_-19" data-name="_x3C_径向重复_x3E_">
      <path class="cls-4" d="M115.95,75.84c-.59,1.28-2.18,1.76-3.39,1.02-2.4-1.46-4.8-2.92-7.2-4.37-2.65-1.61-5.3-3.22-7.95-4.83-.08-.05-.11-.15-.07-.23.03-.08.12-.13.22-.1l16.95,5.31c1.35.42,2.03,1.92,1.44,3.2Z"/>
    </g>
    <g id="_x3C_径向重复_x3E_-20" data-name="_x3C_径向重复_x3E_">
      <path class="cls-4" d="M112.02,81.9c-.93,1.06-2.59,1.08-3.54.04-1.89-2.07-3.77-4.14-5.66-6.2-2.08-2.28-4.17-4.57-6.25-6.85-.06-.07-.06-.17,0-.24.05-.06.15-.09.24-.03l14.75,9.82c1.18.78,1.4,2.41.47,3.47Z"/>
    </g>
    <g id="_x3C_径向重复_x3E_-21" data-name="_x3C_径向重复_x3E_">
      <path class="cls-4" d="M106.52,86.62c-1.19.76-2.79.31-3.41-.95-1.22-2.51-2.44-5.02-3.67-7.53-1.35-2.77-2.7-5.55-4.05-8.32-.04-.08-.01-.18.07-.23.07-.04.17-.05.24.04l11.36,13.53c.91,1.08.65,2.7-.54,3.46Z"/>
    </g>
    <g id="_x3C_径向重复_x3E_-22" data-name="_x3C_径向重复_x3E_">
      <path class="cls-4" d="M99.9,89.62c-1.36.4-2.77-.48-3-1.86-.46-2.75-.92-5.5-1.37-8.25-.51-3.04-1.01-6.07-1.52-9.11-.01-.09.04-.18.13-.2.08-.02.18,0,.22.1l7.05,16.15c.56,1.29-.14,2.78-1.5,3.17Z"/>
    </g>
  </g>
  <g>
    <g id="_x3C_径向重复_x3E_-23" data-name="_x3C_径向重复_x3E_">
      <polygon class="cls-1" points="42.79 63.98 82.72 65.33 42.79 66.68 42.79 63.98"/>
    </g>
    <g id="_x3C_径向重复_x3E_-24" data-name="_x3C_径向重复_x3E_">
      <polygon class="cls-1" points="45.2 50.11 83.12 62.54 44.43 52.7 45.2 50.11"/>
    </g>
    <g id="_x3C_径向重复_x3E_-25" data-name="_x3C_径向重复_x3E_">
      <polygon class="cls-1" points="51.45 37.48 84.3 59.99 49.98 39.75 51.45 37.48"/>
    </g>
    <g id="_x3C_径向重复_x3E_-26" data-name="_x3C_径向重复_x3E_">
      <polygon class="cls-1" points="61.04 27.1 86.16 57.86 58.98 28.87 61.04 27.1"/>
    </g>
    <g id="_x3C_径向重复_x3E_-27" data-name="_x3C_径向重复_x3E_">
      <polygon class="cls-1" points="73.2 19.82 88.55 56.34 70.72 20.94 73.2 19.82"/>
    </g>
    <g id="_x3C_径向重复_x3E_-28" data-name="_x3C_径向重复_x3E_">
      <polygon class="cls-1" points="86.94 16.23 91.28 55.55 84.25 16.61 86.94 16.23"/>
    </g>
    <g id="_x3C_径向重复_x3E_-29" data-name="_x3C_径向重复_x3E_">
      <polygon class="cls-1" points="101.15 16.61 94.12 55.55 98.45 16.23 101.15 16.61"/>
    </g>
    <g id="_x3C_径向重复_x3E_-30" data-name="_x3C_径向重复_x3E_">
      <polygon class="cls-1" points="114.67 20.94 96.84 56.34 112.19 19.82 114.67 20.94"/>
    </g>
    <g id="_x3C_径向重复_x3E_-31" data-name="_x3C_径向重复_x3E_">
      <polygon class="cls-1" points="126.41 28.87 99.23 57.86 124.35 27.1 126.41 28.87"/>
    </g>
    <g id="_x3C_径向重复_x3E_-32" data-name="_x3C_径向重复_x3E_">
      <polygon class="cls-1" points="135.42 39.75 101.09 59.99 133.94 37.48 135.42 39.75"/>
    </g>
    <g id="_x3C_径向重复_x3E_-33" data-name="_x3C_径向重复_x3E_">
      <polygon class="cls-1" points="140.97 52.7 102.27 62.55 140.2 50.11 140.97 52.7"/>
    </g>
    <g id="_x3C_径向重复_x3E_-34" data-name="_x3C_径向重复_x3E_">
      <polygon class="cls-1" points="142.6 66.68 102.68 65.33 142.6 63.98 142.6 66.68"/>
    </g>
    <g id="_x3C_径向重复_x3E_-35" data-name="_x3C_径向重复_x3E_">
      <polygon class="cls-1" points="140.2 80.55 102.27 68.11 140.97 77.96 140.2 80.55"/>
    </g>
    <g id="_x3C_径向重复_x3E_-36" data-name="_x3C_径向重复_x3E_">
      <polygon class="cls-1" points="133.94 93.18 101.09 70.67 135.42 90.91 133.94 93.18"/>
    </g>
    <g id="_x3C_径向重复_x3E_-37" data-name="_x3C_径向重复_x3E_">
      <polygon class="cls-1" points="124.35 103.56 99.23 72.8 126.41 101.79 124.35 103.56"/>
    </g>
    <g id="_x3C_径向重复_x3E_-38" data-name="_x3C_径向重复_x3E_">
      <polygon class="cls-1" points="112.19 110.84 96.84 74.32 114.67 109.72 112.19 110.84"/>
    </g>
    <g id="_x3C_径向重复_x3E_-39" data-name="_x3C_径向重复_x3E_">
      <polygon class="cls-1" points="98.45 114.43 94.12 75.11 101.15 114.05 98.45 114.43"/>
    </g>
    <g id="_x3C_径向重复_x3E_-40" data-name="_x3C_径向重复_x3E_">
      <polygon class="cls-1" points="84.25 114.05 91.28 75.11 86.94 114.43 84.25 114.05"/>
    </g>
    <g id="_x3C_径向重复_x3E_-41" data-name="_x3C_径向重复_x3E_">
      <polygon class="cls-1" points="70.73 109.72 88.55 74.32 73.2 110.84 70.73 109.72"/>
    </g>
    <g id="_x3C_径向重复_x3E_-42" data-name="_x3C_径向重复_x3E_">
      <polygon class="cls-1" points="58.98 101.79 86.16 72.8 61.04 103.56 58.98 101.79"/>
    </g>
    <g id="_x3C_径向重复_x3E_-43" data-name="_x3C_径向重复_x3E_">
      <polygon class="cls-1" points="49.97 90.91 84.3 70.67 51.45 93.18 49.97 90.91"/>
    </g>
    <g id="_x3C_径向重复_x3E_-44" data-name="_x3C_径向重复_x3E_">
      <polygon class="cls-1" points="44.43 77.96 83.12 68.11 45.2 80.54 44.43 77.96"/>
    </g>
  </g>
  <g>
    <path class="cls-2" d="M92.69,94.06c.78,0,1.42,11.75,1.46,26.53,0,.79-.65,1.44-1.45,1.43h0c-.8,0-1.45-.64-1.45-1.44.03-14.77.66-26.52,1.44-26.52Z"/>
    <path class="cls-2" d="M84.51,92.9c.75.22-1.98,11.67-6.15,25.86-.22.76-1.03,1.2-1.8.97h0c-.77-.22-1.21-1.02-.98-1.78,4.24-14.17,8.19-25.26,8.93-25.05Z"/>
    <path class="cls-2" d="M77,89.5c.65.42-5.22,10.64-13.26,23.1-.43.67-1.33.86-2,.43h0c-.68-.43-.87-1.32-.44-1.99,8.1-12.41,15.04-21.96,15.7-21.54Z"/>
    <path class="cls-2" d="M70.76,84.14c.51.58-8.04,8.75-19.29,18.46-.6.52-1.52.45-2.05-.15h0c-.53-.6-.46-1.51.15-2.03,11.3-9.65,20.68-16.87,21.19-16.29Z"/>
    <path class="cls-2" d="M66.29,77.26c.32.7-10.21,6.16-23.76,12.33-.73.33-1.59.01-1.92-.71h0c-.33-.72-.01-1.58.72-1.9,13.59-6.11,24.64-10.42,24.97-9.72Z"/>
    <path class="cls-2" d="M63.97,69.41c.11.76-11.55,3.06-26.31,5.21-.79.12-1.53-.43-1.64-1.22h0c-.11-.79.44-1.52,1.23-1.63,14.78-2.07,26.61-3.12,26.72-2.36Z"/>
    <path class="cls-2" d="M63.97,61.23c-.11.76-11.95-.28-26.73-2.34-.79-.11-1.34-.84-1.23-1.63h0c.11-.79.85-1.33,1.64-1.22,14.77,2.14,26.42,4.43,26.31,5.19Z"/>
    <path class="cls-2" d="M66.3,53.39c-.32.7-11.38-3.61-24.98-9.7-.73-.33-1.05-1.18-.72-1.9h0c.33-.72,1.2-1.04,1.92-.71,13.56,6.17,24.09,11.62,23.77,12.32Z"/>
    <path class="cls-2" d="M70.77,46.51c-.51.58-9.9-6.63-21.2-16.28-.61-.52-.67-1.42-.15-2.03h0c.53-.6,1.44-.67,2.05-.15,11.26,9.7,19.81,17.87,19.3,18.45Z"/>
    <path class="cls-2" d="M77.01,41.15c-.65.42-7.61-9.13-15.71-21.53-.43-.66-.24-1.55.44-1.98h0c.68-.43,1.57-.24,2.01.43,8.04,12.45,13.92,22.67,13.27,23.09Z"/>
    <path class="cls-2" d="M84.53,37.76c-.75.22-4.7-10.88-8.95-25.04-.23-.76.21-1.56.98-1.78h0c.77-.22,1.58.21,1.8.97,4.17,14.19,6.91,25.64,6.16,25.85Z"/>
    <path class="cls-2" d="M92.71,36.6c-.78,0-1.42-11.75-1.46-26.53,0-.79.65-1.44,1.45-1.43h0c.8,0,1.45.64,1.45,1.44-.03,14.77-.66,26.52-1.44,26.52Z"/>
    <path class="cls-2" d="M100.88,37.76c-.75-.22,1.98-11.67,6.15-25.86.22-.76,1.03-1.2,1.8-.97h0c.77.22,1.21,1.02.98,1.78-4.24,14.17-8.19,25.26-8.93,25.05Z"/>
    <path class="cls-2" d="M108.39,41.16c-.65-.42,5.22-10.64,13.26-23.1.43-.67,1.33-.86,2-.43h0c.68.43.87,1.32.44,1.99-8.1,12.41-15.04,21.96-15.7,21.54Z"/>
    <path class="cls-2" d="M114.63,46.52c-.51-.58,8.04-8.75,19.29-18.46.6-.52,1.52-.45,2.05.15h0c.53.6.46,1.51-.15,2.03-11.3,9.65-20.68,16.87-21.19,16.29Z"/>
    <path class="cls-2" d="M119.1,53.4c-.32-.7,10.21-6.16,23.76-12.33.73-.33,1.59-.01,1.92.71h0c.33.72.01,1.58-.72,1.9-13.59,6.11-24.64,10.42-24.97,9.72Z"/>
    <path class="cls-2" d="M121.42,61.25c-.11-.76,11.55-3.06,26.31-5.21.79-.12,1.53.43,1.64,1.22h0c.11.79-.44,1.52-1.23,1.63-14.78,2.07-26.61,3.12-26.72,2.36Z"/>
    <path class="cls-2" d="M121.42,69.43c.11-.76,11.95.28,26.73,2.34.79.11,1.34.84,1.23,1.63h0c-.11.79-.85,1.33-1.64,1.22-14.77-2.14-26.42-4.43-26.31-5.19Z"/>
    <path class="cls-2" d="M119.09,77.27c.32-.7,11.38,3.61,24.98,9.7.73.33,1.05,1.18.72,1.9h0c-.33.72-1.2,1.04-1.92.71-13.56-6.17-24.09-11.62-23.77-12.32Z"/>
    <path class="cls-2" d="M114.62,84.15c.51-.58,9.9,6.63,21.2,16.28.61.52.67,1.42.15,2.03h0c-.53.6-1.44.67-2.05.15-11.26-9.7-19.81-17.87-19.3-18.45Z"/>
    <path class="cls-2" d="M108.38,89.51c.65-.42,7.61,9.13,15.71,21.53.43.66.24,1.55-.44,1.98h0c-.68.43-1.57.24-2.01-.43-8.04-12.45-13.92-22.67-13.27-23.09Z"/>
    <path class="cls-2" d="M100.86,92.9c.75-.22,4.7,10.88,8.95,25.04.23.76-.21,1.56-.98,1.78h0c-.77.22-1.58-.21-1.8-.97-4.17-14.19-6.91-25.64-6.16-25.85Z"/>
  </g>
</svg>