<?xml version="1.0" encoding="UTF-8"?>
<svg id="_图层_1" data-name="图层_1" xmlns="http://www.w3.org/2000/svg" viewBox="0 0 595.28 419.53">
  <defs>
    <style>
      .cls-1 {
        fill: #fff;
      }

      .cls-2 {
        fill: #3c6fb6;
      }
    </style>
  </defs>
  <g>
    <path class="cls-2" d="M237.64,224.23c-1.67-.17-5.67,25.2-9.06,57.27-.18,1.72,1.07,3.26,2.8,3.44h0c1.73.18,3.27-1.08,3.44-2.8,3.23-32.09,4.5-57.74,2.82-57.91Z"/>
    <path class="cls-2" d="M236.55,223.99c-1.59-.54-11.16,23.31-21.63,53.83-.56,1.64.32,3.42,1.96,3.97h0c1.64.56,3.43-.33,3.98-1.96,10.31-30.57,17.28-55.3,15.69-55.84Z"/>
    <path class="cls-2" d="M235.54,223.52c-1.43-.88-16.08,20.25-33.11,47.68-.91,1.47-.45,3.4,1.02,4.31h0c1.48.91,3.41.44,4.32-1.03,16.88-27.52,29.19-50.08,27.76-50.96Z"/>
    <path class="cls-2" d="M234.66,222.83c-1.2-1.17-20.2,16.18-42.92,39.15-1.22,1.23-1.2,3.21.04,4.43h0c1.24,1.21,3.23,1.19,4.44-.05,22.6-23.08,39.64-42.35,38.45-43.52Z"/>
    <path class="cls-2" d="M233.96,221.97c-.91-1.41-23.31,11.3-50.59,28.65-1.46.93-1.89,2.87-.95,4.32h0c.94,1.45,2.88,1.87,4.34.94,27.19-17.49,48.11-32.5,47.2-33.91Z"/>
    <path class="cls-2" d="M233.46,220.97c-.57-1.57-25.25,5.84-55.72,16.71-1.63.58-2.48,2.38-1.89,4h0c.59,1.63,2.39,2.47,4.02,1.88,30.42-11.03,54.16-21.02,53.59-22.59Z"/>
    <path class="cls-2" d="M233.2,219.89c-.2-1.66-25.92.1-58.05,3.94-1.72.21-2.95,1.77-2.74,3.48h0c.21,1.72,1.78,2.94,3.5,2.72,32.12-4.01,57.5-8.48,57.29-10.14Z"/>
    <path class="cls-2" d="M233.19,218.77c.17-1.67-25.29-5.65-57.48-9.03-1.73-.18-3.27,1.07-3.45,2.79h0c-.18,1.72,1.08,3.26,2.81,3.43,32.2,3.22,57.95,4.48,58.12,2.81Z"/>
    <path class="cls-2" d="M233.43,217.69c.54-1.59-23.4-11.12-54.02-21.55-1.64-.56-3.43.32-3.98,1.95h0c-.56,1.64.33,3.41,1.97,3.97,30.68,10.28,55.5,17.22,56.04,15.63Z"/>
    <path class="cls-2" d="M233.9,216.68c.88-1.43-20.33-16.02-47.85-32.99-1.48-.91-3.41-.45-4.32,1.02h0c-.91,1.47-.44,3.4,1.04,4.3,27.62,16.82,50.26,29.09,51.14,27.66Z"/>
    <path class="cls-2" d="M234.59,215.8c1.18-1.2-16.24-20.13-39.29-42.77-1.24-1.21-3.23-1.2-4.44.04h0c-1.21,1.23-1.19,3.22.05,4.43,23.17,22.52,42.5,39.5,43.68,38.31Z"/>
    <path class="cls-2" d="M235.46,215.1c1.41-.9-11.34-23.23-28.75-50.41-.93-1.46-2.88-1.88-4.34-.95h0c-1.46.93-1.88,2.87-.94,4.32,17.56,27.09,32.62,47.94,34.03,47.03Z"/>
    <path class="cls-2" d="M236.46,214.61c1.58-.57-5.87-25.16-16.77-55.52-.58-1.63-2.39-2.47-4.02-1.89h0c-1.63.59-2.48,2.38-1.88,4.01,11.07,30.31,21.09,53.97,22.67,53.4Z"/>
    <path class="cls-2" d="M237.54,214.35c1.67-.2-.1-25.83-3.95-57.85-.21-1.72-1.77-2.94-3.5-2.73h0c-1.72.21-2.95,1.77-2.73,3.49,4.02,32,8.51,57.29,10.18,57.09Z"/>
    <path class="cls-2" d="M238.66,214.34c1.67.17,5.67-25.2,9.06-57.27.18-1.72-1.07-3.26-2.8-3.44h0c-1.73-.18-3.27,1.08-3.44,2.8-3.23,32.09-4.5,57.74-2.82,57.91Z"/>
    <path class="cls-2" d="M239.75,214.58c1.59.54,11.16-23.31,21.63-53.83.56-1.64-.32-3.42-1.96-3.97h0c-1.64-.56-3.43.33-3.98,1.96-10.31,30.57-17.28,55.3-15.69,55.84Z"/>
    <path class="cls-2" d="M240.76,215.05c1.43.88,16.08-20.25,33.11-47.68.91-1.47.45-3.4-1.02-4.31h0c-1.48-.91-3.41-.44-4.32,1.03-16.88,27.52-29.19,50.08-27.76,50.96Z"/>
    <path class="cls-2" d="M241.64,215.73c1.2,1.17,20.2-16.18,42.92-39.15,1.22-1.23,1.2-3.21-.04-4.43h0c-1.24-1.21-3.23-1.19-4.44.05-22.6,23.08-39.64,42.35-38.45,43.52Z"/>
    <path class="cls-2" d="M242.35,216.6c.91,1.41,23.31-11.3,50.59-28.65,1.46-.93,1.89-2.87.95-4.32h0c-.94-1.45-2.88-1.87-4.34-.94-27.19,17.49-48.11,32.5-47.2,33.91Z"/>
    <path class="cls-2" d="M242.84,217.59c.57,1.57,25.25-5.84,55.72-16.71,1.63-.58,2.48-2.38,1.89-4h0c-.59-1.63-2.39-2.47-4.02-1.88-30.42,11.03-54.16,21.02-53.59,22.59Z"/>
    <path class="cls-2" d="M243.1,218.68c.2,1.66,25.92-.1,58.05-3.94,1.72-.21,2.95-1.77,2.74-3.48h0c-.21-1.72-1.78-2.94-3.5-2.72-32.12,4.01-57.5,8.48-57.29,10.14Z"/>
    <path class="cls-2" d="M243.11,219.79c-.17,1.67,25.29,5.65,57.48,9.03,1.73.18,3.27-1.07,3.45-2.79h0c.18-1.72-1.08-3.26-2.81-3.43-32.2-3.22-57.95-4.48-58.12-2.81Z"/>
    <path class="cls-2" d="M242.87,220.88c-.54,1.59,23.4,11.12,54.02,21.55,1.64.56,3.43-.32,3.98-1.95h0c.56-1.64-.33-3.41-1.97-3.97-30.68-10.28-55.5-17.22-56.04-15.63Z"/>
    <path class="cls-2" d="M242.4,221.88c-.88,1.43,20.33,16.02,47.85,32.99,1.48.91,3.41.45,4.32-1.02h0c.91-1.47.44-3.4-1.04-4.3-27.62-16.82-50.26-29.09-51.14-27.66Z"/>
    <path class="cls-2" d="M241.71,222.76c-1.18,1.2,16.24,20.13,39.29,42.77,1.24,1.21,3.23,1.2,4.44-.04h0c1.21-1.23,1.19-3.22-.05-4.43-23.17-22.52-42.5-39.5-43.68-38.31Z"/>
    <path class="cls-2" d="M240.85,223.46c-1.41.9,11.34,23.23,28.75,50.41.93,1.46,2.88,1.88,4.34.95h0c1.46-.93,1.88-2.87.94-4.32-17.56-27.09-32.62-47.94-34.03-47.03Z"/>
    <path class="cls-2" d="M239.84,223.96c-1.58.57,5.87,25.16,16.77,55.52.58,1.63,2.39,2.47,4.02,1.89h0c1.63-.59,2.48-2.38,1.88-4.01-11.07-30.31-21.09-53.97-22.67-53.4Z"/>
    <path class="cls-2" d="M238.76,224.21c-1.67.2.1,25.83,3.95,57.85.21,1.72,1.77,2.94,3.5,2.73h0c1.72-.21,2.95-1.77,2.73-3.49-4.02-32-8.51-57.29-10.18-57.09Z"/>
  </g>
  <g>
    <path class="cls-1" d="M237.95,221.22c-.66-.07-2.23,9.9-3.56,22.51-.07.68.42,1.28,1.1,1.35h0c.68.07,1.28-.42,1.35-1.1,1.27-12.61,1.77-22.69,1.11-22.76Z"/>
    <path class="cls-1" d="M237.52,221.13c-.63-.21-4.38,9.16-8.5,21.16-.22.64.12,1.34.77,1.56h0c.65.22,1.35-.13,1.56-.77,4.05-12.01,6.79-21.73,6.16-21.94Z"/>
    <path class="cls-1" d="M237.13,220.95c-.56-.34-6.32,7.96-13.01,18.74-.36.58-.18,1.34.4,1.69h0c.58.36,1.34.17,1.7-.41,6.63-10.81,11.47-19.68,10.91-20.03Z"/>
    <path class="cls-1" d="M236.78,220.68c-.47-.46-7.94,6.36-16.87,15.39-.48.48-.47,1.26.01,1.74h0c.49.48,1.27.47,1.75-.02,8.88-9.07,15.58-16.64,15.11-17.11Z"/>
    <path class="cls-1" d="M236.5,220.34c-.36-.55-9.16,4.44-19.88,11.26-.57.37-.74,1.13-.37,1.7h0c.37.57,1.13.74,1.71.37,10.69-6.88,18.91-12.77,18.55-13.33Z"/>
    <path class="cls-1" d="M236.31,219.94c-.22-.62-9.92,2.3-21.9,6.57-.64.23-.98.93-.74,1.57h0c.23.64.94.97,1.58.74,11.95-4.33,21.29-8.26,21.06-8.88Z"/>
    <path class="cls-1" d="M236.21,219.52c-.08-.65-10.19.04-22.82,1.55-.68.08-1.16.69-1.08,1.37h0c.08.67.7,1.15,1.38,1.07,12.62-1.57,22.6-3.33,22.52-3.99Z"/>
    <path class="cls-1" d="M236.2,219.08c.07-.65-9.94-2.22-22.59-3.55-.68-.07-1.29.42-1.36,1.1h0c-.07.68.42,1.28,1.1,1.35,12.66,1.26,22.77,1.76,22.84,1.11Z"/>
    <path class="cls-1" d="M236.3,218.65c.21-.62-9.19-4.37-21.23-8.47-.65-.22-1.35.12-1.57.77h0c-.22.64.13,1.34.77,1.56,12.06,4.04,21.81,6.77,22.02,6.14Z"/>
    <path class="cls-1" d="M236.48,218.26c.35-.56-7.99-6.3-18.81-12.96-.58-.36-1.34-.18-1.7.4h0c-.36.58-.17,1.34.41,1.69,10.85,6.61,19.75,11.43,20.1,10.87Z"/>
    <path class="cls-1" d="M236.75,217.91c.46-.47-6.38-7.91-15.44-16.81-.49-.48-1.27-.47-1.75.01h0c-.48.49-.47,1.26.02,1.74,9.1,8.85,16.7,15.53,17.17,15.06Z"/>
    <path class="cls-1" d="M237.09,217.64c.56-.36-4.46-9.13-11.3-19.81-.37-.57-1.13-.74-1.7-.37h0c-.57.37-.74,1.13-.37,1.7,6.9,10.65,12.82,18.84,13.37,18.48Z"/>
    <path class="cls-1" d="M237.49,217.44c.62-.22-2.31-9.89-6.59-21.82-.23-.64-.94-.97-1.58-.74h0c-.64.23-.97.94-.74,1.58,4.35,11.91,8.29,21.21,8.91,20.99Z"/>
    <path class="cls-1" d="M237.91,217.34c.66-.08-.04-10.15-1.55-22.73-.08-.67-.7-1.16-1.37-1.07h0c-.68.08-1.16.7-1.07,1.37,1.58,12.58,3.35,22.52,4,22.44Z"/>
    <path class="cls-1" d="M238.35,217.34c.66.07,2.23-9.9,3.56-22.51.07-.68-.42-1.28-1.1-1.35h0c-.68-.07-1.28.42-1.35,1.1-1.27,12.61-1.77,22.69-1.11,22.76Z"/>
    <path class="cls-1" d="M238.78,217.43c.63.21,4.38-9.16,8.5-21.16.22-.64-.12-1.34-.77-1.56h0c-.65-.22-1.35.13-1.56.77-4.05,12.01-6.79,21.73-6.16,21.94Z"/>
    <path class="cls-1" d="M239.18,217.62c.56.34,6.32-7.96,13.01-18.74.36-.58.18-1.34-.4-1.69h0c-.58-.36-1.34-.17-1.7.41-6.63,10.81-11.47,19.68-10.91,20.03Z"/>
    <path class="cls-1" d="M239.52,217.89c.47.46,7.94-6.36,16.87-15.39.48-.48.47-1.26-.01-1.74h0c-.49-.48-1.27-.47-1.75.02-8.88,9.07-15.58,16.64-15.11,17.11Z"/>
    <path class="cls-1" d="M239.8,218.23c.36.55,9.16-4.44,19.88-11.26.57-.37.74-1.13.37-1.7h0c-.37-.57-1.13-.74-1.71-.37-10.69,6.88-18.91,12.77-18.55,13.33Z"/>
    <path class="cls-1" d="M239.99,218.62c.22.62,9.92-2.3,21.9-6.57.64-.23.98-.93.74-1.57h0c-.23-.64-.94-.97-1.58-.74-11.95,4.33-21.29,8.26-21.06,8.88Z"/>
    <path class="cls-1" d="M240.1,219.04c.08.65,10.19-.04,22.82-1.55.68-.08,1.16-.69,1.08-1.37h0c-.08-.67-.7-1.15-1.38-1.07-12.62,1.57-22.6,3.33-22.52,3.99Z"/>
    <path class="cls-1" d="M240.1,219.48c-.07.65,9.94,2.22,22.59,3.55.68.07,1.29-.42,1.36-1.1h0c.07-.68-.42-1.28-1.1-1.35-12.66-1.26-22.77-1.76-22.84-1.11Z"/>
    <path class="cls-1" d="M240.01,219.91c-.21.62,9.19,4.37,21.23,8.47.65.22,1.35-.12,1.57-.77h0c.22-.64-.13-1.34-.77-1.56-12.06-4.04-21.81-6.77-22.02-6.14Z"/>
    <path class="cls-1" d="M239.82,220.3c-.35.56,7.99,6.3,18.81,12.96.58.36,1.34.18,1.7-.4h0c.36-.58.17-1.34-.41-1.69-10.85-6.61-19.75-11.43-20.1-10.87Z"/>
    <path class="cls-1" d="M239.55,220.65c-.46.47,6.38,7.91,15.44,16.81.49.48,1.27.47,1.75-.01h0c.48-.49.47-1.26-.02-1.74-9.1-8.85-16.7-15.53-17.17-15.06Z"/>
    <path class="cls-1" d="M239.21,220.93c-.56.36,4.46,9.13,11.3,19.81.37.57,1.13.74,1.7.37h0c.57-.37.74-1.13.37-1.7-6.9-10.65-12.82-18.84-13.37-18.48Z"/>
    <path class="cls-1" d="M238.82,221.12c-.62.22,2.31,9.89,6.59,21.82.23.64.94.97,1.58.74h0c.64-.23.97-.94.74-1.58-4.35-11.91-8.29-21.21-8.91-20.99Z"/>
    <path class="cls-1" d="M238.39,221.22c-.66.08.04,10.15,1.55,22.73.08.67.7,1.16,1.37,1.07h0c.68-.08,1.16-.7,1.07-1.37-1.58-12.58-3.35-22.52-4-22.44Z"/>
  </g>
</svg>