<?xml version="1.0" encoding="UTF-8"?>
<svg id="_图层_1" data-name="图层_1" xmlns="http://www.w3.org/2000/svg" viewBox="0 0 595.28 419.53">
  <defs>
    <style>
      .cls-1 {
        fill: #223e95;
      }
    </style>
  </defs>
  <path class="cls-1" d="M382.3,164.42c2.68,7.17-26.33,22.11-25.35,29.38,1.01,7.51,32.88,14.39,32.18,21.76-.7,7.49-33.33,8.4-35.67,15.47-2.34,7.11,23.39,27.1,19.53,33.52-3.85,6.39-33.64-6.85-38.87-1.42-5.14,5.34,9.35,34.49,2.99,38.64-6.16,4.02-27.19-20.81-34.39-18.14-7.19,2.67-6.81,35.16-14.11,36.13-7.54,1-15.7-30.49-23.1-31.18-7.52-.7-21.37,28.73-28.47,26.4-7.14-2.34-.79-34.23-7.23-38.08-6.41-3.83-31.69,16.75-37.14,11.54-5.36-5.13,14.24-31.09,10.07-37.43-4.04-6.14-35.78,1.46-38.46-5.71-2.68-7.17,26.33-22.11,25.35-29.38-1.01-7.51-32.88-14.39-32.18-21.76.7-7.49,33.33-8.4,35.67-15.47,2.34-7.11-23.39-27.1-19.53-33.52,3.85-6.39,33.64,6.85,38.87,1.42,5.14-5.34-9.35-34.49-2.99-38.64,6.16-4.02,27.19,20.81,34.39,18.14,7.19-2.67,6.81-35.16,14.11-36.13,7.54-1,15.7,30.49,23.1,31.18,7.52.7,21.37-28.73,28.47-26.4,7.14,2.34.79,34.23,7.23,38.08,6.41,3.83,31.69-16.75,37.14-11.54,5.36,5.13-14.24,31.09-10.07,37.43,4.04,6.14,35.78-1.46,38.46,5.71Z"/>
</svg>