<?xml version="1.0" encoding="UTF-8"?>
<svg id="_图层_1" data-name="图层_1" xmlns="http://www.w3.org/2000/svg" viewBox="0 0 595.28 419.53">
  <defs>
    <style>
      .cls-1 {
        fill: #a1bce2;
      }
    </style>
  </defs>
  <path class="cls-1" d="M284.22,239.19c-2.64.03-4.3,40.28-3.82,90.86.03,2.71,2.26,4.89,4.98,4.85h0c2.72-.03,4.9-2.26,4.86-4.97-.75-50.58-3.39-90.77-6.02-90.74Z"/>
  <path class="cls-1" d="M276.6,238.43c-2.58-.55-13.19,38.32-24.01,87.74-.58,2.65,1.11,5.27,3.77,5.84h0c2.66.57,5.28-1.12,5.85-3.77,10.57-49.47,16.97-89.25,14.39-89.8Z"/>
  <path class="cls-1" d="M269.35,236c-2.39-1.11-21.41,34.43-43,80.21-1.16,2.45-.09,5.38,2.37,6.53h0c2.47,1.15,5.4.08,6.54-2.38,21.35-45.89,36.47-83.25,34.09-84.36Z"/>
  <path class="cls-1" d="M262.81,232.02c-2.08-1.61-28.57,28.82-59.84,68.67-1.68,2.14-1.29,5.22.85,6.89h0c2.15,1.66,5.25,1.27,6.91-.87,31.06-40.01,54.15-73.07,52.07-74.69Z"/>
  <path class="cls-1" d="M257.34,226.69c-1.67-2.03-34.29,21.77-73.67,53.68-2.11,1.71-2.43,4.81-.7,6.91h0c1.72,2.1,4.83,2.41,6.93.68,39.22-32.11,69.11-59.23,67.44-61.27Z"/>
  <path class="cls-1" d="M253.18,220.28c-1.17-2.35-38.29,13.62-83.81,36-2.44,1.2-3.44,4.15-2.23,6.58h0c1.21,2.43,4.17,3.42,6.6,2.2,45.41-22.61,80.61-42.43,79.44-44.78Z"/>
  <path class="cls-1" d="M250.57,213.11c-.62-2.55-40.37,4.79-89.75,16.51-2.65.63-4.28,3.28-3.64,5.92h0c.64,2.64,3.3,4.26,5.95,3.61,49.32-11.98,88.06-23.49,87.44-26.04Z"/>
  <path class="cls-1" d="M249.62,205.54c-.03-2.63-40.42-4.28-91.19-3.8-2.72.03-4.9,2.25-4.87,4.96h0c.03,2.71,2.27,4.88,4.99,4.84,50.76-.74,91.1-3.37,91.07-6Z"/>
  <path class="cls-1" d="M250.38,197.95c.56-2.57-38.45-13.14-88.05-23.93-2.66-.58-5.28,1.11-5.86,3.76h0c-.57,2.65,1.12,5.26,3.78,5.83,49.65,10.53,89.57,16.91,90.12,14.34Z"/>
  <path class="cls-1" d="M252.83,190.72c1.11-2.38-34.56-21.34-80.5-42.85-2.46-1.15-5.4-.09-6.55,2.36h0c-1.15,2.46-.08,5.38,2.39,6.52,46.05,21.27,83.55,36.34,84.66,33.97Z"/>
  <path class="cls-1" d="M256.82,184.21c1.62-2.07-28.92-28.46-68.91-59.62-2.14-1.67-5.24-1.29-6.91.85h0c-1.67,2.14-1.28,5.23.87,6.89,40.15,30.95,73.33,53.96,74.95,51.88Z"/>
  <path class="cls-1" d="M262.17,178.75c2.04-1.66-21.84-34.16-53.87-73.41-1.72-2.1-4.82-2.42-6.93-.7h0c-2.11,1.72-2.41,4.81-.69,6.91,32.23,39.08,59.45,68.87,61.49,67.2Z"/>
  <path class="cls-1" d="M268.6,174.61c2.36-1.17-13.67-38.15-36.13-83.51-1.2-2.43-4.16-3.43-6.6-2.22h0c-2.44,1.21-3.43,4.16-2.21,6.58,22.69,45.25,42.58,80.32,44.94,79.15Z"/>
  <path class="cls-1" d="M275.8,172.01c2.56-.62-4.8-40.22-16.57-89.43-.63-2.64-3.29-4.26-5.94-3.63h0c-2.65.64-4.27,3.29-3.63,5.93,12.02,49.14,23.57,87.75,26.13,87.13Z"/>
  <path class="cls-1" d="M283.39,171.06c2.64-.03,4.3-40.28,3.82-90.86-.03-2.71-2.26-4.89-4.98-4.85h0c-2.72.03-4.9,2.26-4.86,4.97.75,50.58,3.39,90.77,6.02,90.74Z"/>
  <path class="cls-1" d="M291.01,171.82c2.58.55,13.19-38.32,24.01-87.74.58-2.65-1.11-5.27-3.77-5.84h0c-2.66-.57-5.28,1.12-5.85,3.77-10.57,49.47-16.97,89.25-14.39,89.8Z"/>
  <path class="cls-1" d="M298.27,174.26c2.39,1.11,21.41-34.43,43-80.21,1.16-2.45.09-5.38-2.37-6.53h0c-2.47-1.15-5.4-.08-6.54,2.38-21.35,45.89-36.47,83.25-34.09,84.36Z"/>
  <path class="cls-1" d="M304.8,178.24c2.08,1.61,28.57-28.82,59.84-68.67,1.68-2.14,1.29-5.22-.85-6.89h0c-2.15-1.66-5.25-1.27-6.91.87-31.06,40.01-54.15,73.07-52.07,74.69Z"/>
  <path class="cls-1" d="M310.28,183.56c1.67,2.03,34.29-21.77,73.67-53.68,2.11-1.71,2.43-4.81.7-6.91h0c-1.72-2.1-4.83-2.41-6.93-.68-39.22,32.11-69.11,59.23-67.44,61.27Z"/>
  <path class="cls-1" d="M314.43,189.97c1.17,2.35,38.29-13.62,83.81-36,2.44-1.2,3.44-4.15,2.23-6.58h0c-1.21-2.43-4.17-3.42-6.6-2.2-45.41,22.61-80.61,42.43-79.44,44.78Z"/>
  <path class="cls-1" d="M317.05,197.14c.62,2.55,40.37-4.79,89.75-16.51,2.65-.63,4.28-3.28,3.64-5.92h0c-.64-2.64-3.3-4.26-5.95-3.61-49.32,11.98-88.06,23.49-87.44,26.04Z"/>
  <path class="cls-1" d="M318,204.71c.03,2.63,40.42,4.28,91.19,3.8,2.72-.03,4.9-2.25,4.87-4.96h0c-.03-2.71-2.27-4.88-4.99-4.84-50.76.74-91.1,3.37-91.07,6Z"/>
  <path class="cls-1" d="M317.23,212.3c-.56,2.57,38.45,13.14,88.05,23.93,2.66.58,5.28-1.11,5.86-3.76h0c.57-2.65-1.12-5.26-3.78-5.83-49.65-10.53-89.57-16.91-90.12-14.34Z"/>
  <path class="cls-1" d="M314.79,219.54c-1.11,2.38,34.56,21.34,80.5,42.85,2.46,1.15,5.4.09,6.55-2.36h0c1.15-2.46.08-5.38-2.39-6.52-46.05-21.27-83.55-36.34-84.66-33.97Z"/>
  <path class="cls-1" d="M310.79,226.04c-1.62,2.07,28.92,28.46,68.91,59.62,2.14,1.67,5.24,1.29,6.91-.85h0c1.67-2.14,1.28-5.23-.87-6.89-40.15-30.95-73.33-53.96-74.95-51.88Z"/>
  <path class="cls-1" d="M305.45,231.5c-2.04,1.66,21.84,34.16,53.87,73.41,1.72,2.1,4.82,2.42,6.93.7h0c2.11-1.72,2.41-4.81.69-6.91-32.23-39.08-59.45-68.87-61.49-67.2Z"/>
  <path class="cls-1" d="M299.01,235.64c-2.36,1.17,13.67,38.15,36.13,83.51,1.2,2.43,4.16,3.43,6.6,2.22h0c2.44-1.21,3.43-4.16,2.21-6.58-22.69-45.25-42.58-80.32-44.94-79.15Z"/>
  <path class="cls-1" d="M291.82,238.25c-2.56.62,4.8,40.22,16.57,89.43.63,2.64,3.29,4.26,5.94,3.63h0c2.65-.64,4.27-3.29,3.63-5.93-12.02-49.14-23.57-87.75-26.13-87.13Z"/>
</svg>