<?xml version="1.0" encoding="UTF-8"?>
<svg id="_图层_1" data-name="图层_1" xmlns="http://www.w3.org/2000/svg" viewBox="0 0 595.28 419.53">
  <defs>
    <style>
      .cls-1 {
        fill: #4f81c2;
      }
    </style>
  </defs>
  <path class="cls-1" d="M267.99,286.92c-1.98-1.19-21.96,28.03-45.14,65.94-1.24,2.03-.59,4.69,1.45,5.92h0c2.04,1.23,4.7.58,5.94-1.46,22.99-38.03,39.74-69.21,37.76-70.4Z"/>
  <path class="cls-1" d="M239.81,259.74c-1.26-1.93-31.99,15.76-69.39,39.9-2,1.29-2.57,3.97-1.27,5.96h0c1.3,1.99,3.99,2.56,5.98,1.25,37.27-24.33,65.94-45.17,64.67-47.11Z"/>
  <path class="cls-1" d="M226.26,223.07c-.3-2.29-35.68.37-79.89,5.95-2.37.3-4.05,2.46-3.74,4.82h0c.31,2.36,2.48,4.03,4.85,3.71,44.18-5.8,79.08-12.19,78.78-14.48Z"/>
  <path class="cls-1" d="M230.01,184.17c.73-2.19-32.31-15.09-74.56-29.18-2.26-.76-4.72.47-5.47,2.73h0c-.75,2.26.48,4.7,2.75,5.44,42.33,13.87,76.56,23.2,77.28,21.01Z"/>
  <path class="cls-1" d="M250.33,150.75c1.61-1.66-22.54-27.57-54.47-58.53-1.71-1.66-4.45-1.62-6.11.09h0c-1.66,1.71-1.61,4.44.11,6.09,32.1,30.8,58.87,54,60.48,52.34Z"/>
  <path class="cls-1" d="M283.2,129.43c2.17-.8-8.3-34.58-23.59-76.28-.82-2.24-3.31-3.38-5.55-2.56h0c-2.24.82-3.39,3.3-2.56,5.53,15.51,41.62,29.53,74.11,31.7,73.31Z"/>
  <path class="cls-1" d="M322.09,124.42c2.3.22,7.58-34.75,11.96-78.93.23-2.37-1.51-4.48-3.88-4.71h0c-2.38-.23-4.49,1.51-4.71,3.88-4.15,44.21-5.67,79.53-3.36,79.75Z"/>
  <path class="cls-1" d="M359.31,136.72c1.98,1.19,21.96-28.03,45.14-65.94,1.24-2.03.59-4.69-1.45-5.92h0c-2.04-1.23-4.7-.58-5.94,1.46-22.99,38.03-39.74,69.21-37.76,70.4Z"/>
  <path class="cls-1" d="M387.49,163.9c1.26,1.93,31.99-15.76,69.39-39.9,2-1.29,2.57-3.97,1.27-5.96h0c-1.3-1.99-3.99-2.56-5.98-1.25-37.27,24.33-65.94,45.17-64.67,47.11Z"/>
  <path class="cls-1" d="M401.04,200.57c.3,2.29,35.68-.37,79.89-5.95,2.37-.3,4.05-2.46,3.74-4.82h0c-.31-2.36-2.48-4.03-4.85-3.71-44.18,5.8-79.08,12.19-78.78,14.48Z"/>
  <path class="cls-1" d="M397.29,239.47c-.73,2.19,32.31,15.09,74.56,29.18,2.26.76,4.72-.47,5.47-2.73h0c.75-2.26-.48-4.7-2.75-5.44-42.33-13.87-76.56-23.2-77.28-21.01Z"/>
  <path class="cls-1" d="M376.97,272.89c-1.61,1.66,22.54,27.57,54.47,58.53,1.71,1.66,4.45,1.62,6.11-.09h0c1.66-1.71,1.61-4.44-.11-6.09-32.1-30.8-58.87-54-60.48-52.34Z"/>
  <path class="cls-1" d="M344.11,294.21c-2.17.8,8.3,34.58,23.59,76.28.82,2.24,3.31,3.38,5.55,2.56h0c2.24-.82,3.39-3.3,2.56-5.53-15.51-41.62-29.53-74.11-31.7-73.31Z"/>
  <path class="cls-1" d="M305.21,299.22c-2.3-.22-7.58,34.75-11.96,78.93-.23,2.37,1.51,4.48,3.88,4.71h0c2.38.23,4.49-1.51,4.71-3.88,4.15-44.21,5.67-79.53,3.36-79.75Z"/>
</svg>