<?xml version="1.0" encoding="UTF-8"?>
<svg id="_图层_1" data-name="图层_1" xmlns="http://www.w3.org/2000/svg" viewBox="0 0 595.28 419.53">
  <defs>
    <style>
      .cls-1 {
        fill: #9d2324;
      }

      .cls-2 {
        fill: #cc261c;
      }

      .cls-3 {
        fill: #681218;
      }
    </style>
  </defs>
  <polygon class="cls-3" points="147.66 231.09 249.58 223.79 159.77 272.05 255.46 236.56 183.14 308.01 264.81 247.22 215.69 335.92 276.86 254.9 254.9 353.69 290.48 258.87 297.68 359.76 304.76 258.85 340.25 353.71 318.47 254.89 379.58 335.95 330.41 247.28 412.15 307.98 339.79 236.56 435.45 272.13 345.73 223.72 447.64 231.11 347.74 209.83 447.61 188.44 345.7 195.73 435.5 147.48 339.82 182.97 412.14 111.51 330.46 172.3 379.59 83.6 318.41 164.63 340.38 65.84 304.8 160.66 297.59 59.76 290.51 160.68 255.02 65.82 276.8 164.64 215.7 83.57 264.87 172.24 183.13 111.55 255.49 182.97 159.83 147.4 249.54 195.81 147.64 188.42 247.53 209.69 147.66 231.09"/>
  <polygon class="cls-1" points="250.17 216.57 168.99 209.77 250.17 202.96 174.17 173.9 253.99 190.06 189.42 140.88 261.39 178.69 213.37 113.52 271.74 169.8 244.17 93.91 284.1 164.2 279.38 83.69 297.64 162.3 315.9 83.69 311.17 164.2 351.11 93.91 323.54 169.8 381.9 113.52 333.89 178.69 405.85 140.88 341.29 190.06 421.11 173.9 345.11 202.96 426.29 209.77 345.11 216.57 421.11 245.63 341.29 229.47 405.86 278.65 333.9 240.83 381.9 306.01 323.54 249.73 351.12 325.62 311.17 255.33 315.9 335.84 297.64 257.23 279.38 335.84 284.1 255.33 244.17 325.62 271.74 249.73 213.37 306.01 261.39 240.83 189.42 278.65 253.99 229.47 174.17 245.63 250.17 216.57"/>
  <g>
    <polygon class="cls-2" points="297.64 224.3 282.34 315.47 293.47 223.74 252.98 306.51 289.73 222.04 226.85 290.61 286.52 219.27 206.96 267.49 284.24 215.79 194.65 239.68 283.1 211.91 189.29 209.77 283.1 207.62 194.65 179.84 284.23 203.74 206.96 152.04 286.52 200.26 226.85 128.92 289.73 197.49 252.98 113.02 293.47 195.79 282.34 104.06 297.64 195.23 312.94 104.05 301.81 195.79 342.29 113.02 305.54 197.49 368.43 128.91 308.75 200.26 388.32 152.04 311.04 203.74 400.63 179.84 312.18 207.62 405.99 209.77 312.18 211.91 400.63 239.68 311.04 215.79 388.31 267.49 308.76 219.27 368.43 290.62 305.54 222.04 342.3 306.51 301.81 223.74 312.94 315.48 297.64 224.3"/>
    <path class="cls-2" d="M309.91,125.03l-8.23,67.87-.69,5.67,2.52-5.14,29.72-60.75-26.98,62-2.29,5.26,3.89-4.24,46.7-50.92-44.31,52.98-3.7,4.42,4.95-3,58.79-35.64-57.11,38.21-4.79,3.2,5.58-1.49,65.61-17.5-64.77,20.34-5.52,1.73,5.79.13,69.99,1.6-69.99,1.6-5.79.13,5.52,1.73,64.77,20.34-65.61-17.5-5.58-1.49,4.79,3.2,57.11,38.21-58.79-35.64-4.95-3,3.7,4.42,44.31,52.98-46.7-50.92-3.89-4.24,2.29,5.26,26.98,62-29.72-60.75-2.52-5.14.69,5.67,8.23,67.87-11.32-67.44-.95-5.67-.95,5.67-11.32,67.44,8.23-67.86.69-5.67-2.52,5.14-29.72,60.75,26.98-62,2.29-5.26-3.89,4.24-46.7,50.93,44.31-52.98,3.7-4.42-4.95,3-58.79,35.64,57.11-38.21,4.79-3.2-5.58,1.49-65.61,17.5,64.77-20.34,5.52-1.73-5.79-.13-69.99-1.6,69.99-1.6,5.79-.13-5.52-1.73-64.77-20.34,65.61,17.5,5.58,1.49-4.79-3.2-57.11-38.21,58.79,35.63,4.95,3-3.7-4.42-44.31-52.98,46.7,50.92,3.89,4.24-2.29-5.26-26.98-62,29.72,60.75,2.52,5.14-.69-5.67-8.23-67.87,11.32,67.44.95,5.67.95-5.67,11.32-67.44M315.97,83.08l-18.33,109.23-18.33-109.23,13.34,109.93-48.74-99.65,44.25,101.69-75.18-81.98,71.33,85.29-95.39-57.82,92.66,62-107.99-28.81,106.61,33.48-111.82,2.55,111.82,2.55-106.61,33.48,107.99-28.81-92.66,62.01,95.39-57.82-71.33,85.29,75.18-81.98-44.25,101.69,48.74-99.65-13.34,109.93,18.33-109.23,18.33,109.23-13.34-109.93,48.74,99.65-44.25-101.69,75.18,81.98-71.33-85.29,95.39,57.82-92.66-62,107.99,28.81-106.61-33.48,111.82-2.55-111.82-2.55,106.61-33.48-107.99,28.81,92.66-62-95.39,57.82,71.33-85.29-75.18,81.98,44.25-101.69-48.74,99.65,13.34-109.93h0Z"/>
  </g>
</svg>