<?xml version="1.0" encoding="UTF-8"?>
<svg id="_图层_1" data-name="图层_1" xmlns="http://www.w3.org/2000/svg" viewBox="0 0 595.28 419.53">
  <defs>
    <style>
      .cls-1 {
        fill: #c7e3c9;
      }

      .cls-2 {
        fill: #349394;
      }

      .cls-3 {
        fill: #80c489;
      }
    </style>
  </defs>
  <g>
    <g id="_x3C_径向重复_x3E_">
      <path class="cls-3" d="M293.33,357.92c-1.23-3.06-3.33-18.64.73-119.16,4.06,100.51,1.97,116.09.73,119.16-.45,1.12-1.02,1.12-1.47,0Z"/>
    </g>
    <g id="_x3C_径向重复_x3E_-2" data-name="_x3C_径向重复_x3E_">
      <path class="cls-3" d="M247.27,350.4c-.23-3.3,2.6-18.76,37.52-113.1-27.2,96.85-34,111.02-36.12,113.55-.78.93-1.31.76-1.4-.45Z"/>
    </g>
    <g id="_x3C_径向重复_x3E_-3" data-name="_x3C_径向重复_x3E_">
      <path class="cls-3" d="M205.8,329.01c.8-3.2,8.27-17.04,70.63-95.97-55.79,83.7-66.64,95.08-69.44,96.83-1.03.64-1.48.31-1.19-.86Z"/>
    </g>
    <g id="_x3C_径向重复_x3E_-4" data-name="_x3C_径向重复_x3E_">
      <path class="cls-3" d="M172.96,295.85c1.75-2.8,13.13-13.65,96.83-69.44-78.93,62.36-92.76,69.83-95.97,70.63-1.18.29-1.51-.16-.86-1.19Z"/>
    </g>
    <g id="_x3C_径向重复_x3E_-5" data-name="_x3C_径向重复_x3E_">
      <path class="cls-3" d="M151.98,254.16c2.53-2.12,16.7-8.92,113.55-36.12-94.34,34.92-109.8,37.75-113.1,37.52-1.21-.08-1.38-.62-.45-1.4Z"/>
    </g>
    <g id="_x3C_径向重复_x3E_-6" data-name="_x3C_径向重复_x3E_">
      <path class="cls-3" d="M144.91,208.03c3.06-1.23,18.64-3.33,119.16.73-100.51,4.06-116.09,1.97-119.16.73-1.12-.45-1.12-1.02,0-1.47Z"/>
    </g>
    <g id="_x3C_径向重复_x3E_-7" data-name="_x3C_径向重复_x3E_">
      <path class="cls-3" d="M152.43,161.98c3.3-.23,18.76,2.6,113.1,37.52-96.85-27.2-111.02-34-113.55-36.12-.93-.78-.76-1.31.45-1.4Z"/>
    </g>
    <g id="_x3C_径向重复_x3E_-8" data-name="_x3C_径向重复_x3E_">
      <path class="cls-3" d="M173.82,120.5c3.2.8,17.04,8.27,95.97,70.63-83.7-55.79-95.08-66.64-96.83-69.44-.64-1.03-.31-1.48.86-1.19Z"/>
    </g>
    <g id="_x3C_径向重复_x3E_-9" data-name="_x3C_径向重复_x3E_">
      <path class="cls-3" d="M206.99,87.67c2.8,1.75,13.65,13.13,69.44,96.83-62.36-78.93-69.83-92.76-70.63-95.97-.29-1.18.16-1.51,1.19-.86Z"/>
    </g>
    <g id="_x3C_径向重复_x3E_-10" data-name="_x3C_径向重复_x3E_">
      <path class="cls-3" d="M248.67,66.69c2.12,2.53,8.92,16.7,36.12,113.55-34.92-94.34-37.75-109.8-37.52-113.1.08-1.21.62-1.38,1.4-.45Z"/>
    </g>
    <g id="_x3C_径向重复_x3E_-11" data-name="_x3C_径向重复_x3E_">
      <path class="cls-3" d="M294.8,59.61c1.23,3.06,3.33,18.64-.73,119.16-4.06-100.51-1.97-116.09-.73-119.16.45-1.12,1.02-1.12,1.47,0Z"/>
    </g>
    <g id="_x3C_径向重复_x3E_-12" data-name="_x3C_径向重复_x3E_">
      <path class="cls-3" d="M340.85,67.14c.23,3.3-2.6,18.76-37.52,113.1,27.2-96.85,34-111.02,36.12-113.55.78-.93,1.31-.76,1.4.45Z"/>
    </g>
    <g id="_x3C_径向重复_x3E_-13" data-name="_x3C_径向重复_x3E_">
      <path class="cls-3" d="M382.33,88.53c-.8,3.2-8.27,17.04-70.63,95.97,55.79-83.7,66.64-95.08,69.44-96.83,1.03-.64,1.48-.31,1.19.86Z"/>
    </g>
    <g id="_x3C_径向重复_x3E_-14" data-name="_x3C_径向重复_x3E_">
      <path class="cls-3" d="M415.16,121.69c-1.75,2.8-13.13,13.65-96.83,69.44,78.93-62.36,92.76-69.83,95.97-70.63,1.18-.29,1.51.16.86,1.19Z"/>
    </g>
    <g id="_x3C_径向重复_x3E_-15" data-name="_x3C_径向重复_x3E_">
      <path class="cls-3" d="M436.15,163.38c-2.53,2.12-16.7,8.92-113.55,36.12,94.34-34.92,109.8-37.75,113.1-37.52,1.21.08,1.38.62.45,1.4Z"/>
    </g>
    <g id="_x3C_径向重复_x3E_-16" data-name="_x3C_径向重复_x3E_">
      <path class="cls-3" d="M443.22,209.5c-3.06,1.23-18.64,3.33-119.16-.73,100.51-4.06,116.09-1.97,119.16-.73,1.12.45,1.12,1.02,0,1.47Z"/>
    </g>
    <g id="_x3C_径向重复_x3E_-17" data-name="_x3C_径向重复_x3E_">
      <path class="cls-3" d="M435.69,255.56c-3.3.23-18.76-2.6-113.1-37.52,96.85,27.2,111.02,34,113.55,36.12.93.78.76,1.31-.45,1.4Z"/>
    </g>
    <g id="_x3C_径向重复_x3E_-18" data-name="_x3C_径向重复_x3E_">
      <path class="cls-3" d="M414.3,297.03c-3.2-.8-17.04-8.27-95.97-70.63,83.7,55.79,95.08,66.64,96.83,69.44.64,1.03.31,1.48-.86,1.19Z"/>
    </g>
    <g id="_x3C_径向重复_x3E_-19" data-name="_x3C_径向重复_x3E_">
      <path class="cls-3" d="M381.14,329.87c-2.8-1.75-13.65-13.13-69.44-96.83,62.36,78.93,69.83,92.76,70.63,95.97.29,1.18-.16,1.51-1.19.86Z"/>
    </g>
    <g id="_x3C_径向重复_x3E_-20" data-name="_x3C_径向重复_x3E_">
      <path class="cls-3" d="M339.46,350.85c-2.12-2.53-8.92-16.7-36.12-113.55,34.92,94.34,37.75,109.8,37.52,113.1-.08,1.21-.62,1.38-1.4.45Z"/>
    </g>
  </g>
  <g>
    <g id="_x3C_径向重复_x3E_-21" data-name="_x3C_径向重复_x3E_">
      <path class="cls-2" d="M202.53,116.43c2.37,1.01,12.11,8.44,65.26,66.07-57.63-53.15-65.06-62.89-66.07-65.26-.37-.87-.06-1.18.81-.81Z"/>
    </g>
    <g id="_x3C_径向重复_x3E_-22" data-name="_x3C_径向重复_x3E_">
      <path class="cls-2" d="M235.55,92.67c1.94,1.69,8.91,11.77,41.65,83-38.38-68.36-42.44-79.92-42.67-82.48-.08-.94.31-1.14,1.02-.52Z"/>
    </g>
    <g id="_x3C_径向重复_x3E_-23" data-name="_x3C_径向重复_x3E_">
      <path class="cls-2" d="M274.29,80.27c1.32,2.21,4.83,13.95,13.96,91.81-15.38-76.87-15.67-89.12-15.09-91.63.21-.92.65-.99,1.13-.18Z"/>
    </g>
    <g id="_x3C_径向重复_x3E_-24" data-name="_x3C_径向重复_x3E_">
      <path class="cls-2" d="M314.97,80.45c.58,2.51.29,14.76-15.09,91.63,9.13-77.86,12.64-89.6,13.96-91.81.49-.81.92-.74,1.13.18Z"/>
    </g>
    <g id="_x3C_径向重复_x3E_-25" data-name="_x3C_径向重复_x3E_">
      <path class="cls-2" d="M353.6,93.19c-.23,2.56-4.29,14.12-42.67,82.48,32.74-71.23,39.71-81.31,41.65-83,.71-.62,1.1-.42,1.02.52Z"/>
    </g>
    <g id="_x3C_径向重复_x3E_-26" data-name="_x3C_径向重复_x3E_">
      <path class="cls-2" d="M386.4,117.24c-1.01,2.37-8.44,12.11-66.07,65.26,53.15-57.63,62.89-65.06,65.26-66.07.87-.37,1.18-.06.81.81Z"/>
    </g>
    <g id="_x3C_径向重复_x3E_-27" data-name="_x3C_径向重复_x3E_">
      <path class="cls-2" d="M410.16,150.25c-1.69,1.94-11.77,8.91-83,41.65,68.36-38.38,79.92-42.44,82.48-42.67.94-.08,1.14.31.52,1.02Z"/>
    </g>
    <g id="_x3C_径向重复_x3E_-28" data-name="_x3C_径向重复_x3E_">
      <path class="cls-2" d="M422.56,188.99c-2.21,1.32-13.95,4.83-91.81,13.96,76.87-15.38,89.12-15.67,91.63-15.09.92.21.99.65.18,1.13Z"/>
    </g>
    <g id="_x3C_径向重复_x3E_-29" data-name="_x3C_径向重复_x3E_">
      <path class="cls-2" d="M422.38,229.67c-2.51.58-14.76.29-91.63-15.09,77.86,9.13,89.6,12.64,91.81,13.96.81.49.74.92-.18,1.13Z"/>
    </g>
    <g id="_x3C_径向重复_x3E_-30" data-name="_x3C_径向重复_x3E_">
      <path class="cls-2" d="M409.64,268.3c-2.56-.23-14.12-4.29-82.48-42.67,71.23,32.74,81.31,39.71,83,41.65.62.71.42,1.1-.52,1.02Z"/>
    </g>
    <g id="_x3C_径向重复_x3E_-31" data-name="_x3C_径向重复_x3E_">
      <path class="cls-2" d="M385.59,301.1c-2.37-1.01-12.11-8.44-65.26-66.07,57.63,53.15,65.06,62.89,66.07,65.26.37.87.06,1.18-.81.81Z"/>
    </g>
    <g id="_x3C_径向重复_x3E_-32" data-name="_x3C_径向重复_x3E_">
      <path class="cls-2" d="M352.58,324.87c-1.94-1.69-8.91-11.77-41.65-83,38.38,68.36,42.44,79.92,42.67,82.48.08.94-.31,1.14-1.02.52Z"/>
    </g>
    <g id="_x3C_径向重复_x3E_-33" data-name="_x3C_径向重复_x3E_">
      <path class="cls-2" d="M313.84,337.27c-1.32-2.21-4.83-13.95-13.96-91.81,15.38,76.87,15.67,89.12,15.09,91.63-.21.92-.65.99-1.13.18Z"/>
    </g>
    <g id="_x3C_径向重复_x3E_-34" data-name="_x3C_径向重复_x3E_">
      <path class="cls-2" d="M273.16,337.09c-.58-2.51-.29-14.76,15.09-91.63-9.13,77.86-12.64,89.6-13.96,91.81-.49.81-.92.74-1.13-.18Z"/>
    </g>
    <g id="_x3C_径向重复_x3E_-35" data-name="_x3C_径向重复_x3E_">
      <path class="cls-2" d="M234.53,324.35c.23-2.56,4.29-14.12,42.67-82.48-32.74,71.23-39.71,81.31-41.65,83-.71.62-1.1.42-1.02-.52Z"/>
    </g>
    <g id="_x3C_径向重复_x3E_-36" data-name="_x3C_径向重复_x3E_">
      <path class="cls-2" d="M201.73,300.3c1.01-2.37,8.44-12.11,66.07-65.26-53.15,57.63-62.89,65.06-65.26,66.07-.87.37-1.18.06-.81-.81Z"/>
    </g>
    <g id="_x3C_径向重复_x3E_-37" data-name="_x3C_径向重复_x3E_">
      <path class="cls-2" d="M177.96,267.28c1.69-1.94,11.77-8.91,83-41.65-68.36,38.38-79.92,42.44-82.48,42.67-.94.08-1.14-.31-.52-1.02Z"/>
    </g>
    <g id="_x3C_径向重复_x3E_-38" data-name="_x3C_径向重复_x3E_">
      <path class="cls-2" d="M165.56,228.54c2.21-1.32,13.95-4.83,91.81-13.96-76.87,15.38-89.12,15.67-91.63,15.09-.92-.21-.99-.65-.18-1.13Z"/>
    </g>
    <g id="_x3C_径向重复_x3E_-39" data-name="_x3C_径向重复_x3E_">
      <path class="cls-2" d="M165.74,187.87c2.51-.58,14.76-.29,91.63,15.09-77.86-9.13-89.6-12.64-91.81-13.96-.81-.49-.74-.92.18-1.13Z"/>
    </g>
    <g id="_x3C_径向重复_x3E_-40" data-name="_x3C_径向重复_x3E_">
      <path class="cls-2" d="M178.48,149.24c2.56.23,14.12,4.29,82.48,42.67-71.23-32.74-81.31-39.71-83-41.65-.62-.71-.42-1.1.52-1.02Z"/>
    </g>
  </g>
  <g>
    <g id="_x3C_径向重复_x3E_-41" data-name="_x3C_径向重复_x3E_">
      <ellipse class="cls-1" cx="294.06" cy="191.95" rx="3.47" ry="7.53"/>
    </g>
    <g id="_x3C_径向重复_x3E_-42" data-name="_x3C_径向重复_x3E_">
      <ellipse class="cls-1" cx="301.88" cy="193.88" rx="7.53" ry="3.47" transform="translate(-10.08 371.08) rotate(-62.31)"/>
    </g>
    <g id="_x3C_径向重复_x3E_-43" data-name="_x3C_径向重复_x3E_">
      <ellipse class="cls-1" cx="307.9" cy="199.22" rx="7.53" ry="3.47" transform="translate(-58.66 210.17) rotate(-34.62)"/>
    </g>
    <g id="_x3C_径向重复_x3E_-44" data-name="_x3C_径向重复_x3E_">
      <ellipse class="cls-1" cx="310.76" cy="206.74" rx="7.53" ry="3.47" transform="translate(-22.65 38.96) rotate(-6.92)"/>
    </g>
    <g id="_x3C_径向重复_x3E_-45" data-name="_x3C_径向重复_x3E_">
      <ellipse class="cls-1" cx="309.79" cy="214.73" rx="3.47" ry="7.53" transform="translate(-.84 428.24) rotate(-69.23)"/>
    </g>
    <g id="_x3C_径向重复_x3E_-46" data-name="_x3C_径向重复_x3E_">
      <ellipse class="cls-1" cx="305.21" cy="221.36" rx="3.47" ry="7.53" transform="translate(-70.03 258.06) rotate(-41.54)"/>
    </g>
    <g id="_x3C_径向重复_x3E_-47" data-name="_x3C_径向重复_x3E_">
      <ellipse class="cls-1" cx="298.09" cy="225.1" rx="3.47" ry="7.53" transform="translate(-45.21 77.88) rotate(-13.85)"/>
    </g>
    <g id="_x3C_径向重复_x3E_-48" data-name="_x3C_径向重复_x3E_">
      <ellipse class="cls-1" cx="290.04" cy="225.1" rx="7.53" ry="3.47" transform="translate(2.07 452.84) rotate(-76.15)"/>
    </g>
    <g id="_x3C_径向重复_x3E_-49" data-name="_x3C_径向重复_x3E_">
      <ellipse class="cls-1" cx="282.91" cy="221.36" rx="7.53" ry="3.47" transform="translate(-70.38 286.33) rotate(-48.46)"/>
    </g>
    <g id="_x3C_径向重复_x3E_-50" data-name="_x3C_径向重复_x3E_">
      <ellipse class="cls-1" cx="278.34" cy="214.73" rx="7.53" ry="3.47" transform="translate(-58.06 112.66) rotate(-20.77)"/>
    </g>
    <g id="_x3C_径向重复_x3E_-51" data-name="_x3C_径向重复_x3E_">
      <ellipse class="cls-1" cx="277.37" cy="206.74" rx="3.47" ry="7.53" transform="translate(38.7 457.17) rotate(-83.08)"/>
    </g>
    <g id="_x3C_径向重复_x3E_-52" data-name="_x3C_径向重复_x3E_">
      <ellipse class="cls-1" cx="280.22" cy="199.22" rx="3.47" ry="7.53" transform="translate(-42.91 316.67) rotate(-55.38)"/>
    </g>
    <g id="_x3C_径向重复_x3E_-53" data-name="_x3C_径向重复_x3E_">
      <ellipse class="cls-1" cx="286.25" cy="193.88" rx="3.47" ry="7.53" transform="translate(-57.31 155.23) rotate(-27.69)"/>
    </g>
  </g>
</svg>