<?xml version="1.0" encoding="UTF-8"?>
<svg id="_图层_1" data-name="图层_1" xmlns="http://www.w3.org/2000/svg" viewBox="0 0 595.28 419.53">
  <defs>
    <style>
      .cls-1 {
        fill: #f8ca78;
      }

      .cls-2 {
        fill: #e9562a;
      }

      .cls-3 {
        fill: #ef8026;
      }
    </style>
  </defs>
  <g>
    <g id="_x3C_径向重复_x3E_">
      <path class="cls-3" d="M273.84,234.65c-.89-.89-.8-2.35.19-3.12,1.96-1.53,3.92-3.06,5.87-4.59,2.16-1.69,4.33-3.38,6.49-5.07.06-.05.16-.04.21.01.05.05.07.14.01.21l-9.66,12.36c-.77.99-2.23,1.08-3.12.19Z"/>
    </g>
    <g id="_x3C_径向重复_x3E_-2" data-name="_x3C_径向重复_x3E_">
      <path class="cls-3" d="M267.11,225.39c-.57-1.12-.03-2.48,1.15-2.91,2.34-.85,4.67-1.7,7.01-2.55,2.58-.94,5.16-1.88,7.74-2.82.08-.03.16,0,.2.08.03.07.03.15-.05.21l-13.01,8.77c-1.04.7-2.46.33-3.02-.78Z"/>
    </g>
    <g id="_x3C_径向重复_x3E_-3" data-name="_x3C_径向重复_x3E_">
      <path class="cls-3" d="M263.57,214.49c-.2-1.24.74-2.37,1.99-2.41,2.48-.09,4.97-.17,7.45-.26,2.74-.1,5.49-.19,8.23-.29.08,0,.15.06.16.14.01.07-.02.15-.11.18l-15.08,4.32c-1.2.35-2.44-.44-2.64-1.68Z"/>
    </g>
    <g id="_x3C_径向重复_x3E_-4" data-name="_x3C_径向重复_x3E_">
      <path class="cls-3" d="M263.57,203.04c.2-1.24,1.43-2.02,2.64-1.68,2.39.68,4.78,1.37,7.17,2.05,2.64.76,5.28,1.51,7.91,2.27.08.02.13.1.11.18-.01.07-.07.14-.16.14l-15.68-.55c-1.25-.04-2.18-1.17-1.99-2.41Z"/>
    </g>
    <g id="_x3C_径向重复_x3E_-5" data-name="_x3C_径向重复_x3E_">
      <path class="cls-3" d="M267.11,192.15c.57-1.12,1.99-1.48,3.02-.78,2.06,1.39,4.12,2.78,6.18,4.17,2.28,1.53,4.55,3.07,6.83,4.6.07.05.09.13.05.21-.03.07-.11.11-.2.08l-14.74-5.37c-1.18-.43-1.71-1.79-1.14-2.91Z"/>
    </g>
    <g id="_x3C_径向重复_x3E_-6" data-name="_x3C_径向重复_x3E_">
      <path class="cls-3" d="M273.84,182.89c.89-.89,2.35-.8,3.12.19,1.53,1.96,3.06,3.92,4.59,5.87,1.69,2.16,3.38,4.33,5.07,6.49.05.06.04.16-.01.21-.05.05-.14.07-.21.01l-12.36-9.66c-.99-.77-1.08-2.23-.19-3.12Z"/>
    </g>
    <g id="_x3C_径向重复_x3E_-7" data-name="_x3C_径向重复_x3E_">
      <path class="cls-3" d="M283.11,176.15c1.12-.57,2.48-.03,2.91,1.15.85,2.34,1.7,4.67,2.55,7.01.94,2.58,1.88,5.16,2.82,7.74.03.08,0,.16-.08.2-.07.03-.15.03-.21-.05l-8.77-13.01c-.7-1.04-.33-2.46.78-3.02Z"/>
    </g>
    <g id="_x3C_径向重复_x3E_-8" data-name="_x3C_径向重复_x3E_">
      <path class="cls-3" d="M294,172.61c1.24-.2,2.37.74,2.41,1.99.09,2.48.17,4.97.26,7.45.1,2.74.19,5.49.29,8.23,0,.08-.06.15-.14.16-.07.01-.15-.02-.18-.11l-4.32-15.08c-.35-1.2.44-2.44,1.68-2.64Z"/>
    </g>
    <g id="_x3C_径向重复_x3E_-9" data-name="_x3C_径向重复_x3E_">
      <path class="cls-3" d="M305.45,172.62c1.24.2,2.02,1.43,1.68,2.64-.68,2.39-1.37,4.78-2.05,7.17-.76,2.64-1.51,5.28-2.27,7.91-.02.08-.1.13-.18.11-.07-.01-.14-.07-.14-.16l.55-15.68c.04-1.25,1.17-2.18,2.41-1.99Z"/>
    </g>
    <g id="_x3C_径向重复_x3E_-10" data-name="_x3C_径向重复_x3E_">
      <path class="cls-3" d="M316.34,176.16c1.12.57,1.48,1.99.78,3.02-1.39,2.06-2.78,4.12-4.17,6.18-1.53,2.28-3.07,4.55-4.6,6.83-.05.07-.13.09-.21.05-.07-.03-.11-.11-.08-.2l5.37-14.74c.43-1.18,1.79-1.71,2.91-1.14Z"/>
    </g>
    <g id="_x3C_径向重复_x3E_-11" data-name="_x3C_径向重复_x3E_">
      <path class="cls-3" d="M325.61,182.89c.89.89.8,2.35-.19,3.12-1.96,1.53-3.92,3.06-5.87,4.59-2.16,1.69-4.33,3.38-6.49,5.07-.06.05-.16.04-.21-.01-.05-.05-.07-.14-.01-.21l9.66-12.36c.77-.99,2.23-1.08,3.12-.19Z"/>
    </g>
    <g id="_x3C_径向重复_x3E_-12" data-name="_x3C_径向重复_x3E_">
      <path class="cls-3" d="M332.34,192.15c.57,1.12.03,2.48-1.15,2.91-2.34.85-4.67,1.7-7.01,2.55-2.58.94-5.16,1.88-7.74,2.82-.08.03-.16,0-.2-.08-.03-.07-.03-.15.05-.21l13.01-8.77c1.04-.7,2.46-.33,3.02.78Z"/>
    </g>
    <g id="_x3C_径向重复_x3E_-13" data-name="_x3C_径向重复_x3E_">
      <path class="cls-3" d="M335.88,203.04c.2,1.24-.74,2.37-1.99,2.41-2.48.09-4.97.17-7.45.26-2.74.1-5.49.19-8.23.29-.08,0-.15-.06-.16-.14-.01-.07.02-.15.11-.18l15.08-4.32c1.2-.35,2.44.44,2.64,1.68Z"/>
    </g>
    <g id="_x3C_径向重复_x3E_-14" data-name="_x3C_径向重复_x3E_">
      <path class="cls-3" d="M335.88,214.49c-.2,1.24-1.43,2.02-2.64,1.68-2.39-.68-4.78-1.37-7.17-2.05-2.64-.76-5.28-1.51-7.91-2.27-.08-.02-.13-.1-.11-.18.01-.07.07-.14.16-.14l15.68.55c1.25.04,2.18,1.17,1.99,2.41Z"/>
    </g>
    <g id="_x3C_径向重复_x3E_-15" data-name="_x3C_径向重复_x3E_">
      <path class="cls-3" d="M332.34,225.39c-.57,1.12-1.99,1.48-3.02.78-2.06-1.39-4.12-2.78-6.18-4.17-2.28-1.53-4.55-3.07-6.83-4.6-.07-.05-.09-.13-.05-.21.03-.07.11-.11.2-.08l14.74,5.37c1.18.43,1.71,1.79,1.14,2.91Z"/>
    </g>
    <g id="_x3C_径向重复_x3E_-16" data-name="_x3C_径向重复_x3E_">
      <path class="cls-3" d="M325.61,234.65c-.89.89-2.35.8-3.12-.19-1.53-1.96-3.06-3.92-4.59-5.87-1.69-2.16-3.38-4.33-5.07-6.49-.05-.06-.04-.16.01-.21.05-.05.14-.07.21-.01l12.36,9.66c.99.77,1.08,2.23.19,3.12Z"/>
    </g>
    <g id="_x3C_径向重复_x3E_-17" data-name="_x3C_径向重复_x3E_">
      <path class="cls-3" d="M316.34,241.38c-1.12.57-2.48.03-2.91-1.15-.85-2.34-1.7-4.67-2.55-7.01-.94-2.58-1.88-5.16-2.82-7.74-.03-.08,0-.16.08-.2.07-.03.15-.03.21.05l8.77,13.01c.7,1.04.33,2.46-.78,3.02Z"/>
    </g>
    <g id="_x3C_径向重复_x3E_-18" data-name="_x3C_径向重复_x3E_">
      <path class="cls-3" d="M305.45,244.92c-1.24.2-2.37-.74-2.41-1.99-.09-2.48-.17-4.97-.26-7.45-.1-2.74-.19-5.49-.29-8.23,0-.08.06-.15.14-.16.07-.01.15.02.18.11l4.32,15.08c.35,1.2-.44,2.44-1.68,2.64Z"/>
    </g>
    <g id="_x3C_径向重复_x3E_-19" data-name="_x3C_径向重复_x3E_">
      <path class="cls-3" d="M294,244.92c-1.24-.2-2.02-1.43-1.68-2.64.68-2.39,1.37-4.78,2.05-7.17.76-2.64,1.51-5.28,2.27-7.91.02-.08.1-.13.18-.11.07.01.14.07.14.16l-.55,15.68c-.04,1.25-1.17,2.18-2.41,1.99Z"/>
    </g>
    <g id="_x3C_径向重复_x3E_-20" data-name="_x3C_径向重复_x3E_">
      <path class="cls-3" d="M283.11,241.38c-1.12-.57-1.48-1.99-.78-3.02,1.39-2.06,2.78-4.12,4.17-6.18,1.53-2.28,3.07-4.55,4.6-6.83.05-.07.13-.09.21-.05.07.03.11.11.08.2l-5.37,14.74c-.43,1.18-1.79,1.71-2.91,1.14Z"/>
    </g>
  </g>
  <g>
    <g id="_x3C_径向重复_x3E_-21" data-name="_x3C_径向重复_x3E_">
      <path class="cls-1" d="M223.22,285.27c-2.62-2.62-2.35-6.94.56-9.22,5.79-4.52,11.58-9.05,17.36-13.57,6.39-4.99,12.78-9.99,19.18-14.98.19-.15.46-.13.63.04.15.15.21.41.04.63l-28.55,36.54c-2.28,2.92-6.6,3.18-9.22.56Z"/>
    </g>
    <g id="_x3C_径向重复_x3E_-22" data-name="_x3C_径向重复_x3E_">
      <path class="cls-1" d="M203.32,257.88c-1.68-3.3-.1-7.33,3.38-8.59,6.9-2.51,13.8-5.03,20.71-7.54,7.62-2.78,15.25-5.55,22.87-8.33.22-.08.48.02.58.23.1.19.07.45-.16.61l-38.45,25.93c-3.07,2.07-7.26.99-8.94-2.31Z"/>
    </g>
    <g id="_x3C_径向重复_x3E_-23" data-name="_x3C_径向重复_x3E_">
      <path class="cls-1" d="M192.87,225.69c-.58-3.66,2.17-7,5.87-7.13,7.34-.26,14.68-.51,22.02-.77,8.11-.28,16.21-.57,24.32-.85.24,0,.45.16.49.4.03.22-.07.45-.34.53l-44.58,12.78c-3.56,1.02-7.21-1.31-7.79-4.96Z"/>
    </g>
    <g id="_x3C_径向重复_x3E_-24" data-name="_x3C_径向重复_x3E_">
      <path class="cls-1" d="M192.86,191.84c.58-3.66,4.23-5.98,7.79-4.96,7.06,2.02,14.12,4.05,21.18,6.07,7.8,2.24,15.6,4.47,23.39,6.71.23.07.38.29.34.53-.03.22-.21.41-.49.4l-46.34-1.62c-3.7-.13-6.45-3.47-5.87-7.13Z"/>
    </g>
    <g id="_x3C_径向重复_x3E_-25" data-name="_x3C_径向重复_x3E_">
      <path class="cls-1" d="M203.33,159.65c1.68-3.3,5.87-4.38,8.94-2.31,6.09,4.11,12.18,8.21,18.27,12.32,6.73,4.54,13.45,9.07,20.18,13.61.2.13.27.4.16.61-.1.19-.32.33-.59.23l-43.58-15.86c-3.48-1.27-5.07-5.29-3.38-8.59Z"/>
    </g>
    <g id="_x3C_径向重复_x3E_-26" data-name="_x3C_径向重复_x3E_">
      <path class="cls-1" d="M223.22,132.27c2.62-2.62,6.94-2.35,9.22.56,4.52,5.79,9.05,11.58,13.57,17.36,4.99,6.39,9.99,12.78,14.98,19.18.15.19.13.46-.04.63-.15.15-.41.21-.63.04l-36.54-28.55c-2.92-2.28-3.18-6.6-.56-9.22Z"/>
    </g>
    <g id="_x3C_径向重复_x3E_-27" data-name="_x3C_径向重复_x3E_">
      <path class="cls-1" d="M250.61,112.37c3.3-1.68,7.33-.1,8.59,3.38,2.51,6.9,5.03,13.8,7.54,20.71,2.78,7.62,5.55,15.25,8.33,22.87.08.22-.02.48-.23.58-.19.1-.45.07-.61-.16l-25.93-38.45c-2.07-3.07-.99-7.26,2.31-8.94Z"/>
    </g>
    <g id="_x3C_径向重复_x3E_-28" data-name="_x3C_径向重复_x3E_">
      <path class="cls-1" d="M282.8,101.91c3.66-.58,7,2.17,7.13,5.87.26,7.34.51,14.68.77,22.02.28,8.11.57,16.21.85,24.32,0,.24-.16.45-.4.49-.22.03-.45-.07-.53-.34l-12.78-44.58c-1.02-3.56,1.31-7.21,4.96-7.79Z"/>
    </g>
    <g id="_x3C_径向重复_x3E_-29" data-name="_x3C_径向重复_x3E_">
      <path class="cls-1" d="M316.65,101.91c3.66.58,5.98,4.23,4.96,7.79-2.02,7.06-4.05,14.12-6.07,21.18-2.24,7.8-4.47,15.6-6.71,23.39-.07.23-.29.38-.53.34-.22-.03-.41-.21-.4-.49l1.62-46.34c.13-3.7,3.47-6.45,7.13-5.87Z"/>
    </g>
    <g id="_x3C_径向重复_x3E_-30" data-name="_x3C_径向重复_x3E_">
      <path class="cls-1" d="M348.84,112.37c3.3,1.68,4.38,5.87,2.31,8.94-4.11,6.09-8.21,12.18-12.32,18.27-4.54,6.73-9.07,13.45-13.61,20.18-.13.2-.4.27-.61.16-.19-.1-.33-.32-.23-.59l15.86-43.58c1.27-3.48,5.29-5.07,8.59-3.38Z"/>
    </g>
    <g id="_x3C_径向重复_x3E_-31" data-name="_x3C_径向重复_x3E_">
      <path class="cls-1" d="M376.23,132.26c2.62,2.62,2.35,6.94-.56,9.22-5.79,4.52-11.58,9.05-17.36,13.57-6.39,4.99-12.78,9.99-19.18,14.98-.19.15-.46.13-.63-.04-.15-.15-.21-.41-.04-.63l28.55-36.54c2.28-2.92,6.6-3.18,9.22-.56Z"/>
    </g>
    <g id="_x3C_径向重复_x3E_-32" data-name="_x3C_径向重复_x3E_">
      <path class="cls-1" d="M396.13,159.65c1.68,3.3.1,7.33-3.38,8.59-6.9,2.51-13.8,5.03-20.71,7.54-7.62,2.78-15.25,5.55-22.87,8.33-.22.08-.48-.02-.58-.23-.1-.19-.07-.45.16-.61l38.45-25.93c3.07-2.07,7.26-.99,8.94,2.31Z"/>
    </g>
    <g id="_x3C_径向重复_x3E_-33" data-name="_x3C_径向重复_x3E_">
      <path class="cls-1" d="M406.59,191.84c.58,3.66-2.17,7-5.87,7.13-7.34.26-14.68.51-22.02.77-8.11.28-16.21.57-24.32.85-.24,0-.45-.16-.49-.4-.03-.22.07-.45.34-.53l44.58-12.78c3.56-1.02,7.21,1.31,7.79,4.96Z"/>
    </g>
    <g id="_x3C_径向重复_x3E_-34" data-name="_x3C_径向重复_x3E_">
      <path class="cls-1" d="M406.58,225.69c-.58,3.66-4.23,5.98-7.79,4.96-7.06-2.02-14.12-4.05-21.18-6.07-7.8-2.24-15.6-4.47-23.39-6.71-.23-.07-.38-.29-.34-.53.03-.22.21-.41.49-.4l46.34,1.62c3.7.13,6.45,3.47,5.87,7.13Z"/>
    </g>
    <g id="_x3C_径向重复_x3E_-35" data-name="_x3C_径向重复_x3E_">
      <path class="cls-1" d="M396.13,257.89c-1.68,3.3-5.87,4.38-8.94,2.31-6.09-4.11-12.18-8.21-18.27-12.32-6.73-4.54-13.45-9.07-20.18-13.61-.2-.13-.27-.4-.16-.61.1-.19.32-.33.59-.23l43.58,15.86c3.48,1.27,5.07,5.29,3.38,8.59Z"/>
    </g>
    <g id="_x3C_径向重复_x3E_-36" data-name="_x3C_径向重复_x3E_">
      <path class="cls-1" d="M376.23,285.27c-2.62,2.62-6.94,2.35-9.22-.56-4.52-5.79-9.05-11.58-13.57-17.36-4.99-6.39-9.99-12.78-14.98-19.18-.15-.19-.13-.46.04-.63.15-.15.41-.21.63-.04l36.54,28.55c2.92,2.28,3.18,6.6.56,9.22Z"/>
    </g>
    <g id="_x3C_径向重复_x3E_-37" data-name="_x3C_径向重复_x3E_">
      <path class="cls-1" d="M348.84,305.17c-3.3,1.68-7.33.1-8.59-3.38-2.51-6.9-5.03-13.8-7.54-20.71-2.78-7.62-5.55-15.25-8.33-22.87-.08-.22.02-.48.23-.58.19-.1.45-.07.61.16l25.93,38.45c2.07,3.07.99,7.26-2.31,8.94Z"/>
    </g>
    <g id="_x3C_径向重复_x3E_-38" data-name="_x3C_径向重复_x3E_">
      <path class="cls-1" d="M316.65,315.63c-3.66.58-7-2.17-7.13-5.87-.26-7.34-.51-14.68-.77-22.02-.28-8.11-.57-16.21-.85-24.32,0-.24.16-.45.4-.49.22-.03.45.07.53.34l12.78,44.58c1.02,3.56-1.31,7.21-4.96,7.79Z"/>
    </g>
    <g id="_x3C_径向重复_x3E_-39" data-name="_x3C_径向重复_x3E_">
      <path class="cls-1" d="M282.8,315.63c-3.66-.58-5.98-4.23-4.96-7.79,2.02-7.06,4.05-14.12,6.07-21.18,2.24-7.8,4.47-15.6,6.71-23.39.07-.23.29-.38.53-.34.22.03.41.21.4.49l-1.62,46.34c-.13,3.7-3.47,6.45-7.13,5.87Z"/>
    </g>
    <g id="_x3C_径向重复_x3E_-40" data-name="_x3C_径向重复_x3E_">
      <path class="cls-1" d="M250.61,305.17c-3.3-1.68-4.38-5.87-2.31-8.94,4.11-6.09,8.21-12.18,12.32-18.27,4.54-6.73,9.07-13.45,13.61-20.18.13-.2.4-.27.61-.16.19.1.33.32.23.59l-15.86,43.58c-1.27,3.48-5.29,5.07-8.59,3.38Z"/>
    </g>
  </g>
  <g>
    <g id="_x3C_径向重复_x3E_-41" data-name="_x3C_径向重复_x3E_">
      <polygon class="cls-2" points="296.17 358.77 299.73 254.6 303.28 358.77 296.17 358.77"/>
    </g>
    <g id="_x3C_径向重复_x3E_-42" data-name="_x3C_径向重复_x3E_">
      <polygon class="cls-2" points="249.99 350.33 285.56 252.35 256.75 352.52 249.99 350.33"/>
    </g>
    <g id="_x3C_径向重复_x3E_-43" data-name="_x3C_径向重复_x3E_">
      <polygon class="cls-2" points="208.68 328.03 272.78 245.84 214.43 332.21 208.68 328.03"/>
    </g>
    <g id="_x3C_径向重复_x3E_-44" data-name="_x3C_径向重复_x3E_">
      <polygon class="cls-2" points="176.28 294.06 262.65 235.7 180.46 299.81 176.28 294.06"/>
    </g>
    <g id="_x3C_径向重复_x3E_-45" data-name="_x3C_径向重复_x3E_">
      <polygon class="cls-2" points="155.97 251.74 256.14 222.93 158.17 258.5 155.97 251.74"/>
    </g>
    <g id="_x3C_径向重复_x3E_-46" data-name="_x3C_径向重复_x3E_">
      <polygon class="cls-2" points="149.72 205.21 253.89 208.77 149.72 212.32 149.72 205.21"/>
    </g>
    <g id="_x3C_径向重复_x3E_-47" data-name="_x3C_径向重复_x3E_">
      <polygon class="cls-2" points="158.17 159.03 256.14 194.6 155.97 165.8 158.17 159.03"/>
    </g>
    <g id="_x3C_径向重复_x3E_-48" data-name="_x3C_径向重复_x3E_">
      <polygon class="cls-2" points="180.46 117.72 262.65 181.83 176.28 123.48 180.46 117.72"/>
    </g>
    <g id="_x3C_径向重复_x3E_-49" data-name="_x3C_径向重复_x3E_">
      <polygon class="cls-2" points="214.43 85.33 272.79 171.69 208.68 89.51 214.43 85.33"/>
    </g>
    <g id="_x3C_径向重复_x3E_-50" data-name="_x3C_径向重复_x3E_">
      <polygon class="cls-2" points="256.75 65.01 285.56 165.18 249.99 67.21 256.75 65.01"/>
    </g>
    <g id="_x3C_径向重复_x3E_-51" data-name="_x3C_径向重复_x3E_">
      <polygon class="cls-2" points="303.28 58.77 299.72 162.94 296.17 58.77 303.28 58.77"/>
    </g>
    <g id="_x3C_径向重复_x3E_-52" data-name="_x3C_径向重复_x3E_">
      <polygon class="cls-2" points="349.46 67.21 313.89 165.18 342.7 65.01 349.46 67.21"/>
    </g>
    <g id="_x3C_径向重复_x3E_-53" data-name="_x3C_径向重复_x3E_">
      <polygon class="cls-2" points="390.77 89.51 326.66 171.69 385.02 85.33 390.77 89.51"/>
    </g>
    <g id="_x3C_径向重复_x3E_-54" data-name="_x3C_径向重复_x3E_">
      <polygon class="cls-2" points="423.17 123.48 336.8 181.83 418.99 117.72 423.17 123.48"/>
    </g>
    <g id="_x3C_径向重复_x3E_-55" data-name="_x3C_径向重复_x3E_">
      <polygon class="cls-2" points="443.48 165.8 343.31 194.61 441.28 159.03 443.48 165.8"/>
    </g>
    <g id="_x3C_径向重复_x3E_-56" data-name="_x3C_径向重复_x3E_">
      <polygon class="cls-2" points="449.72 212.32 345.56 208.77 449.72 205.21 449.72 212.32"/>
    </g>
    <g id="_x3C_径向重复_x3E_-57" data-name="_x3C_径向重复_x3E_">
      <polygon class="cls-2" points="441.28 258.5 343.31 222.93 443.48 251.74 441.28 258.5"/>
    </g>
    <g id="_x3C_径向重复_x3E_-58" data-name="_x3C_径向重复_x3E_">
      <polygon class="cls-2" points="418.98 299.81 336.8 235.71 423.16 294.06 418.98 299.81"/>
    </g>
    <g id="_x3C_径向重复_x3E_-59" data-name="_x3C_径向重复_x3E_">
      <polygon class="cls-2" points="385.01 332.21 326.66 245.85 390.77 328.03 385.01 332.21"/>
    </g>
    <g id="_x3C_径向重复_x3E_-60" data-name="_x3C_径向重复_x3E_">
      <polygon class="cls-2" points="342.7 352.53 313.89 252.36 349.46 350.33 342.7 352.53"/>
    </g>
  </g>
</svg>