<?xml version="1.0" encoding="UTF-8"?>
<svg id="_图层_1" data-name="图层_1" xmlns="http://www.w3.org/2000/svg" viewBox="0 0 595.28 419.53">
  <defs>
    <style>
      .cls-1 {
        fill: #4f81c2;
      }

      .cls-2 {
        fill: #fff;
      }

      .cls-3 {
        fill: #223e95;
      }

      .cls-4 {
        fill: #3c6fb6;
      }

      .cls-5 {
        fill: #a1bce2;
      }
    </style>
  </defs>
  <g>
    <path class="cls-1" d="M281.98,275.62c-1.74-1.05-19.25,24.58-39.59,57.83-1.09,1.78-.52,4.11,1.27,5.19h0c1.79,1.08,4.12.51,5.21-1.28,20.16-33.35,34.84-60.69,33.11-61.74Z"/>
    <path class="cls-1" d="M257.27,251.79c-1.11-1.69-28.05,13.82-60.85,34.98-1.76,1.13-2.26,3.48-1.11,5.23h0c1.14,1.75,3.5,2.24,5.25,1.1,32.69-21.33,57.82-39.61,56.71-41.31Z"/>
    <path class="cls-1" d="M245.39,219.63c-.26-2-31.29.33-70.05,5.21-2.08.26-3.55,2.16-3.28,4.23h0c.27,2.07,2.17,3.53,4.25,3.26,38.74-5.09,69.34-10.69,69.08-12.7Z"/>
    <path class="cls-1" d="M248.68,185.52c.64-1.92-28.33-13.23-65.39-25.59-1.99-.66-4.14.41-4.8,2.39h0c-.66,1.98.42,4.12,2.41,4.77,37.12,12.16,67.13,20.35,67.77,18.43Z"/>
    <path class="cls-1" d="M266.5,156.21c1.41-1.45-19.76-24.17-47.77-51.32-1.5-1.46-3.9-1.42-5.36.08h0c-1.46,1.5-1.41,3.89.09,5.34,28.15,27.01,51.62,47.35,53.04,45.9Z"/>
    <path class="cls-1" d="M295.32,137.51c1.9-.7-7.28-30.32-20.69-66.89-.72-1.96-2.9-2.97-4.87-2.25h0c-1.97.72-2.97,2.9-2.24,4.85,13.6,36.5,25.89,64.98,27.8,64.28Z"/>
    <path class="cls-1" d="M329.42,133.12c2.02.19,6.64-30.47,10.49-69.21.21-2.08-1.32-3.93-3.41-4.13h0c-2.08-.2-3.94,1.33-4.13,3.4-3.64,38.76-4.97,69.74-2.95,69.94Z"/>
    <path class="cls-1" d="M362.06,143.91c1.74,1.05,19.25-24.58,39.59-57.83,1.09-1.78.52-4.11-1.27-5.19h0c-1.79-1.08-4.12-.51-5.21,1.28-20.16,33.35-34.84,60.69-33.11,61.74Z"/>
    <path class="cls-1" d="M386.77,167.74c1.11,1.69,28.05-13.82,60.85-34.98,1.76-1.13,2.26-3.48,1.11-5.23h0c-1.14-1.75-3.5-2.24-5.25-1.1-32.69,21.33-57.82,39.61-56.71,41.31Z"/>
    <path class="cls-1" d="M398.66,199.9c.26,2,31.29-.33,70.05-5.21,2.08-.26,3.55-2.16,3.28-4.23h0c-.27-2.07-2.17-3.53-4.25-3.26-38.74,5.09-69.34,10.69-69.08,12.7Z"/>
    <path class="cls-1" d="M395.37,234.01c-.64,1.92,28.33,13.23,65.39,25.59,1.99.66,4.14-.41,4.8-2.39h0c.66-1.98-.42-4.12-2.41-4.77-37.12-12.16-67.13-20.35-67.77-18.43Z"/>
    <path class="cls-1" d="M377.55,263.32c-1.41,1.45,19.76,24.17,47.77,51.32,1.5,1.46,3.9,1.42,5.36-.08h0c1.46-1.5,1.41-3.89-.09-5.34-28.15-27.01-51.62-47.35-53.04-45.9Z"/>
    <path class="cls-1" d="M348.73,282.02c-1.9.7,7.28,30.32,20.69,66.89.72,1.96,2.9,2.97,4.87,2.25h0c1.97-.72,2.97-2.9,2.24-4.85-13.6-36.5-25.89-64.98-27.8-64.28Z"/>
    <path class="cls-1" d="M314.62,286.41c-2.02-.19-6.64,30.47-10.49,69.21-.21,2.08,1.32,3.93,3.41,4.13h0c2.08.2,3.94-1.33,4.13-3.4,3.64-38.76,4.97-69.74,2.95-69.94Z"/>
  </g>
  <path class="cls-3" d="M417.6,174.3c2.35,6.29-23.09,19.39-22.23,25.77.88,6.59,28.83,12.62,28.22,19.08-.62,6.57-29.23,7.36-31.28,13.57s20.51,23.77,17.12,29.39c-3.37,5.6-29.5-6.01-34.08-1.25-4.51,4.68,8.2,30.24,2.62,33.88-5.4,3.53-23.84-18.25-30.15-15.91-6.31,2.34-5.97,30.83-12.37,31.68-6.61.88-13.77-26.74-20.25-27.34-6.59-.61-18.74,25.19-24.96,23.15-6.26-2.05-.69-30.02-6.34-33.4-5.62-3.36-27.79,14.68-32.56,10.12-4.7-4.49,12.48-27.27,8.83-32.82-3.54-5.38-31.38,1.28-33.73-5.01-2.35-6.29,23.09-19.39,22.23-25.77-.88-6.59-28.83-12.62-28.22-19.08.62-6.57,29.23-7.36,31.28-13.57,2.06-6.24-20.51-23.77-17.12-29.39,3.37-5.6,29.5,6.01,34.08,1.25,4.51-4.68-8.2-30.24-2.62-33.88,5.4-3.53,23.84,18.25,30.15,15.91,6.31-2.34,5.97-30.83,12.37-31.68,6.61-.88,13.77,26.74,20.25,27.34,6.59.61,18.74-25.19,24.96-23.15,6.26,2.05.69,30.02,6.34,33.4,5.62,3.36,27.79-14.68,32.56-10.12,4.7,4.49-12.48,27.27-8.83,32.82,3.54,5.38,31.38-1.28,33.73,5.01Z"/>
  <g>
    <path class="cls-4" d="M321.58,214.1c-1.47-.15-4.97,22.1-7.95,50.22-.16,1.51.94,2.86,2.45,3.01h0c1.51.16,2.87-.94,3.02-2.45,2.83-28.14,3.94-50.63,2.48-50.78Z"/>
    <path class="cls-4" d="M320.62,213.89c-1.4-.47-9.78,20.44-18.96,47.2-.49,1.43.28,3,1.72,3.48h0c1.44.49,3.01-.29,3.49-1.72,9.04-26.81,15.15-48.49,13.76-48.96Z"/>
    <path class="cls-4" d="M319.73,213.48c-1.26-.77-14.1,17.76-29.03,41.81-.8,1.29-.4,2.98.9,3.78h0c1.3.79,2.99.39,3.79-.91,14.8-24.13,25.6-43.92,24.34-44.68Z"/>
    <path class="cls-4" d="M318.96,212.87c-1.05-1.03-17.71,14.19-37.64,34.33-1.07,1.08-1.05,2.82.03,3.88h0c1.09,1.06,2.83,1.04,3.89-.04,19.82-20.24,34.76-37.14,33.71-38.17Z"/>
    <path class="cls-4" d="M318.34,212.12c-.8-1.24-20.44,9.91-44.36,25.12-1.28.82-1.66,2.51-.83,3.79h0c.82,1.28,2.53,1.64,3.81.82,23.84-15.34,42.19-28.5,41.39-29.73Z"/>
    <path class="cls-4" d="M317.91,211.24c-.5-1.38-22.14,5.13-48.86,14.66-1.43.51-2.18,2.08-1.66,3.51h0c.52,1.43,2.1,2.16,3.53,1.65,26.67-9.67,47.49-18.43,46.99-19.81Z"/>
    <path class="cls-4" d="M317.68,210.29c-.18-1.46-22.73.09-50.91,3.45-1.51.18-2.59,1.55-2.4,3.05h0c.19,1.5,1.56,2.57,3.07,2.39,28.16-3.51,50.42-7.44,50.24-8.9Z"/>
    <path class="cls-4" d="M317.67,209.32c.15-1.46-22.18-4.95-50.4-7.92-1.51-.16-2.87.94-3.02,2.45h0c-.16,1.51.95,2.86,2.46,3.01,28.24,2.82,50.82,3.93,50.97,2.47Z"/>
    <path class="cls-4" d="M317.88,208.37c.47-1.39-20.52-9.75-47.37-18.9-1.44-.49-3.01.28-3.49,1.71h0c-.49,1.44.29,2.99,1.73,3.48,26.9,9.01,48.66,15.1,49.14,13.71Z"/>
    <path class="cls-4" d="M318.3,207.48c.77-1.25-17.83-14.05-41.96-28.93-1.29-.8-2.99-.4-3.79.9h0c-.8,1.29-.39,2.98.91,3.77,24.22,14.75,44.07,25.51,44.84,24.26Z"/>
    <path class="cls-4" d="M318.9,206.71c1.03-1.05-14.24-17.65-34.45-37.51-1.08-1.06-2.83-1.05-3.89.03h0c-1.07,1.08-1.05,2.82.04,3.88,20.31,19.75,37.27,34.64,38.3,33.59Z"/>
    <path class="cls-4" d="M319.66,206.1c1.24-.79-9.94-20.37-25.21-44.2-.82-1.28-2.52-1.65-3.8-.83h0c-1.28.82-1.65,2.52-.82,3.79,15.4,23.76,28.6,42.04,29.84,41.24Z"/>
    <path class="cls-4" d="M320.54,205.66c1.39-.5-5.14-22.06-14.71-48.69-.51-1.43-2.09-2.17-3.52-1.65h0c-1.43.51-2.17,2.09-1.65,3.51,9.7,26.58,18.5,47.32,19.88,46.83Z"/>
    <path class="cls-4" d="M321.49,205.44c1.46-.18-.09-22.65-3.47-50.73-.18-1.51-1.56-2.58-3.07-2.39h0c-1.51.18-2.58,1.56-2.39,3.06,3.53,28.06,7.46,50.24,8.93,50.06Z"/>
    <path class="cls-4" d="M322.47,205.43c1.47.15,4.97-22.1,7.95-50.22.16-1.51-.94-2.86-2.45-3.01h0c-1.51-.16-2.87.94-3.02,2.45-2.83,28.14-3.94,50.63-2.48,50.78Z"/>
    <path class="cls-4" d="M323.43,205.64c1.4.47,9.78-20.44,18.96-47.2.49-1.43-.28-3-1.72-3.48h0c-1.44-.49-3.01.29-3.49,1.72-9.04,26.81-15.15,48.49-13.76,48.96Z"/>
    <path class="cls-4" d="M324.31,206.05c1.26.77,14.1-17.76,29.03-41.81.8-1.29.4-2.98-.9-3.78h0c-1.3-.79-2.99-.39-3.79.91-14.8,24.13-25.6,43.92-24.34,44.68Z"/>
    <path class="cls-4" d="M325.09,206.65c1.05,1.03,17.71-14.19,37.64-34.33,1.07-1.08,1.05-2.82-.03-3.88h0c-1.09-1.06-2.83-1.04-3.89.04-19.82,20.24-34.76,37.14-33.71,38.17Z"/>
    <path class="cls-4" d="M325.7,207.41c.8,1.24,20.44-9.91,44.36-25.12,1.28-.82,1.66-2.51.83-3.79h0c-.82-1.28-2.53-1.64-3.81-.82-23.84,15.34-42.19,28.5-41.39,29.73Z"/>
    <path class="cls-4" d="M326.14,208.28c.5,1.38,22.14-5.13,48.86-14.66,1.43-.51,2.18-2.08,1.66-3.51h0c-.52-1.43-2.1-2.16-3.53-1.65-26.67,9.67-47.49,18.43-46.99,19.81Z"/>
    <path class="cls-4" d="M326.37,209.23c.18,1.46,22.73-.09,50.91-3.45,1.51-.18,2.59-1.55,2.4-3.05h0c-.19-1.5-1.56-2.57-3.07-2.39-28.16,3.51-50.42,7.44-50.24,8.9Z"/>
    <path class="cls-4" d="M326.37,210.21c-.15,1.46,22.18,4.95,50.4,7.92,1.51.16,2.87-.94,3.02-2.45h0c.16-1.51-.95-2.86-2.46-3.01-28.24-2.82-50.82-3.93-50.97-2.47Z"/>
    <path class="cls-4" d="M326.17,211.16c-.47,1.39,20.52,9.75,47.37,18.9,1.44.49,3.01-.28,3.49-1.71h0c.49-1.44-.29-2.99-1.73-3.48-26.9-9.01-48.66-15.1-49.14-13.71Z"/>
    <path class="cls-4" d="M325.75,212.05c-.77,1.25,17.83,14.05,41.96,28.93,1.29.8,2.99.4,3.79-.9h0c.8-1.29.39-2.98-.91-3.77-24.22-14.75-44.07-25.51-44.84-24.26Z"/>
    <path class="cls-4" d="M325.15,212.81c-1.03,1.05,14.24,17.65,34.45,37.51,1.08,1.06,2.83,1.05,3.89-.03h0c1.07-1.08,1.05-2.82-.04-3.88-20.31-19.75-37.27-34.64-38.3-33.59Z"/>
    <path class="cls-4" d="M324.39,213.43c-1.24.79,9.94,20.37,25.21,44.2.82,1.28,2.52,1.65,3.8.83h0c1.28-.82,1.65-2.52.82-3.79-15.4-23.76-28.6-42.04-29.84-41.24Z"/>
    <path class="cls-4" d="M323.51,213.86c-1.39.5,5.14,22.06,14.71,48.69.51,1.43,2.09,2.17,3.52,1.65h0c1.43-.51,2.17-2.09,1.65-3.51-9.7-26.58-18.5-47.32-19.88-46.83Z"/>
    <path class="cls-4" d="M322.56,214.09c-1.46.18.09,22.65,3.47,50.73.18,1.51,1.56,2.58,3.07,2.39h0c1.51-.18,2.58-1.56,2.39-3.06-3.53-28.06-7.46-50.24-8.93-50.06Z"/>
  </g>
  <g>
    <path class="cls-2" d="M321.85,211.47c-.58-.06-1.95,8.69-3.12,19.74-.06.59.37,1.12.96,1.18h0c.59.06,1.13-.37,1.19-.96,1.11-11.06,1.55-19.9.97-19.96Z"/>
    <path class="cls-2" d="M321.47,211.39c-.55-.19-3.84,8.03-7.45,18.55-.19.56.11,1.18.68,1.37h0c.57.19,1.18-.11,1.37-.68,3.55-10.54,5.95-19.06,5.41-19.24Z"/>
    <path class="cls-2" d="M321.12,211.22c-.49-.3-5.54,6.98-11.41,16.43-.31.51-.16,1.17.35,1.48h0c.51.31,1.18.15,1.49-.36,5.82-9.48,10.06-17.26,9.57-17.56Z"/>
    <path class="cls-2" d="M320.82,210.99c-.41-.4-6.96,5.58-14.79,13.49-.42.42-.41,1.11.01,1.53h0c.43.42,1.11.41,1.53-.02,7.79-7.96,13.66-14.6,13.25-15Z"/>
    <path class="cls-2" d="M320.58,210.69c-.31-.49-8.03,3.89-17.44,9.87-.5.32-.65.99-.33,1.49h0c.32.5.99.65,1.5.32,9.37-6.03,16.58-11.2,16.27-11.69Z"/>
    <path class="cls-2" d="M320.41,210.35c-.2-.54-8.7,2.01-19.2,5.76-.56.2-.86.82-.65,1.38h0c.2.56.82.85,1.39.65,10.48-3.8,18.67-7.24,18.47-7.79Z"/>
    <path class="cls-2" d="M320.32,209.97c-.07-.57-8.93.03-20.01,1.36-.59.07-1.02.61-.94,1.2h0c.07.59.61,1.01,1.21.94,11.07-1.38,19.82-2.92,19.74-3.5Z"/>
    <path class="cls-2" d="M320.31,209.59c.06-.57-8.72-1.95-19.81-3.11-.59-.06-1.13.37-1.19.96h0c-.06.59.37,1.12.97,1.18,11.1,1.11,19.97,1.54,20.03.97Z"/>
    <path class="cls-2" d="M320.4,209.21c.19-.55-8.06-3.83-18.62-7.43-.57-.19-1.18.11-1.37.67h0c-.19.56.11,1.18.68,1.37,10.57,3.54,19.13,5.93,19.31,5.39Z"/>
    <path class="cls-2" d="M320.56,208.87c.3-.49-7.01-5.52-16.49-11.37-.51-.31-1.18-.16-1.49.35h0c-.31.51-.15,1.17.36,1.48,9.52,5.8,17.32,10.03,17.62,9.53Z"/>
    <path class="cls-2" d="M320.8,208.56c.41-.41-5.6-6.94-13.54-14.74-.43-.42-1.11-.41-1.53.01h0c-.42.43-.41,1.11.02,1.53,7.98,7.76,14.65,13.61,15.05,13.2Z"/>
    <path class="cls-2" d="M321.1,208.32c.49-.31-3.91-8-9.91-17.37-.32-.5-.99-.65-1.5-.33h0c-.5.32-.65.99-.32,1.49,6.05,9.34,11.24,16.52,11.73,16.21Z"/>
    <path class="cls-2" d="M321.44,208.15c.54-.2-2.02-8.67-5.78-19.13-.2-.56-.82-.85-1.38-.65h0c-.56.2-.85.82-.65,1.38,3.81,10.44,7.27,18.6,7.81,18.4Z"/>
    <path class="cls-2" d="M321.81,208.06c.57-.07-.03-8.9-1.36-19.94-.07-.59-.61-1.01-1.2-.94h0c-.59.07-1.02.61-.94,1.2,1.39,11.03,2.93,19.74,3.51,19.67Z"/>
    <path class="cls-2" d="M322.2,208.06c.58.06,1.95-8.69,3.12-19.74.06-.59-.37-1.12-.96-1.18h0c-.59-.06-1.13.37-1.19.96-1.11,11.06-1.55,19.9-.97,19.96Z"/>
    <path class="cls-2" d="M322.58,208.14c.55.19,3.84-8.03,7.45-18.55.19-.56-.11-1.18-.68-1.37h0c-.57-.19-1.18.11-1.37.68-3.55,10.54-5.95,19.06-5.41,19.24Z"/>
    <path class="cls-2" d="M322.92,208.3c.49.3,5.54-6.98,11.41-16.43.31-.51.16-1.17-.35-1.48h0c-.51-.31-1.18-.15-1.49.36-5.82,9.48-10.06,17.26-9.57,17.56Z"/>
    <path class="cls-2" d="M323.23,208.54c.41.4,6.96-5.58,14.79-13.49.42-.42.41-1.11-.01-1.53h0c-.43-.42-1.11-.41-1.53.02-7.79,7.96-13.66,14.6-13.25,15Z"/>
    <path class="cls-2" d="M323.47,208.84c.31.49,8.03-3.89,17.44-9.87.5-.32.65-.99.33-1.49h0c-.32-.5-.99-.65-1.5-.32-9.37,6.03-16.58,11.2-16.27,11.69Z"/>
    <path class="cls-2" d="M323.64,209.18c.2.54,8.7-2.01,19.2-5.76.56-.2.86-.82.65-1.38h0c-.2-.56-.82-.85-1.39-.65-10.48,3.8-18.67,7.24-18.47,7.79Z"/>
    <path class="cls-2" d="M323.73,209.56c.07.57,8.93-.03,20.01-1.36.59-.07,1.02-.61.94-1.2h0c-.07-.59-.61-1.01-1.21-.94-11.07,1.38-19.82,2.92-19.74,3.5Z"/>
    <path class="cls-2" d="M323.73,209.94c-.06.57,8.72,1.95,19.81,3.11.59.06,1.13-.37,1.19-.96h0c.06-.59-.37-1.12-.97-1.18-11.1-1.11-19.97-1.54-20.03-.97Z"/>
    <path class="cls-2" d="M323.65,210.31c-.19.55,8.06,3.83,18.62,7.43.57.19,1.18-.11,1.37-.67h0c.19-.56-.11-1.18-.68-1.37-10.57-3.54-19.13-5.93-19.31-5.39Z"/>
    <path class="cls-2" d="M323.49,210.66c-.3.49,7.01,5.52,16.49,11.37.51.31,1.18.16,1.49-.35h0c.31-.51.15-1.17-.36-1.48-9.52-5.8-17.32-10.03-17.62-9.53Z"/>
    <path class="cls-2" d="M323.25,210.96c-.41.41,5.6,6.94,13.54,14.74.43.42,1.11.41,1.53-.01h0c.42-.43.41-1.11-.02-1.53-7.98-7.76-14.65-13.61-15.05-13.2Z"/>
    <path class="cls-2" d="M322.95,211.2c-.49.31,3.91,8,9.91,17.37.32.5.99.65,1.5.33h0c.5-.32.65-.99.32-1.49-6.05-9.34-11.24-16.52-11.73-16.21Z"/>
    <path class="cls-2" d="M322.61,211.37c-.54.2,2.02,8.67,5.78,19.13.2.56.82.85,1.38.65h0c.56-.2.85-.82.65-1.38-3.81-10.44-7.27-18.6-7.81-18.4Z"/>
    <path class="cls-2" d="M322.23,211.46c-.57.07.03,8.9,1.36,19.94.07.59.61,1.01,1.2.94h0c.59-.07,1.02-.61.94-1.2-1.39-11.03-2.93-19.74-3.51-19.67Z"/>
  </g>
  <g>
    <path class="cls-5" d="M322.39,239.64c-2.31.03-3.77,35.32-3.35,79.68.02,2.38,1.98,4.29,4.37,4.26h0c2.39-.03,4.3-1.98,4.26-4.36-.65-44.35-2.97-79.6-5.28-79.57Z"/>
    <path class="cls-5" d="M315.71,238.97c-2.26-.49-11.56,33.6-21.06,76.94-.51,2.32.97,4.62,3.31,5.12h0c2.33.5,4.63-.98,5.13-3.31,9.27-43.38,14.88-78.26,12.62-78.75Z"/>
    <path class="cls-5" d="M309.34,236.83c-2.09-.97-18.78,30.19-37.71,70.34-1.01,2.15-.08,4.72,2.08,5.72h0c2.16,1.01,4.73.07,5.74-2.09,18.72-40.24,31.99-73,29.89-73.97Z"/>
    <path class="cls-5" d="M303.62,233.34c-1.82-1.41-25.05,25.27-52.47,60.21-1.47,1.87-1.13,4.58.75,6.04h0c1.88,1.46,4.6,1.12,6.06-.76,27.24-35.08,47.49-64.08,45.66-65.49Z"/>
    <path class="cls-5" d="M298.81,228.67c-1.46-1.78-30.07,19.09-64.6,47.07-1.85,1.5-2.13,4.21-.62,6.06h0c1.51,1.84,4.24,2.11,6.08.6,34.39-28.16,60.6-51.94,59.14-53.73Z"/>
    <path class="cls-5" d="M295.17,223.05c-1.03-2.06-33.57,11.94-73.49,31.57-2.14,1.05-3.02,3.64-1.95,5.77h0c1.06,2.13,3.66,3,5.79,1.93,39.82-19.83,70.69-37.2,69.66-39.27Z"/>
    <path class="cls-5" d="M292.88,216.76c-.54-2.24-35.4,4.2-78.7,14.48-2.32.55-3.75,2.88-3.19,5.19h0c.56,2.31,2.9,3.73,5.22,3.17,43.25-10.5,77.22-20.6,76.68-22.84Z"/>
    <path class="cls-5" d="M292.04,210.12c-.03-2.3-35.45-3.76-79.96-3.33-2.39.02-4.3,1.97-4.27,4.35h0c.03,2.38,1.99,4.28,4.38,4.25,44.51-.65,79.88-2.96,79.86-5.26Z"/>
    <path class="cls-5" d="M292.71,203.47c.49-2.25-33.72-11.52-77.21-20.98-2.33-.51-4.63.97-5.14,3.29h0c-.5,2.32.99,4.61,3.32,5.11,43.54,9.23,78.54,14.83,79.03,12.58Z"/>
    <path class="cls-5" d="M294.86,197.13c.98-2.09-30.3-18.71-70.59-37.57-2.16-1.01-4.73-.08-5.74,2.07h0c-1.01,2.15-.07,4.72,2.09,5.72,40.39,18.66,73.26,31.87,74.24,29.78Z"/>
    <path class="cls-5" d="M298.36,191.42c1.42-1.82-25.36-24.96-60.43-52.28-1.88-1.46-4.6-1.13-6.06.75h0c-1.46,1.88-1.12,4.58.77,6.04,35.21,27.14,64.31,47.32,65.73,45.5Z"/>
    <path class="cls-5" d="M303.05,186.63c1.79-1.46-19.15-29.96-47.24-64.37-1.51-1.84-4.23-2.12-6.08-.62h0c-1.85,1.5-2.12,4.22-.6,6.06,28.26,34.27,52.13,60.39,53.92,58.93Z"/>
    <path class="cls-5" d="M308.69,183.01c2.07-1.02-11.98-33.45-31.68-73.23-1.06-2.13-3.65-3.01-5.79-1.95h0c-2.14,1.06-3.01,3.64-1.94,5.77,19.9,39.68,37.34,70.43,39.41,69.41Z"/>
    <path class="cls-5" d="M315,180.72c2.25-.54-4.21-35.27-14.53-78.42-.55-2.31-2.89-3.74-5.21-3.18h0c-2.32.56-3.75,2.89-3.18,5.2,10.54,43.09,20.67,76.95,22.92,76.41Z"/>
    <path class="cls-5" d="M321.66,179.89c2.31-.03,3.77-35.32,3.35-79.68-.02-2.38-1.98-4.29-4.37-4.26h0c-2.39.03-4.3,1.98-4.26,4.36.65,44.35,2.97,79.6,5.28,79.57Z"/>
    <path class="cls-5" d="M328.34,180.56c2.26.49,11.56-33.6,21.06-76.94.51-2.32-.97-4.62-3.31-5.12h0c-2.33-.5-4.63.98-5.13,3.31-9.27,43.38-14.88,78.26-12.62,78.75Z"/>
    <path class="cls-5" d="M334.7,182.69c2.09.97,18.78-30.19,37.71-70.34,1.01-2.15.08-4.72-2.08-5.72h0c-2.16-1.01-4.73-.07-5.74,2.09-18.72,40.24-31.99,73-29.89,73.97Z"/>
    <path class="cls-5" d="M340.43,186.18c1.82,1.41,25.05-25.27,52.47-60.21,1.47-1.87,1.13-4.58-.75-6.04h0c-1.88-1.46-4.6-1.12-6.06.76-27.24,35.08-47.49,64.08-45.66,65.49Z"/>
    <path class="cls-5" d="M345.24,190.86c1.46,1.78,30.07-19.09,64.6-47.07,1.85-1.5,2.13-4.21.62-6.06h0c-1.51-1.84-4.24-2.11-6.08-.6-34.39,28.16-60.6,51.94-59.14,53.73Z"/>
    <path class="cls-5" d="M348.88,196.48c1.03,2.06,33.57-11.94,73.49-31.57,2.14-1.05,3.02-3.64,1.95-5.77h0c-1.06-2.13-3.66-3-5.79-1.93-39.82,19.83-70.69,37.2-69.66,39.27Z"/>
    <path class="cls-5" d="M351.17,202.76c.54,2.24,35.4-4.2,78.7-14.48,2.32-.55,3.75-2.88,3.19-5.19h0c-.56-2.31-2.9-3.73-5.22-3.17-43.25,10.5-77.22,20.6-76.68,22.84Z"/>
    <path class="cls-5" d="M352,209.4c.03,2.3,35.45,3.76,79.96,3.33,2.39-.02,4.3-1.97,4.27-4.35h0c-.03-2.38-1.99-4.28-4.38-4.25-44.51.65-79.88,2.96-79.86,5.26Z"/>
    <path class="cls-5" d="M351.33,216.06c-.49,2.25,33.72,11.52,77.21,20.98,2.33.51,4.63-.97,5.14-3.29h0c.5-2.32-.99-4.61-3.32-5.11-43.54-9.23-78.54-14.83-79.03-12.58Z"/>
    <path class="cls-5" d="M349.19,222.4c-.98,2.09,30.3,18.71,70.59,37.57,2.16,1.01,4.73.08,5.74-2.07h0c1.01-2.15.07-4.72-2.09-5.72-40.39-18.66-73.26-31.87-74.24-29.78Z"/>
    <path class="cls-5" d="M345.69,228.11c-1.42,1.82,25.36,24.96,60.43,52.28,1.88,1.46,4.6,1.13,6.06-.75h0c1.46-1.88,1.12-4.58-.77-6.04-35.21-27.14-64.31-47.32-65.73-45.5Z"/>
    <path class="cls-5" d="M341,232.89c-1.79,1.46,19.15,29.96,47.24,64.37,1.51,1.84,4.23,2.12,6.08.62h0c1.85-1.5,2.12-4.22.6-6.06-28.26-34.27-52.13-60.39-53.92-58.93Z"/>
    <path class="cls-5" d="M335.36,236.52c-2.07,1.02,11.98,33.45,31.68,73.23,1.06,2.13,3.65,3.01,5.79,1.95h0c2.14-1.06,3.01-3.64,1.94-5.77-19.9-39.68-37.34-70.43-39.41-69.41Z"/>
    <path class="cls-5" d="M329.05,238.81c-2.25.54,4.21,35.27,14.53,78.42.55,2.31,2.89,3.74,5.21,3.18h0c2.32-.56,3.75-2.89,3.18-5.2-10.54-43.09-20.67-76.95-22.92-76.41Z"/>
  </g>
</svg>