<?xml version="1.0" encoding="UTF-8"?>
<svg id="_图层_1" data-name="图层_1" xmlns="http://www.w3.org/2000/svg" viewBox="0 0 595.28 419.53">
  <defs>
    <style>
      .cls-1 {
        fill: #f3bb1f;
      }

      .cls-2 {
        fill: #faf5ca;
      }

      .cls-3 {
        fill: #ffd824;
      }
    </style>
  </defs>
  <g>
    <path class="cls-3" d="M291.52,322.53c2.02,0,3.85-26.93,3.85-49.21,0-22.3-1.82-49.18-3.84-49.18-1.99,0-4.12,26.06-4.14,48.93-.02,23.19,2.13,49.47,4.13,49.46Z"/>
    <path class="cls-3" d="M248.35,314c1.87.77,13.86-23.41,22.39-43.99,8.53-20.6,17.13-46.13,15.27-46.91-1.84-.77-13.78,22.5-22.55,43.63-8.89,21.42-16.97,46.52-15.12,47.27Z"/>
    <path class="cls-3" d="M211.74,289.59c1.44,1.43,21.77-16.32,37.52-32.07,15.77-15.76,33.48-36.06,32.06-37.5-1.4-1.41-21.34,15.52-37.53,31.68-16.41,16.39-33.47,36.48-32.06,37.89Z"/>
    <path class="cls-3" d="M187.25,253.04c.78,1.87,26.36-6.75,46.94-15.27,20.6-8.53,44.74-20.5,43.97-22.37-.75-1.84-25.65,6.17-46.79,14.9-21.43,8.86-44.89,20.9-44.12,22.74Z"/>
    <path class="cls-3" d="M178.62,209.9c0,2.02,26.93,3.85,49.21,3.85,22.3,0,49.18-1.82,49.18-3.84,0-1.99-26.06-4.12-48.93-4.14-23.19-.02-49.47,2.13-49.46,4.13Z"/>
    <path class="cls-3" d="M187.15,166.73c-.77,1.87,23.41,13.86,43.99,22.39,20.6,8.53,46.13,17.13,46.91,15.27.77-1.84-22.5-13.78-43.63-22.55-21.42-8.89-46.52-16.97-47.27-15.11Z"/>
    <path class="cls-3" d="M211.56,130.12c-1.43,1.44,16.32,21.77,32.07,37.52,15.76,15.77,36.06,33.48,37.5,32.06,1.41-1.4-15.52-21.34-31.68-37.53-16.39-16.41-36.48-33.47-37.89-32.06Z"/>
    <path class="cls-3" d="M248.11,105.63c-1.87.78,6.75,26.36,15.27,46.94,8.53,20.6,20.5,44.73,22.37,43.97,1.84-.75-6.17-25.65-14.9-46.79-8.86-21.43-20.9-44.89-22.74-44.12Z"/>
    <path class="cls-3" d="M291.26,97c-2.02,0-3.85,26.93-3.85,49.21,0,22.3,1.82,49.18,3.84,49.18,1.99,0,4.12-26.06,4.14-48.93.02-23.19-2.13-49.47-4.13-49.46Z"/>
    <path class="cls-3" d="M334.42,105.53c-1.87-.77-13.86,23.41-22.39,43.99-8.53,20.6-17.13,46.13-15.27,46.91,1.84.77,13.78-22.5,22.55-43.63,8.89-21.42,16.97-46.52,15.12-47.27Z"/>
    <path class="cls-3" d="M371.03,129.94c-1.44-1.43-21.77,16.32-37.52,32.07-15.77,15.76-33.48,36.06-32.06,37.5,1.4,1.41,21.34-15.52,37.53-31.68,16.41-16.39,33.47-36.48,32.06-37.89Z"/>
    <path class="cls-3" d="M395.52,166.49c-.78-1.87-26.36,6.75-46.94,15.27-20.6,8.53-44.74,20.5-43.97,22.37.75,1.84,25.65-6.17,46.79-14.9,21.43-8.86,44.89-20.9,44.12-22.74Z"/>
    <path class="cls-3" d="M404.15,209.63c0-2.02-26.93-3.85-49.21-3.85-22.3,0-49.18,1.82-49.18,3.84,0,1.99,26.06,4.12,48.93,4.14,23.19.02,49.47-2.13,49.46-4.13Z"/>
    <path class="cls-3" d="M395.62,252.8c.77-1.87-23.41-13.86-43.99-22.39-20.6-8.53-46.13-17.13-46.91-15.27-.77,1.84,22.5,13.78,43.63,22.55,21.42,8.89,46.52,16.97,47.27,15.11Z"/>
    <path class="cls-3" d="M371.22,289.41c1.43-1.44-16.32-21.77-32.07-37.52-15.76-15.77-36.06-33.48-37.5-32.06-1.41,1.4,15.52,21.34,31.68,37.53,16.39,16.41,36.48,33.47,37.89,32.06Z"/>
    <path class="cls-3" d="M334.66,313.9c1.87-.78-6.75-26.36-15.27-46.94-8.53-20.6-20.5-44.73-22.37-43.97-1.84.75,6.17,25.65,14.9,46.79,8.86,21.43,20.9,44.89,22.74,44.12Z"/>
  </g>
  <g>
    <path class="cls-2" d="M282.73,255.84c1.4.26.32,7.69-.66,29.52-.09,1.98-1.8,39.93-10.36,51.76-.77,1.06-2.88,3.98-4.9,3.6-1.94-.37-2.83-3.6-3.15-4.77-3.87-14.09,8.95-52.18,8.95-52.18,7.02-20.87,8.72-28.19,10.12-27.92Z"/>
    <path class="cls-2" d="M265.76,249.01c1.19.78-2.64,7.23-11.91,27.02-.84,1.79-16.94,36.2-29.38,43.85-1.12.69-4.19,2.58-5.9,1.45-1.65-1.08-1.23-4.41-1.08-5.61,1.82-14.5,28.24-44.78,28.24-44.78,14.47-16.59,18.85-22.7,20.04-21.92Z"/>
    <path class="cls-2" d="M252.69,236.22c.8,1.17-5.21,5.67-21.34,20.4-1.46,1.34-29.51,26.96-43.92,29.27-1.29.21-4.85.78-6.01-.92-1.11-1.63.55-4.55,1.15-5.6,7.23-12.7,43.23-30.57,43.23-30.57,19.72-9.79,26.1-13.76,26.9-12.59Z"/>
    <path class="cls-2" d="M245.51,219.4c.29,1.39-6.98,3.24-27.53,10.68-1.86.67-37.58,13.62-51.78,10.24-1.27-.3-4.78-1.14-5.2-3.15-.4-1.93,2.25-3.99,3.2-4.74,11.54-8.97,51.63-11.7,51.63-11.7,21.97-1.5,29.38-2.73,29.67-1.33Z"/>
    <path class="cls-2" d="M245.31,201.1c-.26,1.4-7.69.32-29.52-.66-1.98-.09-39.93-1.8-51.76-10.36-1.06-.77-3.98-2.88-3.6-4.9.37-1.94,3.6-2.83,4.77-3.15,14.09-3.87,52.18,8.95,52.18,8.95,20.87,7.02,28.19,8.72,27.92,10.12Z"/>
    <path class="cls-2" d="M252.13,184.13c-.78,1.19-7.23-2.64-27.02-11.91-1.79-.84-36.2-16.94-43.85-29.38-.69-1.12-2.58-4.19-1.45-5.9,1.08-1.65,4.41-1.23,5.61-1.08,14.5,1.82,44.78,28.24,44.78,28.24,16.59,14.47,22.7,18.85,21.93,20.04Z"/>
    <path class="cls-2" d="M264.93,171.06c-1.17.8-5.67-5.21-20.4-21.34-1.34-1.46-26.96-29.51-29.27-43.92-.21-1.29-.78-4.85.92-6.01,1.63-1.11,4.55.55,5.6,1.15,12.7,7.23,30.57,43.23,30.57,43.23,9.79,19.72,13.76,26.1,12.59,26.9Z"/>
    <path class="cls-2" d="M281.75,163.89c-1.39.29-3.24-6.98-10.68-27.53-.67-1.86-13.62-37.58-10.24-51.78.3-1.27,1.14-4.78,3.15-5.2,1.93-.4,3.99,2.25,4.74,3.2,8.97,11.54,11.7,51.63,11.7,51.63,1.5,21.97,2.73,29.38,1.33,29.67Z"/>
    <path class="cls-2" d="M300.04,163.69c-1.4-.26-.32-7.69.66-29.52.09-1.98,1.8-39.93,10.36-51.76.77-1.06,2.88-3.98,4.9-3.6,1.94.37,2.83,3.6,3.15,4.77,3.87,14.09-8.95,52.18-8.95,52.18-7.02,20.87-8.72,28.19-10.12,27.92Z"/>
    <path class="cls-2" d="M317.02,170.51c-1.19-.78,2.64-7.23,11.91-27.02.84-1.79,16.94-36.2,29.38-43.85,1.12-.69,4.19-2.58,5.9-1.45,1.65,1.08,1.23,4.41,1.08,5.61-1.82,14.5-28.24,44.78-28.24,44.78-14.47,16.59-18.85,22.7-20.04,21.92Z"/>
    <path class="cls-2" d="M330.09,183.31c-.8-1.17,5.21-5.67,21.34-20.4,1.46-1.34,29.51-26.96,43.92-29.27,1.29-.21,4.85-.78,6.01.92,1.11,1.63-.55,4.55-1.15,5.6-7.23,12.7-43.23,30.57-43.23,30.57-19.72,9.79-26.1,13.76-26.9,12.59Z"/>
    <path class="cls-2" d="M337.27,200.13c-.29-1.39,6.98-3.24,27.53-10.68,1.86-.67,37.58-13.62,51.78-10.24,1.27.3,4.78,1.14,5.2,3.15.4,1.93-2.25,3.99-3.2,4.74-11.54,8.97-51.63,11.7-51.63,11.7-21.97,1.5-29.38,2.73-29.67,1.33Z"/>
    <path class="cls-2" d="M337.46,218.42c.26-1.4,7.69-.32,29.52.66,1.98.09,39.93,1.8,51.76,10.36,1.06.77,3.98,2.88,3.6,4.9-.37,1.94-3.6,2.83-4.77,3.15-14.09,3.87-52.18-8.95-52.18-8.95-20.87-7.02-28.19-8.72-27.92-10.12Z"/>
    <path class="cls-2" d="M330.63,235.39c.78-1.19,7.23,2.64,27.02,11.91,1.79.84,36.2,16.94,43.85,29.38.69,1.12,2.58,4.19,1.45,5.9-1.08,1.65-4.41,1.23-5.61,1.08-14.5-1.82-44.78-28.24-44.78-28.24-16.59-14.47-22.7-18.85-21.93-20.04Z"/>
    <path class="cls-2" d="M317.84,248.46c1.17-.8,5.67,5.21,20.4,21.34,1.34,1.46,26.96,29.51,29.27,43.92.21,1.29.78,4.85-.92,6.01-1.63,1.11-4.55-.55-5.6-1.15-12.7-7.23-30.57-43.23-30.57-43.23-9.79-19.72-13.76-26.1-12.59-26.9Z"/>
    <path class="cls-2" d="M301.02,255.64c1.39-.29,3.24,6.98,10.68,27.53.67,1.86,13.62,37.58,10.24,51.78-.3,1.27-1.14,4.78-3.15,5.2-1.93.4-3.99-2.25-4.74-3.2-8.97-11.54-11.7-51.63-11.7-51.63-1.5-21.97-2.73-29.38-1.33-29.67Z"/>
  </g>
  <g>
    <g id="_x3C_径向重复_x3E_">
      <path class="cls-1" d="M247.62,316.06c.53.22-.49,3.08-2.65,11.69-.2.78-3.94,15.74-8.3,19.75-.39.36-1.47,1.35-2.24,1.04-.74-.3-.83-1.66-.87-2.15-.4-5.92,7.78-20.03,7.78-20.03,4.48-7.73,5.75-10.51,6.28-10.29Z"/>
    </g>
    <g id="_x3C_径向重复_x3E_-2" data-name="_x3C_径向重复_x3E_">
      <path class="cls-1" d="M210.28,291.22c.41.41-1.64,2.66-6.92,9.78-.48.65-9.66,13.03-15.23,15.07-.5.18-1.87.69-2.47.1-.57-.56-.13-1.85.02-2.32,1.89-5.62,14.85-15.53,14.85-15.53,7.1-5.43,9.33-7.51,9.74-7.1Z"/>
    </g>
    <g id="_x3C_径向重复_x3E_-3" data-name="_x3C_径向重复_x3E_">
      <path class="cls-1" d="M185.28,253.98c.22.53-2.53,1.83-10.14,6.39-.69.41-13.92,8.34-19.83,8.1-.53-.02-1.99-.08-2.32-.85-.31-.74.58-1.76.91-2.13,3.9-4.47,19.66-8.67,19.66-8.67,8.64-2.3,11.49-3.37,11.72-2.83Z"/>
    </g>
    <g id="_x3C_径向重复_x3E_-4" data-name="_x3C_径向重复_x3E_">
      <path class="cls-1" d="M176.44,210.01c0,.58-3.04.73-11.81,2.03-.8.12-16.05,2.38-21.42-.11-.48-.22-1.81-.84-1.81-1.67,0-.8,1.22-1.41,1.66-1.62,5.31-2.63,21.48-.48,21.48-.48,8.86,1.18,11.91,1.29,11.91,1.87Z"/>
    </g>
    <g id="_x3C_径向重复_x3E_-5" data-name="_x3C_径向重复_x3E_">
      <path class="cls-1" d="M185.09,166c-.22.53-3.08-.49-11.69-2.65-.78-.2-15.74-3.94-19.75-8.3-.36-.39-1.35-1.47-1.04-2.24.3-.74,1.66-.83,2.15-.87,5.92-.4,20.03,7.78,20.03,7.78,7.73,4.48,10.51,5.75,10.29,6.28Z"/>
    </g>
    <g id="_x3C_径向重复_x3E_-6" data-name="_x3C_径向重复_x3E_">
      <path class="cls-1" d="M209.93,128.65c-.41.41-2.66-1.64-9.78-6.92-.65-.48-13.03-9.66-15.07-15.23-.18-.5-.69-1.87-.1-2.47.56-.57,1.85-.13,2.32.02,5.62,1.89,15.53,14.85,15.53,14.85,5.43,7.1,7.51,9.33,7.1,9.74Z"/>
    </g>
    <g id="_x3C_径向重复_x3E_-7" data-name="_x3C_径向重复_x3E_">
      <path class="cls-1" d="M247.17,103.66c-.53.22-1.83-2.53-6.39-10.14-.41-.69-8.34-13.92-8.1-19.83.02-.53.08-1.99.85-2.32.74-.31,1.76.58,2.13.91,4.47,3.9,8.67,19.66,8.67,19.66,2.3,8.64,3.37,11.49,2.83,11.72Z"/>
    </g>
    <g id="_x3C_径向重复_x3E_-8" data-name="_x3C_径向重复_x3E_">
      <path class="cls-1" d="M291.14,94.81c-.58,0-.73-3.04-2.03-11.81-.12-.8-2.38-16.05.11-21.42.22-.48.84-1.81,1.67-1.81.8,0,1.41,1.22,1.62,1.66,2.63,5.31.48,21.48.48,21.48-1.18,8.86-1.29,11.91-1.87,11.91Z"/>
    </g>
    <g id="_x3C_径向重复_x3E_-9" data-name="_x3C_径向重复_x3E_">
      <path class="cls-1" d="M335.15,103.47c-.53-.22.49-3.08,2.65-11.69.2-.78,3.94-15.74,8.3-19.75.39-.36,1.47-1.35,2.24-1.04.74.3.83,1.66.87,2.15.4,5.92-7.78,20.03-7.78,20.03-4.48,7.73-5.75,10.51-6.28,10.29Z"/>
    </g>
    <g id="_x3C_径向重复_x3E_-10" data-name="_x3C_径向重复_x3E_">
      <path class="cls-1" d="M372.5,128.31c-.41-.41,1.64-2.66,6.92-9.78.48-.65,9.66-13.03,15.23-15.07.5-.18,1.87-.69,2.47-.1.57.56.13,1.85-.02,2.32-1.89,5.62-14.85,15.53-14.85,15.53-7.1,5.43-9.33,7.51-9.74,7.1Z"/>
    </g>
    <g id="_x3C_径向重复_x3E_-11" data-name="_x3C_径向重复_x3E_">
      <path class="cls-1" d="M397.49,165.54c-.22-.53,2.53-1.83,10.14-6.39.69-.41,13.92-8.34,19.83-8.1.53.02,1.99.08,2.32.85.31.74-.58,1.76-.91,2.13-3.9,4.47-19.66,8.67-19.66,8.67-8.64,2.3-11.49,3.37-11.72,2.83Z"/>
    </g>
    <g id="_x3C_径向重复_x3E_-12" data-name="_x3C_径向重复_x3E_">
      <path class="cls-1" d="M406.34,209.52c0-.58,3.04-.73,11.81-2.03.8-.12,16.05-2.38,21.42.11.48.22,1.81.84,1.81,1.67,0,.8-1.22,1.41-1.66,1.62-5.31,2.63-21.48.48-21.48.48-8.86-1.18-11.91-1.29-11.91-1.87Z"/>
    </g>
    <g id="_x3C_径向重复_x3E_-13" data-name="_x3C_径向重复_x3E_">
      <path class="cls-1" d="M397.68,253.53c.22-.53,3.08.49,11.69,2.65.78.2,15.74,3.94,19.75,8.3.36.39,1.35,1.47,1.04,2.24-.3.74-1.66.83-2.15.87-5.92.4-20.03-7.78-20.03-7.78-7.73-4.48-10.51-5.75-10.29-6.28Z"/>
    </g>
    <g id="_x3C_径向重复_x3E_-14" data-name="_x3C_径向重复_x3E_">
      <path class="cls-1" d="M372.84,290.87c.41-.41,2.66,1.64,9.78,6.92.65.48,13.03,9.66,15.07,15.23.18.5.69,1.87.1,2.47-.56.57-1.85.13-2.32-.02-5.62-1.89-15.53-14.85-15.53-14.85-5.43-7.1-7.51-9.33-7.1-9.74Z"/>
    </g>
    <g id="_x3C_径向重复_x3E_-15" data-name="_x3C_径向重复_x3E_">
      <path class="cls-1" d="M335.61,315.87c.53-.22,1.83,2.53,6.39,10.14.41.69,8.34,13.92,8.1,19.83-.02.53-.08,1.99-.85,2.32-.74.31-1.76-.58-2.13-.91-4.47-3.9-8.67-19.66-8.67-19.66-2.3-8.64-3.37-11.49-2.83-11.72Z"/>
    </g>
    <g id="_x3C_径向重复_x3E_-16" data-name="_x3C_径向重复_x3E_">
      <path class="cls-1" d="M291.63,324.72c.58,0,.73,3.04,2.03,11.81.12.8,2.38,16.05-.11,21.42-.22.48-.84,1.81-1.67,1.81-.8,0-1.41-1.22-1.62-1.66-2.63-5.31-.48-21.48-.48-21.48,1.18-8.86,1.29-11.91,1.87-11.91Z"/>
    </g>
  </g>
</svg>