<?xml version="1.0" encoding="UTF-8"?>
<svg id="_图层_1" data-name="图层_1" xmlns="http://www.w3.org/2000/svg" viewBox="0 0 595.28 419.53">
  <defs>
    <style>
      .cls-1 {
        fill: #a0d7e9;
      }

      .cls-2 {
        fill: #46bdd5;
      }

      .cls-3 {
        fill: #0087c0;
      }
    </style>
  </defs>
  <g>
    <polygon class="cls-1" points="310.83 233.78 307.56 333.82 314.11 333.82 310.83 233.78"/>
    <polygon class="cls-1" points="306.92 233.47 288.04 331.77 294.5 332.79 306.92 233.47"/>
    <polygon class="cls-1" points="303.11 232.55 269.08 326.68 275.3 328.71 303.11 232.55"/>
    <polygon class="cls-1" points="299.48 231.05 251.14 318.7 256.98 321.67 299.48 231.05"/>
    <polygon class="cls-1" points="296.13 229 234.68 308.01 239.98 311.86 296.13 229"/>
    <polygon class="cls-1" points="293.15 226.45 220.09 294.88 224.72 299.51 293.15 226.45"/>
    <polygon class="cls-1" points="290.6 223.47 207.74 279.62 211.59 284.92 290.6 223.47"/>
    <polygon class="cls-1" points="288.55 220.12 197.93 262.62 200.9 268.45 288.55 220.12"/>
    <polygon class="cls-1" points="287.05 216.5 190.89 244.3 192.92 250.52 287.05 216.5"/>
    <polygon class="cls-1" points="286.13 212.68 186.81 225.09 187.84 231.56 286.13 212.68"/>
    <polygon class="cls-1" points="285.82 208.77 185.78 205.49 185.78 212.04 285.82 208.77"/>
    <polygon class="cls-1" points="286.13 204.85 187.84 185.97 186.81 192.44 286.13 204.85"/>
    <polygon class="cls-1" points="287.05 201.04 192.92 167.01 190.89 173.24 287.05 201.04"/>
    <polygon class="cls-1" points="288.55 197.41 200.9 149.08 197.93 154.91 288.55 197.41"/>
    <polygon class="cls-1" points="290.6 194.06 211.59 132.61 207.74 137.91 290.6 194.06"/>
    <polygon class="cls-1" points="293.15 191.08 224.72 118.03 220.09 122.66 293.15 191.08"/>
    <polygon class="cls-1" points="296.13 188.53 239.98 105.67 234.68 109.52 296.13 188.53"/>
    <polygon class="cls-1" points="299.48 186.48 256.98 95.86 251.15 98.83 299.48 186.48"/>
    <polygon class="cls-1" points="303.11 184.98 275.31 88.83 269.08 90.85 303.11 184.98"/>
    <polygon class="cls-1" points="306.92 184.07 294.51 84.74 288.04 85.77 306.92 184.07"/>
    <polygon class="cls-1" points="310.83 183.76 314.11 83.72 307.56 83.72 310.83 183.76"/>
    <polygon class="cls-1" points="314.75 184.07 333.63 85.77 327.16 84.74 314.75 184.07"/>
    <polygon class="cls-1" points="318.56 184.98 352.59 90.85 346.36 88.83 318.56 184.98"/>
    <polygon class="cls-1" points="322.19 186.48 370.52 98.83 364.69 95.86 322.19 186.48"/>
    <polygon class="cls-1" points="325.54 188.53 386.99 109.52 381.69 105.67 325.54 188.53"/>
    <polygon class="cls-1" points="328.52 191.08 401.57 122.66 396.94 118.03 328.52 191.08"/>
    <polygon class="cls-1" points="331.07 194.07 413.93 137.91 410.08 132.62 331.07 194.07"/>
    <polygon class="cls-1" points="333.12 197.41 423.74 154.91 420.77 149.08 333.12 197.41"/>
    <polygon class="cls-1" points="334.62 201.04 430.78 173.24 428.75 167.01 334.62 201.04"/>
    <polygon class="cls-1" points="335.54 204.86 434.86 192.44 433.83 185.97 335.54 204.86"/>
    <polygon class="cls-1" points="335.84 208.77 435.89 212.04 435.89 205.49 335.84 208.77"/>
    <polygon class="cls-1" points="335.54 212.68 433.83 231.56 434.86 225.1 335.54 212.68"/>
    <polygon class="cls-1" points="334.62 216.5 428.75 250.52 430.78 244.3 334.62 216.5"/>
    <polygon class="cls-1" points="333.12 220.12 420.77 268.46 423.75 262.62 333.12 220.12"/>
    <polygon class="cls-1" points="331.07 223.47 410.08 284.92 413.93 279.62 331.07 223.47"/>
    <polygon class="cls-1" points="328.52 226.45 396.95 299.51 401.58 294.88 328.52 226.45"/>
    <polygon class="cls-1" points="325.54 229 381.69 311.86 386.99 308.01 325.54 229"/>
    <polygon class="cls-1" points="322.19 231.05 364.69 321.67 370.52 318.7 322.19 231.05"/>
    <polygon class="cls-1" points="318.56 232.55 346.36 328.71 352.59 326.69 318.56 232.55"/>
    <polygon class="cls-1" points="314.74 233.47 327.16 332.79 333.63 331.77 314.74 233.47"/>
  </g>
  <g>
    <polygon class="cls-3" points="309.37 227.83 301.04 303.88 306.03 304.27 309.37 227.83"/>
    <polygon class="cls-3" points="306.41 227.37 286.28 301.18 291.15 302.34 306.41 227.37"/>
    <polygon class="cls-3" points="303.55 226.44 272.12 296.2 276.75 298.11 303.55 226.44"/>
    <polygon class="cls-3" points="300.88 225.09 258.92 289.07 263.19 291.67 300.88 225.09"/>
    <polygon class="cls-3" points="298.45 223.33 247 279.96 250.81 283.2 298.45 223.33"/>
    <polygon class="cls-3" points="296.32 221.21 236.65 269.1 239.91 272.89 296.32 221.21"/>
    <polygon class="cls-3" points="294.55 218.79 228.12 256.75 230.75 261.01 294.55 218.79"/>
    <polygon class="cls-3" points="293.19 216.12 221.64 243.22 223.56 247.84 293.19 216.12"/>
    <polygon class="cls-3" points="292.25 213.27 217.35 228.84 218.52 233.7 292.25 213.27"/>
    <polygon class="cls-3" points="291.78 210.31 215.36 213.97 215.76 218.96 291.78 210.31"/>
    <polygon class="cls-3" points="291.77 207.31 215.72 198.97 215.34 203.96 291.77 207.31"/>
    <polygon class="cls-3" points="292.24 204.34 218.42 184.21 217.26 189.08 292.24 204.34"/>
    <polygon class="cls-3" points="293.16 201.49 223.4 170.06 221.5 174.68 293.16 201.49"/>
    <polygon class="cls-3" points="294.51 198.81 230.53 156.85 227.93 161.13 294.51 198.81"/>
    <polygon class="cls-3" points="296.27 196.38 239.64 144.93 236.4 148.74 296.27 196.38"/>
    <polygon class="cls-3" points="298.39 194.26 250.51 134.58 246.71 137.84 298.39 194.26"/>
    <polygon class="cls-3" points="300.81 192.49 262.85 126.06 258.59 128.68 300.81 192.49"/>
    <polygon class="cls-3" points="303.48 191.12 276.38 119.57 271.76 121.49 303.48 191.12"/>
    <polygon class="cls-3" points="306.33 190.19 290.76 115.28 285.9 116.46 306.33 190.19"/>
    <polygon class="cls-3" points="309.3 189.71 305.63 113.29 300.64 113.69 309.3 189.71"/>
    <polygon class="cls-3" points="312.29 189.71 320.63 113.65 315.64 113.27 312.29 189.71"/>
    <polygon class="cls-3" points="315.26 190.17 335.39 116.36 330.52 115.2 315.26 190.17"/>
    <polygon class="cls-3" points="318.11 191.09 349.55 121.34 344.92 119.43 318.11 191.09"/>
    <polygon class="cls-3" points="320.79 192.45 362.75 128.47 358.47 125.86 320.79 192.45"/>
    <polygon class="cls-3" points="323.22 194.21 374.67 137.58 370.86 134.33 323.22 194.21"/>
    <polygon class="cls-3" points="325.35 196.32 385.02 148.44 381.76 144.64 325.35 196.32"/>
    <polygon class="cls-3" points="327.11 198.75 393.54 160.79 390.92 156.53 327.11 198.75"/>
    <polygon class="cls-3" points="328.48 201.42 400.03 174.32 398.11 169.7 328.48 201.42"/>
    <polygon class="cls-3" points="329.41 204.27 404.32 188.69 403.14 183.83 329.41 204.27"/>
    <polygon class="cls-3" points="329.89 207.23 406.31 203.57 405.91 198.58 329.89 207.23"/>
    <polygon class="cls-3" points="329.9 210.23 405.95 218.57 406.33 213.58 329.9 210.23"/>
    <polygon class="cls-3" points="329.43 213.19 403.25 233.33 404.4 228.46 329.43 213.19"/>
    <polygon class="cls-3" points="328.51 216.05 398.27 247.48 400.17 242.85 328.51 216.05"/>
    <polygon class="cls-3" points="327.15 218.72 391.13 260.68 393.74 256.41 327.15 218.72"/>
    <polygon class="cls-3" points="325.4 221.15 382.03 272.6 385.27 268.79 325.4 221.15"/>
    <polygon class="cls-3" points="323.28 223.28 371.16 282.95 374.96 279.7 323.28 223.28"/>
    <polygon class="cls-3" points="320.86 225.05 358.81 291.48 363.08 288.85 320.86 225.05"/>
    <polygon class="cls-3" points="318.19 226.41 345.28 297.96 349.9 296.04 318.19 226.41"/>
    <polygon class="cls-3" points="315.34 227.35 330.91 302.26 335.77 301.08 315.34 227.35"/>
    <polygon class="cls-3" points="312.37 227.82 316.04 304.25 321.02 303.84 312.37 227.82"/>
  </g>
  <g>
    <path class="cls-2" d="M303.36,305.79l-7.05,49.95c-.21,1.47.87,2.81,2.35,2.92l1.26.1c1.48.11,2.75-1.04,2.77-2.53l.68-50.44Z"/>
    <path class="cls-2" d="M288.28,303.42l-14.78,48.24c-.43,1.42.42,2.91,1.86,3.25l1.23.29c1.44.34,2.88-.6,3.13-2.06l8.56-49.72Z"/>
    <path class="cls-2" d="M273.75,298.73l-22.14,45.33c-.65,1.33-.04,2.94,1.33,3.5l1.17.48c1.37.57,2.93-.14,3.41-1.55l16.23-47.77Z"/>
    <path class="cls-2" d="M260.13,291.82l-28.96,41.31c-.85,1.21-.5,2.89.76,3.67l1.08.66c1.27.77,2.92.32,3.61-1l23.5-44.64Z"/>
    <path class="cls-2" d="M247.76,282.87l-35.07,36.27c-1.03,1.07-.95,2.78.18,3.74l.96.82c1.13.96,2.83.77,3.72-.42l30.2-40.41Z"/>
    <path class="cls-2" d="M236.95,272.09l-40.31,30.34c-1.18.89-1.37,2.6-.41,3.72l.82.96c.96,1.13,2.68,1.2,3.74.17l36.15-35.19Z"/>
    <path class="cls-2" d="M227.95,259.75l-44.56,23.66c-1.31.7-1.76,2.35-.98,3.61l.66,1.08c.78,1.26,2.46,1.61,3.67.75l41.21-29.1Z"/>
    <path class="cls-2" d="M221,246.16l-47.71,16.4c-1.4.48-2.11,2.05-1.54,3.42l.49,1.17c.57,1.37,2.18,1.97,3.51,1.32l45.25-22.3Z"/>
    <path class="cls-2" d="M216.25,231.65l-49.69,8.73c-1.46.26-2.4,1.69-2.05,3.13l.3,1.23c.35,1.44,1.84,2.29,3.26,1.85l48.18-14.94Z"/>
    <path class="cls-2" d="M213.84,216.57l-50.44.85c-1.48.02-2.64,1.3-2.52,2.77l.1,1.26c.12,1.48,1.46,2.55,2.93,2.34l49.93-7.22Z"/>
    <path class="cls-2" d="M213.81,201.3l-49.95-7.05c-1.47-.21-2.81.87-2.92,2.35l-.1,1.26c-.11,1.48,1.04,2.75,2.53,2.77l50.44.68Z"/>
    <path class="cls-2" d="M216.18,186.21l-48.24-14.78c-1.42-.43-2.91.42-3.25,1.86l-.29,1.23c-.34,1.44.6,2.88,2.06,3.13l49.72,8.56Z"/>
    <path class="cls-2" d="M220.87,171.68l-45.33-22.14c-1.33-.65-2.94-.04-3.5,1.33l-.48,1.17c-.57,1.37.14,2.93,1.55,3.41l47.77,16.23Z"/>
    <path class="cls-2" d="M227.78,158.07l-41.31-28.96c-1.21-.85-2.89-.5-3.67.76l-.66,1.08c-.77,1.27-.32,2.92,1,3.61l44.64,23.5Z"/>
    <path class="cls-2" d="M236.73,145.7l-36.27-35.07c-1.07-1.03-2.78-.95-3.74.18l-.82.96c-.96,1.13-.77,2.83.42,3.72l40.41,30.2Z"/>
    <path class="cls-2" d="M247.51,134.88l-30.34-40.31c-.89-1.18-2.6-1.37-3.72-.41l-.96.82c-1.13.96-1.2,2.68-.17,3.74l35.19,36.15Z"/>
    <path class="cls-2" d="M259.85,125.89l-23.66-44.56c-.7-1.31-2.35-1.76-3.61-.98l-1.08.66c-1.26.78-1.61,2.46-.75,3.67l29.1,41.21Z"/>
    <path class="cls-2" d="M273.44,118.93l-16.4-47.71c-.48-1.4-2.05-2.11-3.42-1.54l-1.17.49c-1.37.57-1.97,2.18-1.32,3.51l22.3,45.25Z"/>
    <path class="cls-2" d="M287.96,114.19l-8.73-49.69c-.26-1.46-1.69-2.4-3.13-2.05l-1.23.3c-1.44.35-2.29,1.84-1.85,3.26l14.94,48.18Z"/>
    <path class="cls-2" d="M303.03,111.77l-.85-50.44c-.02-1.48-1.3-2.64-2.77-2.52l-1.26.1c-1.48.12-2.55,1.46-2.34,2.93l7.22,49.93Z"/>
    <path class="cls-2" d="M318.3,111.75l7.05-49.95c.21-1.47-.87-2.81-2.35-2.92l-1.26-.1c-1.48-.11-2.75,1.04-2.77,2.53l-.68,50.44Z"/>
    <path class="cls-2" d="M333.39,114.11l14.78-48.24c.43-1.42-.42-2.91-1.86-3.25l-1.23-.29c-1.44-.34-2.88.6-3.13,2.06l-8.56,49.72Z"/>
    <path class="cls-2" d="M347.92,118.8l22.14-45.33c.65-1.33.04-2.94-1.33-3.5l-1.17-.48c-1.37-.57-2.93.14-3.41,1.55l-16.23,47.77Z"/>
    <path class="cls-2" d="M361.53,125.71l28.96-41.31c.85-1.21.5-2.89-.76-3.67l-1.08-.66c-1.27-.77-2.92-.32-3.61,1l-23.5,44.64Z"/>
    <path class="cls-2" d="M373.9,134.67l35.07-36.27c1.03-1.07.95-2.78-.18-3.74l-.96-.82c-1.13-.96-2.83-.77-3.72.42l-30.2,40.41Z"/>
    <path class="cls-2" d="M384.72,145.44l40.31-30.34c1.18-.89,1.37-2.6.41-3.72l-.82-.96c-.96-1.13-2.68-1.2-3.74-.17l-36.15,35.19Z"/>
    <path class="cls-2" d="M393.71,157.78l44.56-23.66c1.31-.7,1.76-2.35.98-3.61l-.66-1.08c-.78-1.26-2.46-1.61-3.67-.75l-41.21,29.1Z"/>
    <path class="cls-2" d="M400.67,171.38l47.71-16.4c1.4-.48,2.11-2.05,1.54-3.42l-.49-1.17c-.57-1.37-2.18-1.97-3.51-1.32l-45.25,22.3Z"/>
    <path class="cls-2" d="M405.41,185.89l49.69-8.73c1.46-.26,2.4-1.69,2.05-3.13l-.3-1.23c-.35-1.44-1.84-2.29-3.26-1.85l-48.18,14.94Z"/>
    <path class="cls-2" d="M407.83,200.97l50.44-.85c1.48-.02,2.64-1.3,2.52-2.77l-.1-1.26c-.12-1.48-1.46-2.55-2.93-2.34l-49.93,7.22Z"/>
    <path class="cls-2" d="M407.86,216.24l49.95,7.05c1.47.21,2.81-.87,2.92-2.35l.1-1.26c.11-1.48-1.04-2.75-2.53-2.77l-50.44-.68Z"/>
    <path class="cls-2" d="M405.49,231.32l48.24,14.78c1.42.43,2.91-.42,3.25-1.86l.29-1.23c.34-1.44-.6-2.88-2.06-3.13l-49.72-8.56Z"/>
    <path class="cls-2" d="M400.8,245.85l45.33,22.14c1.33.65,2.94.04,3.5-1.33l.48-1.17c.57-1.37-.14-2.93-1.55-3.41l-47.77-16.23Z"/>
    <path class="cls-2" d="M393.89,259.47l41.31,28.96c1.21.85,2.89.5,3.67-.76l.66-1.08c.77-1.27.32-2.92-1-3.61l-44.64-23.5Z"/>
    <path class="cls-2" d="M384.94,271.84l36.27,35.07c1.07,1.03,2.78.95,3.74-.18l.82-.96c.96-1.13.77-2.83-.42-3.72l-40.41-30.2Z"/>
    <path class="cls-2" d="M374.16,282.65l30.34,40.31c.89,1.18,2.6,1.37,3.72.41l.96-.82c1.13-.96,1.2-2.68.17-3.74l-35.19-36.15Z"/>
    <path class="cls-2" d="M361.82,291.65l23.66,44.56c.7,1.31,2.35,1.76,3.61.98l1.08-.66c1.26-.78,1.61-2.46.75-3.67l-29.1-41.21Z"/>
    <path class="cls-2" d="M348.23,298.6l16.4,47.71c.48,1.4,2.05,2.11,3.42,1.54l1.17-.49c1.37-.57,1.97-2.18,1.32-3.51l-22.3-45.25Z"/>
    <path class="cls-2" d="M333.71,303.35l8.73,49.69c.26,1.46,1.69,2.4,3.13,2.05l1.23-.3c1.44-.35,2.29-1.84,1.85-3.26l-14.94-48.18Z"/>
    <path class="cls-2" d="M318.64,305.76l.85,50.44c.02,1.48,1.3,2.64,2.77,2.52l1.26-.1c1.48-.12,2.55-1.46,2.34-2.93l-7.22-49.93Z"/>
  </g>
</svg>