<?xml version="1.0" encoding="UTF-8"?>
<svg id="_图层_1" data-name="图层_1" xmlns="http://www.w3.org/2000/svg" viewBox="0 0 595.28 419.53">
  <defs>
    <style>
      .cls-1 {
        fill: #8c71af;
      }

      .cls-2 {
        fill: #b097c6;
      }

      .cls-3 {
        fill: #cdb9d9;
      }

      .cls-4 {
        fill: #5f3790;
      }
    </style>
  </defs>
  <path class="cls-4" d="M457.6,209.76c0,3.4-70.09,3.58-70.39,6.9-.31,3.38,68.57,16.26,67.95,19.55-.62,3.33-69.55-9.3-70.46-6.08-.93,3.25,64.37,28.59,63.16,31.71-1.23,3.15-66.62-21.96-68.12-18.97-1.51,3.02,57.96,39.93,56.19,42.78-1.78,2.86-61.41-33.81-63.45-31.13-2.04,2.69,49.63,49.84,47.36,52.32-2.28,2.49-54.16-44.43-56.66-42.16-2.49,2.27,39.65,58.03,36.96,60.06-2.69,2.03-45.08-53.55-47.96-51.77-2.86,1.77,28.3,64.29,25.27,65.79-3.01,1.5-34.41-60.9-37.57-59.68-3.13,1.21,15.9,68.38,12.63,69.31-3.23.91-22.49-66.19-25.83-65.57-3.3.61,2.95,70.13-.44,70.44-3.33.3-9.9-69.18-13.31-69.18-3.41,0-9.98,69.49-13.31,69.18-3.39-.31,2.85-69.83-.44-70.44-3.34-.62-22.6,66.49-25.83,65.57-3.27-.92,15.77-68.1,12.63-69.31-3.16-1.22-34.56,61.18-37.57,59.68-3.03-1.51,28.13-64.02,25.27-65.79-2.87-1.78-45.27,53.8-47.96,51.77-2.7-2.03,39.45-57.79,36.96-60.06-2.5-2.27-54.38,44.65-56.66,42.16-2.27-2.48,49.4-49.64,47.36-52.32-2.03-2.68-61.67,33.99-63.45,31.13-1.78-2.85,57.7-39.76,56.19-42.78-1.5-3-66.89,22.11-68.12,18.96-1.21-3.12,64.08-28.46,63.16-31.71-.92-3.22-69.84,9.41-70.46,6.09-.61-3.28,68.26-16.17,67.95-19.55-.3-3.32-70.39-3.5-70.39-6.9,0-3.4,70.09-3.58,70.39-6.9.31-3.38-68.57-16.26-67.95-19.55.62-3.33,69.55,9.3,70.46,6.08.93-3.25-64.37-28.59-63.16-31.71,1.23-3.15,66.62,21.96,68.12,18.97,1.51-3.02-57.96-39.93-56.19-42.78,1.78-2.86,61.41,33.81,63.45,31.13,2.04-2.69-49.63-49.84-47.36-52.32,2.28-2.49,54.16,44.43,56.66,42.16,2.49-2.27-39.65-58.03-36.96-60.06,2.69-2.03,45.08,53.55,47.96,51.77,2.86-1.77-28.3-64.29-25.27-65.79,3.01-1.5,34.41,60.9,37.57,59.68,3.13-1.21-15.9-68.38-12.63-69.31,3.23-.91,22.49,66.19,25.83,65.57,3.3-.61-2.95-70.13.44-70.44,3.33-.3,9.9,69.18,13.31,69.18,3.41,0,9.98-69.49,13.31-69.18,3.39.31-2.85,69.83.44,70.44,3.34.62,22.6-66.49,25.83-65.57,3.27.92-15.77,68.1-12.63,69.31,3.16,1.22,34.56-61.18,37.57-59.68,3.03,1.51-28.13,64.02-25.27,65.79,2.87,1.78,45.27-53.8,47.96-51.77,2.7,2.03-39.45,57.79-36.96,60.06,2.5,2.27,54.38-44.65,56.66-42.16,2.27,2.48-49.4,49.64-47.36,52.32,2.03,2.68,61.67-33.99,63.45-31.13,1.78,2.85-57.7,39.76-56.19,42.78,1.5,3,66.89-22.11,68.12-18.96,1.21,3.12-64.08,28.46-63.16,31.71.92,3.22,69.84-9.41,70.46-6.09.61,3.28-68.26,16.17-67.95,19.55.3,3.32,70.39,3.5,70.39,6.9Z"/>
  <path class="cls-1" d="M414.56,99.06c3.06,2.78-18.89,30.36-16.15,33.35,2.78,3.04,32.41-16.13,34.86-12.9,2.49,3.28-24.17,26.38-22.02,29.83s34.83-9.9,36.65-6.26c1.83,3.67-28.65,21.46-27.19,25.26,1.48,3.82,36.07-3.33,37.18.59,1.11,3.94-32.14,15.84-31.39,19.84.74,4.02,36.07,3.31,36.44,7.37.37,4.07-34.5,9.71-34.51,13.79,0,4.08,34.85,9.81,34.47,13.88-.38,4.06-35.7,3.25-36.46,7.27-.75,4,32.46,16,31.33,19.94-1.12,3.91-35.69-3.36-37.18.46s28.94,21.69,27.09,25.36c-1.82,3.63-34.44-9.88-36.62-6.4-2.15,3.44,24.42,26.63,21.92,29.91-2.46,3.22-32.03-16.02-34.82-12.98-2.79,3.04,19.09,30.66,16.09,33.39-3.06,2.77-28.62-21.52-31.87-19.08-3.29,2.48,13.13,33.62,9.67,35.76-3.51,2.16-24.12-26.42-27.78-24.61-3.69,1.82,6.67,35.46,2.86,36.92-3.84,1.47-18.8-30.4-22.74-29.3-3.95,1.11,0,36.07-4.02,36.81-4.03.74-12.88-33.33-16.95-32.96-4.08.37-6.61,35.47-10.71,35.46-4.1,0-6.54-35.11-10.62-35.49-4.07-.38-13.01,33.66-17.04,32.91-4.02-.75.05-35.7-3.91-36.82s-19,30.71-22.84,29.22c-3.8-1.47,6.68-35.07,2.99-36.91-3.64-1.82-24.37,26.68-27.87,24.51-3.45-2.14,13.08-33.24,9.79-35.72-3.23-2.45-28.86,21.78-31.91,19-3.06-2.78,18.89-30.36,16.15-33.35-2.78-3.04-32.41,16.13-34.86,12.9-2.49-3.28,24.17-26.38,22.02-29.83-2.17-3.49-34.83,9.9-36.65,6.26-1.83-3.67,28.65-21.46,27.19-25.26s-36.07,3.33-37.18-.59c-1.11-3.94,32.14-15.84,31.39-19.84s-36.07-3.31-36.44-7.37c-.37-4.07,34.5-9.71,34.51-13.79,0-4.08-34.85-9.81-34.47-13.88.38-4.06,35.7-3.25,36.46-7.27.75-4-32.46-16-31.33-19.94,1.12-3.91,35.69,3.36,37.18-.46,1.48-3.79-28.94-21.69-27.09-25.36,1.82-3.63,34.44,9.88,36.62,6.4,2.15-3.44-24.42-26.63-21.92-29.91,2.46-3.22,32.03,16.02,34.82,12.98,2.79-3.04-19.09-30.66-16.09-33.39,3.06-2.77,28.62,21.52,31.87,19.08,3.29-2.48-13.13-33.62-9.67-35.76,3.51-2.16,24.12,26.42,27.78,24.61,3.69-1.82-6.67-35.46-2.86-36.92s18.8,30.4,22.74,29.3c3.95-1.11,0-36.07,4.02-36.81,4.03-.74,12.88,33.33,16.95,32.96,4.08-.37,6.61-35.47,10.71-35.46,4.1,0,6.54,35.11,10.62,35.49,4.07.38,13.01-33.66,17.04-32.91,4.02.75-.05,35.7,3.91,36.82,3.93,1.12,19-30.71,22.84-29.22,3.8,1.47-6.68,35.07-2.99,36.91,3.64,1.82,24.37-26.68,27.87-24.51,3.45,2.14-13.08,33.24-9.79,35.72,3.23,2.45,28.86-21.78,31.91-19Z"/>
  <path class="cls-2" d="M423.84,220.02c-.24,2.59-53.99-2.24-54.46.27s51.41,17.28,50.7,19.74c-.71,2.5-52.66-12.03-53.59-9.64-.94,2.42,47.31,26.39,46.16,28.69-1.16,2.32-49.51-21.49-50.87-19.31-1.37,2.2,41.6,34.59,40.03,36.65-1.57,2.06-44.68-30.17-46.43-28.26-1.75,1.91,34.5,41.57,32.58,43.3-1.92,1.74-38.36-37.76-40.44-36.21-2.07,1.55,26.27,47.11,24.06,48.47-2.21,1.36-30.75-44.08-33.08-42.93-2.32,1.15,17.12,51.08,14.69,52.02-2.42.93-22.04-48.93-24.55-48.22-2.49.7,7.32,53.33,4.75,53.8-2.54.47-12.53-52.13-15.14-51.89-2.57.23-2.73,53.75-5.35,53.74s-2.66-53.52-5.28-53.76c-2.62-.24-12.6,52.34-15.13,51.87-2.58-.48,7.16-53.1,4.68-53.8-2.52-.71-22.06,49.15-24.47,48.23-2.44-.94,16.94-50.87,14.62-52.01-2.34-1.16-30.85,44.25-33.05,42.89-2.22-1.36,26.13-46.88,24.06-48.43-2.08-1.56-38.54,37.86-40.46,36.12s34.36-41.32,32.61-43.23c-1.75-1.91-44.87,30.23-46.44,28.17-1.57-2.06,41.4-34.39,40.03-36.58-1.37-2.19-49.7,21.58-50.86,19.26-1.16-2.3,47.07-26.26,46.12-28.67-.94-2.4-52.86,12.14-53.57,9.65-.71-2.47,51.16-17.18,50.68-19.73-.47-2.52-54.22,2.23-54.45-.35-.24-2.55,53.49-7.5,53.49-10.1,0-2.55-53.72-7.66-53.47-10.26.24-2.59,53.99,2.24,54.46-.27.48-2.56-51.41-17.28-50.7-19.74.71-2.5,52.66,12.03,53.59,9.64.94-2.42-47.31-26.39-46.16-28.69,1.16-2.32,49.51,21.49,50.87,19.31,1.37-2.2-41.6-34.59-40.03-36.65,1.57-2.06,44.68,30.17,46.43,28.26,1.75-1.91-34.5-41.57-32.58-43.3,1.92-1.74,38.36,37.76,40.44,36.21,2.07-1.55-26.27-47.11-24.06-48.47,2.21-1.36,30.75,44.08,33.08,42.93,2.32-1.15-17.12-51.08-14.69-52.02,2.42-.93,22.04,48.93,24.55,48.22,2.49-.7-7.32-53.33-4.75-53.8,2.54-.47,12.53,52.13,15.14,51.89,2.57-.23,2.73-53.75,5.35-53.74,2.58,0,2.66,53.52,5.28,53.76,2.62.24,12.6-52.34,15.13-51.87,2.58.48-7.16,53.1-4.68,53.8,2.52.71,22.06-49.15,24.47-48.23,2.44.94-16.94,50.87-14.62,52.01,2.34,1.16,30.85-44.25,33.05-42.89,2.22,1.36-26.13,46.88-24.06,48.43,2.08,1.56,38.54-37.86,40.46-36.12,1.92,1.74-34.36,41.32-32.61,43.23,1.75,1.91,44.87-30.23,46.44-28.17,1.57,2.06-41.4,34.39-40.03,36.58s49.7-21.58,50.86-19.26c1.16,2.3-47.07,26.26-46.12,28.67s52.86-12.14,53.57-9.65c.71,2.47-51.16,17.18-50.68,19.73.47,2.52,54.22-2.23,54.45.35.24,2.55-53.49,7.5-53.49,10.1,0,2.55,53.72,7.66,53.47,10.26Z"/>
  <path class="cls-3" d="M353.97,172.63c1.03,1.12-7.96,10.49-7.06,11.68.92,1.21,12.43-4.81,13.22-3.55.8,1.29-9.76,8.85-9.09,10.19.67,1.35,13.11-2.45,13.65-1.05.54,1.41-11.24,6.9-10.83,8.34.41,1.45,13.34,0,13.61,1.48.27,1.48-12.32,4.72-12.19,6.21.14,1.5,13.11,2.44,13.11,3.94,0,1.5-12.98,2.39-13.12,3.88-.14,1.5,12.44,4.78,12.16,6.26-.28,1.47-13.2-.02-13.61,1.43-.41,1.44,11.35,6.97,10.8,8.37-.54,1.4-12.97-2.44-13.65-1.09-.67,1.34,9.87,8.93,9.07,10.22-.79,1.27-12.29-4.79-13.21-3.59-.91,1.19,8.04,10.59,7.01,11.71-1.01,1.1-11.19-6.96-12.32-5.94-1.13,1.02,5.95,11.89,4.76,12.78-1.21.91-9.76-8.86-11.03-8.07-1.29.8,3.66,12.77,2.32,13.44-1.36.67-7.94-10.5-9.34-9.97-1.41.54,1.23,13.23-.22,13.63-1.46.41-5.85-11.78-7.33-11.51-1.49.27-1.23,13.22-2.73,13.36-1.5.14-3.58-12.65-5.09-12.66-1.51,0-3.64,12.78-5.14,12.64s-1.2-13.09-2.68-13.37-5.92,11.9-7.37,11.49,1.24-13.09-.17-13.63c-1.4-.54-8.02,10.61-9.37,9.94-1.34-.67,3.65-12.63,2.36-13.43-1.27-.79-9.85,8.96-11.06,8.04-1.19-.9,5.93-11.74,4.81-12.76-1.1-1.01-11.32,7.01-12.35,5.88-1.03-1.12,7.96-10.49,7.06-11.68-.92-1.21-12.43,4.81-13.22,3.55-.8-1.29,9.76-8.85,9.09-10.19-.67-1.35-13.11,2.45-13.65,1.05-.54-1.41,11.24-6.9,10.83-8.34-.41-1.45-13.34,0-13.61-1.48-.27-1.48,12.32-4.72,12.19-6.21-.14-1.5-13.11-2.44-13.11-3.94,0-1.5,12.98-2.39,13.12-3.88.14-1.5-12.44-4.78-12.16-6.26.28-1.47,13.2.02,13.61-1.43.41-1.44-11.35-6.97-10.8-8.37.54-1.4,12.97,2.44,13.65,1.09.67-1.34-9.87-8.93-9.07-10.22s12.29,4.79,13.21,3.59c.91-1.19-8.04-10.59-7.01-11.71,1.01-1.1,11.19,6.96,12.32,5.94s-5.95-11.89-4.76-12.78c1.21-.91,9.76,8.86,11.03,8.07,1.29-.8-3.66-12.77-2.32-13.44,1.36-.67,7.94,10.5,9.34,9.97,1.41-.54-1.23-13.23.22-13.63,1.46-.41,5.85,11.78,7.33,11.51,1.49-.27,1.23-13.22,2.73-13.36,1.5-.14,3.58,12.65,5.09,12.66,1.51,0,3.64-12.78,5.14-12.64,1.5.14,1.2,13.09,2.68,13.37,1.48.28,5.92-11.9,7.37-11.49,1.45.41-1.24,13.09.17,13.63,1.4.54,8.02-10.61,9.37-9.94,1.34.67-3.65,12.63-2.36,13.43,1.27.79,9.85-8.96,11.06-8.04,1.19.9-5.93,11.74-4.81,12.76,1.1,1.01,11.32-7.01,12.35-5.88Z"/>
</svg>