<?xml version="1.0" encoding="UTF-8"?>
<svg id="_图层_1" data-name="图层_1" xmlns="http://www.w3.org/2000/svg" viewBox="0 0 595.28 419.53">
  <defs>
    <style>
      .cls-1 {
        fill: #fff;
      }
    </style>
  </defs>
  <path class="cls-1" d="M302.42,214.93c-.73-.08-2.49,11.06-3.98,25.13-.08.75.47,1.43,1.23,1.51h0c.76.08,1.43-.47,1.51-1.23,1.42-14.08,1.97-25.34,1.24-25.41Z"/>
  <path class="cls-1" d="M301.94,214.83c-.7-.24-4.9,10.23-9.49,23.62-.25.72.14,1.5.86,1.74h0c.72.24,1.5-.14,1.75-.86,4.53-13.41,7.58-24.27,6.88-24.5Z"/>
  <path class="cls-1" d="M301.5,214.62c-.63-.38-7.06,8.89-14.53,20.93-.4.65-.2,1.49.45,1.89h0c.65.4,1.5.19,1.9-.45,7.41-12.08,12.81-21.98,12.18-22.36Z"/>
  <path class="cls-1" d="M301.11,214.32c-.53-.51-8.87,7.1-18.84,17.18-.53.54-.53,1.41.02,1.94h0c.54.53,1.42.52,1.95-.02,9.92-10.13,17.4-18.59,16.87-19.1Z"/>
  <path class="cls-1" d="M300.8,213.94c-.4-.62-10.23,4.96-22.2,12.57-.64.41-.83,1.26-.42,1.9h0c.41.64,1.27.82,1.9.41,11.93-7.68,21.11-14.26,20.71-14.88Z"/>
  <path class="cls-1" d="M300.59,213.5c-.25-.69-11.08,2.56-24.45,7.33-.72.26-1.09,1.04-.83,1.76h0c.26.71,1.05,1.08,1.77.82,13.35-4.84,23.77-9.22,23.52-9.91Z"/>
  <path class="cls-1" d="M300.47,213.03c-.09-.73-11.37.04-25.48,1.73-.76.09-1.29.78-1.2,1.53h0c.09.75.78,1.29,1.54,1.19,14.09-1.76,25.23-3.72,25.14-4.45Z"/>
  <path class="cls-1" d="M300.47,212.54c.08-.73-11.1-2.48-25.22-3.96-.76-.08-1.44.47-1.51,1.22h0c-.08.75.47,1.43,1.23,1.5,14.13,1.41,25.43,1.97,25.51,1.23Z"/>
  <path class="cls-1" d="M300.57,212.06c.24-.7-10.27-4.88-23.71-9.46-.72-.25-1.5.14-1.75.86h0c-.24.72.14,1.5.86,1.74,13.46,4.51,24.35,7.55,24.59,6.86Z"/>
  <path class="cls-1" d="M300.78,211.62c.39-.63-8.92-7.03-21-14.48-.65-.4-1.5-.2-1.9.45h0c-.4.65-.19,1.49.45,1.89,12.12,7.38,22.06,12.77,22.44,12.14Z"/>
  <path class="cls-1" d="M301.08,211.24c.52-.52-7.13-8.83-17.24-18.77-.54-.53-1.42-.53-1.95.02h0c-.53.54-.52,1.41.02,1.94,10.17,9.88,18.65,17.34,19.17,16.81Z"/>
  <path class="cls-1" d="M301.46,210.93c.62-.4-4.97-10.19-12.62-22.12-.41-.64-1.26-.83-1.9-.42h0c-.64.41-.83,1.26-.41,1.9,7.7,11.89,14.31,21.04,14.93,20.64Z"/>
  <path class="cls-1" d="M301.9,210.71c.69-.25-2.57-11.04-7.36-24.36-.26-.71-1.05-1.09-1.76-.83h0c-.72.26-1.09,1.05-.83,1.76,4.86,13.3,9.26,23.68,9.95,23.43Z"/>
  <path class="cls-1" d="M302.38,210.6c.73-.09-.04-11.33-1.74-25.39-.09-.75-.78-1.29-1.53-1.2h0c-.76.09-1.29.78-1.2,1.53,1.76,14.04,3.74,25.14,4.47,25.05Z"/>
  <path class="cls-1" d="M302.87,210.59c.73.08,2.49-11.06,3.98-25.13.08-.75-.47-1.43-1.23-1.51h0c-.76-.08-1.43.47-1.51,1.23-1.42,14.08-1.97,25.34-1.24,25.41Z"/>
  <path class="cls-1" d="M303.35,210.7c.7.24,4.9-10.23,9.49-23.62.25-.72-.14-1.5-.86-1.74h0c-.72-.24-1.5.14-1.75.86-4.53,13.41-7.58,24.27-6.88,24.5Z"/>
  <path class="cls-1" d="M303.79,210.91c.63.38,7.06-8.89,14.53-20.93.4-.65.2-1.49-.45-1.89h0c-.65-.4-1.5-.19-1.9.45-7.41,12.08-12.81,21.98-12.18,22.36Z"/>
  <path class="cls-1" d="M304.18,211.21c.53.51,8.87-7.1,18.84-17.18.53-.54.53-1.41-.02-1.94h0c-.54-.53-1.42-.52-1.95.02-9.92,10.13-17.4,18.59-16.87,19.1Z"/>
  <path class="cls-1" d="M304.49,211.59c.4.62,10.23-4.96,22.2-12.57.64-.41.83-1.26.42-1.9h0c-.41-.64-1.27-.82-1.9-.41-11.93,7.68-21.11,14.26-20.71,14.88Z"/>
  <path class="cls-1" d="M304.7,212.02c.25.69,11.08-2.56,24.45-7.33.72-.26,1.09-1.04.83-1.76h0c-.26-.71-1.05-1.08-1.77-.82-13.35,4.84-23.77,9.22-23.52,9.91Z"/>
  <path class="cls-1" d="M304.82,212.5c.09.73,11.37-.04,25.48-1.73.76-.09,1.29-.78,1.2-1.53h0c-.09-.75-.78-1.29-1.54-1.19-14.09,1.76-25.23,3.72-25.14,4.45Z"/>
  <path class="cls-1" d="M304.82,212.99c-.08.73,11.1,2.48,25.22,3.96.76.08,1.44-.47,1.51-1.22h0c.08-.75-.47-1.43-1.23-1.5-14.13-1.41-25.43-1.97-25.51-1.23Z"/>
  <path class="cls-1" d="M304.72,213.46c-.24.7,10.27,4.88,23.71,9.46.72.25,1.5-.14,1.75-.86h0c.24-.72-.14-1.5-.86-1.74-13.46-4.51-24.35-7.55-24.59-6.86Z"/>
  <path class="cls-1" d="M304.51,213.91c-.39.63,8.92,7.03,21,14.48.65.4,1.5.2,1.9-.45h0c.4-.65.19-1.49-.45-1.89-12.12-7.38-22.06-12.77-22.44-12.14Z"/>
  <path class="cls-1" d="M304.21,214.29c-.52.52,7.13,8.83,17.24,18.77.54.53,1.42.53,1.95-.02h0c.53-.54.52-1.41-.02-1.94-10.17-9.88-18.65-17.34-19.17-16.81Z"/>
  <path class="cls-1" d="M303.83,214.6c-.62.4,4.97,10.19,12.62,22.12.41.64,1.26.83,1.9.42h0c.64-.41.83-1.26.41-1.9-7.7-11.89-14.31-21.04-14.93-20.64Z"/>
  <path class="cls-1" d="M303.39,214.82c-.69.25,2.57,11.04,7.36,24.36.26.71,1.05,1.09,1.76.83h0c.72-.26,1.09-1.05.83-1.76-4.86-13.3-9.26-23.68-9.95-23.43Z"/>
  <path class="cls-1" d="M302.91,214.93c-.73.09.04,11.33,1.74,25.39.09.75.78,1.29,1.53,1.2h0c.76-.09,1.29-.78,1.2-1.53-1.76-14.04-3.74-25.14-4.47-25.05Z"/>
</svg>