<?xml version="1.0" encoding="UTF-8"?>
<svg id="_图层_1" data-name="图层_1" xmlns="http://www.w3.org/2000/svg" viewBox="0 0 595.28 419.53">
  <defs>
    <style>
      .cls-1 {
        fill: #3c6fb6;
      }
    </style>
  </defs>
  <path class="cls-1" d="M297.8,220.28c-1.87-.19-6.33,28.14-10.12,63.95-.2,1.92,1.2,3.64,3.12,3.84h0c1.93.2,3.65-1.2,3.84-3.12,3.6-35.83,5.02-64.47,3.15-64.67Z"/>
  <path class="cls-1" d="M296.58,220.02c-1.78-.6-12.46,26.03-24.15,60.1-.63,1.83.35,3.81,2.19,4.43h0c1.83.62,3.83-.36,4.44-2.19,11.51-34.13,19.29-61.74,17.51-62.35Z"/>
  <path class="cls-1" d="M295.45,219.49c-1.6-.98-17.96,22.62-36.97,53.24-1.02,1.64-.51,3.8,1.14,4.81h0c1.65,1.01,3.81.49,4.82-1.15,18.85-30.72,32.6-55.92,31-56.9Z"/>
  <path class="cls-1" d="M294.47,218.73c-1.34-1.31-22.56,18.07-47.93,43.71-1.36,1.37-1.34,3.59.04,4.94h0c1.38,1.35,3.61,1.33,4.96-.05,25.24-25.78,44.27-47.29,42.93-48.6Z"/>
  <path class="cls-1" d="M293.68,217.76c-1.01-1.57-26.03,12.61-56.49,31.99-1.63,1.04-2.11,3.2-1.06,4.83h0c1.05,1.62,3.22,2.09,4.85,1.05,30.36-19.53,53.72-36.29,52.7-37.86Z"/>
  <path class="cls-1" d="M293.13,216.65c-.64-1.76-28.19,6.53-62.22,18.66-1.82.65-2.77,2.65-2.11,4.47h0c.66,1.82,2.67,2.75,4.49,2.09,33.96-12.31,60.48-23.47,59.84-25.23Z"/>
  <path class="cls-1" d="M292.84,215.44c-.23-1.86-28.94.11-64.82,4.4-1.92.23-3.29,1.97-3.06,3.89h0c.24,1.92,1.99,3.28,3.91,3.04,35.86-4.47,64.2-9.47,63.97-11.33Z"/>
  <path class="cls-1" d="M292.83,214.2c.19-1.86-28.24-6.31-64.18-10.08-1.93-.2-3.65,1.19-3.85,3.11h0c-.2,1.92,1.21,3.64,3.13,3.83,35.96,3.59,64.71,5,64.9,3.14Z"/>
  <path class="cls-1" d="M293.1,212.98c.6-1.77-26.12-12.41-60.32-24.06-1.83-.62-3.83.35-4.45,2.18h0c-.62,1.83.36,3.81,2.2,4.43,34.26,11.47,61.97,19.22,62.57,17.45Z"/>
  <path class="cls-1" d="M293.63,211.86c.98-1.59-22.7-17.89-53.43-36.83-1.65-1.02-3.81-.5-4.83,1.14h0c-1.01,1.64-.5,3.8,1.16,4.81,30.83,18.78,56.12,32.48,57.1,30.89Z"/>
  <path class="cls-1" d="M294.39,210.88c1.31-1.33-18.13-22.48-43.87-47.76-1.38-1.36-3.6-1.34-4.96.04h0c-1.36,1.38-1.33,3.59.05,4.94,25.87,25.15,47.46,44.11,48.77,42.77Z"/>
  <path class="cls-1" d="M295.36,210.09c1.58-1.01-12.66-25.93-32.1-56.29-1.04-1.63-3.21-2.1-4.84-1.06h0c-1.63,1.04-2.1,3.21-1.05,4.83,19.6,30.25,36.42,53.53,38,52.52Z"/>
  <path class="cls-1" d="M296.48,209.54c1.76-.63-6.55-28.09-18.73-61.99-.65-1.82-2.66-2.76-4.49-2.11h0c-1.82.66-2.76,2.66-2.1,4.48,12.36,33.84,23.55,60.26,25.32,59.62Z"/>
  <path class="cls-1" d="M297.69,209.26c1.86-.23-.11-28.84-4.42-64.59-.23-1.92-1.98-3.28-3.9-3.05h0c-1.92.23-3.29,1.98-3.05,3.9,4.49,35.73,9.5,63.97,11.37,63.74Z"/>
  <path class="cls-1" d="M298.94,209.24c1.87.19,6.33-28.14,10.12-63.95.2-1.92-1.2-3.64-3.12-3.84h0c-1.93-.2-3.65,1.2-3.84,3.12-3.6,35.83-5.02,64.47-3.15,64.67Z"/>
  <path class="cls-1" d="M300.16,209.51c1.78.6,12.46-26.03,24.15-60.1.63-1.83-.35-3.81-2.19-4.43h0c-1.83-.62-3.83.36-4.44,2.19-11.51,34.13-19.29,61.74-17.51,62.35Z"/>
  <path class="cls-1" d="M301.29,210.04c1.6.98,17.96-22.62,36.97-53.24,1.02-1.64.51-3.8-1.14-4.81h0c-1.65-1.01-3.81-.49-4.82,1.15-18.85,30.72-32.6,55.92-31,56.9Z"/>
  <path class="cls-1" d="M302.27,210.8c1.34,1.31,22.56-18.07,47.93-43.71,1.36-1.37,1.34-3.59-.04-4.94h0c-1.38-1.35-3.61-1.33-4.96.05-25.24,25.78-44.27,47.29-42.93,48.6Z"/>
  <path class="cls-1" d="M303.05,211.77c1.01,1.57,26.03-12.61,56.49-31.99,1.63-1.04,2.11-3.2,1.06-4.83h0c-1.05-1.62-3.22-2.09-4.85-1.05-30.36,19.53-53.72,36.29-52.7,37.86Z"/>
  <path class="cls-1" d="M303.61,212.88c.64,1.76,28.19-6.53,62.22-18.66,1.82-.65,2.77-2.65,2.11-4.47h0c-.66-1.82-2.67-2.75-4.49-2.09-33.96,12.31-60.48,23.47-59.84,25.23Z"/>
  <path class="cls-1" d="M303.9,214.09c.23,1.86,28.94-.11,64.82-4.4,1.92-.23,3.29-1.97,3.06-3.89h0c-.24-1.92-1.99-3.28-3.91-3.04-35.86,4.47-64.2,9.47-63.97,11.33Z"/>
  <path class="cls-1" d="M303.91,215.33c-.19,1.86,28.24,6.31,64.18,10.08,1.93.2,3.65-1.19,3.85-3.11h0c.2-1.92-1.21-3.64-3.13-3.83-35.96-3.59-64.71-5-64.9-3.14Z"/>
  <path class="cls-1" d="M303.64,216.54c-.6,1.77,26.12,12.41,60.32,24.06,1.83.62,3.83-.35,4.45-2.18h0c.62-1.83-.36-3.81-2.2-4.43-34.26-11.47-61.97-19.22-62.57-17.45Z"/>
  <path class="cls-1" d="M303.11,217.67c-.98,1.59,22.7,17.89,53.43,36.83,1.65,1.02,3.81.5,4.83-1.14h0c1.01-1.64.5-3.8-1.16-4.81-30.83-18.78-56.12-32.48-57.1-30.89Z"/>
  <path class="cls-1" d="M302.34,218.65c-1.31,1.33,18.13,22.48,43.87,47.76,1.38,1.36,3.6,1.34,4.96-.04h0c1.36-1.38,1.33-3.59-.05-4.94-25.87-25.15-47.46-44.11-48.77-42.77Z"/>
  <path class="cls-1" d="M301.38,219.43c-1.58,1.01,12.66,25.93,32.1,56.29,1.04,1.63,3.21,2.1,4.84,1.06h0c1.63-1.04,2.1-3.21,1.05-4.83-19.6-30.25-36.42-53.53-38-52.52Z"/>
  <path class="cls-1" d="M300.26,219.98c-1.76.63,6.55,28.09,18.73,61.99.65,1.82,2.66,2.76,4.49,2.11h0c1.82-.66,2.76-2.66,2.1-4.48-12.36-33.84-23.55-60.26-25.32-59.62Z"/>
  <path class="cls-1" d="M299.05,220.27c-1.86.23.11,28.84,4.42,64.59.23,1.92,1.98,3.28,3.9,3.05h0c1.92-.23,3.29-1.98,3.05-3.9-4.49-35.73-9.5-63.97-11.37-63.74Z"/>
</svg>