<?xml version="1.0" encoding="UTF-8"?>
<svg id="_图层_1" data-name="图层_1" xmlns="http://www.w3.org/2000/svg" viewBox="0 0 595.28 419.53">
  <defs>
    <style>
      .cls-1 {
        fill: #223e95;
      }
    </style>
  </defs>
  <path class="cls-1" d="M392.8,178.61c2.99,8-29.39,24.69-28.31,32.81,1.13,8.39,36.71,16.06,35.94,24.29-.78,8.36-37.22,9.37-39.82,17.28-2.62,7.94,26.12,30.26,21.8,37.43-4.3,7.13-37.56-7.65-43.4-1.59-5.74,5.96,10.44,38.51,3.34,43.14-6.88,4.49-30.36-23.23-38.39-20.25-8.03,2.98-7.6,39.26-15.75,40.34-8.42,1.12-17.53-34.05-25.79-34.82-8.39-.78-23.86,32.08-31.79,29.48-7.97-2.61-.88-38.22-8.07-42.52-7.16-4.28-35.38,18.7-41.47,12.88-5.98-5.72,15.9-34.72,11.24-41.8-4.51-6.85-39.96,1.63-42.95-6.38-2.99-8,29.39-24.69,28.31-32.81-1.13-8.39-36.71-16.06-35.94-24.29.78-8.36,37.22-9.37,39.82-17.28,2.62-7.94-26.12-30.26-21.8-37.43,4.3-7.13,37.56,7.65,43.4,1.59,5.74-5.96-10.44-38.51-3.34-43.14,6.88-4.49,30.36,23.23,38.39,20.25,8.03-2.98,7.6-39.26,15.75-40.34,8.42-1.12,17.53,34.05,25.79,34.82,8.39.78,23.86-32.08,31.79-29.48,7.97,2.61.88,38.22,8.07,42.52,7.16,4.28,35.38-18.7,41.47-12.88,5.98,5.72-15.9,34.72-11.24,41.8,4.51,6.85,39.96-1.63,42.95,6.38Z"/>
</svg>