<?xml version="1.0" encoding="UTF-8"?>
<svg id="_图层_1" data-name="图层_1" xmlns="http://www.w3.org/2000/svg" viewBox="0 0 595.28 419.53">
  <defs>
    <style>
      .cls-1 {
        fill: #a1bce2;
      }
    </style>
  </defs>
  <path class="cls-1" d="M302.28,251.8c-2.94.04-4.8,44.98-4.26,101.45.03,3.03,2.52,5.46,5.56,5.42h0c3.04-.04,5.47-2.53,5.43-5.55-.83-56.47-3.78-101.36-6.72-101.32Z"/>
  <path class="cls-1" d="M293.77,250.95c-2.88-.62-14.72,42.78-26.81,97.97-.65,2.96,1.24,5.88,4.21,6.52h0c2.97.64,5.9-1.25,6.53-4.21,11.8-55.24,18.95-99.65,16.07-100.27Z"/>
  <path class="cls-1" d="M285.67,248.23c-2.67-1.24-23.91,38.45-48.02,89.56-1.29,2.74-.1,6.01,2.65,7.29h0c2.75,1.28,6.03.09,7.31-2.66,23.84-51.24,40.73-92.95,38.06-94.19Z"/>
  <path class="cls-1" d="M278.38,243.79c-2.32-1.8-31.9,32.18-66.81,76.67-1.87,2.38-1.44,5.83.95,7.69h0c2.4,1.86,5.86,1.42,7.72-.97,34.69-44.67,60.46-81.59,58.14-83.39Z"/>
  <path class="cls-1" d="M272.26,237.84c-1.86-2.27-38.28,24.3-82.26,59.94-2.36,1.91-2.71,5.37-.79,7.71h0c1.92,2.34,5.39,2.69,7.74.76,43.79-35.86,77.17-66.14,75.31-68.41Z"/>
  <path class="cls-1" d="M267.63,230.68c-1.31-2.63-42.75,15.21-93.58,40.19-2.72,1.34-3.84,4.63-2.49,7.34h0c1.35,2.71,4.66,3.82,7.38,2.46,50.7-25.25,90.01-47.37,88.7-50Z"/>
  <path class="cls-1" d="M264.7,222.68c-.69-2.85-45.07,5.35-100.21,18.44-2.96.7-4.78,3.66-4.07,6.61h0c.71,2.94,3.69,4.75,6.64,4.04,55.07-13.38,98.33-26.23,97.64-29.08Z"/>
  <path class="cls-1" d="M263.64,214.22c-.04-2.93-45.14-4.78-101.82-4.25-3.04.03-5.48,2.51-5.44,5.54h0c.04,3.03,2.54,5.45,5.57,5.41,56.68-.83,101.72-3.77,101.68-6.7Z"/>
  <path class="cls-1" d="M264.5,205.75c.62-2.87-42.94-14.67-98.32-26.71-2.97-.65-5.9,1.23-6.54,4.19h0c-.64,2.96,1.25,5.88,4.23,6.51,55.44,11.76,100.01,18.88,100.63,16.01Z"/>
  <path class="cls-1" d="M267.22,197.67c1.24-2.66-38.59-23.82-89.89-47.84-2.75-1.29-6.03-.1-7.31,2.64h0c-1.28,2.74-.09,6.01,2.67,7.28,51.42,23.76,93.29,40.58,94.53,37.93Z"/>
  <path class="cls-1" d="M271.68,190.41c1.81-2.31-32.3-31.78-76.95-66.57-2.39-1.86-5.85-1.44-7.72.95h0c-1.87,2.39-1.43,5.84.97,7.69,44.83,34.56,81.89,60.25,83.69,57.93Z"/>
  <path class="cls-1" d="M277.66,184.31c2.28-1.86-24.39-38.15-60.15-81.97-1.92-2.35-5.39-2.7-7.74-.78h0c-2.35,1.92-2.7,5.37-.77,7.71,35.99,43.64,66.38,76.89,68.66,75.04Z"/>
  <path class="cls-1" d="M284.84,179.69c2.64-1.3-15.26-42.6-40.34-93.25-1.34-2.71-4.65-3.83-7.37-2.48h0c-2.72,1.35-3.83,4.64-2.47,7.35,25.34,50.52,47.54,89.68,50.18,88.38Z"/>
  <path class="cls-1" d="M292.87,176.78c2.86-.69-5.36-44.91-18.5-99.85-.7-2.94-3.68-4.76-6.63-4.05h0c-2.95.71-4.77,3.68-4.05,6.62,13.42,54.87,26.32,97.98,29.18,97.29Z"/>
  <path class="cls-1" d="M301.36,175.73c2.94-.04,4.8-44.98,4.26-101.45-.03-3.03-2.52-5.46-5.56-5.42h0c-3.04.04-5.47,2.53-5.43,5.55.83,56.47,3.78,101.36,6.72,101.32Z"/>
  <path class="cls-1" d="M309.86,176.58c2.88.62,14.72-42.78,26.81-97.97.65-2.96-1.24-5.88-4.21-6.52h0c-2.97-.64-5.9,1.25-6.53,4.21-11.8,55.24-18.95,99.65-16.07,100.27Z"/>
  <path class="cls-1" d="M317.96,179.29c2.67,1.24,23.91-38.45,48.02-89.56,1.29-2.74.1-6.01-2.65-7.29h0c-2.75-1.28-6.03-.09-7.31,2.66-23.84,51.24-40.73,92.95-38.06,94.19Z"/>
  <path class="cls-1" d="M325.26,183.74c2.32,1.8,31.9-32.18,66.81-76.67,1.87-2.38,1.44-5.83-.95-7.69h0c-2.4-1.86-5.86-1.42-7.72.97-34.69,44.67-60.46,81.59-58.14,83.39Z"/>
  <path class="cls-1" d="M331.38,189.69c1.86,2.27,38.28-24.3,82.26-59.94,2.36-1.91,2.71-5.37.79-7.71h0c-1.92-2.34-5.39-2.69-7.74-.76-43.79,35.86-77.17,66.14-75.31,68.41Z"/>
  <path class="cls-1" d="M336.01,196.84c1.31,2.63,42.75-15.21,93.58-40.19,2.72-1.34,3.84-4.63,2.49-7.34h0c-1.35-2.71-4.66-3.82-7.38-2.46-50.7,25.25-90.01,47.37-88.7,50Z"/>
  <path class="cls-1" d="M338.93,204.85c.69,2.85,45.07-5.35,100.21-18.44,2.96-.7,4.78-3.66,4.07-6.61h0c-.71-2.94-3.69-4.75-6.64-4.04-55.07,13.38-98.33,26.23-97.64,29.08Z"/>
  <path class="cls-1" d="M339.99,213.3c.04,2.93,45.14,4.78,101.82,4.25,3.04-.03,5.48-2.51,5.44-5.54h0c-.04-3.03-2.54-5.45-5.57-5.41-56.68.83-101.72,3.77-101.68,6.7Z"/>
  <path class="cls-1" d="M339.14,221.78c-.62,2.87,42.94,14.67,98.32,26.71,2.97.65,5.9-1.23,6.54-4.19h0c.64-2.96-1.25-5.88-4.23-6.51-55.44-11.76-100.01-18.88-100.63-16.01Z"/>
  <path class="cls-1" d="M336.41,229.85c-1.24,2.66,38.59,23.82,89.89,47.84,2.75,1.29,6.03.1,7.31-2.64h0c1.28-2.74.09-6.01-2.67-7.28-51.42-23.76-93.29-40.58-94.53-37.93Z"/>
  <path class="cls-1" d="M331.95,237.12c-1.81,2.31,32.3,31.78,76.95,66.57,2.39,1.86,5.85,1.44,7.72-.95h0c1.87-2.39,1.43-5.84-.97-7.69-44.83-34.56-81.89-60.25-83.69-57.93Z"/>
  <path class="cls-1" d="M325.98,243.21c-2.28,1.86,24.39,38.15,60.15,81.97,1.92,2.35,5.39,2.7,7.74.78h0c2.35-1.92,2.7-5.37.77-7.71-35.99-43.64-66.38-76.89-68.66-75.04Z"/>
  <path class="cls-1" d="M318.8,247.83c-2.64,1.3,15.26,42.6,40.34,93.25,1.34,2.71,4.65,3.83,7.37,2.48h0c2.72-1.35,3.83-4.64,2.47-7.35-25.34-50.52-47.54-89.68-50.18-88.38Z"/>
  <path class="cls-1" d="M310.76,250.74c-2.86.69,5.36,44.91,18.5,99.85.7,2.94,3.68,4.76,6.63,4.05h0c2.95-.71,4.77-3.68,4.05-6.62-13.42-54.87-26.32-97.98-29.18-97.29Z"/>
</svg>