<?xml version="1.0" encoding="UTF-8"?>
<svg id="_图层_1" data-name="图层_1" xmlns="http://www.w3.org/2000/svg" viewBox="0 0 595.28 419.53">
  <defs>
    <style>
      .cls-1 {
        fill: #4f81c2;
      }
    </style>
  </defs>
  <path class="cls-1" d="M250.56,301.62c-2.21-1.33-24.52,31.3-50.41,73.63-1.39,2.27-.66,5.23,1.62,6.61h0c2.28,1.38,5.25.65,6.63-1.63,25.67-42.47,44.37-77.28,42.16-78.61Z"/>
  <path class="cls-1" d="M219.09,271.27c-1.41-2.16-35.72,17.6-77.48,44.55-2.24,1.44-2.87,4.43-1.42,6.65h0c1.46,2.23,4.45,2.85,6.68,1.4,41.62-27.16,73.62-50.44,72.21-52.6Z"/>
  <path class="cls-1" d="M203.96,230.33c-.33-2.55-39.84.41-89.2,6.64-2.65.33-4.52,2.75-4.18,5.38h0c.34,2.64,2.77,4.49,5.41,4.15,49.33-6.48,88.3-13.62,87.97-16.17Z"/>
  <path class="cls-1" d="M208.15,186.89c.81-2.44-36.08-16.85-83.26-32.58-2.53-.84-5.27.52-6.11,3.04h0c-.84,2.52.54,5.25,3.07,6.08,47.26,15.49,85.48,25.91,86.29,23.46Z"/>
  <path class="cls-1" d="M230.84,149.58c1.8-1.85-25.17-30.78-60.83-65.35-1.91-1.85-4.97-1.81-6.83.1h0c-1.85,1.91-1.8,4.96.12,6.8,35.84,34.39,65.74,60.3,67.53,58.45Z"/>
  <path class="cls-1" d="M267.54,125.76c2.42-.89-9.27-38.61-26.35-85.18-.92-2.5-3.69-3.78-6.19-2.86h0c-2.5.92-3.78,3.69-2.85,6.18,17.32,46.48,32.97,82.75,35.39,81.86Z"/>
  <path class="cls-1" d="M310.97,120.17c2.57.25,8.46-38.8,13.35-88.13.26-2.64-1.68-5-4.34-5.25h0c-2.65-.25-5.01,1.69-5.26,4.33-4.64,49.36-6.33,88.81-3.75,89.05Z"/>
  <path class="cls-1" d="M352.53,133.91c2.21,1.33,24.52-31.3,50.41-73.63,1.39-2.27.66-5.23-1.62-6.61h0c-2.28-1.38-5.25-.65-6.63,1.63-25.67,42.47-44.37,77.28-42.16,78.61Z"/>
  <path class="cls-1" d="M383.99,164.26c1.41,2.16,35.72-17.6,77.48-44.55,2.24-1.44,2.87-4.43,1.42-6.65h0c-1.46-2.23-4.45-2.85-6.68-1.4-41.62,27.16-73.62,50.44-72.21,52.6Z"/>
  <path class="cls-1" d="M399.13,205.2c.33,2.55,39.84-.41,89.2-6.64,2.65-.33,4.52-2.75,4.18-5.38h0c-.34-2.64-2.77-4.49-5.41-4.15-49.33,6.48-88.3,13.62-87.97,16.17Z"/>
  <path class="cls-1" d="M394.93,248.63c-.81,2.44,36.08,16.85,83.26,32.58,2.53.84,5.27-.52,6.11-3.04h0c.84-2.52-.54-5.25-3.07-6.08-47.26-15.49-85.48-25.91-86.29-23.46Z"/>
  <path class="cls-1" d="M372.24,285.95c-1.8,1.85,25.17,30.78,60.83,65.35,1.91,1.85,4.97,1.81,6.83-.1h0c1.85-1.91,1.8-4.96-.12-6.8-35.84-34.39-65.74-60.3-67.53-58.45Z"/>
  <path class="cls-1" d="M335.55,309.76c-2.42.89,9.27,38.61,26.35,85.18.92,2.5,3.69,3.78,6.19,2.86h0c2.5-.92,3.78-3.69,2.85-6.18-17.32-46.48-32.97-82.75-35.39-81.86Z"/>
  <path class="cls-1" d="M292.12,315.36c-2.57-.25-8.46,38.8-13.35,88.13-.26,2.64,1.68,5,4.34,5.25h0c2.65.25,5.01-1.69,5.26-4.33,4.64-49.36,6.33-88.81,3.75-89.05Z"/>
</svg>