<?xml version="1.0" encoding="UTF-8"?>
<svg id="_图层_1" data-name="图层_1" xmlns="http://www.w3.org/2000/svg" viewBox="0 0 211.28 211.28">
  <defs>
    <style>
      .cls-1 {
        fill: #231815;
      }
    </style>
  </defs>
  <path class="cls-1" d="M149.33,164.97c6.04,5.25,9.56,13.25,9.08,21.5-.77,13.12-11.37,23.84-24.48,24.75-4.85.33-9.48-.64-13.5-2.63l-.2-.11c-34.78-17.73-69.67-35.2-104.6-52.53-9.32-4.73-15.62-13.01-15.62-23.9V26.41C0,11.82,11.82,0,26.41,0h105.01c14.32,0,26.51,11.13,27.02,25.43.54,15.03-11.48,27.39-26.39,27.39h-52.19c-14.32,0-26.51,11.13-27.02,25.44-.62,17.5,16.64,31.46,33.58,26.24,4.81-1.48,9.21-4.04,13.55-6.58,18.86-11.02,37.73-22.04,56.59-33.06,9.68-5.66,16.09-12.04,28.31-12.04,12.57,0,26.41,9.92,26.41,26.41,0,15.26-12.39,26.41-26.42,26.41h-52.18c-14.62,0-27.13,11.95-27.04,26.57.05,7.72,3.55,15.15,9.46,20.1,7.26,6.08,14.01,6.02,16.94,6.15,9.74.43,14.41,4.02,17.28,6.51Z"/>
</svg>